<svg width="54" height="27" viewBox="0 0 54 27" fill="none" xmlns="http://www.w3.org/2000/svg">
<rect width="54" height="26" transform="translate(0 0.5)" fill="white"/>
<path d="M38.8712 9.5H32.8906C33.239 11.4742 35.1551 13.3322 37.2454 13.3322H42.0067C42.0648 13.1581 42.0648 12.8677 42.0648 12.6935C42.0648 10.9516 40.6132 9.5 38.8712 9.5Z" fill="url(#paint0_linear_587_155922)"/>
<path d="M33.4131 13.6816V18.501H36.3163V15.9461H38.8711C40.2647 15.9461 41.484 14.9591 41.8905 13.6816H33.4131Z" fill="#4FAD50"/>
<path d="M23.1934 9.5V18.4419H25.7482C25.7482 18.4419 26.3869 18.4419 26.7353 17.8032C28.4772 14.3774 28.9998 13.3322 28.9998 13.3322H29.3482V18.4419H32.2514V9.5H29.6966C29.6966 9.5 29.0579 9.55807 28.7095 10.1387C27.2579 13.1 26.445 14.6097 26.445 14.6097H26.0966V9.5H23.1934Z" fill="#4FAD50"/>
<path d="M11 18.5005V9.55859H13.9032C13.9032 9.55859 14.7161 9.55859 15.1806 10.836C16.3419 14.2037 16.4581 14.6683 16.4581 14.6683C16.4581 14.6683 16.6903 13.8553 17.7355 10.836C18.2 9.55859 19.0129 9.55859 19.0129 9.55859H21.9161V18.5005H19.0129V13.6812H18.6645L17.0387 18.5005H15.7613L14.1355 13.6812H13.7871V18.5005H11Z" fill="#4FAD50"/>
<defs>
<linearGradient id="paint0_linear_587_155922" x1="32.8803" y1="11.4436" x2="42.0442" y2="11.4436" gradientUnits="userSpaceOnUse">
<stop stop-color="#27B1E6"/>
<stop offset="1" stop-color="#148ACA"/>
</linearGradient>
</defs>
</svg>
