<svg width="123" height="123" viewBox="0 0 123 123" fill="none" xmlns="http://www.w3.org/2000/svg">
<path d="M61.7392 113.354C90.2456 113.354 113.355 90.2448 113.355 61.7384C113.355 33.232 90.2456 10.123 61.7392 10.123C33.2328 10.123 10.1238 33.232 10.1238 61.7384C10.1238 90.2448 33.2328 113.354 61.7392 113.354Z" fill="#D7CCC3"/>
<g clip-path="url(#clip0_1244_155430)">
<path d="M61.0404 35.9316H64.7329C68.2493 36.1132 71.7118 36.6479 75.1203 37.5358C79.7075 38.7303 84.306 40.4745 88.4193 42.8609C88.4485 42.8782 88.4727 42.9027 88.4896 42.932C88.5064 42.9613 88.5153 42.9943 88.5153 43.0279V51.5717C88.5153 51.6881 88.4686 51.7125 88.3751 51.6449C86.779 50.4851 85.1552 49.961 83.1232 49.726C81.3103 49.5171 79.44 49.4421 77.5125 49.5012C70.2691 49.7234 60.5564 54.3267 61.561 63.3161C62.2573 69.5519 66.7156 74.2591 72.7762 75.3714C74.8562 75.7529 77.0083 75.6797 79.1085 75.5512C82.6771 75.3329 85.9379 74.2347 88.8907 72.2568C88.9002 72.2502 88.9114 72.2464 88.9229 72.2458C88.9344 72.2453 88.9458 72.2479 88.956 72.2534C88.9662 72.259 88.9746 72.2673 88.9805 72.2774C88.9863 72.2875 88.9894 72.299 88.9892 72.3107V81.6598C88.9893 81.682 88.9835 81.7039 88.9727 81.723C88.9618 81.7422 88.9461 81.7581 88.9273 81.769C88.5794 81.9762 88.2314 82.1723 87.8835 82.3572C80.9703 86.0383 73.6182 88.1592 65.8272 88.7201H60.1432C46.6294 87.8737 34.0532 80.6207 31.6194 66.1148C31.4442 65.0728 31.3174 63.8817 31.239 62.5416V59.8496C31.7773 50.9179 36.8877 43.1217 44.8906 39.3738C49.8657 37.0426 55.4625 36.105 61.0404 35.9316ZM50.5999 61.4692C49.23 61.7363 47.7983 61.4962 46.5068 61.3587C46.4588 61.3536 46.4348 61.3758 46.4348 61.4255V66.7904C46.4348 66.8349 46.4563 66.8611 46.4992 66.8688C51.578 67.8231 56.8715 65.4701 58.1314 59.996C58.8479 56.8775 57.77 53.181 55.9377 50.6764C54.0459 48.0884 50.9461 46.9196 47.8021 47.1174C43.6698 47.3794 40.45 50.4838 39.6577 54.5682C39.5431 55.1607 39.4854 56.0127 39.4845 57.1241C39.4828 62.8234 39.4833 68.5222 39.4858 74.2206C39.4858 74.2617 39.4989 74.2985 39.525 74.3311L44.4495 80.4358C44.4585 80.4464 44.4705 80.4541 44.4839 80.4577C44.4972 80.4613 44.5113 80.4607 44.5244 80.456C44.5374 80.4512 44.5487 80.4426 44.5567 80.4312C44.5648 80.4198 44.5693 80.4062 44.5696 80.3921C44.5696 72.7817 44.5708 65.1725 44.5734 57.5646C44.5742 56.8351 44.6315 56.2751 44.7452 55.8847C45.9141 51.8812 52 51.9467 53.0893 56.0105C53.6832 58.2274 53.1967 60.9618 50.5999 61.4692Z" fill="white"/>
<path d="M93.4122 57.0638V61.5746L89.8196 61.5823C89.7921 61.5823 89.7657 61.5934 89.7463 61.6131C89.7269 61.6329 89.7159 61.6597 89.7159 61.6876V68.1699C89.7159 68.1869 89.7093 68.2033 89.6974 68.2153C89.6856 68.2274 89.6695 68.2341 89.6528 68.2341H81.9127C81.896 68.2341 81.8799 68.2274 81.868 68.2153C81.8562 68.2033 81.8495 68.1869 81.8495 68.1699V61.5874C81.8495 61.5704 81.8429 61.554 81.831 61.542C81.8192 61.53 81.8031 61.5232 81.7864 61.5232H77.9953C77.9786 61.5232 77.9625 61.5164 77.9506 61.5044C77.9388 61.4923 77.9321 61.476 77.9321 61.459V57.1306C77.9321 57.0852 77.954 57.0625 77.9978 57.0625L93.4122 57.0638Z" fill="white"/>
</g>
<defs>
<clipPath id="clip0_1244_155430">
<rect width="62.1731" height="52.7885" fill="white" transform="translate(31.239 35.9316)"/>
</clipPath>
</defs>
</svg>
