<svg width="12" height="13" viewBox="0 0 12 13" fill="none" xmlns="http://www.w3.org/2000/svg">
<path fill-rule="evenodd" clip-rule="evenodd" d="M11.7147 8.32585C10.9421 10.7473 8.67439 12.5 5.99722 12.5C3.32006 12.5 0.872626 10.6028 0.196387 8.03126C6.45669 10.336 7.06994 6.56207 11.7165 8.32399M11.9704 6.29342H11.9629C11.9629 6.29342 11.9796 6.29713 11.9704 6.29342ZM11.9963 6.30824C11.9981 6.37124 12 6.43423 12 6.49722C12 6.66396 11.9926 6.827 11.9796 6.99004C9.33766 6.0396 7.87772 6.66582 6.38444 7.30686C6.08986 7.43284 5.81195 7.544 5.54887 7.64034C3.95739 8.22024 2.88096 8.24062 1.41176 7.78115C1.30431 7.74039 1.19685 7.69963 1.08569 7.65331C1.19685 7.69963 1.30616 7.74039 1.41176 7.78115C0.996758 7.65146 0.548402 7.48286 0.0500232 7.27906C0.0166744 7.02339 0 6.76216 0 6.49722C0 6.27304 0.012969 6.05072 0.0370542 5.8321C4.63733 7.52918 6.19361 5.94511 8.53173 5.68018C8.91709 5.63571 9.32283 5.6283 9.76749 5.67647C10.4048 5.74502 11.12 5.93029 11.9648 6.28972L11.9963 6.30639V6.30824ZM11.4868 4.06832C11.5868 4.29435 11.6739 4.52779 11.7462 4.76864C9.15794 3.86267 7.71283 4.48147 6.23437 5.1151C5.64335 5.36892 5.12459 5.55975 4.64474 5.69129C3.56647 5.98587 2.69199 5.97846 1.64335 5.70056C1.18573 5.58013 0.696619 5.40598 0.142659 5.1855C0.237147 4.76123 0.3761 4.35364 0.555813 3.97013C4.30199 5.1466 5.87124 3.99792 7.84808 3.62923C8.48726 3.51065 9.17091 3.4736 9.98425 3.62367C10.44 3.70704 10.9347 3.8497 11.4868 4.06832ZM5.99907 0.5C7.68504 0.5 9.20797 1.19662 10.2992 2.31566C8.44095 1.95438 7.23483 2.47128 6.00648 2.99745C5.30431 3.29944 4.70403 3.51251 4.15007 3.6422C3.28115 3.84599 2.5308 3.84044 1.68226 3.64961C1.41732 3.59032 1.14312 3.51065 0.852246 3.41431C1.90088 1.66906 3.81288 0.5 5.99907 0.5Z" fill="#808080"/>
</svg>
