<svg width="24" height="24" viewBox="0 0 24 24" fill="none" xmlns="http://www.w3.org/2000/svg">
<mask id="mask0_517_86895" style="mask-type:alpha" maskUnits="userSpaceOnUse" x="0" y="0" width="24" height="24">
<rect width="24" height="24" transform="matrix(-1 0 0 1 24 0)" fill="#D9D9D9"/>
</mask>
<g mask="url(#mask0_517_86895)">
<path d="M17 22C17.55 22 18.0208 21.8042 18.4125 21.4125C18.8042 21.0208 19 20.55 19 20C19 19.45 18.8042 18.9792 18.4125 18.5875C18.0208 18.1958 17.55 18 17 18C16.45 18 15.9792 18.1958 15.5875 18.5875C15.1958 18.9792 15 19.45 15 20C15 20.55 15.1958 21.0208 15.5875 21.4125C15.9792 21.8042 16.45 22 17 22ZM7 22C7.55 22 8.02083 21.8042 8.4125 21.4125C8.80417 21.0208 9 20.55 9 20C9 19.45 8.80417 18.9792 8.4125 18.5875C8.02083 18.1958 7.55 18 7 18C6.45 18 5.97917 18.1958 5.5875 18.5875C5.19583 18.9792 5 19.45 5 20C5 20.55 5.19583 21.0208 5.5875 21.4125C5.97917 21.8042 6.45 22 7 22ZM18.8 4H4.05C3.66667 4 3.375 4.17083 3.175 4.5125C2.975 4.85417 2.96667 5.2 3.15 5.55L6.7 11.95C6.88333 12.2833 7.12917 12.5417 7.4375 12.725C7.74583 12.9083 8.08333 13 8.45 13H15.9L17 15H6C5.71667 15 5.47917 15.0958 5.2875 15.2875C5.09583 15.4792 5 15.7167 5 16C5 16.2833 5.09583 16.5208 5.2875 16.7125C5.47917 16.9042 5.71667 17 6 17H17C17.75 17 18.3167 16.6708 18.7 16.0125C19.0833 15.3542 19.1 14.7 18.75 14.05L17.4 11.6L21 4H22C22.2833 4 22.5208 3.90417 22.7125 3.7125C22.9042 3.52083 23 3.28333 23 3C23 2.71667 22.9042 2.47917 22.7125 2.2875C22.5208 2.09583 22.2833 2 22 2H20.375C20.1917 2 20.0167 2.05 19.85 2.15C19.6833 2.25 19.5583 2.39167 19.475 2.575L18.8 4Z" fill="#333333"/>
</g>
</svg>
