<svg width="21" height="20" viewBox="0 0 21 20" fill="none" xmlns="http://www.w3.org/2000/svg">
<mask id="mask0_203_154800" style="mask-type:alpha" maskUnits="userSpaceOnUse" x="0" y="0" width="21" height="20">
<rect x="0.5" width="20" height="20" fill="#D9D9D9"/>
</mask>
<g mask="url(#mask0_203_154800)">
<path d="M4.1 13.8421V15.4211H16.9V13.8421H4.1ZM4.1 5.15789H5.86C5.79333 5.03947 5.75 4.91447 5.73 4.78289C5.71 4.65132 5.7 4.51316 5.7 4.36842C5.7 3.71053 5.93333 3.15132 6.4 2.69079C6.86667 2.23026 7.43333 2 8.1 2C8.5 2 8.87 2.10197 9.21 2.30592C9.55 2.50987 9.84667 2.76316 10.1 3.06579L10.5 3.57895L10.9 3.06579C11.14 2.75 11.4333 2.49342 11.78 2.29605C12.1267 2.09868 12.5 2 12.9 2C13.5667 2 14.1333 2.23026 14.6 2.69079C15.0667 3.15132 15.3 3.71053 15.3 4.36842C15.3 4.51316 15.29 4.65132 15.27 4.78289C15.25 4.91447 15.2067 5.03947 15.14 5.15789H16.9C17.34 5.15789 17.7167 5.3125 18.03 5.62171C18.3433 5.93092 18.5 6.30263 18.5 6.73684V15.4211C18.5 15.8553 18.3433 16.227 18.03 16.5362C17.7167 16.8454 17.34 17 16.9 17H4.1C3.66 17 3.28333 16.8454 2.97 16.5362C2.65667 16.227 2.5 15.8553 2.5 15.4211V6.73684C2.5 6.30263 2.65667 5.93092 2.97 5.62171C3.28333 5.3125 3.66 5.15789 4.1 5.15789ZM4.1 11.4737H16.9V6.73684H12.82L14.5 8.98684L13.22 9.89474L10.5 6.26316L7.78 9.89474L6.5 8.98684L8.14 6.73684H4.1V11.4737ZM8.1 5.15789C8.32667 5.15789 8.51667 5.08224 8.67 4.93092C8.82333 4.77961 8.9 4.59211 8.9 4.36842C8.9 4.14474 8.82333 3.95724 8.67 3.80592C8.51667 3.65461 8.32667 3.57895 8.1 3.57895C7.87333 3.57895 7.68333 3.65461 7.53 3.80592C7.37667 3.95724 7.3 4.14474 7.3 4.36842C7.3 4.59211 7.37667 4.77961 7.53 4.93092C7.68333 5.08224 7.87333 5.15789 8.1 5.15789ZM12.9 5.15789C13.1267 5.15789 13.3167 5.08224 13.47 4.93092C13.6233 4.77961 13.7 4.59211 13.7 4.36842C13.7 4.14474 13.6233 3.95724 13.47 3.80592C13.3167 3.65461 13.1267 3.57895 12.9 3.57895C12.6733 3.57895 12.4833 3.65461 12.33 3.80592C12.1767 3.95724 12.1 4.14474 12.1 4.36842C12.1 4.59211 12.1767 4.77961 12.33 4.93092C12.4833 5.08224 12.6733 5.15789 12.9 5.15789Z" fill="#EE7E19"/>
</g>
</svg>
