<svg width="24" height="24" viewBox="0 0 24 24" fill="none" xmlns="http://www.w3.org/2000/svg">
<mask id="mask0_671_27391" style="mask-type:alpha" maskUnits="userSpaceOnUse" x="0" y="0" width="24" height="24">
<rect x="0.5" y="0.5" width="23" height="23" fill="#D9D9D9" stroke="#B3B3B3"/>
</mask>
<g mask="url(#mask0_671_27391)">
<path d="M12 21.5C11.7667 21.5 11.5292 21.4599 11.2875 21.3798C11.0458 21.2996 10.8333 21.1714 10.65 20.9951L8.925 19.4802C7.15833 17.9253 5.5625 16.3824 4.1375 14.8515C2.7125 13.3206 2 11.6334 2 9.78996C2 8.28312 2.525 7.02475 3.575 6.01485C4.625 5.00495 5.93333 4.5 7.5 4.5C8.38333 4.5 9.21667 4.68034 10 5.04102C10.7833 5.4017 11.45 5.89463 12 6.5198C12.55 5.89463 13.2167 5.4017 14 5.04102C14.7833 4.68034 15.6167 4.5 16.5 4.5C18.0667 4.5 19.375 5.00495 20.425 6.01485C21.475 7.02475 22 8.28312 22 9.78996C22 11.6334 21.2917 13.3246 19.875 14.8635C18.4583 16.4024 16.85 17.9493 15.05 19.5042L13.35 20.9951C13.1667 21.1714 12.9542 21.2996 12.7125 21.3798C12.4708 21.4599 12.2333 21.5 12 21.5Z" fill="#0A4881"/>
</g>
</svg>
