<svg width="21" height="20" viewBox="0 0 21 20" fill="none" xmlns="http://www.w3.org/2000/svg">
<mask id="mask0_624_75620" style="mask-type:alpha" maskUnits="userSpaceOnUse" x="0" y="0" width="21" height="20">
<rect x="0.601562" y="0.5" width="19" height="19" fill="#D9D9D9" stroke="#B3B3B3"/>
</mask>
<g mask="url(#mask0_624_75620)">
<path d="M10.1009 17.9167C9.90647 17.9167 9.70855 17.8833 9.50716 17.8165C9.30577 17.7497 9.12869 17.6428 8.97591 17.4959L7.53841 16.2335C6.06619 14.9377 4.73633 13.652 3.54883 12.3762C2.36133 11.1005 1.76758 9.69452 1.76758 8.1583C1.76758 6.9026 2.20508 5.85396 3.08008 5.01238C3.95508 4.17079 5.04536 3.75 6.35091 3.75C7.08702 3.75 7.78147 3.90028 8.43425 4.20085C9.08702 4.50141 9.64258 4.91219 10.1009 5.43317C10.5592 4.91219 11.1148 4.50141 11.7676 4.20085C12.4204 3.90028 13.1148 3.75 13.8509 3.75C15.1565 3.75 16.2467 4.17079 17.1217 5.01238C17.9967 5.85396 18.4342 6.9026 18.4342 8.1583C18.4342 9.69452 17.844 11.1038 16.6634 12.3863C15.4829 13.6687 14.1426 14.9578 12.6426 16.2535L11.2259 17.4959C11.0731 17.6428 10.8961 17.7497 10.6947 17.8165C10.4933 17.8833 10.2954 17.9167 10.1009 17.9167Z" fill="#333333"/>
</g>
</svg>
