<svg width="21" height="20" viewBox="0 0 21 20" fill="none" xmlns="http://www.w3.org/2000/svg">
<mask id="mask0_624_75610" style="mask-type:alpha" maskUnits="userSpaceOnUse" x="0" y="0" width="21" height="20">
<rect x="0.900391" width="20" height="20" fill="#D9D9D9"/>
</mask>
<g mask="url(#mask0_624_75610)">
<path d="M3.39974 15.0013C3.16363 15.0013 2.96571 14.9214 2.80599 14.7617C2.64627 14.602 2.56641 14.4041 2.56641 14.168C2.56641 13.9319 2.64627 13.7339 2.80599 13.5742C2.96571 13.4145 3.16363 13.3346 3.39974 13.3346H10.0664C10.3025 13.3346 10.5004 13.4145 10.6602 13.5742C10.8199 13.7339 10.8997 13.9319 10.8997 14.168C10.8997 14.4041 10.8199 14.602 10.6602 14.7617C10.5004 14.9214 10.3025 15.0013 10.0664 15.0013H3.39974ZM3.39974 10.8346C3.16363 10.8346 2.96571 10.7548 2.80599 10.5951C2.64627 10.4353 2.56641 10.2374 2.56641 10.0013C2.56641 9.76519 2.64627 9.56727 2.80599 9.40755C2.96571 9.24783 3.16363 9.16797 3.39974 9.16797H5.89974C6.13585 9.16797 6.33377 9.24783 6.49349 9.40755C6.65321 9.56727 6.73307 9.76519 6.73307 10.0013C6.73307 10.2374 6.65321 10.4353 6.49349 10.5951C6.33377 10.7548 6.13585 10.8346 5.89974 10.8346H3.39974ZM3.39974 6.66797C3.16363 6.66797 2.96571 6.58811 2.80599 6.42839C2.64627 6.26866 2.56641 6.07075 2.56641 5.83464C2.56641 5.59852 2.64627 5.40061 2.80599 5.24089C2.96571 5.08116 3.16363 5.0013 3.39974 5.0013H5.89974C6.13585 5.0013 6.33377 5.08116 6.49349 5.24089C6.65321 5.40061 6.73307 5.59852 6.73307 5.83464C6.73307 6.07075 6.65321 6.26866 6.49349 6.42839C6.33377 6.58811 6.13585 6.66797 5.89974 6.66797H3.39974ZM12.5664 12.5013C11.4136 12.5013 10.431 12.0951 9.61849 11.2826C8.80599 10.4701 8.39974 9.48741 8.39974 8.33464C8.39974 7.18186 8.80599 6.19922 9.61849 5.38672C10.431 4.57422 11.4136 4.16797 12.5664 4.16797C13.7192 4.16797 14.7018 4.57422 15.5143 5.38672C16.3268 6.19922 16.7331 7.18186 16.7331 8.33464C16.7331 8.73741 16.674 9.13672 16.556 9.53255C16.4379 9.92839 16.2609 10.293 16.0247 10.6263L18.6497 13.2513C18.8025 13.4041 18.8789 13.5985 18.8789 13.8346C18.8789 14.0707 18.8025 14.2652 18.6497 14.418C18.497 14.5707 18.3025 14.6471 18.0664 14.6471C17.8303 14.6471 17.6359 14.5707 17.4831 14.418L14.8581 11.793C14.5247 12.0291 14.1602 12.2062 13.7643 12.3242C13.3685 12.4423 12.9692 12.5013 12.5664 12.5013ZM12.5664 10.8346C13.2609 10.8346 13.8511 10.5916 14.3372 10.1055C14.8234 9.61936 15.0664 9.02908 15.0664 8.33464C15.0664 7.64019 14.8234 7.04991 14.3372 6.5638C13.8511 6.07769 13.2609 5.83464 12.5664 5.83464C11.872 5.83464 11.2817 6.07769 10.7956 6.5638C10.3095 7.04991 10.0664 7.64019 10.0664 8.33464C10.0664 9.02908 10.3095 9.61936 10.7956 10.1055C11.2817 10.5916 11.872 10.8346 12.5664 10.8346Z" fill="#333333"/>
</g>
</svg>
