<svg width="21" height="20" viewBox="0 0 21 20" fill="none" xmlns="http://www.w3.org/2000/svg">
<mask id="mask0_624_75615" style="mask-type:alpha" maskUnits="userSpaceOnUse" x="0" y="0" width="21" height="20">
<rect x="0.5" width="20" height="20" fill="#D9D9D9"/>
</mask>
<g mask="url(#mask0_624_75615)">
<path d="M6.64306 18.3333C6.20724 18.3333 5.83416 18.1783 5.5238 17.8682C5.21344 17.5582 5.05827 17.1854 5.05827 16.75C5.05827 16.3146 5.21344 15.9418 5.5238 15.6318C5.83416 15.3217 6.20724 15.1667 6.64306 15.1667C7.07888 15.1667 7.45197 15.3217 7.76233 15.6318C8.07268 15.9418 8.22786 16.3146 8.22786 16.75C8.22786 17.1854 8.07268 17.5582 7.76233 17.8682C7.45197 18.1783 7.07888 18.3333 6.64306 18.3333ZM14.5671 18.3333C14.1312 18.3333 13.7581 18.1783 13.4478 17.8682C13.1374 17.5582 12.9823 17.1854 12.9823 16.75C12.9823 16.3146 13.1374 15.9418 13.4478 15.6318C13.7581 15.3217 14.1312 15.1667 14.5671 15.1667C15.0029 15.1667 15.376 15.3217 15.6863 15.6318C15.9967 15.9418 16.1518 16.3146 16.1518 16.75C16.1518 17.1854 15.9967 17.5582 15.6863 17.8682C15.376 18.1783 15.0029 18.3333 14.5671 18.3333ZM5.21675 4.08333H16.9046C17.2084 4.08333 17.4395 4.21858 17.598 4.48906C17.7565 4.75955 17.7631 5.03333 17.6178 5.31042L14.8048 10.3771C14.6595 10.641 14.4647 10.8455 14.2204 10.9906C13.9761 11.1358 13.7086 11.2083 13.4181 11.2083H7.5147L6.64306 12.7917H15.3595C15.584 12.7917 15.7722 12.8675 15.924 13.0193C16.0759 13.171 16.1518 13.359 16.1518 13.5833C16.1518 13.8076 16.0759 13.9957 15.924 14.1474C15.7722 14.2991 15.584 14.375 15.3595 14.375H6.64306C6.04877 14.375 5.59974 14.1144 5.29599 13.5932C4.99223 13.072 4.97903 12.5542 5.25637 12.0396L6.3261 10.1L3.47347 4.08333H2.68107C2.45656 4.08333 2.26836 4.00747 2.11649 3.85573C1.96461 3.70399 1.88867 3.51597 1.88867 3.29167C1.88867 3.06736 1.96461 2.87934 2.11649 2.7276C2.26836 2.57587 2.45656 2.5 2.68107 2.5H3.96872C4.11399 2.5 4.25266 2.53958 4.38473 2.61875C4.51679 2.69792 4.61584 2.81007 4.68188 2.95521L5.21675 4.08333Z" fill="#333333"/>
</g>
</svg>
