<svg width="20" height="20" viewBox="0 0 20 20" fill="none" xmlns="http://www.w3.org/2000/svg">
<mask id="mask0_853_69211" style="mask-type:alpha" maskUnits="userSpaceOnUse" x="0" y="0" width="20" height="20">
<rect width="20" height="20" fill="#D9D9D9"/>
</mask>
<g mask="url(#mask0_853_69211)">
<path d="M10 13.75C11.0375 13.75 11.9219 13.3844 12.6531 12.6531C13.3844 11.9219 13.75 11.0375 13.75 10C13.75 8.9625 13.3844 8.07812 12.6531 7.34688C11.9219 6.61562 11.0375 6.25 10 6.25C8.9625 6.25 8.07812 6.61562 7.34688 7.34688C6.61562 8.07812 6.25 8.9625 6.25 10C6.25 11.0375 6.61562 11.9219 7.34688 12.6531C8.07812 13.3844 8.9625 13.75 10 13.75ZM10 17.5C8.9625 17.5 7.9875 17.3031 7.075 16.9094C6.1625 16.5156 5.36875 15.9813 4.69375 15.3063C4.01875 14.6313 3.48438 13.8375 3.09063 12.925C2.69687 12.0125 2.5 11.0375 2.5 10C2.5 8.9625 2.69687 7.9875 3.09063 7.075C3.48438 6.1625 4.01875 5.36875 4.69375 4.69375C5.36875 4.01875 6.1625 3.48438 7.075 3.09063C7.9875 2.69687 8.9625 2.5 10 2.5C11.0375 2.5 12.0125 2.69687 12.925 3.09063C13.8375 3.48438 14.6313 4.01875 15.3063 4.69375C15.9813 5.36875 16.5156 6.1625 16.9094 7.075C17.3031 7.9875 17.5 8.9625 17.5 10C17.5 11.0375 17.3031 12.0125 16.9094 12.925C16.5156 13.8375 15.9813 14.6313 15.3063 15.3063C14.6313 15.9813 13.8375 16.5156 12.925 16.9094C12.0125 17.3031 11.0375 17.5 10 17.5ZM10 16C11.675 16 13.0938 15.4187 14.2563 14.2563C15.4187 13.0938 16 11.675 16 10C16 8.325 15.4187 6.90625 14.2563 5.74375C13.0938 4.58125 11.675 4 10 4C8.325 4 6.90625 4.58125 5.74375 5.74375C4.58125 6.90625 4 8.325 4 10C4 11.675 4.58125 13.0938 5.74375 14.2563C6.90625 15.4187 8.325 16 10 16Z" fill="#0A4881"/>
</g>
</svg>
