<svg width="20" height="20" viewBox="0 0 20 20" fill="none" xmlns="http://www.w3.org/2000/svg">
<mask id="mask0_203_168412" style="mask-type:alpha" maskUnits="userSpaceOnUse" x="0" y="0" width="20" height="20">
<rect width="20" height="20" fill="#D9D9D9"/>
</mask>
<g mask="url(#mask0_203_168412)">
<path d="M5.04762 3H13.1429V13.4L7.47619 19L6.46429 18C6.36984 17.9067 6.29226 17.78 6.23155 17.62C6.17083 17.46 6.14048 17.3067 6.14048 17.16V16.88L7.03095 13.4H2.61905C2.1873 13.4 1.80952 13.24 1.48571 12.92C1.1619 12.6 1 12.2267 1 11.8V10.2C1 10.1067 1.01012 10.0067 1.03036 9.9C1.0506 9.79333 1.08095 9.69333 1.12143 9.6L3.55 3.96C3.67143 3.69333 3.87381 3.46667 4.15714 3.28C4.44048 3.09333 4.7373 3 5.04762 3ZM14.7619 13.4V3H18V13.4H14.7619Z" fill="#B3B3B3"/>
</g>
</svg>
