<svg width="48" height="48" viewBox="0 0 48 48" fill="none" xmlns="http://www.w3.org/2000/svg">
<rect width="48" height="48" fill="#FC3F1D"/>
<path d="M24.0006 41.0003C33.1675 41.0003 40.5988 33.3891 40.5988 24.0002C40.5988 14.6112 33.1675 7 24.0006 7C14.8336 7 7.40234 14.6112 7.40234 24.0002C7.40234 33.3891 14.8336 41.0003 24.0006 41.0003Z" fill="#FC3F1D"/>
<path d="M26.34 34.2181H29.8075V13.8174H24.7638C19.6913 13.8174 17.0263 16.4877 17.0263 20.422C17.0263 23.5615 18.4864 25.4111 21.0962 27.3194L16.5664 34.2169H20.3213L25.3651 26.4975L23.6175 25.2935C21.4963 23.8261 20.465 22.682 20.465 20.2163C20.465 18.0433 21.9551 16.5759 24.7925 16.5759H26.34V34.2181Z" fill="white" fill-opacity="0.98"/>
</svg>
