<svg width="16" height="16" viewBox="0 0 16 16" fill="none" xmlns="http://www.w3.org/2000/svg">
<path d="M5.9974 8.00065C5.9974 8.44268 5.8218 8.8666 5.50924 9.17916C5.19668 9.49172 4.77276 9.66732 4.33073 9.66732C3.8887 9.66732 3.46478 9.49172 3.15222 9.17916C2.83966 8.8666 2.66406 8.44268 2.66406 8.00065C2.66406 7.55862 2.83966 7.1347 3.15222 6.82214C3.46478 6.50958 3.8887 6.33398 4.33073 6.33398C4.77276 6.33398 5.19668 6.50958 5.50924 6.82214C5.8218 7.1347 5.9974 7.55862 5.9974 8.00065Z" stroke="#0A4881"/>
<path d="M9.33333 4.33398L6 6.66732M9.33333 11.6673L6 9.33398" stroke="#0A4881" stroke-linecap="round"/>
<path d="M12.6615 12.3333C12.6615 12.7754 12.4859 13.1993 12.1733 13.5118C11.8607 13.8244 11.4368 14 10.9948 14C10.5528 14 10.1288 13.8244 9.81628 13.5118C9.50372 13.1993 9.32812 12.7754 9.32812 12.3333C9.32812 11.8913 9.50372 11.4674 9.81628 11.1548C10.1288 10.8423 10.5528 10.6667 10.9948 10.6667C11.4368 10.6667 11.8607 10.8423 12.1733 11.1548C12.4859 11.4674 12.6615 11.8913 12.6615 12.3333ZM12.6615 3.66667C12.6615 4.10869 12.4859 4.53262 12.1733 4.84518C11.8607 5.15774 11.4368 5.33333 10.9948 5.33333C10.5528 5.33333 10.1288 5.15774 9.81628 4.84518C9.50372 4.53262 9.32812 4.10869 9.32812 3.66667C9.32812 3.22464 9.50372 2.80072 9.81628 2.48816C10.1288 2.17559 10.5528 2 10.9948 2C11.4368 2 11.8607 2.17559 12.1733 2.48816C12.4859 2.80072 12.6615 3.22464 12.6615 3.66667Z" stroke="#0A4881"/>
</svg>
