<svg width="32" height="32" viewBox="0 0 32 32" fill="none" xmlns="http://www.w3.org/2000/svg">
<mask id="mask0_586_155910" style="mask-type:alpha" maskUnits="userSpaceOnUse" x="0" y="0" width="32" height="32">
<rect width="32" height="32" fill="#D9D9D9"/>
</mask>
<g mask="url(#mask0_586_155910)">
<path fill-rule="evenodd" clip-rule="evenodd" d="M4.64987 15.6099C11.0923 12.7874 15.3883 10.9267 17.5378 10.0277C23.675 7.46077 24.9503 7.01488 25.7815 7.00016C25.9643 6.99692 26.3731 7.04248 26.6379 7.25852C26.8614 7.44094 26.9229 7.68737 26.9524 7.86033C26.9818 8.03328 27.0185 8.42728 26.9893 8.73514C26.6568 12.249 25.2177 20.7762 24.4856 24.7118C24.1758 26.3771 23.5658 26.9354 22.9753 26.9901C21.6919 27.1088 20.7174 26.1372 19.4744 25.3179C17.5294 24.0358 16.4305 23.2377 14.5425 21.9867C12.3606 20.5408 13.7751 19.7462 15.0185 18.4475C15.344 18.1076 20.9985 12.9358 21.1079 12.4667C21.1216 12.408 21.1343 12.1893 21.0051 12.0738C20.8759 11.9583 20.6851 11.9978 20.5475 12.0292C20.3524 12.0737 17.2452 14.1389 11.2258 18.2247C10.3439 18.8337 9.545 19.1304 8.82924 19.1149C8.04018 19.0977 6.52233 18.6663 5.39397 18.2974C4.00999 17.8451 2.91003 17.6059 3.00581 16.8376C3.0557 16.4374 3.60372 16.0282 4.64987 15.6099Z" fill="#808080"/>
</g>
</svg>
