<svg width="32" height="32" viewBox="0 0 32 32" fill="none" xmlns="http://www.w3.org/2000/svg">
<rect width="32" height="32" fill="url(#paint0_linear_256_116202)"/>
<path d="M7.11498 15.9193C7.11444 17.4912 7.52517 19.0259 8.30593 20.3784L7.04004 25.0001L11.77 23.7599C13.0732 24.4706 14.5404 24.8451 16.0336 24.8457H16.0374C20.9546 24.8457 24.9577 20.8439 24.9598 15.9262C24.9606 13.5427 24.0333 11.3017 22.3488 9.61585C20.6641 7.92999 18.4241 7.00103 16.0374 7C11.1192 7 7.11689 11.0011 7.11483 15.919M9.93157 20.1454L9.75496 19.865C9.01256 18.6845 8.6207 17.3203 8.62122 15.9197C8.62286 11.8322 11.9495 8.50651 16.0401 8.50651C18.021 8.50728 19.8827 9.27952 21.2831 10.6806C22.6833 12.0819 23.4538 13.9446 23.4533 15.9255C23.4515 20.0132 20.1247 23.3392 16.0372 23.3392H16.0344C14.7034 23.3384 13.3982 22.9812 12.2599 22.3057L11.989 22.1451L9.18202 22.881L9.93157 20.1454ZM16.0374 24.8457H16.0375H16.0374C16.0373 24.8457 16.0372 24.8457 16.0374 24.8457Z" fill="url(#paint1_linear_256_116202)"/>
<path fill-rule="evenodd" clip-rule="evenodd" d="M13.8066 12.1912C13.6396 11.8199 13.4638 11.8125 13.305 11.806C13.175 11.8004 13.0263 11.8008 12.8778 11.8008C12.729 11.8008 12.4875 11.8566 12.2833 12.0797C12.0789 12.3028 11.5029 12.8421 11.5029 13.939C11.5029 15.0359 12.3019 16.0958 12.4132 16.2446C12.5247 16.3932 13.9555 18.7162 16.2214 19.6097C18.1047 20.3523 18.4879 20.2046 18.8967 20.1674C19.3054 20.1303 20.2157 19.6283 20.4014 19.1077C20.5872 18.5872 20.5872 18.141 20.5315 18.0478C20.4758 17.9549 20.3271 17.8991 20.1042 17.7877C19.8811 17.6762 18.7851 17.1368 18.5808 17.0624C18.3764 16.9881 18.2278 16.951 18.0791 17.1741C17.9305 17.3971 17.5035 17.8991 17.3734 18.0478C17.2433 18.1968 17.1133 18.2154 16.8903 18.1039C16.6673 17.992 15.9493 17.7568 15.0975 16.9974C14.4347 16.4065 13.9873 15.6768 13.8572 15.4536C13.7272 15.2306 13.8433 15.1099 13.9551 14.9987C14.0553 14.8988 14.1781 14.7384 14.2896 14.6083C14.4008 14.4781 14.438 14.3852 14.5123 14.2365C14.5867 14.0877 14.5495 13.9575 14.4938 13.846C14.438 13.7345 14.0047 12.632 13.8065 12.1912" fill="white"/>
<defs>
<linearGradient id="paint0_linear_256_116202" x1="16" y1="0" x2="16" y2="32" gradientUnits="userSpaceOnUse">
<stop stop-color="#98FF87"/>
<stop offset="1" stop-color="#43D11D"/>
</linearGradient>
<linearGradient id="paint1_linear_256_116202" x1="16" y1="25.0006" x2="16" y2="7.00054" gradientUnits="userSpaceOnUse">
<stop stop-color="#F9F9F9"/>
<stop offset="1" stop-color="white"/>
</linearGradient>
</defs>
</svg>
