<svg width="212" height="56" viewBox="0 0 212 56" fill="none" xmlns="http://www.w3.org/2000/svg">
<path fill-rule="evenodd" clip-rule="evenodd" d="M90.1222 24.771H91.1036C92.8263 24.771 94.2383 26.1883 94.2383 27.9175C94.2383 29.6466 92.8263 31.064 91.1036 31.064H88.6325C88.5266 31.064 88.4278 31.064 88.329 31.0498H84.7424V32.9561H95.735V22.9922H80.344C78.6213 22.9922 77.2093 21.5749 77.2093 19.8457C77.2093 18.1166 78.6213 16.6992 80.344 16.6992H99.0321C102.124 17.1244 103.96 18.8181 104.292 22.0568V39.2633H82.0313C78.4377 38.8027 76.5103 36.8113 76.1855 33.7569V30.2915C76.6656 26.9466 78.6566 25.1537 82.0313 24.7568H90.1222V24.771Z" fill="#0A4881"/>
<path fill-rule="evenodd" clip-rule="evenodd" d="M114.564 46.2437V46.8461C114.564 49.128 112.7 50.9989 110.426 50.9989C108.153 50.9989 106.289 49.128 106.289 46.8461V16.6992H129.474C132.306 17.1244 134.071 18.726 134.268 22.0568V33.7569C134.021 36.8822 132.51 38.7956 129.474 39.2633H114.564V46.2437ZM123.692 22.9993C124.808 22.9993 125.711 23.9135 125.711 25.0261V30.9293C125.711 32.042 124.801 32.9561 123.692 32.9561H116.583C115.467 32.9561 114.564 32.042 114.564 30.9293V25.0261C114.564 23.9135 115.474 22.9993 116.583 22.9993H123.692Z" fill="#0A4881"/>
<path fill-rule="evenodd" clip-rule="evenodd" d="M61.6771 22.9993C60.6463 22.9993 59.7991 23.8497 59.7991 24.8844V31.0852C59.7991 32.1199 60.6463 32.9703 61.6771 32.9703H72.1896C73.9122 32.9774 75.3243 34.3947 75.3243 36.131C75.3243 37.8672 73.9122 39.2775 72.1896 39.2775H69.7185C69.6338 39.2775 69.5491 39.2775 69.4644 39.2633H56.6291C53.2261 38.7885 51.6376 36.783 51.2422 33.7569V22.0568C51.574 18.5985 53.4591 16.9118 56.6291 16.6992H72.1896C73.9122 16.6992 75.3243 18.1166 75.3243 19.8457C75.3243 21.5749 73.9122 22.9922 72.1896 22.9922H61.6771V22.9993Z" fill="#0A4881"/>
<path fill-rule="evenodd" clip-rule="evenodd" d="M180.118 24.771H181.1C182.822 24.771 184.234 26.1883 184.234 27.9175C184.234 29.6466 182.822 31.064 181.1 31.064H178.629C178.523 31.064 178.424 31.064 178.325 31.0498H174.739V32.9561H185.731V22.9922H170.34C168.617 22.9922 167.205 21.5749 167.205 19.8457C167.205 18.1166 168.617 16.6992 170.34 16.6992H189.028C192.121 17.1244 193.956 18.8181 194.288 22.0568V39.2633H172.027C168.434 38.8027 166.506 36.8113 166.182 33.7569V30.2915C166.662 26.9466 168.653 25.1537 172.027 24.7568H180.118V24.771Z" fill="#0A4881"/>
<path fill-rule="evenodd" clip-rule="evenodd" d="M136.23 16.698C145.74 16.698 143.573 15.7838 150.266 22.5091C157.128 15.876 154.996 16.698 164.52 16.698V39.255H156.246V26.18H156.211L150.266 31.7927L144.505 26.2013V39.255H136.23V16.698Z" fill="#0A4881"/>
<path fill-rule="evenodd" clip-rule="evenodd" d="M178.402 14.3754L181.721 7.74219H191.089L183.514 14.3754H178.402Z" fill="#0A4881"/>
<path fill-rule="evenodd" clip-rule="evenodd" d="M44.6411 34.9343C41.6971 44.1966 33.0555 50.9006 22.8536 50.9006C12.6517 50.9006 3.32532 43.6438 0.748373 33.8075C24.6045 42.6234 26.9414 28.1877 44.6482 34.9272M45.6154 27.1601H45.5872C45.5872 27.1601 45.6507 27.1743 45.6154 27.1601ZM45.7143 27.2168C45.7213 27.4578 45.7284 27.6987 45.7284 27.9397C45.7284 28.5775 45.7002 29.2011 45.6507 29.8248C35.583 26.1893 30.0196 28.5846 24.3292 31.0366C23.2066 31.5185 22.1476 31.9437 21.1451 32.3122C15.0804 34.5303 10.9785 34.6083 5.37981 32.8508C4.97033 32.6949 4.56084 32.539 4.13723 32.3618C4.56084 32.539 4.97739 32.6949 5.37981 32.8508C3.79835 32.3547 2.0898 31.7098 0.190623 30.9303C0.0635411 29.9523 0 28.9531 0 27.9397C0 27.0822 0.0494208 26.2318 0.141202 25.3956C17.6715 31.887 23.602 25.8278 32.5119 24.8144C33.9804 24.6444 35.5265 24.616 37.221 24.8003C39.6496 25.0625 42.3748 25.7712 45.5943 27.146L45.7143 27.2098V27.2168ZM43.7728 18.649C44.154 19.5136 44.4858 20.4065 44.7612 21.3278C34.8982 17.8624 29.3913 20.2293 23.7573 22.653C21.5051 23.6239 19.5283 24.3538 17.6997 24.857C13.5907 25.9838 10.2584 25.9554 6.26233 24.8924C4.51848 24.4318 2.65461 23.7656 0.543629 22.9223C0.903696 21.2994 1.4332 19.7404 2.11804 18.2734C16.3936 22.7735 22.3735 18.3797 29.9067 16.9695C32.3424 16.5159 34.9476 16.3742 38.047 16.9482C39.7838 17.2671 41.6688 17.8128 43.7728 18.649ZM22.8607 5C29.2854 5 35.0888 7.6646 39.2472 11.945C32.1659 10.5631 27.5698 12.5403 22.8889 14.5529C20.2131 15.708 17.9256 16.523 15.8147 17.0191C12.5035 17.7986 9.64413 17.7773 6.41059 17.0474C5.40099 16.8206 4.35609 16.5159 3.24766 16.1474C7.24368 9.47171 14.5297 5 22.8607 5Z" fill="#0A4881"/>
<path d="M190.037 43.949H191.527V45.4939H192.635C193.2 45.4939 193.61 45.6144 193.878 45.8483C194.146 46.0892 194.28 46.4719 194.28 47.0034C194.28 47.5349 194.153 47.9317 193.892 48.1656C193.631 48.3924 193.214 48.5058 192.635 48.5058H190.037V43.9419V43.949ZM191.527 46.5357V47.464H192.289C192.487 47.464 192.628 47.4286 192.713 47.3577C192.798 47.2869 192.84 47.1664 192.84 47.0034C192.84 46.8333 192.798 46.7128 192.72 46.642C192.642 46.5711 192.501 46.5357 192.296 46.5357H191.534H191.527ZM185.074 43.949H189.035V48.5129H187.545V45.0475H186.472V46.5144C186.472 47.2656 186.324 47.7971 186.027 48.1089C185.731 48.4136 185.314 48.5696 184.777 48.5696C184.537 48.5696 184.319 48.5554 184.135 48.5341V47.4569C184.234 47.4711 184.333 47.4711 184.439 47.4711C184.686 47.4711 184.855 47.3861 184.94 47.2231C185.025 47.0601 185.067 46.812 185.067 46.4931V43.9561L185.074 43.949ZM182.321 46.9892H183.782C183.782 47.6199 183.577 48.0593 183.168 48.2932C182.984 48.3924 182.765 48.4633 182.504 48.5058C182.243 48.5483 181.932 48.5625 181.565 48.5625C180.972 48.5625 180.513 48.4845 180.195 48.3357C179.878 48.1869 179.652 47.9459 179.525 47.6128C179.398 47.2798 179.334 46.8191 179.334 46.2309C179.334 45.6427 179.391 45.1538 179.511 44.8207C179.631 44.4876 179.849 44.2537 180.167 44.1049C180.485 43.9632 180.951 43.8923 181.558 43.8923C182.165 43.8923 182.589 43.9561 182.899 44.0908C183.217 44.2254 183.436 44.4522 183.57 44.7852C183.704 45.1183 183.768 45.6002 183.768 46.2239V46.479H180.817C180.817 46.6845 180.824 46.8546 180.845 46.9821C180.866 47.1168 180.901 47.216 180.958 47.2939C181.007 47.3719 181.085 47.4286 181.177 47.464C181.269 47.4995 181.396 47.5136 181.551 47.5136C181.819 47.5136 182.01 47.4782 182.13 47.4144C182.25 47.3506 182.306 47.2018 182.306 46.9821L182.321 46.9892ZM180.831 45.664H182.292C182.292 45.3522 182.236 45.1538 182.13 45.0687C182.017 44.9837 181.826 44.9412 181.544 44.9412C181.36 44.9412 181.219 44.9624 181.12 44.9978C181.029 45.0333 180.958 45.1042 180.909 45.2034C180.866 45.3026 180.838 45.4585 180.831 45.664ZM176.595 45.2105C176.376 45.2105 176.206 45.2388 176.093 45.2955C175.981 45.3522 175.903 45.4514 175.861 45.6002C175.818 45.749 175.797 45.9546 175.797 46.2309C175.797 46.5853 175.811 46.8404 175.846 46.9963C175.882 47.1522 175.945 47.2656 176.051 47.3223C176.157 47.379 176.334 47.4144 176.574 47.4144C176.757 47.4144 176.891 47.4002 176.99 47.3648C177.089 47.3365 177.16 47.2727 177.202 47.1876C177.251 47.1026 177.28 46.9892 177.294 46.8546C177.308 46.7128 177.308 46.5073 177.308 46.2309C177.308 45.9404 177.294 45.7207 177.258 45.579C177.223 45.4443 177.167 45.3451 177.068 45.2884C176.969 45.2317 176.814 45.2034 176.595 45.2034V45.2105ZM175.635 44.8774C175.691 44.6364 175.825 44.438 176.037 44.2892C176.249 44.1404 176.496 44.0624 176.778 44.0624C177.294 44.0624 177.689 44.1262 177.979 44.2467C178.268 44.3671 178.473 44.5868 178.6 44.8986C178.727 45.2105 178.79 45.6569 178.79 46.238C178.79 46.7057 178.755 47.0955 178.692 47.3861C178.628 47.6837 178.508 47.9176 178.353 48.0877C178.19 48.2577 177.971 48.3782 177.682 48.4562C177.4 48.527 177.025 48.5696 176.567 48.5696C175.945 48.5696 175.472 48.4916 175.147 48.3357C174.823 48.1798 174.604 47.9247 174.477 47.5703C174.357 47.216 174.293 46.7057 174.293 46.0538V45.2175C174.293 44.5726 174.364 44.0411 174.512 43.6301C174.66 43.2191 174.893 42.9144 175.225 42.7159C175.55 42.5175 175.981 42.4183 176.51 42.4183C176.8 42.4183 177.011 42.4183 177.131 42.4041C177.251 42.397 177.336 42.3687 177.393 42.3191C177.449 42.2766 177.47 42.1915 177.47 42.0781H178.543C178.543 42.4112 178.48 42.6876 178.339 42.886C178.204 43.0915 178 43.2333 177.731 43.3254C177.463 43.4104 177.124 43.46 176.708 43.46C176.432 43.46 176.214 43.4955 176.051 43.5663C175.889 43.6372 175.769 43.7648 175.691 43.9561C175.613 44.1474 175.571 44.4167 175.571 44.7711V44.8845H175.628L175.635 44.8774ZM172.281 46.9892H173.742C173.742 47.6199 173.538 48.0593 173.128 48.2932C172.945 48.3924 172.726 48.4633 172.465 48.5058C172.203 48.5483 171.893 48.5625 171.526 48.5625C170.933 48.5625 170.474 48.4845 170.156 48.3357C169.838 48.1869 169.612 47.9459 169.485 47.6128C169.358 47.2798 169.295 46.8191 169.295 46.2309C169.295 45.6427 169.351 45.1538 169.471 44.8207C169.591 44.4876 169.81 44.2537 170.128 44.1049C170.445 43.9632 170.911 43.8923 171.519 43.8923C172.126 43.8923 172.549 43.9561 172.86 44.0908C173.178 44.2254 173.397 44.4522 173.531 44.7852C173.665 45.1183 173.728 45.6002 173.728 46.2239V46.479H170.777C170.777 46.6845 170.784 46.8546 170.805 46.9821C170.827 47.1168 170.862 47.216 170.918 47.2939C170.968 47.3719 171.046 47.4286 171.137 47.464C171.229 47.4995 171.356 47.5136 171.511 47.5136C171.78 47.5136 171.97 47.4782 172.09 47.4144C172.21 47.3506 172.267 47.2018 172.267 46.9821L172.281 46.9892ZM170.791 45.664H172.253C172.253 45.3522 172.196 45.1538 172.09 45.0687C171.985 44.9837 171.787 44.9412 171.504 44.9412C171.321 44.9412 171.18 44.9624 171.081 44.9978C170.989 45.0333 170.911 45.1042 170.869 45.2034C170.827 45.3026 170.798 45.4585 170.791 45.664ZM165.073 48.5129H166.252L167.184 45.1254H167.226V48.5129H168.56V43.949H166.386L165.694 46.7483H165.623L164.931 43.949H162.757V48.5129H164.091V45.1254H164.134L165.066 48.5129H165.073ZM155.556 43.949V48.5129H154.066V43.949H155.556ZM149.166 43.949H150.656V45.4939H151.764C152.329 45.4939 152.739 45.6144 153.007 45.8483C153.275 46.0892 153.409 46.4719 153.409 47.0034C153.409 47.5349 153.282 47.9317 153.021 48.1656C152.76 48.3924 152.343 48.5058 151.764 48.5058H149.166V43.9419V43.949ZM150.656 46.5357V47.464H151.418C151.616 47.464 151.757 47.4286 151.842 47.3577C151.927 47.2869 151.969 47.1664 151.969 47.0034C151.969 46.8333 151.927 46.7128 151.849 46.642C151.771 46.5711 151.63 46.5357 151.425 46.5357H150.663H150.656ZM146.992 46.6845H148.481C148.481 47.1026 148.439 47.4286 148.347 47.6695C148.263 47.9105 148.128 48.0947 147.945 48.2223C147.775 48.3499 147.564 48.4349 147.302 48.4845C147.041 48.5341 146.702 48.5625 146.279 48.5625C145.855 48.5625 145.474 48.527 145.191 48.4491C144.909 48.3711 144.69 48.2436 144.535 48.0735C144.379 47.8963 144.266 47.6625 144.203 47.3719C144.139 47.0813 144.111 46.7057 144.111 46.2309C144.111 45.8057 144.139 45.4585 144.196 45.175C144.252 44.8986 144.358 44.6577 144.507 44.4663C144.655 44.275 144.874 44.1333 145.163 44.0341C145.446 43.9348 145.82 43.8923 146.279 43.8923C146.78 43.8923 147.182 43.9348 147.486 44.0128C147.797 44.0908 148.037 44.2608 148.213 44.516C148.39 44.7711 148.474 45.1538 148.474 45.6569H146.985C146.985 45.4018 146.942 45.2459 146.865 45.1679C146.773 45.0829 146.575 45.0404 146.279 45.0404C146.088 45.0404 145.947 45.0687 145.855 45.1254C145.763 45.1821 145.693 45.2955 145.65 45.4585C145.608 45.6215 145.587 45.8837 145.587 46.2309C145.587 46.5994 145.601 46.8617 145.643 47.0247C145.678 47.1876 145.742 47.2869 145.834 47.3436C145.926 47.3932 146.074 47.4215 146.272 47.4215C146.49 47.4215 146.653 47.4002 146.752 47.3577C146.85 47.3152 146.914 47.2443 146.942 47.1522C146.97 47.0601 146.985 46.9042 146.985 46.6916L146.992 46.6845ZM141.88 47.0388C141.88 46.8617 141.817 46.7483 141.682 46.6987C141.555 46.6491 141.351 46.6207 141.068 46.6207C140.856 46.6207 140.694 46.6561 140.581 46.7128C140.468 46.7766 140.412 46.9042 140.412 47.0955C140.412 47.3081 140.475 47.4499 140.602 47.5065C140.729 47.5632 140.885 47.5916 141.068 47.5916C141.287 47.5916 141.457 47.5774 141.57 47.5491C141.682 47.5207 141.76 47.4711 141.81 47.3932C141.859 47.3152 141.88 47.1947 141.88 47.0388ZM141.93 47.8325H141.88C141.795 48.3215 141.358 48.5625 140.574 48.5625C140.2 48.5625 139.896 48.527 139.663 48.442C139.43 48.364 139.247 48.2223 139.12 48.0168C138.993 47.8113 138.929 47.5207 138.929 47.1451C138.929 46.6207 139.063 46.2522 139.331 46.0325C139.6 45.8199 140.016 45.7065 140.574 45.7065C140.899 45.7065 141.167 45.7349 141.379 45.7916C141.598 45.8483 141.739 45.99 141.81 46.2168H141.88V45.4939C141.88 45.2388 141.845 45.0616 141.767 44.9553C141.69 44.849 141.506 44.7994 141.209 44.7994C141.005 44.7994 140.849 44.8349 140.751 44.9057C140.652 44.9766 140.602 45.1042 140.602 45.2955H139.113C139.113 44.8561 139.204 44.5372 139.395 44.3317C139.586 44.1262 139.812 43.9986 140.087 43.9561C140.362 43.9065 140.736 43.8852 141.202 43.8852C141.76 43.8852 142.184 43.9278 142.487 44.0057C142.784 44.0837 143.01 44.2537 143.151 44.5018C143.292 44.7498 143.37 45.1325 143.37 45.6498V48.4987H141.88L141.93 47.8184V47.8325ZM135.187 47.8254V50.483H133.697V43.949H135.187L135.152 44.6719H135.222C135.307 44.3813 135.455 44.1829 135.667 44.0695C135.879 43.9561 136.169 43.8994 136.522 43.8994C137.093 43.8994 137.517 44.0341 137.806 44.2963C138.096 44.5585 138.244 44.9837 138.244 45.5719V46.6136C138.244 47.0813 138.188 47.4569 138.075 47.7404C137.962 48.0239 137.778 48.2294 137.524 48.364C137.27 48.4987 136.938 48.5625 136.522 48.5625C136.211 48.5625 135.95 48.5129 135.738 48.4136C135.526 48.3073 135.371 48.116 135.258 47.8254H135.187ZM135.187 46.238C135.187 46.5286 135.201 46.7554 135.23 46.9113C135.258 47.0743 135.328 47.1947 135.434 47.2869C135.54 47.3719 135.703 47.4215 135.928 47.4215C136.154 47.4215 136.317 47.3932 136.43 47.3365C136.543 47.2798 136.627 47.1664 136.677 47.0034C136.726 46.8333 136.755 46.5782 136.755 46.2451C136.755 45.912 136.733 45.6569 136.691 45.4939C136.649 45.3309 136.571 45.2175 136.458 45.1538C136.345 45.09 136.169 45.0545 135.928 45.0545C135.717 45.0545 135.554 45.0829 135.448 45.1538C135.342 45.2175 135.272 45.3309 135.237 45.4939C135.201 45.6569 135.18 45.905 135.18 46.2451L135.187 46.238ZM133.224 43.9561V45.0475H132.031V48.5129H130.542V45.0475H129.348V43.9561H133.224ZM127.386 47.0459C127.386 46.8687 127.322 46.7554 127.188 46.7057C127.061 46.6561 126.856 46.6278 126.574 46.6278C126.362 46.6278 126.2 46.6632 126.087 46.7199C125.974 46.7837 125.917 46.9113 125.917 47.1026C125.917 47.3152 125.981 47.4569 126.108 47.5136C126.235 47.5703 126.39 47.5987 126.574 47.5987C126.793 47.5987 126.962 47.5845 127.075 47.5562C127.188 47.5278 127.266 47.4782 127.315 47.4002C127.365 47.3223 127.386 47.2018 127.386 47.0459ZM127.435 47.8396H127.386C127.301 48.3286 126.863 48.5696 126.08 48.5696C125.705 48.5696 125.402 48.5341 125.169 48.4491C124.936 48.3711 124.752 48.2294 124.625 48.0239C124.498 47.8184 124.435 47.5278 124.435 47.1522C124.435 46.6278 124.569 46.2593 124.837 46.0396C125.105 45.827 125.522 45.7136 126.08 45.7136C126.404 45.7136 126.673 45.742 126.884 45.7986C127.103 45.8553 127.245 45.9971 127.315 46.2239H127.386V45.501C127.386 45.2459 127.35 45.0687 127.273 44.9624C127.195 44.8561 127.012 44.8065 126.715 44.8065C126.51 44.8065 126.355 44.8419 126.256 44.9128C126.157 44.9837 126.108 45.1112 126.108 45.3026H124.618C124.618 44.8632 124.71 44.5443 124.901 44.3388C125.091 44.1333 125.317 44.0057 125.592 43.9632C125.868 43.9136 126.242 43.8923 126.708 43.8923C127.266 43.8923 127.689 43.9348 127.993 44.0128C128.289 44.0908 128.515 44.2608 128.657 44.5089C128.798 44.7569 128.875 45.1396 128.875 45.6569V48.5058H127.386L127.435 47.8254V47.8396ZM120.107 48.5199H121.286L122.218 45.1325H122.26V48.5199H123.594V43.9561H121.42L120.728 46.7554H120.657L119.966 43.9561H117.791V48.5199H119.125V45.1325H119.168L120.1 48.5199H120.107Z" fill="#0A4881"/>
<path fill-rule="evenodd" clip-rule="evenodd" d="M159.114 44.9844C159.799 44.9844 160.356 45.5442 160.356 46.2316C160.356 46.919 159.799 47.4789 159.114 47.4789C158.429 47.4789 157.871 46.919 157.871 46.2316C157.871 45.5442 158.429 44.9844 159.114 44.9844Z" fill="#0A4881"/>
<path fill-rule="evenodd" clip-rule="evenodd" d="M201.221 13.3916C203.664 13.3916 205.641 15.3759 205.641 17.8279C205.641 20.2799 203.664 22.2642 201.221 22.2642C198.778 22.2642 196.801 20.2799 196.801 17.8279C196.801 15.3759 198.778 13.3916 201.221 13.3916ZM200.388 17.5161H201.447C201.624 17.5161 201.758 17.4948 201.835 17.4452C201.913 17.3956 201.962 17.3247 201.984 17.2184C202.005 17.1121 202.012 16.9492 202.012 16.7153C202.012 16.4814 201.977 16.3255 201.899 16.2476C201.821 16.1696 201.673 16.1271 201.447 16.1271H200.388V17.5161ZM201.447 18.7067H200.388V20.0673C200.367 20.4287 200.07 20.7193 199.703 20.7193C199.336 20.7193 199.04 20.4287 199.018 20.0673V14.9294H201.652C202.075 14.9294 202.414 14.979 202.661 15.0641C202.908 15.1491 203.099 15.2979 203.226 15.5247C203.353 15.7444 203.417 16.0704 203.417 16.4814C203.417 16.8358 203.403 17.1051 203.374 17.2822C203.346 17.4594 203.261 17.6224 203.12 17.757C202.979 17.8917 202.76 17.9909 202.45 18.0689V18.1255C202.739 18.1326 202.965 18.2177 203.127 18.3736C203.29 18.5295 203.374 18.7492 203.374 19.0397V20.0744C203.353 20.4358 203.057 20.7264 202.697 20.7264C202.337 20.7264 202.033 20.4358 202.019 20.0744V19.3515C202.019 18.9193 201.835 18.7067 201.461 18.7067H201.447ZM201.221 12.0664C204.391 12.0664 206.954 14.646 206.954 17.8208C206.954 20.9957 204.384 23.5752 201.221 23.5752C198.058 23.5752 195.488 20.9957 195.488 17.8208C195.488 14.646 198.058 12.0664 201.221 12.0664Z" fill="#0A4881"/>
</svg>
