<svg width="56" height="26" viewBox="0 0 56 26" fill="none" xmlns="http://www.w3.org/2000/svg">
<rect width="56" height="26" fill="white"/>
<path d="M42.3321 13.5C42.3321 18.1641 38.5398 22 33.832 22C29.1679 22 25.332 18.1641 25.332 13.5C25.332 8.83591 29.1243 5 33.7885 5C38.5398 5 42.3321 8.83591 42.3321 13.5Z" fill="#F9B50B"/>
<path d="M30.9564 13.5436C30.9564 12.9334 30.8693 12.3231 30.7821 11.7564H25.5513C25.5949 11.4513 25.6821 11.1898 25.7693 10.841H30.4334C30.3462 10.5359 30.2154 10.2308 30.0847 9.92565H26.118C26.2487 9.62052 26.4231 9.35898 26.5975 9.01027H29.6052C29.4308 8.70514 29.2129 8.40001 28.9513 8.09488H27.2949C27.5564 7.78975 27.818 7.52821 28.1667 7.22308C26.6846 5.82821 24.6795 5 22.4564 5C17.8359 5.13077 14 8.83591 14 13.5C14 18.1641 17.7923 22 22.5 22C24.7231 22 26.6846 21.1282 28.2103 19.777C28.5154 19.5154 28.777 19.2103 29.0821 18.8616H27.3385C27.1205 18.6 26.9026 18.2949 26.7282 17.9898H29.6923C29.8667 17.7282 30.0411 17.4231 30.1718 17.0744H26.2052C26.0744 16.8128 25.9436 16.5077 25.8564 16.159H30.5205C30.7821 15.3744 30.9564 14.5026 30.9564 13.5436Z" fill="#C8191C"/>
<path d="M25.5069 15.6796L25.6377 14.8949C25.5941 14.8949 25.5069 14.9385 25.4197 14.9385C25.1146 14.9385 25.071 14.7642 25.1146 14.677L25.3761 13.1078H25.8556L25.9864 12.236H25.5505L25.6377 11.7129H24.7223C24.7223 11.7129 24.1992 14.677 24.1992 15.0257C24.1992 15.5488 24.5043 15.8103 24.9402 15.8103C25.2018 15.8103 25.4197 15.7232 25.5069 15.6796Z" fill="white"/>
<path d="M25.8125 14.2421C25.8125 15.5062 26.6843 15.8114 27.3817 15.8114C28.0356 15.8114 28.3407 15.6806 28.3407 15.6806L28.5151 14.8088C28.5151 14.8088 28.0356 15.0267 27.5561 15.0267C26.5535 15.0267 26.7279 14.2857 26.7279 14.2857H28.5587C28.5587 14.2857 28.6894 13.719 28.6894 13.4575C28.6894 12.8908 28.3843 12.1498 27.3817 12.1498C26.5099 12.1062 25.8125 13.1088 25.8125 14.2421ZM27.3817 12.9344C27.8612 12.9344 27.774 13.5011 27.774 13.5447H26.7715C26.8151 13.5011 26.9022 12.9344 27.3817 12.9344Z" fill="white"/>
<path d="M33.094 15.6799L33.2684 14.6774C33.2684 14.6774 32.8325 14.8953 32.4837 14.8953C31.8735 14.8953 31.5684 14.4158 31.5684 13.8491C31.5684 12.7594 32.0914 12.1927 32.7453 12.1927C33.1812 12.1927 33.5735 12.4543 33.5735 12.4543L33.7043 11.4953C33.7043 11.4953 33.1812 11.2773 32.6581 11.2773C31.6119 11.2773 30.6094 12.1927 30.6094 13.8927C30.6094 15.0261 31.1325 15.7671 32.2222 15.7671C32.6145 15.8107 33.094 15.6799 33.094 15.6799Z" fill="white"/>
<path d="M20.5828 12.1055C19.9726 12.1055 19.4931 12.2798 19.4931 12.2798L19.3623 13.0644C19.3623 13.0644 19.7546 12.8901 20.3649 12.8901C20.67 12.8901 20.9315 12.9337 20.9315 13.1952C20.9315 13.3696 20.8879 13.4132 20.8879 13.4132H20.4956C19.711 13.4132 18.8828 13.7183 18.8828 14.7644C18.8828 15.5927 19.4059 15.767 19.7546 15.767C20.3649 15.767 20.67 15.3747 20.7136 15.3747L20.67 15.7234H21.411L21.7597 13.2388C21.7597 12.1491 20.8879 12.1055 20.5828 12.1055ZM20.7572 14.1106C20.7572 14.2414 20.67 14.9824 20.1469 14.9824C19.8854 14.9824 19.7982 14.7644 19.7982 14.6337C19.7982 14.4157 19.929 14.1106 20.6264 14.1106C20.7136 14.1106 20.7572 14.1106 20.7572 14.1106Z" fill="white"/>
<path d="M22.6288 15.7657C22.8468 15.7657 23.9801 15.8093 23.9801 14.5888C23.9801 13.4554 22.8903 13.6734 22.8903 13.2375C22.8903 13.0195 23.0647 12.9323 23.3698 12.9323C23.5006 12.9323 23.9801 12.9759 23.9801 12.9759L24.1109 12.1477C24.1109 12.1477 23.8057 12.0605 23.2391 12.0605C22.5852 12.0605 21.8878 12.3221 21.8878 13.2375C21.8878 14.2836 23.0211 14.1964 23.0211 14.5888C23.0211 14.8503 22.716 14.8939 22.498 14.8939C22.1057 14.8939 21.6698 14.7631 21.6698 14.7631L21.5391 15.5913C21.6262 15.6785 21.8878 15.7657 22.6288 15.7657Z" fill="white"/>
<path d="M40.5913 11.4082L40.417 12.6287C40.417 12.6287 40.0683 12.1928 39.5452 12.1928C38.717 12.1928 38.0195 13.1954 38.0195 14.3723C38.0195 15.1133 38.3683 15.8544 39.1529 15.8544C39.6759 15.8544 40.0247 15.5056 40.0247 15.5056L39.9811 15.8108H40.8965L41.5503 11.4954L40.5913 11.4082ZM40.1554 13.7621C40.1554 14.2415 39.9375 14.8954 39.4144 14.8954C39.1093 14.8954 38.9349 14.6339 38.9349 14.1544C38.9349 13.4133 39.24 12.9774 39.6759 12.9774C39.9811 13.021 40.1554 13.239 40.1554 13.7621Z" fill="white"/>
<path d="M15.657 15.7236L16.18 12.4979L16.2672 15.7236H16.8775L18.0544 12.4979L17.5749 15.7236H18.5339L19.2749 11.4082H17.7929L16.8775 14.0672L16.8339 11.4082H15.5262L14.7852 15.7236H15.657Z" fill="white"/>
<path d="M29.6041 15.7222C29.8657 14.2401 29.9093 13.0196 30.5631 13.2376C30.6503 12.6709 30.7811 12.4094 30.8682 12.1914H30.6939C30.3016 12.1914 29.9528 12.7145 29.9528 12.7145L30.04 12.235H29.1682L28.6016 15.7222H29.6041Z" fill="white"/>
<path d="M35.1844 12.1055C34.5741 12.1055 34.0946 12.2798 34.0946 12.2798L33.9639 13.0644C33.9639 13.0644 34.3562 12.8901 34.9664 12.8901C35.2716 12.8901 35.5331 12.9337 35.5331 13.1952C35.5331 13.3696 35.4895 13.4132 35.4895 13.4132H35.0972C34.3126 13.4132 33.4844 13.7183 33.4844 14.7644C33.4844 15.5927 34.0075 15.767 34.3562 15.767C34.9664 15.767 35.2716 15.3747 35.3151 15.3747L35.2716 15.7234H36.0998L36.4485 13.2388C36.4485 12.1491 35.4895 12.1055 35.1844 12.1055ZM35.4023 14.1106C35.4023 14.2414 35.3151 14.9824 34.7921 14.9824C34.5305 14.9824 34.4434 14.7644 34.4434 14.6337C34.4434 14.4157 34.5741 14.1106 35.2716 14.1106C35.3587 14.1106 35.3587 14.1106 35.4023 14.1106Z" fill="white"/>
<path d="M37.1471 15.7222C37.4086 14.2401 37.4522 13.0196 38.1061 13.2376C38.1933 12.6709 38.324 12.4094 38.4112 12.1914H38.2368C37.8445 12.1914 37.4958 12.7145 37.4958 12.7145L37.583 12.235H36.7112L36.1445 15.7222H37.1471Z" fill="white"/>
</svg>
