<svg width="22" height="22" viewBox="0 0 22 22" fill="none" xmlns="http://www.w3.org/2000/svg">
<path fill-rule="evenodd" clip-rule="evenodd" d="M21.4769 14.3474C20.0605 18.7868 15.903 22 10.9949 22C6.08677 22 1.59981 18.5218 0.360043 13.8073C11.8373 18.0327 12.9616 11.1138 21.4803 14.344M21.9457 10.6213H21.9321C21.9321 10.6213 21.9626 10.6281 21.9457 10.6213ZM21.9932 10.6484C21.9966 10.7639 22 10.8794 22 10.9949C22 11.3006 21.9864 11.5995 21.9626 11.8984C17.119 10.1559 14.4425 11.304 11.7048 12.4792C11.1647 12.7102 10.6552 12.914 10.1729 13.0906C7.25521 14.1538 5.28177 14.1911 2.58824 13.3488C2.39123 13.274 2.19423 13.1993 1.99043 13.1144C2.19423 13.1993 2.39463 13.274 2.58824 13.3488C1.82739 13.111 1.0054 12.8019 0.0917091 12.4283C0.0305697 11.9595 0 11.4806 0 10.9949C0 10.5839 0.0237764 10.1763 0.0679327 9.77551C8.50178 12.8868 11.3549 9.98271 15.6415 9.49699C16.348 9.41547 17.0919 9.40188 17.9071 9.4902C19.0755 9.61587 20.3866 9.95554 21.9355 10.6145L21.9932 10.6451V10.6484ZM21.0591 6.54192C21.2426 6.95631 21.4022 7.38428 21.5347 7.82585C16.7896 6.16489 14.1402 7.29937 11.4297 8.46102C10.3461 8.92636 9.39509 9.27621 8.51536 9.51737C6.53852 10.0574 4.93531 10.0438 3.01281 9.53435C2.17385 9.31357 1.27713 8.99429 0.261541 8.59009C0.434769 7.81226 0.689517 7.065 1.01899 6.3619C7.88698 8.51876 10.7639 6.41285 14.3881 5.73692C15.56 5.51953 16.8133 5.4516 18.3045 5.72673C19.14 5.87957 20.0469 6.14112 21.0591 6.54192ZM10.9983 0C14.0892 0 16.8813 1.27713 18.8819 3.3287C15.4751 2.66636 13.2639 3.61402 11.0119 4.57866C9.72457 5.13231 8.62405 5.52293 7.60846 5.76069C6.01544 6.13432 4.6398 6.12413 3.08414 5.77428C2.59843 5.66559 2.09572 5.51953 1.56245 5.34291C3.48495 2.14328 6.99027 0 10.9983 0Z" fill="white"/>
</svg>
