<svg width="16" height="16" viewBox="0 0 16 16" fill="none" xmlns="http://www.w3.org/2000/svg">
<mask id="mask0_203_154658" style="mask-type:alpha" maskUnits="userSpaceOnUse" x="0" y="0" width="16" height="16">
<rect width="16" height="16" fill="#D9D9D9"/>
</mask>
<g mask="url(#mask0_203_154658)">
<mask id="mask1_203_154658" style="mask-type:alpha" maskUnits="userSpaceOnUse" x="2" y="2" width="12" height="12">
<rect x="2" y="2" width="12" height="12" fill="#D9D9D9"/>
</mask>
<g mask="url(#mask1_203_154658)">
<path d="M5.30305 14C5.00027 14 4.74107 13.8825 4.52546 13.6475C4.30984 13.4125 4.20203 13.13 4.20203 12.8C4.20203 12.47 4.30984 12.1875 4.52546 11.9525C4.74107 11.7175 5.00027 11.6 5.30305 11.6C5.60583 11.6 5.86503 11.7175 6.08065 11.9525C6.29626 12.1875 6.40407 12.47 6.40407 12.8C6.40407 13.13 6.29626 13.4125 6.08065 13.6475C5.86503 13.8825 5.60583 14 5.30305 14ZM10.8081 14C10.5054 14 10.2462 13.8825 10.0305 13.6475C9.81493 13.4125 9.70712 13.13 9.70712 12.8C9.70712 12.47 9.81493 12.1875 10.0305 11.9525C10.2462 11.7175 10.5054 11.6 10.8081 11.6C11.1109 11.6 11.3701 11.7175 11.5857 11.9525C11.8013 12.1875 11.9092 12.47 11.9092 12.8C11.9092 13.13 11.8013 13.4125 11.5857 13.6475C11.3701 13.8825 11.1109 14 10.8081 14ZM4.31214 3.2H12.4321C12.6432 3.2 12.8037 3.3025 12.9138 3.5075C13.0239 3.7125 13.0285 3.92 12.9276 4.13L10.9733 7.97C10.8724 8.17 10.737 8.325 10.5673 8.435C10.3976 8.545 10.2118 8.6 10.0099 8.6H5.90861L5.30305 9.8H11.3586C11.5146 9.8 11.6454 9.8575 11.7509 9.9725C11.8564 10.0875 11.9092 10.23 11.9092 10.4C11.9092 10.57 11.8564 10.7125 11.7509 10.8275C11.6454 10.9425 11.5146 11 11.3586 11H5.30305C4.89017 11 4.57822 10.8025 4.36719 10.4075C4.15616 10.0125 4.14698 9.62 4.33966 9.23L5.08285 7.76L3.10102 3.2H2.55051C2.39453 3.2 2.26379 3.1425 2.15827 3.0275C2.05276 2.9125 2 2.77 2 2.6C2 2.43 2.05276 2.2875 2.15827 2.1725C2.26379 2.0575 2.39453 2 2.55051 2H3.44509C3.54601 2 3.64235 2.03 3.7341 2.09C3.82585 2.15 3.89467 2.235 3.94054 2.345L4.31214 3.2Z" fill="#B3B3B3"/>
</g>
</g>
</svg>
