<svg width="24" height="23" viewBox="0 0 24 23" fill="none" xmlns="http://www.w3.org/2000/svg">
<mask id="mask0_875_155110" style="mask-type:alpha" maskUnits="userSpaceOnUse" x="0" y="-1" width="24" height="24">
<rect y="-1" width="24" height="24" fill="#D9D9D9"/>
</mask>
<g mask="url(#mask0_875_155110)">
<path d="M6 19C5.45 19 4.97917 18.8042 4.5875 18.4125C4.19583 18.0208 4 17.55 4 17V10C4 9.45 4.19583 8.97917 4.5875 8.5875C4.97917 8.19583 5.45 8 6 8C6.55 8 7.02083 8.19583 7.4125 8.5875C7.80417 8.97917 8 9.45 8 10V17C8 17.55 7.80417 18.0208 7.4125 18.4125C7.02083 18.8042 6.55 19 6 19ZM12 19C11.45 19 10.9792 18.8042 10.5875 18.4125C10.1958 18.0208 10 17.55 10 17V5C10 4.45 10.1958 3.97917 10.5875 3.5875C10.9792 3.19583 11.45 3 12 3C12.55 3 13.0208 3.19583 13.4125 3.5875C13.8042 3.97917 14 4.45 14 5V17C14 17.55 13.8042 18.0208 13.4125 18.4125C13.0208 18.8042 12.55 19 12 19ZM18 19C17.45 19 16.9792 18.8042 16.5875 18.4125C16.1958 18.0208 16 17.55 16 17V14C16 13.45 16.1958 12.9792 16.5875 12.5875C16.9792 12.1958 17.45 12 18 12C18.55 12 19.0208 12.1958 19.4125 12.5875C19.8042 12.9792 20 13.45 20 14V17C20 17.55 19.8042 18.0208 19.4125 18.4125C19.0208 18.8042 18.55 19 18 19Z" fill="#0A4881"/>
</g>
</svg>
