<svg width="24" height="24" viewBox="0 0 24 24" fill="none" xmlns="http://www.w3.org/2000/svg">
<mask id="mask0_203_171198" style="mask-type:alpha" maskUnits="userSpaceOnUse" x="0" y="0" width="24" height="24">
<rect width="24" height="24" fill="#D9D9D9"/>
</mask>
<g mask="url(#mask0_203_171198)">
<path d="M5.99922 19.1992C5.16589 19.1992 4.45755 18.9076 3.87422 18.3242C3.29089 17.7409 2.99922 17.0326 2.99922 16.1992H2.09922C1.84422 16.1992 1.63047 16.113 1.45797 15.9405C1.28547 15.768 1.19922 15.5542 1.19922 15.2992V5.99922C1.19922 5.50422 1.37547 5.08047 1.72797 4.72797C2.08047 4.37547 2.50422 4.19922 2.99922 4.19922H14.9992C15.4942 4.19922 15.918 4.37547 16.2705 4.72797C16.623 5.08047 16.7992 5.50422 16.7992 5.99922V7.79922H18.8742C19.161 7.79922 19.4327 7.86589 19.6893 7.99922C19.9459 8.13255 20.1659 8.31589 20.3492 8.54922L22.6242 11.7742C22.6742 11.8576 22.7159 11.9402 22.7492 12.0221C22.7826 12.104 22.7992 12.1928 22.7992 12.2884V15.2992C22.7992 15.5542 22.713 15.768 22.5405 15.9405C22.368 16.113 22.1542 16.1992 21.8992 16.1992H20.9992C20.9992 17.0326 20.7076 17.7409 20.1242 18.3242C19.5409 18.9076 18.8326 19.1992 17.9992 19.1992C17.1659 19.1992 16.4576 18.9076 15.8742 18.3242C15.2909 17.7409 14.9992 17.0326 14.9992 16.1992H8.99922C8.99922 17.0326 8.70755 17.7409 8.12422 18.3242C7.54089 18.9076 6.83255 19.1992 5.99922 19.1992ZM5.99922 17.3992C6.33922 17.3992 6.62422 17.2842 6.85422 17.0542C7.08422 16.8242 7.19922 16.5392 7.19922 16.1992C7.19922 15.8592 7.08422 15.5742 6.85422 15.3442C6.62422 15.1142 6.33922 14.9992 5.99922 14.9992C5.65922 14.9992 5.37422 15.1142 5.14422 15.3442C4.91422 15.5742 4.79922 15.8592 4.79922 16.1992C4.79922 16.5392 4.91422 16.8242 5.14422 17.0542C5.37422 17.2842 5.65922 17.3992 5.99922 17.3992ZM17.9992 17.3992C18.3392 17.3992 18.6242 17.2842 18.8542 17.0542C19.0842 16.8242 19.1992 16.5392 19.1992 16.1992C19.1992 15.8592 19.0842 15.5742 18.8542 15.3442C18.6242 15.1142 18.3392 14.9992 17.9992 14.9992C17.6592 14.9992 17.3742 15.1142 17.1442 15.3442C16.9142 15.5742 16.7992 15.8592 16.7992 16.1992C16.7992 16.5392 16.9142 16.8242 17.1442 17.0542C17.3742 17.2842 17.6592 17.3992 17.9992 17.3992ZM16.7992 12.5992L20.9992 12.5742L18.8742 9.59922H16.7992V12.5992Z" fill="#333333"/>
</g>
</svg>
