<svg width="24" height="24" viewBox="0 0 24 24" fill="none" xmlns="http://www.w3.org/2000/svg">
<mask id="mask0_517_29971" style="mask-type:alpha" maskUnits="userSpaceOnUse" x="0" y="0" width="24" height="24">
<rect width="24" height="24" transform="matrix(-1 0 0 1 24 0)" fill="#D9D9D9"/>
</mask>
<g mask="url(#mask0_517_29971)">
<path d="M12 20.3234C12.2333 20.3234 12.4708 20.2818 12.7125 20.1984C12.9542 20.1151 13.1667 19.9818 13.35 19.7984L15.075 18.2234C16.8417 16.6068 18.4375 15.0026 19.8625 13.4109C21.2875 11.8193 22 10.0651 22 8.14844C22 6.58177 21.475 5.27344 20.425 4.22344C19.375 3.17344 18.0667 2.64844 16.5 2.64844C15.6167 2.64844 14.7833 2.83594 14 3.21094C13.2167 3.58594 12.55 4.09844 12 4.74844C11.45 4.09844 10.7833 3.58594 10 3.21094C9.21667 2.83594 8.38333 2.64844 7.5 2.64844C5.93333 2.64844 4.625 3.17344 3.575 4.22344C2.525 5.27344 2 6.58177 2 8.14844C2 10.0651 2.70833 11.8234 4.125 13.4234C5.54167 15.0234 7.15 16.6318 8.95 18.2484L10.65 19.7984C10.8333 19.9818 11.0458 20.1151 11.2875 20.1984C11.5292 20.2818 11.7667 20.3234 12 20.3234Z" fill="#333333"/>
</g>
</svg>
