<svg width="40" height="40" viewBox="0 0 40 40" fill="none" xmlns="http://www.w3.org/2000/svg">
<g clip-path="url(#clip0_203_170533)">
<mask id="mask0_203_170533" style="mask-type:alpha" maskUnits="userSpaceOnUse" x="0" y="0" width="40" height="40">
<circle cx="20" cy="20" r="20" fill="#ECE5DF"/>
</mask>
<g mask="url(#mask0_203_170533)">
<circle cx="20" cy="20" r="20" fill="#ECE5DF"/>
<mask id="mask1_203_170533" style="mask-type:alpha" maskUnits="userSpaceOnUse" x="2" y="4" width="36" height="37">
<rect x="2.49023" y="4.55078" width="35.5098" height="35.5098" fill="#D9D9D9"/>
</mask>
<g mask="url(#mask1_203_170533)">
<path d="M20 23.0177C18.35 23.0177 16.9375 22.4294 15.7625 21.2526C14.5875 20.0759 14 18.6613 14 17.0089C14 15.3564 14.5875 13.9418 15.7625 12.7651C16.9375 11.5884 18.35 11 20 11C21.65 11 23.0625 11.5884 24.2375 12.7651C25.4125 13.9418 26 15.3564 26 17.0089C26 18.6613 25.4125 20.0759 24.2375 21.2526C23.0625 22.4294 21.65 23.0177 20 23.0177ZM8 42V30.8293C8 29.978 8.21875 29.1956 8.65625 28.482C9.09375 27.7685 9.675 27.2239 10.4 26.8484C11.95 26.0722 13.525 25.4901 15.125 25.1021C16.725 24.714 18.35 24.5199 20 24.5199C21.65 24.5199 23.275 24.714 24.875 25.1021C26.475 25.4901 28.05 26.0722 29.6 26.8484C30.325 27.2239 30.9062 27.7685 31.3438 28.482C31.7812 29.1956 32 29.978 32 30.8293V42H8Z" fill="#D7CCC3"/>
</g>
</g>
</g>
<defs>
<clipPath id="clip0_203_170533">
<rect width="40" height="40" fill="white"/>
</clipPath>
</defs>
</svg>
