<svg width="40" height="40" viewBox="0 0 40 40" fill="none" xmlns="http://www.w3.org/2000/svg">
<g clip-path="url(#clip0_203_170545)">
<circle cx="20" cy="20" r="20" fill="#0A4881"/>
<path fill-rule="evenodd" clip-rule="evenodd" d="M31.4294 23.6517C29.8842 28.4947 25.3488 32 19.9944 32C14.6401 32 9.74525 28.2057 8.39277 23.0625C20.9134 27.6721 22.1399 20.1241 31.4331 23.648M31.9407 19.5868H31.9259C31.9259 19.5868 31.9592 19.5943 31.9407 19.5868ZM31.9926 19.6165C31.9963 19.7425 32 19.8685 32 19.9944C32 20.3279 31.9852 20.654 31.9592 20.9801C26.6753 19.0792 23.7554 20.3316 20.7689 21.6137C20.1797 21.8657 19.6239 22.088 19.0977 22.2807C15.9148 23.4405 13.7619 23.4812 10.8235 22.5623C10.6086 22.4808 10.3937 22.3993 10.1714 22.3066C10.3937 22.3993 10.6123 22.4808 10.8235 22.5623C9.99352 22.3029 9.0968 21.9657 8.10005 21.5581C8.03335 21.0468 8 20.5243 8 19.9944C8 19.5461 8.02594 19.1014 8.07411 18.6642C17.2747 22.0584 20.3872 18.8902 25.0635 18.3604C25.8342 18.2714 26.6457 18.2566 27.535 18.3529C28.8096 18.49 30.2399 18.8606 31.9296 19.5794L31.9926 19.6128V19.6165ZM30.9736 15.1366C31.1737 15.5887 31.3478 16.0556 31.4924 16.5373C26.3159 14.7253 23.4257 15.9629 20.4687 17.2302C19.2867 17.7378 18.2492 18.1195 17.2895 18.3826C15.1329 18.9717 13.384 18.9569 11.2867 18.4011C10.3715 18.1603 9.39324 17.812 8.28532 17.371C8.47429 16.5225 8.7522 15.7073 9.11163 14.9403C16.604 17.2932 19.7425 14.9958 23.6962 14.2585C24.9745 14.0213 26.3418 13.9472 27.9685 14.2473C28.88 14.4141 29.8694 14.6994 30.9736 15.1366ZM19.9981 8C23.3701 8 26.4159 9.39324 28.5984 11.6313C24.8819 10.9088 22.4697 11.9426 20.013 12.9949C18.6086 13.5989 17.4081 14.025 16.3001 14.2844C14.5623 14.692 13.0616 14.6809 11.3645 14.2992C10.8346 14.1806 10.2862 14.0213 9.70449 13.8286C11.8018 10.3381 15.6258 8 19.9981 8Z" fill="white"/>
</g>
<defs>
<clipPath id="clip0_203_170545">
<rect width="40" height="40" fill="white"/>
</clipPath>
</defs>
</svg>
