<svg width="56" height="27" viewBox="0 0 56 27" fill="none" xmlns="http://www.w3.org/2000/svg">
<rect width="56" height="26" transform="translate(0 0.5)" fill="white"/>
<path d="M42.333 14C42.333 18.6641 38.5407 22.5 33.833 22.5C29.1689 22.5 25.333 18.6641 25.333 14C25.333 9.33591 29.1253 5.5 33.7894 5.5C38.5407 5.5 42.333 9.33591 42.333 14Z" fill="#F9B50B"/>
<path d="M30.9564 14.0436C30.9564 13.4334 30.8693 12.8231 30.7821 12.2564H25.5513C25.5949 11.9513 25.6821 11.6898 25.7693 11.341H30.4334C30.3462 11.0359 30.2154 10.7308 30.0847 10.4257H26.118C26.2487 10.1205 26.4231 9.85898 26.5975 9.51027H29.6052C29.4308 9.20514 29.2129 8.90001 28.9513 8.59488H27.2949C27.5564 8.28975 27.818 8.02821 28.1667 7.72308C26.6846 6.32821 24.6795 5.5 22.4564 5.5C17.8359 5.63077 14 9.33591 14 14C14 18.6641 17.7923 22.5 22.5 22.5C24.7231 22.5 26.6846 21.6282 28.2103 20.277C28.5154 20.0154 28.777 19.7103 29.0821 19.3616H27.3385C27.1205 19.1 26.9026 18.7949 26.7282 18.4898H29.6923C29.8667 18.2282 30.0411 17.9231 30.1718 17.5744H26.2052C26.0744 17.3128 25.9436 17.0077 25.8564 16.659H30.5205C30.7821 15.8744 30.9564 15.0026 30.9564 14.0436Z" fill="#C8191C"/>
<path d="M25.5079 16.1796L25.6387 15.3949C25.5951 15.3949 25.5079 15.4385 25.4207 15.4385C25.1156 15.4385 25.072 15.2642 25.1156 15.177L25.3771 13.6078H25.8566L25.9874 12.736H25.5515L25.6387 12.2129H24.7233C24.7233 12.2129 24.2002 15.177 24.2002 15.5257C24.2002 16.0488 24.5053 16.3103 24.9412 16.3103C25.2028 16.3103 25.4207 16.2232 25.5079 16.1796Z" fill="white"/>
<path d="M25.8125 14.7421C25.8125 16.0062 26.6843 16.3114 27.3817 16.3114C28.0356 16.3114 28.3407 16.1806 28.3407 16.1806L28.5151 15.3088C28.5151 15.3088 28.0356 15.5267 27.5561 15.5267C26.5535 15.5267 26.7279 14.7857 26.7279 14.7857H28.5587C28.5587 14.7857 28.6894 14.219 28.6894 13.9575C28.6894 13.3908 28.3843 12.6498 27.3817 12.6498C26.5099 12.6062 25.8125 13.6088 25.8125 14.7421ZM27.3817 13.4344C27.8612 13.4344 27.774 14.0011 27.774 14.0447H26.7715C26.8151 14.0011 26.9022 13.4344 27.3817 13.4344Z" fill="white"/>
<path d="M33.093 16.1799L33.2674 15.1774C33.2674 15.1774 32.8315 15.3953 32.4828 15.3953C31.8725 15.3953 31.5674 14.9158 31.5674 14.3491C31.5674 13.2594 32.0905 12.6927 32.7443 12.6927C33.1802 12.6927 33.5725 12.9543 33.5725 12.9543L33.7033 11.9953C33.7033 11.9953 33.1802 11.7773 32.6571 11.7773C31.611 11.7773 30.6084 12.6927 30.6084 14.3927C30.6084 15.5261 31.1315 16.2671 32.2212 16.2671C32.6135 16.3107 33.093 16.1799 33.093 16.1799Z" fill="white"/>
<path d="M20.5818 12.6055C19.9716 12.6055 19.4921 12.7798 19.4921 12.7798L19.3613 13.5644C19.3613 13.5644 19.7536 13.3901 20.3639 13.3901C20.669 13.3901 20.9306 13.4337 20.9306 13.6952C20.9306 13.8696 20.887 13.9132 20.887 13.9132H20.4947C19.71 13.9132 18.8818 14.2183 18.8818 15.2644C18.8818 16.0927 19.4049 16.267 19.7536 16.267C20.3639 16.267 20.669 15.8747 20.7126 15.8747L20.669 16.2234H21.41L21.7588 13.7388C21.7588 12.6491 20.887 12.6055 20.5818 12.6055ZM20.7562 14.6106C20.7562 14.7414 20.669 15.4824 20.1459 15.4824C19.8844 15.4824 19.7972 15.2644 19.7972 15.1337C19.7972 14.9157 19.928 14.6106 20.6254 14.6106C20.7126 14.6106 20.7562 14.6106 20.7562 14.6106Z" fill="white"/>
<path d="M22.6308 16.2657C22.8487 16.2657 23.982 16.3093 23.982 15.0888C23.982 13.9554 22.8923 14.1734 22.8923 13.7375C22.8923 13.5195 23.0667 13.4323 23.3718 13.4323C23.5026 13.4323 23.982 13.4759 23.982 13.4759L24.1128 12.6477C24.1128 12.6477 23.8077 12.5605 23.241 12.5605C22.5872 12.5605 21.8897 12.8221 21.8897 13.7375C21.8897 14.7836 23.0231 14.6964 23.0231 15.0888C23.0231 15.3503 22.7179 15.3939 22.5 15.3939C22.1077 15.3939 21.6718 15.2631 21.6718 15.2631L21.541 16.0913C21.6282 16.1785 21.8897 16.2657 22.6308 16.2657Z" fill="white"/>
<path d="M40.5894 11.9082L40.415 13.1287C40.415 13.1287 40.0663 12.6928 39.5432 12.6928C38.715 12.6928 38.0176 13.6954 38.0176 14.8723C38.0176 15.6133 38.3663 16.3544 39.1509 16.3544C39.674 16.3544 40.0227 16.0056 40.0227 16.0056L39.9791 16.3108H40.8945L41.5484 11.9954L40.5894 11.9082ZM40.1535 14.2621C40.1535 14.7415 39.9355 15.3954 39.4125 15.3954C39.1073 15.3954 38.933 15.1339 38.933 14.6544C38.933 13.9133 39.2381 13.4774 39.674 13.4774C39.9791 13.521 40.1535 13.739 40.1535 14.2621Z" fill="white"/>
<path d="M15.657 16.2236L16.18 12.9979L16.2672 16.2236H16.8775L18.0544 12.9979L17.5749 16.2236H18.5339L19.2749 11.9082H17.7929L16.8775 14.5672L16.8339 11.9082H15.5262L14.7852 16.2236H15.657Z" fill="white"/>
<path d="M29.6051 16.2222C29.8666 14.7401 29.9102 13.5196 30.5641 13.7376C30.6513 13.1709 30.782 12.9094 30.8692 12.6914H30.6949C30.3025 12.6914 29.9538 13.2145 29.9538 13.2145L30.041 12.735H29.1692L28.6025 16.2222H29.6051V16.2222Z" fill="white"/>
<path d="M35.1844 12.6055C34.5741 12.6055 34.0946 12.7798 34.0946 12.7798L33.9639 13.5644C33.9639 13.5644 34.3562 13.3901 34.9664 13.3901C35.2716 13.3901 35.5331 13.4337 35.5331 13.6952C35.5331 13.8696 35.4895 13.9132 35.4895 13.9132H35.0972C34.3126 13.9132 33.4844 14.2183 33.4844 15.2644C33.4844 16.0927 34.0075 16.267 34.3562 16.267C34.9664 16.267 35.2716 15.8747 35.3151 15.8747L35.2716 16.2234H36.0998L36.4485 13.7388C36.4485 12.6491 35.4895 12.6055 35.1844 12.6055ZM35.4023 14.6106C35.4023 14.7414 35.3151 15.4824 34.7921 15.4824C34.5305 15.4824 34.4434 15.2644 34.4434 15.1337C34.4434 14.9157 34.5741 14.6106 35.2716 14.6106C35.3587 14.6106 35.3587 14.6106 35.4023 14.6106Z" fill="white"/>
<path d="M37.1461 16.2222C37.4077 14.7401 37.4512 13.5196 38.1051 13.7376C38.1923 13.1709 38.323 12.9094 38.4102 12.6914H38.2359C37.8436 12.6914 37.4948 13.2145 37.4948 13.2145L37.582 12.735H36.7102L36.1436 16.2222H37.1461V16.2222Z" fill="white"/>
</svg>
