<svg width="60" height="69" viewBox="0 0 60 69" fill="none" xmlns="http://www.w3.org/2000/svg">
<path d="M55.8411 1.08203V55.518C55.8411 59.9597 53.8022 62.8892 48.1043 62.8892H36.2006C33.3296 62.8892 30.3481 64.0499 29.4206 68.1465C28.493 64.0499 25.5115 62.8892 22.6405 62.8892H10.7368C5.03895 62.8892 3 59.9597 3 55.518V1.08203H55.8411Z" fill="#D6D6D6" stroke="black" stroke-width="1.50015"/>
<path d="M19.9279 11.2822C19.6227 11.7052 19.5623 12.8273 21.0399 12.8076C22.5174 12.788 23.8747 12.7999 25.3099 13.1264C26.7451 13.4529 27.0446 13.6728 27.0446 13.6728L26.2885 14.6974C26.2885 14.6974 24.9763 14.0144 23.2639 14.0599C21.5514 14.1055 20.1399 14.4601 19.1717 14.1282C18.2314 13.8059 17.8388 12.8505 18.3266 11.9652C18.8159 11.0772 19.9279 11.2822 19.9279 11.2822Z" fill="black"/>
<path d="M21.0408 13.0793C22.3523 13.0619 23.7064 13.0094 24.9838 13.2026C26.3887 13.4151 26.9344 13.7168 26.9344 13.7168L26.623 14.4682C26.623 14.4682 25.1656 13.829 23.2556 13.8146C21.3456 13.8001 20.5137 14.0891 19.6623 13.7973C18.8108 13.5055 18.5693 12.8313 18.7943 12.3158C19.0193 11.8004 19.4396 11.8726 19.4396 11.8726C19.289 12.4217 19.7293 13.0968 21.0408 13.0793Z" fill="#D3230E"/>
<path d="M21.952 14.5887C21.824 13.7435 22.1901 13.362 22.1901 13.362C22.546 13.7718 22.6349 14.3183 22.6349 14.3183C22.6349 14.3183 23.3689 14.8647 24.5031 14.9103C25.6373 14.9558 26.6159 14.6143 26.7271 13.6808C26.8383 12.7473 26.2378 12.1097 25.148 11.882C24.0583 11.6544 22.5905 11.9959 22.5905 11.9959C22.2791 12.4513 21.8121 13.4986 21.8121 13.4986C21.4785 12.9749 21.5229 11.9959 21.5229 11.9959C21.1226 12.0642 20.7001 11.9959 20.7446 11.6544C20.789 11.3128 21.0114 11.2673 21.0114 11.2673C20.9447 10.7436 21.1004 10.5615 21.1004 10.5615C21.1004 10.5615 20.7223 10.5387 20.6334 10.2883C20.5444 10.0378 20.7223 9.94673 20.6111 9.71904C20.4999 9.49136 20.5666 9.28644 20.5666 9.28644C20.5666 9.28644 20.322 9.2409 20.1886 9.01322C20.0551 8.78553 19.9217 7.73818 19.9217 7.73818L25.6818 7.44219C26.0154 7.19174 26.3712 7.03235 27.7501 6.87298C29.129 6.7136 30.3892 6.64529 30.3892 6.64529C30.4337 6.14439 29.6827 6.0867 29.6553 5.18811C29.6279 4.28951 30.6561 3.48047 31.9683 3.48047C33.2804 3.48047 34.3924 4.43675 34.3924 4.43675C34.3924 4.43675 34.4147 4.57336 33.9254 4.64167C33.4361 4.70997 33.3694 4.86935 33.3694 4.86935C33.9031 4.77827 34.0588 5.00596 34.0588 5.00596L33.3027 5.59794C33.5695 5.52964 33.8587 5.62071 33.8587 5.62071C33.614 6.21269 32.7911 6.91852 32.7911 6.91852C33.5251 6.87298 33.9699 7.12343 33.9699 7.12343C33.9699 7.12343 34.1255 5.64348 34.6148 4.77828C35.1041 3.91307 36.1049 3.50324 37.1724 3.79923C38.2399 4.09522 39.5743 5.02873 40.2637 5.57517C40.9532 6.12162 41.22 6.66806 41.22 6.66806C40.2415 6.69083 39.3741 7.00959 39.3741 7.00959C39.9524 7.16897 40.2637 7.71541 40.2637 7.71541C39.6855 7.53327 38.3733 7.60157 38.3733 7.60157C38.8849 7.71541 39.3741 8.19355 39.3741 8.19355C39.3741 8.19355 38.9961 8.12524 38.3066 8.26185C37.6172 8.39847 37.7061 8.71723 37.7061 8.71723C37.7061 8.71723 37.973 8.85384 38.3289 9.35475C38.6847 9.85565 39.6188 11.1535 40.3749 11.3584C41.1311 11.5633 41.2423 11.6999 41.2423 11.6999C40.9087 11.7454 40.6863 11.8593 40.6863 11.8593C41.1756 12.4057 41.8872 12.6562 41.8872 12.6562C41.4869 12.9977 40.5528 13.1343 40.5528 13.1343C41.1311 13.658 42.8435 14.4549 42.8435 14.4549C42.4432 14.842 41.7316 14.933 41.7316 14.933C42.6434 15.7072 44.2002 16.2308 44.2002 16.2308C43.5107 16.5496 42.1986 16.5951 42.1986 16.5951C42.7324 17.392 43.5997 17.9157 44.4671 18.3711C45.3344 18.8264 46.2907 18.9631 46.2907 18.9631C45.8459 19.3046 44.4671 19.4867 44.4671 19.4867C44.9786 19.9193 46.313 20.0332 46.313 20.0332C45.9126 20.6479 44.8748 20.8452 44.8748 20.8452C45.6087 21.3462 46.6985 21.5055 46.6985 21.5055C46.3204 21.9154 45.6977 22.0292 45.6977 22.0292C46.1647 22.2342 46.9209 22.2569 46.9209 22.2569C46.565 22.644 46.0535 22.7578 46.0535 22.7578C46.3871 22.8944 46.8541 22.8944 46.8541 22.8944C46.6317 23.1904 46.2981 23.327 46.2981 23.327C46.6317 23.9418 47.8772 26.4918 48.4332 28.2678C48.9892 30.0437 50.0344 33.3452 50.3903 34.5519C50.7461 35.7586 51.3243 36.8971 51.3243 36.8971C50.6127 36.806 49.7676 36.1912 49.7676 36.1912C49.7676 36.1912 49.6786 36.8515 50.0789 37.5346C50.4792 38.2176 50.7906 38.7641 50.7906 38.7641C50.0344 38.6047 49.0336 37.7167 49.0336 37.7167C49.1226 38.673 49.8788 39.8114 49.8788 39.8114C49.3672 39.652 48.4554 39.0373 48.4554 39.0373C48.7668 39.9936 49.3254 41.0678 49.3254 41.0678C48.9637 40.9068 47.9573 40.2145 47.9573 40.2145C48.0359 40.8746 48.7593 41.7392 48.7593 41.7392C48.1366 41.6708 47.7141 41.1927 47.7141 41.1927C47.7141 41.1927 47.3077 42.9931 46.833 44.9122C46.4936 46.2844 45.9126 47.659 45.9126 47.659C46.1573 48.0233 46.6688 48.2509 46.6688 48.2509C46.2907 48.3648 45.4901 48.4103 45.4901 48.4103C45.9794 48.7746 46.9357 48.7291 46.9357 48.7291C46.6243 49.1161 45.5791 49.5715 45.5791 49.5715C46.1128 49.7765 47.0024 49.7992 47.0024 49.7992C46.6243 50.2773 45.3789 50.5961 45.3789 50.5961C46.0016 50.7327 46.5798 50.6872 46.5798 50.6872C46.2018 51.1653 45.201 51.4613 45.201 51.4613C45.668 51.5979 46.3352 51.6435 46.3574 51.6435C45.7125 52.0988 44.4226 51.8484 44.4226 51.8484C43.6219 52.5314 42.2431 53.5332 40.0636 54.74C37.8841 55.9467 36.2383 56.311 36.2161 56.3338C35.7713 56.5842 35.1486 56.7891 35.1486 56.7891C35.7046 57.8365 35.5489 58.9521 35.5489 58.9521C35.2598 58.4285 34.9929 57.9959 34.9929 57.9959C35.193 58.9977 34.9706 60.2727 34.9706 60.2727C34.6815 59.4303 34.0143 59.0432 34.0143 59.0432C34.3479 59.8856 34.1478 60.637 34.1478 60.637C33.6363 59.749 32.7244 59.1571 32.7244 59.1571C33.1247 59.9539 33.0135 61.1151 33.0135 61.1151C32.3241 60.0223 31.1676 59.2709 31.1676 59.2709C31.5457 59.8629 31.5457 60.8647 31.5457 60.8647C30.923 59.8629 29.8555 59.2861 29.8555 59.2861C29.166 59.7187 28.8324 59.3999 28.8324 59.3999C27.8355 60.1094 27.0393 59.3727 26.2823 61.062C26.1266 60.0147 26.9272 59.1495 26.9272 59.1495C26.0154 59.4682 25.0591 60.5383 25.0591 60.5383C25.0813 59.3771 25.9042 58.3981 25.9042 58.3981C24.9034 58.4892 24.1028 59.5365 24.1028 59.491C24.1028 58.0793 25.0813 57.3052 25.0813 57.3052C24.2362 57.4874 23.569 58.5575 23.569 58.5575C23.6802 57.5101 24.1377 56.5236 24.1377 56.5236C23.8389 56.7007 23.3671 57.2159 23.3671 57.2159C23.5087 56.5075 24.122 55.8152 24.122 55.8152C24.122 55.8152 23.6502 55.461 23.1155 55.1551C22.5808 54.8492 21.7528 54.2239 20.5296 53.1993C19.3064 52.1747 18.0498 51.0932 18.0498 51.0932C18.0498 51.0932 17.8941 51.1046 17.3048 51.0818C16.7154 51.0591 16.0594 50.8883 16.0594 50.8883C16.7599 50.8086 17.0602 50.5695 17.0602 50.5695C17.0602 50.5695 16.9156 50.3305 16.0371 50.0572C15.1586 49.784 14.825 49.3514 14.825 49.3514C15.3143 49.4539 15.7814 49.4197 15.7814 49.4197C15.7814 49.4197 15.559 49.2945 15.1809 48.9302C14.8028 48.5659 14.3247 47.8828 14.3247 47.8828C14.3247 47.8828 14.6916 48.156 15.0919 48.2585C15.4922 48.361 15.8703 48.3723 15.8703 48.3723C15.8703 48.3723 15.559 48.1902 15.1586 47.7918C14.7583 47.3933 14.2802 46.6078 14.2802 46.6078C14.2802 46.6078 14.5471 46.9152 14.9474 46.9835C15.3477 47.0518 15.6368 46.9607 15.6368 46.9607C14.9474 46.5509 14.1023 45.5035 14.1023 45.5035C14.2579 45.5946 14.8806 45.6629 14.8806 45.6629C14.4359 45.2076 14.2135 44.7977 13.9466 43.591C13.6797 42.3843 13.6797 41.1548 13.6797 41.1548C13.6797 41.1548 12.8779 40.0965 12.2803 39.4525C11.6827 38.8085 11.2424 37.9713 11.2424 37.9713C11.2424 37.9713 11.211 37.9069 10.8335 38.0035C10.4561 38.1001 10.236 38.0357 10.236 38.0357L10.8807 37.0214C10.8807 37.0214 10.7235 37.0536 10.2517 37.3434C9.7799 37.6332 9.30812 37.5366 9.30812 37.5366C9.30812 37.5366 10.0001 37.0214 10.3618 36.5867C10.7235 36.152 10.9908 35.8139 10.9908 35.8139C10.9908 35.8139 10.7864 35.7495 10.2674 35.9105C9.74845 36.0715 9.22949 35.8461 9.22949 35.8461C9.22949 35.8461 10.0472 35.5563 10.4404 35.0733C10.8335 34.5904 11.0065 33.9946 11.0065 33.9946C10.3775 34.3489 9.93716 33.9625 9.93716 33.9625C10.346 33.721 10.7392 33.3346 11.2424 32.755C11.7456 32.1754 12.0602 31.5153 12.0602 31.5153C11.6356 31.6441 11.0223 31.6602 11.0223 31.6602C12.5005 30.9679 13.2082 29.9214 13.8686 29.0681C14.5291 28.2148 15.567 26.782 16.259 25.9448C16.9509 25.1076 18.9009 23.2078 20.0489 22.2096C21.1969 21.2114 22.6752 20.2133 24.1377 19.4566C25.6002 18.6999 26.9369 18.2491 26.9369 18.2491C26.7639 17.7661 26.4337 17.3636 25.8204 16.9772C25.2071 16.5908 24.4601 16.4942 24.4601 16.4942C24.3736 16.6552 24.3972 16.8806 24.3972 16.8806C24.2006 16.8243 24.0905 16.623 24.0905 16.623L24.0591 16.9772C23.9883 16.8484 23.8546 16.615 23.8546 16.615C23.8389 16.6955 23.7839 16.776 23.7839 16.776C23.7052 16.6472 23.6109 16.5103 23.6109 16.5103L23.4615 16.4781C23.4536 16.6069 23.3911 16.709 23.3911 16.709C23.1687 16.3219 22.8351 16.0942 22.8351 16.0942L22.4496 16.3219C22.3162 16.0259 22.3607 15.5705 22.3607 15.5705C22.1827 15.3201 21.7943 14.7281 21.7943 14.7281L21.952 14.5887Z" fill="black"/>
<path d="M36.4883 5.90059C36.2625 5.90385 36.0375 5.94809 35.837 6.04469C35.035 6.43109 35.082 7.34895 35.082 7.34895C35.7582 7.65485 36.5288 7.75138 36.5288 7.75138C36.5288 7.75138 36.6233 7.57428 37.0951 7.09128C37.5669 6.60829 37.8968 6.67258 37.8968 6.67258C37.8497 6.24996 37.1657 5.89078 36.4883 5.90059ZM22.2303 7.6189L22.0996 7.62554C22.2327 8.09384 22.124 8.76577 22.124 8.76577C22.124 8.76577 22.2655 8.42763 22.2813 7.94463C22.2868 7.77577 22.263 7.67758 22.2303 7.6189ZM20.8185 7.8158C20.8185 7.8158 20.5514 7.79955 20.2526 7.89615C20.2526 7.89615 20.3783 8.13789 20.6142 8.17009C20.8501 8.20228 20.9444 8.18601 20.9444 8.18601L20.8185 7.8158ZM21.1776 9.22797C20.9909 9.21256 20.8344 9.40959 20.8344 9.40959C21.1647 9.45789 21.4791 9.34515 21.259 9.24855C21.2315 9.23648 21.2042 9.23017 21.1776 9.22797ZM26.4593 11.8056C26.4593 11.8056 27.7046 12.6022 27.7936 13.6723C27.8826 14.7425 27.0376 15.3119 27.0376 15.3119C27.0376 15.3119 27.9493 15.2434 28.2162 14.1505C28.4831 13.0576 27.1487 11.9422 26.4593 11.8056ZM22.0659 11.8979C21.9888 11.8964 21.8866 11.9063 21.7568 11.9265C21.7568 11.9265 21.6782 12.7799 21.8512 13.1341C21.8512 13.1341 21.9458 12.6029 22.1502 12.2648C22.3036 12.0112 22.2974 11.9024 22.0659 11.8979ZM22.1973 13.5687C22.1973 13.5687 22.0578 13.8475 22.0714 14.2089C22.0851 14.5703 22.128 14.6163 22.1817 14.6475C22.2354 14.6788 22.4018 14.6636 22.4489 14.5509C22.4961 14.4382 22.2602 14.0034 22.1973 13.5687ZM39.8921 16.4731C40.2257 17.1106 40.6261 17.2926 40.6261 17.2926C39.2917 17.2015 37.8462 16.6551 37.8462 16.6551C38.1354 17.1787 38.9136 17.6342 38.9136 17.6342C38.2019 17.6798 36.6452 17.3839 36.6452 17.3839C37.09 18.1125 38.024 18.4995 38.024 18.4995C37.2233 18.4995 35.333 18.2718 35.333 18.2718C35.6888 18.7499 36.4004 19.0912 36.4004 19.0912C35.7777 19.3645 34.866 19.0003 34.866 19.0003C34.866 19.0003 35.4221 19.7515 37.0678 19.2506C36.712 19.1823 35.9333 18.4537 35.9333 18.4537C35.9333 18.4537 36.5341 18.6361 37.5349 18.7044C38.5357 18.7727 39.3138 18.5221 39.3138 18.5221C38.2463 18.4083 37.3124 17.7481 37.3124 17.7481C38.2687 18.158 40.2257 18.1579 40.2479 18.1579C39.6252 18.0213 39.0693 17.3381 39.0693 17.3381C40.337 17.6796 41.2932 17.4749 41.2932 17.4749C40.8484 17.3155 40.426 16.8599 40.426 16.8599L40.8706 16.7235C40.8706 16.7235 39.9366 16.4731 39.8921 16.4731ZM27.6603 18.8864C27.6603 18.8864 28.8834 19.9338 29.4616 20.5486C30.0399 21.1633 30.2845 21.2316 30.2845 21.2316C30.2845 21.2316 30.4847 20.7989 30.24 20.3663C30.24 20.3663 31.5521 20.7534 31.9969 21.2316C31.9969 21.2316 32.1526 20.9584 31.8857 20.5941C31.6188 20.2298 31.5967 19.911 31.5967 19.911L33.1979 20.6395C33.1979 20.6395 33.109 20.2754 32.6865 20.0249C32.2639 19.7745 31.9525 19.2051 31.9525 19.2051C31.9525 19.2051 31.997 19.6834 32.3751 20.0249C32.3751 20.0249 31.5077 19.5921 31.1741 19.2506C31.2102 19.73 31.5588 19.9684 31.4634 20.5486C30.8917 19.8753 30.1739 19.7599 29.5061 19.2964C29.5896 19.8599 30.0579 20.0203 30.1067 20.7309C30.1067 20.7309 28.5499 19.2734 27.6603 18.8864ZM42.7196 19.2895C41.5559 19.2573 38.2659 19.7857 34.9195 20.7707C31.573 21.7557 29.5414 22.7669 29.5414 22.7669C29.5414 22.7669 28.0945 22.6382 26.6792 21.801C25.2639 20.9638 24.0427 19.7517 24.0427 19.7517C24.0427 19.7517 24.6977 21.64 25.4211 23.089C26.1445 24.538 26.3018 24.3772 26.6163 25.15L33.663 25.1726C34.1348 24.0456 36.3166 22.6099 38.3924 21.4185C40.4682 20.2271 42.7196 19.2895 42.7196 19.2895ZM39.6268 29.0674C39.6268 29.0674 39.5953 31.4825 39.1864 33.4467C38.7775 35.4109 37.8025 38.5019 36.8275 39.4357C35.8525 40.3695 36.1043 40.5949 36.1043 40.5949C36.1672 40.5627 37.4566 40.3049 38.0541 38.7915C38.6517 37.2782 39.501 34.6059 39.6897 32.3519C39.8785 30.098 39.6268 29.0674 39.6268 29.0674ZM19.4019 29.6408C19.4019 29.6408 18.8013 31.1892 19.1349 33.0562C19.4685 34.9232 20.5807 37.5871 21.1367 38.5206C21.6927 39.4541 22.2929 40.2054 22.2929 40.2054L21.8039 38.9303C21.8039 38.9303 21.3811 38.5206 20.7362 37.4504C20.0912 36.3803 19.5576 33.6479 19.3574 32.6461C19.1573 31.6443 19.2462 30.3694 19.4019 29.6408ZM13.6787 41.154C13.6787 41.154 13.6835 41.3699 13.6985 41.6604C14.1195 42.1128 16.0561 44.1829 17.0891 45.0777C18.2455 46.0796 20.2915 47.5597 20.2915 47.5597C20.2915 47.5597 20.4915 47.5596 21.6702 47.7872C22.8489 48.0149 24.9839 47.9011 24.9839 47.9011C24.9839 47.9011 25.0286 47.4002 25.5846 47.5823C26.1406 47.7645 26.8079 48.4248 27.8309 49.3355C28.8539 50.2462 30.0325 51.4303 30.0325 51.4303C28.1866 51.7263 26.4075 53.2971 25.4289 54.2079C24.4702 55.1001 24.428 55.4603 24.428 55.4603C25.6512 54.1398 27.1192 53.1835 28.031 52.5915C28.9428 51.9995 29.3429 52.1588 29.3429 52.1588C29.8544 51.5441 30.4106 51.6123 30.4106 51.6123C30.4106 51.6123 30.7663 51.0432 31.3668 49.9275C31.9672 48.8119 32.8347 47.6052 32.8347 47.6052C32.8347 47.6052 34.47 48.3807 36.6598 48.0605C38.8497 47.7402 39.8401 47.0358 41.4859 46.034C43.1316 45.0322 45.1333 43.6662 46.1118 42.9148C46.9099 42.302 47.3859 41.9463 47.5713 41.8081C47.624 41.5784 47.713 41.1919 47.713 41.1919C47.713 41.1919 47.4908 41.3665 46.957 41.8901C46.4233 42.4138 43.8658 44.1671 41.8864 45.4194C40.0078 46.6079 38.4617 47.2375 36.7046 47.6507C34.9475 48.064 33.3685 47.5368 33.3685 47.5368C33.3685 47.5368 33.3685 47.2864 33.0572 47.3775C32.7458 47.4685 32.3231 47.8784 31.5224 49.0851C30.7218 50.2919 30.0769 51.3165 30.0769 51.3165C30.0769 51.3165 29.343 50.2691 28.3644 49.3584C27.3859 48.4477 26.2295 47.6053 25.629 47.4004C25.0285 47.1954 24.7838 47.5597 24.7838 47.5597C24.7838 47.5597 24.2057 47.6507 23.1382 47.4913C22.0706 47.332 20.2211 47.1098 20.2211 47.1098C20.2211 47.1098 19.2146 46.3693 17.5791 44.9526C15.9436 43.5358 13.6787 41.154 13.6787 41.154ZM32.3297 42.3988C32.3297 42.3988 31.596 42.5583 31.0178 42.8315C30.4395 43.1047 29.7723 43.3551 29.7723 43.3551C30.32 43.5218 30.9107 43.5065 31.2487 43.478C31.5876 42.8625 32.3297 42.3988 32.3297 42.3988ZM26.5112 42.4898C26.5112 42.4898 26.9842 42.8534 27.1829 43.3581C27.451 43.4299 28.0237 43.5378 28.6239 43.3551C28.6239 43.3551 27.9567 43.1047 27.3785 42.8315C26.8002 42.5583 26.5112 42.4898 26.5112 42.4898ZM27.2101 43.4355C27.2399 43.5266 27.2608 43.6214 27.2672 43.7194C27.2768 43.8671 27.2634 44.0568 27.2309 44.2709C27.5164 44.3662 28.2337 44.5565 29.0465 44.3795C29.0465 44.3795 27.8626 43.8559 27.2101 43.4355ZM31.1618 43.6613C30.4365 44.029 29.2609 44.3795 29.2609 44.3795C30.168 44.577 30.9045 44.4055 31.093 44.3546C31.0804 44.2293 31.0767 44.1081 31.0843 43.9926C31.0916 43.8797 31.12 43.7688 31.1618 43.6613ZM27.2218 44.3323C27.1747 44.6164 27.0919 44.9412 26.9805 45.2763C27.5065 45.2836 28.379 45.277 28.9352 45.1538C28.9352 45.1538 27.8855 44.855 27.2218 44.3323ZM31.0985 44.3977C30.4493 44.9417 29.461 45.1538 29.461 45.1538C29.9915 45.2712 30.8033 45.2823 31.3366 45.277C31.2109 44.9719 31.1312 44.675 31.0985 44.3977ZM26.9377 45.3955C26.85 45.6447 26.7497 45.8961 26.6305 46.1389C26.847 46.176 27.3048 46.2229 27.9347 46.1101C28.8243 45.9507 28.8688 45.7913 28.8688 45.7913C28.8688 45.7913 27.6948 45.6027 26.9377 45.3955ZM31.395 45.4124C30.6372 45.6128 29.5275 45.7913 29.5275 45.7913C29.5275 45.7913 29.572 45.9507 30.4615 46.1101C31.0993 46.2243 31.6005 46.2094 31.8393 46.1921C31.6605 45.9328 31.5119 45.6707 31.395 45.4124ZM26.5358 46.3252C26.4207 46.5405 26.2937 46.745 26.1554 46.9295C26.1554 46.9295 27.3564 47.0663 28.0904 46.4288C28.0904 46.4288 27.229 46.4656 26.5358 46.3252ZM31.9788 46.3856C31.2715 46.5268 30.3059 46.4288 30.3059 46.4288C31.0398 47.0663 32.4854 46.9754 32.4854 46.9754C32.2987 46.7842 32.13 46.5864 31.9788 46.3856ZM24.1835 55.9839C23.9166 56.223 23.7385 56.5986 23.7385 56.5986L24.3281 56.2001L24.1835 55.9839ZM24.5727 56.5418C24.5727 56.5418 24.0612 56.8606 23.9389 57.8055C23.9389 57.8055 24.428 57.0654 24.8951 56.906C24.8951 56.906 24.695 56.7467 24.5727 56.5418ZM35.1478 56.7885C35.1478 56.7885 34.4214 57.1508 33.6666 57.4084C32.9117 57.666 31.8581 58.0522 31.8581 58.0522C31.8581 58.0522 32.5658 57.9719 33.698 57.6017C34.4923 57.3419 35.0065 57.12 35.2529 57.007C35.2209 56.934 35.1864 56.8612 35.1478 56.7885ZM35.2736 57.4336L35.0291 57.6498L35.4183 58.2647C35.4072 57.8208 35.2736 57.4336 35.2736 57.4336ZM25.2508 57.4639C25.2508 57.4639 24.5836 58.0785 24.4725 58.7502C24.9395 58.1013 25.6845 57.8397 25.6845 57.8397L25.2508 57.4639ZM34.6399 58.0824C34.5732 58.2874 34.2951 58.5835 34.2951 58.5835C34.2951 58.5835 34.2953 58.6746 34.4732 58.9023C34.6511 59.1299 34.7956 59.5056 34.7956 59.5056C34.7956 59.5056 34.8622 59.1639 34.8066 58.7655C34.751 58.367 34.6399 58.0824 34.6399 58.0824ZM26.3519 58.5795C25.9294 58.773 25.5846 59.5358 25.5846 59.5358C25.9293 59.126 26.6299 58.8641 26.6299 58.8641L26.3519 58.5795ZM33.7613 58.9135C33.5723 58.9932 33.2054 59.05 33.2054 59.05C33.3388 59.1639 33.8505 59.8811 33.8505 59.8811C33.895 59.3119 33.7613 58.9135 33.7613 58.9135ZM32.427 59.1413C32.2602 59.221 31.8267 59.2665 31.8267 59.2665C32.138 59.517 32.7607 60.348 32.7607 60.348C32.7496 59.8698 32.427 59.1413 32.427 59.1413ZM30.7256 59.1752C30.7256 59.1752 30.3697 59.198 30.3364 59.2094L30.9591 59.7559C30.9591 59.7559 30.9591 59.3573 30.7256 59.1752ZM27.2082 59.2967C27.2082 59.2967 26.6408 59.7294 26.5741 60.2075C26.5741 60.2075 27.0969 59.6268 27.6418 59.5471L27.2082 59.2967Z" fill="#FEFEFE"/>
<path d="M37.0456 24.9277V38.5067C37.0456 39.8178 36.2564 40.9825 34.9386 41.0897C33.6208 41.1969 32.4999 41.2223 31.7548 41.2829C31.0098 41.3436 29.8771 41.6563 29.4207 42.7789C28.9643 41.6563 27.8317 41.3436 27.0866 41.2829C26.3415 41.2222 25.2207 41.1969 23.9029 41.0897C22.5851 40.9825 21.7959 39.8178 21.7959 38.5067V24.9277H37.0456Z" fill="#F2E847"/>
<path d="M27.8074 24.9277V32.7948L21.7988 38.5803C21.8279 39.8609 22.6101 40.9846 23.9031 41.0898L29.4209 35.7765L34.9388 41.0898C36.2318 40.9846 37.014 39.8609 37.043 38.5803L31.0345 32.7948V24.9277H27.8074Z" fill="#2E48A5" stroke="black"/>
<path d="M28.6188 38.9917C28.6188 38.9917 28.8701 38.8099 28.9815 38.5833C29.0929 38.3567 29.2846 38.2755 29.2846 38.2755C29.2846 38.2755 29.3449 38.6323 29.6567 38.7988C29.6567 38.7988 29.4727 38.914 29.4034 39.099C29.3341 39.2841 28.6188 38.9917 28.6188 38.9917ZM30.6091 39.2733C30.6091 39.2733 30.7533 39.0642 30.9519 39.0678C31.1505 39.0714 31.0989 39.189 30.9405 39.2539C30.7821 39.3188 30.6091 39.2733 30.6091 39.2733ZM32.3791 38.8566C32.3791 38.8566 32.2068 39.2684 32.1916 39.683C32.1765 40.0977 32.3699 40.4145 32.3699 40.4145C32.3699 40.4145 32.1707 40.4447 31.9408 40.3305C31.7109 40.2163 31.4258 39.9401 31.3294 39.7606C31.2331 39.581 31.3447 39.3374 31.3447 39.3374C31.3447 39.3374 31.8819 38.8899 32.3791 38.8566ZM30.7402 39.8515C30.7402 39.8515 30.9792 39.9151 31.077 40.01C30.9648 40.2287 30.7694 40.3206 30.7019 40.6637C30.7019 40.6637 30.5448 40.6524 30.3414 40.437C30.1381 40.2216 30.0152 40.1432 30.0152 40.1432L30.7402 39.8515ZM29.5159 40.3035C29.5159 40.3035 29.4769 40.6585 29.3737 40.8937C29.3737 40.8937 29.0131 40.6755 28.8947 40.3261L29.5159 40.3035Z" fill="#D3230E" stroke="black" stroke-width="0.5"/>
<path d="M26.1094 39.4565C26.3251 39.4388 26.6294 39.1548 27.2514 39.0584C27.8733 38.9619 28.5889 38.8672 29.266 38.9752C29.9431 39.0832 29.9419 39.1549 30.8298 39.2548C31.7177 39.3546 31.799 39.392 31.7948 39.6432C31.7906 39.8944 31.3371 39.7186 30.8893 39.902C30.4414 40.0853 30.3103 40.2265 29.4185 40.3659C28.5266 40.5053 27.742 40.527 27.3107 40.4235C26.8793 40.3199 26.7832 40.2189 26.5113 40.1303C26.2394 40.0417 26.0998 40.0078 25.9348 39.971C25.7699 39.9341 25.7491 39.828 25.8137 39.7911C25.8939 39.7452 25.8841 39.9057 26.1042 39.8845L26.0364 39.7857C26.1511 39.7596 26.1717 39.7668 26.2553 39.7765C26.1001 39.5748 25.9615 39.626 25.7678 39.6756C25.7458 39.5016 25.8937 39.4742 26.1094 39.4565Z" fill="#D3230E" stroke="black" stroke-width="0.5"/>
<path d="M26.2546 39.7766C26.3088 39.8505 26.3441 39.902 26.4501 39.9402C26.2877 39.8712 26.1035 39.8846 26.1035 39.8846M27.2533 40.0777C27.2533 40.0777 27.6061 39.9763 27.9263 40.0838M27.2467 40.1254C27.2467 40.1254 27.545 40.1309 27.7602 40.2126M29.0386 40.4153C29.0386 40.4153 29.1926 40.6574 29.4128 40.7931M29.2029 40.3883C29.2029 40.3883 29.3172 40.558 29.4623 40.6264M29.373 40.3674C29.373 40.3674 29.4244 40.4462 29.4883 40.4713M30.2129 40.1851C30.4248 40.3056 30.4789 40.4697 30.7273 40.5775M30.7582 40.4823C30.5841 40.3879 30.5126 40.2683 30.3543 40.1338M30.5014 40.0827C30.6208 40.2007 30.6643 40.3012 30.8184 40.3817M30.8668 40.2808C30.7653 40.1975 30.7331 40.1126 30.6254 40.0191M30.7551 39.9615C30.8304 40.0424 30.8735 40.1052 30.9504 40.1865M31.0045 40.0977C31.0045 40.0977 30.9259 40.0145 30.8416 39.9192M31.4618 39.3459C31.4618 39.3459 31.9713 38.9721 32.3455 38.9908M31.5842 39.3721C31.5842 39.3721 31.9681 39.1636 32.2723 39.175M31.7294 39.4405C31.7294 39.4405 32.0298 39.3263 32.2226 39.3477M31.7861 39.5493C31.7861 39.5493 32.0381 39.5299 32.2015 39.5568M31.7943 39.6432C31.7943 39.6432 32.0529 39.6977 32.1971 39.8261M31.7537 39.7402C31.7537 39.7402 32.0087 39.8945 32.2233 40.0121M31.6242 39.7858C31.6242 39.7858 31.9069 40.0303 32.2672 40.1864M31.4836 39.7952C31.4836 39.7952 31.7636 40.2013 32.3177 40.319M28.8468 38.9334C29.1024 38.8041 29.0919 38.6012 29.3099 38.4092M29.1078 38.9502C29.234 38.8158 29.2832 38.6846 29.3781 38.5301M29.2654 38.975C29.2654 38.975 29.3791 38.8234 29.51 38.6941M27.2354 40.0286C27.5318 39.8211 27.6193 40.0446 27.9655 39.9233C27.9413 40.1886 27.7905 40.1575 27.5942 40.3482C27.5942 40.3482 27.4391 40.2185 27.2328 40.1809C27.2328 40.1809 27.2672 40.1053 27.2354 40.0286Z" stroke="black" stroke-width="0.5"/>
<path d="M27.1358 39.9022C27.1099 40.0181 26.9929 40.1138 26.8684 40.1452C26.9305 40.0984 26.9756 40.0283 26.9882 39.9419C27.0086 39.8032 26.9525 39.632 26.7729 39.4965C26.9169 39.6556 26.9651 39.8133 26.9471 39.9359C26.9292 40.0581 26.8465 40.1453 26.7349 40.1583C26.6664 40.1562 26.5932 40.1416 26.5183 40.1113L26.5034 40.1505C26.5831 40.1827 26.6619 40.1987 26.7361 40.2007C26.9371 40.2065 27.12 40.0948 27.1745 39.9161C27.2291 39.7375 27.1806 39.6653 27.0614 39.5688C27.1661 39.6746 27.1618 39.7862 27.1358 39.9022ZM31.1464 39.6427C30.9768 39.6476 30.5375 39.6852 30.5375 39.6852C30.5375 39.6852 30.9199 39.7386 31.1464 39.6427ZM26.5563 39.8294C26.5726 39.8648 26.5553 39.9047 26.5371 39.9178C26.5189 39.9309 26.4936 39.9367 26.4582 39.9217L26.442 39.9608C26.4878 39.9802 26.531 39.9739 26.5608 39.9524C26.5907 39.9309 26.6216 39.8682 26.5826 39.7991C26.5435 39.73 26.4909 39.716 26.4205 39.7482C26.5325 39.7461 26.5399 39.7941 26.5563 39.8294Z" fill="black"/>
<path d="M26.4518 39.5723C26.4517 39.5815 26.4497 39.5905 26.4462 39.599C26.4426 39.6074 26.4374 39.615 26.431 39.6213C26.4245 39.6277 26.4169 39.6327 26.4086 39.6361C26.4002 39.6395 26.3913 39.6411 26.3824 39.6409C26.3734 39.6408 26.3646 39.6388 26.3563 39.6352C26.3481 39.6315 26.3407 39.6262 26.3344 39.6196C26.3282 39.613 26.3233 39.6052 26.32 39.5967C26.3167 39.5881 26.3151 39.579 26.3152 39.5698C26.3154 39.5607 26.3173 39.5516 26.3209 39.5432C26.3245 39.5348 26.3296 39.5272 26.3361 39.5208C26.3425 39.5144 26.3501 39.5094 26.3585 39.5061C26.3668 39.5027 26.3757 39.5011 26.3847 39.5012C26.3937 39.5014 26.4025 39.5034 26.4107 39.507C26.419 39.5107 26.4264 39.516 26.4326 39.5226C26.4389 39.5292 26.4438 39.537 26.4471 39.5455C26.4503 39.554 26.452 39.5631 26.4518 39.5723Z" fill="black"/>
<path d="M27.0626 39.291C27.0624 39.3017 27.0542 39.3118 27.0397 39.319C27.0252 39.3263 27.0057 39.3302 26.9854 39.3298C26.9651 39.3294 26.9457 39.3248 26.9315 39.317C26.9172 39.3092 26.9093 39.2989 26.9095 39.2882C26.9097 39.2776 26.9179 39.2675 26.9324 39.2602C26.9469 39.253 26.9664 39.2491 26.9867 39.2495C27.007 39.2498 27.0264 39.2544 27.0406 39.2622C27.0549 39.27 27.0628 39.2804 27.0626 39.291Z" fill="black"/>
<path d="M27.2618 39.168C27.2617 39.1787 27.2534 39.1887 27.2389 39.196C27.2245 39.2033 27.2049 39.2071 27.1846 39.2068C27.1643 39.2064 27.1449 39.2018 27.1307 39.194C27.1165 39.1862 27.1086 39.1758 27.1087 39.1652C27.1089 39.1545 27.1171 39.1444 27.1316 39.1372C27.1461 39.1299 27.1656 39.126 27.1859 39.1264C27.2062 39.1268 27.2256 39.1314 27.2399 39.1392C27.2541 39.147 27.262 39.1573 27.2618 39.168Z" fill="black"/>
<path d="M27.4845 39.2383C27.4843 39.249 27.4761 39.259 27.4616 39.2663C27.4471 39.2736 27.4276 39.2774 27.4073 39.2771C27.387 39.2767 27.3676 39.2721 27.3533 39.2643C27.3391 39.2565 27.3312 39.2461 27.3314 39.2355C27.3316 39.2248 27.3398 39.2148 27.3543 39.2075C27.3687 39.2002 27.3883 39.1963 27.4086 39.1967C27.4289 39.1971 27.4483 39.2017 27.4625 39.2095C27.4768 39.2173 27.4847 39.2276 27.4845 39.2383Z" fill="black"/>
<path d="M27.7169 39.209C27.7167 39.2197 27.7085 39.2297 27.694 39.237C27.6795 39.2443 27.66 39.2481 27.6397 39.2478C27.6194 39.2474 27.6 39.2428 27.5858 39.235C27.5715 39.2272 27.5636 39.2168 27.5638 39.2062C27.564 39.1955 27.5722 39.1855 27.5867 39.1782C27.6012 39.1709 27.6207 39.1671 27.641 39.1674C27.6613 39.1678 27.6807 39.1724 27.6949 39.1802C27.7092 39.188 27.7171 39.1984 27.7169 39.209Z" fill="black"/>
<path d="M27.8019 39.1016C27.8017 39.1122 27.7935 39.1223 27.779 39.1296C27.7645 39.1369 27.745 39.1407 27.7247 39.1404C27.7044 39.14 27.685 39.1354 27.6707 39.1276C27.6565 39.1198 27.6486 39.1094 27.6488 39.0988C27.6489 39.0881 27.6572 39.078 27.6717 39.0708C27.6861 39.0635 27.7057 39.0596 27.726 39.06C27.7463 39.0604 27.7657 39.065 27.7799 39.0728C27.7941 39.0806 27.802 39.0909 27.8019 39.1016Z" fill="black"/>
<path d="M28.0157 39.1641C28.0156 39.1747 28.0073 39.1848 27.9928 39.1921C27.9784 39.1993 27.9588 39.2032 27.9385 39.2028C27.9182 39.2025 27.8988 39.1979 27.8846 39.1901C27.8704 39.1823 27.8625 39.1719 27.8626 39.1613C27.8628 39.1506 27.871 39.1405 27.8855 39.1333C27.9 39.126 27.9195 39.1221 27.9398 39.1225C27.9601 39.1229 27.9795 39.1275 27.9938 39.1353C28.008 39.1431 28.0159 39.1534 28.0157 39.1641Z" fill="black"/>
<path d="M28.1993 39.0664C28.1992 39.0771 28.1909 39.0872 28.1764 39.0944C28.162 39.1017 28.1424 39.1056 28.1221 39.1052C28.1018 39.1048 28.0824 39.1002 28.0682 39.0924C28.0539 39.0846 28.0461 39.0743 28.0462 39.0636C28.0464 39.053 28.0546 39.0429 28.0691 39.0356C28.0836 39.0283 28.1031 39.0245 28.1234 39.0248C28.1437 39.0252 28.1631 39.0298 28.1774 39.0376C28.1916 39.0454 28.1995 39.0558 28.1993 39.0664Z" fill="black"/>
<path d="M28.3458 39.2461C28.3456 39.2568 28.3374 39.2668 28.3229 39.2741C28.3084 39.2814 28.2889 39.2853 28.2686 39.2849C28.2483 39.2845 28.2289 39.2799 28.2147 39.2721C28.2004 39.2643 28.1925 39.2539 28.1927 39.2433C28.1929 39.2326 28.2011 39.2226 28.2156 39.2153C28.2301 39.208 28.2496 39.2042 28.2699 39.2045C28.2902 39.2049 28.3096 39.2095 28.3239 39.2173C28.3381 39.2251 28.346 39.2355 28.3458 39.2461Z" fill="black"/>
<path d="M28.6446 39.1758C28.6445 39.1865 28.6362 39.1965 28.6218 39.2038C28.6073 39.2111 28.5877 39.2149 28.5674 39.2146C28.5471 39.2142 28.5277 39.2096 28.5135 39.2018C28.4993 39.194 28.4914 39.1836 28.4915 39.173C28.4917 39.1623 28.4999 39.1523 28.5144 39.145C28.5289 39.1377 28.5484 39.1338 28.5687 39.1342C28.589 39.1346 28.6084 39.1392 28.6227 39.147C28.6369 39.1548 28.6448 39.1651 28.6446 39.1758Z" fill="black"/>
<path d="M28.5226 39.0371C28.5224 39.0478 28.5142 39.0579 28.4997 39.0651C28.4852 39.0724 28.4657 39.0763 28.4454 39.0759C28.4251 39.0755 28.4057 39.0709 28.3914 39.0631C28.3772 39.0553 28.3693 39.045 28.3695 39.0343C28.3696 39.0237 28.3779 39.0136 28.3924 39.0063C28.4068 38.9991 28.4264 38.9952 28.4467 38.9956C28.467 38.9959 28.4864 39.0005 28.5006 39.0083C28.5148 39.0161 28.5227 39.0265 28.5226 39.0371Z" fill="black"/>
<path d="M28.8517 39.1621C28.8515 39.1728 28.8433 39.1829 28.8288 39.1901C28.8143 39.1974 28.7948 39.2013 28.7745 39.2009C28.7542 39.2005 28.7348 39.1959 28.7205 39.1881C28.7063 39.1803 28.6984 39.17 28.6986 39.1593C28.6987 39.1487 28.707 39.1386 28.7215 39.1313C28.7359 39.1241 28.7555 39.1202 28.7758 39.1206C28.7961 39.1209 28.8155 39.1255 28.8297 39.1333C28.8439 39.1411 28.8518 39.1515 28.8517 39.1621Z" fill="black"/>
<path d="M29.1251 39.1836C29.1249 39.1943 29.1167 39.2043 29.1022 39.2116C29.0877 39.2189 29.0682 39.2228 29.0479 39.2224C29.0276 39.222 29.0082 39.2174 28.994 39.2096C28.9797 39.2018 28.9718 39.1915 28.972 39.1808C28.9722 39.1701 28.9804 39.1601 28.9949 39.1528C29.0094 39.1455 29.0289 39.1417 29.0492 39.142C29.0695 39.1424 29.0889 39.147 29.1031 39.1548C29.1174 39.1626 29.1253 39.173 29.1251 39.1836Z" fill="black"/>
<path d="M28.9777 39.0293C28.9775 39.04 28.9692 39.05 28.9548 39.0573C28.9403 39.0646 28.9207 39.0685 28.9004 39.0681C28.8801 39.0677 28.8607 39.0631 28.8465 39.0553C28.8323 39.0475 28.8244 39.0372 28.8245 39.0265C28.8247 39.0159 28.833 39.0058 28.8474 38.9985C28.8619 38.9912 28.8814 38.9874 28.9017 38.9877C28.9221 38.9881 28.9415 38.9927 28.9557 39.0005C28.9699 39.0083 28.9778 39.0187 28.9777 39.0293Z" fill="black"/>
<path d="M29.381 39.1621C29.3808 39.1728 29.3726 39.1829 29.3581 39.1901C29.3436 39.1974 29.3241 39.2013 29.3038 39.2009C29.2835 39.2005 29.2641 39.1959 29.2498 39.1881C29.2356 39.1803 29.2277 39.17 29.2279 39.1593C29.228 39.1487 29.2363 39.1386 29.2508 39.1313C29.2652 39.1241 29.2848 39.1202 29.3051 39.1206C29.3254 39.1209 29.3448 39.1255 29.359 39.1333C29.3732 39.1411 29.3811 39.1515 29.381 39.1621Z" fill="black"/>
<path d="M29.6212 39.125C29.621 39.1357 29.6128 39.1457 29.5983 39.153C29.5838 39.1603 29.5643 39.1642 29.544 39.1638C29.5237 39.1634 29.5043 39.1588 29.4901 39.151C29.4758 39.1432 29.4679 39.1329 29.4681 39.1222C29.4683 39.1115 29.4765 39.1015 29.491 39.0942C29.5055 39.0869 29.525 39.0831 29.5453 39.0834C29.5656 39.0838 29.585 39.0884 29.5992 39.0962C29.6135 39.104 29.6214 39.1144 29.6212 39.125Z" fill="black"/>
<path d="M29.9249 39.2832C29.9247 39.2939 29.9165 39.3039 29.902 39.3112C29.8875 39.3185 29.868 39.3224 29.8477 39.322C29.8274 39.3216 29.808 39.317 29.7938 39.3092C29.7795 39.3014 29.7716 39.2911 29.7718 39.2804C29.772 39.2697 29.7802 39.2597 29.7947 39.2524C29.8092 39.2451 29.8287 39.2413 29.849 39.2416C29.8693 39.242 29.8887 39.2466 29.903 39.2544C29.9172 39.2622 29.9251 39.2726 29.9249 39.2832Z" fill="black"/>
<path d="M30.256 39.2793C30.2558 39.29 30.2476 39.3 30.2331 39.3073C30.2186 39.3146 30.1991 39.3185 30.1788 39.3181C30.1585 39.3177 30.1391 39.3131 30.1248 39.3053C30.1106 39.2975 30.1027 39.2872 30.1029 39.2765C30.103 39.2659 30.1113 39.2558 30.1257 39.2485C30.1402 39.2412 30.1598 39.2374 30.1801 39.2377C30.2004 39.2381 30.2198 39.2427 30.234 39.2505C30.2482 39.2583 30.2561 39.2687 30.256 39.2793Z" fill="black"/>
<path d="M30.8595 39.375C30.8593 39.3857 30.8511 39.3957 30.8366 39.403C30.8221 39.4103 30.8026 39.4142 30.7823 39.4138C30.762 39.4134 30.7426 39.4088 30.7283 39.401C30.7141 39.3932 30.7062 39.3829 30.7064 39.3722C30.7066 39.3615 30.7148 39.3515 30.7293 39.3442C30.7437 39.3369 30.7633 39.3331 30.7836 39.3334C30.8039 39.3338 30.8233 39.3384 30.8375 39.3462C30.8518 39.354 30.8597 39.3644 30.8595 39.375Z" fill="black"/>
<path d="M31.1398 39.4063C31.1396 39.4169 31.1314 39.427 31.1169 39.4343C31.1024 39.4415 31.0829 39.4454 31.0626 39.445C31.0422 39.4447 31.0228 39.4401 31.0086 39.4323C30.9944 39.4245 30.9865 39.4141 30.9867 39.4034C30.9868 39.3928 30.9951 39.3827 31.0095 39.3755C31.024 39.3682 31.0436 39.3643 31.0639 39.3647C31.0842 39.3651 31.1036 39.3697 31.1178 39.3775C31.132 39.3853 31.1399 39.3956 31.1398 39.4063Z" fill="black"/>
<path d="M30.5372 39.2852C30.537 39.2958 30.5288 39.3059 30.5143 39.3132C30.4999 39.3204 30.4803 39.3243 30.46 39.3239C30.4397 39.3236 30.4203 39.319 30.4061 39.3112C30.3918 39.3034 30.3839 39.293 30.3841 39.2824C30.3843 39.2717 30.3925 39.2616 30.407 39.2544C30.4215 39.2471 30.441 39.2432 30.4613 39.2436C30.4816 39.244 30.501 39.2486 30.5153 39.2564C30.5295 39.2642 30.5374 39.2745 30.5372 39.2852Z" fill="black"/>
<path d="M29.879 39.1289C29.8788 39.1396 29.8706 39.1497 29.8561 39.1569C29.8416 39.1642 29.8221 39.1681 29.8018 39.1677C29.7815 39.1673 29.7621 39.1627 29.7479 39.1549C29.7336 39.1471 29.7257 39.1368 29.7259 39.1261C29.7261 39.1155 29.7343 39.1054 29.7488 39.0981C29.7633 39.0908 29.7828 39.087 29.8031 39.0873C29.8234 39.0877 29.8428 39.0923 29.8571 39.1001C29.8713 39.1079 29.8792 39.1183 29.879 39.1289Z" fill="black"/>
<path d="M29.2433 39.0078C29.2431 39.0185 29.2349 39.0286 29.2204 39.0358C29.2059 39.0431 29.1864 39.047 29.1661 39.0466C29.1458 39.0462 29.1264 39.0416 29.1121 39.0338C29.0979 39.026 29.09 39.0157 29.0902 39.005C29.0903 38.9944 29.0986 38.9843 29.1131 38.977C29.1275 38.9698 29.1471 38.9659 29.1674 38.9663C29.1877 38.9666 29.2071 38.9712 29.2213 38.979C29.2355 38.9868 29.2434 38.9972 29.2433 39.0078Z" fill="black"/>
<path d="M21.7959 24.9277V38.5067C21.7959 39.8178 22.5851 40.9825 23.9029 41.0897C25.2207 41.1969 26.3415 41.2223 27.0866 41.2829C27.8317 41.3436 28.9643 41.6563 29.4207 42.7789C29.8771 41.6563 31.0098 41.3436 31.7548 41.2829C32.4999 41.2222 33.6208 41.1969 34.9386 41.0897C36.2564 40.9825 37.0456 39.8178 37.0456 38.5067V24.9277H21.7959Z" stroke="black" stroke-width="1.5"/>
<path d="M28.4243 8.83015C28.295 8.83472 28.1724 8.89271 28.0825 8.99185C27.9926 9.09099 27.9423 9.22351 27.9424 9.36142C27.9424 9.50232 27.9949 9.63745 28.0884 9.73708C28.1819 9.83672 28.3087 9.89268 28.4409 9.89268C28.5731 9.89268 28.6999 9.83672 28.7934 9.73708C28.8868 9.63745 28.9394 9.50232 28.9394 9.36142C28.9394 9.22051 28.8868 9.08538 28.7934 8.98575C28.6999 8.88612 28.5731 8.83015 28.4409 8.83015C28.4354 8.83005 28.4299 8.83005 28.4243 8.83015ZM28.2794 9.21631C28.2809 9.2163 28.2824 9.2163 28.2839 9.21631C28.3452 9.21638 28.4039 9.24236 28.4472 9.28856C28.4905 9.33476 28.5148 9.39738 28.5148 9.46269C28.5148 9.52799 28.4905 9.59062 28.4472 9.63682C28.4039 9.68301 28.3452 9.709 28.2839 9.70906C28.2535 9.70908 28.2235 9.70271 28.1954 9.69034C28.1674 9.67796 28.1419 9.65982 28.1204 9.63694C28.0989 9.61406 28.0819 9.5869 28.0703 9.557C28.0586 9.5271 28.0527 9.49505 28.0526 9.46269C28.0526 9.39815 28.0764 9.3362 28.1188 9.29013C28.1612 9.24406 28.2188 9.21755 28.2794 9.21631Z" fill="#D3230E"/>
<path d="M27.9687 8.76563C27.9687 8.76563 27.3466 9.22435 27.7328 9.86041C28.0945 10.4561 29.0538 10.1663 29.2425 9.63502L29.9187 9.61892L29.4784 9.47402L29.903 9.28082L29.2425 9.16813C29.2425 9.16813 29.557 8.95883 29.5256 8.95883H29.0695C29.0695 8.95883 28.9595 8.83003 28.8337 8.81393C28.8337 8.81393 29.2268 9.31302 29.0224 9.68332C28.8179 10.0536 28.2046 10.118 27.9687 9.79601C27.7194 9.45573 27.8744 9.07153 27.8744 9.07153L27.9373 9.23252L28.2675 9.21642C28.2675 9.21642 28.1574 9.11982 28.0474 9.07153C27.9373 9.02323 27.9058 8.97493 27.9687 8.76563Z" fill="white"/>
</svg>
