<svg width="60" height="60" viewBox="0 0 60 60" fill="none" xmlns="http://www.w3.org/2000/svg">
<path fill-rule="evenodd" clip-rule="evenodd" d="M53.8112 37.6077C50.5921 47.6972 41.1433 55 29.9884 55C18.8336 55 8.63594 47.0951 5.81828 36.3803C31.9029 45.9835 34.4581 30.2586 53.8189 37.6M54.8765 29.1393H54.8456C54.8456 29.1393 54.9151 29.1547 54.8765 29.1393ZM54.9846 29.201C54.9923 29.4635 55 29.726 55 29.9884C55 30.6832 54.9691 31.3625 54.9151 32.0418C43.9069 28.0817 37.8238 30.6909 31.6018 33.3619C30.3744 33.8868 29.2165 34.35 28.1203 34.7514C21.4891 37.1677 17.004 37.2526 10.8824 35.3381C10.4346 35.1683 9.98688 34.9985 9.5237 34.8055C9.98688 34.9985 10.4423 35.1683 10.8824 35.3381C9.15316 34.7977 7.28501 34.0953 5.20843 33.2461C5.06948 32.1808 5 31.0923 5 29.9884C5 29.0543 5.05404 28.128 5.15439 27.2171C24.3222 34.2883 30.8067 27.688 40.5489 26.5841C42.1545 26.3988 43.8451 26.3679 45.6979 26.5686C48.3534 26.8543 51.3332 27.6262 54.8533 29.1238L54.9846 29.1933V29.201ZM52.8617 19.868C53.2785 20.8098 53.6413 21.7825 53.9424 22.786C43.1581 19.0111 37.1368 21.5895 30.9765 24.2296C28.514 25.2872 26.3525 26.0823 24.3531 26.6304C19.8603 27.8578 16.2166 27.8269 11.8473 26.669C9.94056 26.1672 7.90258 25.4416 5.59441 24.5229C5.98811 22.7551 6.56708 21.0568 7.31589 19.4589C22.925 24.3608 29.4635 19.5746 37.7003 18.0384C40.3636 17.5444 43.2121 17.39 46.6011 18.0153C48.5001 18.3627 50.5612 18.9571 52.8617 19.868ZM29.9961 5C37.021 5 43.3665 7.90258 47.9134 12.5652C40.1706 11.0599 35.1451 13.2137 30.027 15.4061C27.1013 16.6644 24.6001 17.5521 22.292 18.0925C18.6715 18.9416 15.545 18.9185 12.0094 18.1234C10.9055 17.8763 9.76301 17.5444 8.55103 17.143C12.9203 9.87108 20.887 5 29.9961 5Z" fill="#0A4881"/>
</svg>
