<svg width="210" height="69" viewBox="0 0 210 69" fill="none" xmlns="http://www.w3.org/2000/svg">
<mask id="mask0_1268_155760" style="mask-type:alpha" maskUnits="userSpaceOnUse" x="0" y="0" width="210" height="69">
<rect width="210" height="69" fill="#D9D9D9"/>
</mask>
<g mask="url(#mask0_1268_155760)">
<path fill-rule="evenodd" clip-rule="evenodd" d="M90.8469 32.33H91.8144C93.5127 32.33 94.9047 33.722 94.9047 35.4203C94.9047 37.1186 93.5127 38.5106 91.8144 38.5106H89.3783C89.2739 38.5106 89.1764 38.5106 89.079 38.4967H85.5432V40.369H96.3803V30.583H81.207C79.5087 30.583 78.1167 29.1909 78.1167 27.4927C78.1167 25.7944 79.5087 24.4023 81.207 24.4023H99.6307C102.679 24.82 104.489 26.4834 104.816 29.6642V46.5635H82.8705C79.3277 46.1111 77.4276 44.1553 77.1074 41.1555V37.7519C77.5807 34.4667 79.5435 32.7058 82.8705 32.316H90.8469V32.33Z" fill="#0A4881"/>
<path fill-rule="evenodd" clip-rule="evenodd" d="M114.943 53.4193V54.0109C114.943 56.2521 113.105 58.0895 110.864 58.0895C108.623 58.0895 106.785 56.2521 106.785 54.0109V24.4023H129.642C132.434 24.82 134.174 26.393 134.368 29.6642V41.1555C134.125 44.2249 132.635 46.1041 129.642 46.5635H114.943V53.4193ZM123.942 30.5899C125.042 30.5899 125.933 31.4878 125.933 32.5805V38.3784C125.933 39.4711 125.035 40.369 123.942 40.369H116.933C115.833 40.369 114.943 39.4711 114.943 38.3784V32.5805C114.943 31.4878 115.84 30.5899 116.933 30.5899H123.942Z" fill="#0A4881"/>
<path fill-rule="evenodd" clip-rule="evenodd" d="M62.8048 30.5899C61.7886 30.5899 60.9534 31.4252 60.9534 32.4413V38.5315C60.9534 39.5477 61.7886 40.3829 62.8048 40.3829H73.1685C74.8668 40.3898 76.2589 41.7819 76.2589 43.4871C76.2589 45.1924 74.8668 46.5774 73.1685 46.5774H70.7325C70.6489 46.5774 70.5654 46.5774 70.4819 46.5635H57.8282C54.4734 46.0972 52.9074 44.1275 52.5176 41.1555V29.6642C52.8447 26.2677 54.7031 24.6111 57.8282 24.4023H73.1685C74.8668 24.4023 76.2589 25.7944 76.2589 27.4927C76.2589 29.1909 74.8668 30.583 73.1685 30.583H62.8048V30.5899Z" fill="#0A4881"/>
<path fill-rule="evenodd" clip-rule="evenodd" d="M179.57 32.33H180.537C182.235 32.33 183.627 33.722 183.627 35.4203C183.627 37.1186 182.235 38.5106 180.537 38.5106H178.101C177.997 38.5106 177.899 38.5106 177.802 38.4967H174.266V40.369H185.103V30.583H169.93C168.231 30.583 166.839 29.1909 166.839 27.4927C166.839 25.7944 168.231 24.4023 169.93 24.4023H188.353C191.402 24.82 193.212 26.4834 193.539 29.6642V46.5635H171.593C168.05 46.1111 166.15 44.1553 165.83 41.1555V37.7519C166.303 34.4667 168.266 32.7058 171.593 32.316H179.57V32.33Z" fill="#0A4881"/>
<path fill-rule="evenodd" clip-rule="evenodd" d="M136.303 24.4004C145.678 24.4004 143.541 23.5025 150.14 30.1077C156.905 23.593 154.803 24.4004 164.192 24.4004V46.5546H156.035V33.7131H156L150.14 39.2256L144.46 33.734V46.5546H136.303V24.4004Z" fill="#0A4881"/>
<path fill-rule="evenodd" clip-rule="evenodd" d="M177.877 22.1182L181.148 15.6035H190.384L182.916 22.1182H177.877Z" fill="#0A4881"/>
<path fill-rule="evenodd" clip-rule="evenodd" d="M46.0094 42.3099C43.107 51.4068 34.5877 57.9911 24.5302 57.9911C14.4727 57.9911 5.27826 50.8639 2.73778 41.2032C26.2563 49.8617 28.5602 35.6838 46.0164 42.3029M46.9699 34.6746H46.9421C46.9421 34.6746 47.0047 34.6885 46.9699 34.6746ZM47.0674 34.7303C47.0743 34.9669 47.0813 35.2036 47.0813 35.4402C47.0813 36.0666 47.0535 36.6791 47.0047 37.2916C37.0795 33.721 31.5948 36.0736 25.9849 38.4818C24.8782 38.9551 23.8342 39.3727 22.8458 39.7346C16.867 41.9132 12.8231 41.9897 7.30368 40.2636C6.89999 40.1105 6.4963 39.9574 6.07869 39.7833C6.4963 39.9574 6.90695 40.1105 7.30368 40.2636C5.74459 39.7764 4.06022 39.143 2.18793 38.3774C2.06264 37.4169 2 36.4355 2 35.4402C2 34.598 2.04872 33.7628 2.1392 32.9415C19.4214 39.317 25.268 33.3661 34.0518 32.3708C35.4995 32.2037 37.0238 32.1759 38.6942 32.3569C41.0886 32.6144 43.7752 33.3104 46.9491 34.6607L47.0674 34.7233V34.7303ZM45.1533 26.3154C45.5292 27.1646 45.8563 28.0416 46.1278 28.9464C36.4043 25.5429 30.9754 27.8675 25.4211 30.2479C23.2008 31.2015 21.252 31.9184 19.4493 32.4125C15.3984 33.5192 12.1132 33.4914 8.17371 32.4473C6.45454 31.9949 4.61704 31.3407 2.53594 30.5124C2.89091 28.9185 3.41292 27.3873 4.08806 25.9465C18.1616 30.3662 24.0569 26.0509 31.4835 24.6659C33.8847 24.2204 36.4531 24.0812 39.5086 24.645C41.2208 24.9582 43.0792 25.4941 45.1533 26.3154ZM24.5372 12.9102C30.871 12.9102 36.5923 15.5272 40.6918 19.7311C33.7107 18.3739 29.1796 20.3158 24.565 22.2925C21.9271 23.427 19.672 24.2274 17.5909 24.7146C14.3265 25.4802 11.5077 25.4593 8.31987 24.7424C7.32456 24.5197 6.29445 24.2204 5.2017 23.8585C9.14118 17.302 16.3241 12.9102 24.5372 12.9102Z" fill="#0A4881"/>
<path d="M189.349 51.1637H190.817V52.681H191.91C192.467 52.681 192.871 52.7993 193.135 53.029C193.4 53.2656 193.532 53.6415 193.532 54.1635C193.532 54.6855 193.407 55.0753 193.149 55.305C192.892 55.5277 192.481 55.639 191.91 55.639H189.349V51.1567V51.1637ZM190.817 53.7041V54.6159H191.569C191.764 54.6159 191.903 54.5811 191.987 54.5115C192.07 54.4419 192.112 54.3236 192.112 54.1635C192.112 53.9964 192.07 53.8781 191.994 53.8085C191.917 53.7389 191.778 53.7041 191.576 53.7041H190.824H190.817ZM184.456 51.1637H188.361V55.646H186.892V52.2425H185.834V53.6832C185.834 54.421 185.688 54.943 185.395 55.2493C185.103 55.5486 184.693 55.7017 184.164 55.7017C183.927 55.7017 183.711 55.6878 183.53 55.6669V54.6089C183.628 54.6229 183.725 54.6229 183.829 54.6229C184.073 54.6229 184.24 54.5393 184.324 54.3793C184.407 54.2192 184.449 53.9756 184.449 53.6624V51.1706L184.456 51.1637ZM181.741 54.1496H183.182C183.182 54.769 182.98 55.2006 182.577 55.4302C182.396 55.5277 182.18 55.5973 181.922 55.639C181.665 55.6808 181.359 55.6947 180.997 55.6947C180.412 55.6947 179.96 55.6182 179.646 55.472C179.333 55.3258 179.11 55.0892 178.985 54.7621C178.86 54.4349 178.797 53.9825 178.797 53.4048C178.797 52.8271 178.853 52.3469 178.971 52.0198C179.09 51.6926 179.305 51.4629 179.618 51.3168C179.932 51.1776 180.391 51.108 180.99 51.108C181.588 51.108 182.006 51.1706 182.312 51.3029C182.625 51.4351 182.841 51.6578 182.973 51.985C183.106 52.3121 183.168 52.7854 183.168 53.3979V53.6484H180.259C180.259 53.8503 180.266 54.0173 180.287 54.1426C180.308 54.2749 180.342 54.3723 180.398 54.4489C180.447 54.5254 180.523 54.5811 180.614 54.6159C180.704 54.6507 180.83 54.6646 180.983 54.6646C181.247 54.6646 181.435 54.6298 181.553 54.5672C181.672 54.5045 181.727 54.3584 181.727 54.1426L181.741 54.1496ZM180.273 52.848H181.714C181.714 52.5418 181.658 52.3469 181.553 52.2634C181.442 52.1798 181.254 52.1381 180.976 52.1381C180.795 52.1381 180.656 52.159 180.558 52.1938C180.468 52.2286 180.398 52.2982 180.349 52.3956C180.308 52.493 180.28 52.6462 180.273 52.848ZM176.097 52.4026C175.881 52.4026 175.714 52.4304 175.602 52.4861C175.491 52.5418 175.415 52.6392 175.373 52.7854C175.331 52.9315 175.31 53.1334 175.31 53.4048C175.31 53.7528 175.324 54.0034 175.359 54.1565C175.394 54.3096 175.456 54.421 175.561 54.4767C175.665 54.5324 175.839 54.5672 176.076 54.5672C176.257 54.5672 176.389 54.5533 176.486 54.5185C176.584 54.4906 176.653 54.428 176.695 54.3445C176.744 54.2609 176.772 54.1496 176.786 54.0173C176.8 53.8781 176.8 53.6763 176.8 53.4048C176.8 53.1195 176.786 52.9037 176.751 52.7645C176.716 52.6322 176.66 52.5348 176.563 52.4791C176.466 52.4234 176.312 52.3956 176.097 52.3956V52.4026ZM175.15 52.0754C175.206 51.8388 175.338 51.6439 175.547 51.4977C175.756 51.3516 175.999 51.275 176.278 51.275C176.786 51.275 177.175 51.3377 177.461 51.456C177.746 51.5743 177.948 51.7901 178.073 52.0963C178.199 52.4026 178.261 52.8411 178.261 53.4118C178.261 53.8712 178.226 54.254 178.164 54.5393C178.101 54.8317 177.983 55.0613 177.83 55.2284C177.67 55.3954 177.454 55.5138 177.168 55.5903C176.89 55.6599 176.521 55.7017 176.069 55.7017C175.456 55.7017 174.99 55.6251 174.67 55.472C174.35 55.3189 174.134 55.0683 174.009 54.7203C173.89 54.3723 173.828 53.8712 173.828 53.2308V52.4095C173.828 51.7762 173.897 51.2541 174.043 50.8504C174.19 50.4468 174.419 50.1475 174.746 49.9526C175.067 49.7577 175.491 49.6603 176.013 49.6603C176.298 49.6603 176.507 49.6603 176.626 49.6463C176.744 49.6394 176.827 49.6115 176.883 49.5628C176.939 49.5211 176.96 49.4375 176.96 49.3262H178.018C178.018 49.6533 177.955 49.9247 177.816 50.1196C177.684 50.3215 177.482 50.4607 177.217 50.5512C176.953 50.6347 176.619 50.6834 176.208 50.6834C175.937 50.6834 175.721 50.7182 175.561 50.7878C175.401 50.8574 175.282 50.9827 175.206 51.1706C175.129 51.3585 175.087 51.623 175.087 51.971V52.0824H175.143L175.15 52.0754ZM171.844 54.1496H173.285C173.285 54.769 173.083 55.2006 172.679 55.4302C172.498 55.5277 172.282 55.5973 172.025 55.639C171.767 55.6808 171.461 55.6947 171.099 55.6947C170.515 55.6947 170.062 55.6182 169.749 55.472C169.436 55.3258 169.213 55.0892 169.088 54.7621C168.962 54.4349 168.9 53.9825 168.9 53.4048C168.9 52.8271 168.955 52.3469 169.074 52.0198C169.192 51.6926 169.408 51.4629 169.721 51.3168C170.034 51.1776 170.494 51.108 171.092 51.108C171.691 51.108 172.108 51.1706 172.415 51.3029C172.728 51.4351 172.944 51.6578 173.076 51.985C173.208 52.3121 173.271 52.7854 173.271 53.3979V53.6484H170.361C170.361 53.8503 170.368 54.0173 170.389 54.1426C170.41 54.2749 170.445 54.3723 170.501 54.4489C170.549 54.5254 170.626 54.5811 170.716 54.6159C170.807 54.6507 170.932 54.6646 171.085 54.6646C171.35 54.6646 171.538 54.6298 171.656 54.5672C171.774 54.5045 171.83 54.3584 171.83 54.1426L171.844 54.1496ZM170.375 52.848H171.816C171.816 52.5418 171.76 52.3469 171.656 52.2634C171.552 52.1798 171.357 52.1381 171.078 52.1381C170.897 52.1381 170.758 52.159 170.661 52.1938C170.57 52.2286 170.494 52.2982 170.452 52.3956C170.41 52.493 170.382 52.6462 170.375 52.848ZM164.738 55.646H165.9L166.819 52.319H166.86V55.646H168.176V51.1637H166.032L165.35 53.9129H165.28L164.598 51.1637H162.455V55.646H163.77V52.319H163.812L164.731 55.646H164.738ZM155.355 51.1637V55.646H153.887V51.1637H155.355ZM149.056 51.1637H150.525V52.681H151.618C152.174 52.681 152.578 52.7993 152.843 53.029C153.107 53.2656 153.239 53.6415 153.239 54.1635C153.239 54.6855 153.114 55.0753 152.856 55.305C152.599 55.5277 152.188 55.639 151.618 55.639H149.056V51.1567V51.1637ZM150.525 53.7041V54.6159H151.276C151.471 54.6159 151.611 54.5811 151.694 54.5115C151.778 54.4419 151.819 54.3236 151.819 54.1635C151.819 53.9964 151.778 53.8781 151.701 53.8085C151.625 53.7389 151.485 53.7041 151.283 53.7041H150.532H150.525ZM146.912 53.8503H148.381C148.381 54.2609 148.339 54.5811 148.249 54.8177C148.165 55.0544 148.033 55.2354 147.852 55.3606C147.685 55.4859 147.476 55.5694 147.219 55.6182C146.961 55.6669 146.627 55.6947 146.209 55.6947C145.792 55.6947 145.416 55.6599 145.138 55.5834C144.859 55.5068 144.643 55.3815 144.49 55.2145C144.337 55.0405 144.226 54.8108 144.163 54.5254C144.101 54.24 144.073 53.8712 144.073 53.4048C144.073 52.9872 144.101 52.6462 144.156 52.3678C144.212 52.0963 144.316 51.8597 144.462 51.6717C144.609 51.4838 144.824 51.3446 145.11 51.2472C145.388 51.1497 145.757 51.108 146.209 51.108C146.704 51.108 147.1 51.1497 147.4 51.2263C147.706 51.3029 147.943 51.4699 148.117 51.7205C148.291 51.971 148.374 52.3469 148.374 52.8411H146.905C146.905 52.5905 146.864 52.4374 146.787 52.3608C146.697 52.2773 146.502 52.2355 146.209 52.2355C146.022 52.2355 145.882 52.2634 145.792 52.319C145.701 52.3747 145.632 52.4861 145.59 52.6462C145.548 52.8063 145.527 53.0638 145.527 53.4048C145.527 53.7668 145.541 54.0243 145.583 54.1844C145.618 54.3445 145.68 54.4419 145.771 54.4976C145.861 54.5463 146.008 54.5741 146.203 54.5741C146.418 54.5741 146.578 54.5533 146.676 54.5115C146.773 54.4697 146.836 54.4001 146.864 54.3096C146.892 54.2192 146.905 54.066 146.905 53.8572L146.912 53.8503ZM141.873 54.1983C141.873 54.0243 141.811 53.9129 141.678 53.8642C141.553 53.8155 141.351 53.7876 141.073 53.7876C140.864 53.7876 140.704 53.8224 140.593 53.8781C140.481 53.9408 140.426 54.066 140.426 54.254C140.426 54.4628 140.488 54.602 140.613 54.6577C140.739 54.7133 140.892 54.7412 141.073 54.7412C141.289 54.7412 141.456 54.7273 141.567 54.6994C141.678 54.6716 141.755 54.6229 141.804 54.5463C141.852 54.4697 141.873 54.3514 141.873 54.1983ZM141.922 54.9778H141.873C141.79 55.4581 141.358 55.6947 140.586 55.6947C140.217 55.6947 139.917 55.6599 139.688 55.5764C139.458 55.4998 139.277 55.3606 139.152 55.1588C139.027 54.9569 138.964 54.6716 138.964 54.3027C138.964 53.7876 139.096 53.4257 139.361 53.2099C139.625 53.0011 140.036 52.8898 140.586 52.8898C140.906 52.8898 141.17 52.9176 141.379 52.9733C141.595 53.029 141.734 53.1682 141.804 53.3909H141.873V52.681C141.873 52.4304 141.838 52.2564 141.762 52.152C141.685 52.0476 141.504 51.9989 141.212 51.9989C141.01 51.9989 140.857 52.0337 140.76 52.1033C140.662 52.1729 140.613 52.2982 140.613 52.4861H139.145C139.145 52.0546 139.235 51.7413 139.423 51.5395C139.611 51.3377 139.834 51.2124 140.105 51.1706C140.377 51.1219 140.746 51.101 141.205 51.101C141.755 51.101 142.173 51.1428 142.472 51.2193C142.764 51.2959 142.987 51.4629 143.126 51.7065C143.265 51.9502 143.342 52.326 143.342 52.8341V55.6321H141.873L141.922 54.9639V54.9778ZM135.275 54.9709V57.5809H133.806V51.1637H135.275L135.24 51.8736H135.31C135.393 51.5882 135.539 51.3933 135.748 51.282C135.957 51.1706 136.242 51.1149 136.59 51.1149C137.154 51.1149 137.572 51.2472 137.857 51.5047C138.143 51.7622 138.289 52.1798 138.289 52.7575V53.7807C138.289 54.24 138.233 54.6089 138.122 54.8873C138.01 55.1658 137.829 55.3676 137.579 55.4998C137.328 55.6321 137.001 55.6947 136.59 55.6947C136.284 55.6947 136.027 55.646 135.818 55.5486C135.609 55.4442 135.456 55.2562 135.345 54.9709H135.275ZM135.275 53.4118C135.275 53.6972 135.289 53.9199 135.317 54.073C135.345 54.2331 135.414 54.3514 135.519 54.4419C135.623 54.5254 135.783 54.5741 136.006 54.5741C136.229 54.5741 136.389 54.5463 136.5 54.4906C136.611 54.4349 136.695 54.3236 136.744 54.1635C136.792 53.9964 136.82 53.7459 136.82 53.4187C136.82 53.0916 136.799 52.8411 136.757 52.681C136.716 52.5209 136.639 52.4095 136.528 52.3469C136.416 52.2842 136.242 52.2494 136.006 52.2494C135.797 52.2494 135.637 52.2773 135.532 52.3469C135.428 52.4095 135.358 52.5209 135.324 52.681C135.289 52.8411 135.268 53.0847 135.268 53.4187L135.275 53.4118ZM133.34 51.1706V52.2425H132.164V55.646H130.695V52.2425H129.519V51.1706H133.34ZM127.584 54.2052C127.584 54.0312 127.521 53.9199 127.389 53.8712C127.264 53.8224 127.062 53.7946 126.783 53.7946C126.575 53.7946 126.415 53.8294 126.303 53.8851C126.192 53.9477 126.136 54.073 126.136 54.2609C126.136 54.4697 126.199 54.6089 126.324 54.6646C126.449 54.7203 126.603 54.7481 126.783 54.7481C126.999 54.7481 127.166 54.7342 127.278 54.7064C127.389 54.6785 127.466 54.6298 127.514 54.5533C127.563 54.4767 127.584 54.3584 127.584 54.2052ZM127.633 54.9848H127.584C127.5 55.465 127.069 55.7017 126.296 55.7017C125.927 55.7017 125.628 55.6669 125.398 55.5834C125.169 55.5068 124.988 55.3676 124.862 55.1657C124.737 54.9639 124.675 54.6785 124.675 54.3096C124.675 53.7946 124.807 53.4327 125.071 53.2169C125.336 53.0081 125.746 52.8967 126.296 52.8967C126.616 52.8967 126.881 52.9246 127.09 52.9803C127.306 53.0359 127.445 53.1751 127.514 53.3979H127.584V52.6879C127.584 52.4374 127.549 52.2634 127.473 52.159C127.396 52.0546 127.215 52.0058 126.923 52.0058C126.721 52.0058 126.568 52.0406 126.47 52.1102C126.373 52.1798 126.324 52.3051 126.324 52.493H124.856C124.856 52.0615 124.946 51.7483 125.134 51.5465C125.322 51.3446 125.545 51.2193 125.816 51.1776C126.087 51.1289 126.456 51.108 126.916 51.108C127.466 51.108 127.883 51.1497 128.183 51.2263C128.475 51.3029 128.698 51.4699 128.837 51.7135C128.976 51.9571 129.053 52.333 129.053 52.8411V55.639H127.584L127.633 54.9709V54.9848ZM120.408 55.653H121.57L122.489 52.326H122.531V55.653H123.846V51.1706H121.703L121.02 53.9199H120.951L120.269 51.1706H118.125V55.653H119.44V52.326H119.482L120.401 55.653H120.408Z" fill="#0A4881"/>
<path fill-rule="evenodd" clip-rule="evenodd" d="M158.862 52.1797C159.537 52.1797 160.087 52.7295 160.087 53.4047C160.087 54.0798 159.537 54.6297 158.862 54.6297C158.187 54.6297 157.637 54.0798 157.637 53.4047C157.637 52.7295 158.187 52.1797 158.862 52.1797Z" fill="#0A4881"/>
<path fill-rule="evenodd" clip-rule="evenodd" d="M200.372 21.1512C202.781 21.1512 204.729 23.1 204.729 25.5082C204.729 27.9164 202.781 29.8653 200.372 29.8653C197.964 29.8653 196.015 27.9164 196.015 25.5082C196.015 23.1 197.964 21.1512 200.372 21.1512ZM199.551 25.202H200.595C200.769 25.202 200.901 25.1811 200.978 25.1324C201.055 25.0837 201.103 25.0141 201.124 24.9096C201.145 24.8052 201.152 24.6452 201.152 24.4155C201.152 24.1858 201.117 24.0327 201.041 23.9561C200.964 23.8795 200.818 23.8378 200.595 23.8378H199.551V25.202ZM200.595 26.3713H199.551V27.7076C199.53 28.0626 199.238 28.348 198.876 28.348C198.514 28.348 198.222 28.0626 198.201 27.7076V22.6615H200.797C201.215 22.6615 201.549 22.7102 201.792 22.7938C202.036 22.8773 202.224 23.0234 202.349 23.2462C202.474 23.4619 202.537 23.7821 202.537 24.1858C202.537 24.5338 202.523 24.7983 202.495 24.9723C202.467 25.1463 202.384 25.3064 202.245 25.4386C202.105 25.5709 201.89 25.6683 201.583 25.7449V25.8006C201.869 25.8075 202.092 25.891 202.252 26.0442C202.412 26.1973 202.495 26.413 202.495 26.6984V27.7146C202.474 28.0696 202.182 28.3549 201.827 28.3549C201.472 28.3549 201.173 28.0696 201.159 27.7146V27.0047C201.159 26.5801 200.978 26.3713 200.609 26.3713H200.595ZM200.372 19.8496C203.498 19.8496 206.024 22.3831 206.024 25.5013C206.024 28.6194 203.491 31.1529 200.372 31.1529C197.254 31.1529 194.721 28.6194 194.721 25.5013C194.721 22.3831 197.254 19.8496 200.372 19.8496Z" fill="#0A4881"/>
</g>
</svg>
