<svg width="158" height="69" viewBox="0 0 158 69" fill="none" xmlns="http://www.w3.org/2000/svg">
<path d="M43.5182 0L46.9479 0.353015C53.6484 1.90319 55.0112 8.11924 51.6307 13.4528C48.9391 17.6428 43.2986 21.8022 38.0518 20.6051C35.619 20.05 34.6978 18.4947 35.2884 15.9392C35.9622 13.0307 40.5352 13.4489 39.4298 16.6874C39.4125 16.7395 39.4131 16.796 39.4317 16.8476C39.4503 16.8992 39.4857 16.9428 39.532 16.9714C42.4885 18.7633 46.4369 14.7497 47.7013 12.2211C49.3796 8.71398 48.5619 6.2314 45.2482 4.77331L43.5031 4.24764L43.5182 0Z" fill="#EB4E0C"/>
<path d="M43.5031 4.24764L43.5182 0C41.4965 0.13712 37.8647 1.23408 34.9836 1.64544C32.1026 2.05681 34.9835 4.24764 34.9836 5.3477C37.2417 4.80578 42.107 3.8271 43.5031 4.24764Z" fill="#EB4E0C"/>
<path d="M35.0574 1.73458L35.0536 5.29154C30.7204 7.03357 26.8528 9.43813 23.4508 12.5052C19.9189 15.69 16.8942 21.718 24.0754 23.3756C29.4358 24.6163 34.7949 25.8595 40.1528 27.1053C44.2033 28.0454 47.4816 29.9255 47.8034 34.5952C48.4583 44.0267 38.7521 49.5866 31.128 51.6663C26.2294 53.0553 21.2893 53.6539 16.3074 53.4621C11.2121 53.2626 3.20557 51.7201 0.635161 46.494C-1.70811 41.7322 2.84215 36.5368 7.59305 36.8821C7.71419 36.8923 7.82018 36.9384 7.91104 37.0202C10.0726 38.9465 4.75765 40.4621 5.33684 43.4665C6.20373 47.9252 11.1326 49.4869 15.1377 49.8591C21.4596 50.45 27.6011 49.6621 33.5621 47.4954C37.6354 46.0182 43.2759 42.4996 43.7907 37.7646C44.1314 34.6182 42.0834 32.7765 39.2404 32.0589C30.526 29.8539 24.9108 28.4559 22.3946 27.865C15.1793 26.1729 14.6229 18.8441 18.1169 13.4645C19.5151 11.4513 21.1719 9.65428 23.0874 8.07341L27.8648 4.67761L32.593 2.37153C33.5293 1.93922 34.3507 1.7269 35.0574 1.73458Z" fill="#EB4E0C"/>
<path d="M72.7878 13.4377C73.0705 13.9519 73.1815 14.4929 73.121 15.0608C73.1058 15.2066 73.0516 15.3345 72.9582 15.4445L70.384 18.541C70.2805 18.6638 70.3083 18.7175 70.4673 18.7022C74.5229 18.3236 78.5621 17.9233 82.5849 17.5012C83.4139 17.4129 84.0613 17.9041 83.9061 18.802C83.5957 20.59 82.2518 21.1196 80.5218 21.3881C75.9917 22.0942 71.449 22.7657 66.8937 23.4026C66.7726 23.4205 66.6754 23.4806 66.6022 23.583C63.1233 28.4292 55.1016 38.559 55.6468 42.8911C55.655 42.9502 55.6755 43.007 55.7068 43.0579C55.738 43.1088 55.7795 43.1526 55.8285 43.1865C58.9705 45.3238 68.813 34.3881 70.8799 32.2816C71.7733 31.3709 72.6011 31.4502 73.3633 32.5195C73.4465 32.6371 73.5273 32.6333 73.6055 32.508C74.7336 30.6662 77.1943 27.7462 79.5716 27.7155C79.7063 27.713 79.8385 27.7577 79.9464 27.8421C81.13 28.7553 81.2776 29.8284 80.3893 31.0614C80.2732 31.2226 80.3136 31.2852 80.5104 31.2494C81.9843 30.968 83.4013 30.505 84.7616 29.8604C84.8863 29.8035 85.0262 29.7939 85.1553 29.8335C86.561 30.2812 87.0191 31.2532 86.5295 32.7497C86.4974 32.8499 86.437 32.9391 86.3553 33.0068C84.8714 34.2884 83.7597 35.8475 83.0203 37.6842C82.9893 37.7616 82.9794 37.846 82.9914 37.9286C83.0035 38.0112 83.0372 38.089 83.0889 38.154C83.1407 38.219 83.2086 38.2687 83.2858 38.2981C83.3629 38.3275 83.4463 38.3354 83.5275 38.3211C86.1345 37.8581 88.5661 36.9168 90.8223 35.497C90.9315 35.4267 91.0203 35.3288 91.0797 35.2131C92.594 32.1972 94.6243 29.6174 97.1707 27.4737C98.3897 26.6795 99.8017 25.9888 100.983 27.0747C101.079 27.1617 101.188 27.1923 101.312 27.1668C106.139 26.1308 103.913 32.4504 102.758 34.1963C102.445 34.667 102.559 34.8281 103.099 34.6797C107.698 33.3943 111.386 30.2978 114.978 27.1054C115.822 26.3533 117.265 26.1768 117.878 27.3241C118.525 28.5366 117.583 30.3439 116.791 31.3377C116.751 31.3863 116.743 31.4272 116.769 31.4604C116.779 31.4707 116.791 31.4784 116.807 31.4835C116.827 31.4911 116.851 31.4835 116.878 31.4604L119.536 29.1275C120.992 27.8408 122.461 26.5835 123.942 25.3557C125.85 23.7748 128.099 25.0986 126.925 27.4545C126.151 29.0124 125.555 30.6137 125.139 32.2586C125.124 32.3165 125.126 32.3773 125.143 32.4344C125.16 32.4916 125.191 32.543 125.234 32.5832C125.278 32.6233 125.331 32.6508 125.388 32.6625C125.445 32.6743 125.504 32.6699 125.559 32.6499C127.527 31.9362 129.397 31.0179 131.169 29.8949C131.275 29.8284 131.342 29.7338 131.37 29.611C132.388 24.9451 137.548 21.3805 141.731 19.4044C143.93 18.3684 147.216 17.1137 148.499 19.8802C149.484 21.9982 146.75 24.2775 145.198 25.1139C145.085 25.1753 145.048 25.2674 145.089 25.3902C145.376 26.219 145.323 26.9647 144.93 27.6272C143.547 29.9678 142.176 32.2995 140.818 34.6222C140.809 34.6386 140.804 34.6576 140.805 34.6767C140.806 34.6958 140.813 34.7142 140.824 34.7295C140.835 34.7448 140.851 34.7562 140.869 34.7624C140.887 34.7686 140.906 34.7692 140.924 34.7642C145.962 33.4596 151.028 32.7037 156.123 32.4965C156.606 32.476 157.101 32.7881 157.611 33.4327C158.777 35.6428 157.13 36.9091 155.154 37.1163C149.552 37.711 143.756 38.1983 138.305 39.5528C138.221 39.5736 138.142 39.6111 138.072 39.6631C138.003 39.7151 137.944 39.7807 137.9 39.856L131.108 51.4938C128.143 56.5868 125.058 61.1056 121.853 65.0501C120.778 66.3778 119.021 68.043 117.442 68.657C114.357 69.8541 112.025 67.7783 111.813 64.6472C110.916 51.4631 125.665 40.2243 136.351 36.2721C136.455 36.2338 136.533 36.1647 136.586 36.0649L138.168 33.0452C138.28 32.8354 138.228 32.7791 138.013 32.8763C135.871 33.8701 133.921 34.7028 132.006 33.0452C131.91 32.9633 131.809 32.9556 131.703 33.0221C129.091 34.6529 119.184 40.8382 120.728 31.9746C120.766 31.7572 120.703 31.7214 120.539 31.8672C118.253 33.8855 115.913 36.2261 113.331 37.8185C110.871 39.3379 109.239 37.1969 110.292 34.7718C110.382 34.557 110.334 34.5186 110.148 34.6567C107.634 36.4717 103.655 38.5936 100.551 37.7456C100.425 37.7098 100.315 37.7392 100.222 37.8338C98.3594 39.7523 96.6635 41.3562 94.0401 42.0508C91.9921 42.5918 90.1863 42.162 89.9365 39.7408C89.9323 39.7016 89.9188 39.664 89.897 39.6313C89.8752 39.5987 89.8458 39.5719 89.8115 39.5533C89.7771 39.5348 89.7388 39.5251 89.6999 39.525C89.661 39.5249 89.6227 39.5344 89.5882 39.5528C87.3509 40.7423 82.1458 43.5472 79.7912 41.8704C77.7697 40.4277 79.352 37.1355 80.3741 35.3973C80.4625 35.2464 80.4208 35.1786 80.2492 35.1939C79.5754 35.263 79.0795 35.3282 78.5949 35.8731C76.5709 38.1318 74.2276 39.9685 71.5651 41.3831C69.767 42.3385 68.5139 39.8368 70.4219 38.7087C71.7619 37.9208 73.0289 37.0255 74.2226 36.0227C74.3286 35.9332 74.3992 35.8232 74.4346 35.6927C74.4699 35.5623 74.4333 35.506 74.3248 35.5239C74.2902 35.5288 74.2547 35.5235 74.2226 35.5086C73.791 35.2809 73.492 34.9381 73.3254 34.4802C73.2699 34.3242 73.1891 34.3088 73.0831 34.4342C69.4452 38.678 61.5485 47.956 55.5824 47.8793C53.4978 47.8537 52.1363 46.7396 51.4978 44.5372C49.8813 38.9581 58.2664 28.7553 61.4084 24.3389C61.5018 24.2033 61.4677 24.1444 61.3062 24.1623C55.3755 24.8223 49.4675 25.4938 43.5821 26.1768C42.2913 26.3265 41.4509 25.8583 41.413 24.477C41.3751 22.9959 42.5525 22.639 43.8471 22.4472C50.8302 21.4291 57.8146 20.4161 64.8003 19.4082C64.9265 19.3903 65.0287 19.3302 65.1069 19.2279L69.5323 13.4608C70.7613 12.7292 71.8465 12.7215 72.7878 13.4377ZM142.632 22.3244C140.266 23.7479 137.415 26.1384 136.336 29.1659C136.203 29.5445 136.331 29.7018 136.722 29.6378C138.767 29.3155 141.621 26.549 142.961 24.9835C143.059 24.8709 143.061 24.7571 142.965 24.642C142.422 23.9718 142.363 23.2504 142.787 22.4779C142.923 22.2297 142.871 22.1786 142.632 22.3244ZM97.5303 31.7214C96.054 33.3483 94.965 35.208 94.2634 37.3005C94.2334 37.3882 94.2291 37.4828 94.2511 37.573C94.2732 37.6631 94.3205 37.7448 94.3874 37.8081C94.4544 37.8715 94.538 37.9138 94.6282 37.93C94.7184 37.9461 94.8113 37.9354 94.8956 37.899C96.1095 37.3849 97.1518 36.629 98.0225 35.6313C98.1234 35.5188 98.1474 35.3909 98.0944 35.2476C97.6831 34.1323 97.5569 32.9863 97.7159 31.8096C97.7461 31.5794 97.6843 31.55 97.5303 31.7214ZM123.67 57.0115C127.126 51.9696 130.363 46.7742 133.455 41.4944C133.466 41.4789 133.471 41.4605 133.469 41.4419C133.468 41.4234 133.461 41.4057 133.449 41.3917C133.437 41.3777 133.421 41.3681 133.403 41.3645C133.385 41.3609 133.366 41.3634 133.349 41.3716C125.188 44.9823 114.944 53.6349 116.477 63.922C116.558 64.4618 116.853 64.646 117.363 64.4746C118.847 63.9719 122.663 58.4849 123.67 57.0115Z" fill="#EB4E0C"/>
</svg>
