<svg width="16" height="16" viewBox="0 0 16 16" fill="none" xmlns="http://www.w3.org/2000/svg">
<mask id="mask0_517_68621" style="mask-type:alpha" maskUnits="userSpaceOnUse" x="0" y="0" width="16" height="16">
<rect width="16" height="16" fill="#D9D9D9"/>
</mask>
<g mask="url(#mask0_517_68621)">
<path d="M6.93151 9.06641L3.11484 7.64974C2.99262 7.59418 2.8954 7.51641 2.82318 7.41641C2.75095 7.31641 2.71484 7.2053 2.71484 7.08307C2.71484 6.96085 2.74818 6.85252 2.81484 6.75807C2.88151 6.66363 2.97595 6.58863 3.09818 6.53307L12.3148 2.89974C12.4371 2.84418 12.5565 2.83307 12.6732 2.86641C12.7898 2.89974 12.8871 2.9553 12.9648 3.03307C13.0426 3.11085 13.0982 3.20807 13.1315 3.32474C13.1648 3.44141 13.1537 3.56085 13.0982 3.68307L9.46484 12.8997C9.40929 13.022 9.33429 13.1164 9.23984 13.1831C9.1454 13.2497 9.03707 13.2831 8.91484 13.2831C8.79262 13.2831 8.68151 13.247 8.58151 13.1747C8.48151 13.1025 8.40373 13.0053 8.34818 12.8831L6.93151 9.06641Z" fill="#0A4881"/>
</g>
</svg>
