<svg width="46" height="20" viewBox="0 0 46 20" fill="none" xmlns="http://www.w3.org/2000/svg">
<mask id="mask0_1184_155084" style="mask-type:alpha" maskUnits="userSpaceOnUse" x="0" y="0" width="46" height="20">
<rect width="46" height="20" fill="#D9D9D9"/>
</mask>
<g mask="url(#mask0_1184_155084)">
<path fill-rule="evenodd" clip-rule="evenodd" d="M8.58024 13.0871H6.71302C3.80016 13.0871 5.91635 6.90042 8.36863 6.90042H11.3188C11.7919 6.90042 12.6259 6.98757 13.0367 5.81743L13.6715 4H9.62588C7.43503 4 5.72962 4.77179 4.49726 6.06639C2.36863 8.28215 1.64664 11.7427 2.15701 13.3983C2.64249 14.9295 3.96199 15.9378 6.02837 15.9627L7.63419 15.9751H9.61343L10.0989 14.5187C10.4599 13.4855 9.65079 13.0871 8.58024 13.0871ZM31.3106 10.5228L31.9204 8.54358H25.4101C24.3271 8.54358 23.8417 8.84233 23.6549 9.46472L23.045 11.444H29.5554C30.6383 11.444 31.1238 11.1452 31.3106 10.5228ZM22.074 14.0083L21.4641 15.9875H27.9744C29.045 15.9875 29.5429 15.6888 29.7296 15.0664L30.3396 13.0871H23.8292C22.7587 13.0871 22.2732 13.3859 22.074 14.0083ZM32.8292 5.9917L33.4393 4.01245H26.9288C25.8458 4.01245 25.3603 4.3112 25.1736 4.93361L24.5637 6.91287H31.074C32.1447 6.91287 32.63 6.61411 32.8292 5.9917ZM22.9952 6.39004C22.7213 4.54772 21.7379 4.01245 19.3479 4.01245H14.9911L12.4516 11.444H14.0574C15.0159 11.444 15.5014 11.4564 16.0118 10.0871L17.0699 6.90042H18.6881C20.0699 6.90042 19.7587 8.63072 19.0616 10.3112C18.4392 11.7925 17.3562 13.0996 16.0491 13.0996H13.3479C12.2649 13.0996 11.767 13.3983 11.5678 14.0208L10.8956 16H12.8749L14.8168 15.9875C16.5346 15.9751 17.9412 15.8506 19.5844 14.3693C21.3271 12.7884 23.3437 8.73028 22.9952 6.39004ZM44.8791 4H41.1074L37.5596 7.77178C37.1487 8.20746 36.7255 8.64314 36.3146 9.15354H36.2772L38.0449 4H34.9704L30.8251 15.9875H33.8998L35.2192 12.2158L36.5884 11.0581L37.6716 14.4689C38.0075 15.527 38.3563 15.9875 39.1032 15.9875H41.4559L39.0408 9.29046L44.8791 4Z" fill="#00B33C"/>
</g>
</svg>
