<svg width="20" height="20" viewBox="0 0 20 20" fill="none" xmlns="http://www.w3.org/2000/svg">
<mask id="mask0_875_155125" style="mask-type:alpha" maskUnits="userSpaceOnUse" x="0" y="0" width="20" height="20">
<rect width="20" height="20" fill="#D9D9D9"/>
</mask>
<g mask="url(#mask0_875_155125)">
<path d="M5 16C4.30556 16 3.71528 15.7569 3.22917 15.2708C2.74306 14.7847 2.5 14.1944 2.5 13.5H1V5C1 4.5875 1.14688 4.23438 1.44063 3.94063C1.73438 3.64688 2.0875 3.5 2.5 3.5H14V6.5H16.5L19 10V13.5H17.5C17.5 14.1944 17.2569 14.7847 16.7708 15.2708C16.2847 15.7569 15.6944 16 15 16C14.3056 16 13.7153 15.7569 13.2292 15.2708C12.7431 14.7847 12.5 14.1944 12.5 13.5H7.5C7.5 14.1944 7.25694 14.7847 6.77083 15.2708C6.28472 15.7569 5.69444 16 5 16ZM5 14.5C5.28333 14.5 5.52083 14.4042 5.7125 14.2125C5.90417 14.0208 6 13.7833 6 13.5C6 13.2167 5.90417 12.9792 5.7125 12.7875C5.52083 12.5958 5.28333 12.5 5 12.5C4.71667 12.5 4.47917 12.5958 4.2875 12.7875C4.09583 12.9792 4 13.2167 4 13.5C4 13.7833 4.09583 14.0208 4.2875 14.2125C4.47917 14.4042 4.71667 14.5 5 14.5ZM15 14.5C15.2833 14.5 15.5208 14.4042 15.7125 14.2125C15.9042 14.0208 16 13.7833 16 13.5C16 13.2167 15.9042 12.9792 15.7125 12.7875C15.5208 12.5958 15.2833 12.5 15 12.5C14.7167 12.5 14.4792 12.5958 14.2875 12.7875C14.0958 12.9792 14 13.2167 14 13.5C14 13.7833 14.0958 14.0208 14.2875 14.2125C14.4792 14.4042 14.7167 14.5 15 14.5ZM14 10.5L17.5 10.4792L15.7292 8H14V10.5Z" fill="#808080"/>
</g>
</svg>
