<svg width="46" height="20" viewBox="0 0 46 20" fill="none" xmlns="http://www.w3.org/2000/svg">
<path d="M29.8604 14.7125C28.992 14.9409 27.8607 15.0538 26.8766 15.0538C24.3522 15.0538 22.6805 13.7196 22.6805 11.2778C22.6805 8.96658 24.2376 7.46966 26.5168 7.46966C27.0248 7.46966 27.5652 7.53386 27.8935 7.69731V4.34245H29.8604V14.7125ZM27.8935 9.42233C27.582 9.27583 27.1723 9.1945 26.6798 9.1945C25.4841 9.1945 24.6806 9.92733 24.6806 11.213C24.6806 12.5968 25.549 13.3786 26.9424 13.3786C27.1884 13.3786 27.5652 13.3617 27.8932 13.2972L27.8935 9.42233ZM46 14.7125C45.1307 14.9409 43.9999 15.0538 43.0162 15.0538C40.4923 15.0538 38.8197 13.7196 38.8197 11.2778C38.8197 8.96658 40.3774 7.46966 42.656 7.46966C43.164 7.46966 43.7049 7.53386 44.0328 7.69731V4.34245H45.9997L46 14.7125ZM44.033 9.42233C43.7212 9.27583 43.3112 9.1945 42.8199 9.1945C41.6235 9.1945 40.8205 9.92733 40.8205 11.213C40.8205 12.5968 41.6891 13.3786 43.0823 13.3786C43.3279 13.3786 43.7051 13.3617 44.033 13.2972V9.42233ZM32.9534 9.40642C33.2809 9.27583 33.7391 9.22742 34.1327 9.22742C35.3459 9.22742 36.1818 9.92733 36.1818 11.1794C36.1818 12.6575 35.2559 13.3259 34.0179 13.3431V15.0533C34.0505 15.0533 34.0835 15.0533 34.1168 15.0533C36.6571 15.0533 38.1817 13.6377 38.1817 11.1147C38.1817 8.81958 36.5593 7.46942 34.1661 7.46942C32.9536 7.46942 31.7563 7.74623 30.9691 8.07148V17.8223H32.9529L32.9534 9.40642Z" fill="#3C3C3B"/>
<path d="M12.0063 8.92642C11.9616 8.94917 11.9117 8.96067 11.8615 8.95967C11.8111 8.95875 11.7618 8.94542 11.7179 8.921L11.2502 8.64492C11.209 8.618 11.1748 8.58158 11.1507 8.53883L11.146 8.53108C11.1176 8.48717 11.1009 8.43683 11.0975 8.38475L11.0856 7.84387C11.0862 7.79399 11.0992 7.74503 11.1236 7.70137C11.1479 7.65771 11.1826 7.62069 11.2248 7.59364L16.8458 4.34132L8.95765 0.0711242C8.85889 0.0243008 8.75081 0 8.64139 0C8.53189 0 8.42389 0.0243008 8.3251 0.0711242L0.436917 4.34132L9.27374 9.45017C9.31645 9.47592 9.35195 9.51183 9.37712 9.55467C9.40229 9.5975 9.41631 9.64592 9.41798 9.69542V17.1483C9.4153 17.1982 9.40011 17.2467 9.37401 17.2895C9.34783 17.3322 9.3115 17.3678 9.26812 17.3932L8.79234 17.6557C8.74821 17.6774 8.69954 17.6884 8.65028 17.6877H8.64122C8.58869 17.6899 8.5365 17.6789 8.48943 17.6557L8.01228 17.3934C7.96932 17.3678 7.93341 17.3321 7.90771 17.2893C7.88202 17.2467 7.86734 17.1982 7.86498 17.1486V10.5047C7.86172 10.4787 7.85298 10.4536 7.83931 10.4312C7.82564 10.4087 7.80735 10.3894 7.78564 10.3744L0 5.87353V14.6893C0 14.8866 0.139956 15.1298 0.311644 15.2302L8.32984 19.9258C8.42633 19.9746 8.53298 20 8.64122 20C8.74947 20 8.8562 19.9746 8.95261 19.9258L16.9722 15.2295C17.1432 15.1286 17.2829 14.8866 17.2827 14.6886V5.87353L12.0063 8.92642Z" fill="url(#paint0_linear_1184_155082)"/>
<defs>
<linearGradient id="paint0_linear_1184_155082" x1="0.250821" y1="31.9043" x2="16.1225" y2="10.4983" gradientUnits="userSpaceOnUse">
<stop stop-color="#BE0737"/>
<stop offset="0.04" stop-color="#C00736"/>
<stop offset="0.63" stop-color="#D8062C"/>
<stop offset="1" stop-color="#E10528"/>
</linearGradient>
</defs>
</svg>
