<svg width="32" height="32" viewBox="0 0 32 32" fill="none" xmlns="http://www.w3.org/2000/svg">
<mask id="mask0_586_155913" style="mask-type:alpha" maskUnits="userSpaceOnUse" x="0" y="0" width="32" height="32">
<rect width="32" height="32" fill="#D9D9D9"/>
</mask>
<g mask="url(#mask0_586_155913)">
<path fill-rule="evenodd" clip-rule="evenodd" d="M15.6104 3C15.5449 8.27 15.1852 11.232 13.2086 13.2086C11.232 15.1853 8.27003 15.545 3 15.6104V16.3896C8.27003 16.4551 11.232 16.8148 13.2086 18.7914C15.1852 20.768 15.5449 23.73 15.6104 29H16.3896C16.4551 23.73 16.8148 20.768 18.7914 18.7914C20.768 16.8148 23.73 16.4551 29 16.3896V15.6104C23.73 15.5449 20.768 15.1853 18.7914 13.2086C16.8148 11.232 16.4551 8.27 16.3896 3H15.6104Z" fill="#808080"/>
</g>
</svg>
