<svg width="24" height="24" viewBox="0 0 24 24" fill="none" xmlns="http://www.w3.org/2000/svg">
<mask id="mask0_671_32679" style="mask-type:alpha" maskUnits="userSpaceOnUse" x="0" y="0" width="24" height="24">
<rect x="0.5" y="0.5" width="23" height="23" fill="#D9D9D9" stroke="#B3B3B3"/>
</mask>
<g mask="url(#mask0_671_32679)">
<path d="M11.3432 20.2743L11.3269 20.2586L11.3099 20.2437L9.58569 18.7295C9.58565 18.7295 9.5856 18.7295 9.58556 18.7294C7.84081 17.1938 6.26925 15.6739 4.86947 14.1701C3.59177 12.7975 3 11.3462 3 9.78996C3 8.5446 3.42166 7.54981 4.26821 6.73559C5.11703 5.91918 6.1704 5.5 7.5 5.5C8.24255 5.5 8.93283 5.65056 9.58176 5.94936C10.2428 6.25372 10.7948 6.66385 11.2492 7.18032L12 8.03375L12.7508 7.18032C13.2052 6.66385 13.7572 6.25372 14.4182 5.94936C15.0672 5.65056 15.7575 5.5 16.5 5.5C17.8296 5.5 18.883 5.91918 19.7318 6.73559C20.5783 7.5498 21 8.5446 21 9.78996C21 11.3484 20.4106 12.8052 19.1393 14.1862C17.7516 15.6936 16.1713 17.2142 14.3963 18.7475L14.3963 18.7475L14.3907 18.7524L12.6907 20.2432L12.6734 20.2584L12.6568 20.2743C12.5811 20.3471 12.4979 20.3974 12.3977 20.4306C12.2484 20.4801 12.1171 20.5 12 20.5C11.8829 20.5 11.7517 20.4801 11.6023 20.4306C11.5021 20.3974 11.4189 20.3471 11.3432 20.2743Z" stroke="#B3B3B3" stroke-width="2"/>
</g>
</svg>
