<svg width="21" height="20" viewBox="0 0 21 20" fill="none" xmlns="http://www.w3.org/2000/svg">
<mask id="mask0_624_75625" style="mask-type:alpha" maskUnits="userSpaceOnUse" x="0" y="0" width="21" height="20">
<rect x="0.701172" width="20" height="20" fill="#D9D9D9"/>
</mask>
<g mask="url(#mask0_624_75625)">
<path d="M10.7018 10.832C9.78516 10.832 9.00043 10.5056 8.34766 9.85287C7.69488 9.20009 7.36849 8.41536 7.36849 7.4987V4.58203C7.36849 4.23481 7.49002 3.93967 7.73307 3.69661C7.97613 3.45356 8.27127 3.33203 8.61849 3.33203C8.82682 3.33203 9.02474 3.38064 9.21224 3.47786C9.39974 3.57509 9.54905 3.71398 9.66016 3.89453C9.77127 3.71398 9.92057 3.57509 10.1081 3.47786C10.2956 3.38064 10.4935 3.33203 10.7018 3.33203C10.9102 3.33203 11.1081 3.38064 11.2956 3.47786C11.4831 3.57509 11.6324 3.71398 11.7435 3.89453C11.8546 3.71398 12.0039 3.57509 12.1914 3.47786C12.3789 3.38064 12.5768 3.33203 12.7852 3.33203C13.1324 3.33203 13.4275 3.45356 13.6706 3.69661C13.9136 3.93967 14.0352 4.23481 14.0352 4.58203V7.4987C14.0352 8.41536 13.7088 9.20009 13.056 9.85287C12.4032 10.5056 11.6185 10.832 10.7018 10.832ZM5.70182 17.4987C5.24349 17.4987 4.85113 17.3355 4.52474 17.0091C4.19835 16.6827 4.03516 16.2904 4.03516 15.832V15.1654C4.03516 14.6931 4.15668 14.2591 4.39974 13.8633C4.6428 13.4674 4.96571 13.1654 5.36849 12.957C6.2296 12.5265 7.1046 12.2036 7.99349 11.9883C8.88238 11.773 9.78516 11.6654 10.7018 11.6654C11.6185 11.6654 12.5213 11.773 13.4102 11.9883C14.299 12.2036 15.174 12.5265 16.0352 12.957C16.4379 13.1654 16.7608 13.4674 17.0039 13.8633C17.247 14.2591 17.3685 14.6931 17.3685 15.1654V15.832C17.3685 16.2904 17.2053 16.6827 16.8789 17.0091C16.5525 17.3355 16.1602 17.4987 15.7018 17.4987H5.70182Z" fill="#333333"/>
</g>
</svg>
