<svg width="21" height="20" viewBox="0 0 21 20" fill="none" xmlns="http://www.w3.org/2000/svg">
<mask id="mask0_624_75605" style="mask-type:alpha" maskUnits="userSpaceOnUse" x="0" y="0" width="21" height="20">
<rect x="0.300781" width="20" height="20" fill="#D9D9D9"/>
</mask>
<g mask="url(#mask0_624_75605)">
<path d="M3.63477 15.8346V8.33464C3.63477 8.07075 3.69379 7.82075 3.81185 7.58464C3.9299 7.34852 4.0931 7.15408 4.30143 7.0013L9.30143 3.2513C9.5931 3.02908 9.92643 2.91797 10.3014 2.91797C10.6764 2.91797 11.0098 3.02908 11.3014 3.2513L16.3014 7.0013C16.5098 7.15408 16.673 7.34852 16.791 7.58464C16.9091 7.82075 16.9681 8.07075 16.9681 8.33464V15.8346C16.9681 16.293 16.8049 16.6853 16.4785 17.0117C16.1521 17.3381 15.7598 17.5013 15.3014 17.5013H12.8014C12.5653 17.5013 12.3674 17.4214 12.2077 17.2617C12.048 17.102 11.9681 16.9041 11.9681 16.668V12.5013C11.9681 12.2652 11.8882 12.0673 11.7285 11.9076C11.5688 11.7478 11.3709 11.668 11.1348 11.668H9.4681C9.23199 11.668 9.03407 11.7478 8.87435 11.9076C8.71463 12.0673 8.63477 12.2652 8.63477 12.5013V16.668C8.63477 16.9041 8.5549 17.102 8.39518 17.2617C8.23546 17.4214 8.03754 17.5013 7.80143 17.5013H5.30143C4.8431 17.5013 4.45074 17.3381 4.12435 17.0117C3.79796 16.6853 3.63477 16.293 3.63477 15.8346Z" fill="#333333"/>
</g>
</svg>
