<svg width="32" height="32" viewBox="0 0 32 32" fill="none" xmlns="http://www.w3.org/2000/svg">
<mask id="mask0_524_36674" style="mask-type:alpha" maskUnits="userSpaceOnUse" x="0" y="0" width="32" height="32">
<rect width="32" height="32" fill="#D9D9D9"/>
</mask>
<g mask="url(#mask0_524_36674)">
<path d="M25.7167 26C23.4028 26 21.0694 25.4604 18.7167 24.3813C16.3639 23.3021 14.1958 21.7708 12.2125 19.7875C10.2292 17.8042 8.69792 15.6361 7.61875 13.2833C6.53958 10.9306 6 8.59722 6 6.28333C6 5.92036 6.12315 5.61574 6.36945 5.36945C6.61574 5.12315 6.92036 5 7.28333 5H11.5805C11.8528 5 12.0893 5.0956 12.2903 5.2868C12.4912 5.47801 12.6241 5.71297 12.6889 5.99167L13.4667 9.80276C13.5056 10.088 13.4991 10.3407 13.4472 10.5611C13.3954 10.7815 13.2916 10.9694 13.1361 11.125L10.2486 14.0417C10.7153 14.8519 11.2257 15.6151 11.7798 16.3313C12.334 17.0474 12.9449 17.7296 13.6125 18.3778C14.2931 19.0713 15.0093 19.7081 15.7611 20.2882C16.513 20.8683 17.3037 21.3852 18.1333 21.8389L20.8945 19.0195C21.0824 18.8185 21.3077 18.6776 21.5702 18.5965C21.8327 18.5155 22.0935 18.4944 22.3528 18.5333L26.0083 19.3111C26.2935 19.3889 26.5301 19.5396 26.718 19.7632C26.906 19.9868 27 20.238 27 20.5167V24.7167C27 25.0796 26.8769 25.3843 26.6305 25.6305C26.3843 25.8769 26.0796 26 25.7167 26Z" fill="#333333"/>
</g>
</svg>
