<svg width="20" height="20" viewBox="0 0 20 20" fill="none" xmlns="http://www.w3.org/2000/svg">
<mask id="mask0_203_168442" style="mask-type:alpha" maskUnits="userSpaceOnUse" x="0" y="0" width="20" height="20">
<rect width="20" height="20" fill="#D9D9D9"/>
</mask>
<g mask="url(#mask0_203_168442)">
<path d="M14.9524 17H6.85714V6.6L12.5238 1L13.5357 2C13.6302 2.09333 13.7077 2.22 13.7685 2.38C13.8292 2.54 13.8595 2.69333 13.8595 2.84V3.12L12.969 6.6H17.381C17.8127 6.6 18.1905 6.76 18.5143 7.08C18.8381 7.4 19 7.77333 19 8.2V9.8C19 9.89333 18.9899 9.99333 18.9696 10.1C18.9494 10.2067 18.919 10.3067 18.8786 10.4L16.45 16.04C16.3286 16.3067 16.1262 16.5333 15.8429 16.72C15.5595 16.9067 15.2627 17 14.9524 17ZM5.2381 6.6V17H2V6.6H5.2381Z" fill="#B3B3B3"/>
</g>
</svg>
