<svg width="32" height="32" viewBox="0 0 32 32" fill="none" xmlns="http://www.w3.org/2000/svg">
<rect width="32" height="32" fill="white"/>
<mask id="mask0_256_116152" style="mask-type:alpha" maskUnits="userSpaceOnUse" x="6" y="6" width="20" height="20">
<rect x="6" y="6" width="20" height="20" fill="#D9D9D9"/>
</mask>
<g mask="url(#mask0_256_116152)">
<path d="M12 20.8991C11.7733 20.8991 11.5833 20.8219 11.43 20.6673C11.2767 20.5128 11.2 20.3213 11.2 20.0929V18.4805H21.6V11.2248H23.2C23.4267 11.2248 23.6167 11.302 23.77 11.4566C23.9233 11.6111 24 11.8026 24 12.031V22.1689C24 22.5317 23.8367 22.7836 23.51 22.9247C23.1833 23.0658 22.8933 23.0087 22.64 22.7534L20.8 20.8991H12ZM11.2 16.8681L9.36 18.7224C9.10667 18.9777 8.81667 19.0348 8.49 18.8937C8.16333 18.7526 8 18.5007 8 18.1379V8.80619C8 8.57777 8.07667 8.3863 8.23 8.23178C8.38333 8.07726 8.57333 8 8.8 8H19.2C19.4267 8 19.6167 8.07726 19.77 8.23178C19.9233 8.3863 20 8.57777 20 8.80619V16.0619C20 16.2904 19.9233 16.4818 19.77 16.6364C19.6167 16.7909 19.4267 16.8681 19.2 16.8681H11.2Z" fill="#0A4881"/>
</g>
</svg>
