<svg width="32" height="32" viewBox="0 0 32 32" fill="none" xmlns="http://www.w3.org/2000/svg">
<g clip-path="url(#clip0_263_155369)">
<path d="M16 32C24.8367 32 32 24.8367 32 16C32 7.16333 24.8367 0 16 0C7.16333 0 0 7.16333 0 16C0 24.8367 7.16333 32 16 32Z" fill="#D6001C"/>
<path d="M9.09988 8.7793V14.222C9.92855 13.234 10.9219 12.7366 12.0739 12.7366C12.6672 12.7366 13.1985 12.85 13.6752 13.0746C14.1532 13.298 14.5105 13.5846 14.7519 13.9326C14.9945 14.284 15.1585 14.6686 15.2472 15.0926C15.3352 15.5146 15.3792 16.1713 15.3792 17.062V22.8813H12.8045V17.64C12.8045 16.6 12.7579 15.9413 12.6599 15.6613C12.5681 15.387 12.3859 15.152 12.1432 14.9946C11.8952 14.8273 11.5865 14.7446 11.2139 14.7446C10.7872 14.7446 10.4045 14.8513 10.0719 15.0633C9.73188 15.2766 9.48788 15.5953 9.33321 16.0213C9.17588 16.448 9.09721 17.078 9.09988 17.912L9.09721 22.8813H6.52588V8.7793H9.10055M19.2379 8.7793V14.222C20.0672 13.234 21.0599 12.7366 22.2112 12.7366C22.8025 12.7366 23.3379 12.85 23.8152 13.0746C24.2912 13.298 24.6485 13.5846 24.8885 13.9326C25.1307 14.2816 25.2993 14.6763 25.3839 15.0926C25.4725 15.5146 25.5165 16.1713 25.5165 17.062V22.8813H22.9445V17.64C22.9445 16.6 22.8959 15.9413 22.7979 15.6613C22.706 15.3866 22.5233 15.1515 22.2799 14.9946C22.0345 14.8273 21.7232 14.7446 21.3505 14.7446C20.9245 14.7446 20.5419 14.8513 20.2085 15.0633C19.8732 15.2766 19.6279 15.5953 19.4712 16.0213C19.3165 16.448 19.2379 17.078 19.2379 17.912V22.8813H16.6665V8.7793H19.2379Z" fill="#FEFEFE"/>
</g>
<defs>
<clipPath id="clip0_263_155369">
<rect width="32" height="32" fill="white"/>
</clipPath>
</defs>
</svg>
