<svg width="16" height="16" viewBox="0 0 16 16" fill="none" xmlns="http://www.w3.org/2000/svg">
<mask id="mask0_256_199769" style="mask-type:alpha" maskUnits="userSpaceOnUse" x="0" y="0" width="16" height="16">
<rect width="16" height="16" fill="#D9D9D9"/>
</mask>
<g mask="url(#mask0_256_199769)">
<path d="M7.99985 10.667C8.83319 10.667 9.54152 10.3753 10.1249 9.79199C10.7082 9.20866 10.9999 8.50033 10.9999 7.66699C10.9999 6.83366 10.7082 6.12533 10.1249 5.54199C9.54152 4.95866 8.83319 4.66699 7.99985 4.66699C7.16652 4.66699 6.45819 4.95866 5.87485 5.54199C5.29152 6.12533 4.99985 6.83366 4.99985 7.66699C4.99985 8.50033 5.29152 9.20866 5.87485 9.79199C6.45819 10.3753 7.16652 10.667 7.99985 10.667ZM7.99985 9.46699C7.49985 9.46699 7.07485 9.29199 6.72485 8.94199C6.37485 8.59199 6.19985 8.16699 6.19985 7.66699C6.19985 7.16699 6.37485 6.74199 6.72485 6.39199C7.07485 6.04199 7.49985 5.86699 7.99985 5.86699C8.49985 5.86699 8.92485 6.04199 9.27485 6.39199C9.62485 6.74199 9.79985 7.16699 9.79985 7.66699C9.79985 8.16699 9.62485 8.59199 9.27485 8.94199C8.92485 9.29199 8.49985 9.46699 7.99985 9.46699ZM7.99985 12.667C6.51096 12.667 5.15263 12.267 3.92485 11.467C2.69708 10.667 1.72763 9.61144 1.01652 8.30033C0.960965 8.20033 0.919298 8.09755 0.89152 7.99199C0.863742 7.88644 0.849854 7.7781 0.849854 7.66699C0.849854 7.55588 0.863742 7.44755 0.89152 7.34199C0.919298 7.23644 0.960965 7.13366 1.01652 7.03366C1.72763 5.72255 2.69708 4.66699 3.92485 3.86699C5.15263 3.06699 6.51096 2.66699 7.99985 2.66699C9.48874 2.66699 10.8471 3.06699 12.0749 3.86699C13.3026 4.66699 14.2721 5.72255 14.9832 7.03366C15.0387 7.13366 15.0804 7.23644 15.1082 7.34199C15.136 7.44755 15.1499 7.55588 15.1499 7.66699C15.1499 7.7781 15.136 7.88644 15.1082 7.99199C15.0804 8.09755 15.0387 8.20033 14.9832 8.30033C14.2721 9.61144 13.3026 10.667 12.0749 11.467C10.8471 12.267 9.48874 12.667 7.99985 12.667Z" fill="#B3B3B3"/>
</g>
</svg>
