<svg width="54" height="26" viewBox="0 0 54 26" fill="none" xmlns="http://www.w3.org/2000/svg">
<rect width="54" height="26" fill="white"/>
<path d="M38.8712 9H32.8906C33.239 10.9742 35.1551 12.8322 37.2454 12.8322H42.0067C42.0648 12.6581 42.0648 12.3677 42.0648 12.1935C42.0648 10.4516 40.6132 9 38.8712 9Z" fill="url(#paint0_linear_203_171254)"/>
<path d="M33.4141 13.1816V18.001H36.3173V15.4461H38.8721C40.2656 15.4461 41.485 14.4591 41.8914 13.1816H33.4141Z" fill="#4FAD50"/>
<path d="M23.1953 9V17.9419H25.7502C25.7502 17.9419 26.3889 17.9419 26.7372 17.3032C28.4792 13.8774 29.0017 12.8322 29.0017 12.8322H29.3501V17.9419H32.2533V9H29.6985C29.6985 9 29.0598 9.05807 28.7114 9.63871C27.2598 12.6 26.4469 14.1097 26.4469 14.1097H26.0985V9H23.1953Z" fill="#4FAD50"/>
<path d="M11 18.0005V9.05859H13.9032C13.9032 9.05859 14.7161 9.05859 15.1806 10.336C16.3419 13.7037 16.4581 14.1683 16.4581 14.1683C16.4581 14.1683 16.6903 13.3553 17.7355 10.336C18.2 9.05859 19.0129 9.05859 19.0129 9.05859H21.9161V18.0005H19.0129V13.1812H18.6645L17.0387 18.0005H15.7613L14.1355 13.1812H13.7871V18.0005H11Z" fill="#4FAD50"/>
<defs>
<linearGradient id="paint0_linear_203_171254" x1="32.8803" y1="10.9436" x2="42.0442" y2="10.9436" gradientUnits="userSpaceOnUse">
<stop stop-color="#27B1E6"/>
<stop offset="1" stop-color="#148ACA"/>
</linearGradient>
</defs>
</svg>
