<svg width="56" height="26" viewBox="0 0 56 26" fill="none" xmlns="http://www.w3.org/2000/svg">
<rect width="56" height="26" fill="white"/>
<path d="M42.3802 8.14258H40.3326C39.7135 8.14258 39.2373 8.33305 38.9516 8.9521L35.0469 17.8569H37.8088C37.8088 17.8569 38.285 16.6664 38.3802 16.3807C38.6659 16.3807 41.3802 16.3807 41.7612 16.3807C41.8564 16.714 42.0945 17.8092 42.0945 17.8092H44.5707L42.3802 8.14258ZM39.1421 14.3807C39.3802 13.8092 40.1897 11.6664 40.1897 11.6664C40.1897 11.714 40.4278 11.095 40.5231 10.7616L40.7135 11.6188C40.7135 11.6188 41.2373 13.9521 41.3326 14.4283H39.1421V14.3807Z" fill="#3362AB"/>
<path d="M35.2355 14.6667C35.2355 16.6667 33.426 18 30.6164 18C29.426 18 28.2831 17.7619 27.6641 17.4762L28.045 15.2857L28.3783 15.4286C29.2355 15.8095 29.8069 15.9524 30.8545 15.9524C31.6164 15.9524 32.426 15.6667 32.426 15C32.426 14.5714 32.0926 14.2857 31.045 13.8095C30.045 13.3333 28.7117 12.5714 28.7117 11.1905C28.7117 9.28571 30.5688 8 33.1879 8C34.1879 8 35.045 8.19048 35.5688 8.42857L35.1879 10.5238L34.9974 10.3333C34.5212 10.1429 33.9022 9.95238 32.9974 9.95238C31.9974 10 31.5212 10.4286 31.5212 10.8095C31.5212 11.2381 32.0926 11.5714 32.9974 12C34.5212 12.7143 35.2355 13.5238 35.2355 14.6667Z" fill="#3362AB"/>
<path d="M12 8.23735L12.0476 8.04688H16.1429C16.7143 8.04688 17.1429 8.23735 17.2857 8.8564L18.1905 13.1421C17.2857 10.8564 15.1905 8.99926 12 8.23735Z" fill="#F9B50B"/>
<path d="M23.9505 8.14332L19.8077 17.81H16.9981L14.6172 9.71475C16.3315 10.81 17.76 12.5243 18.2839 13.7148L18.5696 14.7148L21.141 8.0957H23.9505V8.14332Z" fill="#3362AB"/>
<path d="M25.0495 8.0957H27.6685L26.0019 17.81H23.3828L25.0495 8.0957Z" fill="#3362AB"/>
</svg>
