<svg width="288" height="89" viewBox="0 0 288 89" fill="none" xmlns="http://www.w3.org/2000/svg">
<g clip-path="url(#clip0_1311_155946)">
<rect width="288" height="89" fill="#F2F2F2"/>
<path d="M288.951 66.6355C262.932 74.7595 235.264 60.3441 227.14 34.3249C218.882 8.34622 233.257 -19.4555 259.276 -27.5796C285.255 -35.8381 313.097 -21.3286 321.221 4.69055C329.48 30.6692 314.93 58.377 288.951 66.6355Z" fill="url(#paint0_radial_1311_155946)" fill-opacity="0.51"/>
<path d="M280.876 -12.3649C281.132 -12.0018 281.388 -11.6386 281.604 -11.41C281.644 -11.2755 281.86 -11.0469 281.9 -10.9124C282.156 -10.5493 282.412 -10.1861 282.628 -9.95756C282.884 -9.59444 283.14 -9.23132 283.355 -9.00274C283.396 -8.8682 283.611 -8.63961 283.652 -8.50507C283.908 -8.14195 284.164 -7.77883 284.379 -7.55025C285.619 -5.86918 286.724 -4.14762 287.829 -2.42606C289.702 0.384866 289.934 4.56986 287.961 9.71225C282.63 23.2011 263.911 38.5183 246.286 43.8224C235.254 47.1426 227.381 45.8441 224.093 41.2581C221.749 37.8554 219.404 34.4528 217.019 30.9156C220.172 35.5422 228.221 36.9347 239.212 33.48C256.837 28.1759 275.556 12.8586 280.887 -0.630174C282.982 -5.36895 282.749 -9.55395 280.876 -12.3649Z" fill="url(#paint1_linear_1311_155946)"/>
<path d="M258.65 -15.0637C276.274 -20.3678 286.305 -13.8498 280.974 -0.360967C275.644 13.1278 256.925 28.4451 239.206 33.9242C221.582 39.2283 211.685 32.6699 217.016 19.1811C222.347 5.69224 241.066 -9.62501 258.65 -15.0637Z" fill="#7BBF3F"/>
<path d="M265.811 -7.83122L260.968 -6.3736C260.564 -6.25213 260.201 -5.99613 259.972 -5.78061L232.33 24.2532C232.196 24.2937 232.102 24.4687 232.142 24.6033C232.048 24.7783 232.223 24.8723 232.627 24.7509L237.47 23.2932C237.874 23.1718 238.237 22.9158 238.466 22.7003L266.107 -7.33356C266.201 -7.50859 266.336 -7.54908 266.43 -7.7241C266.39 -7.85864 266.39 -7.85864 266.39 -7.85864C266.215 -7.95269 266.08 -7.9122 265.811 -7.83122ZM258.866 6.14346C257.386 6.58885 255.987 7.3033 254.494 8.19279C253.001 9.08227 251.724 10.2003 250.581 11.2779C249.478 12.49 248.645 13.6212 248.256 14.7654C247.866 15.9096 247.706 16.8383 248.083 17.605C248.461 18.3717 249.161 18.7479 250.089 18.9086C251.193 19.1633 252.444 18.9335 253.924 18.4881C255.404 18.0427 256.803 17.3282 258.296 16.4387C259.789 15.5493 261.067 14.4312 262.169 13.2191C263.271 12.007 263.97 10.9163 264.494 9.73162C264.883 8.58742 265.044 7.65873 264.666 6.892C264.289 6.12526 263.589 5.74907 262.66 5.5884C261.503 5.64324 260.346 5.69808 258.866 6.14346ZM255.549 14.6244C254.742 14.8674 254.163 14.8948 253.773 14.5721C253.382 14.2495 253.261 13.8459 253.502 13.1863C253.744 12.5267 254.295 11.9206 254.981 11.2741C255.667 10.6275 256.434 10.2501 257.241 10.0071C258.048 9.76418 258.627 9.73675 259.017 10.0594C259.408 10.382 259.529 10.7856 259.247 11.3107C259.005 11.9703 258.454 12.5764 257.768 13.2229C257.083 13.8695 256.356 14.3815 255.549 14.6244ZM241.829 6.57554C241.022 6.81848 240.443 6.8459 240.053 6.52327C239.662 6.20063 239.541 5.79702 239.783 5.13741C240.024 4.47779 240.575 3.87173 241.261 3.22519C241.947 2.57864 242.714 2.20117 243.521 1.95823C244.328 1.71529 244.907 1.68787 245.297 2.01051C245.688 2.33314 245.809 2.73675 245.527 3.26183C245.285 3.92144 244.734 4.5275 244.048 5.17405C243.403 5.95513 242.636 6.33261 241.829 6.57554ZM245.186 -1.77088C243.706 -1.3255 242.307 -0.611041 240.814 0.278443C239.321 1.16793 238.044 2.286 236.901 3.36357C235.799 4.57569 234.965 5.70683 234.576 6.85103C234.187 7.99524 234.026 8.92393 234.404 9.69066C234.781 10.4574 235.481 10.8336 236.41 10.9943C237.473 11.1144 238.63 11.0596 240.11 10.6142C241.59 10.1688 242.989 9.45437 244.482 8.56489C245.975 7.67541 247.253 6.55734 248.355 5.34523C249.457 4.13311 250.156 3.04246 250.68 1.85777C251.069 0.713562 251.23 -0.215127 250.893 -0.847322C250.515 -1.61405 249.815 -1.99025 248.887 -2.15092C247.917 -2.44613 246.626 -2.3508 245.186 -1.77088Z" fill="url(#paint2_linear_1311_155946)"/>
<g filter="url(#filter0_f_1311_155946)">
<path d="M273.654 126.403C258.591 126.616 246.215 114.522 246.003 99.4591C245.791 84.3956 257.884 72.0196 272.947 71.8074C288.011 71.5953 300.387 83.6884 300.599 98.7519C300.811 113.815 288.718 126.191 273.654 126.403Z" fill="url(#paint3_radial_1311_155946)"/>
<path d="M284.548 100.029L279.527 104.555C278.325 105.687 276.416 106.04 273.94 105.545C266.727 104.06 257.038 95.5736 252.441 86.5214C249.4 80.5809 249.259 75.8426 251.593 73.7917L256.614 69.2656C254.28 71.3872 254.422 76.0548 257.463 81.9953C262.13 91.0475 271.748 99.6046 278.961 101.019C281.437 101.514 283.346 101.16 284.548 100.029Z" fill="url(#paint4_linear_1311_155946)"/>
<path d="M262.2 68.2023C269.413 69.6874 279.102 78.1738 283.699 87.226C288.296 96.2782 286.245 102.431 278.961 101.016C271.747 99.5313 262.058 91.0449 257.462 81.9927C252.794 72.9405 254.916 66.7879 262.2 68.2023Z" fill="#7BBF3F"/>
<path d="M270.476 76.2653L268.496 75.841C268.355 75.841 268.284 75.841 268.284 75.9824L269.345 90.9751C269.345 91.0459 269.345 91.0459 269.416 91.1873C269.486 91.3287 269.628 91.4702 269.769 91.4702L271.749 91.8945C271.891 91.8945 272.032 91.8945 271.962 91.6823L270.83 76.6896C270.83 76.6189 270.83 76.5482 270.759 76.4775C270.759 76.4068 270.689 76.336 270.618 76.336C270.618 76.336 270.547 76.336 270.476 76.2653ZM274.508 85.2468C273.871 85.1054 273.447 85.1761 273.093 85.459C272.74 85.7418 272.598 86.1662 272.669 86.7319C272.669 87.2977 272.881 87.9342 273.305 88.7121C273.659 89.49 274.225 90.1972 274.79 90.9044C275.427 91.6116 276.063 92.1774 276.771 92.6724C277.478 93.1675 278.114 93.4504 278.751 93.5918C279.317 93.7332 279.812 93.6625 280.165 93.3796C280.519 93.0968 280.66 92.6724 280.589 92.1067C280.589 91.5409 280.377 90.8337 279.953 90.1265C279.599 89.3486 279.034 88.6414 278.468 87.9342C277.902 87.227 277.195 86.6612 276.488 86.1662C275.71 85.6711 275.073 85.3882 274.508 85.2468ZM277.407 90.9044C277.053 90.8337 276.7 90.6215 276.346 90.2679C275.993 89.9143 275.639 89.5607 275.427 89.1364C275.215 88.7121 275.144 88.3585 275.215 88.1463C275.285 87.9342 275.498 87.7927 275.851 87.8634C276.205 87.9342 276.558 88.1463 276.912 88.4999C277.266 88.8535 277.619 89.2071 277.761 89.6315C277.973 90.0558 278.044 90.4094 277.973 90.6215C277.902 90.9044 277.69 90.9751 277.407 90.9044ZM264.748 80.0135C264.395 79.9428 264.041 79.7306 263.687 79.377C263.334 79.0234 262.98 78.6698 262.768 78.2455C262.556 77.8212 262.485 77.4676 262.556 77.2554C262.627 77.0432 262.839 76.9018 263.192 76.9725C263.546 77.0432 263.899 77.2554 264.253 77.609C264.607 77.9626 264.96 78.3162 265.102 78.7405C265.314 79.1649 265.385 79.5185 265.314 79.7306C265.243 80.0135 265.102 80.0842 264.748 80.0135ZM261.849 74.3559C261.212 74.2144 260.788 74.2852 260.434 74.568C260.081 74.8509 259.939 75.2752 260.01 75.841C260.01 76.4068 260.222 77.0432 260.646 77.8212C261 78.5991 261.566 79.3063 262.131 80.0135C262.768 80.7207 263.404 81.2865 264.112 81.7815C264.819 82.2765 265.455 82.5594 266.092 82.7009C266.728 82.8423 267.153 82.7716 267.506 82.4887C267.86 82.2058 268.001 81.7815 267.931 81.2157C267.931 80.65 267.718 79.9428 267.294 79.2356C266.94 78.4577 266.375 77.7504 265.809 77.0432C265.172 76.336 264.536 75.7703 263.829 75.2752C263.122 74.7802 262.485 74.4973 261.849 74.3559Z" fill="url(#paint5_linear_1311_155946)"/>
</g>
</g>
<defs>
<filter id="filter0_f_1311_155946" x="245" y="67" width="56.6016" height="60.4062" filterUnits="userSpaceOnUse" color-interpolation-filters="sRGB">
<feFlood flood-opacity="0" result="BackgroundImageFix"/>
<feBlend mode="normal" in="SourceGraphic" in2="BackgroundImageFix" result="shape"/>
<feGaussianBlur stdDeviation="0.5" result="effect1_foregroundBlur_1311_155946"/>
</filter>
<radialGradient id="paint0_radial_1311_155946" cx="0" cy="0" r="1" gradientUnits="userSpaceOnUse" gradientTransform="translate(274.182 19.4692) rotate(72.524) scale(46.6416 46.5769)">
<stop stop-color="#014733"/>
<stop offset="1" stop-color="white" stop-opacity="0"/>
</radialGradient>
<linearGradient id="paint1_linear_1311_155946" x1="289.559" y1="-1.2816" x2="223.884" y2="45.3816" gradientUnits="userSpaceOnUse">
<stop stop-color="#75BD1A"/>
<stop offset="0.1008" stop-color="#71C82C"/>
<stop offset="0.3022" stop-color="#91E54F"/>
<stop offset="0.4677" stop-color="#CFFF69"/>
<stop offset="0.5145" stop-color="#ADF862"/>
<stop offset="0.7384" stop-color="#8DD842"/>
<stop offset="0.9071" stop-color="#4FC426"/>
<stop offset="1" stop-color="#58BD1A"/>
</linearGradient>
<linearGradient id="paint2_linear_1311_155946" x1="282.392" y1="4.61394" x2="189.511" y2="15.3264" gradientUnits="userSpaceOnUse">
<stop stop-color="white"/>
<stop offset="1" stop-color="#E0FFA1"/>
</linearGradient>
<radialGradient id="paint3_radial_1311_155946" cx="0" cy="0" r="1" gradientUnits="userSpaceOnUse" gradientTransform="translate(273.307 99.0861) rotate(89.2723) scale(25.782 25.782)">
<stop stop-color="#014733"/>
<stop offset="1" stop-color="white" stop-opacity="0"/>
</radialGradient>
<linearGradient id="paint4_linear_1311_155946" x1="284.977" y1="80.1855" x2="248.378" y2="86.7768" gradientUnits="userSpaceOnUse">
<stop stop-color="#75BD1A"/>
<stop offset="0.1008" stop-color="#71C82C"/>
<stop offset="0.3022" stop-color="#91E54F"/>
<stop offset="0.4677" stop-color="#CFFF69"/>
<stop offset="0.5145" stop-color="#ADF862"/>
<stop offset="0.7384" stop-color="#8DD842"/>
<stop offset="0.9071" stop-color="#4FC426"/>
<stop offset="1" stop-color="#58BD1A"/>
</linearGradient>
<linearGradient id="paint5_linear_1311_155946" x1="255.51" y1="77.7756" x2="291.03" y2="92.7016" gradientUnits="userSpaceOnUse">
<stop stop-color="white"/>
<stop offset="1" stop-color="#E0FFA1"/>
</linearGradient>
<clipPath id="clip0_1311_155946">
<rect width="288" height="89" fill="white"/>
</clipPath>
</defs>
</svg>
