<svg width="105" height="105" viewBox="0 0 105 105" fill="none" xmlns="http://www.w3.org/2000/svg">
<g clip-path="url(#clip0_710_155173)">
<path d="M52.9492 104.273C81.668 104.273 104.949 80.9922 104.949 52.2734C104.949 23.5546 81.668 0.273438 52.9492 0.273438C24.2304 0.273438 0.949219 23.5546 0.949219 52.2734C0.949219 80.9922 24.2304 104.273 52.9492 104.273Z" fill="#0A4881"/>
<path d="M12.8011 50.1818C12.5465 50.1054 12.3174 50.063 12.1053 50.0545C11.6301 50.0545 11.2312 50.2581 10.9173 50.6909C10.6033 51.1237 10.4336 51.6837 10.4251 52.3711C10.4081 53.33 10.7051 54.1021 11.3076 54.6877C11.9101 55.2732 12.6993 55.5702 13.6581 55.5871C14.6085 55.6041 15.3892 55.3326 16.0171 54.7895C16.6451 54.2464 16.959 53.5082 16.9675 52.5917C16.976 51.8619 16.7978 51.2595 16.4329 50.7843C16.0596 50.3091 15.5844 50.0375 14.9904 49.9781L15.0158 48.6289C15.9917 48.7307 16.7808 49.1635 17.3918 49.9187C18.0028 50.6824 18.2998 51.6159 18.2828 52.7275C18.2658 54.0258 17.8161 55.0695 16.9421 55.8672C16.068 56.6648 14.9734 57.0467 13.6412 57.0212C12.2919 56.9957 11.1973 56.563 10.3487 55.7144C9.50016 54.8659 9.09285 53.7542 9.11831 52.388C9.13528 51.3019 9.41531 50.4194 9.96687 49.732C10.51 49.0532 11.2058 48.7138 12.0459 48.7307C12.3174 48.7307 12.5805 48.7817 12.835 48.8835L12.818 50.1903L12.8011 50.1818Z" fill="white"/>
<path d="M19.7769 48.2998L16.8239 47.5276L17.036 46.7045C16.6457 46.0341 15.0249 45.3213 12.1992 44.583L13.4127 39.9414L18.4616 41.2652L18.7416 40.196L21.6946 40.9682L21.3892 42.1392L19.4799 41.6385L18.1731 46.6366L20.0824 47.1372L19.7769 48.3082V48.2998ZM18.1222 42.5635L14.1085 41.5112L13.5399 43.6921C15.3983 44.1757 16.6796 44.7188 17.4009 45.3213L18.1222 42.5635Z" fill="white"/>
<path d="M17.177 32.3842C17.8728 32.1466 18.5686 32.206 19.2729 32.5709C19.5445 32.7151 19.8075 32.9273 20.0791 33.2073L17.9916 37.2125C18.4753 37.3822 18.9335 37.3822 19.3578 37.2125C19.7821 37.0428 20.1215 36.7289 20.3676 36.2537C20.5712 35.8633 20.6561 35.49 20.6136 35.142C20.5712 34.7941 20.4185 34.5311 20.1639 34.3698L20.724 33.3007C21.2755 33.6571 21.615 34.1747 21.7338 34.845C21.8525 35.5239 21.7338 36.2112 21.3689 36.9071C20.9361 37.7386 20.3082 38.2817 19.4935 38.5193C18.6789 38.7569 17.8558 38.6551 17.0072 38.2138C16.1587 37.7726 15.5986 37.1362 15.3186 36.3215C15.0471 35.5069 15.1234 34.6838 15.5562 33.8607C15.9465 33.114 16.4896 32.6218 17.1854 32.3842H17.177ZM18.6619 33.6486C18.2631 33.4704 17.8643 33.4449 17.4909 33.5722C17.1091 33.708 16.8121 33.9795 16.5999 34.3953C16.3878 34.7941 16.3369 35.2014 16.4217 35.6172C16.5151 36.033 16.7357 36.3894 17.0836 36.6864L18.6704 33.6486H18.6619Z" fill="white"/>
<path d="M23.1287 32.0534C23.2814 31.9855 23.4256 31.8752 23.5444 31.7309C23.816 31.4085 23.7142 30.9418 23.2474 30.3308C22.7807 29.7199 21.7709 28.7779 20.2266 27.5051L23.3068 23.7969L28.1521 27.8191L27.2866 28.8543L23.2644 25.511L21.8049 27.276C23.2984 28.5149 24.2572 29.5162 24.6815 30.2629C25.1058 31.0097 25.1143 31.6376 24.6985 32.1298C24.4779 32.3928 24.2403 32.5965 23.9687 32.7492L23.1287 32.0534Z" fill="white"/>
<path d="M29.59 21.4684L29.327 21.129C29.1318 20.8829 28.8687 20.7556 28.5293 20.7471C28.1899 20.7471 27.8759 20.8574 27.5704 21.095C27.2819 21.3157 27.1037 21.5872 27.0358 21.8927C26.968 22.1982 27.0104 22.4782 27.1631 22.7243L26.1873 23.488C25.8309 22.9364 25.7206 22.3424 25.8479 21.706C25.9751 21.0696 26.3315 20.5265 26.9086 20.0852C27.4941 19.627 28.122 19.4149 28.7754 19.4488C29.4288 19.4828 29.9634 19.7628 30.3707 20.2889L32.0084 22.3849C32.1018 22.5037 32.2121 22.58 32.3394 22.597C32.4667 22.6225 32.5855 22.5885 32.6958 22.4952C32.7976 22.4188 32.8655 22.3255 32.8909 22.2321L33.4595 22.9619C33.3746 23.2334 33.2134 23.4625 32.9588 23.6577C32.7212 23.8444 32.4751 23.9377 32.2206 23.9632C31.966 23.9886 31.7199 23.9208 31.4908 23.785C31.4314 24.5487 31.075 25.1766 30.4301 25.6773C29.9125 26.0761 29.3779 26.2713 28.8178 26.2373C28.2578 26.2119 27.7996 25.9658 27.4347 25.5076C27.0783 25.0493 26.968 24.5657 27.0868 24.048C27.214 23.5304 27.5535 23.0552 28.105 22.6225L29.5815 21.4684H29.59ZM29.0724 24.9051C29.327 24.9051 29.5815 24.7948 29.8446 24.5911C30.2095 24.3111 30.4301 23.9462 30.5234 23.5134C30.6168 23.0722 30.5319 22.6903 30.2689 22.3509L30.2095 22.2745L28.9112 23.2843C28.6396 23.4965 28.4529 23.7341 28.3681 23.9802C28.2832 24.2262 28.3172 24.4554 28.4699 24.642C28.6142 24.8287 28.8178 24.9221 29.0639 24.9136L29.0724 24.9051Z" fill="white"/>
<path d="M35.2083 22.3904L32.4844 16.7135L33.6978 16.128L34.801 18.4361L37.5673 17.1124L36.4641 14.8043L37.6776 14.2188L40.4015 19.8956L39.188 20.4812L38.034 18.0797L35.2677 19.4035L36.4217 21.8049L35.2083 22.3904Z" fill="white"/>
<path d="M41.2413 13.7296C41.6826 12.9914 42.353 12.5162 43.244 12.3125C44.135 12.1088 44.9411 12.2361 45.6624 12.7028C46.3836 13.1695 46.8504 13.8739 47.0625 14.7988C47.2746 15.7237 47.1643 16.5553 46.7231 17.2936C46.2818 18.0318 45.6199 18.507 44.7289 18.7107C43.838 18.9143 43.0318 18.787 42.3021 18.3203C41.5808 17.8536 41.1141 17.1578 40.8934 16.2244C40.6813 15.2994 40.7916 14.4679 41.2329 13.7296H41.2413ZM43.0488 17.2596C43.4731 17.5651 43.9398 17.65 44.4489 17.5397C44.9581 17.4209 45.3399 17.1323 45.5775 16.6741C45.8151 16.2159 45.8745 15.6983 45.7387 15.1043C45.603 14.5103 45.3229 14.069 44.8987 13.772C44.4744 13.4665 44.0162 13.3732 43.507 13.492C42.9979 13.6108 42.616 13.8993 42.3699 14.3575C42.1239 14.8158 42.0645 15.3419 42.2002 15.9274C42.336 16.5129 42.616 16.9626 43.0403 17.2596H43.0488Z" fill="white"/>
<path d="M53.5223 11.7038L57.0099 12.0263C57.553 12.0772 57.9858 12.2808 58.2998 12.6372C58.6222 12.9936 58.758 13.4264 58.7155 13.9186C58.6646 14.4786 58.4186 14.8944 57.9688 15.1829C58.5204 15.5648 58.7665 16.0909 58.7071 16.7612C58.6561 17.2704 58.444 17.6692 58.0622 17.9662C57.6718 18.2632 57.2051 18.382 56.662 18.3311L52.9453 17.9832L53.5308 11.6953L53.5223 11.7038ZM54.5321 15.4375L54.3879 17.0328L56.4159 17.2195C56.679 17.2449 56.8996 17.1855 57.0778 17.0582C57.256 16.9225 57.3578 16.7443 57.3748 16.5067C57.4003 16.2691 57.3324 16.0739 57.1796 15.9042C57.0269 15.7345 56.8232 15.6496 56.5602 15.6242L54.5321 15.4375ZM54.7697 12.9003L54.6255 14.4362L56.4244 14.6059C56.679 14.6313 56.8911 14.5719 57.0693 14.4447C57.2475 14.3089 57.3409 14.1392 57.3578 13.9186C57.3748 13.6979 57.3154 13.5112 57.1712 13.35C57.0269 13.1888 56.8233 13.1039 56.5687 13.0785L54.7697 12.9088V12.9003Z" fill="white"/>
<path d="M72.0653 16.9343C72.2435 16.7391 72.3793 16.5439 72.4726 16.3488C72.6763 15.916 72.6508 15.4747 72.3878 15.008C72.1247 14.5413 71.6835 14.1595 71.064 13.8625C70.1985 13.4467 69.3754 13.3958 68.5947 13.7097C67.814 14.0237 67.22 14.6092 66.8042 15.4663C66.3969 16.3233 66.3121 17.1464 66.5581 17.9441C66.8042 18.7332 67.3388 19.3272 68.1619 19.726C68.8238 20.04 69.4433 20.1249 70.0288 19.9891C70.6143 19.8533 71.064 19.5224 71.361 19.0132L72.5745 19.5903C72.0823 20.4303 71.3525 20.9734 70.4106 21.2195C69.4602 21.4571 68.4929 21.3383 67.4831 20.8631C66.3121 20.3031 65.5484 19.463 65.1835 18.3429C64.8271 17.2228 64.9289 16.0602 65.5059 14.8638C66.0829 13.6418 66.94 12.8272 68.0601 12.4199C69.1802 12.0041 70.3597 12.0975 71.5901 12.683C72.566 13.1497 73.2533 13.7776 73.6521 14.5498C74.0425 15.3305 74.0595 16.1027 73.7031 16.8579C73.5843 17.104 73.4315 17.3161 73.2363 17.5113L72.0568 16.9428L72.0653 16.9343Z" fill="white"/>
<path d="M78.2541 20.0843L75.5132 23.3682L80.7659 22.1802L81.7417 22.9949L77.7025 27.8317L76.6673 26.9661L79.4166 23.6737L74.1046 24.8278L73.1797 24.0556L77.2189 19.2188L78.2541 20.0843Z" fill="white"/>
<path d="M84.9332 25.0397C85.8751 24.9888 86.6642 25.2943 87.3007 25.9477L88.268 26.9235C88.6669 27.3309 89.0911 27.6788 89.5324 27.9418L88.5396 28.697C88.0983 28.4425 87.7165 28.154 87.377 27.823L86.4436 26.8726C85.9854 26.4144 85.4169 26.1938 84.738 26.2277C84.0592 26.2617 83.3464 26.5926 82.5911 27.2375C83.1003 27.0169 83.6094 26.9829 84.127 27.1187C84.6447 27.2545 85.0859 27.56 85.4423 28.0352C85.9599 28.714 86.1466 29.4692 86.0109 30.3008C85.8751 31.1324 85.4253 31.8282 84.6786 32.3968C83.9319 32.9653 83.1257 33.2029 82.2772 33.1011C81.4201 32.9993 80.7158 32.5835 80.1558 31.8537C79.5618 31.073 79.3751 30.199 79.6212 29.2401C79.8588 28.2813 80.597 27.3309 81.8189 26.3974C82.9475 25.5319 83.9913 25.0737 84.9332 25.0312V25.0397ZM80.8176 29.8087C80.7158 30.3093 80.8176 30.7675 81.1316 31.1833C81.4456 31.5906 81.8614 31.8113 82.3705 31.8452C82.8881 31.8707 83.3803 31.7094 83.8555 31.3361C84.3307 30.9797 84.6192 30.5469 84.721 30.0378C84.8229 29.5371 84.721 29.0789 84.4071 28.6631C84.0931 28.2558 83.6773 28.0352 83.1682 28.0012C82.6505 27.9758 82.1584 28.137 81.6917 28.5019C81.2165 28.8668 80.9195 29.2995 80.8092 29.8087H80.8176Z" fill="white"/>
<path d="M89.9083 33.8203L86.0219 35.6022L91.2745 36.7987L91.8006 37.9528L86.0728 40.5748L85.5127 39.3444L89.4161 37.5624L84.1296 36.315L83.6289 35.2119L89.3567 32.5898L89.9168 33.8203H89.9083Z" fill="white"/>
<path d="M83.5319 43.5283L92.6964 41.6445L92.968 42.9683L92.1703 43.1295C92.9001 43.5368 93.3498 44.1393 93.5195 44.9539C93.6892 45.7686 93.5195 46.4983 93.0189 47.1517C92.5182 47.7966 91.8054 48.2209 90.872 48.4076C89.9386 48.6028 89.1155 48.4924 88.4027 48.0936C87.6899 47.6948 87.2486 47.0838 87.0789 46.2692C86.9092 45.4546 87.0789 44.7163 87.5965 44.0545L83.795 44.8351L83.5234 43.5114L83.5319 43.5283ZM88.5384 44.4193C88.2245 44.8266 88.1142 45.2764 88.216 45.777C88.3178 46.2777 88.5978 46.6511 89.0476 46.8971C89.4973 47.1432 90.015 47.2111 90.6089 47.0923C91.1945 46.9735 91.6442 46.7105 91.9582 46.3031C92.2721 45.8958 92.3824 45.4461 92.2806 44.9454C92.1788 44.4448 91.8988 44.0714 91.449 43.8253C90.9908 43.5793 90.4732 43.5114 89.8961 43.6302C89.3022 43.749 88.8524 44.012 88.5384 44.4193Z" fill="white"/>
<path d="M93.9014 51.6718L89.6246 51.587L93.8335 54.9473L93.8081 56.2201L87.5117 56.0928L87.5372 54.7436L91.8224 54.8285L87.6051 51.4088L87.6305 50.1953L93.9269 50.3226L93.9014 51.6718Z" fill="white"/>
<path d="M18.5527 67.7495C18.0182 67.9786 17.4072 67.7241 17.1781 67.1895C16.949 66.6549 17.2035 66.0439 17.7381 65.8148C18.2727 65.5857 18.8837 65.8402 19.1128 66.3748C19.3504 66.9264 19.0704 67.5289 18.5527 67.7495Z" fill="white"/>
<path d="M26.4007 80.6065C26.5195 80.5471 26.6213 80.4707 26.6977 80.3944C26.8759 80.2077 26.9523 79.9871 26.9268 79.724C26.8929 79.461 26.7656 79.2149 26.5365 78.9858C26.214 78.6633 25.8491 78.519 25.4418 78.5445C25.0345 78.57 24.6527 78.7566 24.3132 79.1046C23.9653 79.4525 23.7871 79.8258 23.7617 80.2416C23.7362 80.6489 23.8805 81.0223 24.2029 81.3363C24.4405 81.5739 24.7036 81.7097 24.9921 81.7521C25.2806 81.786 25.5267 81.7181 25.7388 81.5315L26.4346 82.2188C26.0104 82.5752 25.5182 82.7364 24.9581 82.6855C24.3981 82.6346 23.8974 82.3885 23.4477 81.9472C22.9301 81.4296 22.6755 80.8356 22.701 80.1653C22.7179 79.4949 23.0064 78.8924 23.541 78.3493C24.0841 77.7978 24.7036 77.5177 25.3824 77.5008C26.0613 77.4838 26.6722 77.7469 27.2153 78.2814C27.6566 78.7227 27.9027 79.1979 27.9536 79.707C28.0045 80.2162 27.8517 80.6489 27.4953 81.0053C27.3935 81.1072 27.2577 81.2005 27.0965 81.2684L26.4092 80.5895L26.4007 80.6065Z" fill="white"/>
<path d="M32.8648 81.676C33.3485 81.8373 33.7983 81.9052 34.2225 81.8882C34.6468 81.8712 34.9438 81.7694 35.1305 81.5742L35.8942 82.0409L32.186 88.1251L31.2695 87.5651L34.214 82.7368C33.5946 82.8386 32.9667 82.7792 32.3387 82.5586L32.8733 81.6845L32.8648 81.676Z" fill="white"/>
<path d="M39.1031 90.8408C38.2291 91.2396 37.2618 91.2227 36.2011 90.7984C35.6495 90.5777 35.2422 90.3317 34.9961 90.0601L35.3525 89.1691C35.641 89.4237 36.0313 89.6528 36.5065 89.8395C37.2618 90.145 37.9746 90.1619 38.6279 89.8904C39.2898 89.6189 39.7565 89.1097 40.0451 88.3545C39.7905 88.643 39.4511 88.8127 39.0183 88.8806C38.5855 88.9485 38.1528 88.8806 37.703 88.7109C37.0326 88.4394 36.5575 88.0066 36.2774 87.3956C35.9974 86.7847 35.9804 86.1652 36.2435 85.5203C36.5065 84.8669 36.9648 84.4256 37.6097 84.1965C38.2546 83.9674 38.9504 84.0014 39.6887 84.2984C40.4863 84.6208 41.0294 85.1554 41.3009 85.8937C41.5725 86.6319 41.5046 87.5144 41.0973 88.5327C40.639 89.6698 39.9687 90.442 39.0947 90.8408H39.1031ZM40.2402 86.021C40.0535 85.6646 39.7481 85.393 39.3068 85.2148C38.8655 85.0366 38.4497 85.0112 38.0679 85.1469C37.6776 85.2742 37.4145 85.5373 37.2533 85.9191C37.1005 86.301 37.1175 86.6743 37.3042 87.0392C37.4909 87.4041 37.8048 87.6757 38.2461 87.8539C38.6789 88.032 39.0862 88.049 39.4765 87.9133C39.8584 87.7775 40.1299 87.5229 40.2826 87.1326C40.4354 86.7507 40.4269 86.3773 40.2402 86.0125V86.021Z" fill="white"/>
<path d="M46.9874 92.61C46.2068 93.1701 45.2564 93.3398 44.1363 93.1277C43.5507 93.0174 43.1095 92.8476 42.8125 92.6355L42.9907 91.6936C43.3301 91.8888 43.7459 92.033 44.2551 92.1348C45.0527 92.2876 45.757 92.1688 46.351 91.7785C46.945 91.3881 47.3099 90.7941 47.4457 89.9965C47.2505 90.3274 46.9535 90.565 46.5377 90.7093C46.1304 90.8535 45.6891 90.8875 45.2139 90.7941C44.5096 90.6583 43.9581 90.3189 43.5677 89.7758C43.1774 89.2328 43.0416 88.6218 43.1774 87.9429C43.3132 87.2471 43.6695 86.7295 44.2635 86.3816C44.8575 86.0337 45.5449 85.9318 46.3171 86.0846C47.1656 86.2458 47.7936 86.6616 48.2009 87.3405C48.6082 88.0108 48.71 88.8933 48.5064 89.971C48.2773 91.176 47.7681 92.0585 46.9874 92.6185V92.61ZM47.1741 87.6629C46.928 87.3489 46.5716 87.1453 46.1134 87.052C45.6467 86.9671 45.2394 87.018 44.883 87.2217C44.5266 87.4253 44.3145 87.7308 44.2381 88.1381C44.1617 88.5454 44.2466 88.9103 44.5011 89.2328C44.7557 89.5552 45.1121 89.7589 45.5788 89.8522C46.037 89.9371 46.4444 89.8777 46.7923 89.674C47.1402 89.4704 47.3608 89.1649 47.4372 88.7576C47.5135 88.3503 47.4372 87.9854 47.1826 87.6714L47.1741 87.6629Z" fill="white"/>
<path d="M51.6795 88.1131C52.3159 87.3833 53.1815 87.01 54.2676 86.993C54.8022 86.9845 55.252 87.0439 55.6168 87.1881L55.6338 88.147C55.235 88.0367 54.8107 87.9858 54.3695 87.9943C53.5803 88.0113 52.9524 88.2658 52.4687 88.775C51.985 89.2841 51.7559 89.946 51.7813 90.7521C51.9086 90.4042 52.1632 90.1157 52.545 89.8866C52.9269 89.6575 53.3512 89.5387 53.8264 89.5387C54.5392 89.5302 55.1417 89.7423 55.6338 90.1836C56.126 90.6248 56.3806 91.1934 56.389 91.8807C56.3975 92.585 56.1514 93.1705 55.6423 93.6287C55.1332 94.087 54.4798 94.3246 53.6906 94.3415C52.8251 94.3585 52.1292 94.0785 51.5862 93.51C51.0431 92.9414 50.7715 92.1098 50.7546 91.0237C50.7376 89.8187 51.0431 88.8598 51.6795 88.1301V88.1131ZM52.5196 92.9584C52.8336 93.2214 53.2239 93.3402 53.6991 93.3318C54.1743 93.3318 54.5646 93.1875 54.8616 92.916C55.1586 92.6444 55.3114 92.3135 55.3029 91.9146C55.3029 91.5073 55.1417 91.1764 54.8277 90.9133C54.5137 90.6503 54.1234 90.5315 53.6482 90.54C53.173 90.54 52.7826 90.6842 52.4856 90.9558C52.1887 91.2273 52.0359 91.5667 52.0444 91.974C52.0444 92.3729 52.2056 92.7038 52.5196 92.9669V92.9584Z" fill="white"/>
<path d="M62.0312 92.9296L60.8008 88.0419L64.0847 87.2188L64.2969 88.0503L62.0651 88.6104L63.0834 92.675L62.0397 92.9381L62.0312 92.9296Z" fill="white"/>
<path d="M66.1859 87.4373C66.432 86.7924 66.8987 86.3342 67.5776 86.0542C68.2564 85.7741 68.9098 85.7656 69.5378 86.0457C70.1657 86.3172 70.6324 86.8094 70.9209 87.5137C71.2094 88.218 71.2349 88.8884 70.9888 89.5248C70.7427 90.1612 70.276 90.6279 69.6057 90.9079C68.9268 91.188 68.2734 91.1965 67.637 90.9249C67.0006 90.6534 66.5423 90.1612 66.2453 89.4654C65.9483 88.7611 65.9314 88.0907 66.1859 87.4458V87.4373ZM68.0867 89.9745C68.4601 90.1527 68.842 90.1697 69.2323 90.0085C69.6226 89.8472 69.8772 89.5672 70.013 89.1769C70.1403 88.7865 70.1148 88.3622 69.9281 87.921C69.7414 87.4797 69.4614 87.1658 69.088 86.9791C68.7147 86.8009 68.3328 86.7839 67.951 86.9451C67.5606 87.1064 67.2976 87.3864 67.1703 87.7767C67.0345 88.1671 67.06 88.5914 67.2466 89.0326C67.4333 89.4739 67.7134 89.7878 68.0867 89.9745Z" fill="white"/>
<path d="M74.0305 89.8636L72.7067 87.8101L73.2837 87.4367C73.4195 86.8258 72.851 85.5359 71.5781 83.5673L74.8027 81.4883L77.0683 85.0013L77.8151 84.5177L79.1388 86.5712L78.3242 87.0973L77.4672 85.7735L73.9965 88.0137L74.8536 89.3375L74.039 89.8636H74.0305ZM76.1519 85.5868L74.3529 82.7951L72.834 83.7709C73.6656 85.0607 74.1323 86.079 74.2341 86.8173L76.1519 85.5784V85.5868Z" fill="white"/>
<path d="M80.0069 79.6913L79.7693 79.4368C79.5996 79.2501 79.3789 79.1737 79.1074 79.1907C78.8359 79.2076 78.5898 79.3264 78.3691 79.5301C78.157 79.7253 78.0297 79.9544 77.9958 80.2005C77.9618 80.4465 78.0128 80.6672 78.157 80.8539L77.4357 81.5242C77.1133 81.1084 76.986 80.6417 77.0454 80.1326C77.1048 79.6234 77.3509 79.1652 77.7752 78.7664C78.2164 78.3591 78.6916 78.1469 79.2177 78.13C79.7438 78.113 80.1851 78.2997 80.55 78.69L82.001 80.2514C82.0859 80.3447 82.1792 80.3871 82.2725 80.3956C82.3744 80.4041 82.4677 80.3702 82.5526 80.2938C82.6289 80.2259 82.6714 80.1495 82.6883 80.0647L83.1975 80.6078C83.1551 80.8284 83.0363 81.0236 82.8411 81.2018C82.6629 81.363 82.4762 81.4648 82.2725 81.4903C82.0689 81.5242 81.8737 81.4903 81.6785 81.3969C81.6785 82.0079 81.441 82.534 80.9658 82.9753C80.5839 83.3317 80.1681 83.5184 79.7184 83.5353C79.2686 83.5523 78.8868 83.3911 78.5728 83.0432C78.2588 82.7037 78.1316 82.3219 78.1994 81.9061C78.2588 81.4818 78.5049 81.083 78.9122 80.7011L80.0069 79.6828V79.6913ZM79.8287 82.4576C80.0323 82.4322 80.2275 82.3304 80.4227 82.1522C80.6942 81.9061 80.847 81.6006 80.8894 81.2442C80.9318 80.8878 80.8385 80.5823 80.6094 80.3362L80.55 80.2768L79.5911 81.1678C79.3874 81.3545 79.2601 81.5582 79.2092 81.7618C79.1583 81.9655 79.2007 82.1437 79.3365 82.2879C79.4638 82.4237 79.6335 82.4831 79.8287 82.4576Z" fill="white"/>
<path d="M89.0072 66.4049C89.5418 66.634 89.7879 67.2449 89.5588 67.7795C89.3297 68.3141 88.7187 68.5602 88.1841 68.3311C87.6495 68.102 87.4034 67.491 87.6325 66.9564C87.8701 66.4049 88.4896 66.1842 89.0072 66.4049Z" fill="white"/>
<path d="M38.0951 38.043L63.2805 40.7584L75.1944 47.5808L75.9072 48.93L79.7257 50.8817C79.7257 50.8817 79.1572 54.9803 73.9894 53.6311L65.5547 50.8563L58.0364 55.9222L54.9052 66.105H50.8491V55.9137H36.678L33.6147 66.105H29.5586V51.0005L38.1036 38.043H38.0951ZM65.0625 52.4601L60.4718 59.0958L63.0175 66.105H67.133L65.071 52.4601H65.0625ZM40.8445 62.1507L45.0025 56.7029L46.4959 66.1135H42.3634L40.836 62.1592L40.8445 62.1507Z" fill="white"/>
</g>
<defs>
<clipPath id="clip0_710_155173">
<rect width="104" height="104" fill="white" transform="translate(0.949219 0.273438)"/>
</clipPath>
</defs>
</svg>
