<svg width="343" height="809" viewBox="0 0 343 809" fill="none" xmlns="http://www.w3.org/2000/svg">
<g clip-path="url(#clip0_710_155463)">
<rect width="343" height="809" fill="#F5F3F1"/>
<g clip-path="url(#clip1_710_155463)">
<path d="M46.9653 663.512C36.128 647.853 7.66931 640.728 -14.1974 640.728C-20.9387 640.728 -27.168 641.347 -32.7787 642.541C-53.344 646.979 -70.9014 650.947 -86.3894 654.467C-127.861 663.875 -152.885 669.571 -173.685 669.571C-191.008 669.571 -205.856 665.709 -226.635 655.789C-248.331 645.421 -264.267 635.565 -277.045 627.629C-297.12 615.192 -310.368 607 -328.501 607C-334.432 607 -340.832 607.917 -348 609.795V611.331C-340.811 609.432 -334.411 608.515 -328.501 608.515C-310.773 608.515 -297.675 616.643 -277.835 628.931C-265.013 636.867 -249.056 646.765 -227.275 657.155C-206.261 667.181 -191.243 671.085 -173.685 671.085C-152.715 671.085 -127.627 665.389 -86.0694 655.96C-70.5814 652.44 -53.0454 648.472 -32.48 644.035C-26.9974 642.861 -20.8533 642.264 -14.2187 642.264C7.28533 642.264 35.2106 649.197 45.728 664.408C50.3573 671.128 51.1253 678.744 47.9893 687.085C41.7173 703.725 12.384 718.403 -13.5147 731.373C-29.152 739.203 -43.936 746.605 -51.5307 753.475C-73.7387 773.549 -68.4054 800.771 -59.4027 830.104H-57.8454C-66.784 801.069 -72.1814 774.168 -50.5494 754.584C-43.104 747.843 -28.4053 740.504 -12.8533 732.717C13.28 719.64 42.8907 704.792 49.376 687.619C52.704 678.808 51.8933 670.701 46.9653 663.576V663.512Z" fill="white"/>
<path d="M32.1619 763.245C29.3672 760.429 25.7192 759 21.3246 759C7.92722 759 -8.86212 772.269 -14.4514 778.307C-35.0595 800.6 -37.4274 813.08 -33.3101 829.869H-32.2008C-36.2968 813.293 -33.9928 801.005 -13.6621 779.032C-8.15809 773.08 8.28988 760.067 21.3459 760.067C25.4419 760.067 28.8339 761.389 31.4152 763.992C35.8739 768.451 38.0926 776.749 38.0286 788.632C37.9646 803.053 35.4899 816.387 32.3326 829.869H33.4206C36.5566 816.387 39.0099 803.075 39.0952 788.632C39.1592 776.472 36.8126 767.917 32.1619 763.245Z" fill="white"/>
<path d="M327.171 767C326.36 759.789 321.816 753.517 313.667 748.397C298.968 739.139 268.205 735 244.227 735C239.555 735 235.267 735.149 231.491 735.469C208.088 737.411 183.725 742.019 157.016 749.592C153.197 750.68 149.379 751.832 145.709 753.069C101.144 767.875 75.3733 791.277 63 830.211H64.1307C76.4613 791.832 101.976 768.707 146.029 754.072C149.699 752.856 153.475 751.704 157.293 750.616C183.96 743.085 208.237 738.477 231.576 736.536C235.331 736.216 239.576 736.067 244.227 736.067C268.035 736.067 298.563 740.163 313.091 749.315C320.941 754.264 325.315 760.259 326.104 767.128C328.067 784.429 307.907 804.717 291.693 821.016C288.429 824.301 285.379 827.373 282.712 830.189H284.184C286.659 827.565 289.453 824.771 292.44 821.763C308.803 805.293 329.176 784.813 327.149 767H327.171Z" fill="white"/>
<path d="M-13.1595 0C-16.8289 0 -22.0129 2.34667 -25.8315 13.4827C-30.1195 26.0267 -21.8636 28.928 -13.1169 32.0213C-11.5809 32.5547 -10.0022 33.1307 -8.46621 33.7493C-5.03154 35.136 -2.13021 35.84 0.131123 35.84C2.64846 35.84 4.4618 34.9867 5.50713 33.3227C8.77113 28.1387 3.54446 16.6827 1.13379 12.0107C-2.74887 4.50133 -8.10356 0.0213298 -13.1809 0.0213298L-13.1595 0ZM4.61114 32.7467C2.90447 35.456 -1.40489 35.4347 -8.08222 32.7467C-9.63956 32.128 -11.2396 31.552 -12.7756 31.0187C-21.3516 27.9893 -28.7755 25.3653 -24.8289 13.824C-21.9702 5.46134 -17.9382 1.04533 -13.1809 1.04533C-8.42356 1.04533 -3.51687 5.31199 0.173799 12.4587C4.99513 21.8667 6.65912 29.44 4.58978 32.7253L4.61114 32.7467Z" fill="white"/>
<path d="M-0.536007 826.917C-1.47467 823.504 -3.07468 821.072 -4.61068 818.747C-6.97868 815.184 -9.00537 812.091 -8.1947 806.267C-7.08537 798.309 2.55733 778.64 12.968 778.64C13.0747 778.64 13.1813 778.64 13.2667 778.64C18.472 778.832 21.7787 780.155 23.1013 782.544C25.512 786.917 21.16 794.341 17.6826 800.293C15.8053 803.515 14.1626 806.309 13.8853 808.123C13.3093 811.728 14.9093 813.797 16.4453 815.781C17.6826 817.36 18.8347 818.853 18.792 821.072C18.6853 825.701 16.6373 827.877 14.4613 830.181C14.3547 830.288 14.2693 830.395 14.1627 830.501H15.0373C17.256 828.155 19.3253 825.893 19.432 821.093C19.496 818.661 18.1947 816.997 16.9573 815.397C15.5067 813.52 13.992 811.557 14.5253 808.229C14.8027 806.544 16.4027 803.792 18.2587 800.635C21.8213 794.533 26.2586 786.96 23.6773 782.245C22.2266 779.6 18.8346 778.213 13.3093 778C13.2026 778 13.096 778 12.968 778C2.216 778 -7.68268 798.053 -8.81335 806.181C-9.66668 812.261 -7.44803 815.589 -5.12269 819.109C-3.60803 821.413 -2.02934 823.781 -1.13334 827.088C-0.770671 828.389 -0.60003 829.499 -0.493364 830.501H0.146644C0.0399769 829.435 -0.152018 828.283 -0.514685 826.939L-0.536007 826.917Z" fill="white"/>
<path d="M216.333 800.661C215.309 800.213 213.709 800 211.597 800C199.224 800 173.005 807.381 172.728 807.445C169.805 808.277 166.883 809.173 164.045 810.112C149.539 814.933 138.808 821.376 131 830.357H131.853C139.576 821.675 150.115 815.424 164.259 810.709C167.075 809.771 169.997 808.875 172.92 808.043C173.176 807.957 199.309 800.619 211.597 800.619C213.624 800.619 215.139 800.832 216.077 801.237C220.813 803.264 219.085 808.661 215.267 820.501C214.349 823.339 213.283 826.667 212.195 830.357H212.856C213.944 826.752 214.989 823.488 215.885 820.715C219.704 808.875 221.624 802.923 216.355 800.661H216.333Z" fill="white"/>
<path d="M254.717 784.408C252.861 780.675 246.461 779.352 234.984 780.291C214.504 781.976 192.936 786.094 169.043 792.856C165.843 793.752 162.707 794.734 159.677 795.736C137.981 802.947 122.856 813.998 113 830.147H113.747C123.517 814.296 138.493 803.438 159.869 796.334C162.877 795.331 166.035 794.371 169.213 793.475C193.064 786.734 214.611 782.616 235.048 780.931C237.395 780.739 239.549 780.632 241.469 780.632C248.659 780.632 252.797 781.955 254.163 784.686C256.552 789.486 249.832 798.36 243.347 806.958C242.195 808.472 241.043 810.008 239.933 811.523C235.432 817.646 231.421 823.896 227.816 830.168H228.563C232.104 824.024 236.029 817.902 240.445 811.907C241.555 810.392 242.707 808.878 243.859 807.342C250.771 798.19 257.299 789.55 254.739 784.408H254.717Z" fill="white"/>
<path d="M276.245 795.019C286.08 785.781 290.027 778.464 287.979 773.28C285.547 767.136 274.688 764 255.723 764C249.408 764 242.219 764.341 233.749 765.045C212.309 766.816 189.803 771.104 164.971 778.123C161.6 779.083 158.229 780.107 154.965 781.195C126.507 790.645 107.307 806.389 96 829.792H96.7253C107.968 806.688 127.019 791.157 155.179 781.813C158.443 780.725 161.813 779.701 165.163 778.741C189.973 771.723 212.416 767.456 233.835 765.685C242.283 764.981 249.451 764.64 255.765 764.64C274.432 764.64 285.077 767.627 287.424 773.515C289.365 778.421 285.483 785.504 275.861 794.549C273.92 796.363 272.064 798.133 270.485 799.712C263.125 807.115 256.768 813.515 252.011 819.979C249.643 823.2 247.424 826.485 245.248 829.792H246.016C248.107 826.592 250.261 823.456 252.544 820.363C257.28 813.941 263.616 807.563 270.955 800.16C272.512 798.581 274.368 796.832 276.309 795.019H276.245Z" fill="white"/>
<path d="M30.7653 -117.221C31.8319 -121.531 32.8772 -125.776 33.8586 -130H32.7706C31.8106 -125.861 30.7866 -121.701 29.7413 -117.477C27.7786 -109.563 25.7519 -101.392 24.1093 -93.0293C18.6479 -65.1893 13.9333 -28.688 26.1146 6.72532C31.0639 21.1253 43.4159 32.88 54.2959 43.248C63.9813 52.4853 72.3439 60.464 71.5973 67.1627C71.2559 70.2347 68.9946 72.9867 64.7066 75.5467C62.7226 76.72 59.3519 77.3173 54.6586 77.3173C38.2746 77.3173 9.38927 70.0853 -11.9867 62.9173C-35.2401 55.1307 -63.8694 42.7147 -68.3068 27.824C-69.7148 23.088 -68.5627 18.288 -64.8507 13.5947C-60.0934 7.55732 -54.9947 2.26666 -50.0667 -2.87467C-40.3601 -12.9653 -31.1868 -22.5013 -25.1068 -36.6453C-16.4454 -56.8267 -15.4001 -77.8827 -21.9921 -99.216C-23.5921 -104.379 -25.1921 -109.136 -26.6214 -113.339C-28.7121 -119.547 -30.5467 -124.965 -31.7841 -130H-32.8934C-31.6347 -124.859 -29.7787 -119.333 -27.6241 -112.997C-26.2161 -108.795 -24.5947 -104.059 -23.0161 -98.896C-16.5094 -77.8187 -17.5547 -57.0187 -26.1094 -37.072C-32.1041 -23.0987 -41.2134 -13.6267 -50.8561 -3.62134C-55.8054 1.52 -60.9254 6.85333 -65.7254 12.9333C-69.6507 17.9253 -70.8881 23.0453 -69.3734 28.144C-64.8081 43.4613 -35.8374 56.0693 -12.3707 63.9413C9.09059 71.1307 38.1039 78.384 54.6159 78.384C59.5013 78.384 63.0639 77.744 65.2186 76.464C69.8053 73.7333 72.2373 70.7253 72.6213 67.2907C73.4319 60.0587 64.8986 51.9093 54.9999 42.48C44.2053 32.1973 31.9599 20.528 27.0959 6.36265C14.9999 -28.816 19.6933 -65.1467 25.1333 -92.8373C26.7759 -101.157 28.7813 -109.328 30.7439 -117.221H30.7653Z" fill="white"/>
<path d="M307.435 765.171C301.163 751.816 275.84 749 255.68 749C248.597 749 240.939 749.341 232.896 750.003C210.496 751.859 187.072 756.296 161.28 763.592C157.675 764.616 154.091 765.725 150.635 766.856C128.448 774.216 111.381 784.883 98.4747 799.432C90.752 808.136 84.6507 818.163 80 829.64H80.6613C93.0133 799.176 115.755 779.123 150.848 767.475C154.304 766.323 157.867 765.235 161.472 764.211C187.221 756.936 210.603 752.499 232.96 750.643C240.981 749.981 248.64 749.64 255.701 749.64C275.669 749.64 300.736 752.371 306.859 765.427C313.579 779.741 297.259 795.08 286.443 805.235C284.608 806.963 282.88 808.605 281.408 810.056C274.475 817.032 268.48 823.069 264.363 828.659C264.128 828.979 263.893 829.299 263.659 829.64H264.448C264.597 829.448 264.725 829.256 264.875 829.043C268.949 823.496 274.923 817.48 281.856 810.525C283.307 809.075 285.035 807.432 286.869 805.725C297.813 795.443 314.325 779.912 307.413 765.192L307.435 765.171Z" fill="white"/>
<path d="M14.6497 -129.872L14.7563 -130H13.8817C12.5377 -128.571 11.1937 -127.077 10.255 -124.901C7.60966 -118.672 8.35632 -112.187 9.08166 -105.915C9.48699 -102.416 9.91368 -98.8107 9.74302 -95.2693C9.48702 -89.7013 8.33499 -83.9413 7.24699 -78.352C6.35099 -73.744 5.41234 -68.9867 4.96434 -64.336C2.23367 -36.112 4.70834 -10.5973 12.303 11.504C13.8817 16.0907 20.0683 23.152 26.6177 30.6187C34.9803 40.176 43.6417 50.0533 43.983 56.048C44.0683 57.392 43.727 58.4373 42.9377 59.2693C40.6763 61.6587 34.6176 62.1067 24.911 60.5707C17.871 59.4613 11.087 56.5173 4.53768 53.6587C0.719011 51.9947 -3.24899 50.2667 -7.19566 48.944C-8.30499 48.56 -9.45701 48.1973 -10.6517 47.792C-24.8383 43.12 -44.2517 36.6987 -47.0463 25.4773C-48.369 20.1227 -45.7663 14 -39.3023 7.28C-29.1263 -3.30133 -18.5877 -14.2453 -11.4623 -30.864C-4.63566 -46.8 3.23634 -77.7973 0.228335 -94.5653C-0.390332 -98 -1.81967 -100.325 -3.20633 -102.565C-5.06233 -105.573 -6.81168 -108.411 -6.02235 -113.552C-5.42502 -117.349 -3.95301 -119.568 -2.65168 -121.509C-1.09434 -123.856 0.270994 -125.989 -0.113006 -130H-0.753013C-0.369013 -126.181 -1.64901 -124.197 -3.18501 -121.851C-4.52901 -119.845 -6.04367 -117.563 -6.641 -113.637C-7.473 -108.261 -5.65967 -105.317 -3.73967 -102.224C-2.37433 -100.027 -0.987651 -97.7653 -0.390317 -94.4373C2.59635 -77.776 -5.233 -46.9493 -12.0383 -31.0987C-19.121 -14.5867 -29.617 -3.68532 -39.7503 6.85334C-46.3637 13.744 -49.0303 20.0587 -47.6437 25.648C-44.785 37.2107 -25.1583 43.696 -10.8223 48.432C-9.62768 48.816 -8.47566 49.2 -7.36633 49.584C-3.44099 50.9067 0.505676 52.6133 4.30301 54.2773C10.895 57.136 17.7003 60.1013 24.8257 61.232C28.6443 61.8293 31.9297 62.1493 34.6177 62.1493C39.0123 62.1493 41.8923 61.36 43.407 59.7387C44.303 58.7787 44.7083 57.5413 44.623 56.048C44.2603 49.84 35.535 39.8773 27.087 30.2347C20.5803 22.8107 14.4363 15.792 12.9003 11.3333C5.32701 -10.6827 2.87366 -36.112 5.58299 -64.2293C6.03099 -68.8373 6.96967 -73.5947 7.86567 -78.1813C8.97501 -83.792 10.1057 -89.5733 10.3617 -95.184C10.5323 -98.768 10.1057 -102.416 9.70034 -105.936C8.95367 -112.421 8.22834 -118.523 10.831 -124.603C11.791 -126.843 13.2203 -128.357 14.6283 -129.851L14.6497 -129.872Z" fill="white"/>
<path d="M83.7378 618.165C112.047 614.944 142.404 582.155 142.788 554.379C143.386 511.797 118.917 477.771 95.2365 444.875C91.2258 439.285 87.0658 433.504 83.1405 427.829L80.7725 424.416C69.6365 408.373 57.0072 390.176 52.8898 370.528C49.4125 353.867 44.1005 315.104 49.8818 301.707C54.1272 291.893 66.2018 286.283 77.8712 280.864C85.9352 277.109 93.5511 273.568 98.9058 268.725L99.1618 268.491C111.364 257.44 121.626 251.772 129.946 251.488C133.722 251.36 138.415 251.189 145.05 250.571C153.946 249.739 159.194 248.437 163.034 247.499C165.466 246.901 167.236 246.453 168.794 246.453C172.634 246.453 175.855 249.184 186.5 258.187C217.967 284.832 217.37 331.168 216.815 375.989C216.09 432.373 215.343 490.699 279.172 509.152C288.346 511.797 297.284 513.163 305.732 513.163C329.732 513.163 350.148 502.432 364.804 482.165C386.308 452.405 392.026 405.984 379.013 366.624C348.997 275.787 277.274 223.84 200.132 174.347C130.01 129.355 63.2365 116.96 6.12717 108.875C1.9885 108.299 -1.93682 108 -5.56349 108C-28.7102 108 -39.7182 119.776 -53.6488 134.688C-58.9822 140.405 -64.5075 146.293 -71.3555 152.331C-79.2062 159.221 -89.1688 163.936 -98.8328 168.501C-114.577 175.947 -129.446 182.965 -135.59 198.603C-148.625 231.776 -116.603 257.611 -88.3368 280.437C-75.2595 290.997 -62.9075 300.96 -55.6542 310.923C-26.9609 350.432 -35.5368 417.056 -61.5635 454.496C-69.6915 466.187 -85.2648 480.629 -101.755 495.947C-129.062 521.291 -160.017 550.027 -165.478 574.155C-168.038 585.504 -167.377 593.44 -163.43 598.389C-160.123 602.528 -154.555 604.533 -146.406 604.533C-132.987 604.533 -113.787 599.008 -93.4568 593.163C-68.6035 586.016 -40.4222 577.909 -16.4008 577.909C-4.94482 577.909 4.5485 579.68 12.5912 583.349C21.8498 587.573 29.7005 593.653 37.2738 599.563C49.7965 609.291 61.6151 618.485 78.3405 618.485C80.0898 618.485 81.9032 618.379 83.7165 618.165H83.7378ZM13.0605 582.368C4.8685 578.635 -4.75284 576.821 -16.3795 576.821C-40.5502 576.821 -68.8168 584.949 -93.7342 592.117C-114.001 597.941 -133.137 603.445 -146.406 603.445C-154.214 603.445 -159.505 601.568 -162.577 597.707C-166.31 593.035 -166.929 585.397 -164.433 574.389C-159.036 550.581 -128.209 521.973 -101.03 496.715C-84.4968 481.376 -68.8808 466.869 -60.6888 455.093C-34.4489 417.355 -25.8302 350.155 -54.8008 310.283C-62.1182 300.213 -74.5342 290.187 -87.6755 279.584C-115.643 257.013 -147.345 231.413 -134.609 198.987C-128.614 183.755 -113.937 176.8 -98.3848 169.461C-88.6568 164.875 -78.6088 160.117 -70.6515 153.12C-63.7608 147.061 -58.2142 141.131 -52.8595 135.413C-39.0995 120.693 -28.2408 109.067 -5.54216 109.067C-1.95816 109.067 1.92451 109.365 5.99918 109.941C62.9805 118.005 129.626 130.379 199.578 175.264C276.548 224.651 348.122 276.469 378.031 366.987C390.938 406.048 385.284 452.085 363.972 481.568C349.53 501.557 329.391 512.117 305.754 512.117C297.413 512.117 288.58 510.795 279.492 508.149C251.226 499.979 233.327 483.168 224.815 456.8C217.178 433.184 217.562 404.128 217.924 376.032C218.5 330.976 219.098 284.384 187.247 257.397C172.036 244.512 171.61 244.299 162.82 246.475C159.023 247.413 153.796 248.693 144.986 249.525C138.394 250.144 133.7 250.315 129.946 250.443C121.37 250.741 110.881 256.501 98.4792 267.723L98.2232 267.957C92.9965 272.693 85.4445 276.213 77.4445 279.925C65.5832 285.429 53.3165 291.147 48.9218 301.323C43.0338 314.955 48.3672 353.995 51.8658 370.784C56.0045 390.645 68.6978 408.928 79.8978 425.077L82.2658 428.491C86.1912 434.165 90.3512 439.947 94.3832 445.536C117.956 478.304 142.34 512.16 141.743 554.4C141.359 581.728 111.493 613.963 83.6312 617.141C81.8605 617.333 80.0898 617.44 78.3832 617.44C62.0205 617.44 50.3512 608.352 37.9778 598.752C30.3405 592.821 22.4472 586.677 13.0818 582.411L13.0605 582.368Z" fill="white"/>
<path d="M535.762 -44.9147C532.967 -44.9147 530.236 -44.936 527.548 -44.9573C524.967 -44.9573 522.428 -45 519.932 -45C505.383 -45 493.799 -44.2107 481.042 -40.3493C474.364 -38.3227 468.114 -35.144 462.055 -32.0507C451.964 -26.9093 442.407 -22.0453 430.994 -22.0453C429.095 -22.0453 427.175 -22.1733 425.298 -22.4507C416.871 -23.6667 410.578 -28.6373 404.476 -33.4373C397.628 -38.8347 391.143 -43.9333 382.076 -43.9333C381.244 -43.9333 380.412 -43.8907 379.559 -43.8053C373.948 -43.2293 364.988 -38.1947 356.306 -33.3093C350.716 -30.1733 345.447 -27.208 341.714 -25.8427C336.274 -23.8373 332.199 -22.8773 329.234 -22.152C320.274 -20.0187 319.143 -19.2293 314.77 -2.71733C313.575 1.848 312.7 6.11467 311.847 10.232C308.711 25.5493 306.236 37.6453 289.916 49.1867C278.908 56.9733 264.935 60.7493 247.186 60.7493C229.607 60.7493 211.239 57.08 195.026 53.816C186.556 52.1093 178.535 50.5093 172.604 49.8907C169.148 49.528 163.815 49.2933 158.354 49.2933C142.695 49.2933 124.348 55.032 123.068 63.2453C122.471 67.1493 125.5 72.9947 143.463 78.7333L145.468 79.3733C213.884 101.325 261.607 129.955 310.162 178.211C323.559 191.523 333.799 197.731 342.354 197.731C344.359 197.731 346.343 197.368 348.199 196.685C357.308 193.293 363.943 181.795 371.644 168.483C375.612 161.613 380.114 153.827 385.447 146.317C411.218 110.008 448.188 83.4693 489.554 71.608C501.756 68.1093 513.682 66.3387 524.967 66.3387C561.81 66.3387 587.815 84.3867 612.434 102.947V101.603C587.858 83.1067 561.852 65.272 524.967 65.272C513.575 65.272 501.564 67.064 489.255 70.584C447.655 82.5093 410.471 109.197 384.572 145.699C379.218 153.229 374.716 161.059 370.727 167.949C363.132 181.091 356.583 192.419 347.836 195.683C346.087 196.344 344.252 196.664 342.354 196.664C334.076 196.664 324.092 190.563 310.908 177.464C262.226 129.08 214.375 100.365 145.788 78.3707L143.783 77.7307C130.343 73.4427 123.367 68.344 124.135 63.4373C125.202 56.6107 141.522 50.3813 158.375 50.3813C163.794 50.3813 169.084 50.5947 172.498 50.9573C178.386 51.576 186.386 53.176 194.834 54.8827C211.09 58.1467 229.522 61.8373 247.207 61.8373C265.17 61.8373 279.356 57.9973 290.556 50.0827C307.218 38.2853 309.735 25.9973 312.914 10.4667C313.767 6.34934 314.62 2.104 315.836 -2.44C320.167 -18.888 321.063 -19.1013 329.511 -21.1067C332.519 -21.832 336.615 -22.792 342.119 -24.8187C345.938 -26.2267 351.25 -29.2133 356.86 -32.3707C365.031 -36.9573 374.311 -42.184 379.687 -42.7387C380.498 -42.824 381.308 -42.8667 382.098 -42.8667C390.802 -42.8667 397.138 -37.8747 403.858 -32.6053C410.066 -27.72 416.487 -22.664 425.191 -21.4053C427.132 -21.128 429.116 -20.9787 431.058 -20.9787C442.727 -20.9787 452.839 -26.12 462.588 -31.0907C468.604 -34.1413 474.812 -37.32 481.383 -39.304C494.034 -43.144 505.511 -43.912 519.954 -43.912C522.45 -43.912 524.967 -43.912 527.548 -43.8693C530.236 -43.848 532.967 -43.8267 535.762 -43.8267C548.796 -43.8267 560.444 -42.312 571.41 -39.176C585.255 -35.2293 598.844 -29.704 612.455 -23.2613V-24.4347C598.951 -30.792 585.468 -36.2747 571.708 -40.2C560.658 -43.3573 548.903 -44.8933 535.762 -44.8933V-44.9147Z" fill="white"/>
<path d="M535.56 -22.9573C517.618 -22.9573 498.546 -19.7147 478.301 -16.2587C455.538 -12.376 431.986 -8.36533 406.92 -8.36533C405.106 -8.36533 403.314 -8.36533 401.608 -8.42933C392.904 -8.64266 385.522 -10.072 379.016 -11.3307C373.384 -12.4187 368.52 -13.3787 363.848 -13.3787C352.754 -13.3787 344.605 -7.53333 335.709 6.76C331.421 13.6507 328.285 21.9067 325.256 29.864C319.901 43.9653 314.354 58.5573 302.13 67.1973C297.928 70.1627 289.864 72.4667 281.33 74.92C266.418 79.1867 249.522 84.008 247.218 94.0773C244.36 106.707 270.28 123.965 284.21 133.245C286.792 134.973 289.032 136.467 290.504 137.533C306.845 149.523 320.349 157.501 333.192 157.501C334.941 157.501 336.69 157.352 338.397 157.032C348.637 155.197 357.938 147.944 367.666 134.227C396.253 93.9493 437.362 64.488 483.421 51.2613C497.565 47.208 511.474 45.16 524.786 45.16C561.586 45.16 588.829 60.0293 612.253 76.584V75.7947C588.829 59.2827 561.586 44.52 524.786 44.52C511.432 44.52 497.458 46.5893 483.25 50.664C437.042 63.912 395.826 93.4587 367.154 133.864C357.533 147.432 348.36 154.6 338.29 156.392C336.626 156.691 334.92 156.84 333.192 156.84C320.52 156.84 307.122 148.904 290.888 137C289.416 135.912 287.154 134.419 284.573 132.691C270.77 123.496 245.085 106.387 247.837 94.184C250.056 84.4773 266.76 79.72 281.501 75.5173C290.098 73.064 298.205 70.76 302.493 67.7093C314.888 58.9627 320.456 44.2853 325.853 30.0987C328.861 22.1627 331.997 13.9493 336.242 7.10134C345.01 -6.99999 352.989 -12.7387 363.826 -12.7387C368.434 -12.7387 373.256 -11.8 378.866 -10.712C385.394 -9.432 392.818 -8.00267 401.565 -7.78933C403.293 -7.74667 405.085 -7.72533 406.898 -7.72533C432.029 -7.72533 455.602 -11.736 478.429 -15.64C498.61 -19.0747 517.661 -22.3387 535.538 -22.3387C546.589 -22.3387 556.338 -21.08 565.384 -18.4987C580.893 -14.0827 596.402 -7.32 612.232 0.594668V-0.130665C596.466 -8.00267 581.021 -14.7227 565.554 -19.1387C556.445 -21.7413 546.632 -23 535.517 -23L535.56 -22.9573Z" fill="white"/>
<path d="M67.2652 735.477C61.8679 743.627 55.1479 753.739 57.4732 760.736C58.4119 763.595 60.8012 765.728 64.5559 767.072C65.2599 767.328 66.0492 767.456 66.8812 767.456C75.1159 767.456 88.1719 754.72 99.6919 743.499C107.009 736.352 113.943 729.611 118.103 727.712C137.985 718.688 165.42 714.4 189.612 710.603C199.169 709.109 208.193 707.701 216.513 706.059C235.5 702.347 253.825 700.448 270.999 700.448C327.191 700.448 374.359 720.672 411.223 760.544C415.361 765.024 421.356 767.285 429.1 767.285C453.164 767.285 494.444 743.861 523.5 700.448C540.887 674.485 566.145 621.387 539.884 557.621C529.367 532.064 513.729 520.16 490.668 520.16C473.132 520.16 453.121 526.603 429.953 534.069C401.452 543.264 369.132 553.675 334.359 553.675C307.287 553.675 282.433 547.424 258.369 534.603C184.129 495.008 181.975 422.795 188.375 364.299C190.871 341.557 186.817 323.552 176.684 312.224C169.516 304.224 159.767 300 148.46 300C127.041 300 100.311 316.619 90.6679 348.405C81.6012 378.315 103.105 405.515 128.001 437.003C156.097 472.501 187.927 512.736 181.74 566.432C178.668 593.056 168.961 618.592 155.735 634.763C145.708 647.029 136.855 648.117 127.468 649.269C120.3 650.144 112.897 651.061 104.215 656.565C97.5799 660.768 95.5106 667.936 93.3132 675.509C91.7986 680.736 90.2199 686.133 87.0412 690.571C85.2919 693.003 82.2412 693.536 79.0412 694.091C74.7959 694.837 69.9746 695.669 67.4359 701.152C65.6652 704.971 68.0119 709.472 70.2732 713.824C72.1719 717.451 74.1132 721.205 73.5372 724.32C73.0679 726.816 70.4225 730.827 67.3505 735.456L67.2652 735.477ZM71.2972 713.291C69.0785 709.024 66.9666 704.971 68.4812 701.707C70.7639 696.8 75.0519 696.053 79.1905 695.328C82.5185 694.752 85.9319 694.155 87.9799 691.317C91.2866 686.709 92.8866 681.205 94.4439 675.893C96.5772 668.533 98.6039 661.6 104.833 657.653C113.281 652.299 120.556 651.403 127.575 650.528C137.217 649.333 146.305 648.224 156.652 635.573C170.007 619.232 179.841 593.44 182.935 566.603C189.164 512.395 157.164 471.947 128.94 436.256C104.257 405.045 82.9239 378.08 91.8199 348.789C101.292 317.579 127.468 301.259 148.439 301.259C159.383 301.259 168.833 305.333 175.745 313.056C185.644 324.107 189.591 341.771 187.137 364.171C180.695 423.051 182.892 495.755 257.772 535.691C282.028 548.619 307.073 554.912 334.359 554.912C369.324 554.912 401.729 544.459 430.316 535.243C453.377 527.797 473.303 521.376 490.647 521.376C513.452 521.376 528.279 532.704 538.732 558.069C564.78 621.323 539.713 673.973 522.476 699.744C494.679 741.237 453.164 766.048 429.079 766.048C421.719 766.048 416.001 763.915 412.119 759.712C375.02 719.584 327.532 699.232 270.999 699.232C253.761 699.232 235.351 701.131 216.279 704.864C207.98 706.485 198.956 707.893 189.42 709.387C165.143 713.184 137.644 717.493 117.591 726.581C113.239 728.565 106.561 735.072 98.8386 742.603C87.4892 753.675 74.6252 766.219 66.8812 766.219C66.1986 766.219 65.5585 766.112 64.9825 765.92C61.5692 764.683 59.4999 762.869 58.6679 760.352C56.5346 753.931 63.0626 744.075 68.3106 736.16C71.4679 731.403 74.1772 727.307 74.6892 724.576C75.3505 721.035 73.3025 717.109 71.3185 713.291H71.2972Z" fill="white"/>
<path d="M-64.9707 738.973C-55.3493 730.269 -40.1173 722.653 -22.4747 713.821C-10.1653 707.656 6.38934 692.509 5.38667 680.115C4.85334 673.352 -0.607987 668.275 -10.8053 665.075C-14.816 663.816 -19.2106 663.197 -24.224 663.197C-37.28 663.197 -52 667.528 -64.9707 671.368C-70.9013 673.117 -76.4906 674.76 -81.6106 675.933C-124.533 685.683 -150.453 691.571 -173.685 691.571C-194.251 691.571 -212.277 686.963 -235.915 675.677C-258.677 664.819 -275.147 654.6 -288.395 646.408C-307.893 634.333 -316.981 629 -328.501 629C-333.877 629 -340.299 630.195 -348 632.648V633.757C-340.277 631.283 -333.835 630.045 -328.501 630.045C-317.259 630.045 -308.256 635.336 -288.928 647.304C-275.659 655.517 -259.168 665.736 -236.363 676.637C-212.576 688.008 -194.4 692.637 -173.664 692.637C-150.325 692.637 -124.363 686.749 -81.3547 676.979C-76.2133 675.805 -70.6026 674.163 -64.6506 672.413C-51.744 668.616 -37.1093 664.307 -24.2027 664.307C-19.296 664.307 -15.008 664.904 -11.104 666.141C-1.35465 669.213 3.82936 673.971 4.34136 680.264C5.30136 692.189 -10.8907 706.888 -22.944 712.925C-40.6507 721.8 -55.9467 729.459 -65.6747 738.248C-95.0293 764.787 -90.2933 799.432 -81.3973 830.536H-80.288C-89.1627 799.645 -93.9413 765.235 -64.9707 739.037V738.973Z" fill="white"/>
<path d="M348.619 807.141C373.771 795.92 396.512 790.587 418.528 785.403C462.731 775.013 500.896 766.032 535.819 711.717C541.707 702.565 546.72 691.131 552.032 679.013C563.125 653.712 574.603 627.557 595.915 616.763C601.653 614.544 606.88 612.816 611.765 611.536V610C606.688 611.323 601.227 613.115 595.232 615.44C573.472 626.469 561.888 652.88 550.667 678.416C545.376 690.469 540.384 701.861 534.56 710.907C499.936 764.731 462.048 773.648 418.165 783.952C396.107 789.136 373.28 794.512 348 805.776C331.552 813.115 320.565 821.605 316 830.288H317.664C322.251 822.16 332.875 814.16 348.597 807.141H348.619Z" fill="white"/>
<path d="M353.795 755.621C349.848 743.12 332.525 733.776 302.36 727.867C282.477 723.984 262.168 722 241.987 722C212.312 722 182.275 726.245 152.685 734.608C148.675 735.739 144.664 736.976 140.739 738.277C89.688 755.216 60.2267 783.461 47 829.797H48.5574C61.72 784.229 90.8613 756.411 141.208 739.707C145.112 738.405 149.123 737.189 153.091 736.059C182.531 727.739 212.44 723.515 241.965 723.515C262.061 723.515 282.264 725.477 302.061 729.36C331.672 735.163 348.589 744.144 352.365 756.091C355.267 765.243 350.467 776.4 338.115 789.285C325.336 802.597 312.429 816.059 300.824 829.819H302.787C314.157 816.421 326.723 803.301 339.181 790.331C351.939 777.04 356.845 765.371 353.773 755.664L353.795 755.621Z" fill="white"/>
<path d="M235.48 637.061C236.355 637.552 237.293 637.787 238.275 637.787C242.072 637.787 245.784 634.075 249.091 630.811C250.989 628.912 252.803 627.12 254.275 626.416C256.195 625.499 257.987 625.051 259.757 625.051C263.149 625.051 266.029 626.672 269.357 628.549C270.552 629.211 271.789 629.915 273.112 630.576C276.291 632.155 279.405 632.901 282.627 632.901C285.848 632.901 288.856 632.155 292.035 631.387C295.341 630.576 298.755 629.744 302.744 629.659H303.256C311.363 629.659 318.787 633.861 325.976 637.915C333.123 641.947 340.504 646.128 348.547 646.128C352.408 646.128 356.12 645.189 359.875 643.291C362.883 641.755 365.187 639.877 367.213 638.192C370.52 635.461 373.379 633.115 378.2 633.115C379.608 633.115 381.123 633.307 382.808 633.712C396.504 636.955 402.541 649.541 408.365 661.723C411.096 667.44 413.912 673.328 417.475 678.043C424.621 687.493 433.837 692.699 443.437 692.699H443.928C453.549 692.528 462.787 687.216 469.955 677.765C479.661 664.944 497.304 623.152 489.987 602.352C487.832 596.208 483.672 592.325 477.656 590.811C475.523 590.277 473.56 590 471.619 590C465.389 590 460.717 592.795 455.32 596.016C454.104 596.741 452.845 597.488 451.523 598.235C440.579 604.421 429.741 605.701 418.243 607.067C413.741 607.6 409.069 608.155 404.355 609.008C399.107 609.968 394.371 611.803 389.805 613.573C383.789 615.899 378.115 618.096 371.864 618.096C367.64 618.096 363.523 617.072 359.256 614.981C350.467 610.651 340.888 606.661 330.307 606.661C326.808 606.661 323.352 607.067 319.789 607.92C318.168 608.304 316.568 608.709 315.011 609.115C308.888 610.672 303.107 612.144 297.24 612.144C292.483 612.144 288.003 611.163 283.565 609.115L281.688 608.24C273.624 604.507 265.283 600.667 256.771 600.667C252.056 600.667 247.725 601.819 243.48 604.165C238.147 607.131 231 619.589 231 628.272C231 632.368 232.579 635.397 235.523 637.019L235.48 637.061ZM243.949 605.125C248.024 602.864 252.205 601.755 256.728 601.755C265.027 601.755 273.24 605.552 281.197 609.243L283.075 610.117C287.64 612.208 292.269 613.232 297.197 613.232C303.192 613.232 309.037 611.739 315.224 610.16C316.781 609.755 318.36 609.349 319.981 608.965C323.459 608.133 326.808 607.728 330.243 607.728C340.611 607.728 350.061 611.675 358.723 615.941C363.139 618.117 367.405 619.163 371.8 619.163C378.243 619.163 384.024 616.923 390.125 614.555C394.648 612.805 399.32 610.992 404.483 610.032C409.176 609.179 413.805 608.624 418.307 608.091C429.891 606.725 440.856 605.424 451.971 599.131C453.293 598.384 454.573 597.616 455.789 596.891C461.059 593.755 465.603 591.024 471.533 591.024C473.368 591.024 475.267 591.28 477.293 591.792C482.947 593.221 486.851 596.869 488.877 602.651C496.067 623.109 478.595 664.389 468.995 677.061C462.04 686.235 453.101 691.397 443.8 691.568H443.331C434.072 691.568 425.155 686.512 418.221 677.339C414.723 672.709 412.056 667.12 409.219 661.211C403.288 648.795 397.144 635.973 382.936 632.624C381.165 632.197 379.587 632.005 378.093 632.005C372.888 632.005 369.901 634.48 366.424 637.317C364.333 639.024 362.2 640.795 359.277 642.288C355.672 644.123 352.131 645.019 348.44 645.019C340.675 645.019 333.741 641.093 326.403 636.933C319.107 632.795 311.555 628.528 303.171 628.528H302.637C298.52 628.613 295.064 629.488 291.693 630.299C288.579 631.067 285.635 631.792 282.541 631.792C279.448 631.792 276.568 631.088 273.496 629.573C272.195 628.933 270.979 628.251 269.805 627.589C266.477 625.712 263.341 623.963 259.693 623.963C257.752 623.963 255.811 624.453 253.741 625.435C252.099 626.224 250.243 628.059 248.28 630.021C245.144 633.136 241.581 636.677 238.232 636.677C237.443 636.677 236.696 636.485 235.971 636.08C233.347 634.629 232.003 632.005 232.003 628.251C232.003 619.44 239.427 607.557 243.928 605.061L243.949 605.125Z" fill="white"/>
<path d="M97.6224 712.824C98.9877 713.187 101.441 713.357 104.556 713.357C111.041 713.357 135.126 712.397 172.694 699.981C204.097 689.613 240.833 683.896 276.097 683.896C334.166 683.896 372.737 692.6 422.422 740.152C425.942 743.523 430.678 745.229 436.46 745.229C458.049 745.229 490.71 721.72 510.806 691.704C526.508 668.259 549.334 620.387 525.761 563.149C515.606 538.509 502.87 535.117 490.625 535.117C475.478 535.117 456.534 541.219 434.582 548.301C405.014 557.837 371.478 568.632 334.316 568.632C304.684 568.632 277.484 561.805 251.158 547.768C167.937 503.395 166.806 420.707 173.206 362.381C175.19 344.312 172.374 330.019 165.313 322.147C161.068 317.411 155.372 315 148.417 315C132.609 315 112.684 327.907 105.196 352.589C98.4331 374.883 117.654 399.181 139.905 427.32C168.342 463.267 203.734 508.003 196.822 567.949C194.838 585.123 190.273 601.443 183.212 616.461C171.969 640.376 157.121 660.664 139.052 676.771C127.126 687.395 115.158 694.84 106.433 700.259C98.4758 705.208 93.6757 708.173 94.0171 710.456C94.1664 711.48 95.3184 712.248 97.6224 712.824ZM106.774 700.813C115.521 695.373 127.51 687.928 139.478 677.261C157.612 661.091 172.524 640.739 183.809 616.76C190.913 601.677 195.5 585.272 197.484 568.056C204.417 507.853 168.94 462.989 140.417 426.957C118.273 398.968 99.1584 374.797 105.814 352.824C113.217 328.44 132.844 315.683 148.417 315.683C155.18 315.683 160.705 318.008 164.844 322.616C171.798 330.36 174.529 344.483 172.588 362.36C166.188 420.877 167.318 503.821 250.881 548.387C277.313 562.488 304.62 569.336 334.337 569.336C371.606 569.336 405.185 558.52 434.817 548.963C456.705 541.901 475.585 535.821 490.646 535.821C502.678 535.821 515.18 539.171 525.185 563.448C548.63 620.408 525.91 668.067 510.294 691.405C490.646 720.76 457.516 744.632 436.481 744.632C430.849 744.632 426.284 742.989 422.87 739.725C398.785 716.685 376.385 702.029 352.342 693.603C331.649 686.371 308.844 683.277 276.076 683.277C240.726 683.277 203.926 688.995 172.46 699.384C134.998 711.757 110.998 712.717 104.534 712.717C101.484 712.717 99.0731 712.525 97.7718 712.184C95.8091 711.672 94.7638 711.053 94.6358 710.328C94.3584 708.472 99.5637 705.251 106.753 700.771L106.774 700.813Z" fill="white"/>
<path d="M148.294 330C136.859 330 124.294 341.563 120.176 351.952C117.446 358.843 119.536 370.597 125.744 383.44C131.59 395.536 139.398 404.837 145.158 406.565C146.032 406.821 146.928 406.971 147.782 406.971C148.742 406.971 149.702 406.8 150.619 406.48C158.043 403.899 157.872 399.333 157.51 389.349C157.275 383.205 156.976 374.8 158.235 363.259C159.942 347.749 157.51 335.931 154.224 332.283C153.179 331.109 151.728 330.021 148.294 330.021V330ZM157.168 363.131C155.888 374.757 156.208 383.227 156.443 389.392C156.806 399.397 156.955 403.152 150.256 405.477C148.699 406.011 147.078 406.053 145.435 405.563C139.952 403.92 132.422 394.853 126.683 382.992C120.603 370.427 118.534 358.971 121.158 352.357C125.147 342.288 137.264 331.088 148.294 331.067C151.302 331.067 152.539 331.984 153.435 332.965C156.55 336.443 158.854 347.92 157.168 363.109V363.131Z" fill="white"/>
<path d="M211.127 661.4C213.09 661.4 215.5 661.229 218.508 660.888C219.81 660.739 250.764 657.283 283.98 657.283C296.93 657.283 308.471 657.816 318.284 658.883C367.33 664.152 409.783 687.555 430.092 708.397C433.826 712.237 438.284 714.179 443.362 714.179C454.732 714.179 468.727 704.28 481.783 687.043C504.652 656.835 511.564 599 500.236 576.237C497.228 570.2 493.026 567 488.076 567C487.671 567 487.244 567 486.818 567.064C477.858 567.981 465.399 571.629 449.655 576.259C420.151 584.92 379.746 596.76 335.927 597.464C298.487 598.083 255.692 583.256 241.143 576.173C236.386 573.848 233.314 572.824 231.18 572.824C226.828 572.824 226.658 576.941 226.338 583.789C226.082 589.229 225.762 596.675 223.095 605.165C218.274 620.611 212.812 632.323 208.823 640.877C204.407 650.371 201.719 656.088 203.618 659.075C204.663 660.717 206.988 661.443 211.127 661.443V661.4ZM209.399 641.112C213.388 632.536 218.871 620.803 223.692 605.315C226.359 596.739 226.7 589.229 226.956 583.768C227.255 577.091 227.426 573.421 231.159 573.421C233.164 573.421 236.236 574.467 240.844 576.707C255.159 583.683 296.695 598.083 333.73 598.083C334.455 598.083 335.202 598.083 335.927 598.083C379.831 597.379 420.279 585.517 449.826 576.835C465.548 572.227 477.964 568.579 486.882 567.661C492.172 567.128 496.482 570.093 499.639 576.472C510.882 599.085 503.991 656.557 481.25 686.595C468.322 703.683 454.498 713.475 443.34 713.475C438.455 713.475 434.146 711.597 430.54 707.885C410.146 686.957 367.564 663.491 318.348 658.2C308.514 657.133 296.951 656.6 283.98 656.6C250.743 656.6 219.746 660.077 218.444 660.205C215.458 660.547 213.068 660.717 211.127 660.717C207.266 660.717 205.047 660.056 204.151 658.648C202.444 655.981 205.068 650.371 209.399 641.069V641.112Z" fill="white"/>
<path d="M163.627 685.384C165.611 685.384 168.149 684.872 170.795 683.955C200.661 673.587 235.307 668.552 276.715 668.552C328.277 668.552 379.371 673.267 437.419 730.355C439.083 731.997 441.28 732.829 443.925 732.829C460.16 732.829 490.155 701.725 499.051 682.973C499.861 681.267 500.736 679.453 501.675 677.555C513.003 654.344 531.947 615.475 512.576 568.456C504.832 549.661 497.621 549.661 491.243 549.661C478.443 549.661 460.523 555.443 439.787 562.12C409.173 571.997 374.464 583.176 334.955 583.176C301.141 583.176 273.792 576.968 246.229 563.037C241.963 560.883 237.867 558.515 234.24 556.445C226.987 552.285 221.269 549 217.579 549C214.699 549 213.291 551.005 213.227 555.144C213.227 555.805 213.312 556.851 213.461 558.323C217.408 598.813 201.728 636.616 166.869 670.685C160.789 676.637 158.208 680.904 159.211 683.379C159.744 684.701 161.28 685.384 163.627 685.384ZM167.317 671.133C189.739 649.224 204.437 625.459 210.987 600.477C216.256 580.403 214.741 564.872 214.101 558.259C213.952 556.808 213.867 555.763 213.867 555.144C213.931 550.216 216.021 549.64 217.579 549.64C221.099 549.64 227.051 553.053 233.92 557C237.547 559.091 241.664 561.437 245.952 563.613C273.6 577.587 301.035 583.837 334.955 583.837C374.571 583.837 409.323 572.637 440 562.739C460.693 556.061 478.571 550.301 491.264 550.301C497.429 550.301 504.427 550.301 512 568.691C531.243 615.432 512.384 654.131 501.099 677.256C500.16 679.176 499.285 680.968 498.475 682.696C489.643 701.32 459.947 732.189 443.925 732.189C441.451 732.189 439.403 731.421 437.867 729.907C410.901 703.389 382.976 686.024 352.533 676.808C325.397 668.595 300.203 667.912 276.715 667.912C235.243 667.912 200.533 672.968 170.581 683.357C168 684.253 165.525 684.744 163.627 684.744C162.176 684.744 160.341 684.467 159.808 683.144C159.296 681.907 159.595 678.685 167.317 671.155V671.133Z" fill="white"/>
<path d="M49.0247 -130H47.4674C44.182 -118.501 41.878 -105.915 40.534 -92.0693C38.166 -68.0053 36.0754 -36.496 41.0034 -6.13866C44.5874 16.0053 51.7981 25.8613 64.3634 25.8613C72.3847 25.8613 81.7074 21.9787 92.5234 17.456C100.033 14.32 107.798 11.0987 116.075 8.75201C116.865 8.51734 117.654 8.30401 118.465 8.09068C142.081 1.75468 168.705 0.858677 196.95 5.44534C204.523 6.68268 212.203 8.79467 219.649 10.8427C230.486 13.8293 241.686 16.9227 253.057 17.4347C259.222 17.712 263.617 17.072 266.71 15.536C275.777 11.0133 271.361 -0.271995 266.71 -12.2187C263.958 -19.28 261.099 -26.5973 260.63 -33.1467C258.134 -67.9627 277.59 -99.6853 303.297 -130H301.334C275.819 -99.7493 256.641 -68.0053 259.158 -33.04C259.649 -26.256 262.529 -18.832 265.345 -11.664C269.953 0.133343 273.921 10.3093 266.07 14.2133C263.233 15.6213 258.945 16.2187 253.142 15.9627C241.942 15.472 230.827 12.4 220.075 9.43468C212.609 7.36534 204.886 5.23201 197.227 3.99468C168.769 -0.613324 141.931 0.304006 118.123 6.68267C117.313 6.89601 116.523 7.10933 115.713 7.344C107.329 9.712 99.5207 12.976 91.9901 16.112C81.3447 20.5493 72.1287 24.3893 64.406 24.3893C52.7154 24.3893 45.9527 14.896 42.5181 -6.37333C37.6114 -36.5813 39.702 -67.9627 42.0487 -91.92C43.414 -105.829 45.7394 -118.459 49.0674 -130L49.0247 -130Z" fill="white"/>
<path d="M29.0688 466.92C27.6394 465.619 26.3594 465 25.1648 465C22.1781 465 20.0874 468.797 16.9301 474.536C13.6448 480.488 9.16477 488.637 1.39943 496.893L-0.883248 499.304C-9.77925 508.733 -13.8539 513.043 -12.8512 515.368C-12.4032 516.413 -11.0166 516.883 -8.39256 516.883C-6.15256 516.883 -2.86725 516.563 2.61542 515.795C4.87675 515.475 7.18076 515.325 9.46343 515.325C27.9594 515.325 43.3834 525.693 54.6474 533.267C61.2394 537.704 66.4447 541.203 70.1781 541.203C71.7354 541.203 73.0154 540.584 73.9754 539.347C85.7941 524.179 44.4714 480.893 29.0688 466.92ZM73.1434 538.685C72.3968 539.667 71.4154 540.136 70.1781 540.136C66.7647 540.136 61.6874 536.723 55.2447 532.371C43.8741 524.712 28.3008 514.237 9.46343 514.237C7.1381 514.237 4.7701 514.408 2.4661 514.728C-2.95257 515.496 -6.21656 515.816 -8.39256 515.816C-10.4406 515.816 -11.6139 515.517 -11.8699 514.941C-12.5952 513.277 -7.62456 508.008 -0.0938922 500.029L2.18876 497.619C10.0394 489.277 14.5834 481.043 17.8688 475.048C20.8554 469.629 22.8181 466.067 25.1861 466.067C26.1034 466.067 27.1488 466.6 28.3648 467.709C47.5008 485.053 83.6181 525.245 73.1434 538.685Z" fill="white"/>
<path d="M30.1307 485C22.664 485 13.0427 496.776 13 502.365C13 504.648 14.408 505.992 16.904 506.035C27.912 506.227 39.5387 513.203 48.0293 518.301C53.064 521.309 56.6906 523.507 58.8453 523.507C59.528 523.507 60.0827 523.293 60.4667 522.867C60.9573 522.333 61.1493 521.523 61.064 520.392C60.2747 510.131 40.7973 489.587 32.904 485.64C32.072 485.213 31.1333 485.021 30.152 485.021L30.1307 485ZM59.5707 520.477C59.6347 521.373 59.464 521.715 59.3573 521.821C59.3147 521.864 59.208 521.992 58.824 521.992C57.0747 521.992 53.2346 519.688 48.776 517C40.136 511.816 28.3173 504.733 16.9253 504.541C15.24 504.52 14.4933 503.837 14.4933 502.365C14.536 497.373 23.4747 486.472 30.1307 486.472C30.8987 486.472 31.6027 486.621 32.2213 486.941C40.7333 491.187 58.8453 511.176 59.5707 520.456V520.477Z" fill="white"/>
<path d="M3.12926 291.363C4.96392 291.363 6.43593 288.76 7.86526 282.936C13.2199 261.155 30.9053 232.333 58.3826 217.016C86.1799 201.507 104.697 197.475 114.66 195.32C119.609 194.253 122.084 193.699 122.681 192.397C122.916 191.907 122.831 191.309 122.468 190.627C120.548 187.128 86.1159 167.864 36.6013 163.853L34.5106 163.683C30.0519 163.32 26.1906 163 22.4999 163C9.57193 163 -0.83873 166.605 -25.1587 187.149C-28.9987 190.392 -32.9241 193.4 -36.7214 196.323C-48.4761 205.347 -58.6307 213.112 -57.9694 221.965C-57.4574 228.749 -50.7374 235.491 -36.8281 243.149C-21.4254 251.64 -12.0387 268.493 -5.83074 279.629C-1.88407 286.691 0.697266 291.363 3.17193 291.363H3.12926ZM-36.572 242.595C-50.0974 235.149 -56.9027 228.387 -57.3934 221.923C-58.0334 213.432 -48.0067 205.752 -36.38 196.856C-32.5827 193.933 -28.6361 190.925 -24.7961 187.661C-0.646734 167.245 9.6786 163.661 22.4359 163.661C26.1053 163.661 29.9453 163.981 34.4039 164.344L36.4946 164.515C84.8786 168.419 120.036 187.619 121.849 190.947C122.212 191.629 122.148 191.949 122.041 192.141C121.572 193.144 118.905 193.741 114.468 194.701C104.484 196.877 85.9026 200.909 58.0199 216.461C30.3933 231.885 12.5799 260.899 7.20393 282.808C5.88126 288.141 4.53728 290.744 3.08661 290.744C0.995947 290.744 -1.79873 285.709 -5.3614 279.352C-11.6121 268.152 -21.0414 251.192 -36.6147 242.616L-36.572 242.595Z" fill="white"/>
<path d="M7.32713 327.592C9.18313 327.592 10.4631 325.373 11.3591 320.595C16.9058 291.219 28.9164 249.619 69.0444 227.432C81.4391 220.563 95.4551 215.144 111.86 210.813C115.167 209.939 118.687 207.571 122.122 205.267C126.538 202.28 131.124 199.208 135.348 199.208C135.839 199.208 136.33 199.251 136.778 199.336C139.146 199.763 140.916 201.128 142.623 202.451C144.543 203.944 146.356 205.352 148.874 205.352C149.812 205.352 150.794 205.16 151.839 204.733C153.631 204.029 154.57 202.643 155.466 201.299C156.746 199.4 157.94 197.608 161.567 197.928C165.172 198.227 167.114 200.979 169.162 203.88C170.591 205.907 172.084 208.019 174.196 209.192C175.732 210.045 178.506 210.963 180.959 210.963C182.666 210.963 183.882 210.515 184.564 209.619C185.204 208.765 185.332 207.549 184.906 206.035C183.498 201 172.724 196.307 165.578 193.192C163.466 192.275 161.652 191.485 160.479 190.867C149.855 185.235 139.252 180.477 130.292 176.552C92.4898 160.019 58.0151 149.928 24.9271 145.704C21.1938 145.235 17.9725 145 15.0498 145C-1.24888 145 -13.8782 152.125 -39.0089 175.507C-45.1742 181.245 -51.5316 186.173 -57.6542 190.931C-71.3929 201.597 -82.2516 210.024 -81.9956 220.627C-81.7822 228.989 -74.5289 237.907 -59.1262 248.68C-34.3369 266.024 -17.8889 292.371 -6.98755 309.8C-0.267553 320.531 4.14844 327.635 7.36977 327.635L7.32713 327.592ZM-58.8062 248.104C-74.0169 237.459 -81.2062 228.691 -81.3982 220.541C-81.6542 210.259 -70.9022 201.917 -57.2916 191.357C-51.1476 186.579 -44.7902 181.651 -38.6036 175.891C-13.6009 152.637 -1.07824 145.555 15.0284 145.555C17.9298 145.555 21.1298 145.789 24.8205 146.259C57.8445 150.461 92.2551 160.552 129.994 177.064C138.954 180.989 149.535 185.747 160.138 191.357C161.332 191.997 163.167 192.787 165.279 193.704C172.298 196.755 182.922 201.384 184.244 206.12C184.607 207.443 184.543 208.467 184.01 209.149C183.327 210.045 181.94 210.237 180.916 210.237C178.698 210.237 175.988 209.384 174.474 208.531C172.49 207.443 171.06 205.395 169.652 203.411C167.604 200.509 165.492 197.523 161.588 197.181C157.578 196.819 156.234 198.888 154.911 200.851C154.015 202.173 153.183 203.411 151.583 204.051C150.602 204.435 149.727 204.627 148.852 204.627C146.57 204.627 144.82 203.283 142.986 201.875C141.215 200.509 139.38 199.08 136.863 198.653C136.372 198.568 135.839 198.525 135.327 198.525C130.911 198.525 126.26 201.661 121.759 204.691C118.239 207.059 114.89 209.32 111.711 210.152C95.2418 214.483 81.2044 219.944 68.7458 226.835C28.3831 249.149 16.3084 290.941 10.7404 320.445C9.90844 324.797 8.79913 326.931 7.32713 326.931C4.44713 326.931 -0.139562 319.571 -6.4969 309.395C-17.4196 291.923 -33.9102 265.512 -58.8062 248.083V248.104Z" fill="white"/>
<path d="M85.7963 595.557C100.388 593.893 114.127 583.867 120.826 570.021C126.927 557.371 130.234 535.909 111.29 505.531C103.162 492.475 94.287 479.312 85.711 466.576C61.1777 430.16 38.0097 395.749 28.431 361.232C17.615 322.192 26.2977 289.979 55.7803 259.877C81.3163 233.808 115.044 218.853 148.346 218.853C173.37 218.853 195.706 227.664 211.215 243.643C228.26 261.2 236.794 286.907 235.855 317.947C235.642 325.157 235.3 332.603 234.938 340.496C233.658 368.528 232.186 400.293 236.708 426.725C241.914 457.125 254.266 475.899 274.447 484.133C285.263 488.549 295.503 490.768 304.911 490.768C321.999 490.768 336.548 483.301 346.98 469.2C364.708 445.2 368.954 404.112 357.562 366.949C333.092 287.205 274.255 239.611 187.279 188.624C121.21 149.904 65.4017 137.957 14.9483 130.811C11.1937 130.277 7.60966 130 4.30299 130C-16.7743 130 -26.801 140.731 -39.4943 154.32C-44.3797 159.547 -49.4143 164.923 -55.6863 170.448C-62.897 176.784 -69.169 180.645 -74.7157 184.059C-83.6117 189.52 -91.2703 194.235 -99.7397 206.864C-116.508 231.931 -94.065 247.312 -70.321 263.589C-57.777 272.187 -44.785 281.083 -37.8303 291.621C5.86033 357.819 -11.761 428.432 -42.8437 472.443C-51.7183 485.029 -64.689 496.912 -78.4277 509.477C-95.217 524.859 -112.582 540.752 -122.502 558.523C-126.769 566.16 -127.985 571.344 -126.214 574.373C-124.913 576.592 -122.033 577.659 -117.446 577.659C-109.254 577.659 -96.241 574.267 -81.1583 570.32C-60.017 564.816 -33.713 557.947 -10.4597 557.947C1.84966 557.947 12.4097 559.909 20.9217 563.771C29.391 567.632 36.559 573.2 43.4923 578.597C54.9057 587.472 65.6577 595.835 80.8897 595.835C82.4897 595.835 84.1323 595.749 85.775 595.557H85.7963ZM21.199 563.195C12.495 559.227 2.14832 557.307 -10.4383 557.307C-33.7557 557.307 -60.1237 564.176 -81.2863 569.701C-96.3263 573.627 -109.297 576.997 -117.425 577.019C-121.777 577.019 -124.465 576.037 -125.66 574.032C-127.302 571.216 -126.086 566.245 -121.948 558.821C-112.07 541.157 -94.7477 525.285 -77.9797 509.947C-64.2197 497.339 -51.2277 485.456 -42.3103 472.805C-24.0917 447.013 -13.3397 417.595 -11.2277 387.728C-8.79567 353.595 -17.5637 321.125 -37.297 291.259C-44.3157 280.635 -57.3503 271.696 -69.9583 263.056C-93.4463 246.949 -115.633 231.76 -99.2063 207.205C-90.8437 194.683 -83.2063 190.011 -74.3957 184.592C-68.8277 181.179 -62.5343 177.296 -55.281 170.917C-48.9877 165.392 -43.9317 159.973 -39.0463 154.747C-26.4597 141.285 -16.497 130.64 4.28167 130.64C7.54567 130.64 11.1083 130.917 14.8417 131.429C65.231 138.576 120.975 150.501 186.938 189.157C273.786 240.037 332.516 287.568 356.922 367.099C368.271 404.091 364.068 444.944 346.447 468.795C336.143 482.725 321.786 490.107 304.89 490.107C295.567 490.107 285.412 487.888 274.682 483.515C254.714 475.365 242.49 456.763 237.327 426.597C232.804 400.229 234.276 368.485 235.556 340.496C235.919 332.603 236.26 325.157 236.474 317.947C237.412 286.715 228.836 260.859 211.663 243.173C196.026 227.067 173.54 218.192 148.346 218.192C114.874 218.192 80.9537 233.211 55.311 259.408C39.6523 275.408 29.9883 291.899 25.743 309.861C21.967 325.904 22.6284 342.736 27.791 361.381C37.391 396.005 60.5804 430.437 85.1564 466.917C93.7324 479.653 102.607 492.816 110.735 505.851C129.53 535.995 126.266 557.221 120.228 569.723C113.636 583.376 100.09 593.275 85.711 594.896C84.0897 595.088 82.4684 595.173 80.8897 595.173C65.8924 595.173 55.2043 586.853 43.8977 578.064C36.943 572.645 29.7323 567.056 21.199 563.152V563.195Z" fill="white"/>
<path d="M99.9101 568.955C105.499 564.88 108.785 559.184 109.638 552.037C112.177 531.067 93.5741 500.453 76.8701 480.635C56.0274 455.888 35.3341 429.477 25.2008 403.92C24.7101 402.661 23.9421 399.099 22.9821 394.597C19.7181 379.408 14.2781 354 6.38475 354C5.65942 354 4.91276 354.213 4.18742 354.661C0.90209 356.603 -0.0579092 360.443 1.22209 366.352C2.26742 371.195 4.67808 376.784 6.81141 381.712C9.07275 386.917 11.0141 391.419 10.9714 393.979C10.8861 400.571 7.81408 403.472 4.84875 406.288C2.52342 408.485 0.134095 410.747 -0.740572 414.693C-1.84991 419.771 0.240769 423.589 2.26744 427.28C4.14477 430.693 6.06477 434.213 5.46744 438.757C4.33677 447.099 -22.0739 477.157 -45.3486 503.696C-64.6339 525.648 -81.2739 544.613 -80.9966 548.24C-80.9966 548.517 -80.8686 548.731 -80.6979 548.88C-79.0979 550.203 -76.2179 550.843 -71.8446 550.843C-64.9539 550.843 -55.3752 549.307 -44.2606 547.515C-30.7992 545.36 -15.5459 542.907 -2.2979 542.907C8.04877 542.907 15.7928 544.379 21.3608 547.408C24.3901 549.051 27.7821 551.013 31.3447 553.083C47.2594 562.341 67.0568 573.84 83.8248 573.84C90.0328 573.84 95.4514 572.197 99.8888 568.976L99.9101 568.955ZM21.7021 546.811C16.0274 543.739 8.17675 542.224 -2.25525 542.224C-15.5459 542.224 -30.8206 544.677 -44.3246 546.832C-55.3966 548.603 -64.9752 550.139 -71.8019 550.139C-76.0046 550.139 -78.7779 549.541 -80.2499 548.325C-80.2499 548.325 -80.3139 548.261 -80.3352 548.133C-80.5912 544.763 -63.2259 525.008 -44.8579 504.059C-21.4979 477.456 4.95543 447.312 6.12876 438.8C6.76876 434.043 4.78477 430.437 2.86477 426.939C0.795433 423.184 -1.14591 419.643 -0.0792438 414.8C0.731423 411.045 2.97142 408.955 5.31809 406.736C8.39009 403.835 11.5688 400.827 11.6541 393.979C11.6968 391.291 9.71277 386.725 7.4301 381.435C5.3181 376.528 2.90743 370.981 1.8621 366.203C0.646097 360.592 1.52076 356.987 4.52876 355.195C5.14743 354.832 5.78744 354.64 6.40611 354.64C13.7874 354.64 19.3768 380.709 22.3634 394.725C23.3661 399.44 24.0914 402.832 24.6248 404.155C34.7794 429.797 55.5154 456.251 76.4008 481.04C93.0194 500.773 111.537 531.173 109.019 551.952C108.166 558.928 104.987 564.475 99.5474 568.443C95.2168 571.6 89.9474 573.179 83.8674 573.179C67.2914 573.179 47.5581 561.723 31.7074 552.507C28.1234 550.437 24.7528 548.475 21.7021 546.811Z" fill="white"/>
<path d="M92.9356 542.797C94.8342 525.219 76.0182 497.656 66.6102 487.053C50.3756 468.771 39.0476 453.176 31.5596 442.872C24.1356 432.653 20.0396 427 17.3943 427C15.5809 427 14.5783 429.347 13.9596 435.128C9.30892 478.563 -18.7871 502.093 -35.5764 516.131C-42.9364 522.296 -47.7791 526.349 -47.9924 529.699C-48.0564 530.659 -47.7151 531.555 -46.9684 532.323C-45.4324 533.944 -43.0218 534.712 -39.3311 534.712C-35.1924 534.712 -29.9657 533.752 -23.9071 532.643C-16.0564 531.192 -7.1391 529.571 1.97024 529.571C14.3862 529.571 24.3916 532.664 32.5836 539.021C44.1249 547.981 61.1916 557.56 74.5676 557.56C79.3889 557.56 83.5062 556.344 86.8342 553.912C90.3542 551.352 92.4236 547.597 92.9356 542.776V542.797ZM74.5676 556.941C61.3622 556.941 44.4449 547.448 32.9889 538.552C24.6689 532.088 14.5356 528.952 1.99159 528.952C-7.18174 528.952 -16.1204 530.595 -24.0137 532.045C-30.0297 533.155 -35.2351 534.093 -39.3097 534.093C-42.8084 534.093 -45.0911 533.389 -46.4777 531.896C-47.0964 531.235 -47.3738 530.531 -47.3311 529.741C-47.1391 526.669 -42.1044 522.445 -35.1497 516.621C-18.2964 502.499 9.92757 478.883 14.5996 435.192C15.1542 429.965 16.0289 427.64 17.3943 427.64C19.7196 427.64 23.9862 433.507 31.0476 443.235C38.5356 453.56 49.8849 469.155 66.1196 487.459C75.4636 497.997 94.1729 525.347 92.2956 542.712C91.7836 547.341 89.8209 550.947 86.4502 553.4C83.2289 555.747 79.2396 556.92 74.5462 556.92L74.5676 556.941Z" fill="white"/>
<path d="M274.867 367.352C272.67 400.717 282.249 423.693 291.955 434.04C296.393 438.776 301.257 441.4 305.673 441.4C311.881 441.4 316.553 436.515 318.814 427.64C333.385 370.531 283.763 310.328 277.683 305.293C275.934 303.843 274.718 303.651 273.928 304.525C272.499 306.083 272.947 311.181 273.758 320.419C274.718 331.363 276.147 347.896 274.867 367.352ZM274.718 305.251C274.824 305.123 274.931 305.08 275.102 305.08C275.401 305.08 275.977 305.272 277.022 306.125C283.059 311.117 332.254 370.787 317.811 427.384C315.678 435.725 311.39 440.333 305.694 440.333C301.598 440.333 296.99 437.837 292.766 433.315C283.209 423.117 273.779 400.44 275.955 367.416C277.235 347.875 275.806 331.299 274.846 320.333C274.142 312.269 273.63 306.467 274.739 305.251H274.718Z" fill="white"/>
<path d="M535.536 -7.97867C518.854 -7.97867 500.379 -4.82134 480.795 -1.49334C457.414 2.496 433.243 6.61333 406.896 6.61333C404.955 6.61333 403.035 6.592 401.222 6.54933C399.643 6.50667 398.107 6.464 396.571 6.42133C392.582 6.31466 388.827 6.208 385.2 6.208C362.502 6.208 348.443 10.8373 339.184 35.2213C333.339 50.6453 326.683 68.1173 310.768 79.4027C306.267 82.6027 301.766 85.312 297.776 87.7227C288.56 93.2907 281.286 97.6853 281.008 103.765C280.752 109.355 286.406 116.075 299.312 125.547C311.707 134.635 321.883 139.051 330.459 139.051C331.227 139.051 332.016 139.008 332.763 138.944C345.222 137.792 353.584 127.488 364.166 114.453C368.966 108.523 374.427 101.824 380.827 95.424C408.539 67.712 442.587 47.5093 479.28 36.992C494.768 32.5547 510.064 30.2933 524.763 30.2933C561.072 30.2933 589.062 43.4133 612.23 58.6027V57.8347C589.062 42.7093 561.051 29.6533 524.763 29.6533C510 29.6533 494.64 31.9147 479.11 36.3733C442.31 46.9333 408.155 67.2 380.379 94.976C373.958 101.397 368.496 108.117 363.675 114.048C353.2 126.955 344.902 137.173 332.72 138.304C331.974 138.368 331.227 138.411 330.48 138.411C322.054 138.411 311.984 134.037 299.696 125.035C286.982 115.691 281.414 109.141 281.648 103.808C281.904 98.0693 289.051 93.76 298.118 88.2773C302.107 85.8667 306.63 83.136 311.152 79.936C327.238 68.544 333.915 50.9653 339.803 35.456C348.934 11.4133 362.8 6.848 385.222 6.848C388.848 6.848 392.603 6.95467 396.571 7.06134C398.086 7.104 399.643 7.14666 401.222 7.18933C403.056 7.232 404.955 7.25333 406.918 7.25333C433.307 7.25333 457.52 3.11467 480.923 -0.874667C500.464 -4.20267 518.939 -7.36 535.558 -7.36C545.2 -7.36 553.606 -6.29334 561.307 -4.096C577.84 0.618662 594.779 8.36267 612.251 17.408V16.6827C594.843 7.70132 577.968 1.55767e-06 561.478 -4.71466C553.734 -6.93333 545.243 -8 535.558 -8L535.536 -7.97867Z" fill="white"/>
<path d="M258.903 364.741C256.428 397.104 262.828 423.301 276.908 438.512C284.268 446.469 293.313 450.843 302.38 450.843C315.308 450.843 325.633 441.861 328.727 427.973C337.708 387.355 323.799 350.832 310.572 327.323C294.999 299.717 275.095 280.176 265.495 273.776C261.996 271.451 259.521 270 258.028 270C257.473 270 257.047 270.192 256.727 270.555C255.489 271.941 256.001 275.909 257.004 283.76C258.775 297.691 262.081 323.589 258.924 364.741H258.903ZM257.175 270.96C257.367 270.725 257.644 270.619 258.007 270.619C259.329 270.619 261.825 272.091 265.132 274.288C286.785 288.731 344.3 354.523 328.087 427.803C325.079 441.392 314.988 450.181 302.38 450.181C293.484 450.181 284.609 445.872 277.377 438.064C263.425 423.003 257.089 396.976 259.543 364.784C262.7 323.568 259.393 297.605 257.601 283.653C256.684 276.464 256.129 272.133 257.175 270.939V270.96Z" fill="white"/>
<path d="M246.716 366.92C244.263 407.198 251.964 439.027 268.434 456.52C276.946 465.566 287.271 470.344 298.322 470.344C319.442 470.344 337.319 453.256 342.844 427.827C350.972 390.323 343.975 353.395 322.066 318.067C299.858 282.291 269.138 259.166 252.796 248.542C244.476 243.144 240.914 240.883 239.548 242.526C238.418 243.891 239.164 247.774 240.615 255.496C243.772 272.243 250.364 307.08 246.716 366.878V366.92ZM240.039 242.974C240.21 242.76 240.444 242.675 240.807 242.675C242.535 242.675 246.268 245.107 252.455 249.118C306.898 284.446 359.058 349.939 342.204 427.699C336.764 452.83 319.122 469.704 298.322 469.704C287.463 469.704 277.287 464.99 268.903 456.072C252.562 438.707 244.924 407.048 247.356 366.942C251.004 307.059 244.412 272.179 241.234 255.411C239.89 248.35 239.1 244.104 240.018 242.974H240.039Z" fill="white"/>
<path d="M1.17808 233.254C7.21542 233.254 11.5461 227.43 16.1754 218.683C24.2608 203.409 41.1567 196.006 50.2234 192.038C54.8101 190.033 56.5381 189.286 56.3247 188.006C56.1327 186.939 54.9594 186.491 48.6874 186.065C29.7861 184.785 -12.6246 202.811 -17.5099 216.379C-18.6406 219.515 -17.8086 222.374 -15.0779 224.614C-7.80327 230.651 -2.91793 233.211 1.1994 233.211L1.17808 233.254ZM-16.1019 216.913C-11.6433 204.518 27.7807 187.515 46.6607 187.515C47.3221 187.515 47.9621 187.515 48.5808 187.579C52.2714 187.835 53.9141 188.091 54.5754 188.305C53.7861 188.859 51.6741 189.777 49.6261 190.673C40.3887 194.705 23.1941 202.235 14.8527 217.979C9.60473 227.878 5.76475 231.739 1.17808 231.739C-2.55525 231.739 -7.14193 229.265 -14.1393 223.483C-16.3793 221.627 -17.0406 219.473 -16.1019 216.891V216.913Z" fill="white"/>
<path d="M19.0936 232.509C33.6216 206.035 60.1816 196.797 81.6856 191.699C83.7549 191.208 83.9469 190.141 83.8829 189.565C83.3709 185.256 63.2323 177 33.1736 177C29.7816 177 26.3043 177.107 22.8696 177.32C9.13094 178.152 -23.2531 197.309 -34.8797 211.496C-37.9091 215.187 -39.2744 218.237 -38.9544 220.605C-38.1437 226.493 -32.9171 229.096 -26.8371 232.125C-20.4157 235.325 -13.1411 238.952 -9.57841 247.4C-7.50907 252.328 -4.79974 254.824 -1.51441 254.824C4.05359 254.824 11.0083 247.315 19.1149 232.531L19.0936 232.509ZM-8.61841 246.973C-12.3091 238.163 -19.7757 234.429 -26.3677 231.144C-32.1704 228.264 -37.1837 225.768 -37.9091 220.435C-38.1864 218.408 -36.8637 215.549 -34.0691 212.157C-22.5704 198.141 9.40827 179.197 22.9336 178.387C26.3683 178.173 29.8029 178.067 33.1736 178.067C62.7203 178.067 82.4109 186.237 82.8163 189.693C82.8803 190.248 81.9843 190.547 81.4509 190.675C59.7336 195.816 32.9176 205.16 18.1762 231.997C5.93092 254.291 -3.26372 259.688 -8.59706 246.973H-8.61841Z" fill="white"/>
<path d="M300.257 414.899C301.387 414.899 302.369 414.109 303.201 412.573C307.361 404.787 307.275 377.821 296.246 361.416C294.817 359.283 292.747 359.56 291.169 362.248C287.03 369.373 285.281 392.029 296.566 411.805C297.739 413.853 298.977 414.899 300.235 414.899H300.257ZM292.47 362.995C293.025 362.056 293.601 361.48 294.049 361.48C294.433 361.48 294.817 361.949 295.009 362.248C305.547 377.949 305.782 404.552 301.878 411.869C301.345 412.851 300.769 413.405 300.257 413.405C299.595 413.405 298.721 412.552 297.867 411.059C287.03 392.051 288.587 369.672 292.47 362.995Z" fill="white"/>
<path d="M535.194 6.02134C519.77 6.02134 501.871 9.07201 482.927 12.2933C458.948 16.3893 434.138 20.6133 406.554 20.6133C404.527 20.6133 402.522 20.592 400.538 20.5493L395.844 20.4213C391.962 20.3147 388.314 20.208 384.879 20.208C354.991 20.208 353.519 36.6347 351.94 54.0213C351.087 63.5573 350.191 73.4347 344.943 81.8187C343.066 84.8053 338.031 88.6027 332.676 92.6133C321.306 101.147 308.42 110.832 314.607 119.899C317.274 123.803 320.474 125.765 324.122 125.765C326.127 125.765 328.303 125.168 330.564 123.995C340.655 118.789 351.428 103.387 360.09 91.0133C364.996 83.9947 369.242 77.936 371.567 76.528C373.999 75.0773 376.73 74.8853 379.055 74.8853C379.951 74.8853 380.868 74.928 381.786 74.9493C382.724 74.992 383.663 75.0133 384.58 75.0133C388.1 75.0133 391.812 74.5867 395.162 71.536C399.194 67.8667 399.706 63.088 400.196 58.48C400.644 54.3413 401.05 50.4373 403.802 47.1307C412.122 37.1893 441.306 30.2347 460.612 25.648C466.287 24.304 471.194 23.1307 474.863 22.0853C491.652 17.264 508.335 14.832 524.399 14.832C560.068 14.832 588.591 26.5227 611.866 40.5173V39.2587C588.57 25.3493 560.047 13.7653 524.399 13.7653C508.228 13.7653 491.46 16.2187 474.564 21.0613C470.938 22.1067 466.031 23.28 460.356 24.624C439.748 29.5307 411.524 36.2507 402.991 46.4693C400.026 50.0107 399.578 54.2773 399.13 58.3947C398.639 63.0027 398.17 67.3547 394.436 70.768C391.343 73.584 387.866 73.968 384.58 73.968C383.663 73.968 382.724 73.9253 381.807 73.904C380.89 73.8613 379.951 73.84 379.034 73.84C376.559 73.84 373.658 74.0533 370.991 75.632C368.474 77.1467 364.378 82.992 359.172 90.416C351.023 102.043 339.887 117.979 330.031 123.056C324.015 126.149 319.279 124.933 315.418 119.301C309.807 111.088 322.266 101.723 333.252 93.4667C338.906 89.2213 343.791 85.552 345.775 82.3947C351.172 73.7973 352.068 63.792 352.943 54.128C354.522 36.5067 355.908 21.2747 384.815 21.2747C388.25 21.2747 391.898 21.3813 395.759 21.488L400.452 21.616C402.458 21.6587 404.463 21.68 406.49 21.68C434.18 21.68 459.012 17.4347 483.055 13.3387C501.956 10.1173 519.791 7.06667 535.13 7.06667C543.343 7.06667 550.404 7.94134 556.719 9.75467C574.148 14.7253 592.559 23.5787 611.823 33.7973V32.5813C592.687 22.448 574.383 13.68 557.018 8.73066C550.596 6.896 543.428 6 535.13 6L535.194 6.02134Z" fill="white"/>
<path d="M82.338 645.757C114.103 642.131 151.927 604.392 162.061 575.549C179.661 525.48 148.365 485.16 118.093 446.163C88.8873 408.531 61.282 372.989 74.7006 329.704C86.3913 292.008 124.151 271.656 153.741 271.656C169.698 271.656 183.479 277.309 192.589 287.592C203.405 299.795 207.65 318.333 204.877 341.203C195.341 419.773 192.503 505.725 280.098 531.069C290.146 533.971 300.066 535.443 309.602 535.443C346.487 535.443 370.018 514.323 383.266 496.595C408.674 462.611 417.506 411.773 405.218 370.109C394.807 334.781 374.306 300.499 342.583 265.341C295.415 213.075 231.159 168.147 146.167 127.955L142.498 126.205C106.743 109.288 69.7726 91.7947 30.8393 82.152C28.5353 81.576 25.9753 80.8933 23.2446 80.168C11.2126 76.968 -3.74205 73 -16.5847 73C-21.726 73 -26.1847 73.6613 -29.8114 74.9627C-35.358 76.9467 -38.4727 80.744 -41.502 84.4133C-43.7634 87.144 -46.0887 89.9813 -49.4167 92.008C-51.5714 93.3307 -55.7954 94.952 -60.2327 96.68C-67.422 99.4533 -74.8887 102.333 -77.2354 105.107C-81.7794 110.44 -80.5207 113.64 -79.326 116.755C-78.4514 118.973 -77.6407 121.085 -78.7074 124.221L-79.5394 126.696C-83.8487 139.368 -90.9669 147.14 -100.894 150.013C-103.774 150.845 -107.358 151.891 -111.603 153.235C-123.87 157.139 -128.905 163.155 -133.769 168.979C-137.502 173.459 -141.043 177.683 -147.721 181.096C-147.891 181.096 -148.105 181.096 -148.318 181.096C-155.998 181.096 -214.238 184.936 -218.718 199.251C-219.913 203.112 -217.31 207.293 -210.931 211.709C-202.953 217.235 -196.915 217.875 -193.054 217.875C-191.177 217.875 -189.47 217.704 -187.827 217.555C-186.419 217.427 -185.097 217.299 -183.838 217.299C-179.145 217.299 -174.409 218.621 -167.923 234.643C-166.323 238.589 -165.086 241.811 -164.062 244.499C-159.027 257.683 -158.857 257.853 -146.078 263.315C-142.899 264.659 -138.953 266.344 -133.939 268.669C-117.47 276.264 -114.099 284.883 -109.833 295.805C-107.571 301.565 -105.011 308.115 -100.169 315.475C-94.9847 323.347 -88.9047 329.683 -83.0167 335.805C-72.5847 346.664 -62.7287 356.925 -59.5927 374.056C-54.1527 403.731 -70.2594 432.061 -88.478 458.259C-97.31 470.973 -115.465 485.757 -134.686 501.416C-167.326 527.997 -204.318 558.141 -204.446 586.045C-204.531 601.981 -200.435 614.205 -192.286 622.397C-183.411 631.315 -169.929 635.645 -151.049 635.645C-123.678 635.645 -90.0567 626.408 -60.382 618.28C-37.022 611.88 -16.8407 606.333 -3.95538 606.333C-1.03272 606.333 1.44195 606.632 3.38329 607.208C15.8206 610.899 25.6766 618.792 35.234 626.429C47.8846 636.563 59.8526 646.12 76.9406 646.12C78.69 646.12 80.482 646.013 82.274 645.821L82.338 645.757ZM3.87398 605.715C1.74064 605.075 -0.798053 604.776 -3.89139 604.776C-16.9901 604.776 -37.2567 610.344 -60.7234 616.765C-90.3127 624.872 -123.849 634.088 -151.006 634.088C-169.459 634.088 -182.601 629.907 -191.177 621.288C-199.027 613.395 -202.974 601.533 -202.91 586.003C-202.782 558.803 -166.089 528.893 -133.705 502.525C-114.398 486.803 -96.1794 471.955 -87.2194 459.069C-68.83 432.595 -52.5527 403.944 -58.0994 373.736C-61.3207 356.157 -71.326 345.747 -81.9074 334.717C-87.7527 328.637 -93.79 322.344 -98.8887 314.6C-103.646 307.368 -106.185 300.925 -108.403 295.208C-112.798 283.965 -116.275 275.112 -133.278 267.261C-138.313 264.936 -142.281 263.251 -145.459 261.885C-153.68 258.372 -159.411 252.378 -162.654 243.901C-163.678 241.213 -164.915 237.971 -166.515 234.024C-172.723 218.728 -177.566 215.741 -183.817 215.741C-185.139 215.741 -186.505 215.869 -187.955 216.019C-189.555 216.168 -191.219 216.339 -193.033 216.339C-197.001 216.339 -202.505 215.677 -210.057 210.451C-215.838 206.461 -218.249 202.835 -217.267 199.677C-213.385 187.24 -159.091 182.568 -148.297 182.568C-148.041 182.568 -147.87 182.568 -147.763 182.568L-147.593 181.885L-147.273 182.547C-140.19 178.963 -136.329 174.376 -132.617 169.917C-127.667 164.008 -122.995 158.419 -111.134 154.643C-106.91 153.299 -103.347 152.275 -100.467 151.443C-84.958 146.963 -84.766 146.728 -78.11 127.165L-77.278 124.691C-76.0407 121.043 -77.0434 118.483 -77.918 116.2C-79.07 113.256 -80.0514 110.717 -76.0834 106.067C-73.9714 103.592 -66.3767 100.648 -59.678 98.0667C-55.1554 96.3173 -50.8887 94.6747 -48.606 93.288C-45.0647 91.1333 -42.654 88.2107 -40.3287 85.3733C-37.2994 81.704 -34.4407 78.2267 -29.2994 76.392C-25.822 75.1547 -21.534 74.5147 -16.5634 74.5147C-3.91269 74.5147 10.9353 78.4613 22.882 81.64C25.6126 82.3653 28.1726 83.048 30.498 83.624C69.282 93.224 106.189 110.696 141.879 127.571L145.549 129.32C230.349 169.405 294.455 214.227 341.495 266.344C373.069 301.331 393.463 335.421 403.81 370.536C415.97 411.773 407.245 462.077 382.093 495.699C369.037 513.149 345.869 533.949 309.623 533.949C300.237 533.949 290.466 532.499 280.546 529.619C194.082 504.616 196.919 419.347 206.391 341.373C209.229 318.077 204.855 299.133 193.741 286.611C184.354 276.008 170.167 270.184 153.783 270.184C123.661 270.184 85.2179 290.899 73.3139 329.299C59.6606 373.309 88.7806 410.835 116.962 447.123C146.978 485.8 178.039 525.8 160.695 575.101C150.69 603.539 113.442 640.765 82.2099 644.328C80.4606 644.52 78.7326 644.627 77.0473 644.627C60.4713 644.627 48.7166 635.219 36.258 625.256C26.6153 617.533 16.6313 609.555 3.91662 605.757L3.87398 605.715Z" fill="white"/>
<path d="M276.725 31.9333C269.493 37.032 259.594 39.528 246.453 39.528C231.029 39.528 213.749 36.072 198.538 33.0213C189.557 31.2293 181.087 29.5227 174.154 28.7973C170.762 28.4347 161.653 27.6027 150.431 27.6027C129.653 27.6027 102.986 30.4187 94.0475 43.8373C90.1435 49.6613 89.9941 57 93.5781 65.6186C95.2635 69.672 99.6154 71.8693 103.818 74.0027C107.146 75.688 110.581 77.416 112.501 80.0186C114.762 83.0906 116.106 87.4 117.386 91.5813C119.114 97.128 120.885 102.867 124.917 106.259C129.93 110.461 135.413 112.424 142.218 112.424C146.933 112.424 151.754 111.464 156.405 110.547C161.013 109.629 165.77 108.691 170.378 108.691C174.986 108.691 178.634 109.565 182.133 111.357C190.602 115.731 194.186 121.619 197.621 127.293C202.122 134.717 206.367 141.715 220.362 145C249.653 151.848 257.695 159.016 277.087 176.317C279.583 178.557 282.271 180.947 285.215 183.528C292.191 189.651 297.354 196.648 302.346 203.411C306.783 209.448 311.391 215.677 317.322 221.395C324.597 228.413 331.466 231.528 338.101 234.536C346.933 238.547 355.295 242.344 362.869 255.357L364.042 257.405C373.578 273.875 383.199 289.128 389.13 289.128C390.09 289.128 390.901 288.765 391.583 288.019C393.717 285.672 394.293 279.464 393.354 269.032C392.799 262.909 388.383 257.448 384.095 252.157C379.487 246.461 375.135 241.064 375.391 235.112C375.711 227.987 380.021 224.467 384.586 220.755C387.935 218.045 391.391 215.229 393.418 210.856C398.282 200.381 399.455 191.016 400.607 181.949C402.186 169.32 403.679 157.416 414.986 143.933C435.189 119.805 463.541 101.587 494.815 92.6053C505.226 89.6187 514.869 88.168 524.277 88.168C556.234 88.168 579.146 105.555 603.423 123.944C606.175 126.035 608.949 128.125 611.743 130.216V128.36C609.247 126.483 606.773 124.627 604.319 122.771C579.85 104.211 556.725 86.696 524.277 86.696C514.719 86.696 504.949 88.168 494.389 91.1973C462.837 100.243 434.229 118.632 413.813 142.995C402.229 156.819 400.714 168.936 399.093 181.779C397.962 190.739 396.81 199.997 392.031 210.237C390.154 214.291 386.826 216.979 383.626 219.603C378.997 223.357 374.218 227.261 373.877 235.069C373.599 241.576 378.335 247.443 382.901 253.117C387.039 258.237 391.306 263.528 391.818 269.181C392.927 281.469 391.69 285.672 390.431 287.016C390.047 287.443 389.621 287.635 389.087 287.635C383.221 287.635 370.655 265.917 365.301 256.659L364.106 254.611C356.298 241.192 347.722 237.309 338.677 233.171C332.149 230.205 325.407 227.133 318.325 220.307C312.501 214.696 307.935 208.509 303.519 202.515C298.485 195.688 293.279 188.627 286.175 182.397C283.231 179.816 280.543 177.427 278.047 175.187C258.442 157.693 250.335 150.461 220.661 143.528C207.263 140.392 203.167 133.651 198.858 126.504C195.295 120.637 191.626 114.579 182.773 110.013C179.061 108.093 175.007 107.176 170.335 107.176C165.663 107.176 160.757 108.136 156.085 109.053C151.498 109.971 146.741 110.888 142.175 110.888C135.754 110.888 130.57 109.032 125.834 105.064C122.143 101.949 120.415 96.424 118.773 91.0693C117.45 86.7813 116.063 82.344 113.653 79.0586C111.541 76.1786 107.935 74.3653 104.458 72.5947C100.319 70.504 96.3941 68.52 94.9221 64.9787C91.5514 56.8507 91.6581 49.9813 95.2634 44.584C103.861 31.72 129.994 29.0107 150.41 29.0107C161.567 29.0107 170.591 29.8427 173.962 30.2053C180.81 30.9307 189.258 32.6373 198.197 34.408C213.493 37.48 230.837 40.936 246.41 40.936C259.871 40.936 270.047 38.3547 277.535 33.064C296.202 19.8587 290.847 -0.0453335 285.663 -19.288C280.138 -39.8533 274.421 -61.1227 297.418 -74.9893C300.17 -76.6533 303.861 -77.5067 308.362 -77.5067C322.122 -77.5067 341.493 -69.9973 360.223 -62.7227C376.543 -56.3867 391.946 -50.4133 401.973 -50.1787C403.423 -50.136 404.853 -50.136 406.303 -50.136C427.85 -50.136 449.631 -53.848 470.709 -57.4533C491.743 -61.0373 513.482 -64.7493 534.943 -64.7493C549.962 -64.7493 563.53 -62.9573 576.394 -59.288C588.298 -55.896 600.031 -51.3947 611.637 -46.2747V-47.896C600.181 -52.952 588.575 -57.368 576.799 -60.7173C563.786 -64.4293 550.09 -66.2427 534.943 -66.2427C513.354 -66.2427 491.53 -62.5307 470.453 -58.9253C449.439 -55.3413 427.722 -51.6293 406.303 -51.6293C404.853 -51.5867 403.445 -51.6293 401.994 -51.672C392.223 -51.9067 376.949 -57.8373 360.757 -64.1093C341.898 -71.4267 322.399 -79 308.362 -79C303.498 -79 299.679 -78.104 296.629 -76.2693C272.671 -61.8053 278.538 -40.0027 284.213 -18.904C289.482 0.722666 294.474 19.24 276.661 31.848L276.725 31.9333Z" fill="white"/>
</g>
</g>
<defs>
<clipPath id="clip0_710_155463">
<rect width="343" height="809" fill="white"/>
</clipPath>
<clipPath id="clip1_710_155463">
<rect width="960" height="960" fill="white" transform="translate(-348 -130)"/>
</clipPath>
</defs>
</svg>
