<svg width="56" height="24" viewBox="0 0 56 24" fill="none" xmlns="http://www.w3.org/2000/svg">
<path d="M38.8604 16.7125C37.992 16.9409 36.8607 17.0538 35.8766 17.0538C33.3522 17.0538 31.6805 15.7196 31.6805 13.2778C31.6805 10.9666 33.2376 9.46966 35.5168 9.46966C36.0248 9.46966 36.5652 9.53386 36.8935 9.69731V6.34245H38.8604V16.7125ZM36.8935 11.4223C36.582 11.2758 36.1723 11.1945 35.6798 11.1945C34.4841 11.1945 33.6806 11.9273 33.6806 13.213C33.6806 14.5968 34.549 15.3786 35.9424 15.3786C36.1884 15.3786 36.5652 15.3617 36.8932 15.2972L36.8935 11.4223ZM55 16.7125C54.1307 16.9409 52.9999 17.0538 52.0162 17.0538C49.4923 17.0538 47.8197 15.7196 47.8197 13.2778C47.8197 10.9666 49.3774 9.46966 51.656 9.46966C52.164 9.46966 52.7049 9.53386 53.0328 9.69731V6.34245H54.9997L55 16.7125ZM53.033 11.4223C52.7212 11.2758 52.3112 11.1945 51.8199 11.1945C50.6235 11.1945 49.8205 11.9273 49.8205 13.213C49.8205 14.5968 50.6891 15.3786 52.0823 15.3786C52.3279 15.3786 52.7051 15.3617 53.033 15.2972V11.4223ZM41.9534 11.4064C42.2809 11.2758 42.7391 11.2274 43.1327 11.2274C44.3459 11.2274 45.1818 11.9273 45.1818 13.1794C45.1818 14.6575 44.2559 15.3259 43.0179 15.3431V17.0533C43.0505 17.0533 43.0835 17.0533 43.1168 17.0533C45.6571 17.0533 47.1817 15.6377 47.1817 13.1147C47.1817 10.8196 45.5593 9.46942 43.1661 9.46942C41.9536 9.46942 40.7563 9.74623 39.9691 10.0715V19.8223H41.9529L41.9534 11.4064Z" fill="#3C3C3B"/>
<path d="M21.0063 10.9264C20.9616 10.9492 20.9117 10.9607 20.8615 10.9597C20.8111 10.9588 20.7618 10.9454 20.7179 10.921L20.2502 10.6449C20.209 10.618 20.1748 10.5816 20.1507 10.5388L20.146 10.5311C20.1176 10.4872 20.1009 10.4368 20.0975 10.3847L20.0856 9.84387C20.0862 9.79399 20.0992 9.74503 20.1236 9.70137C20.1479 9.65771 20.1826 9.62069 20.2248 9.59364L25.8458 6.34132L17.9576 2.07112C17.8589 2.0243 17.7508 2 17.6414 2C17.5319 2 17.4239 2.0243 17.3251 2.07112L9.43692 6.34132L18.2737 11.4502C18.3165 11.4759 18.3519 11.5118 18.3771 11.5547C18.4023 11.5975 18.4163 11.6459 18.418 11.6954V19.1483C18.4153 19.1982 18.4001 19.2467 18.374 19.2895C18.3478 19.3322 18.3115 19.3678 18.2681 19.3932L17.7923 19.6557C17.7482 19.6774 17.6995 19.6884 17.6503 19.6877H17.6412C17.5887 19.6899 17.5365 19.6789 17.4894 19.6557L17.0123 19.3934C16.9693 19.3678 16.9334 19.3321 16.9077 19.2893C16.882 19.2467 16.8673 19.1982 16.865 19.1486V12.5047C16.8617 12.4787 16.853 12.4536 16.8393 12.4312C16.8256 12.4087 16.8073 12.3894 16.7856 12.3744L9 7.87353V16.6893C9 16.8866 9.13996 17.1298 9.31164 17.2302L17.3298 21.9258C17.4263 21.9746 17.533 22 17.6412 22C17.7495 22 17.8562 21.9746 17.9526 21.9258L25.9722 17.2295C26.1432 17.1286 26.2829 16.8866 26.2827 16.6886V7.87353L21.0063 10.9264Z" fill="url(#paint0_linear_1105_155081)"/>
<defs>
<linearGradient id="paint0_linear_1105_155081" x1="9.25082" y1="33.9043" x2="25.1225" y2="12.4983" gradientUnits="userSpaceOnUse">
<stop stop-color="#BE0737"/>
<stop offset="0.04" stop-color="#C00736"/>
<stop offset="0.63" stop-color="#D8062C"/>
<stop offset="1" stop-color="#E10528"/>
</linearGradient>
</defs>
</svg>
