<svg width="56" height="24" viewBox="0 0 56 24" fill="none" xmlns="http://www.w3.org/2000/svg">
<path fill-rule="evenodd" clip-rule="evenodd" d="M19.5802 15.0871H17.713C14.8002 15.0871 16.9164 8.90042 19.3686 8.90042H22.3188C22.7919 8.90042 23.6259 8.98757 24.0367 7.81743L24.6715 6H20.6259C18.435 6 16.7296 6.77179 15.4973 8.06639C13.3686 10.2822 12.6466 13.7427 13.157 15.3983C13.6425 16.9295 14.962 17.9378 17.0284 17.9627L18.6342 17.9751H20.6134L21.0989 16.5187C21.4599 15.4855 20.6508 15.0871 19.5802 15.0871ZM42.3106 12.5228L42.9204 10.5436H36.4101C35.3271 10.5436 34.8417 10.8423 34.6549 11.4647L34.045 13.444H40.5554C41.6383 13.444 42.1238 13.1452 42.3106 12.5228ZM33.074 16.0083L32.4641 17.9875H38.9744C40.045 17.9875 40.5429 17.6888 40.7296 17.0664L41.3396 15.0871H34.8292C33.7587 15.0871 33.2732 15.3859 33.074 16.0083ZM43.8292 7.9917L44.4393 6.01245H37.9288C36.8458 6.01245 36.3603 6.3112 36.1736 6.93361L35.5637 8.91287H42.074C43.1447 8.91287 43.63 8.61411 43.8292 7.9917ZM33.9952 8.39004C33.7213 6.54772 32.7379 6.01245 30.3479 6.01245H25.9911L23.4516 13.444H25.0574C26.0159 13.444 26.5014 13.4564 27.0118 12.0871L28.0699 8.90042H29.6881C31.0699 8.90042 30.7587 10.6307 30.0616 12.3112C29.4392 13.7925 28.3562 15.0996 27.0491 15.0996H24.3479C23.2649 15.0996 22.767 15.3983 22.5678 16.0208L21.8956 18H23.8749L25.8168 17.9875C27.5346 17.9751 28.9412 17.8506 30.5844 16.3693C32.3271 14.7884 34.3437 10.7303 33.9952 8.39004ZM55.8791 6H52.1074L48.5596 9.77178C48.1487 10.2075 47.7255 10.6431 47.3146 11.1535H47.2772L49.0449 6H45.9704L41.8251 17.9875H44.8998L46.2192 14.2158L47.5884 13.0581L48.6716 16.4689C49.0075 17.527 49.3563 17.9875 50.1032 17.9875H52.4559L50.0408 11.2905L55.8791 6Z" fill="#00B33C"/>
</svg>
