<svg width="375" height="981" viewBox="0 0 375 981" fill="none" xmlns="http://www.w3.org/2000/svg">
<g clip-path="url(#clip0_571_155295)">
<rect width="375" height="981" fill="white"/>
<g clip-path="url(#clip1_571_155295)">
<path d="M157.029 425.329C155.868 424.487 154.093 422.939 151.84 420.96C143.193 413.405 128.698 400.775 118.481 400.775C114.476 400.775 111.495 402.71 109.606 406.533C107.239 411.311 112.451 422.416 115.909 429.766C116.751 431.564 117.479 433.111 117.935 434.226C118.868 436.524 119.732 438.618 120.438 440.507C125.262 453.159 130.268 466.22 133.977 480.42C134.364 481.899 134.728 483.583 135.138 485.335C136.844 492.913 138.938 502.311 144.172 506.93C146.197 508.728 148.177 509.911 150.043 510.48C150.907 510.73 151.749 510.867 152.591 510.867C158.781 510.867 163.036 503.835 167.155 497.031C168.088 495.484 169.066 493.868 170.022 492.412L170.932 491.024C186.611 467.153 196.077 452.726 167.246 432.724C164.447 430.767 160.806 428.128 157.006 425.351L157.029 425.329ZM169.999 490.387L169.089 491.775C168.111 493.277 167.132 494.87 166.199 496.44C162.24 502.971 158.166 509.729 152.614 509.729C151.886 509.729 151.158 509.615 150.407 509.388C148.7 508.887 146.857 507.772 144.945 506.088C139.985 501.719 137.914 492.503 136.253 485.085C135.843 483.287 135.479 481.603 135.092 480.124C131.36 465.879 126.354 452.772 121.507 440.097C120.779 438.208 119.937 436.092 118.981 433.794C118.504 432.656 117.775 431.086 116.933 429.265C113.77 422.552 108.491 411.311 110.63 407.033C112.337 403.597 114.908 401.913 118.481 401.913C128.266 401.913 142.556 414.383 151.089 421.824C153.365 423.804 155.163 425.374 156.369 426.262C160.169 429.038 163.81 431.7 166.631 433.657C194.553 453.045 185.314 467.108 169.999 490.41V490.387Z" fill="#ECE5DF"/>
<path d="M175.689 399.797C170.66 396.133 165.654 392.037 160.352 387.714C144.127 374.47 125.764 359.451 109.243 359.451C105.989 359.451 102.894 360.02 99.7767 361.203C70.6041 372.24 74.7911 403.074 79.8656 420.482C82.9831 431.108 86.9881 441.644 90.8793 451.816C95.4077 463.672 100.095 475.937 103.349 488.43C105.329 495.962 106.308 503.903 107.263 511.572C110.199 535.124 112.975 557.356 144.378 557.356C146.858 557.356 149.543 557.22 152.342 556.947C155.915 556.583 158.85 556.036 161.353 555.24C169.705 552.555 172.208 547.48 175.985 539.812C177.123 537.491 178.42 534.874 180.036 532.029C182.493 527.683 185.178 523.564 187.977 519.605V518.421C184.973 522.654 182.084 527.046 179.444 531.688C177.828 534.532 176.531 537.172 175.371 539.493C171.662 547.002 169.227 551.963 161.148 554.557C158.691 555.354 155.801 555.9 152.274 556.241C149.498 556.514 146.835 556.651 144.378 556.651C113.567 556.651 110.972 535.716 107.946 511.458C106.99 503.767 105.989 495.802 104.009 488.225C100.732 475.687 96.0448 463.421 91.4937 451.543C87.6025 441.371 83.5975 430.881 80.5028 420.277C75.4738 403.096 71.3323 372.649 99.9815 361.818C103.008 360.68 106.034 360.111 109.197 360.111C125.468 360.111 143.74 375.039 159.874 388.214C165.176 392.561 170.205 396.656 175.234 400.32C179.034 403.096 182.379 405.531 184.882 407.261C185.906 407.966 186.931 408.671 187.955 409.377V408.558C187.067 407.943 186.157 407.329 185.269 406.714C182.766 404.985 179.421 402.55 175.644 399.774L175.689 399.797Z" fill="#ECE5DF"/>
<path d="M157.712 908.133C147.699 923.721 135.866 938.671 126.696 949.958C126.195 950.572 125.649 951.232 125.08 951.892C120.984 956.694 115.887 962.656 119.482 968.686C122.964 974.488 132.908 975.672 140.167 976.514C141.464 976.673 142.716 976.81 143.74 976.969C159.373 979.335 174.187 983.727 187.999 989.985V989.234C174.187 983.022 159.418 978.653 143.831 976.286C142.784 976.127 141.532 975.99 140.235 975.831C133.113 974.989 123.351 973.851 120.051 968.322C116.706 962.724 121.621 956.967 125.558 952.325C126.127 951.642 126.696 951.005 127.196 950.368C136.39 939.058 148.245 924.085 158.258 908.475C167.155 894.639 173.436 880.303 180.103 865.125C182.356 860.005 185.018 855.409 187.977 851.381V850.243C184.768 854.476 181.878 859.368 179.466 864.852C172.821 880.007 166.541 894.321 157.666 908.111L157.712 908.133Z" fill="#ECE5DF"/>
<path d="M-85.7495 -10.0075C-82.1996 2.0074 -56.7817 8.65203 -40.5798 8.65203C-17.4601 8.65203 6.7746 4.10092 32.4429 -0.723261C58.3614 -5.59295 85.1447 -10.6219 111.223 -10.6219C139.804 -10.6219 163.788 -4.50068 184.586 8.08314C185.679 8.74305 186.862 9.47123 188 10.1539V8.81131C187.067 8.24243 186.088 7.65078 185.155 7.08189C164.175 -5.61571 139.986 -11.7825 111.2 -11.7825C85.0309 -11.7825 58.1794 -6.73073 32.2153 -1.86104C6.6153 2.96314 -17.5739 7.49149 -40.6025 7.49149C-56.8044 7.49149 -81.4032 0.710338 -84.68 -10.3489C-85.7723 -14.058 -84.4525 -17.9492 -80.7433 -22.0225H-82.2224C-85.704 -17.9037 -86.9101 -13.8987 -85.7723 -10.0303L-85.7495 -10.0075Z" fill="#ECE5DF"/>
<path d="M106.193 68.8625C103.212 68.8625 100.3 68.8398 97.4324 68.817C94.679 68.817 91.9711 68.7715 89.3087 68.7715C73.7894 68.7715 61.4331 69.6134 47.8253 73.7322C40.7028 75.894 34.0354 79.2846 27.5729 82.5841C16.8095 88.0682 6.61499 93.2565 -5.55923 93.2565C-7.58447 93.2565 -9.6325 93.1199 -11.635 92.8241C-20.6234 91.527 -27.3363 86.225 -33.8444 81.105C-41.1489 75.3478 -48.0666 69.9093 -57.7377 69.9093C-58.6252 69.9093 -59.5127 69.9548 -60.4229 70.0458C-66.4076 70.6602 -75.965 76.0305 -85.2265 81.2415C-91.1884 84.5866 -96.809 87.7496 -100.791 89.206C-106.594 91.345 -110.94 92.369 -114.103 93.1427C-123.661 95.4182 -124.867 96.2602 -129.532 113.873C-130.806 118.743 -131.739 123.294 -132.649 127.686C-135.994 144.024 -138.634 156.927 -156.042 169.237C-167.784 177.543 -182.688 181.571 -201.621 181.571C-220.372 181.571 -239.964 177.657 -257.258 174.175C-266.292 172.355 -274.848 170.648 -281.175 169.988C-284.861 169.601 -290.55 169.351 -296.375 169.351C-313.078 169.351 -332.648 175.472 -334.013 184.233C-334.65 188.397 -331.419 194.632 -312.259 200.754L-310.12 201.436C-237.143 224.852 -186.238 255.39 -134.447 306.863C-120.156 321.062 -109.234 327.684 -100.109 327.684C-97.9695 327.684 -95.8533 327.297 -93.8736 326.569C-84.1569 322.951 -77.08 310.686 -68.8652 296.486C-64.6327 289.159 -59.8313 280.853 -54.1424 272.843C-26.6537 234.113 12.7818 205.805 56.9048 193.153C69.921 189.421 82.6413 187.533 94.679 187.533C133.978 187.533 161.717 206.784 187.977 226.581V225.148C161.762 205.419 134.023 186.395 94.679 186.395C82.5275 186.395 69.7161 188.306 56.5862 192.061C12.2129 204.781 -27.4501 233.249 -55.0754 272.183C-60.787 280.216 -65.5884 288.567 -69.8437 295.917C-77.9447 309.935 -84.9307 322.018 -94.2604 325.5C-96.1264 326.205 -98.0833 326.546 -100.109 326.546C-108.938 326.546 -119.587 320.038 -133.65 306.066C-185.578 254.457 -236.619 223.828 -309.778 200.367L-311.917 199.684C-326.253 195.11 -333.694 189.672 -332.875 184.438C-331.737 177.156 -314.329 170.512 -296.353 170.512C-290.573 170.512 -284.929 170.739 -281.288 171.126C-275.008 171.786 -266.474 173.493 -257.463 175.313C-240.124 178.795 -220.463 182.731 -201.598 182.731C-182.438 182.731 -167.306 178.635 -155.359 170.193C-137.587 157.609 -134.902 144.502 -131.511 127.936C-130.601 123.544 -129.691 119.016 -128.394 114.169C-123.774 96.6243 -122.819 96.3967 -113.807 94.2577C-110.599 93.484 -106.23 92.46 -100.359 90.2982C-96.2857 88.7964 -90.6195 85.6106 -84.6348 82.2428C-75.9194 77.3503 -66.0207 71.7752 -60.2863 71.1836C-59.4216 71.0926 -58.557 71.047 -57.715 71.047C-48.4307 71.047 -41.6723 76.3718 -34.5043 81.9925C-27.8824 87.2035 -21.033 92.5966 -11.7487 93.9391C-9.67799 94.235 -7.56172 94.3942 -5.49096 94.3942C6.95632 94.3942 17.7425 88.9102 28.1417 83.6081C34.5588 80.3541 41.1807 76.9635 48.1894 74.8472C61.6834 70.7512 73.926 69.932 89.3315 69.932C91.9939 69.932 94.679 69.932 97.4324 69.9775C100.3 70.0003 103.212 70.023 106.193 70.023C120.097 70.023 132.522 71.6387 144.218 74.9838C158.986 79.1935 173.481 85.0872 188 91.9594V90.7078C173.595 83.9267 159.214 78.0785 144.536 73.8915C132.749 70.5237 120.211 68.8853 106.193 68.8853V68.8625Z" fill="#ECE5DF"/>
<path d="M163.356 926.747C155.984 935.599 147.632 945.612 148.042 955.214C148.338 962.61 155.506 963.862 161.832 964.954C163.356 965.227 164.79 965.477 166.133 965.796C172.595 967.343 180.264 970.028 188.001 973.214V972.486C180.309 969.323 172.709 966.683 166.292 965.136C164.926 964.795 163.47 964.544 161.945 964.294C155.574 963.179 148.998 962.041 148.724 955.192C148.338 945.839 156.598 935.941 163.902 927.18C166.906 923.584 169.751 920.171 171.708 917.099C178.193 906.995 183.267 896.915 188.023 886.584V884.945C183.108 895.731 177.874 906.245 171.139 916.735C169.182 919.761 166.36 923.152 163.379 926.747H163.356Z" fill="#ECE5DF"/>
<path d="M176.235 419.799C173.596 417.956 170.023 415.362 166.291 412.631C160.944 408.717 155.778 404.507 150.271 400.024C149.043 399.023 147.677 397.863 146.244 396.657C137.073 388.874 124.512 378.225 112.952 378.225C109.767 378.225 106.808 379.044 104.169 380.682C84.1893 393.038 96.2042 422.53 103.372 440.142C104.237 442.281 105.079 444.307 105.762 446.104C110.449 458.347 115.296 471.022 118.778 484.379C119.438 486.882 120.098 489.841 120.78 492.958C123.966 507.249 128.312 526.841 139.258 533.895C141.055 535.056 142.967 535.784 144.901 536.057C145.47 536.148 146.084 536.171 146.676 536.171C160.056 536.171 173.391 515.85 183.153 500.991C184.928 498.306 186.521 495.871 188 493.755V492.571C186.384 494.87 184.587 497.577 182.584 500.627C172.936 515.35 159.692 535.488 146.676 535.488C146.107 535.488 145.561 535.443 144.992 535.374C143.149 535.124 141.351 534.419 139.622 533.326C128.904 526.432 124.58 506.998 121.44 492.822C120.735 489.704 120.098 486.746 119.438 484.22C115.933 470.84 111.086 458.142 106.399 445.877C105.716 444.079 104.897 442.054 104.009 439.915C96.9096 422.484 85.054 393.334 104.533 381.297C107.081 379.726 109.903 378.93 112.952 378.93C124.262 378.93 136.709 389.489 145.789 397.203C147.222 398.432 148.587 399.569 149.862 400.616C155.346 405.076 160.511 409.309 165.882 413.223C169.614 415.953 173.186 418.547 175.826 420.391C179.376 422.848 182.971 425.283 186.794 427.877C187.204 428.15 187.591 428.401 187.977 428.674V427.854C187.704 427.672 187.431 427.49 187.135 427.286C183.335 424.714 179.74 422.279 176.19 419.822L176.235 419.799Z" fill="#ECE5DF"/>
<path d="M57.9526 581.295C59.2497 582.979 61.6617 585.278 67.7375 585.778C90.4703 587.644 124.854 590.443 153.867 616.885L154.209 617.181C164.13 626.238 172.185 637.706 178.147 651.269C179.809 655.001 182.471 657.162 185.497 657.162C186.317 657.162 187.159 657.003 188.001 656.662V655.843C187.181 656.229 186.339 656.48 185.497 656.48C182.767 656.48 180.309 654.477 178.762 650.996C172.754 637.342 164.631 625.805 154.641 616.68L154.3 616.385C125.104 589.783 90.5841 586.962 67.7602 585.096C61.9576 584.618 59.6593 582.456 58.4532 580.886C55.5633 577.108 55.1992 571.26 55.5177 569.463C58.6808 555.536 62.6175 538.196 61.1384 519.241C58.658 487.133 45.8011 459.53 33.3993 432.838C23.4324 411.425 12.1457 387.145 16.0596 376.086C23.0456 356.402 51.5811 328.163 63.505 316.944C71.0826 309.822 80.1165 306.203 90.311 306.203C96.1364 306.203 101.165 307.432 104.374 308.456C125.309 315.215 154.937 330.666 187.978 351.897V351.077C155.051 329.938 125.491 314.532 104.579 307.796C101.347 306.75 96.2274 305.498 90.311 305.498C79.9345 305.498 70.764 309.184 63.0498 316.443C51.0804 327.707 22.4539 356.038 15.4225 375.858C11.4175 387.19 22.7725 411.584 32.785 433.134C45.164 459.758 57.9754 487.292 60.4557 519.287C61.9348 538.151 57.9981 555.422 54.8578 569.349C54.5165 571.237 54.8806 577.359 57.907 581.318L57.9526 581.295Z" fill="#ECE5DF"/>
<path d="M185.974 923.015C182.31 929.023 178.146 935.827 179.147 943.222C180.126 950.504 183.448 953.622 187.999 955.897V955.123C183.721 952.916 180.763 949.935 179.83 943.108C178.874 935.94 182.947 929.25 186.566 923.334L187.248 922.219C187.521 921.787 187.749 921.286 187.999 920.831V919.42C187.567 920.239 187.135 921.104 186.657 921.878L185.974 922.993V923.015Z" fill="#ECE5DF"/>
<path d="M-110.575 13.2935C-90.9373 25.627 -68.0452 31.6117 -40.602 31.6117C-15.3433 31.6117 11.0986 26.651 36.6759 21.8268C61.5704 17.1392 87.2842 12.315 111.2 12.315C135.116 12.315 155.551 17.344 172.663 27.6977C175.644 29.4954 178.784 31.4069 182.038 33.4094C183.973 34.5927 185.952 35.7987 187.978 37.0275V35.1616C186.248 34.1148 184.541 33.0681 182.858 32.0441C179.581 30.0643 176.463 28.1529 173.482 26.3324C156.143 15.8193 135.754 10.7221 111.2 10.7221C86.6471 10.7221 61.3201 15.569 36.38 20.2567C10.871 25.0581 -15.4799 29.9961 -40.602 29.9961C-67.7494 29.9961 -90.3684 24.0796 -109.733 11.9054C-122.75 3.73615 -129.03 -4.86545 -128.416 -13.6263C-128.211 -16.4253 -127.301 -19.247 -125.708 -22.0459H-127.483C-128.939 -19.2925 -129.804 -16.5163 -129.986 -13.7401C-130.646 -4.34208 -124.115 4.73739 -110.575 13.248V13.2935Z" fill="#ECE5DF"/>
<path d="M100.778 560.678C105.967 563.523 113.066 564.729 119.938 565.889C125.036 566.754 130.292 567.642 134.57 569.189C137.278 570.167 140.259 571.647 143.422 573.194C149.953 576.403 157.349 580.066 164.084 580.066C165.381 580.066 166.633 579.93 167.816 579.657C168.135 579.588 168.431 579.497 168.749 579.406C178.397 576.539 183.54 564.433 187.978 553.328V551.485L187.887 551.69C183.381 563.022 178.284 575.856 168.544 578.769C168.249 578.86 167.953 578.928 167.657 578.997C166.542 579.247 165.336 579.384 164.084 579.384C157.508 579.384 150.181 575.765 143.718 572.58C140.532 571.009 137.528 569.53 134.798 568.552C130.451 566.982 125.149 566.094 120.029 565.207C113.203 564.046 106.149 562.84 101.074 560.064C89.8328 553.897 91.0162 542.611 92.245 530.664C92.7228 525.999 93.2234 521.152 92.8821 516.737C89.9466 478.872 75.8837 448.63 62.2759 419.412C56.1091 406.145 55.654 391.582 61.0016 378.452C66.8042 364.23 78.9557 352.738 94.3384 346.936C99.1399 345.115 104.123 344.205 109.198 344.205C131.157 344.205 151.773 361.044 169.955 375.903C175.098 380.113 179.968 384.073 184.632 387.486C185.839 388.373 186.931 389.17 187.955 389.921V389.079C187.045 388.419 186.066 387.713 185.019 386.94C180.377 383.549 175.508 379.59 170.365 375.38C152.092 360.452 131.362 343.545 109.175 343.545C104.032 343.545 98.9578 344.478 94.0882 346.321C78.5234 352.192 66.2353 363.82 60.3644 378.224C54.9258 391.536 55.4037 406.282 61.6615 419.731C75.2465 448.926 89.2867 479.1 92.1994 516.828C92.5407 521.175 92.0401 525.999 91.5622 530.641C90.3562 542.292 89.1046 554.33 100.733 560.701L100.778 560.678Z" fill="#ECE5DF"/>
<path d="M106.193 91.8463C87.0559 91.8463 66.7124 95.3051 45.1174 98.9915C20.8372 103.133 -4.28488 107.411 -31.0227 107.411C-32.9569 107.411 -34.8683 107.411 -36.6888 107.343C-45.973 107.115 -53.8465 105.591 -60.7869 104.248C-66.7944 103.088 -71.9827 102.064 -76.9661 102.064C-88.799 102.064 -97.4917 108.299 -106.981 123.545C-111.555 130.895 -114.9 139.701 -118.131 148.189C-123.843 163.23 -129.759 178.795 -142.798 188.011C-147.281 191.174 -155.882 193.632 -164.985 196.249C-180.891 200.8 -198.913 205.943 -201.371 216.683C-204.42 230.155 -176.772 248.564 -161.913 258.462C-159.159 260.306 -156.77 261.899 -155.2 263.036C-137.769 275.825 -123.365 284.336 -109.666 284.336C-107.8 284.336 -105.934 284.176 -104.113 283.835C-93.1908 281.878 -83.2694 274.141 -72.8929 259.509C-42.4004 216.547 1.44948 185.121 50.5787 171.013C65.6657 166.689 80.5023 164.505 94.7018 164.505C133.955 164.505 163.014 180.365 188 198.024V197.182C163.014 179.569 133.955 163.822 94.7018 163.822C80.4568 163.822 65.5519 166.029 50.3967 170.376C1.10818 184.507 -42.8556 216.023 -73.4391 259.122C-83.7018 273.595 -93.4867 281.241 -104.227 283.152C-106.002 283.471 -107.823 283.63 -109.666 283.63C-123.183 283.63 -137.473 275.165 -154.79 262.467C-156.36 261.307 -158.772 259.714 -161.526 257.871C-176.249 248.063 -203.646 229.813 -200.711 216.797C-198.344 206.443 -180.527 201.369 -164.803 196.886C-155.632 194.269 -146.985 191.811 -142.411 188.557C-129.19 179.228 -123.251 163.572 -117.494 148.439C-114.285 139.974 -110.94 131.213 -106.412 123.909C-97.0593 108.867 -88.5487 102.746 -76.9889 102.746C-72.0737 102.746 -66.9309 103.747 -60.9462 104.908C-53.983 106.273 -46.0641 107.798 -36.7343 108.025C-34.8911 108.071 -32.9797 108.094 -31.0454 108.094C-4.23939 108.094 20.9055 103.816 45.2539 99.6514C66.7807 95.9878 87.1015 92.5062 106.171 92.5062C117.958 92.5062 128.357 93.8488 138.006 96.6022C154.549 101.313 171.092 108.526 187.977 116.968V116.195C171.16 107.798 154.685 100.63 138.188 95.9195C128.471 93.1434 118.003 91.8008 106.148 91.8008L106.193 91.8463Z" fill="#ECE5DF"/>
<path d="M86.0548 572.944C90.7197 574.104 95.248 575.174 99.6626 576.175C123.465 581.682 143.99 586.461 164.539 605.052L164.948 605.416C169.681 609.694 173.391 611.765 176.349 611.765C176.804 611.765 177.259 611.719 177.691 611.605C182.152 610.581 184.382 604.346 186.816 596.314C187.203 595.062 187.613 593.833 188 592.604V590.374C187.363 592.286 186.748 594.22 186.156 596.132C183.767 603.96 181.628 610.013 177.532 610.968C174.574 611.651 170.683 609.694 165.403 604.915L164.994 604.551C144.309 585.823 123.692 581.045 99.7991 575.515C95.4073 574.491 90.8562 573.444 86.2141 572.284C69.5342 568.097 72.356 552.395 75.0866 537.24C76.2699 530.618 77.5215 523.746 77.0664 518.012C74.3584 483.036 60.9099 454.114 47.8937 426.148C46.3463 422.803 44.6852 419.548 43.0695 416.385C34.7183 399.979 27.482 385.825 37.813 368.394C45.5727 355.287 57.2235 344.546 68.4648 334.17C70.49 332.304 72.5152 330.438 74.495 328.572C78.8413 324.499 84.7577 322.428 92.0623 322.428C120.097 322.428 163.219 352.26 188.022 370.237V369.395C163.082 351.35 120.143 321.745 92.0623 321.745C84.5757 321.745 78.5 323.884 74.0171 328.071C72.0374 329.937 70.0122 331.803 67.9869 333.669C56.7002 344.091 45.0266 354.854 37.1986 368.053C26.6856 385.802 34.3314 400.821 42.4324 416.704C44.048 419.867 45.7092 423.121 47.2566 426.466C60.2272 454.387 73.6758 483.241 76.3609 518.103C76.7933 523.746 75.5645 530.573 74.3812 537.149C71.605 552.623 68.7151 568.643 86.032 572.989L86.0548 572.944Z" fill="#ECE5DF"/>
<path d="M-392.836 900.647C-398.593 909.339 -405.761 920.126 -403.28 927.589C-402.279 930.639 -399.731 932.914 -395.726 934.348C-394.975 934.621 -394.133 934.757 -393.245 934.757C-384.462 934.757 -370.535 921.172 -358.247 909.203C-350.442 901.58 -343.046 894.389 -338.609 892.364C-317.401 882.738 -288.137 878.164 -262.332 874.114C-252.138 872.521 -242.512 871.019 -233.638 869.267C-213.385 865.308 -193.838 863.282 -175.52 863.282C-115.582 863.282 -65.2694 884.854 -25.9478 927.385C-21.5332 932.163 -15.1389 934.575 -6.87866 934.575C18.7896 934.575 62.8216 909.59 93.8147 863.282C112.36 835.589 139.303 778.95 111.291 710.934C100.072 683.673 83.3927 670.975 58.7939 670.975C40.0888 670.975 18.7441 677.847 -5.96838 685.812C-36.3698 695.619 -70.8445 706.724 -107.936 706.724C-136.813 706.724 -163.323 700.057 -188.991 686.381C-268.181 644.146 -270.479 567.119 -263.652 504.723C-260.99 480.466 -265.313 461.26 -276.122 449.177C-283.768 440.643 -294.168 436.138 -306.228 436.138C-329.075 436.138 -357.587 453.864 -367.873 487.77C-377.544 519.673 -354.606 548.687 -328.051 582.274C-298.081 620.139 -264.13 663.056 -270.729 720.332C-274.006 748.731 -284.36 775.969 -298.468 793.218C-309.163 806.302 -318.607 807.463 -328.619 808.692C-336.265 809.625 -344.161 810.603 -353.423 816.474C-360.5 820.957 -362.707 828.603 -365.051 836.681C-366.667 842.256 -368.351 848.013 -371.741 852.746C-373.607 855.341 -376.861 855.909 -380.275 856.501C-384.803 857.298 -389.946 858.185 -392.654 864.033C-394.542 868.106 -392.039 872.908 -389.627 877.55C-387.602 881.418 -385.531 885.423 -386.145 888.746C-386.646 891.408 -389.468 895.686 -392.745 900.624L-392.836 900.647ZM-388.535 876.981C-390.901 872.43 -393.154 868.106 -391.539 864.625C-389.104 859.391 -384.53 858.595 -380.115 857.821C-376.565 857.207 -372.924 856.569 -370.74 853.543C-367.213 848.628 -365.506 842.757 -363.845 837.091C-361.569 829.24 -359.408 821.844 -352.763 817.635C-343.752 811.923 -335.992 810.967 -328.506 810.034C-318.22 808.76 -308.526 807.577 -297.49 794.083C-283.245 776.652 -272.755 749.14 -269.455 720.514C-262.81 662.692 -296.944 619.548 -327.049 581.477C-353.377 548.186 -376.133 519.423 -366.644 488.18C-356.54 454.888 -328.619 437.48 -306.251 437.48C-294.577 437.48 -284.496 441.827 -277.124 450.064C-266.565 461.851 -262.355 480.693 -264.972 504.586C-271.844 567.392 -269.501 644.943 -189.629 687.541C-163.755 701.331 -137.04 708.044 -107.936 708.044C-70.6397 708.044 -36.074 696.894 -5.58158 687.063C19.0172 679.122 40.2709 672.272 58.7711 672.272C83.0968 672.272 98.9119 684.355 110.062 711.412C137.847 778.882 111.109 835.043 92.7224 862.531C63.072 906.791 18.7897 933.256 -6.90137 933.256C-14.752 933.256 -20.8506 930.98 -24.9921 926.497C-64.564 883.694 -115.218 861.985 -175.52 861.985C-193.907 861.985 -213.545 864.01 -233.888 867.993C-242.74 869.722 -252.366 871.224 -262.537 872.817C-288.433 876.867 -317.765 881.464 -339.155 891.158C-343.797 893.274 -350.92 900.214 -359.157 908.247C-371.263 920.057 -384.985 933.438 -393.245 933.438C-393.973 933.438 -394.656 933.324 -395.27 933.119C-398.911 931.799 -401.119 929.865 -402.006 927.18C-404.282 920.33 -397.318 909.817 -391.721 901.375C-388.353 896.301 -385.463 891.931 -384.917 889.019C-384.211 885.241 -386.396 881.054 -388.512 876.981H-388.535Z" fill="#ECE5DF"/>
<path d="M157.144 745.34C160.08 747.206 164.813 748.23 170.502 748.23C175.576 748.23 181.584 747.388 187.978 745.431V743.77C181.584 745.772 175.576 746.637 170.502 746.637C165.177 746.637 160.626 745.681 157.986 743.997C144.629 735.464 138.712 720.377 132.454 704.425C127.061 690.658 121.463 676.413 110.632 666.378V665.9H110.131C97.6611 654.932 80.8903 649.584 58.8174 649.584C36.7446 649.584 14.6489 654.75 -3.53284 658.891C-15.9574 661.736 -26.698 664.171 -33.6157 664.171C-37.6662 664.171 -40.1465 663.329 -41.1705 661.622C-42.5358 659.346 -41.5118 655.046 -38.144 648.902C-22.4199 620.184 9.34681 551.735 7.13952 523.405C5.4101 501.059 -5.33049 477.962 -15.7298 455.639C-30.7712 423.303 -46.3132 389.898 -35.0037 357.949C-22.0786 321.517 34.8331 256.391 75.3152 250.884C77.6818 250.566 80.2304 250.406 82.8928 250.406C109.244 250.406 147.769 266.108 187.932 288.841V287.134C147.746 264.447 109.244 248.813 82.8928 248.813C80.1621 248.813 77.5453 248.973 75.1104 249.314C34.1049 254.912 -23.4667 320.653 -36.5056 357.426C-48.0427 389.966 -32.3414 423.69 -17.1862 456.321C-6.85515 478.508 3.81723 501.468 5.5239 523.541C7.48088 548.8 -20.2126 612.811 -39.5549 648.151C-43.3095 655.023 -44.288 659.574 -42.5586 662.464C-41.2388 664.717 -38.3033 665.786 -33.6384 665.786C-26.5387 665.786 -15.7298 663.329 -3.21423 660.461C14.8992 656.32 37.45 651.177 58.7947 651.177C80.1394 651.177 97.115 656.457 109.289 667.311C120.007 677.119 125.559 691.295 130.953 704.994C137.301 721.196 143.309 736.511 157.121 745.317L157.144 745.34Z" fill="#ECE5DF"/>
<path d="M143.877 849.242C137.869 862.941 132.18 875.889 124.989 887.107C83.0509 952.347 36.2883 963.338 -13.2278 974.966C-17.0052 975.854 -20.9647 976.696 -24.7877 977.515C-41.2854 981.019 -58.3293 984.66 -72.2329 993.671C-76.5792 996.493 -79.9016 999.269 -82.2227 1002.02H-80.7436C-78.5363 999.611 -75.5098 997.153 -71.6186 994.627C-57.897 985.73 -40.9441 982.112 -24.5601 978.63C-20.7144 977.811 -16.7549 976.969 -12.9775 976.081C36.7434 964.385 83.7336 953.348 125.922 887.721C133.181 876.435 138.87 863.464 144.923 849.674C154.503 827.829 165.381 803.094 180.376 794.811C183.039 793.809 185.565 792.922 188 792.148V790.965C185.428 791.784 182.743 792.717 179.921 793.787C164.493 802.274 153.548 827.214 143.877 849.242Z" fill="#ECE5DF"/>
<path d="M-92.6892 977.31C-65.8604 965.341 -41.6029 959.652 -18.1192 954.123C29.0303 943.041 69.74 933.461 106.991 875.525C113.271 865.763 118.619 853.566 124.285 840.641C136.118 813.653 148.36 785.754 171.093 774.24C177.214 771.873 182.79 770.03 188.001 768.665V767.026C182.585 768.437 176.759 770.349 170.365 772.829C147.154 784.594 134.798 812.765 122.829 840.003C117.185 852.86 111.861 865.012 105.648 874.66C68.716 932.072 28.3021 941.584 -18.506 952.575C-42.0353 958.105 -66.3838 963.839 -93.3491 975.854C-110.894 983.682 -122.613 992.739 -127.482 1002H-125.707C-120.815 993.33 -109.483 984.797 -92.7119 977.31H-92.6892Z" fill="#ECE5DF"/>
<path d="M-213.68 796.29C-212.747 796.813 -211.746 797.063 -210.699 797.063C-206.649 797.063 -202.689 793.104 -199.162 789.622C-197.137 787.597 -195.203 785.685 -193.633 784.934C-191.585 783.956 -189.673 783.478 -187.785 783.478C-184.166 783.478 -181.094 785.208 -177.545 787.21C-176.27 787.915 -174.95 788.666 -173.54 789.372C-170.149 791.056 -166.827 791.852 -163.391 791.852C-159.954 791.852 -156.746 791.056 -153.355 790.237C-149.828 789.372 -146.187 788.484 -141.932 788.393H-141.386C-132.739 788.393 -124.82 792.876 -117.151 797.2C-109.528 801.501 -101.655 805.961 -93.0759 805.961C-88.9571 805.961 -84.9976 804.959 -80.9927 802.934C-77.7841 801.296 -75.3265 799.293 -73.1647 797.496C-69.6376 794.583 -66.5884 792.08 -61.4456 792.08C-59.9438 792.08 -58.3281 792.285 -56.5304 792.717C-41.9214 796.176 -35.4816 809.602 -29.2693 822.595C-26.3566 828.693 -23.3528 834.974 -19.5527 840.003C-11.9295 850.084 -2.09919 855.636 8.14081 855.636H8.66422C18.927 855.454 28.7802 849.788 36.426 839.707C46.7798 826.031 65.5986 781.453 57.7935 759.266C55.4951 752.713 51.0578 748.571 44.6407 746.956C42.3652 746.387 40.2717 746.091 38.201 746.091C31.5563 746.091 26.5728 749.072 20.8157 752.508C19.5186 753.282 18.176 754.078 16.7652 754.874C5.09159 761.474 -6.46825 762.839 -18.7335 764.295C-23.5349 764.864 -28.5183 765.456 -33.5473 766.366C-39.1452 767.39 -44.1969 769.347 -49.0666 771.236C-55.4837 773.716 -61.5367 776.06 -68.2041 776.06C-72.7097 776.06 -77.1015 774.968 -81.6526 772.738C-91.0279 768.118 -101.245 763.863 -112.532 763.863C-116.264 763.863 -119.95 764.295 -123.75 765.205C-125.48 765.615 -127.186 766.047 -128.848 766.48C-135.378 768.141 -141.545 769.711 -147.803 769.711C-152.877 769.711 -157.656 768.664 -162.389 766.48L-164.392 765.547C-172.993 761.565 -181.891 757.469 -190.97 757.469C-195.999 757.469 -200.619 758.697 -205.147 761.2C-210.836 764.363 -218.459 777.653 -218.459 786.914C-218.459 791.283 -216.775 794.515 -213.635 796.244L-213.68 796.29ZM-204.646 762.224C-200.3 759.812 -195.84 758.629 -191.016 758.629C-182.164 758.629 -173.403 762.68 -164.915 766.616L-162.913 767.549C-158.043 769.779 -153.105 770.872 -147.848 770.872C-141.454 770.872 -135.219 769.279 -128.62 767.595C-126.959 767.162 -125.275 766.73 -123.546 766.32C-119.836 765.433 -116.264 765.001 -112.6 765.001C-101.541 765.001 -91.4602 769.21 -82.2215 773.762C-77.5111 776.083 -72.96 777.198 -68.2723 777.198C-61.4001 777.198 -55.2334 774.808 -48.7253 772.282C-43.9011 770.416 -38.9176 768.482 -33.4108 767.458C-28.4046 766.548 -23.4667 765.956 -18.6652 765.387C-6.30896 763.931 5.38739 762.543 17.243 755.83C18.6539 755.034 20.0192 754.215 21.3163 753.441C26.9369 750.096 31.7839 747.183 38.1099 747.183C40.0669 747.183 42.0921 747.456 44.2539 748.002C50.2841 749.527 54.4484 753.418 56.6102 759.585C64.2788 781.407 45.642 825.439 35.402 838.956C27.9837 848.741 18.4491 854.248 8.52769 854.43H8.02706C-1.84885 854.43 -11.3606 849.037 -18.7562 839.252C-22.4881 834.314 -25.3326 828.352 -28.359 822.049C-34.6851 808.805 -41.2387 795.129 -56.3939 791.556C-58.2826 791.101 -59.9666 790.897 -61.5595 790.897C-67.1118 790.897 -70.2976 793.536 -74.0068 796.563C-76.2368 798.383 -78.5123 800.272 -81.6298 801.865C-85.4755 803.822 -89.253 804.777 -93.1897 804.777C-101.473 804.777 -108.868 800.59 -116.696 796.153C-124.479 791.738 -132.534 787.187 -141.477 787.187H-142.046C-146.438 787.278 -150.124 788.211 -153.719 789.076C-157.042 789.895 -160.182 790.669 -163.482 790.669C-166.781 790.669 -169.853 789.918 -173.13 788.302C-174.518 787.62 -175.815 786.892 -177.067 786.186C-180.616 784.184 -183.962 782.318 -187.853 782.318C-189.924 782.318 -191.994 782.841 -194.202 783.888C-195.954 784.73 -197.933 786.687 -200.027 788.78C-203.372 792.103 -207.172 795.88 -210.745 795.88C-211.587 795.88 -212.383 795.675 -213.157 795.243C-215.956 793.695 -217.389 790.896 -217.389 786.892C-217.389 777.493 -209.471 764.819 -204.669 762.156L-204.646 762.224Z" fill="#ECE5DF"/>
<path d="M-360.454 876.73C-358.998 877.117 -356.381 877.299 -353.059 877.299C-346.141 877.299 -320.45 876.275 -280.378 863.032C-246.881 851.972 -207.696 845.874 -170.081 845.874C-108.141 845.874 -66.9988 855.158 -14.0011 905.88C-10.2465 909.476 -5.19476 911.296 0.971993 911.296C24.0006 911.296 58.8394 886.219 80.2751 854.202C97.0232 829.194 121.372 778.131 96.2268 717.077C85.3951 690.795 71.8101 687.177 58.7484 687.177C42.5919 687.177 22.385 693.685 -1.03051 701.239C-32.5697 711.411 -68.3414 722.926 -107.982 722.926C-139.589 722.926 -168.602 715.644 -196.683 700.671C-285.452 653.339 -286.658 565.139 -279.832 502.925C-277.715 483.651 -280.719 468.405 -288.251 460.008C-292.779 454.956 -298.855 452.385 -306.273 452.385C-323.135 452.385 -344.389 466.152 -352.376 492.48C-359.59 516.26 -339.087 542.178 -315.353 572.193C-285.02 610.536 -247.268 658.254 -254.641 722.197C-256.757 740.516 -261.627 757.924 -269.159 773.944C-281.151 799.453 -296.989 821.093 -316.263 838.273C-328.984 849.606 -341.749 857.547 -351.056 863.327C-359.544 868.607 -364.664 871.77 -364.3 874.204C-364.141 875.297 -362.912 876.116 -360.454 876.73ZM-350.692 863.919C-341.363 858.116 -328.574 850.175 -315.808 838.797C-296.466 821.548 -280.56 799.839 -268.522 774.262C-260.944 758.174 -256.052 740.675 -253.936 722.311C-246.54 658.095 -284.383 610.24 -314.807 571.806C-338.427 541.951 -358.816 516.169 -351.716 492.73C-343.82 466.721 -322.885 453.113 -306.273 453.113C-299.06 453.113 -293.166 455.593 -288.752 460.508C-281.333 468.769 -278.421 483.833 -280.491 502.902C-287.318 565.321 -286.112 653.794 -196.979 701.331C-168.784 716.372 -139.657 723.677 -107.959 723.677C-68.2049 723.677 -32.3876 712.139 -0.780159 701.945C22.567 694.413 42.7057 687.928 58.7711 687.928C71.6052 687.928 84.94 691.5 95.6123 717.396C120.621 778.153 96.3861 828.989 79.729 853.884C58.7711 885.195 23.4317 910.659 0.994771 910.659C-5.0127 910.659 -9.88239 908.907 -13.5233 905.425C-39.2143 880.849 -63.1076 865.216 -88.7531 856.228C-110.826 848.513 -135.152 845.214 -170.104 845.214C-207.81 845.214 -247.064 851.312 -280.628 862.394C-320.587 875.593 -346.187 876.617 -353.082 876.617C-356.336 876.617 -358.907 876.412 -360.295 876.048C-362.389 875.502 -363.504 874.842 -363.64 874.068C-363.936 872.088 -358.384 868.652 -350.715 863.873L-350.692 863.919Z" fill="#ECE5DF"/>
<path d="M-30.8181 797.882C-28.3377 798.884 -26.8814 799.703 -25.0382 800.727C-24.31 801.136 -23.5363 801.569 -22.6033 802.069C-13.228 807.098 -5.37736 812.218 0.129483 816.861C3.24699 819.5 5.79558 820.774 7.91185 820.774C11.0294 820.774 12.8498 818.135 14.3289 815.632C19.8358 806.256 21.77 799.02 24.0456 786.323C24.3187 784.775 24.3641 782.591 23.0671 781.043C21.4287 779.086 18.1746 778.745 13.3959 780.065C-1.03108 784.07 -10.7477 785.89 -23.0584 788.234C-25.2202 788.644 -27.4275 789.053 -29.7713 789.508C-32.1379 789.963 -33.9356 791.647 -34.1176 793.582C-34.2086 794.446 -34.0493 796.585 -30.7953 797.882H-30.8181ZM-29.5438 790.805C-27.2227 790.35 -24.9927 789.941 -22.8536 789.531C-10.5201 787.187 -0.757979 785.344 13.7146 781.339C15.5122 780.838 17.0596 780.588 18.3567 780.588C20.0634 780.588 21.3149 781.02 22.0203 781.885C22.9988 783.046 22.9305 784.821 22.703 786.095C20.4729 798.611 18.5615 805.756 13.1457 814.972C11.5528 817.657 10.0509 819.455 7.86636 819.455C6.06867 819.455 3.79314 818.271 0.925941 815.859C-4.64917 811.149 -12.5908 805.983 -22.0344 800.909C-22.9446 800.408 -23.7411 799.976 -24.4465 799.566C-26.3352 798.52 -27.8143 797.678 -30.3857 796.654C-32.0924 795.971 -33.0026 794.879 -32.8888 793.695C-32.7523 792.353 -31.3642 791.124 -29.5893 790.783L-29.5438 790.805Z" fill="#ECE5DF"/>
<path d="M-239.804 821.845C-237.71 821.845 -235.139 821.663 -231.931 821.299C-230.542 821.139 -197.524 817.453 -162.094 817.453C-148.281 817.453 -135.97 818.022 -125.503 819.16C-73.1877 824.78 -27.9041 849.743 -6.24084 871.975C-2.25862 876.071 2.49722 878.142 7.91304 878.142C20.0418 878.142 34.9694 867.583 48.8958 849.197C73.2898 816.975 80.6626 755.285 68.5794 731.005C65.3708 724.565 60.888 721.151 55.6087 721.151C55.1764 721.151 54.7213 721.151 54.2662 721.22C44.7088 722.198 31.4196 726.089 14.626 731.027C-16.845 740.266 -59.944 752.895 -106.684 753.646C-146.62 754.306 -192.268 738.491 -207.787 730.936C-212.861 728.456 -216.138 727.364 -218.414 727.364C-223.056 727.364 -223.238 731.756 -223.579 739.06C-223.852 744.863 -224.194 752.804 -227.038 761.861C-232.181 778.336 -238.006 790.829 -242.261 799.954C-246.972 810.08 -249.839 816.179 -247.814 819.364C-246.699 821.117 -244.218 821.89 -239.804 821.89V821.845ZM-241.647 800.204C-237.392 791.056 -231.544 778.541 -226.401 762.02C-223.556 752.873 -223.192 744.863 -222.919 739.037C-222.601 731.915 -222.419 728.001 -218.436 728.001C-216.297 728.001 -213.021 729.116 -208.105 731.505C-192.836 738.946 -148.531 754.306 -109.028 754.306C-108.254 754.306 -107.458 754.306 -106.684 754.306C-59.853 753.555 -16.7084 740.903 14.808 731.642C31.5789 726.727 44.8226 722.835 54.3344 721.857C59.9778 721.288 64.5744 724.451 67.9422 731.255C79.9344 755.376 72.5844 816.679 48.3269 848.719C34.5371 866.946 19.7915 877.391 7.89034 877.391C2.67931 877.391 -1.91731 875.389 -5.763 871.429C-27.5173 849.106 -72.9374 824.075 -125.434 818.431C-135.925 817.294 -148.258 816.725 -162.094 816.725C-197.547 816.725 -230.611 820.434 -231.999 820.57C-235.185 820.934 -237.733 821.117 -239.804 821.117C-243.923 821.117 -246.289 820.411 -247.245 818.909C-249.065 816.065 -246.266 810.08 -241.647 800.159V800.204Z" fill="#ECE5DF"/>
<path d="M-290.731 847.923C-288.615 847.923 -285.907 847.376 -283.085 846.398C-251.227 835.339 -214.272 829.968 -170.104 829.968C-115.104 829.968 -60.604 834.997 1.31382 895.891C3.08875 897.643 5.43262 898.531 8.2543 898.531C25.5713 898.531 57.5656 865.353 67.0547 845.351C67.9194 843.531 68.8523 841.597 69.8535 839.571C81.9367 814.813 102.144 773.353 81.4817 723.199C73.2214 703.152 65.53 703.152 58.7261 703.152C45.0728 703.152 25.9581 709.319 3.83972 716.441C-28.8145 726.977 -65.8378 738.901 -107.981 738.901C-144.049 738.901 -173.221 732.279 -202.621 717.419C-207.173 715.121 -211.542 712.595 -215.41 710.388C-223.147 705.951 -229.245 702.446 -233.182 702.446C-236.254 702.446 -237.756 704.585 -237.824 709C-237.824 709.705 -237.733 710.82 -237.574 712.391C-233.364 755.581 -250.09 795.903 -287.272 832.244C-293.757 838.593 -296.511 843.144 -295.441 845.784C-294.872 847.194 -293.234 847.923 -290.731 847.923ZM-286.794 832.722C-262.878 809.352 -247.2 784.002 -240.214 757.355C-234.593 735.942 -236.209 719.376 -236.891 712.322C-237.051 710.775 -237.142 709.66 -237.142 709C-237.073 703.743 -234.843 703.129 -233.182 703.129C-229.427 703.129 -223.079 706.77 -215.751 710.98C-211.883 713.21 -207.491 715.713 -202.917 718.034C-173.426 732.939 -144.162 739.606 -107.981 739.606C-65.724 739.606 -28.6552 727.659 4.06729 717.101C26.1402 709.978 45.2093 703.834 58.7489 703.834C65.3252 703.834 72.7891 703.834 80.8673 723.45C101.393 773.307 81.2769 814.586 69.2392 839.253C68.2379 841.301 67.3049 843.212 66.4402 845.055C57.0194 864.921 25.3437 897.848 8.2543 897.848C5.61466 897.848 3.43013 897.029 1.79173 895.413C-26.9713 867.128 -56.7583 848.605 -89.2305 838.775C-118.176 830.014 -145.05 829.286 -170.104 829.286C-214.341 829.286 -251.364 834.679 -283.313 845.761C-286.066 846.717 -288.706 847.24 -290.731 847.24C-292.278 847.24 -294.235 846.944 -294.804 845.533C-295.35 844.213 -295.032 840.777 -286.794 832.745V832.722Z" fill="#ECE5DF"/>
<path d="M106.194 107.775C88.399 107.775 68.6928 111.143 47.8032 114.692C22.8631 118.948 -2.919 123.34 -31.0221 123.34C-33.0929 123.34 -35.1409 123.317 -37.0751 123.271C-38.759 123.226 -40.3974 123.18 -42.0358 123.135C-46.2911 123.021 -50.2961 122.907 -54.1645 122.907C-78.3765 122.907 -93.3723 127.845 -103.248 153.855C-109.483 170.307 -116.583 188.944 -133.559 200.981C-138.36 204.395 -143.161 207.285 -147.417 209.856C-157.247 215.795 -165.007 220.483 -165.303 226.968C-165.576 232.93 -159.545 240.098 -145.778 250.202C-132.557 259.896 -121.703 264.606 -112.555 264.606C-111.736 264.606 -110.894 264.56 -110.098 264.492C-96.8084 263.263 -87.8882 252.272 -76.6015 238.369C-71.4815 232.043 -65.6561 224.898 -58.8294 218.071C-29.2699 188.511 7.04792 166.962 46.1875 155.743C62.708 151.01 79.0238 148.598 94.7023 148.598C133.432 148.598 163.288 162.593 188 178.795V177.976C163.288 161.842 133.41 147.916 94.7023 147.916C78.9555 147.916 62.5715 150.328 46.0055 155.084C6.75213 166.348 -29.6795 187.965 -59.3073 217.593C-66.1567 224.442 -71.9821 231.61 -77.1249 237.936C-88.2979 251.704 -97.1497 262.604 -110.143 263.81C-110.94 263.878 -111.736 263.923 -112.533 263.923C-121.521 263.923 -132.262 259.258 -145.369 249.656C-158.931 239.689 -164.87 232.703 -164.62 227.014C-164.347 220.893 -156.724 216.296 -147.053 210.448C-142.797 207.876 -137.973 204.964 -133.149 201.55C-115.991 189.399 -108.869 170.648 -102.588 154.105C-92.849 128.46 -78.0579 123.59 -54.1418 123.59C-50.2733 123.59 -46.2683 123.704 -42.0358 123.817C-40.4201 123.863 -38.759 123.908 -37.0751 123.954C-35.1181 123.999 -33.0928 124.022 -30.9993 124.022C-2.85071 124.022 22.9769 119.608 47.9397 115.352C68.7838 111.802 88.4901 108.435 106.217 108.435C116.502 108.435 125.468 109.572 133.683 111.916C151.318 116.945 169.386 125.205 188.023 134.854V134.08C169.454 124.5 151.455 116.285 133.865 111.256C125.604 108.89 116.548 107.752 106.217 107.752L106.194 107.775Z" fill="#ECE5DF"/>
<path d="M3.31518 629.515C4.93082 631.858 8.91308 632.86 16.5817 632.86C21.3831 632.86 27.0948 632.473 33.7166 632.04C41.9086 631.494 51.2156 630.88 60.8184 630.88C91.2426 630.88 111.768 637.342 125.444 651.269C138.165 661.054 145.173 677.005 151.363 691.091C158.895 708.203 165.38 722.972 179.739 722.972C181.264 722.972 182.879 722.79 184.518 722.448C185.61 722.221 186.77 721.925 187.977 721.561V720.377C186.702 720.787 185.451 721.106 184.29 721.356C182.72 721.675 181.173 721.857 179.739 721.857C166.131 721.857 159.782 707.407 152.41 690.659C146.152 676.459 139.075 660.371 126.195 650.45C112.337 636.341 91.5612 629.765 60.8184 629.765C51.1701 629.765 41.8631 630.379 33.6256 630.925C27.0265 631.358 21.3148 631.745 16.5589 631.745C9.5047 631.745 5.59074 630.834 4.24816 628.9C3.51998 627.831 3.49725 626.397 4.20268 624.486C18.6752 585.778 30.8039 536.786 29.6206 521.699C27.5726 495.28 15.9673 470.317 4.72601 446.173C-9.01835 416.659 -21.989 388.784 -13.7515 365.527C-2.28269 333.214 50.0551 277.122 78.3857 273.254C79.7511 273.072 81.2757 272.981 82.9141 272.981C104.987 272.981 143.876 288.796 187.954 314.919V313.599C143.922 287.567 105.055 271.843 82.9141 271.843C81.2075 271.843 79.6373 271.934 78.2265 272.139C49.5772 276.053 -3.28396 332.6 -14.8438 365.163C-23.2406 388.852 -10.1789 416.932 3.6565 446.674C14.8522 470.726 26.4121 495.575 28.4601 521.79C29.4841 535.011 18.6297 582.57 3.11038 624.076C2.26843 626.352 2.31396 628.149 3.26969 629.537L3.31518 629.515Z" fill="#ECE5DF"/>
<path d="M111.222 989.689C109.925 989.689 107.717 989.825 104.941 990.007C100.254 990.303 93.8366 990.713 87.465 990.713C71.6499 990.713 63.3669 988.119 62.8435 982.976C62.047 975.262 80.388 963.793 92.5167 956.215C97.3409 953.189 101.505 950.595 103.439 948.911C118.549 935.667 132.498 919.169 144.9 899.873C153.115 887.084 159.168 873.317 165.562 858.731C170.386 847.762 178.032 836.362 188.022 828.488V827.646C177.736 835.611 169.863 847.239 164.948 858.458C158.553 873.021 152.523 886.765 144.331 899.509C131.952 918.76 118.048 935.189 103.007 948.387C101.118 950.049 96.9768 952.643 92.1754 955.646C79.1592 963.77 61.3643 974.92 62.1835 983.044C62.7524 988.665 71.0354 991.395 87.4877 991.395C93.882 991.395 100.322 990.986 105.01 990.667C107.786 990.485 109.97 990.349 111.245 990.349C135.183 990.349 156.483 994.194 175.734 1001.98H177.577C157.825 993.716 135.934 989.666 111.245 989.666L111.222 989.689Z" fill="#ECE5DF"/>
<path d="M106.194 123.476C89.7419 123.476 70.65 126.73 50.443 130.166C24.8658 134.535 -1.59889 139.041 -31.0218 139.041C-33.1836 139.041 -35.3226 139.018 -37.4389 138.972L-42.4451 138.836C-46.5866 138.722 -50.4778 138.608 -54.1415 138.608C-86.022 138.608 -87.5922 156.13 -89.2761 174.676C-90.1863 184.848 -91.142 195.383 -96.7399 204.326C-98.7424 207.512 -104.113 211.563 -109.824 215.841C-121.953 224.943 -135.697 235.274 -129.098 244.945C-126.254 249.109 -122.841 251.203 -118.949 251.203C-116.81 251.203 -114.489 250.566 -112.077 249.314C-101.314 243.762 -89.8222 227.332 -80.5834 214.134C-75.3496 206.647 -70.8213 200.185 -68.3409 198.683C-65.7468 197.136 -62.8341 196.931 -60.3538 196.931C-59.398 196.931 -58.4195 196.976 -57.441 196.999C-56.4398 197.045 -55.4385 197.067 -54.46 197.067C-50.7054 197.067 -46.7459 196.612 -43.1733 193.358C-38.8725 189.444 -38.3264 184.347 -37.803 179.432C-37.3251 175.017 -36.8928 170.853 -33.9573 167.326C-25.0826 156.722 6.04695 149.303 26.6407 144.411C32.6937 142.977 37.9275 141.726 41.8414 140.611C59.7501 135.468 77.5449 132.874 94.6798 132.874C132.727 132.874 163.151 145.344 187.978 160.272V158.929C163.129 144.092 132.704 131.736 94.6798 131.736C77.4311 131.736 59.5453 134.353 41.5229 139.519C37.6544 140.634 32.4207 141.885 26.3677 143.319C4.38581 148.553 -25.7198 155.721 -34.822 166.62C-37.9851 170.398 -38.4629 174.949 -38.9408 179.341C-39.4642 184.256 -39.9647 188.898 -43.947 192.539C-47.2465 195.543 -50.9557 195.952 -54.46 195.952C-55.4385 195.952 -56.4398 195.907 -57.4183 195.884C-58.3968 195.839 -59.398 195.816 -60.3765 195.816C-63.0161 195.816 -66.1109 196.043 -68.9554 197.727C-71.6405 199.343 -76.0095 205.578 -81.5619 213.497C-90.2545 225.899 -102.133 242.897 -112.646 248.313C-119.063 251.612 -124.115 250.315 -128.234 244.308C-134.218 235.547 -120.929 225.557 -109.21 216.751C-103.18 212.223 -97.9687 208.309 -95.8524 204.941C-90.0952 195.77 -89.1395 185.098 -88.2066 174.79C-86.5226 155.994 -85.0435 139.746 -54.2097 139.746C-50.5461 139.746 -46.6549 139.86 -42.5361 139.974L-37.5299 140.11C-35.3909 140.156 -33.2519 140.178 -31.0901 140.178C-1.55338 140.178 24.934 135.65 50.5796 131.281C70.741 127.845 89.7646 124.591 106.126 124.591C114.887 124.591 122.419 125.524 129.155 127.458C147.746 132.76 167.384 142.204 187.932 153.104V151.807C167.52 140.998 147.996 131.645 129.473 126.366C122.624 124.409 114.978 123.453 106.126 123.453L106.194 123.476Z" fill="#ECE5DF"/>
<path d="M37.6782 599.864C41.9107 605.94 50.8537 606.622 63.2099 607.578C64.5525 607.692 65.9406 607.783 67.3515 607.897C71.2654 608.215 75.3614 608.352 79.6849 608.511C99.8009 609.194 122.602 609.99 143.196 628.741L143.446 628.968C154.869 638.958 161.65 656.571 167.658 672.113C173.688 687.769 178.922 701.285 187.205 701.285C187.455 701.285 187.728 701.24 187.979 701.217V700.534C187.728 700.557 187.455 700.626 187.205 700.626C179.377 700.626 174.257 687.314 168.295 671.885C162.265 656.275 155.438 638.571 143.901 628.468L143.651 628.24C122.875 609.33 99.9374 608.534 79.7077 607.851C75.3842 607.692 71.2882 607.555 67.397 607.237C65.9861 607.123 64.598 607.009 63.2554 606.918C51.0812 605.985 42.2748 605.302 38.2243 599.5C34.4014 593.993 34.9248 583.662 39.9765 566.049C44.6414 549.733 46.3936 534.829 45.2786 520.493C43.003 491.252 30.7833 464.992 18.9731 439.574C6.63963 413.041 -5.03396 387.987 1.06453 370.784C11.2135 342.135 60.2289 291.572 80.5269 288.818C80.982 288.75 81.7557 288.682 82.939 288.682C99.8919 288.682 138.258 302.79 187.979 333.26V332.463C138.28 302.085 99.9374 287.999 82.939 287.999C81.7329 287.999 80.9138 288.067 80.4359 288.136C59.9787 290.934 10.6219 341.77 0.427374 370.556C-5.76214 388.032 5.95699 413.2 18.3588 439.87C30.1461 465.219 42.3431 491.411 44.5959 520.538C45.7109 534.806 43.9815 549.642 39.3166 565.867C34.1283 583.935 33.6277 594.13 37.6554 599.909L37.6782 599.864Z" fill="#ECE5DF"/>
<path d="M-169.309 150.487C-177.023 155.926 -187.581 158.588 -201.599 158.588C-218.051 158.588 -236.483 154.902 -252.708 151.648C-262.288 149.736 -271.322 147.916 -278.717 147.142C-282.335 146.755 -292.052 145.868 -304.021 145.868C-326.185 145.868 -354.63 148.871 -364.164 163.185C-368.329 169.397 -368.488 177.225 -364.665 186.418C-362.867 190.742 -358.225 193.085 -353.742 195.361C-350.193 197.159 -346.529 199.002 -344.481 201.778C-342.069 205.055 -340.635 209.652 -339.27 214.112C-337.427 220.028 -335.538 226.149 -331.237 229.767C-325.89 234.25 -320.041 236.344 -312.782 236.344C-307.753 236.344 -302.611 235.32 -297.65 234.341C-292.735 233.363 -287.66 232.362 -282.745 232.362C-277.83 232.362 -273.939 233.295 -270.207 235.206C-261.173 239.871 -257.35 246.151 -253.686 252.204C-248.885 260.123 -244.356 267.587 -229.429 271.092C-198.185 278.396 -189.607 286.042 -168.922 304.497C-166.259 306.886 -163.392 309.435 -160.252 312.188C-152.811 318.719 -147.304 326.183 -141.979 333.396C-137.246 339.836 -132.331 346.481 -126.005 352.579C-118.245 360.066 -110.918 363.388 -103.841 366.597C-94.4201 370.875 -85.4999 374.925 -77.4217 388.806L-76.1701 390.991C-65.9984 408.558 -55.7356 424.828 -49.4095 424.828C-48.3855 424.828 -47.5208 424.441 -46.7927 423.645C-44.5171 421.142 -43.9027 414.52 -44.904 403.392C-45.4956 396.861 -50.206 391.036 -54.7799 385.393C-59.6951 379.317 -64.3372 373.56 -64.0641 367.211C-63.7228 359.611 -59.1262 355.856 -54.2565 351.897C-50.6839 349.007 -46.9975 346.003 -44.8357 341.338C-39.6475 330.165 -38.3959 320.175 -37.1671 310.504C-35.4832 297.033 -33.8903 284.335 -21.8298 269.954C-0.28031 244.217 29.9618 224.784 63.3214 215.204C74.4261 212.018 84.7116 210.471 94.7468 210.471C128.835 210.471 153.274 229.017 179.17 248.632C182.105 250.862 185.064 253.092 188.045 255.322V253.342C185.382 251.34 182.743 249.36 180.126 247.38C154.025 227.583 129.358 208.901 94.7468 208.901C84.5524 208.901 74.1304 210.471 62.8664 213.702C29.2109 223.35 -1.30435 242.966 -23.0814 268.953C-35.4377 283.698 -37.0533 296.623 -38.7827 310.322C-39.9888 319.879 -41.2176 329.755 -46.3148 340.678C-48.3173 345.002 -51.8672 347.869 -55.2805 350.668C-60.2185 354.673 -65.3157 358.837 -65.6798 367.166C-65.9756 374.106 -60.9239 380.364 -56.0542 386.417C-51.6396 391.878 -47.0885 397.521 -46.5424 403.552C-45.3591 416.659 -46.6789 421.142 -48.0215 422.575C-48.4311 423.03 -48.8862 423.235 -49.4551 423.235C-55.7129 423.235 -69.1159 400.07 -74.8275 390.194L-76.1018 388.01C-84.4304 373.696 -93.5781 369.555 -103.226 365.14C-110.19 361.977 -117.38 358.7 -124.935 351.419C-131.148 345.434 -136.017 338.835 -140.728 332.441C-146.098 325.159 -151.65 317.627 -159.228 310.982C-162.368 308.229 -165.235 305.68 -167.898 303.291C-188.81 284.631 -197.457 276.917 -229.11 269.521C-243.401 266.176 -247.77 258.986 -252.366 251.362C-256.167 245.105 -260.081 238.642 -269.524 233.772C-273.484 231.724 -277.807 230.746 -282.791 230.746C-287.774 230.746 -293.008 231.77 -297.991 232.748C-302.884 233.727 -307.958 234.705 -312.828 234.705C-319.677 234.705 -325.207 232.726 -330.259 228.493C-334.195 225.171 -336.039 219.277 -337.791 213.565C-339.202 208.992 -340.681 204.258 -343.252 200.754C-345.505 197.682 -349.351 195.748 -353.06 193.859C-357.474 191.629 -361.661 189.513 -363.231 185.735C-366.827 177.066 -366.713 169.738 -362.867 163.981C-353.697 150.26 -325.821 147.37 -304.044 147.37C-292.143 147.37 -282.517 148.257 -278.922 148.644C-271.618 149.418 -262.606 151.238 -253.072 153.127C-236.756 156.404 -218.256 160.09 -201.644 160.09C-187.286 160.09 -176.431 157.337 -168.444 151.693C-148.533 137.607 -154.244 116.377 -159.774 95.851C-165.668 73.9147 -171.766 51.2274 -147.236 36.4363C-144.3 34.6613 -140.364 33.7511 -135.562 33.7511C-120.885 33.7511 -100.223 41.7611 -80.2434 49.5207C-62.8354 56.2791 -46.4058 62.6507 -35.7107 62.901C-34.1633 62.9465 -32.6387 62.9465 -31.0914 62.9465C-8.10824 62.9465 15.1252 58.987 37.6077 55.1413C60.0447 51.3184 83.2325 47.3589 106.125 47.3589C122.145 47.3589 136.617 49.2704 150.339 53.1843C163.036 56.8025 175.552 61.6039 187.931 67.0652V65.3358C175.711 59.9427 163.332 55.2323 150.771 51.6597C136.89 47.7002 122.281 45.766 106.125 45.766C83.096 45.766 59.8171 49.7255 37.3346 53.5712C14.9204 57.3941 -8.24477 61.3536 -31.0914 61.3536C-32.6387 61.3991 -34.1406 61.3536 -35.6879 61.3081C-46.11 61.0578 -62.403 54.7317 -79.6745 48.0416C-99.7904 40.2364 -120.589 32.1582 -135.562 32.1582C-140.75 32.1582 -144.824 33.1139 -148.078 35.0709C-173.632 50.4992 -167.374 73.7554 -161.321 96.2606C-155.701 117.196 -150.376 136.948 -169.377 150.396L-169.309 150.487Z" fill="#ECE5DF"/>
</g>
<g clip-path="url(#clip2_571_155295)">
<path d="M609.296 824.37C597.737 807.668 567.381 800.067 544.056 800.067C536.865 800.067 530.221 800.727 524.236 802.002C502.3 806.735 483.572 810.967 467.051 814.722C422.815 824.757 396.122 830.833 373.936 830.833C355.458 830.833 339.62 826.714 317.456 816.133C294.314 805.074 277.316 794.56 263.685 786.095C242.272 772.829 228.141 764.091 208.799 764.091C202.473 764.091 195.646 765.069 188 767.072V768.71C195.669 766.685 202.495 765.706 208.799 765.706C227.708 765.706 241.68 774.376 262.843 787.484C276.519 795.949 293.54 806.507 316.774 817.589C339.188 828.284 355.208 832.448 373.936 832.448C396.304 832.448 423.065 826.373 467.393 816.315C483.913 812.56 502.618 808.328 524.555 803.594C530.403 802.343 536.956 801.706 544.033 801.706C566.971 801.706 596.758 809.101 607.977 825.326C612.914 832.494 613.734 840.618 610.389 849.515C603.698 867.264 572.41 882.92 544.784 896.756C528.105 905.107 512.335 913.003 504.234 920.33C480.545 941.743 486.234 970.78 495.837 1002.07H497.498C487.964 971.098 482.207 942.403 505.281 921.514C513.222 914.323 528.901 906.495 545.49 898.189C573.365 884.24 604.95 868.402 611.868 850.084C615.418 840.686 614.553 832.039 609.296 824.439V824.37Z" fill="#ECE5DF"/>
<path d="M195.236 642.235C198.467 572.057 243.204 520.879 279.158 479.76L281.707 476.847C285.871 472.456 295.497 460.714 294.746 446.537C294.291 437.913 290.012 430.085 282.048 423.304C277.269 419.23 272.855 415.453 268.645 411.835C250.054 395.86 235.354 383.254 212.553 367.439C204.224 361.659 196.009 356.197 188.022 351.055V351.874C195.895 356.948 203.974 362.319 212.166 368.008C234.944 383.8 249.621 396.407 268.19 412.358C272.4 415.976 276.814 419.776 281.593 423.827C289.421 430.472 293.608 438.117 294.063 446.56C294.814 460.486 285.325 472.046 281.206 476.392L278.635 479.328C242.613 520.515 197.784 571.784 194.53 642.212C194.189 649.721 191.276 654.295 187.977 655.865V656.685C191.526 655.228 194.826 650.586 195.213 642.258L195.236 642.235Z" fill="#ECE5DF"/>
<path d="M211.142 642.963C214.123 578.337 256.836 529.504 291.151 490.25L293.722 487.315C300.936 479.077 306.761 471.75 311.085 465.606C316.432 457.96 326.354 443.738 302.893 421.096C277.589 396.657 250.236 374.22 221.633 354.377C209.959 346.276 198.741 338.994 188.023 332.44V333.237C198.627 339.722 209.709 346.936 221.246 354.923C249.827 374.743 277.134 397.18 302.415 421.574C325.466 443.829 315.75 457.733 310.516 465.196C306.215 471.34 300.39 478.622 293.199 486.86L290.628 489.795C256.244 529.117 213.441 578.064 210.46 642.917C209.072 673 203.724 690.499 193.643 698.008C191.641 699.488 189.752 700.307 188 700.489V701.171C189.911 700.989 191.914 700.147 194.053 698.555C204.316 690.931 209.732 673.25 211.142 642.94V642.963Z" fill="#ECE5DF"/>
<path d="M488.897 180.73C484.482 163.276 448.801 158.588 407.477 153.195C397.26 151.853 386.701 150.487 376.461 148.849C331.155 141.704 289.695 118.971 249.599 96.9663C229.529 85.9527 209.003 74.7114 188 65.4727V67.2021C208.708 76.3726 228.983 87.4773 248.826 98.3772C289.035 120.427 330.632 143.251 376.211 150.442C386.497 152.058 397.055 153.446 407.273 154.788C446.321 159.908 483.185 164.732 487.349 181.139C490.581 193.928 473.924 213.338 436.422 240.463C383.789 278.533 339.643 296.259 297.454 296.259C273.47 296.259 249.713 290.298 226.798 278.578C212.53 271.274 199.992 262.399 188.023 253.434V255.413C199.765 264.174 212.098 272.821 226.093 279.989C249.235 291.845 273.242 297.852 297.477 297.852C340.007 297.852 384.471 280.035 437.378 241.76C476.017 213.816 492.378 194.451 488.919 180.752L488.897 180.73Z" fill="#ECE5DF"/>
<path d="M193.893 539.903C200.014 529.116 207.979 519.331 215.67 509.865C226.752 496.212 238.221 482.103 244.388 464.764C255.265 434.18 233.943 420.072 211.347 405.099C209.253 403.711 207.159 402.322 205.066 400.912C201.334 398.386 197.83 396.019 194.371 393.607C192.664 392.424 190.571 390.922 187.977 389.033V389.875C190.366 391.627 192.368 393.061 193.984 394.176C197.443 396.588 200.97 398.955 204.702 401.48C206.795 402.891 208.889 404.279 210.96 405.668C233.306 420.481 254.423 434.453 243.728 464.536C237.584 481.762 226.16 495.825 215.101 509.433C207.387 518.922 199.423 528.73 193.279 539.561C191.435 542.815 189.751 547.025 187.977 551.508V553.351C188.159 552.896 188.341 552.418 188.523 551.963C190.32 547.435 192.027 543.157 193.87 539.903H193.893Z" fill="#ECE5DF"/>
<path d="M473.309 876.731C476.996 874.41 481.251 874.114 484.914 874.114C486.644 874.114 488.396 874.182 490.239 874.273C492.083 874.365 493.971 874.456 495.86 874.456C500.092 874.456 505.622 874.046 510.628 870.951C523.553 862.941 527.854 853.634 526.352 848.4C525.374 844.942 522.006 842.939 517.136 842.939C512.79 842.939 507.283 844.486 501.185 847.445C497.294 849.333 493.789 852.679 490.399 855.955C486.303 859.892 482.07 863.965 477.2 865.285C475.698 865.695 474.219 865.899 472.672 865.899C469.6 865.899 466.847 865.103 463.934 864.284C461.044 863.465 458.086 862.6 454.809 862.6C453.671 862.6 452.533 862.714 451.396 862.918C445.616 863.988 441.679 867.652 437.856 871.201C434.67 874.16 431.393 877.209 427.07 878.711C422.177 880.418 415.533 881.259 406.772 881.259C395.394 881.259 382.788 879.826 372.639 878.688C369.726 878.347 367.018 878.051 364.606 877.801C343.557 875.684 321.643 869.085 297.659 857.639C272.264 845.51 254.105 834.269 239.496 825.213C231.531 820.275 223.362 817.771 215.261 817.771C204.953 817.771 195.805 821.685 188 827.716V828.558C195.76 822.436 204.93 818.454 215.261 818.454C223.248 818.454 231.281 820.912 239.154 825.804C253.764 834.861 271.945 846.125 297.386 858.254C321.439 869.745 343.42 876.367 364.538 878.483C366.95 878.734 369.658 879.029 372.57 879.371C382.719 880.531 395.371 881.942 406.772 881.942C415.601 881.942 422.314 881.1 427.275 879.371C431.735 877.823 435.08 874.706 438.311 871.702C442.225 868.061 445.934 864.625 451.509 863.578C452.602 863.374 453.671 863.283 454.786 863.283C457.972 863.283 460.907 864.125 463.729 864.944C466.551 865.763 469.486 866.605 472.672 866.605C474.265 866.605 475.812 866.4 477.382 865.968C482.411 864.58 486.712 860.461 490.876 856.479C494.222 853.27 497.703 849.925 501.503 848.105C507.511 845.215 512.927 843.667 517.159 843.667C521.778 843.667 524.805 845.419 525.715 848.628C527.149 853.634 522.916 862.6 510.287 870.428C505.417 873.454 500.024 873.841 495.86 873.841C493.994 873.841 492.105 873.75 490.285 873.659C488.51 873.568 486.689 873.5 484.937 873.5C481.16 873.5 476.791 873.818 472.968 876.231C468.758 878.87 465.55 885.56 462.455 892.046C460.589 895.96 458.814 899.646 456.948 902.195C441.383 923.403 440.427 946.249 443.795 974.011C444.956 983.546 446.89 992.944 449.211 1002.11H449.916C447.573 992.921 445.616 983.5 444.455 973.943C441.11 946.34 442.043 923.653 457.494 902.627C459.406 900.01 461.18 896.301 463.069 892.364C466.118 885.993 469.281 879.394 473.332 876.845L473.309 876.731Z" fill="#ECE5DF"/>
<path d="M249.508 489.795C250.532 488.589 251.556 487.36 252.602 486.131C267.257 468.905 282.389 451.088 265.186 429.788C251.874 413.313 231.781 399.728 214.032 387.736C210.368 385.256 206.886 382.912 203.473 380.545C201.175 378.952 198.08 376.677 194.462 374.06C192.482 372.626 190.32 371.034 187.999 369.35V370.192C190.161 371.762 192.209 373.241 194.052 374.606C197.648 377.246 200.765 379.499 203.063 381.091C206.477 383.458 209.958 385.802 213.622 388.305C231.303 400.274 251.374 413.837 264.617 430.221C281.479 451.088 266.506 468.678 252.056 485.699C251.009 486.928 249.985 488.134 248.961 489.362C236.241 504.518 219.994 524.816 207.137 547.435C199.332 561.156 192.915 575.583 187.977 590.374V592.604C192.96 577.131 199.582 562.066 207.728 547.753C220.563 525.202 236.787 504.927 249.485 489.795H249.508Z" fill="#ECE5DF"/>
<path d="M236.538 259.486C253.832 268.338 268.532 272.479 282.777 272.479C297.022 272.479 310.971 267.997 326.331 262.808C335.046 259.873 344.922 256.528 356.118 253.706C361.807 252.272 366.745 252.113 369.976 252.113C372.138 252.113 374.231 252.204 376.234 252.272C378.145 252.341 379.943 252.432 381.718 252.432C390.934 252.432 398.284 250.247 406.317 239.393C411.733 232.066 413.781 226.399 415.555 221.416C418.241 213.952 420.357 208.058 432.144 199.616C435.171 197.454 439.494 195.748 443.704 194.109C450.44 191.447 456.265 189.171 456.515 185.28C456.72 182.14 453.057 178.635 444.978 174.244C435.33 169.01 421.54 168.304 409.32 168.304C403.882 168.304 398.147 168.464 392.618 168.623C387.066 168.782 381.308 168.964 375.824 168.964C363.559 168.964 354.98 168.122 347.971 166.211C308.377 155.448 271.24 135.104 238.472 117.127C221.269 107.706 204.589 98.5587 187.932 90.708V91.9596C204.407 99.742 220.904 108.799 237.926 118.128C270.739 136.128 307.922 156.517 347.676 167.303C354.775 169.237 363.468 170.102 375.824 170.102C381.331 170.102 387.088 169.943 392.663 169.761C398.193 169.602 403.905 169.442 409.32 169.442C421.381 169.442 434.989 170.125 444.432 175.245C451.851 179.273 455.537 182.64 455.378 185.212C455.173 188.375 449.393 190.65 443.294 193.04C439.039 194.724 434.647 196.453 431.507 198.683C419.424 207.33 417.148 213.679 414.509 221.029C412.734 225.944 410.731 231.519 405.406 238.71C397.647 249.178 390.593 251.294 381.718 251.294C379.966 251.294 378.168 251.226 376.279 251.135C374.254 251.044 372.161 250.975 369.976 250.975C366.677 250.975 361.648 251.135 355.845 252.591C344.604 255.413 334.705 258.758 325.967 261.716C310.698 266.882 297.522 271.342 282.777 271.342C268.031 271.342 254.173 267.246 237.038 258.485C221.382 250.452 207.297 239.78 193.666 229.449C191.777 228.015 189.889 226.581 187.977 225.148V226.581C189.661 227.833 191.322 229.107 192.983 230.359C206.637 240.713 220.768 251.43 236.515 259.486H236.538Z" fill="#ECE5DF"/>
<path d="M247.027 239.029C263.844 247.654 280.319 251.841 297.431 251.841C307.011 251.841 327.696 247.927 345.718 241.396C361.511 235.661 380.352 226.15 380.398 213.361C380.443 198.297 351.362 189.923 333.976 184.917C330.199 183.824 326.922 182.891 324.76 182.095C293.631 170.808 262.729 156.563 227.526 137.266C214.077 129.894 200.97 122.703 188.045 116.24V117.014C200.856 123.431 213.872 130.553 227.207 137.881C262.456 157.2 293.38 171.468 324.533 182.755C326.74 183.551 330.017 184.484 333.794 185.576C350.997 190.514 379.783 198.797 379.738 213.361C379.669 235.479 317.319 251.158 297.454 251.158C280.455 251.158 264.071 246.994 247.369 238.415C233.465 231.292 220.176 221.212 207.342 211.495C201.129 206.785 194.735 201.938 188.045 197.227V198.069C194.576 202.689 200.834 207.422 206.932 212.041C219.812 221.803 233.101 231.884 247.073 239.029H247.027Z" fill="#ECE5DF"/>
<path d="M254.288 224.852C268.783 232.293 282.891 235.889 297.432 235.912C310.061 235.912 326.536 232.157 332.885 223.942C335.639 220.37 336.435 216.183 335.206 211.495C332.316 200.458 309.219 192.653 292.335 186.964C286.873 185.121 282.163 183.528 279.273 182.186C259.772 173.129 240.475 162.548 221.815 152.33L219.745 151.193C208.958 145.276 198.4 139.496 188.001 134.126V134.9C198.286 140.224 208.731 145.936 219.403 151.807L221.474 152.945C240.134 163.185 259.453 173.766 278.955 182.823C281.89 184.188 286.6 185.781 292.084 187.624C307.877 192.949 331.725 201.005 334.501 211.677C335.661 216.16 334.933 220.142 332.316 223.533C326.104 231.565 309.879 235.229 297.364 235.229C282.982 235.229 268.965 231.634 254.561 224.238C241.908 217.753 229.188 208.104 216.877 198.775C207.98 192.039 198.423 184.803 187.955 177.976V178.795C198.263 185.554 207.684 192.676 216.468 199.343C228.779 208.673 241.522 218.344 254.242 224.852H254.288Z" fill="#ECE5DF"/>
<path d="M403.336 523.86C402.199 525.749 401.129 527.524 400.196 528.843C388.682 545.068 375.051 559.45 359.714 575.242C357.643 577.358 355.527 579.52 353.388 581.682C340.736 594.47 327.629 607.691 319.801 623.324C316.774 629.377 315.819 634.111 317.093 637.001C317.662 638.32 318.663 639.185 320.074 639.572C320.643 639.731 321.303 639.822 322.008 639.822C324.807 639.822 328.539 638.457 332.771 635.908C341.191 630.811 349.178 624.53 356.915 618.432C363.241 613.448 369.795 608.283 376.553 603.823C403.792 585.778 421.791 573.831 430.211 540.176C431.963 533.19 432.987 517.306 427.594 510.389C425.728 508.022 423.293 506.884 420.289 507.021C413.281 507.385 407.546 516.897 403.336 523.837V523.86ZM420.813 507.703C423.339 507.703 425.455 508.75 427.048 510.821C432.282 517.534 431.258 533.144 429.551 540.016C421.2 573.421 403.291 585.277 376.166 603.254C369.385 607.737 362.832 612.902 356.483 617.909C348.769 623.984 340.781 630.265 332.407 635.339C327.31 638.434 322.941 639.708 320.256 638.935C319.05 638.593 318.208 637.842 317.707 636.727C316.547 634.065 317.502 629.423 320.392 623.643C328.175 608.101 341.237 594.925 353.843 582.16C355.982 579.998 358.121 577.836 360.192 575.72C375.552 559.905 389.182 545.5 400.742 529.253C401.698 527.91 402.768 526.135 403.905 524.247C408.024 517.42 413.645 508.09 420.289 507.749C420.449 507.749 420.631 507.749 420.79 507.749L420.813 507.703Z" fill="#ECE5DF"/>
<path d="M261.433 210.88C265.961 213.201 278.727 217.366 287.966 217.366C291.265 217.366 293.791 216.82 295.452 215.727C299.048 213.384 300.641 211.199 300.322 209.014C299.594 204.213 289.149 201.323 280.775 199.002C277.316 198.046 274.358 197.204 272.651 196.431C252.672 187.169 233.148 176.451 214.261 166.098L212.167 164.96C203.975 160.477 195.92 156.062 187.978 151.853V153.15C195.737 157.268 203.611 161.592 211.621 165.961L213.714 167.099C232.624 177.475 252.171 188.193 272.173 197.477C273.948 198.297 276.975 199.139 280.456 200.117C288.102 202.233 298.547 205.146 299.184 209.219C299.435 210.88 297.978 212.769 294.815 214.794C293.336 215.75 291.038 216.228 287.943 216.228C279 216.228 266.234 212.086 261.911 209.879C250.533 204.054 238.404 194.861 226.64 185.94C215.421 177.453 202.678 167.781 187.955 158.975V160.318C202.382 168.987 214.943 178.499 225.98 186.873C237.744 195.794 249.918 205.01 261.387 210.903L261.433 210.88Z" fill="#ECE5DF"/>
<path d="M227.276 643.713C230.007 584.731 270.648 538.241 303.302 500.9L305.874 497.964C344.718 453.5 343.147 437.981 324.92 420.004C304.941 400.297 273.447 370.67 230.826 341.11C216.285 331.029 201.881 321.813 188 313.599V314.918C201.676 323.019 215.853 332.122 230.166 342.043C272.719 371.557 304.167 401.139 324.124 420.823C341.828 438.276 343.261 453.454 305.032 497.236L302.46 500.171C269.692 537.65 228.892 584.299 226.161 643.691C223.59 699.419 202.609 715.803 188.023 720.377V721.56C202.95 717.009 224.682 700.557 227.299 643.736L227.276 643.713Z" fill="#ECE5DF"/>
<path d="M417.946 896.483C407.819 893.889 396.942 893.707 386.429 893.548C380.353 893.456 374.073 893.365 368.088 892.774C339.439 890.043 314.886 883.421 290.833 871.93C264.664 859.437 246.073 847.923 231.145 838.661C225.729 835.316 220.405 833.609 215.285 833.609C205.773 833.609 195.92 839.844 188.023 850.244V851.381C195.874 840.709 205.75 834.292 215.285 834.292C220.268 834.292 225.479 835.953 230.781 839.253C245.732 848.514 264.323 860.029 290.537 872.544C314.681 884.081 339.302 890.703 368.02 893.456C374.05 894.025 380.331 894.116 386.429 894.23C396.919 894.389 407.751 894.572 417.809 897.143C433.442 901.171 432.896 912.594 430.666 925.997C428.026 941.994 425.819 957.832 428.004 975.832C429.096 984.775 430.802 993.513 432.85 1002H433.556C431.485 993.467 429.778 984.706 428.686 975.741C426.524 957.832 428.686 942.04 431.349 926.111C433.533 912.867 434.17 900.647 417.991 896.483H417.946Z" fill="#ECE5DF"/>
<path d="M478.452 -2.31713C494.039 46.2432 500.388 72.6397 461.681 95.0084C455.332 98.672 448.119 101.403 440.245 103.064C433.578 104.475 426.228 105.203 418.446 105.203C346.492 105.203 247.688 45.0827 194.576 12.7926L192.756 11.7003C191.14 10.7218 189.547 9.74332 188 8.81034V10.1302C189.365 10.9494 190.753 11.7913 192.164 12.656L193.985 13.7483C247.164 46.1067 346.174 106.318 418.446 106.341C426.319 106.341 433.737 105.612 440.496 104.179C448.483 102.472 455.81 99.7188 462.25 95.9869C501.708 73.1858 495.314 46.4708 479.544 -2.68121C477.542 -8.89348 475.471 -15.3788 473.559 -22.0234H472.376C474.31 -15.265 476.427 -8.66592 478.452 -2.33988V-2.31713Z" fill="#ECE5DF"/>
<path d="M387.611 -9.25659C388.066 -7.54993 388.703 -5.43366 389.431 -3.06708C391.479 3.66856 391.115 8.19692 388.339 10.427C386.951 11.542 384.926 12.1109 382.309 12.1109C371.204 12.1109 352.727 2.21221 346.651 -1.06459C343.693 -2.65748 341.44 -3.84077 339.688 -4.72824L330.358 -9.32486C321.802 -13.5119 313.451 -17.7444 305.372 -21.9997H303.916C312.358 -17.5396 321.096 -13.1023 330.062 -8.71046L339.392 -4.11384C341.144 -3.24912 343.374 -2.04308 346.332 -0.472946C352.454 2.80385 371.045 12.7708 382.332 12.7708C385.108 12.7708 387.292 12.1564 388.794 10.9503C391.821 8.53825 392.253 3.75959 390.114 -3.27188C389.386 -5.63846 388.749 -7.73197 388.294 -9.46139C387.201 -13.5801 386.086 -17.7444 385.062 -22.0225H384.357C385.404 -17.6761 386.519 -13.4436 387.634 -9.27935L387.611 -9.25659Z" fill="#ECE5DF"/>
<path d="M456.993 4.57849C463.297 24.2393 469.35 48.9063 459.906 65.1993C455.241 73.2775 447.026 78.6023 435.558 81.0372C430.415 82.1294 424.658 82.6983 418.446 82.6983C352.818 82.6983 257.495 24.7172 206.295 -6.4352L196.829 -12.1924C193.939 -13.9445 190.981 -15.5829 188 -17.1303V-16.3566C190.867 -14.8775 193.689 -13.3074 196.488 -11.6235L205.931 -5.88907C257.2 25.286 352.614 83.3355 418.446 83.3582C424.703 83.3582 430.529 82.7893 435.694 81.6971C447.368 79.2167 455.719 73.7781 460.498 65.5179C470.078 48.9973 464.002 24.1483 457.653 4.35093C454.923 -4.13689 452.238 -12.966 449.916 -22H449.211C451.532 -12.875 454.263 -3.9776 457.016 4.57849H456.993Z" fill="#ECE5DF"/>
<path d="M403.016 -13.3525C403.426 -11.8051 404.018 -9.91641 404.678 -7.70912C407.977 3.12252 412.983 19.4838 408.25 27.0386C406.316 30.1106 403.335 32.1359 399.398 33.0233C397.805 33.3874 396.03 33.5695 394.096 33.5695C377.485 33.5695 352.522 20.1892 339.119 12.9984C336.525 11.6103 334.272 10.4043 332.588 9.56235L331.427 8.99346C330.108 8.33355 328.879 7.71914 327.741 7.17301L323.349 5.01123C305.236 -3.86343 288.033 -12.9429 272.172 -21.9541H270.807C286.963 -12.7381 304.53 -3.43108 323.053 5.62564L327.445 7.78741C328.583 8.33355 329.812 8.94795 331.132 9.60786L332.292 10.1767C333.976 11.0187 336.206 12.2247 338.8 13.6128C352.249 20.8263 377.303 34.2749 394.096 34.2749C396.076 34.2749 397.896 34.0928 399.535 33.7287C403.676 32.7958 406.794 30.6795 408.819 27.4482C413.712 19.6431 408.66 3.09977 405.315 -7.84566C404.655 -10.0302 404.063 -11.9189 403.654 -13.4663C402.903 -16.2652 402.152 -19.0869 401.446 -21.9541H400.741C401.469 -19.0414 402.243 -16.1514 402.994 -13.307L403.016 -13.3525Z" fill="#ECE5DF"/>
<path d="M418.4 -17.4489C421.632 -5.32018 424.977 7.24089 425.318 20.1888C425.773 36.9369 419.242 46.517 405.93 48.6787C403.951 48.9973 401.789 49.1566 399.513 49.1566C376.371 49.1566 343.262 32.6361 325.467 23.7614C323.737 22.8967 322.144 22.1003 320.688 21.3948L316.296 19.2331C288.626 5.71627 262.957 -8.34667 240.93 -22H239.633C261.888 -8.16462 287.897 6.12586 316 19.893L320.392 22.0548C321.826 22.7602 323.419 23.5566 325.171 24.4213C343.011 33.3188 376.234 49.8848 399.536 49.8848C401.857 49.8848 404.064 49.7255 406.067 49.3842C419.789 47.1541 426.501 37.3465 426.024 20.1888C425.659 7.14987 422.314 -5.43396 419.083 -17.6082C418.696 -19.0645 418.309 -20.5209 417.923 -21.9772H417.217C417.627 -20.4526 418.014 -18.928 418.423 -17.4261L418.4 -17.4489Z" fill="#ECE5DF"/>
<path d="M441.839 9.44847C442.18 10.4952 442.522 11.542 442.863 12.5887C446.504 23.6479 450.258 35.094 444.183 46.1532C439.108 55.3692 428.845 62.8558 418.014 65.1996C416.899 65.4499 415.784 65.6319 414.691 65.7457C411.984 66.0643 409.139 66.2236 406.249 66.2236C375.688 66.2236 339.848 48.6108 313.68 35.7539L309.288 33.6149C275.678 17.1171 243.206 -2.63473 214.556 -20.0655C213.35 -20.7937 212.304 -21.4308 211.371 -21.9997H210.051C212.213 -20.6799 214.192 -19.4738 214.192 -19.4738C242.842 -2.04308 275.336 17.7087 308.992 34.2065L313.361 36.3455C339.598 49.2252 375.506 66.8835 406.226 66.8835C409.162 66.8835 412.029 66.7242 414.76 66.4056C415.875 66.2691 417.013 66.087 418.15 65.8367C429.164 63.4474 439.609 55.8471 444.774 46.449C450.987 35.1395 447.186 23.5569 443.5 12.3384C443.159 11.2917 442.817 10.2449 442.476 9.19816C439.267 -0.768771 436.127 -11.2136 433.51 -22.0225H432.805C435.422 -11.1453 438.608 -0.609481 441.816 9.42572L441.839 9.44847Z" fill="#ECE5DF"/>
<path d="M417.058 485.973C407.068 488.43 398.353 502.266 391.321 513.37C388.864 517.262 386.543 520.925 384.518 523.542C373.231 538.128 360.488 551.258 348.154 563.933C344.946 567.233 340.895 570.987 336.64 574.947C323.942 586.711 308.15 601.366 303.349 614.769C299.321 626.033 301.687 636.796 303.986 647.173C305.874 655.706 307.831 664.536 306.284 673.683C305.328 679.372 301.892 684.97 298.229 690.886C293.859 697.986 289.354 705.313 289.081 713.21C288.99 715.895 289.399 718.534 290.31 721.083C293.313 729.525 296.454 733.439 300.185 733.439C303.917 733.439 307.9 729.594 313.862 720.196C319.55 711.207 321.781 700.808 323.942 690.75C326.104 680.646 328.357 670.202 334.091 661.168C345.014 643.964 364.265 631.267 381.241 620.094C382.674 619.161 384.085 618.205 385.496 617.295C413.69 598.613 435.968 583.844 445.912 544.09C448.552 533.577 447.846 506.771 437.151 493.072C431.963 486.405 425.136 483.993 417.081 485.973H417.058ZM436.241 493.755C445.821 506.043 447.733 532.007 444.797 543.795C434.967 583.116 412.848 597.771 384.859 616.317C383.471 617.249 382.037 618.182 380.604 619.115C363.514 630.357 344.149 643.123 333.113 660.531C327.265 669.747 325.012 680.282 322.805 690.5C320.665 700.466 318.458 710.775 312.883 719.581C308.901 725.862 304.281 732.302 300.185 732.302C297.045 732.302 294.178 728.501 291.379 720.696C290.514 718.261 290.128 715.804 290.219 713.232C290.492 705.655 294.906 698.441 299.207 691.478C302.916 685.448 306.421 679.759 307.399 673.865C308.992 664.49 307.012 655.547 305.101 646.923C302.734 636.205 300.481 626.101 304.418 615.133C309.128 602.003 324.807 587.462 337.414 575.766C341.692 571.784 345.742 568.052 348.973 564.707C361.33 551.986 374.096 538.834 385.428 524.202C387.499 521.54 389.82 517.83 392.3 513.939C399.218 503.017 407.797 489.409 417.331 487.042C419.061 486.61 420.744 486.405 422.337 486.405C427.753 486.405 432.441 488.863 436.241 493.732V493.755Z" fill="#ECE5DF"/>
<path d="M427.525 436.57C422.109 428.765 417.399 427.764 412.392 426.694C408.956 425.966 405.384 425.192 401.31 422.12L400.969 421.733C389.364 408.74 350.429 366.369 337.254 366.369C335.706 366.369 334.5 366.915 333.658 368.008C331.906 370.306 331.997 374.925 333.931 382.139C335.092 386.417 346.105 392.333 357.779 398.614C367.496 403.825 377.554 409.218 380.967 413.268C384.016 416.909 388.044 421.938 387.68 423.668C387.589 424.146 387.065 424.419 386.178 424.851C384.153 425.852 381.081 427.4 382.719 434.568C383.857 439.528 386.929 444.466 389.887 449.245C392.663 453.682 395.28 457.892 396.327 461.965C399.24 473.161 380.899 493.709 368.77 507.294C364.765 511.777 361.306 515.646 359.099 518.581C350.27 530.3 339.233 541.177 328.584 551.668C307.853 572.102 286.44 593.219 278.886 622.369C267.622 665.946 265.369 704.426 272.218 736.739C275.859 753.987 288.42 778.017 300.594 778.017C308.172 778.017 313.702 768.915 317.001 750.938C329.744 681.716 364.492 658.687 398.125 636.409C427.912 616.68 456.038 598.043 468.144 549.62C472.695 531.347 465.686 503.267 456.561 487.725C452.488 480.784 447.368 476.893 442.407 473.115C438.061 469.793 433.942 466.676 430.756 461.669C428.503 458.142 428.913 454.001 429.323 449.654C429.755 445.149 430.21 440.484 427.479 436.525L427.525 436.57ZM429.459 462.58C432.781 467.813 437.014 471.022 441.497 474.435C446.321 478.122 451.327 481.922 455.241 488.589C464.207 503.858 471.102 531.415 466.642 549.301C454.695 597.11 426.819 615.588 397.283 635.135C363.4 657.595 328.333 680.828 315.476 750.711C312.382 767.572 307.239 776.493 300.617 776.493C290.286 776.493 277.702 754.966 273.788 736.466C267.007 704.403 269.237 666.151 280.456 622.824C287.874 594.084 309.15 573.126 329.721 552.851C340.417 542.315 351.476 531.415 360.396 519.582C362.558 516.715 365.994 512.869 369.976 508.409C383.083 493.732 401.015 473.616 397.874 461.624C396.737 457.3 394.074 453.022 391.23 448.471C388.317 443.806 385.336 439.005 384.267 434.294C382.901 428.333 385.017 427.286 386.883 426.353C387.907 425.829 388.977 425.306 389.25 424.054C389.591 422.393 388.545 419.845 382.196 412.313C378.6 408.035 368.406 402.573 358.553 397.271C348.199 391.719 336.48 385.416 335.501 381.797C333.271 373.56 333.977 370.329 334.955 369.054C335.479 368.372 336.23 368.053 337.276 368.053C347.22 368.053 376.097 396.384 399.809 422.871C400.104 423.19 400.264 423.372 400.286 423.372C404.724 426.74 408.638 427.582 412.074 428.31C416.944 429.357 421.153 430.244 426.228 437.549C428.64 441.007 428.23 445.194 427.798 449.609C427.366 454.046 426.91 458.643 429.459 462.648V462.58Z" fill="#ECE5DF"/>
<path d="M188 288.863C264.732 332.281 347.425 401.367 362.49 435.705C371.524 456.321 349.61 480.966 321.871 512.163C290.332 547.617 251.101 591.74 248.644 644.692C245.663 709.249 213.668 735.759 188 743.769V745.431C214.26 737.421 247.21 710.569 250.236 644.76C252.649 592.377 291.697 548.481 323.054 513.21C351.18 481.58 373.39 456.617 363.946 435.045C348.768 400.456 265.278 330.756 188 287.134V288.84L188 288.863Z" fill="#ECE5DF"/>
<path d="M499.888 -9.21138C514.292 35.6398 529.174 81.9929 472.945 114.511C464.548 119.38 455.105 122.93 444.933 125.092C436.718 126.844 427.798 127.732 418.446 127.732C342.396 127.732 247.301 71.2068 188 35.162V37.0279C247.506 73.1637 342.328 129.324 418.423 129.324C427.912 129.324 436.923 128.437 445.252 126.662C455.605 124.455 465.185 120.837 473.742 115.899C531.086 82.7438 515.999 35.7536 501.412 -9.68924C500.092 -13.8308 498.773 -17.9268 497.521 -22H495.86C497.157 -17.7675 498.522 -13.5122 499.91 -9.21138H499.888Z" fill="#ECE5DF"/>
<path d="M406.158 918.055C397.874 910.386 385.495 909.749 374.573 909.18C371.774 909.044 369.111 908.907 366.563 908.657C336.002 905.744 309.742 898.645 283.96 886.334C261.774 875.73 244.57 866.059 229.847 855.91C225.82 853.133 221.701 851.723 217.582 851.723C208.252 851.723 199.469 859.05 194.098 871.292C192.073 875.912 190.071 880.463 188 884.969V886.607C190.276 881.669 192.483 876.663 194.713 871.566C199.969 859.573 208.526 852.405 217.582 852.405C221.542 852.405 225.547 853.771 229.461 856.479C244.206 866.65 261.432 876.344 283.664 886.971C309.537 899.327 335.866 906.45 366.517 909.363C369.089 909.613 371.751 909.749 374.573 909.886C385.382 910.455 397.624 911.092 405.725 918.578C415.123 927.271 413.803 943.769 412.62 958.31C412.051 965.455 411.505 972.236 412.165 977.743C413.166 985.958 415.146 994.081 417.217 1002H417.922C415.829 994.036 413.849 985.889 412.848 977.652C412.188 972.191 412.734 965.455 413.303 958.332C414.486 943.632 415.829 926.953 406.18 918.055H406.158Z" fill="#ECE5DF"/>
<path d="M193.484 957.558C191.482 956.762 189.661 956.011 188 955.169V955.943C189.616 956.762 191.368 957.467 193.211 958.195C194.167 958.582 195.145 958.969 196.169 959.401C210.801 965.568 221.997 971.394 231.349 977.697C243.091 985.616 256.358 993.785 270.762 1002H272.127C257.336 993.58 243.751 985.229 231.736 977.128C222.338 970.802 211.12 964.954 196.442 958.764C195.418 958.332 194.44 957.945 193.484 957.558Z" fill="#ECE5DF"/>
<path d="M222.475 990.895C227.891 994.559 233.648 998.245 239.656 1002H240.953C234.604 998.063 228.551 994.172 222.862 990.349C214.829 984.933 201.313 977.97 188.023 972.509V973.237C201.199 978.653 214.534 985.548 222.498 990.918L222.475 990.895Z" fill="#ECE5DF"/>
<path d="M209.254 451.725C208.139 444.397 203.064 437.821 193.78 431.677C191.868 430.425 189.957 429.151 188 427.809V428.628C189.82 429.857 191.618 431.063 193.416 432.246C202.541 438.276 207.502 444.693 208.594 451.816C210.391 463.626 201.426 475.777 190.435 489.34C189.684 490.25 188.865 491.388 188.023 492.594V493.777C189.092 492.252 190.071 490.864 190.981 489.772C202.086 476.096 211.142 463.808 209.299 451.725H209.254Z" fill="#ECE5DF"/>
<path d="M353.864 981.52C354.706 978.584 354.433 976.013 353.068 973.92C349.723 968.754 340.712 967.434 334.135 966.479C333.043 966.319 332.019 966.16 331.132 966.023C330.836 965.978 330.335 965.864 329.675 965.75C326.239 965.068 319.071 963.611 313.701 963.611C310.492 963.611 308.444 964.135 307.443 965.181C306.942 965.705 306.692 966.365 306.738 967.138C307.056 973.009 316.067 976.65 321.461 978.812C322.302 979.153 323.053 979.449 323.691 979.722C325.147 980.359 326.785 981.179 328.538 982.043C334.09 984.797 340.393 987.937 345.786 987.937C346.492 987.937 347.152 987.891 347.789 987.778C350.815 987.254 352.863 985.161 353.91 981.543L353.864 981.52ZM347.538 986.458C346.992 986.549 346.378 986.594 345.763 986.594C340.666 986.594 334.522 983.522 329.106 980.837C327.354 979.973 325.693 979.131 324.214 978.493C323.577 978.22 322.803 977.902 321.961 977.56C316.864 975.512 308.331 972.076 308.058 967.047C308.058 966.661 308.149 966.342 308.399 966.069C308.899 965.546 310.242 964.908 313.701 964.908C318.935 964.908 326.012 966.319 329.425 967.025C330.108 967.161 330.608 967.252 330.927 967.32C331.837 967.48 332.861 967.616 333.976 967.798C339.961 968.663 348.995 969.983 351.998 974.648C353.159 976.445 353.364 978.584 352.636 981.179C351.748 984.319 350.087 986.048 347.561 986.481L347.538 986.458Z" fill="#ECE5DF"/>
<path d="M398.215 951.095C399.308 944.405 400.423 937.488 396.008 932.231C390.729 925.95 382.127 925.518 374.527 925.131L373.753 925.086C371.045 924.949 367.996 924.79 365.06 924.517C332.588 921.422 304.622 913.867 277.087 900.715C268.418 896.573 259.907 891.863 251.669 887.289C247.141 884.786 242.476 882.192 237.811 879.711L237.493 879.552C232.031 876.662 226.388 873.658 220.585 873.658C217.513 873.658 214.76 874.5 212.143 876.207C202.882 882.237 198.444 893.933 194.143 905.243C192.186 910.386 190.298 915.233 188.045 919.488V920.921C190.594 916.393 192.642 911.091 194.781 905.493C199.036 894.275 203.45 882.692 212.53 876.776C215.033 875.137 217.695 874.341 220.608 874.341C226.251 874.341 231.827 877.299 237.197 880.166L237.516 880.326C242.158 882.783 246.845 885.377 251.374 887.88C259.611 892.454 268.144 897.165 276.837 901.329C304.44 914.527 332.474 922.105 365.038 925.2C367.996 925.473 371.068 925.632 373.776 925.768L374.549 925.814C382.013 926.201 390.456 926.633 395.53 932.686C399.74 937.715 398.648 944.473 397.578 951.004C397.237 953.098 396.918 955.1 396.759 957.057C396.144 964.68 395.507 972.554 396.372 979.676C397.305 987.436 398.966 994.832 400.787 1002.02H401.492C399.649 994.809 397.988 987.368 397.055 979.585C396.19 972.531 396.827 964.703 397.442 957.08C397.601 955.169 397.919 953.189 398.261 951.118L398.215 951.095Z" fill="#ECE5DF"/>
<path d="M229.392 459.44C235.309 442.828 229.347 436.138 202.564 418.411C200.447 417.001 198.308 415.59 196.124 414.111C193.325 412.222 190.64 410.401 188 408.581V409.4C190.526 411.13 193.074 412.859 195.76 414.68C197.921 416.136 200.06 417.569 202.199 418.958C228.619 436.457 234.512 443.01 228.755 459.189C223.544 473.844 213.463 486.246 202.791 499.376C197.83 505.497 192.756 511.732 188 518.399V519.583C192.892 512.642 198.149 506.157 203.314 499.808C214.032 486.633 224.136 474.163 229.392 459.417V459.44Z" fill="#ECE5DF"/>
<path d="M367.973 942.153C360.782 939.013 352.931 938.262 345.354 937.534C341.03 937.124 336.57 936.692 332.292 935.827C310.856 931.481 289.967 924.495 270.215 915.074C261.113 910.727 252.397 905.903 243.932 901.216C242.726 900.556 241.338 899.668 239.859 898.712C234.989 895.595 228.914 891.727 223.475 891.727C221.45 891.727 219.629 892.273 218.059 893.365C213.918 896.278 211.961 902.103 210.231 907.269C209.799 908.543 209.389 909.772 208.98 910.864C208.252 912.798 206.772 915.483 205.202 918.328C201.425 925.2 196.715 933.733 198.398 938.876C200.105 944.064 206.863 946.909 212.302 949.184C213.531 949.708 214.691 950.186 215.693 950.663C224.977 955.078 233.01 959.584 240.269 964.476C258.246 976.605 279.932 989.348 303.893 1002H305.35C280.933 989.166 258.905 976.218 240.655 963.907C233.374 958.992 225.318 954.464 216.011 950.049C215.01 949.571 213.827 949.071 212.598 948.547C207.296 946.317 200.697 943.541 199.081 938.649C197.488 933.802 202.108 925.382 205.817 918.646C207.455 915.665 208.889 913.094 209.64 911.114C210.072 909.999 210.482 908.77 210.914 907.473C212.598 902.422 214.532 896.687 218.492 893.911C219.925 892.91 221.632 892.386 223.498 892.386C228.732 892.386 234.716 896.209 239.518 899.259C240.997 900.214 242.408 901.102 243.636 901.784C252.079 906.472 260.817 911.296 269.942 915.665C289.739 925.132 310.674 932.118 332.178 936.487C336.479 937.351 340.962 937.784 345.308 938.193C352.84 938.922 360.646 939.65 367.723 942.744C380.261 948.206 380.193 958.901 380.147 970.233C380.147 973.965 380.102 977.834 380.557 981.543C381.421 988.734 382.809 995.469 384.38 1001.98H385.085C383.515 995.446 382.127 988.688 381.239 981.474C380.784 977.811 380.807 973.965 380.83 970.256C380.898 958.696 380.943 947.796 367.996 942.153H367.973Z" fill="#ECE5DF"/>
<path d="M337.458 1000.18C303.735 983.659 273.379 966.501 249.667 950.527C246.55 948.433 243.159 946.681 239.882 944.974C235.354 942.631 230.666 940.219 226.707 936.851C221.314 932.277 219.926 927.771 222.201 922.242C223.999 917.918 227.003 915.802 231.417 915.802C238.79 915.802 248.598 921.764 255.766 926.133C258.587 927.84 261.022 929.341 262.934 930.252C283.937 940.287 306.124 947.705 328.925 952.325C334.068 953.371 338.96 953.826 343.716 954.281C344.535 954.35 345.4 954.418 346.265 954.486C351.976 954.941 358.462 955.442 362.307 959.697C366.176 963.953 366.54 972.577 366.836 979.517C366.927 981.429 366.995 983.249 367.131 984.819L367.2 985.684C367.632 990.258 368.246 997.039 366.608 1001.98H367.791C369.362 996.834 368.747 990.144 368.315 985.57L368.246 984.706C368.11 983.158 368.019 981.361 367.951 979.449C367.655 972.327 367.268 963.475 363.127 958.924C358.962 954.327 352.249 953.804 346.333 953.349C345.468 953.28 344.626 953.212 343.807 953.144C339.074 952.689 334.204 952.234 329.13 951.187C306.442 946.59 284.324 939.195 263.412 929.205C261.568 928.317 259.134 926.838 256.335 925.154C249.053 920.717 239.086 914.664 231.395 914.664C226.525 914.664 223.066 917.053 221.109 921.787C218.629 927.749 220.176 932.8 225.933 937.693C230.007 941.129 234.74 943.586 239.336 945.953C242.59 947.637 245.935 949.366 249.007 951.437C272.764 967.434 303.166 984.637 336.935 1001.18L338.573 1002H341.167C339.916 1001.39 337.435 1000.18 337.435 1000.18H337.458Z" fill="#ECE5DF"/>
<path d="M489.898 904.402C500.161 895.117 516.408 886.994 535.227 877.573C548.357 870.996 566.015 854.84 564.946 841.619C564.377 834.405 558.551 828.99 547.674 825.576C543.396 824.234 538.709 823.574 533.361 823.574C519.435 823.574 503.733 828.193 489.898 832.289C483.572 834.155 477.61 835.907 472.149 837.159C426.364 847.558 398.716 853.839 373.936 853.839C351.999 853.839 332.771 848.924 307.558 836.886C283.278 825.303 265.71 814.403 251.579 805.665C230.78 792.786 221.087 787.097 208.799 787.097C203.064 787.097 196.215 788.371 188 790.988V792.171C196.238 789.532 203.11 788.212 208.799 788.212C220.791 788.212 230.394 793.855 251.01 806.621C265.164 815.382 282.754 826.282 307.08 837.91C332.452 850.039 351.84 854.977 373.958 854.977C398.853 854.977 426.546 848.696 472.422 838.274C477.906 837.022 483.891 835.27 490.239 833.404C504.006 829.354 519.617 824.757 533.384 824.757C538.618 824.757 543.191 825.394 547.356 826.714C557.755 829.991 563.285 835.065 563.831 841.778C564.855 854.499 547.583 870.177 534.726 876.617C515.839 886.083 499.524 894.253 489.147 903.628C457.835 931.936 462.887 968.891 472.376 1002.07H473.559C464.093 969.118 458.996 932.414 489.898 904.47V904.402Z" fill="#ECE5DF"/>
<path d="M646.751 805.642C680.634 801.774 720.98 761.519 731.789 730.754C750.562 677.346 717.18 634.338 684.89 592.741C653.737 552.601 624.292 514.69 638.605 468.519C651.075 428.31 691.352 406.601 722.914 406.601C739.935 406.601 754.635 412.631 764.352 423.599C775.889 436.615 780.418 456.39 777.459 480.784C767.288 564.593 764.261 656.275 857.695 683.308C868.413 686.403 878.995 687.973 889.166 687.973C928.511 687.973 953.61 665.445 967.741 646.535C994.843 610.286 1004.26 556.059 991.157 511.618C980.052 473.935 958.184 437.366 924.346 399.865C874.034 344.114 805.494 296.191 714.836 253.319L710.922 251.454C672.784 233.408 633.348 214.749 591.82 204.463C589.362 203.849 586.631 203.121 583.718 202.347C570.884 198.934 554.933 194.701 541.234 194.701C535.75 194.701 530.994 195.407 527.125 196.795C521.209 198.911 517.887 202.961 514.655 206.875C512.243 209.788 509.763 212.815 506.213 214.976C503.915 216.387 499.409 218.117 494.676 219.96C487.007 222.918 479.043 225.99 476.54 228.948C471.693 234.637 473.035 238.05 474.31 241.373C475.243 243.739 476.107 245.992 474.97 249.337L474.082 251.977C469.486 265.494 461.893 273.784 451.304 276.849C448.232 277.736 444.409 278.851 439.881 280.285C426.796 284.449 421.426 290.866 416.238 297.078C412.255 301.857 408.478 306.363 401.355 310.004C401.173 310.004 400.946 310.004 400.718 310.004C392.526 310.004 330.404 314.1 325.625 329.369C324.351 333.487 327.127 337.947 333.931 342.658C342.441 348.551 348.881 349.234 353 349.234C355.002 349.234 356.823 349.052 358.575 348.893C360.077 348.756 361.488 348.62 362.83 348.62C367.837 348.62 372.888 350.031 379.806 367.12C381.513 371.33 382.832 374.766 383.925 377.633C389.295 391.696 389.477 391.878 403.108 397.703C406.498 399.137 410.708 400.935 416.056 403.415C433.623 411.516 437.218 420.709 441.769 432.36C444.181 438.504 446.912 445.49 452.078 453.341C457.607 461.738 464.093 468.496 470.373 475.027C481.501 486.609 492.014 497.555 495.359 515.828C501.161 547.481 483.981 577.7 464.548 605.644C455.127 619.206 435.762 634.976 415.259 651.678C380.443 680.032 340.985 712.185 340.848 741.95C340.757 758.948 345.127 771.987 353.819 780.725C363.285 790.237 377.667 794.856 397.806 794.856C427.001 794.856 462.864 785.003 494.517 776.333C519.434 769.506 540.961 763.59 554.705 763.59C557.823 763.59 560.462 763.909 562.533 764.523C575.8 768.46 586.313 776.879 596.507 785.026C610.001 795.835 622.767 806.029 640.994 806.029C642.86 806.029 644.772 805.915 646.683 805.711L646.751 805.642ZM563.056 762.93C560.781 762.247 558.073 761.929 554.773 761.929C540.802 761.929 519.184 767.868 494.153 774.718C462.591 783.365 426.819 793.195 397.851 793.195C378.168 793.195 364.15 788.735 355.002 779.542C346.628 771.122 342.419 758.47 342.487 741.904C342.623 712.891 381.763 680.987 416.306 652.862C436.9 636.091 456.333 620.253 465.89 606.508C485.506 578.269 502.868 547.708 496.952 515.486C493.515 496.736 482.843 485.631 471.556 473.866C465.321 467.381 458.882 460.668 453.443 452.408C448.368 444.694 445.661 437.822 443.294 431.723C438.606 419.731 434.897 410.287 416.761 401.913C411.391 399.433 407.158 397.635 403.768 396.179C394.999 392.432 388.885 386.037 385.427 376.996C384.334 374.129 383.014 370.67 381.308 366.46C374.686 350.144 369.52 346.959 362.853 346.959C361.442 346.959 359.986 347.095 358.439 347.254C356.732 347.414 354.957 347.596 353.023 347.596C348.79 347.596 342.919 346.89 334.864 341.315C328.697 337.06 326.126 333.191 327.172 329.824C331.314 316.557 389.227 311.574 400.741 311.574C401.014 311.574 401.196 311.574 401.31 311.574L401.492 310.846L401.833 311.551C409.388 307.728 413.507 302.836 417.466 298.08C422.746 291.776 427.729 285.814 440.381 281.787C444.887 280.353 448.687 279.261 451.759 278.373C468.302 273.595 468.507 273.344 475.607 252.478L476.494 249.838C477.814 245.947 476.745 243.216 475.812 240.781C474.583 237.641 473.536 234.933 477.769 229.972C480.021 227.333 488.122 224.192 495.268 221.439C500.092 219.573 504.643 217.821 507.078 216.342C510.855 214.043 513.427 210.926 515.907 207.899C519.138 203.985 522.187 200.276 527.672 198.319C531.381 196.999 535.955 196.317 541.257 196.317C554.751 196.317 570.589 200.527 583.332 203.917C586.244 204.691 588.975 205.419 591.455 206.033C632.825 216.273 672.192 234.91 710.262 252.91L714.176 254.776C804.629 297.534 873.01 345.343 923.186 400.935C956.864 438.254 978.618 474.617 989.655 512.073C1002.63 556.059 993.318 609.717 966.49 645.58C952.563 664.194 927.851 686.38 889.189 686.38C879.177 686.38 868.755 684.833 858.173 681.761C765.945 655.092 768.971 564.138 779.075 480.966C782.101 456.117 777.437 435.91 765.581 422.553C755.568 411.243 740.436 405.031 722.96 405.031C690.829 405.031 649.823 427.126 637.126 468.086C622.562 515.031 653.624 555.058 683.684 593.765C715.701 635.021 748.833 677.688 730.333 730.276C719.66 760.609 679.929 800.318 646.615 804.118C644.749 804.323 642.906 804.436 641.108 804.436C623.427 804.436 610.889 794.401 597.599 783.774C587.314 775.537 576.664 767.026 563.102 762.976L563.056 762.93Z" fill="#ECE5DF"/>
</g>
</g>
<defs>
<clipPath id="clip0_571_155295">
<rect width="375" height="981" fill="white"/>
</clipPath>
<clipPath id="clip1_571_155295">
<rect width="1024" height="1024" fill="white" transform="translate(-836 -22)"/>
</clipPath>
<clipPath id="clip2_571_155295">
<rect width="1024" height="1024" fill="white" transform="translate(188 -22)"/>
</clipPath>
</defs>
</svg>
