<svg width="289" height="289" viewBox="0 0 289 289" fill="none" xmlns="http://www.w3.org/2000/svg">
<path d="M289 144.5C289 224.305 224.305 289 144.5 289C64.6949 289 0 224.305 0 144.5C0 64.6949 64.6949 0 144.5 0C224.305 0 289 64.6949 289 144.5ZM17.1837 144.5C17.1837 214.815 74.1851 271.816 144.5 271.816C214.815 271.816 271.816 214.815 271.816 144.5C271.816 74.1851 214.815 17.1837 144.5 17.1837C74.1851 17.1837 17.1837 74.1851 17.1837 144.5Z" fill="#F2F2F2"/>
<path d="M17.147 97.0422C12.7006 95.3852 7.72657 97.6406 6.33671 102.178C-1.96787 129.287 -2.1308 158.31 5.97192 185.612C14.8914 215.666 33.343 242.005 58.5429 260.653C83.7428 279.302 114.324 289.25 145.673 288.995C177.022 288.741 207.437 278.298 232.331 259.243C257.225 240.188 275.247 213.553 283.677 183.358C292.108 153.163 290.49 121.046 279.067 91.8507C267.645 62.6559 247.037 37.9677 220.354 21.5108C196.115 6.56079 168.056 -0.859576 139.718 0.0790382C134.976 0.236126 131.5 4.44874 131.939 9.17357V9.17357C132.377 13.8984 136.565 17.3426 141.309 17.2236C165.928 16.6059 190.268 23.1439 211.334 36.1364C234.844 50.6363 253 72.3886 263.065 98.1116C273.129 123.835 274.554 152.133 267.126 178.737C259.699 205.342 243.82 228.809 221.887 245.598C199.953 262.387 173.154 271.588 145.533 271.812C117.913 272.036 90.968 263.272 68.7648 246.841C46.5616 230.41 30.3042 207.204 22.4454 180.723C15.4036 156.996 15.4472 131.793 22.4714 108.189C23.8248 103.641 21.5934 98.6991 17.147 97.0422V97.0422Z" fill="#0A5393"/>
<path d="M155.348 9.02547C155.727 4.29547 152.198 0.127196 147.454 0.0301786C130.667 -0.313111 113.948 2.27218 98.0488 7.66967C93.5555 9.19506 91.4506 14.2345 93.2403 18.6291V18.6291C95.03 23.0238 100.036 25.106 104.542 23.6167C117.936 19.189 131.975 17.0182 146.081 17.1935C150.826 17.2524 154.969 13.7555 155.348 9.02547V9.02547Z" fill="#F2F2F2"/>
</svg>
