<svg width="20" height="20" viewBox="0 0 20 20" fill="none" xmlns="http://www.w3.org/2000/svg">
<mask id="mask0_284_153815" style="mask-type:alpha" maskUnits="userSpaceOnUse" x="0" y="0" width="20" height="20">
<rect width="20" height="20" fill="#D9D9D9"/>
</mask>
<g mask="url(#mask0_284_153815)">
<path d="M9.09053 17.5052L9.09012 17.5048C8.4007 16.8755 7.71356 16.2 7.02868 15.4781C6.34417 14.7566 5.73025 14.0085 5.18688 13.2339C4.64366 12.4596 4.20227 11.6715 3.86261 10.8697C3.52329 10.0687 3.35384 9.27867 3.35384 8.49935C3.35384 6.42092 4.02218 4.76708 5.35755 3.5355C6.69412 2.3028 8.24121 1.68685 9.99967 1.68685C11.7581 1.68685 13.3052 2.3028 14.6418 3.5355C15.9772 4.76708 16.6455 6.42092 16.6455 8.49935C16.6455 9.27867 16.4761 10.0687 16.1367 10.8697C15.7971 11.6715 15.3557 12.4596 14.8125 13.2339C14.2691 14.0085 13.6552 14.7566 12.9707 15.4781C12.2858 16.2 11.5986 16.8755 10.9092 17.5048L10.9092 17.5048L10.9088 17.5052C10.786 17.6234 10.644 17.7098 10.4826 17.7643C10.3203 17.8192 10.1582 17.8466 9.9962 17.8466C9.83424 17.8466 9.67333 17.8192 9.51337 17.7644C9.35426 17.7098 9.21336 17.6235 9.09053 17.5052ZM10.0009 9.88129C10.4269 9.88129 10.7918 9.72934 11.0943 9.42602C11.3968 9.12271 11.5483 8.75748 11.5483 8.33145C11.5483 7.90541 11.3963 7.54057 11.093 7.23808C10.7897 6.9356 10.4245 6.78408 9.99845 6.78408C9.5724 6.78408 9.20756 6.93602 8.90507 7.23935C8.60259 7.54266 8.45107 7.90789 8.45107 8.33391C8.45107 8.75996 8.60301 9.12479 8.90634 9.42729C9.20965 9.72977 9.57488 9.88129 10.0009 9.88129Z" fill="#EE7E19" stroke="white" stroke-width="0.0416667"/>
<circle cx="10" cy="8" r="2.5" fill="#EE7E19"/>
</g>
</svg>
