<svg width="375" height="672" viewBox="0 0 375 672" fill="none" xmlns="http://www.w3.org/2000/svg">
<g clip-path="url(#clip0_593_156292)">
<rect width="375" height="672" fill="#F5F3F1"/>
<g clip-path="url(#clip1_593_156292)">
<path d="M159.018 288.019C157.93 287.229 156.266 285.779 154.154 283.923C146.047 276.84 132.458 265 122.879 265C119.124 265 116.33 266.813 114.559 270.397C112.34 274.877 117.226 285.288 120.468 292.179C121.258 293.864 121.94 295.315 122.367 296.36C123.242 298.515 124.052 300.477 124.714 302.248C129.236 314.109 133.93 326.355 137.407 339.667C137.77 341.053 138.111 342.632 138.495 344.275C140.095 351.379 142.058 360.189 146.964 364.52C148.863 366.205 150.719 367.315 152.468 367.848C153.279 368.083 154.068 368.211 154.858 368.211C160.66 368.211 164.65 361.619 168.511 355.24C169.386 353.789 170.303 352.275 171.199 350.909L172.052 349.608C186.751 327.229 195.626 313.704 168.596 294.952C165.972 293.117 162.559 290.643 158.996 288.04L159.018 288.019ZM171.178 349.011L170.324 350.312C169.407 351.72 168.49 353.213 167.615 354.685C163.903 360.808 160.084 367.144 154.879 367.144C154.196 367.144 153.514 367.037 152.81 366.824C151.21 366.355 149.482 365.309 147.69 363.731C143.039 359.635 141.098 350.995 139.54 344.04C139.156 342.355 138.815 340.776 138.452 339.389C134.954 326.035 130.26 313.747 125.716 301.864C125.034 300.093 124.244 298.109 123.348 295.955C122.9 294.888 122.218 293.416 121.428 291.709C118.463 285.416 113.514 274.877 115.519 270.867C117.119 267.645 119.53 266.067 122.879 266.067C132.052 266.067 145.45 277.757 153.45 284.733C155.583 286.589 157.268 288.061 158.399 288.893C161.962 291.496 165.375 293.992 168.02 295.827C194.196 314.003 185.535 327.187 171.178 349.032V349.011Z" fill="white"/>
<path d="M176.232 264.824C171.517 261.389 166.824 257.549 161.853 253.496C146.642 241.08 129.426 227 113.938 227C110.888 227 107.986 227.533 105.064 228.643C77.7143 238.989 81.6396 267.896 86.397 284.216C89.3196 294.179 93.0743 304.056 96.7223 313.592C100.968 324.707 105.362 336.205 108.413 347.917C110.269 354.979 111.186 362.424 112.082 369.613C114.834 391.693 117.437 412.536 146.877 412.536C149.202 412.536 151.72 412.408 154.344 412.152C157.693 411.811 160.445 411.299 162.792 410.552C170.621 408.035 172.968 403.277 176.509 396.088C177.576 393.912 178.792 391.459 180.306 388.792C182.61 384.717 185.128 380.856 187.752 377.144V376.035C184.936 380.003 182.226 384.12 179.752 388.472C178.237 391.139 177.021 393.613 175.933 395.789C172.456 402.829 170.173 407.48 162.6 409.912C160.296 410.659 157.586 411.171 154.28 411.491C151.677 411.747 149.181 411.875 146.877 411.875C117.992 411.875 115.56 392.248 112.722 369.507C111.826 362.296 110.888 354.829 109.032 347.725C105.96 335.971 101.565 324.472 97.2983 313.336C93.6503 303.8 89.8956 293.965 86.9943 284.024C82.2796 267.917 78.397 239.373 105.256 229.219C108.093 228.152 110.93 227.619 113.896 227.619C129.149 227.619 146.28 241.613 161.405 253.965C166.376 258.04 171.09 261.88 175.805 265.315C179.368 267.917 182.504 270.2 184.85 271.821C185.81 272.483 186.77 273.144 187.73 273.805V273.037C186.898 272.461 186.045 271.885 185.213 271.309C182.866 269.688 179.73 267.405 176.189 264.803L176.232 264.824Z" fill="white"/>
<path d="M111.762 -45.9147C108.967 -45.9147 106.236 -45.936 103.548 -45.9573C100.967 -45.9573 98.4284 -46 95.9324 -46C81.3831 -46 69.7991 -45.2107 57.0417 -41.3493C50.3644 -39.3227 44.1138 -36.144 38.0551 -33.0507C27.9644 -27.9093 18.4071 -23.0453 6.99376 -23.0453C5.0951 -23.0453 3.17507 -23.1733 1.29774 -23.4507C-7.12893 -24.6667 -13.4222 -29.6373 -19.5236 -34.4373C-26.3716 -39.8347 -32.8569 -44.9333 -41.9236 -44.9333C-42.7556 -44.9333 -43.5876 -44.8907 -44.4409 -44.8053C-50.0516 -44.2293 -59.0116 -39.1947 -67.6943 -34.3093C-73.2836 -31.1733 -78.5529 -28.208 -82.2863 -26.8427C-87.7263 -24.8373 -91.8009 -23.8773 -94.7663 -23.152C-103.726 -21.0187 -104.857 -20.2293 -109.23 -3.71733C-110.425 0.848002 -111.3 5.11467 -112.153 9.232C-115.289 24.5493 -117.764 36.6453 -134.084 48.1867C-145.092 55.9733 -159.065 59.7493 -176.814 59.7493C-194.393 59.7493 -212.761 56.08 -228.974 52.816C-237.444 51.1093 -245.465 49.5093 -251.396 48.8907C-254.852 48.528 -260.185 48.2933 -265.646 48.2933C-281.305 48.2933 -299.652 54.032 -300.932 62.2453C-301.529 66.1493 -298.5 71.9947 -280.537 77.7333L-278.532 78.3733C-210.116 100.325 -162.393 128.955 -113.838 177.211C-100.441 190.523 -90.2009 196.731 -81.6462 196.731C-79.6409 196.731 -77.6569 196.368 -75.8009 195.685C-66.6916 192.293 -60.0569 180.795 -52.3556 167.483C-48.3876 160.613 -43.8863 152.827 -38.5529 145.317C-12.7823 109.008 24.1885 82.4693 65.5538 70.608C77.7565 67.1093 89.6817 65.3387 100.967 65.3387C137.81 65.3387 163.815 83.3867 188.434 101.947V100.603C163.858 82.1067 137.852 64.272 100.967 64.272C89.5751 64.272 77.5644 66.064 65.2551 69.584C23.6551 81.5093 -13.5289 108.197 -39.4276 144.699C-44.7823 152.229 -49.2836 160.059 -53.2729 166.949C-60.8676 180.091 -67.4169 191.419 -76.1636 194.683C-77.9129 195.344 -79.7476 195.664 -81.6462 195.664C-89.9236 195.664 -99.9076 189.563 -113.092 176.464C-161.774 128.08 -209.625 99.3653 -278.212 77.3707L-280.217 76.7307C-293.657 72.4427 -300.633 67.344 -299.865 62.4373C-298.798 55.6107 -282.478 49.3813 -265.625 49.3813C-260.206 49.3813 -254.916 49.5947 -251.502 49.9573C-245.614 50.576 -237.614 52.176 -229.166 53.8827C-212.91 57.1467 -194.478 60.8373 -176.793 60.8373C-158.83 60.8373 -144.644 56.9973 -133.444 49.0827C-116.782 37.2853 -114.265 24.9973 -111.086 9.46667C-110.233 5.34934 -109.38 1.104 -108.164 -3.44C-103.833 -19.888 -102.937 -20.1013 -94.4889 -22.1067C-91.4809 -22.832 -87.3849 -23.792 -81.8809 -25.8187C-78.0623 -27.2267 -72.7502 -30.2133 -67.1396 -33.3707C-58.9689 -37.9573 -49.6889 -43.184 -44.3129 -43.7387C-43.5022 -43.824 -42.6916 -43.8667 -41.9023 -43.8667C-33.1983 -43.8667 -26.8622 -38.8747 -20.1422 -33.6053C-13.9342 -28.72 -7.5129 -23.664 1.1911 -22.4053C3.13243 -22.128 5.11643 -21.9787 7.05776 -21.9787C18.7271 -21.9787 28.8391 -27.12 38.5884 -32.0907C44.6044 -35.1413 50.8124 -38.32 57.3831 -40.304C70.0337 -44.144 81.5111 -44.912 95.9538 -44.912C98.4498 -44.912 100.967 -44.912 103.548 -44.8693C106.236 -44.848 108.967 -44.8267 111.762 -44.8267C124.796 -44.8267 136.444 -43.312 147.41 -40.176C161.255 -36.2293 174.844 -30.704 188.455 -24.2613V-25.4347C174.951 -31.792 161.468 -37.2747 147.708 -41.2C136.658 -44.3573 124.903 -45.8933 111.762 -45.8933V-45.9147Z" fill="white"/>
<path d="M176.856 282.976C174.381 281.248 171.032 278.816 167.533 276.256C162.52 272.587 157.677 268.64 152.514 264.437C151.362 263.499 150.082 262.411 148.738 261.28C140.141 253.984 128.365 244 117.528 244C114.541 244 111.768 244.768 109.293 246.304C90.5624 257.888 101.826 285.536 108.546 302.048C109.357 304.053 110.146 305.952 110.786 307.637C115.181 319.115 119.725 330.997 122.989 343.52C123.608 345.867 124.226 348.64 124.866 351.563C127.853 364.96 131.928 383.328 142.189 389.941C143.874 391.029 145.666 391.712 147.48 391.968C148.013 392.053 148.589 392.075 149.144 392.075C161.688 392.075 174.189 373.024 183.341 359.093C185.005 356.576 186.498 354.293 187.885 352.309V351.2C186.37 353.355 184.685 355.893 182.808 358.752C173.762 372.555 161.346 391.435 149.144 391.435C148.61 391.435 148.098 391.392 147.565 391.328C145.837 391.093 144.152 390.432 142.53 389.408C132.482 382.944 128.429 364.725 125.485 351.435C124.824 348.512 124.226 345.739 123.608 343.371C120.322 330.827 115.778 318.923 111.384 307.424C110.744 305.739 109.976 303.84 109.144 301.835C102.488 285.493 91.373 258.165 109.634 246.88C112.024 245.408 114.669 244.661 117.528 244.661C128.13 244.661 139.8 254.56 148.312 261.792C149.656 262.944 150.936 264.011 152.13 264.992C157.272 269.173 162.114 273.141 167.149 276.811C170.648 279.371 173.997 281.803 176.472 283.531C179.8 285.835 183.17 288.117 186.754 290.549C187.138 290.805 187.501 291.04 187.864 291.296V290.528C187.608 290.357 187.352 290.187 187.074 289.995C183.512 287.584 180.141 285.301 176.813 282.997L176.856 282.976Z" fill="white"/>
<path d="M65.6453 434.56C66.8613 436.139 69.1226 438.293 74.8186 438.763C96.1306 440.512 128.365 443.136 155.565 467.925L155.885 468.203C165.187 476.693 172.739 487.445 178.328 500.16C179.885 503.659 182.381 505.685 185.219 505.685C185.987 505.685 186.776 505.536 187.565 505.216V504.448C186.797 504.811 186.008 505.045 185.219 505.045C182.659 505.045 180.355 503.168 178.904 499.904C173.272 487.104 165.656 476.288 156.291 467.733L155.971 467.456C128.6 442.517 96.2373 439.872 74.8399 438.123C69.3999 437.675 67.2453 435.648 66.1146 434.176C63.4053 430.635 63.0639 425.152 63.3626 423.467C66.3279 410.411 70.0186 394.155 68.6319 376.384C66.3066 346.283 54.2532 320.405 42.6266 295.381C33.2826 275.307 22.7013 252.544 26.3706 242.176C32.9199 223.723 59.6719 197.248 70.8506 186.731C77.9546 180.053 86.4239 176.661 95.9813 176.661C101.443 176.661 106.157 177.813 109.165 178.773C128.792 185.109 156.568 199.595 187.544 219.499V218.731C156.675 198.912 128.963 184.469 109.357 178.155C106.328 177.173 101.528 176 95.9813 176C86.2533 176 77.6559 179.456 70.4239 186.261C59.2026 196.821 32.3653 223.381 25.7733 241.963C22.0186 252.587 32.6639 275.456 42.0506 295.659C53.6559 320.619 65.6666 346.432 67.9919 376.427C69.3786 394.112 65.6879 410.304 62.7439 423.36C62.4239 425.131 62.7652 430.869 65.6026 434.581L65.6453 434.56Z" fill="white"/>
<path d="M106.416 415.563C111.28 418.229 117.936 419.36 124.378 420.448C129.157 421.259 134.085 422.091 138.096 423.541C140.634 424.459 143.429 425.845 146.394 427.296C152.517 430.304 159.45 433.739 165.765 433.739C166.981 433.739 168.154 433.611 169.264 433.355C169.562 433.291 169.84 433.205 170.138 433.12C179.184 430.432 184.005 419.083 188.165 408.672V406.944L188.08 407.136C183.856 417.76 179.077 429.792 169.946 432.523C169.669 432.608 169.392 432.672 169.114 432.736C168.069 432.971 166.938 433.099 165.765 433.099C159.6 433.099 152.73 429.707 146.672 426.72C143.685 425.248 140.869 423.861 138.309 422.944C134.234 421.472 129.264 420.64 124.464 419.808C118.064 418.72 111.45 417.589 106.693 414.987C96.1543 409.205 97.2637 398.624 98.4157 387.424C98.8637 383.051 99.333 378.507 99.013 374.368C96.261 338.869 83.077 310.517 70.3197 283.125C64.5383 270.688 64.1117 257.035 69.125 244.725C74.565 231.392 85.957 220.619 100.378 215.179C104.88 213.472 109.552 212.619 114.309 212.619C134.896 212.619 154.224 228.405 171.269 242.336C176.09 246.283 180.656 249.995 185.029 253.195C186.16 254.027 187.184 254.773 188.144 255.477V254.688C187.29 254.069 186.373 253.408 185.392 252.683C181.04 249.504 176.474 245.792 171.653 241.845C154.522 227.851 135.088 212 114.288 212C109.466 212 104.709 212.875 100.144 214.603C85.5517 220.107 74.0317 231.008 68.5277 244.512C63.429 256.992 63.877 270.816 69.7437 283.424C82.4797 310.795 95.6423 339.083 98.373 374.453C98.693 378.528 98.2236 383.051 97.7756 387.403C96.645 398.325 95.4716 409.611 106.373 415.584L106.416 415.563Z" fill="white"/>
<path d="M111.56 -23.9573C93.6182 -23.9573 74.5462 -20.7147 54.3009 -17.2587C31.5382 -13.376 7.98622 -9.36533 -17.0804 -9.36533C-18.8938 -9.36533 -20.6858 -9.36533 -22.3924 -9.42933C-31.0964 -9.64266 -38.4778 -11.072 -44.9844 -12.3307C-50.6164 -13.4187 -55.4805 -14.3787 -60.1525 -14.3787C-71.2458 -14.3787 -79.3951 -8.53333 -88.2911 5.76C-92.5791 12.6507 -95.7151 20.9067 -98.7444 28.864C-104.099 42.9653 -109.646 57.5573 -121.87 66.1973C-126.072 69.1627 -134.136 71.4667 -142.67 73.92C-157.582 78.1867 -174.478 83.008 -176.782 93.0773C-179.64 105.707 -153.72 122.965 -139.79 132.245C-137.208 133.973 -134.968 135.467 -133.496 136.533C-117.155 148.523 -103.651 156.501 -90.8084 156.501C-89.0591 156.501 -87.3098 156.352 -85.6031 156.032C-75.3631 154.197 -66.0618 146.944 -56.3338 133.227C-27.7471 92.9493 13.3622 63.488 59.4209 50.2613C73.5649 46.208 87.4742 44.16 100.786 44.16C137.586 44.16 164.829 59.0293 188.253 75.584V74.7947C164.829 58.2827 137.586 43.52 100.786 43.52C87.4316 43.52 73.4582 45.5893 59.2502 49.664C13.0422 62.912 -28.1738 92.4587 -56.8458 132.864C-66.4671 146.432 -75.6405 153.6 -85.7098 155.392C-87.3738 155.691 -89.0804 155.84 -90.8084 155.84C-103.48 155.84 -116.878 147.904 -133.112 136C-134.584 134.912 -136.846 133.419 -139.427 131.691C-153.23 122.496 -178.915 105.387 -176.163 93.184C-173.944 83.4773 -157.24 78.72 -142.499 74.5173C-133.902 72.064 -125.795 69.76 -121.507 66.7093C-109.112 57.9627 -103.544 43.2853 -98.1471 29.0987C-95.1391 21.1627 -92.0031 12.9493 -87.7578 6.10134C-78.9898 -7.99999 -71.0111 -13.7387 -60.1738 -13.7387C-55.5658 -13.7387 -50.7444 -12.8 -45.1338 -11.712C-38.6058 -10.432 -31.1818 -9.00267 -22.4351 -8.78933C-20.7071 -8.74667 -18.9151 -8.72533 -17.1018 -8.72533C8.02887 -8.72533 31.6022 -12.736 54.4289 -16.64C74.6102 -20.0747 93.6609 -23.3387 111.538 -23.3387C122.589 -23.3387 132.338 -22.08 141.384 -19.4987C156.893 -15.0827 172.402 -8.32 188.232 -0.405332V-1.13067C172.466 -9.00267 157.021 -15.7227 141.554 -20.1387C132.445 -22.7413 122.632 -24 111.517 -24L111.56 -23.9573Z" fill="white"/>
<path d="M92.6068 426.499C96.9801 427.587 101.225 428.589 105.364 429.528C127.679 434.691 146.921 439.171 166.185 456.6L166.569 456.941C171.007 460.952 174.484 462.893 177.257 462.893C177.684 462.893 178.111 462.851 178.516 462.744C182.697 461.784 184.788 455.939 187.071 448.408C187.433 447.235 187.817 446.083 188.18 444.931V442.84C187.583 444.632 187.007 446.445 186.452 448.237C184.212 455.576 182.207 461.251 178.367 462.147C175.593 462.787 171.945 460.952 166.996 456.472L166.612 456.131C147.22 438.573 127.892 434.093 105.492 428.909C101.375 427.949 97.1081 426.968 92.7561 425.88C77.1188 421.955 79.7641 407.235 82.3241 393.027C83.4335 386.819 84.6068 380.376 84.1801 375C81.6415 342.211 69.0334 315.096 56.8308 288.877C55.3801 285.741 53.8228 282.691 52.3081 279.725C44.4788 264.344 37.6948 251.075 47.3801 234.733C54.6548 222.445 65.5775 212.376 76.1161 202.648C78.0148 200.899 79.9134 199.149 81.7694 197.4C85.8441 193.581 91.3908 191.64 98.2388 191.64C124.521 191.64 164.948 219.608 188.201 236.461V235.672C164.82 218.755 124.564 191 98.2388 191C91.2201 191 85.5241 193.005 81.3215 196.931C79.4655 198.68 77.5668 200.429 75.6681 202.179C65.0868 211.949 54.1428 222.04 46.8041 234.413C36.9481 251.053 44.1161 265.133 51.7108 280.024C53.2255 282.989 54.7828 286.04 56.2334 289.176C68.3934 315.352 81.0015 342.403 83.5188 375.085C83.9241 380.376 82.7721 386.776 81.6628 392.941C79.0601 407.448 76.3508 422.467 92.5855 426.541L92.6068 426.499Z" fill="white"/>
<path d="M-356.735 734.477C-362.132 742.627 -368.852 752.739 -366.527 759.736C-365.588 762.595 -363.199 764.728 -359.444 766.072C-358.74 766.328 -357.951 766.456 -357.119 766.456C-348.884 766.456 -335.828 753.72 -324.308 742.499C-316.991 735.352 -310.057 728.611 -305.897 726.712C-286.015 717.688 -258.58 713.4 -234.388 709.603C-224.831 708.109 -215.807 706.701 -207.487 705.059C-188.5 701.347 -170.175 699.448 -153.001 699.448C-96.8095 699.448 -49.6414 719.672 -12.7774 759.544C-8.63876 764.024 -2.64415 766.285 5.09985 766.285C29.1638 766.285 70.4438 742.861 99.4998 699.448C116.887 673.485 142.145 620.387 115.884 556.621C105.367 531.064 89.7292 519.16 66.6679 519.16C49.1319 519.16 29.1212 525.603 5.95323 533.069C-22.5481 542.264 -54.8681 552.675 -89.6414 552.675C-116.713 552.675 -141.567 546.424 -165.631 533.603C-239.871 494.008 -242.025 421.795 -235.625 363.299C-233.129 340.557 -237.183 322.552 -247.316 311.224C-254.484 303.224 -264.233 299 -275.54 299C-296.959 299 -323.689 315.619 -333.332 347.405C-342.399 377.315 -320.895 404.515 -295.999 436.003C-267.903 471.501 -236.073 511.736 -242.26 565.432C-245.332 592.056 -255.039 617.592 -268.265 633.763C-278.292 646.029 -287.145 647.117 -296.532 648.269C-303.7 649.144 -311.103 650.061 -319.785 655.565C-326.42 659.768 -328.489 666.936 -330.687 674.509C-332.201 679.736 -333.78 685.133 -336.959 689.571C-338.708 692.003 -341.759 692.536 -344.959 693.091C-349.204 693.837 -354.025 694.669 -356.564 700.152C-358.335 703.971 -355.988 708.472 -353.727 712.824C-351.828 716.451 -349.887 720.205 -350.463 723.32C-350.932 725.816 -353.577 729.827 -356.649 734.456L-356.735 734.477ZM-352.703 712.291C-354.921 708.024 -357.033 703.971 -355.519 700.707C-353.236 695.8 -348.948 695.053 -344.809 694.328C-341.481 693.752 -338.068 693.155 -336.02 690.317C-332.713 685.709 -331.113 680.205 -329.556 674.893C-327.423 667.533 -325.396 660.6 -319.167 656.653C-310.719 651.299 -303.444 650.403 -296.425 649.528C-286.783 648.333 -277.695 647.224 -267.348 634.573C-253.993 618.232 -244.159 592.44 -241.065 565.603C-234.836 511.395 -266.836 470.947 -295.06 435.256C-319.743 404.045 -341.076 377.08 -332.18 347.789C-322.708 316.579 -296.532 300.259 -275.561 300.259C-264.617 300.259 -255.167 304.333 -248.255 312.056C-238.356 323.107 -234.409 340.771 -236.863 363.171C-243.305 422.051 -241.108 494.755 -166.228 534.691C-141.972 547.619 -116.927 553.912 -89.6414 553.912C-54.6761 553.912 -22.2708 543.459 6.31586 534.243C29.3772 526.797 49.3025 520.376 66.6465 520.376C89.4519 520.376 104.279 531.704 114.732 557.069C140.78 620.323 115.713 672.973 98.4759 698.744C70.6786 740.237 29.1639 765.048 5.07856 765.048C-2.28144 765.048 -7.9988 762.915 -11.8815 758.712C-48.9801 718.584 -96.4681 698.232 -153.001 698.232C-170.239 698.232 -188.649 700.131 -207.721 703.864C-216.02 705.485 -225.044 706.893 -234.58 708.387C-258.857 712.184 -286.356 716.493 -306.409 725.581C-310.761 727.565 -317.439 734.072 -325.161 741.603C-336.511 752.675 -349.375 765.219 -357.119 765.219C-357.801 765.219 -358.441 765.112 -359.017 764.92C-362.431 763.683 -364.5 761.869 -365.332 759.352C-367.465 752.931 -360.937 743.075 -355.689 735.16C-352.532 730.403 -349.823 726.307 -349.311 723.576C-348.649 720.035 -350.697 716.109 -352.681 712.291H-352.703Z" fill="white"/>
<path d="M158.996 588.493C161.748 590.243 166.185 591.203 171.519 591.203C176.276 591.203 181.908 590.413 187.903 588.579V587.021C181.908 588.899 176.276 589.709 171.519 589.709C166.527 589.709 162.26 588.813 159.785 587.235C147.263 579.235 141.716 565.091 135.849 550.136C130.793 537.229 125.545 523.875 115.391 514.467V514.019H114.921C103.231 503.736 87.5079 498.723 66.8146 498.723C46.1212 498.723 25.4065 503.565 8.36118 507.448C-3.28682 510.115 -13.3562 512.397 -19.8415 512.397C-23.6388 512.397 -25.9641 511.608 -26.9241 510.008C-28.2041 507.875 -27.2441 503.843 -24.0868 498.083C-9.34547 471.16 20.4359 406.989 18.3665 380.429C16.7452 359.48 6.67588 337.827 -3.07345 316.899C-17.1748 286.584 -31.7455 255.267 -21.1428 225.315C-9.02546 191.16 44.3292 130.104 82.2812 124.941C84.4999 124.643 86.8892 124.493 89.3852 124.493C114.089 124.493 150.207 139.213 187.86 160.525V158.925C150.185 137.656 114.089 123 89.3852 123C86.8252 123 84.3719 123.149 82.0892 123.469C43.6466 128.717 -10.3268 190.349 -22.5508 224.824C-33.3668 255.331 -18.6468 286.947 -4.43882 317.539C5.24651 338.339 15.2519 359.864 16.8519 380.557C18.6865 404.237 -7.27612 464.248 -25.4095 497.379C-28.9295 503.821 -29.8468 508.088 -28.2255 510.797C-26.9881 512.909 -24.2361 513.912 -19.8628 513.912C-13.2068 513.912 -3.07346 511.608 8.65988 508.92C25.6412 505.037 46.7825 500.216 66.7932 500.216C86.8039 500.216 102.719 505.165 114.132 515.341C124.18 524.536 129.385 537.827 134.441 550.669C140.393 565.859 146.025 580.216 158.975 588.472L158.996 588.493Z" fill="white"/>
<path d="M146.968 685.635C141.336 698.477 136.003 710.616 129.261 721.133C89.944 782.296 46.104 792.6 -0.317322 803.501C-3.85865 804.333 -7.57069 805.123 -11.1547 805.891C-26.6214 809.176 -42.6 812.589 -55.6346 821.037C-59.7093 823.683 -62.824 826.285 -65 828.867H-63.6133C-61.544 826.605 -58.7067 824.301 -55.0587 821.933C-42.1947 813.592 -26.3013 810.2 -10.9413 806.936C-7.33601 806.168 -3.62402 805.379 -0.0826862 804.547C46.5306 793.581 90.584 783.235 130.136 721.709C136.941 711.128 142.275 698.968 147.949 686.04C156.931 665.56 167.128 642.371 181.187 634.605C183.683 633.667 186.051 632.835 188.333 632.109V631C185.923 631.768 183.405 632.643 180.76 633.645C166.296 641.603 156.035 664.984 146.968 685.635Z" fill="white"/>
<path d="M-75.3813 806.141C-50.2293 794.92 -27.4879 789.587 -5.47195 784.403C38.7307 774.013 76.896 765.032 111.819 710.717C117.707 701.565 122.72 690.131 128.032 678.013C139.125 652.712 150.603 626.557 171.915 615.763C177.653 613.544 182.88 611.816 187.765 610.536V609C182.688 610.323 177.227 612.115 171.232 614.44C149.472 625.469 137.888 651.88 126.667 677.416C121.376 689.469 116.384 700.861 110.56 709.907C75.936 763.731 38.048 772.648 -5.83464 782.952C-27.8933 788.136 -50.72 793.512 -76 804.776C-92.448 812.115 -103.435 820.605 -108 829.288H-106.336C-101.749 821.16 -91.1253 813.16 -75.4026 806.141H-75.3813Z" fill="white"/>
<path d="M-188.52 636.061C-187.645 636.552 -186.707 636.787 -185.725 636.787C-181.928 636.787 -178.216 633.075 -174.909 629.811C-173.011 627.912 -171.197 626.12 -169.725 625.416C-167.805 624.499 -166.013 624.051 -164.243 624.051C-160.851 624.051 -157.971 625.672 -154.643 627.549C-153.448 628.211 -152.211 628.915 -150.888 629.576C-147.709 631.155 -144.595 631.901 -141.373 631.901C-138.152 631.901 -135.144 631.155 -131.965 630.387C-128.659 629.576 -125.245 628.744 -121.256 628.659H-120.744C-112.637 628.659 -105.213 632.861 -98.024 636.915C-90.8774 640.947 -83.496 645.128 -75.4533 645.128C-71.592 645.128 -67.88 644.189 -64.1253 642.291C-61.1173 640.755 -58.8133 638.877 -56.7866 637.192C-53.48 634.461 -50.6213 632.115 -45.8 632.115C-44.392 632.115 -42.8773 632.307 -41.192 632.712C-27.496 635.955 -21.4587 648.541 -15.6347 660.723C-12.904 666.44 -10.088 672.328 -6.52532 677.043C0.621351 686.493 9.83732 691.699 19.4373 691.699H19.928C29.5493 691.528 38.7867 686.216 45.9547 676.765C55.6614 663.944 73.304 622.152 65.9867 601.352C63.832 595.208 59.672 591.325 53.656 589.811C51.5227 589.277 49.56 589 47.6187 589C41.3894 589 36.7173 591.795 31.32 595.016C30.104 595.741 28.8453 596.488 27.5227 597.235C16.5787 603.421 5.74132 604.701 -5.75735 606.067C-10.2587 606.6 -14.9306 607.155 -19.6453 608.008C-24.8933 608.968 -29.6293 610.803 -34.1947 612.573C-40.2107 614.899 -45.8853 617.096 -52.136 617.096C-56.36 617.096 -60.4773 616.072 -64.744 613.981C-73.5333 609.651 -83.112 605.661 -93.6934 605.661C-97.192 605.661 -100.648 606.067 -104.211 606.92C-105.832 607.304 -107.432 607.709 -108.989 608.115C-115.112 609.672 -120.893 611.144 -126.76 611.144C-131.517 611.144 -135.997 610.163 -140.435 608.115L-142.312 607.24C-150.376 603.507 -158.717 599.667 -167.229 599.667C-171.944 599.667 -176.275 600.819 -180.52 603.165C-185.853 606.131 -193 618.589 -193 627.272C-193 631.368 -191.421 634.397 -188.477 636.019L-188.52 636.061ZM-180.051 604.125C-175.976 601.864 -171.795 600.755 -167.272 600.755C-158.973 600.755 -150.76 604.552 -142.803 608.243L-140.925 609.117C-136.36 611.208 -131.731 612.232 -126.803 612.232C-120.808 612.232 -114.963 610.739 -108.776 609.16C-107.219 608.755 -105.64 608.349 -104.019 607.965C-100.541 607.133 -97.192 606.728 -93.7574 606.728C-83.3894 606.728 -73.9387 610.675 -65.2773 614.941C-60.8613 617.117 -56.5947 618.163 -52.2 618.163C-45.7573 618.163 -39.976 615.923 -33.8747 613.555C-29.352 611.805 -24.68 609.992 -19.5173 609.032C-14.824 608.179 -10.1947 607.624 -5.69335 607.091C5.89065 605.725 16.856 604.424 27.9706 598.131C29.2933 597.384 30.5733 596.616 31.7893 595.891C37.0587 592.755 41.6027 590.024 47.5333 590.024C49.368 590.024 51.2666 590.28 53.2933 590.792C58.9466 592.221 62.8507 595.869 64.8774 601.651C72.0667 622.109 54.5947 663.389 44.9947 676.061C38.04 685.235 29.1013 690.397 19.8 690.568H19.3307C10.072 690.568 1.1547 685.512 -5.77864 676.339C-9.2773 671.709 -11.944 666.12 -14.7813 660.211C-20.712 647.795 -26.856 634.973 -41.064 631.624C-42.8347 631.197 -44.4134 631.005 -45.9067 631.005C-51.112 631.005 -54.0987 633.48 -57.576 636.317C-59.6667 638.024 -61.8 639.795 -64.7226 641.288C-68.328 643.123 -71.8694 644.019 -75.56 644.019C-83.3254 644.019 -90.2587 640.093 -97.5973 635.933C-104.893 631.795 -112.445 627.528 -120.829 627.528H-121.363C-125.48 627.613 -128.936 628.488 -132.307 629.299C-135.421 630.067 -138.365 630.792 -141.459 630.792C-144.552 630.792 -147.432 630.088 -150.504 628.573C-151.805 627.933 -153.021 627.251 -154.195 626.589C-157.523 624.712 -160.659 622.963 -164.307 622.963C-166.248 622.963 -168.189 623.453 -170.259 624.435C-171.901 625.224 -173.757 627.059 -175.72 629.021C-178.856 632.136 -182.419 635.677 -185.768 635.677C-186.557 635.677 -187.304 635.485 -188.029 635.08C-190.653 633.629 -191.997 631.005 -191.997 627.251C-191.997 618.44 -184.573 606.557 -180.072 604.061L-180.051 604.125Z" fill="white"/>
<path d="M-326.378 711.824C-325.012 712.187 -322.559 712.357 -319.444 712.357C-312.959 712.357 -288.874 711.397 -251.306 698.981C-219.903 688.613 -183.167 682.896 -147.903 682.896C-89.8336 682.896 -51.2629 691.6 -1.57759 739.152C1.94241 742.523 6.67838 744.229 12.4597 744.229C34.049 744.229 66.7104 720.72 86.8064 690.704C102.508 667.259 125.334 619.387 101.761 562.149C91.6064 537.509 78.8704 534.117 66.6251 534.117C51.4784 534.117 32.5344 540.219 10.5824 547.301C-18.9856 556.837 -52.5216 567.632 -89.6843 567.632C-119.316 567.632 -146.516 560.805 -172.842 546.768C-256.063 502.395 -257.194 419.707 -250.794 361.381C-248.81 343.312 -251.626 329.019 -258.687 321.147C-262.932 316.411 -268.628 314 -275.583 314C-291.391 314 -311.316 326.907 -318.804 351.589C-325.567 373.883 -306.346 398.181 -284.095 426.32C-255.658 462.267 -220.266 507.003 -227.178 566.949C-229.162 584.123 -233.727 600.443 -240.788 615.461C-252.031 639.376 -266.879 659.664 -284.948 675.771C-296.874 686.395 -308.842 693.84 -317.567 699.259C-325.524 704.208 -330.324 707.173 -329.983 709.456C-329.834 710.48 -328.682 711.248 -326.378 711.824ZM-317.226 699.813C-308.479 694.373 -296.49 686.928 -284.522 676.261C-266.388 660.091 -251.476 639.739 -240.191 615.76C-233.087 600.677 -228.5 584.272 -226.516 567.056C-219.583 506.853 -255.06 461.989 -283.583 425.957C-305.727 397.968 -324.842 373.797 -318.186 351.824C-310.783 327.44 -291.156 314.683 -275.583 314.683C-268.82 314.683 -263.295 317.008 -259.156 321.616C-252.202 329.36 -249.471 343.483 -251.412 361.36C-257.812 419.877 -256.682 502.821 -173.119 547.387C-146.687 561.488 -119.38 568.336 -89.6629 568.336C-52.3936 568.336 -18.8149 557.52 10.8171 547.963C32.7051 540.901 51.585 534.821 66.6464 534.821C78.6784 534.821 91.1797 538.171 101.185 562.448C124.63 619.408 101.91 667.067 86.2944 690.405C66.6464 719.76 33.5157 743.632 12.4811 743.632C6.84907 743.632 2.28372 741.989 -1.12961 738.725C-25.2149 715.685 -47.6149 701.029 -71.6576 692.603C-92.3509 685.371 -115.156 682.277 -147.924 682.277C-183.274 682.277 -220.074 687.995 -251.54 698.384C-289.002 710.757 -313.002 711.717 -319.466 711.717C-322.516 711.717 -324.927 711.525 -326.228 711.184C-328.191 710.672 -329.236 710.053 -329.364 709.328C-329.642 707.472 -324.436 704.251 -317.247 699.771L-317.226 699.813Z" fill="white"/>
<path d="M-16.8906 637.444C-14.5653 638.383 -13.1999 639.151 -11.4719 640.111C-10.7893 640.495 -10.0639 640.9 -9.18924 641.369C-0.399911 646.084 6.96007 650.884 12.1227 655.236C15.0454 657.711 17.4347 658.905 19.4187 658.905C22.3414 658.905 24.048 656.431 25.4347 654.084C30.5974 645.295 32.4108 638.511 34.5441 626.607C34.8001 625.156 34.8427 623.108 33.6267 621.657C32.0907 619.823 29.04 619.503 24.56 620.74C11.0347 624.495 1.9254 626.201 -9.61594 628.399C-11.6426 628.783 -13.712 629.167 -15.9093 629.593C-18.128 630.02 -19.8132 631.599 -19.9839 633.412C-20.0692 634.223 -19.9199 636.228 -16.8693 637.444H-16.8906ZM-15.6959 630.809C-13.5199 630.383 -11.4293 629.999 -9.42394 629.615C2.13872 627.417 11.2907 625.689 24.8587 621.935C26.5441 621.465 27.9948 621.231 29.2108 621.231C30.8108 621.231 31.9841 621.636 32.6454 622.447C33.5627 623.535 33.4987 625.199 33.2854 626.393C31.1947 638.127 29.4027 644.825 24.3254 653.465C22.8321 655.983 21.4241 657.668 19.3761 657.668C17.6907 657.668 15.5574 656.559 12.8694 654.297C7.64275 649.881 0.197423 645.039 -8.65591 640.281C-9.50924 639.812 -10.2559 639.407 -10.9172 639.023C-12.6879 638.041 -14.0746 637.252 -16.4853 636.292C-18.0853 635.652 -18.9386 634.628 -18.832 633.519C-18.704 632.26 -17.4026 631.108 -15.7386 630.788L-15.6959 630.809Z" fill="white"/>
<path d="M-212.873 660.4C-210.91 660.4 -208.5 660.229 -205.492 659.888C-204.19 659.739 -173.236 656.283 -140.02 656.283C-127.07 656.283 -115.529 656.816 -105.716 657.883C-56.6704 663.152 -14.217 686.555 6.0923 707.397C9.82564 711.237 14.2842 713.179 19.3616 713.179C30.7322 713.179 44.7269 703.28 57.7829 686.043C80.6523 655.835 87.5642 598 76.2362 575.237C73.2282 569.2 69.0256 566 64.0763 566C63.671 566 63.2443 566 62.8176 566.064C53.8576 566.981 41.3989 570.629 25.6549 575.259C-3.84906 583.92 -44.2544 595.76 -88.0731 596.464C-125.513 597.083 -168.308 582.256 -182.857 575.173C-187.614 572.848 -190.686 571.824 -192.82 571.824C-197.172 571.824 -197.342 575.941 -197.662 582.789C-197.918 588.229 -198.238 595.675 -200.905 604.165C-205.726 619.611 -211.188 631.323 -215.177 639.877C-219.593 649.371 -222.281 655.088 -220.382 658.075C-219.337 659.717 -217.012 660.443 -212.873 660.443V660.4ZM-214.601 640.112C-210.612 631.536 -205.129 619.803 -200.308 604.315C-197.641 595.739 -197.3 588.229 -197.044 582.768C-196.745 576.091 -196.574 572.421 -192.841 572.421C-190.836 572.421 -187.764 573.467 -183.156 575.707C-168.841 582.683 -127.305 597.083 -90.2704 597.083C-89.5451 597.083 -88.7984 597.083 -88.0731 597.083C-44.1691 596.379 -3.72103 584.517 25.8256 575.835C41.5483 571.227 53.9643 567.579 62.8816 566.661C68.1723 566.128 72.4816 569.093 75.6389 575.472C86.8816 598.085 79.9909 655.557 57.2496 685.595C44.3216 702.683 30.4976 712.475 19.3403 712.475C14.455 712.475 10.1456 710.597 6.54029 706.885C-13.8544 685.957 -56.4357 662.491 -105.652 657.2C-115.486 656.133 -127.049 655.6 -140.02 655.6C-173.257 655.6 -204.254 659.077 -205.556 659.205C-208.542 659.547 -210.932 659.717 -212.873 659.717C-216.734 659.717 -218.953 659.056 -219.849 657.648C-221.556 654.981 -218.932 649.371 -214.601 640.069V640.112Z" fill="white"/>
<path d="M-260.373 684.384C-258.389 684.384 -255.851 683.872 -253.205 682.955C-223.339 672.587 -188.693 667.552 -147.285 667.552C-95.7227 667.552 -44.6294 672.267 13.4186 729.355C15.0826 730.997 17.28 731.829 19.9253 731.829C36.16 731.829 66.1546 700.725 75.0506 681.973C75.8613 680.267 76.7359 678.453 77.6746 676.555C89.0026 653.344 107.947 614.475 88.576 567.456C80.832 548.661 73.6213 548.661 67.2426 548.661C54.4426 548.661 36.5226 554.443 15.7866 561.12C-14.8267 570.997 -49.5361 582.176 -89.0454 582.176C-122.859 582.176 -150.208 575.968 -177.771 562.037C-182.037 559.883 -186.133 557.515 -189.76 555.445C-197.013 551.285 -202.731 548 -206.421 548C-209.301 548 -210.709 550.005 -210.773 554.144C-210.773 554.805 -210.688 555.851 -210.539 557.323C-206.592 597.813 -222.272 635.616 -257.131 669.685C-263.211 675.637 -265.792 679.904 -264.789 682.379C-264.256 683.701 -262.72 684.384 -260.373 684.384ZM-256.683 670.133C-234.261 648.224 -219.563 624.459 -213.013 599.477C-207.744 579.403 -209.259 563.872 -209.899 557.259C-210.048 555.808 -210.133 554.763 -210.133 554.144C-210.069 549.216 -207.979 548.64 -206.421 548.64C-202.901 548.64 -196.949 552.053 -190.08 556C-186.453 558.091 -182.336 560.437 -178.048 562.613C-150.4 576.587 -122.965 582.837 -89.0454 582.837C-49.4294 582.837 -14.6774 571.637 16 561.739C36.6933 555.061 54.5706 549.301 67.264 549.301C73.4293 549.301 80.4267 549.301 88 567.691C107.243 614.432 88.384 653.131 77.0986 676.256C76.16 678.176 75.2853 679.968 74.4746 681.696C65.6426 700.32 35.9466 731.189 19.9253 731.189C17.4506 731.189 15.4026 730.421 13.8666 728.907C-13.0987 702.389 -41.024 685.024 -71.4667 675.808C-98.6027 667.595 -123.797 666.912 -147.285 666.912C-188.757 666.912 -223.467 671.968 -253.419 682.357C-256 683.253 -258.475 683.744 -260.373 683.744C-261.824 683.744 -263.659 683.467 -264.192 682.144C-264.704 680.907 -264.405 677.685 -256.683 670.155V670.133Z" fill="white"/>
<path d="M111.536 -8.97867C94.8536 -8.97867 76.379 -5.82134 56.795 -2.49334C33.4137 1.496 9.24298 5.61333 -17.1037 5.61333C-19.045 5.61333 -20.965 5.592 -22.7784 5.54933C-24.357 5.50667 -25.893 5.464 -27.429 5.42133C-31.4183 5.31466 -35.173 5.208 -38.7997 5.208C-61.4984 5.208 -75.557 9.83733 -84.8157 34.2213C-90.661 49.6453 -97.317 67.1173 -113.232 78.4027C-117.733 81.6027 -122.234 84.312 -126.224 86.7227C-135.44 92.2907 -142.714 96.6853 -142.992 102.765C-143.248 108.355 -137.594 115.075 -124.688 124.547C-112.293 133.635 -102.117 138.051 -93.541 138.051C-92.773 138.051 -91.9837 138.008 -91.237 137.944C-78.7783 136.792 -70.4157 126.488 -59.8343 113.453C-55.0343 107.523 -49.573 100.824 -43.173 94.424C-15.461 66.712 18.587 46.5093 55.2803 35.992C70.7683 31.5547 86.0643 29.2933 100.763 29.2933C137.072 29.2933 165.062 42.4133 188.23 57.6027V56.8347C165.062 41.7093 137.051 28.6533 100.763 28.6533C86.0003 28.6533 70.6403 30.9147 55.1097 35.3733C18.3097 45.9333 -15.845 66.2 -43.621 93.976C-50.0423 100.397 -55.5037 107.117 -60.325 113.048C-70.7997 125.955 -79.0983 136.173 -91.2797 137.304C-92.0263 137.368 -92.773 137.411 -93.5197 137.411C-101.946 137.411 -112.016 133.037 -124.304 124.035C-137.018 114.691 -142.586 108.141 -142.352 102.808C-142.096 97.0693 -134.949 92.76 -125.882 87.2773C-121.893 84.8667 -117.37 82.136 -112.848 78.936C-96.7624 67.544 -90.085 49.9653 -84.197 34.456C-75.0664 10.4133 -61.1997 5.848 -38.7784 5.848C-35.1517 5.848 -31.397 5.95467 -27.429 6.06134C-25.9143 6.104 -24.357 6.14666 -22.7784 6.18933C-20.9437 6.232 -19.045 6.25333 -17.0823 6.25333C9.307 6.25333 33.5203 2.11467 56.923 -1.87467C76.4643 -5.20267 94.939 -8.36 111.558 -8.36C121.2 -8.36 129.606 -7.29334 137.307 -5.096C153.84 -0.381338 170.779 7.36267 188.251 16.408V15.6827C170.843 6.70132 153.968 -0.999998 137.478 -5.71466C129.734 -7.93333 121.243 -9 111.558 -9L111.536 -8.97867Z" fill="white"/>
<path d="M14.5051 479.317C16.0197 481.515 19.7531 482.453 26.9424 482.453C31.4438 482.453 36.7984 482.091 43.0064 481.685C50.6864 481.173 59.4117 480.597 68.4144 480.597C96.937 480.597 116.18 486.656 129.001 499.712C140.926 508.885 147.497 523.84 153.3 537.045C160.361 553.088 166.441 566.933 179.902 566.933C181.332 566.933 182.846 566.763 184.382 566.443C185.406 566.229 186.494 565.952 187.625 565.611V564.501C186.43 564.885 185.257 565.184 184.169 565.419C182.697 565.717 181.246 565.888 179.902 565.888C167.145 565.888 161.193 552.341 154.281 536.64C148.414 523.328 141.78 508.245 129.705 498.944C116.713 485.717 97.2357 479.552 68.4144 479.552C59.369 479.552 50.6437 480.128 42.9211 480.64C36.7344 481.045 31.3798 481.408 26.9211 481.408C20.3078 481.408 16.6384 480.555 15.3797 478.741C14.6971 477.739 14.6758 476.395 15.3371 474.603C28.9051 438.315 40.2757 392.384 39.1664 378.24C37.2464 353.472 26.3664 330.069 15.8277 307.435C2.94239 279.765 -9.2176 253.632 -1.49493 231.829C9.25707 201.536 58.3237 148.949 84.8837 145.323C86.1637 145.152 87.5931 145.067 89.1291 145.067C109.822 145.067 146.281 159.893 187.604 184.384V183.147C146.324 158.741 109.886 144 89.1291 144C87.5291 144 86.0571 144.085 84.7344 144.277C57.8758 147.947 8.31838 200.96 -2.51895 231.488C-10.391 253.696 1.85439 280.021 14.8251 307.904C25.3211 330.453 36.1584 353.749 38.0784 378.325C39.0384 390.72 28.8624 435.307 14.3131 474.219C13.5237 476.352 13.5664 478.037 14.4624 479.339L14.5051 479.317Z" fill="white"/>
<path d="M115.999 817.915C114.783 817.915 112.714 818.043 110.111 818.213C105.716 818.491 99.7003 818.875 93.727 818.875C78.9003 818.875 71.1349 816.443 70.6443 811.621C69.8976 804.389 87.0923 793.637 98.463 786.533C102.986 783.696 106.89 781.264 108.703 779.685C122.868 767.269 135.946 751.803 147.572 733.712C155.274 721.723 160.948 708.816 166.943 695.141C171.466 684.859 178.634 674.171 187.999 666.789V666C178.356 673.467 170.975 684.368 166.367 694.885C160.372 708.539 154.719 721.424 147.039 733.371C135.434 751.419 122.399 766.821 108.298 779.195C106.527 780.752 102.644 783.184 98.143 786C85.9403 793.616 69.2576 804.069 70.0256 811.685C70.5589 816.955 78.3242 819.515 93.7482 819.515C99.7429 819.515 105.78 819.131 110.175 818.832C112.778 818.661 114.826 818.533 116.02 818.533C138.463 818.533 158.431 822.139 176.479 829.435H178.207C159.69 821.691 139.167 817.893 116.02 817.893L115.999 817.915Z" fill="white"/>
<path d="M111.194 5.02134C95.7697 5.02134 77.8711 8.07201 58.9271 11.2933C34.9484 15.3893 10.1378 19.6133 -17.4462 19.6133C-19.4729 19.6133 -21.4783 19.592 -23.4623 19.5493L-28.1556 19.4213C-32.0382 19.3147 -35.6863 19.208 -39.1209 19.208C-69.0089 19.208 -70.4809 35.6347 -72.0596 53.0213C-72.9129 62.5573 -73.8089 72.4347 -79.0569 80.8187C-80.9343 83.8053 -85.9689 87.6027 -91.3236 91.6133C-102.694 100.147 -115.58 109.832 -109.393 118.899C-106.726 122.803 -103.526 124.765 -99.8783 124.765C-97.8729 124.765 -95.6969 124.168 -93.4356 122.995C-83.3449 117.789 -72.5716 102.387 -63.9102 90.0133C-59.0036 82.9947 -54.7582 76.936 -52.4329 75.528C-50.0009 74.0773 -47.2703 73.8853 -44.9449 73.8853C-44.0489 73.8853 -43.1315 73.928 -42.2142 73.9493C-41.2755 73.992 -40.3369 74.0133 -39.4196 74.0133C-35.8996 74.0133 -32.1876 73.5867 -28.8382 70.536C-24.8062 66.8667 -24.2943 62.088 -23.8036 57.48C-23.3556 53.3413 -22.9503 49.4373 -20.1983 46.1307C-11.8783 36.1893 17.3057 29.2347 36.6124 24.648C42.2871 23.304 47.1937 22.1307 50.8631 21.0853C67.6524 16.264 84.3351 13.832 100.399 13.832C136.068 13.832 164.591 25.5227 187.866 39.5173V38.2587C164.57 24.3493 136.047 12.7653 100.399 12.7653C84.2284 12.7653 67.4604 15.2187 50.5644 20.0613C46.9378 21.1067 42.0311 22.28 36.3564 23.624C15.7484 28.5307 -12.4756 35.2507 -21.0089 45.4693C-23.9743 49.0107 -24.4223 53.2773 -24.8703 57.3947C-25.3609 62.0027 -25.8302 66.3547 -29.5636 69.768C-32.6569 72.584 -36.1342 72.968 -39.4196 72.968C-40.3369 72.968 -41.2756 72.9253 -42.1929 72.904C-43.1103 72.8613 -44.0489 72.84 -44.9662 72.84C-47.4409 72.84 -50.3423 73.0533 -53.0089 74.632C-55.5263 76.1467 -59.6222 81.992 -64.8276 89.416C-72.9769 101.043 -84.1129 116.979 -93.9689 122.056C-99.9849 125.149 -104.721 123.933 -108.582 118.301C-114.193 110.088 -101.734 100.723 -90.7476 92.4667C-85.0942 88.2213 -80.2089 84.552 -78.2249 81.3947C-72.8276 72.7973 -71.9316 62.792 -71.0569 53.128C-69.4783 35.5067 -68.0916 20.2747 -39.1849 20.2747C-35.7502 20.2747 -32.1022 20.3813 -28.2409 20.488L-23.5475 20.616C-21.5422 20.6587 -19.5369 20.68 -17.5102 20.68C10.1804 20.68 35.0124 16.4347 59.0551 12.3387C77.9564 9.11734 95.7911 6.06667 111.13 6.06667C119.343 6.06667 126.404 6.94134 132.719 8.75467C150.148 13.7253 168.559 22.5787 187.823 32.7973V31.5813C168.687 21.448 150.383 12.68 133.018 7.73066C126.596 5.896 119.428 5 111.13 5L111.194 5.02134Z" fill="white"/>
<path d="M47.5227 452.373C51.4907 458.069 59.8747 458.709 71.4587 459.605C72.7173 459.712 74.0187 459.797 75.3413 459.904C79.0107 460.203 82.8506 460.331 86.904 460.48C105.763 461.12 127.139 461.867 146.445 479.445L146.68 479.659C157.389 489.024 163.747 505.536 169.379 520.107C175.032 534.784 179.939 547.456 187.704 547.456C187.939 547.456 188.195 547.413 188.429 547.392V546.752C188.195 546.773 187.939 546.837 187.704 546.837C180.365 546.837 175.565 534.357 169.976 519.893C164.323 505.259 157.923 488.661 147.107 479.189L146.872 478.976C127.395 461.248 105.891 460.501 86.9253 459.861C82.872 459.712 79.032 459.584 75.384 459.285C74.0613 459.179 72.76 459.072 71.5013 458.987C60.088 458.112 51.832 457.472 48.0346 452.032C44.4506 446.869 44.9413 437.184 49.6773 420.672C54.0507 405.376 55.6933 391.403 54.648 377.963C52.5147 350.549 41.0587 325.931 29.9867 302.101C18.424 277.227 7.48 253.739 13.1973 237.611C22.712 210.752 68.664 163.349 87.6933 160.768C88.12 160.704 88.8453 160.64 89.9546 160.64C105.848 160.64 141.816 173.867 188.429 202.432V201.685C141.837 173.205 105.891 160 89.9546 160C88.824 160 88.056 160.064 87.608 160.128C68.4293 162.752 22.1573 210.411 12.6 237.397C6.79734 253.781 17.784 277.376 29.4107 302.379C40.4613 326.144 51.896 350.699 54.008 378.005C55.0533 391.381 53.432 405.291 49.0587 420.501C44.1947 437.44 43.7253 446.997 47.5013 452.416L47.5227 452.373Z" fill="white"/>
<path d="M-147.275 30.9333C-154.507 36.032 -164.406 38.528 -177.547 38.528C-192.971 38.528 -210.251 35.072 -225.462 32.0213C-234.443 30.2293 -242.913 28.5227 -249.846 27.7973C-253.238 27.4347 -262.347 26.6027 -273.569 26.6027C-294.347 26.6027 -321.014 29.4187 -329.953 42.8373C-333.857 48.6613 -334.006 56 -330.422 64.6186C-328.737 68.672 -324.385 70.8693 -320.182 73.0027C-316.854 74.688 -313.419 76.416 -311.499 79.0186C-309.238 82.0906 -307.894 86.4 -306.614 90.5813C-304.886 96.128 -303.115 101.867 -299.083 105.259C-294.07 109.461 -288.587 111.424 -281.782 111.424C-277.067 111.424 -272.246 110.464 -267.595 109.547C-262.987 108.629 -258.23 107.691 -253.622 107.691C-249.014 107.691 -245.366 108.565 -241.867 110.357C-233.398 114.731 -229.814 120.619 -226.379 126.293C-221.878 133.717 -217.633 140.715 -203.638 144C-174.347 150.848 -166.305 158.016 -146.913 175.317C-144.417 177.557 -141.729 179.947 -138.785 182.528C-131.809 188.651 -126.646 195.648 -121.654 202.411C-117.217 208.448 -112.609 214.677 -106.678 220.395C-99.4032 227.413 -92.5339 230.528 -85.8992 233.536C-77.0672 237.547 -68.7046 241.344 -61.1313 254.357L-59.9579 256.405C-50.4219 272.875 -40.8005 288.128 -34.8699 288.128C-33.9099 288.128 -33.0992 287.765 -32.4166 287.019C-30.2832 284.672 -29.7072 278.464 -30.6459 268.032C-31.2006 261.909 -35.6166 256.448 -39.9046 251.157C-44.5126 245.461 -48.8645 240.064 -48.6085 234.112C-48.2885 226.987 -43.9792 223.467 -39.4139 219.755C-36.0646 217.045 -32.6086 214.229 -30.5819 209.856C-25.7179 199.381 -24.5446 190.016 -23.3926 180.949C-21.8139 168.32 -20.3206 156.416 -9.01389 142.933C11.1888 118.805 39.5407 100.587 70.8154 91.6053C81.2261 88.6187 90.8687 87.168 100.277 87.168C132.234 87.168 155.146 104.555 179.423 122.944C182.175 125.035 184.949 127.125 187.743 129.216V127.36C185.247 125.483 182.773 123.627 180.319 121.771C155.85 103.211 132.725 85.696 100.277 85.696C90.7194 85.696 80.9488 87.168 70.3888 90.1973C38.8368 99.2427 10.2287 117.632 -10.1873 141.995C-21.7713 155.819 -23.2859 167.936 -24.9072 180.779C-26.0379 189.739 -27.1899 198.997 -31.9686 209.237C-33.8459 213.291 -37.1739 215.979 -40.3739 218.603C-45.0032 222.357 -49.7819 226.261 -50.1233 234.069C-50.4006 240.576 -45.6646 246.443 -41.0992 252.117C-36.9606 257.237 -32.6939 262.528 -32.1819 268.181C-31.0726 280.469 -32.3099 284.672 -33.5686 286.016C-33.9526 286.443 -34.3792 286.635 -34.9126 286.635C-40.7792 286.635 -53.3446 264.917 -58.6992 255.659L-59.8939 253.611C-67.7019 240.192 -76.2779 236.309 -85.3233 232.171C-91.8513 229.205 -98.5925 226.133 -105.675 219.307C-111.499 213.696 -116.065 207.509 -120.481 201.515C-125.515 194.688 -130.721 187.627 -137.825 181.397C-140.769 178.816 -143.457 176.427 -145.953 174.187C-165.558 156.693 -173.665 149.461 -203.339 142.528C-216.737 139.392 -220.833 132.651 -225.142 125.504C-228.705 119.637 -232.374 113.579 -241.227 109.013C-244.939 107.093 -248.993 106.176 -253.665 106.176C-258.337 106.176 -263.243 107.136 -267.915 108.053C-272.502 108.971 -277.259 109.888 -281.825 109.888C-288.246 109.888 -293.43 108.032 -298.166 104.064C-301.857 100.949 -303.585 95.424 -305.227 90.0693C-306.55 85.7813 -307.937 81.344 -310.347 78.0586C-312.459 75.1786 -316.065 73.3653 -319.542 71.5947C-323.681 69.504 -327.606 67.52 -329.078 63.9787C-332.449 55.8507 -332.342 48.9813 -328.737 43.584C-320.139 30.72 -294.006 28.0107 -273.59 28.0107C-262.433 28.0107 -253.409 28.8427 -250.038 29.2053C-243.19 29.9307 -234.742 31.6373 -225.803 33.408C-210.507 36.48 -193.163 39.936 -177.59 39.936C-164.129 39.936 -153.953 37.3547 -146.465 32.064C-127.798 18.8587 -133.153 -1.04533 -138.337 -20.288C-143.862 -40.8533 -149.579 -62.1227 -126.582 -75.9893C-123.83 -77.6533 -120.139 -78.5067 -115.638 -78.5067C-101.878 -78.5067 -82.5072 -70.9973 -63.7766 -63.7227C-47.4566 -57.3867 -32.0539 -51.4133 -22.0272 -51.1787C-20.5766 -51.136 -19.1472 -51.136 -17.6966 -51.136C3.8501 -51.136 25.6314 -54.848 46.7088 -58.4533C67.7434 -62.0373 89.4821 -65.7493 110.943 -65.7493C125.962 -65.7493 139.53 -63.9573 152.394 -60.288C164.298 -56.896 176.031 -52.3947 187.637 -47.2747V-48.896C176.181 -53.952 164.575 -58.368 152.799 -61.7173C139.786 -65.4293 126.09 -67.2427 110.943 -67.2427C89.3541 -67.2427 67.5301 -63.5307 46.4528 -59.9253C25.4394 -56.3413 3.7221 -52.6293 -17.6966 -52.6293C-19.1472 -52.5867 -20.5552 -52.6293 -22.0059 -52.672C-31.7765 -52.9067 -47.0512 -58.8373 -63.2432 -65.1093C-82.1019 -72.4267 -101.601 -80 -115.638 -80C-120.502 -80 -124.321 -79.104 -127.371 -77.2693C-151.329 -62.8053 -145.462 -41.0027 -139.787 -19.904C-134.518 -0.277334 -129.526 18.24 -147.339 30.848L-147.275 30.9333Z" fill="white"/>
</g>
<g clip-path="url(#clip2_593_156292)">
<path d="M582.965 662.512C572.128 646.853 543.669 639.728 521.803 639.728C515.061 639.728 508.832 640.347 503.221 641.541C482.656 645.979 465.099 649.947 449.611 653.467C408.139 662.875 383.115 668.571 362.315 668.571C344.992 668.571 330.144 664.709 309.365 654.789C287.669 644.421 271.733 634.565 258.955 626.629C238.88 614.192 225.632 606 207.499 606C201.568 606 195.168 606.917 188 608.795V610.331C195.189 608.432 201.589 607.515 207.499 607.515C225.227 607.515 238.325 615.643 258.165 627.931C270.987 635.867 286.944 645.765 308.725 656.155C329.739 666.181 344.757 670.085 362.315 670.085C383.285 670.085 408.373 664.389 449.931 654.96C465.419 651.44 482.955 647.472 503.52 643.035C509.003 641.861 515.147 641.264 521.781 641.264C543.285 641.264 571.211 648.197 581.728 663.408C586.357 670.128 587.125 677.744 583.989 686.085C577.717 702.725 548.384 717.403 522.485 730.373C506.848 738.203 492.064 745.605 484.469 752.475C462.261 772.549 467.595 799.771 476.597 829.104H478.155C469.216 800.069 463.819 773.168 485.451 753.584C492.896 746.843 507.595 739.504 523.147 731.717C549.28 718.64 578.891 703.792 585.376 686.619C588.704 677.808 587.893 669.701 582.965 662.576V662.512Z" fill="white"/>
<path d="M194.805 491.981C197.835 426.189 239.776 378.211 273.483 339.661L275.872 336.931C279.776 332.813 288.8 321.805 288.096 308.515C287.669 300.429 283.659 293.091 276.192 286.733C271.712 282.915 267.573 279.373 263.627 275.981C246.197 261.005 232.416 249.187 211.04 234.36C203.232 228.941 195.531 223.821 188.043 219V219.768C195.424 224.525 202.997 229.56 210.677 234.893C232.032 249.699 245.792 261.517 263.2 276.472C267.147 279.864 271.285 283.427 275.765 287.224C283.104 293.453 287.029 300.621 287.456 308.536C288.16 321.592 279.264 332.429 275.403 336.504L272.992 339.256C239.221 377.869 197.195 425.933 194.144 491.96C193.824 499 191.093 503.288 188 504.76V505.528C191.328 504.163 194.421 499.811 194.784 492.003L194.805 491.981Z" fill="white"/>
<path d="M209.696 492.115C212.491 431.528 252.533 385.747 284.704 348.947L287.115 346.195C293.877 338.472 299.339 331.603 303.392 325.843C308.405 318.675 317.707 305.341 295.712 284.115C271.989 261.203 246.347 240.168 219.531 221.565C208.587 213.971 198.069 207.144 188.021 201V201.747C197.963 207.827 208.352 214.589 219.168 222.077C245.963 240.659 271.563 261.693 295.264 284.563C316.875 305.427 307.765 318.461 302.859 325.459C298.827 331.219 293.365 338.045 286.624 345.768L284.213 348.52C251.979 385.384 211.851 431.272 209.056 492.072C207.755 520.275 202.741 536.68 193.291 543.72C191.413 545.107 189.643 545.875 188 546.045V546.685C189.792 546.515 191.669 545.725 193.675 544.232C203.296 537.085 208.373 520.509 209.696 492.093V492.115Z" fill="white"/>
<path d="M470.091 59.0533C465.952 42.6907 432.501 38.296 393.76 33.24C384.181 31.9813 374.283 30.7013 364.683 29.1653C322.208 22.4667 283.339 1.15466 245.749 -19.4747C226.933 -29.8 207.691 -40.3387 188 -49V-47.3787C207.413 -38.7813 226.421 -28.3707 245.024 -18.152C282.72 2.52 321.717 23.9173 364.448 30.6587C374.091 32.1733 383.989 33.4747 393.568 34.7333C430.176 39.5333 464.736 44.056 468.64 59.4373C471.669 71.4267 456.053 89.624 420.896 115.053C371.552 150.744 330.165 167.363 290.613 167.363C268.128 167.363 245.856 161.773 224.373 150.787C210.997 143.939 199.243 135.619 188.021 127.213V129.069C199.029 137.283 210.592 145.389 223.712 152.109C245.408 163.224 267.915 168.856 290.635 168.856C330.507 168.856 372.192 152.152 421.792 116.269C458.016 90.072 473.355 71.9173 470.112 59.0747L470.091 59.0533Z" fill="white"/>
<path d="M193.547 395.44C199.285 385.328 206.752 376.155 213.963 367.28C224.352 354.48 235.104 341.253 240.885 324.997C251.083 296.325 231.093 283.099 209.909 269.061C207.947 267.76 205.984 266.459 204.021 265.136C200.523 262.768 197.237 260.549 193.995 258.288C192.395 257.179 190.432 255.771 188 254V254.789C190.24 256.432 192.117 257.776 193.632 258.821C196.875 261.083 200.181 263.301 203.68 265.669C205.643 266.992 207.605 268.293 209.547 269.595C230.496 283.483 250.293 296.581 240.267 324.784C234.507 340.933 223.797 354.117 213.429 366.875C206.197 375.771 198.731 384.965 192.971 395.12C191.243 398.171 189.664 402.117 188 406.32V408.048C188.171 407.621 188.341 407.173 188.512 406.747C190.197 402.501 191.797 398.491 193.525 395.44H193.547Z" fill="white"/>
<path d="M455.477 711.275C458.933 709.099 462.923 708.821 466.357 708.821C467.979 708.821 469.621 708.885 471.349 708.971C473.077 709.056 474.848 709.141 476.619 709.141C480.587 709.141 485.771 708.757 490.464 705.856C502.581 698.347 506.613 689.621 505.205 684.715C504.288 681.472 501.131 679.595 496.565 679.595C492.491 679.595 487.328 681.045 481.611 683.819C477.963 685.589 474.677 688.725 471.499 691.797C467.659 695.488 463.691 699.307 459.125 700.544C457.717 700.928 456.331 701.12 454.88 701.12C452 701.12 449.419 700.373 446.688 699.605C443.979 698.837 441.205 698.027 438.133 698.027C437.067 698.027 436 698.133 434.933 698.325C429.515 699.328 425.824 702.763 422.24 706.091C419.253 708.864 416.181 711.723 412.128 713.131C407.541 714.731 401.312 715.52 393.099 715.52C382.432 715.52 370.613 714.176 361.099 713.109C358.368 712.789 355.829 712.512 353.568 712.277C333.835 710.293 313.291 704.107 290.805 693.376C266.997 682.005 249.973 671.467 236.277 662.976C228.811 658.347 221.152 656 213.557 656C203.893 656 195.317 659.669 188 665.323V666.112C195.275 660.373 203.872 656.64 213.557 656.64C221.045 656.64 228.576 658.944 235.957 663.531C249.653 672.021 266.699 682.581 290.549 693.952C313.099 704.725 333.707 710.933 353.504 712.917C355.765 713.152 358.304 713.429 361.035 713.749C370.549 714.837 382.411 716.16 393.099 716.16C401.376 716.16 407.669 715.371 412.32 713.749C416.501 712.299 419.637 709.376 422.667 706.56C426.336 703.147 429.813 699.925 435.04 698.944C436.064 698.752 437.067 698.667 438.112 698.667C441.099 698.667 443.851 699.456 446.496 700.224C449.141 700.992 451.893 701.781 454.88 701.781C456.373 701.781 457.824 701.589 459.296 701.184C464.011 699.883 468.043 696.021 471.947 692.288C475.083 689.28 478.347 686.144 481.909 684.437C487.541 681.728 492.619 680.277 496.587 680.277C500.917 680.277 503.755 681.92 504.608 684.928C505.952 689.621 501.984 698.027 490.144 705.365C485.579 708.203 480.523 708.565 476.619 708.565C474.869 708.565 473.099 708.48 471.392 708.395C469.728 708.309 468.021 708.245 466.379 708.245C462.837 708.245 458.741 708.544 455.157 710.805C451.211 713.28 448.203 719.552 445.301 725.632C443.552 729.301 441.888 732.757 440.139 735.147C425.547 755.029 424.651 776.448 427.808 802.475C428.896 811.413 430.709 820.224 432.885 828.821H433.547C431.349 820.203 429.515 811.371 428.427 802.411C425.291 776.533 426.165 755.264 440.651 735.552C442.443 733.099 444.107 729.621 445.877 725.931C448.736 719.957 451.701 713.771 455.499 711.381L455.477 711.275Z" fill="white"/>
<path d="M245.685 348.917C246.645 347.787 247.605 346.635 248.587 345.483C262.325 329.333 276.512 312.629 260.384 292.661C247.904 277.216 229.067 264.48 212.427 253.237C208.992 250.912 205.728 248.715 202.528 246.496C200.373 245.003 197.472 242.869 194.08 240.416C192.224 239.072 190.197 237.579 188.021 236V236.789C190.048 238.261 191.968 239.648 193.696 240.928C197.067 243.403 199.989 245.515 202.144 247.008C205.344 249.227 208.608 251.424 212.043 253.771C228.619 264.992 247.435 277.707 259.851 293.067C275.659 312.629 261.621 329.12 248.075 345.077C247.093 346.229 246.133 347.36 245.173 348.512C233.248 362.72 218.016 381.749 205.963 402.955C198.645 415.819 192.629 429.344 188 443.211V445.301C192.672 430.795 198.88 416.672 206.517 403.253C218.549 382.112 233.76 363.104 245.664 348.917H245.685Z" fill="white"/>
<path d="M233.568 133.229C249.781 141.528 263.563 145.411 276.917 145.411C290.272 145.411 303.349 141.208 317.749 136.344C325.92 133.592 335.179 130.456 345.675 127.811C351.008 126.467 355.637 126.317 358.667 126.317C360.693 126.317 362.656 126.403 364.533 126.467C366.325 126.531 368.011 126.616 369.675 126.616C378.315 126.616 385.205 124.568 392.736 114.392C397.813 107.523 399.733 102.211 401.397 97.5387C403.915 90.5413 405.899 85.016 416.949 77.1013C419.787 75.0747 423.84 73.4747 427.787 71.9387C434.101 69.4427 439.563 67.3093 439.797 63.6613C439.989 60.7173 436.555 57.432 428.981 53.3147C419.936 48.408 407.008 47.7467 395.552 47.7467C390.453 47.7467 385.077 47.896 379.893 48.0453C374.688 48.1947 369.291 48.3653 364.149 48.3653C352.651 48.3653 344.608 47.576 338.037 45.784C300.917 35.6933 266.101 16.6213 235.381 -0.232C219.253 -9.064 203.616 -17.64 188 -25V-23.8267C203.445 -16.5307 218.912 -8.03999 234.869 0.706672C265.632 17.5813 300.491 36.696 337.76 46.808C344.416 48.6213 352.565 49.432 364.149 49.432C369.312 49.432 374.709 49.2827 379.936 49.112C385.12 48.9627 390.475 48.8133 395.552 48.8133C406.859 48.8133 419.616 49.4533 428.469 54.2533C435.424 58.0293 438.88 61.1867 438.731 63.5973C438.539 66.5627 433.12 68.696 427.403 70.936C423.413 72.5147 419.296 74.136 416.352 76.2267C405.024 84.3333 402.891 90.2853 400.416 97.176C398.752 101.784 396.875 107.011 391.883 113.752C384.608 123.565 377.995 125.549 369.675 125.549C368.032 125.549 366.347 125.485 364.576 125.4C362.677 125.315 360.715 125.251 358.667 125.251C355.573 125.251 350.859 125.4 345.419 126.765C334.88 129.411 325.6 132.547 317.408 135.32C303.093 140.163 290.741 144.344 276.917 144.344C263.093 144.344 250.101 140.504 234.037 132.291C219.36 124.76 206.155 114.755 193.376 105.069C191.605 103.725 189.835 102.381 188.043 101.037V102.381C189.621 103.555 191.179 104.749 192.736 105.923C205.536 115.629 218.784 125.677 233.547 133.229H233.568Z" fill="white"/>
<path d="M243.296 114.115C259.061 122.2 274.507 126.125 290.549 126.125C299.531 126.125 318.923 122.456 335.819 116.333C350.624 110.957 368.288 102.04 368.331 90.0507C368.373 75.928 341.109 68.0773 324.811 63.384C321.269 62.36 318.197 61.4853 316.171 60.7387C286.987 50.1573 258.016 36.8027 225.013 18.712C212.405 11.8 200.117 5.05867 188 -1V-0.274666C200.011 5.74133 212.213 12.4187 224.715 19.288C257.76 37.4 286.752 50.776 315.957 61.3573C318.027 62.104 321.099 62.9787 324.64 64.0027C340.768 68.632 367.755 76.3973 367.712 90.0507C367.648 110.787 309.195 125.485 290.571 125.485C274.635 125.485 259.275 121.581 243.616 113.539C230.581 106.861 218.123 97.4107 206.091 88.3013C200.267 83.8853 194.272 79.3413 188 74.9253V75.7147C194.123 80.0453 199.989 84.4827 205.707 88.8133C217.781 97.9653 230.24 107.416 243.339 114.115H243.296Z" fill="white"/>
<path d="M250.187 100.056C263.776 107.032 277.003 110.403 290.635 110.424C302.475 110.424 317.92 106.904 323.872 99.2027C326.453 95.8533 327.2 91.928 326.048 87.5333C323.339 77.1867 301.685 69.8693 285.856 64.536C280.736 62.808 276.32 61.3147 273.611 60.056C255.328 51.5653 237.237 41.6453 219.744 32.0667L217.803 31C207.691 25.4533 197.792 20.0347 188.043 15V15.7253C197.685 20.7173 207.477 26.072 217.483 31.576L219.424 32.6427C236.917 42.2427 255.029 52.1627 273.312 60.6533C276.064 61.9333 280.48 63.4267 285.621 65.1547C300.427 70.1467 322.784 77.6987 325.387 87.704C326.475 91.9067 325.792 95.64 323.339 98.8187C317.515 106.349 302.304 109.784 290.571 109.784C277.088 109.784 263.947 106.413 250.443 99.48C238.581 93.4 226.656 84.3547 215.115 75.608C206.773 69.2933 197.813 62.5093 188 56.1093V56.8773C197.664 63.2133 206.496 69.8907 214.731 76.1413C226.272 84.888 238.219 93.9547 250.144 100.056H250.187Z" fill="white"/>
<path d="M390.369 380.797C389.302 382.568 388.3 384.232 387.425 385.469C376.63 400.68 363.852 414.162 349.473 428.968C347.532 430.952 345.548 432.978 343.542 435.005C331.681 446.994 319.393 459.389 312.054 474.045C309.217 479.72 308.321 484.157 309.516 486.866C310.049 488.104 310.988 488.914 312.31 489.277C312.844 489.426 313.462 489.512 314.124 489.512C316.748 489.512 320.246 488.232 324.214 485.842C332.108 481.064 339.596 475.176 346.849 469.458C352.78 464.786 358.924 459.944 365.26 455.762C390.796 438.845 407.67 427.645 415.564 396.093C417.206 389.544 418.166 374.653 413.11 368.168C411.361 365.949 409.078 364.882 406.262 365.01C399.692 365.352 394.316 374.269 390.369 380.776V380.797ZM406.753 365.65C409.121 365.65 411.105 366.632 412.598 368.573C417.505 374.866 416.545 389.501 414.945 395.944C407.116 427.261 390.326 438.376 364.897 455.229C358.54 459.432 352.396 464.274 346.444 468.968C339.212 474.664 331.724 480.552 323.873 485.309C319.094 488.21 314.998 489.405 312.481 488.68C311.35 488.36 310.561 487.656 310.092 486.61C309.004 484.114 309.9 479.762 312.609 474.344C319.905 459.773 332.15 447.421 343.969 435.453C345.974 433.426 347.98 431.4 349.921 429.416C364.321 414.589 377.1 401.085 387.937 385.853C388.833 384.594 389.836 382.93 390.902 381.16C394.764 374.76 400.033 366.013 406.262 365.693C406.412 365.693 406.582 365.693 406.732 365.693L406.753 365.65Z" fill="white"/>
<path d="M256.885 87.3387C261.131 89.5147 273.099 93.4187 281.76 93.4187C284.853 93.4187 287.221 92.9067 288.779 91.8827C292.149 89.6853 293.643 87.6373 293.344 85.5893C292.661 81.088 282.869 78.3787 275.019 76.2027C271.776 75.3067 269.003 74.5173 267.403 73.792C248.672 65.1093 230.368 55.0613 212.661 45.3547L210.699 44.288C203.019 40.0853 195.467 35.9467 188.021 32V33.216C195.296 37.0773 202.677 41.1307 210.187 45.2267L212.149 46.2933C229.877 56.0213 248.203 66.0693 266.955 74.7733C268.619 75.5413 271.456 76.3307 274.72 77.248C281.888 79.232 291.68 81.9627 292.277 85.7813C292.512 87.3387 291.147 89.1093 288.181 91.008C286.795 91.904 284.64 92.352 281.739 92.352C273.355 92.352 261.387 88.4693 257.333 86.4C246.667 80.9387 235.296 72.32 224.267 63.9573C213.749 56 201.803 46.9333 188 38.6773V39.936C201.525 48.064 213.301 56.9813 223.648 64.832C234.677 73.1947 246.091 81.8347 256.843 87.36L256.885 87.3387Z" fill="white"/>
<path d="M224.821 493.483C227.381 438.187 265.483 394.603 296.096 359.595L298.507 356.843C334.923 315.157 333.451 300.608 316.363 283.755C297.632 265.28 268.107 237.504 228.149 209.792C214.517 200.341 201.013 191.701 188 184V185.237C200.821 192.832 214.112 201.365 227.531 210.667C267.424 238.336 296.907 266.069 315.616 284.523C332.213 300.885 333.557 315.115 297.717 356.16L295.307 358.912C264.587 394.048 226.336 437.781 223.776 493.461C221.365 545.707 201.696 561.067 188.021 565.355V566.464C202.016 562.197 222.389 546.773 224.843 493.504L224.821 493.483Z" fill="white"/>
<path d="M403.552 729.944C394.059 727.512 383.861 727.341 374.005 727.192C368.309 727.107 362.421 727.021 356.811 726.467C329.952 723.907 306.933 717.699 284.384 706.925C259.851 695.213 242.421 684.419 228.427 675.736C223.349 672.6 218.357 671 213.557 671C204.64 671 195.403 676.845 188 686.595V687.661C195.36 677.656 204.619 671.64 213.557 671.64C218.229 671.64 223.115 673.197 228.085 676.291C242.101 684.973 259.531 695.768 284.107 707.501C306.741 718.317 329.824 724.525 356.747 727.107C362.4 727.64 368.288 727.725 374.005 727.832C383.84 727.981 393.995 728.152 403.424 730.563C418.08 734.339 417.568 745.048 415.477 757.613C413.003 772.611 410.933 787.459 412.981 804.333C414.005 812.717 415.605 820.909 417.525 828.867H418.187C416.245 820.867 414.645 812.653 413.621 804.248C411.595 787.459 413.621 772.653 416.117 757.72C418.165 745.304 418.763 733.848 403.595 729.944H403.552Z" fill="white"/>
<path d="M402.99 345.629C393.625 347.933 385.454 360.904 378.862 371.314C376.558 374.962 374.382 378.397 372.484 380.85C361.902 394.525 349.956 406.834 338.393 418.717C335.385 421.81 331.588 425.33 327.598 429.042C315.694 440.072 300.889 453.81 296.388 466.376C292.612 476.936 294.83 487.026 296.985 496.754C298.756 504.754 300.59 513.032 299.14 521.608C298.244 526.941 295.022 532.189 291.588 537.736C287.492 544.392 283.268 551.261 283.012 558.664C282.926 561.181 283.31 563.656 284.164 566.045C286.98 573.96 289.924 577.629 293.422 577.629C296.921 577.629 300.654 574.024 306.244 565.213C311.577 556.786 313.668 547.037 315.694 537.608C317.721 528.136 319.833 518.344 325.209 509.874C335.449 493.746 353.497 481.842 369.412 471.368C370.756 470.493 372.078 469.597 373.401 468.744C399.833 451.229 420.718 437.384 430.041 400.114C432.516 390.258 431.854 365.128 421.828 352.285C416.964 346.034 410.564 343.773 403.012 345.629H402.99ZM420.974 352.925C429.956 364.445 431.748 388.786 428.996 399.837C419.78 436.701 399.044 450.44 372.804 467.826C371.502 468.701 370.158 469.576 368.814 470.45C352.793 480.989 334.638 492.957 324.292 509.277C318.809 517.917 316.697 527.794 314.628 537.373C312.622 546.717 310.553 556.381 305.326 564.637C301.593 570.525 297.262 576.562 293.422 576.562C290.478 576.562 287.79 573 285.166 565.682C284.356 563.4 283.993 561.096 284.078 558.685C284.334 551.581 288.473 544.818 292.505 538.29C295.982 532.637 299.268 527.304 300.185 521.778C301.678 512.989 299.822 504.605 298.03 496.52C295.812 486.472 293.7 477 297.39 466.717C301.806 454.408 316.505 440.776 328.324 429.81C332.334 426.077 336.132 422.578 339.161 419.442C350.745 407.517 362.713 395.186 373.337 381.469C375.278 378.973 377.454 375.496 379.78 371.848C386.265 361.608 394.308 348.85 403.246 346.632C404.868 346.226 406.446 346.034 407.94 346.034C413.017 346.034 417.412 348.338 420.974 352.904V352.925Z" fill="white"/>
<path d="M412.229 298.813C407.151 291.496 402.735 290.557 398.042 289.555C394.821 288.872 391.471 288.147 387.653 285.267L387.333 284.904C376.453 272.723 339.951 233 327.599 233C326.149 233 325.018 233.512 324.229 234.536C322.586 236.691 322.671 241.021 324.485 247.784C325.573 251.795 335.898 257.341 346.842 263.229C355.951 268.115 365.381 273.171 368.581 276.968C371.439 280.381 375.215 285.096 374.874 286.717C374.789 287.165 374.298 287.421 373.466 287.827C371.567 288.765 368.687 290.216 370.223 296.936C371.29 301.587 374.17 306.216 376.943 310.696C379.546 314.856 381.999 318.803 382.981 322.621C385.711 333.117 368.517 352.381 357.146 365.117C353.391 369.32 350.149 372.947 348.079 375.699C339.802 386.685 329.455 396.883 319.471 406.717C300.037 425.875 279.962 445.672 272.879 473C262.319 513.853 260.207 549.928 266.629 580.221C270.042 596.392 281.818 618.92 293.231 618.92C300.335 618.92 305.519 610.387 308.613 593.533C320.559 528.637 353.135 507.048 384.666 486.163C412.591 467.667 438.959 450.195 450.309 404.797C454.575 387.667 448.005 361.341 439.45 346.771C435.631 340.264 430.831 336.616 426.181 333.075C422.106 329.96 418.245 327.037 415.258 322.344C413.146 319.037 413.53 315.155 413.914 311.08C414.319 306.856 414.746 302.483 412.186 298.771L412.229 298.813ZM414.042 323.197C417.157 328.104 421.125 331.112 425.327 334.312C429.85 337.768 434.543 341.331 438.213 347.581C446.618 361.896 453.082 387.731 448.901 404.499C437.701 449.32 411.567 466.643 383.877 484.968C352.111 506.024 319.237 527.805 307.183 593.32C304.282 609.128 299.461 617.491 293.253 617.491C283.567 617.491 271.77 597.309 268.101 579.965C261.743 549.907 263.834 514.045 274.351 473.427C281.306 446.483 301.253 426.835 320.538 407.827C330.565 397.949 340.933 387.731 349.295 376.637C351.322 373.949 354.543 370.344 358.277 366.163C370.565 352.403 387.375 333.544 384.431 322.301C383.365 318.248 380.869 314.237 378.202 309.971C375.471 305.597 372.677 301.096 371.674 296.68C370.394 291.091 372.378 290.109 374.127 289.235C375.087 288.744 376.09 288.253 376.346 287.08C376.666 285.523 375.685 283.133 369.733 276.072C366.362 272.061 356.805 266.941 347.567 261.971C337.861 256.765 326.874 250.856 325.957 247.464C323.866 239.741 324.527 236.712 325.445 235.517C325.935 234.877 326.639 234.579 327.621 234.579C336.943 234.579 364.015 261.139 386.245 285.971C386.522 286.269 386.671 286.44 386.693 286.44C390.853 289.597 394.522 290.387 397.743 291.069C402.309 292.051 406.255 292.883 411.013 299.731C413.274 302.973 412.89 306.899 412.485 311.037C412.079 315.197 411.653 319.507 414.042 323.261V323.197Z" fill="white"/>
<path d="M188 160.621C259.936 201.325 337.461 266.093 351.584 298.285C360.053 317.613 339.509 340.717 313.504 369.965C283.936 403.203 247.157 444.568 244.853 494.211C242.059 554.733 212.064 579.587 188 587.096V588.653C212.619 581.144 243.509 555.971 246.347 494.275C248.608 445.165 285.216 404.013 314.613 370.947C340.981 341.293 361.803 317.891 352.949 297.667C338.72 265.24 260.448 199.896 188 159V160.6L188 160.621Z" fill="white"/>
<path d="M480.395 -119.011C493.899 -76.9627 507.851 -33.5067 455.136 -3.02132C447.264 1.54401 438.411 4.87201 428.875 6.89867C421.173 8.54134 412.811 9.37335 404.043 9.37335C332.747 9.37335 243.595 -43.6187 188 -77.4107V-75.6613C243.787 -41.784 332.683 10.8667 404.021 10.8667C412.917 10.8667 421.365 10.0347 429.173 8.37068C438.88 6.30134 447.861 2.90934 455.883 -1.72C509.643 -32.8027 495.499 -76.856 481.824 -119.459C480.587 -123.341 479.349 -127.181 478.176 -131H476.619C477.835 -127.032 479.115 -123.043 480.416 -119.011H480.395Z" fill="white"/>
<path d="M207.925 313.421C206.88 306.552 202.123 300.387 193.419 294.627C191.627 293.453 189.835 292.259 188 291V291.768C189.707 292.92 191.392 294.051 193.077 295.16C201.632 300.813 206.283 306.829 207.307 313.507C208.992 324.579 200.587 335.971 190.283 348.685C189.579 349.539 188.811 350.605 188.021 351.736V352.845C189.024 351.416 189.941 350.115 190.795 349.091C201.205 336.269 209.696 324.749 207.968 313.421H207.925Z" fill="white"/>
<path d="M226.805 320.68C232.352 305.107 226.763 298.835 201.653 282.216C199.669 280.893 197.664 279.571 195.616 278.184C192.992 276.413 190.475 274.707 188 273V273.768C190.368 275.389 192.757 277.011 195.275 278.717C197.301 280.083 199.307 281.427 201.312 282.728C226.08 299.133 231.605 305.277 226.208 320.445C221.323 334.184 211.872 345.811 201.867 358.12C197.216 363.859 192.459 369.704 188 375.955V377.064C192.587 370.557 197.515 364.477 202.357 358.525C212.405 346.173 221.877 334.483 226.805 320.659V320.68Z" fill="white"/>
<path d="M395.361 401.021H395.211C392.182 401.021 389.11 404.861 386.87 407.677C386.379 408.275 385.953 408.829 385.569 409.256C383.457 411.667 381.409 414.205 379.446 416.68C378.166 418.28 376.907 419.859 375.606 421.416L375.457 421.608C371.19 426.664 369.462 429.949 370.145 431.656C370.337 432.125 370.806 432.723 371.958 432.851C372.129 432.851 372.299 432.872 372.47 432.872H372.577C381.11 432.68 388.022 424.957 391.393 420.371C394.593 415.997 396.875 411.261 397.686 407.4C397.878 406.504 398.39 403.432 397.174 401.896C396.747 401.341 396.129 401.043 395.382 401L395.361 401.021ZM396.619 407.208C395.851 410.92 393.633 415.507 390.518 419.752C387.275 424.189 380.619 431.656 372.534 431.827L372.449 432.36V431.827C372.321 431.827 372.193 431.827 372.065 431.805C371.297 431.72 371.169 431.379 371.126 431.272C370.891 430.675 370.934 428.627 376.267 422.291L376.438 422.099C377.739 420.52 379.019 418.941 380.299 417.341C382.262 414.888 384.289 412.349 386.401 409.96C386.785 409.533 387.233 408.957 387.723 408.339C389.707 405.843 392.715 402.088 395.339 402.088C395.766 402.088 396.086 402.259 396.342 402.579C397.089 403.517 396.961 405.672 396.641 407.208H396.619Z" fill="white"/>
<path d="M619.738 617.165C648.047 613.944 678.404 581.155 678.788 553.379C679.386 510.797 654.917 476.771 631.237 443.875C627.226 438.285 623.066 432.504 619.14 426.829L616.772 423.416C605.636 407.373 593.007 389.176 588.89 369.528C585.412 352.867 580.1 314.104 585.882 300.707C590.127 290.893 602.202 285.283 613.871 279.864C621.935 276.109 629.551 272.568 634.906 267.725L635.162 267.491C647.364 256.44 657.626 250.772 665.946 250.488C669.722 250.36 674.415 250.189 681.05 249.571C689.946 248.739 695.194 247.437 699.034 246.499C701.466 245.901 703.236 245.453 704.794 245.453C708.634 245.453 711.855 248.184 722.5 257.187C753.967 283.832 753.37 330.168 752.815 374.989C752.09 431.373 751.343 489.699 815.172 508.152C824.346 510.797 833.284 512.163 841.732 512.163C865.732 512.163 886.148 501.432 900.804 481.165C922.308 451.405 928.026 404.984 915.013 365.624C884.997 274.787 813.274 222.84 736.132 173.347C666.01 128.355 599.237 115.96 542.127 107.875C537.989 107.299 534.063 107 530.437 107C507.29 107 496.282 118.776 482.351 133.688C477.018 139.405 471.492 145.293 464.644 151.331C456.794 158.221 446.831 162.936 437.167 167.501C421.423 174.947 406.554 181.965 400.41 197.603C387.375 230.776 419.397 256.611 447.663 279.437C460.741 289.997 473.092 299.96 480.346 309.923C509.039 349.432 500.463 416.056 474.437 453.496C466.309 465.187 450.735 479.629 434.245 494.947C406.938 520.291 375.983 549.027 370.522 573.155C367.962 584.504 368.623 592.44 372.57 597.389C375.877 601.528 381.445 603.533 389.594 603.533C403.013 603.533 422.213 598.008 442.543 592.163C467.396 585.016 495.578 576.909 519.599 576.909C531.055 576.909 540.549 578.68 548.591 582.349C557.85 586.573 565.7 592.653 573.274 598.563C585.796 608.291 597.615 617.485 614.34 617.485C616.09 617.485 617.903 617.379 619.716 617.165H619.738ZM549.061 581.368C540.869 577.635 531.247 575.821 519.62 575.821C495.45 575.821 467.183 583.949 442.266 591.117C421.999 596.941 402.863 602.445 389.594 602.445C381.786 602.445 376.495 600.568 373.423 596.707C369.69 592.035 369.071 584.397 371.567 573.389C376.964 549.581 407.791 520.973 434.97 495.715C451.503 480.376 467.119 465.869 475.311 454.093C501.551 416.355 510.17 349.155 481.199 309.283C473.882 299.213 461.466 289.187 448.324 278.584C420.357 256.013 388.655 230.413 401.391 197.987C407.386 182.755 422.063 175.8 437.615 168.461C447.343 163.875 457.391 159.117 465.348 152.12C472.239 146.061 477.786 140.131 483.14 134.413C496.9 119.693 507.759 108.067 530.458 108.067C534.042 108.067 537.925 108.365 541.999 108.941C598.981 117.005 665.626 129.379 735.578 174.264C812.548 223.651 884.122 275.469 914.031 365.987C926.938 405.048 921.284 451.085 899.972 480.568C885.53 500.557 865.391 511.117 841.754 511.117C833.413 511.117 824.58 509.795 815.492 507.149C787.226 498.979 769.327 482.168 760.815 455.8C753.178 432.184 753.562 403.128 753.924 375.032C754.5 329.976 755.098 283.384 723.247 256.397C708.036 243.512 707.61 243.299 698.82 245.475C695.023 246.413 689.796 247.693 680.986 248.525C674.394 249.144 669.7 249.315 665.946 249.443C657.37 249.741 646.881 255.501 634.479 266.723L634.223 266.957C628.996 271.693 621.444 275.213 613.444 278.925C601.583 284.429 589.316 290.147 584.922 300.323C579.034 313.955 584.367 352.995 587.866 369.784C592.005 389.645 604.698 407.928 615.898 424.077L618.266 427.491C622.191 433.165 626.351 438.947 630.383 444.536C653.956 477.304 678.34 511.16 677.743 553.4C677.359 580.728 647.493 612.963 619.631 616.141C617.861 616.333 616.09 616.44 614.383 616.44C598.02 616.44 586.351 607.352 573.978 597.752C566.34 591.821 558.447 585.677 549.082 581.411L549.061 581.368Z" fill="white"/>
<path d="M471.029 737.973C480.651 729.269 495.883 721.653 513.525 712.821C525.835 706.656 542.389 691.509 541.387 679.115C540.853 672.352 535.392 667.275 525.195 664.075C521.184 662.816 516.789 662.197 511.776 662.197C498.72 662.197 484 666.528 471.029 670.368C465.099 672.117 459.509 673.76 454.389 674.933C411.467 684.683 385.547 690.571 362.315 690.571C341.749 690.571 323.723 685.963 300.085 674.677C277.323 663.819 260.853 653.6 247.605 645.408C228.107 633.333 219.019 628 207.499 628C202.123 628 195.701 629.195 188 631.648V632.757C195.723 630.283 202.165 629.045 207.499 629.045C218.741 629.045 227.744 634.336 247.072 646.304C260.341 654.517 276.832 664.736 299.637 675.637C323.424 687.008 341.6 691.637 362.336 691.637C385.675 691.637 411.637 685.749 454.645 675.979C459.787 674.805 465.397 673.163 471.349 671.413C484.256 667.616 498.891 663.307 511.797 663.307C516.704 663.307 520.992 663.904 524.896 665.141C534.645 668.213 539.829 672.971 540.341 679.264C541.301 691.189 525.109 705.888 513.056 711.925C495.349 720.8 480.053 728.459 470.325 737.248C440.971 763.787 445.707 798.432 454.603 829.536H455.712C446.837 798.645 442.059 764.235 471.029 738.037V737.973Z" fill="white"/>
<path d="M618.338 644.757C650.103 641.131 687.927 603.392 698.061 574.549C715.661 524.48 684.365 484.16 654.093 445.163C624.887 407.531 597.282 371.989 610.701 328.704C622.391 291.008 660.151 270.656 689.741 270.656C705.698 270.656 719.479 276.309 728.589 286.592C739.405 298.795 743.65 317.333 740.877 340.203C731.341 418.773 728.503 504.725 816.098 530.069C826.146 532.971 836.066 534.443 845.602 534.443C882.487 534.443 906.018 513.323 919.266 495.595C944.674 461.611 953.506 410.773 941.218 369.109C930.807 333.781 910.306 299.499 878.583 264.341C831.415 212.075 767.159 167.147 682.167 126.955L678.498 125.205C642.743 108.288 605.773 90.7947 566.839 81.152C564.535 80.576 561.975 79.8933 559.245 79.168C547.213 75.968 532.258 72 519.415 72C514.274 72 509.815 72.6613 506.189 73.9627C500.642 75.9467 497.527 79.744 494.498 83.4133C492.237 86.144 489.911 88.9813 486.583 91.008C484.429 92.3307 480.205 93.952 475.767 95.68C468.578 98.4533 461.111 101.333 458.765 104.107C454.221 109.44 455.479 112.64 456.674 115.755C457.549 117.973 458.359 120.085 457.293 123.221L456.461 125.696C452.151 138.368 445.033 146.14 435.106 149.013C432.226 149.845 428.642 150.891 424.397 152.235C412.13 156.139 407.095 162.155 402.231 167.979C398.498 172.459 394.957 176.683 388.279 180.096C388.109 180.096 387.895 180.096 387.682 180.096C380.002 180.096 321.762 183.936 317.282 198.251C316.087 202.112 318.69 206.293 325.069 210.709C333.047 216.235 339.085 216.875 342.946 216.875C344.823 216.875 346.53 216.704 348.173 216.555C349.581 216.427 350.903 216.299 352.162 216.299C356.855 216.299 361.591 217.621 368.077 233.643C369.677 237.589 370.914 240.811 371.938 243.499C376.973 256.683 377.143 256.853 389.922 262.315C393.101 263.659 397.047 265.344 402.061 267.669C418.53 275.264 421.901 283.883 426.167 294.805C428.429 300.565 430.989 307.115 435.831 314.475C441.015 322.347 447.095 328.683 452.983 334.805C463.415 345.664 473.271 355.925 476.407 373.056C481.847 402.731 465.741 431.061 447.522 457.259C438.69 469.973 420.535 484.757 401.314 500.416C368.674 526.997 331.682 557.141 331.554 585.045C331.469 600.981 335.565 613.205 343.714 621.397C352.589 630.315 366.071 634.645 384.951 634.645C412.322 634.645 445.943 625.408 475.618 617.28C498.978 610.88 519.159 605.333 532.045 605.333C534.967 605.333 537.442 605.632 539.383 606.208C551.821 609.899 561.677 617.792 571.234 625.429C583.885 635.563 595.853 645.12 612.941 645.12C614.69 645.12 616.482 645.013 618.274 644.821L618.338 644.757ZM539.874 604.715C537.741 604.075 535.202 603.776 532.109 603.776C519.01 603.776 498.743 609.344 475.277 615.765C445.687 623.872 412.151 633.088 384.994 633.088C366.541 633.088 353.399 628.907 344.823 620.288C336.973 612.395 333.026 600.533 333.09 585.003C333.218 557.803 369.911 527.893 402.295 501.525C421.602 485.803 439.821 470.955 448.781 458.069C467.17 431.595 483.447 402.944 477.901 372.736C474.679 355.157 464.674 344.747 454.093 333.717C448.247 327.637 442.21 321.344 437.111 313.6C432.354 306.368 429.815 299.925 427.597 294.208C423.202 282.965 419.725 274.112 402.722 266.261C397.687 263.936 393.719 262.251 390.541 260.885C382.32 257.372 376.589 251.378 373.346 242.901C372.322 240.213 371.085 236.971 369.485 233.024C363.277 217.728 358.434 214.741 352.183 214.741C350.861 214.741 349.495 214.869 348.045 215.019C346.445 215.168 344.781 215.339 342.967 215.339C338.999 215.339 333.495 214.677 325.943 209.451C320.162 205.461 317.751 201.835 318.733 198.677C322.615 186.24 376.909 181.568 387.703 181.568C387.959 181.568 388.13 181.568 388.237 181.568L388.407 180.885L388.727 181.547C395.81 177.963 399.671 173.376 403.383 168.917C408.333 163.008 413.005 157.419 424.866 153.643C429.09 152.299 432.653 151.275 435.533 150.443C451.042 145.963 451.234 145.728 457.89 126.165L458.722 123.691C459.959 120.043 458.957 117.483 458.082 115.2C456.93 112.256 455.949 109.717 459.917 105.067C462.029 102.592 469.623 99.648 476.322 97.0667C480.845 95.3173 485.111 93.6747 487.394 92.288C490.935 90.1333 493.346 87.2107 495.671 84.3733C498.701 80.704 501.559 77.2267 506.701 75.392C510.178 74.1547 514.466 73.5147 519.437 73.5147C532.087 73.5147 546.935 77.4613 558.882 80.64C561.613 81.3653 564.173 82.048 566.498 82.624C605.282 92.224 642.189 109.696 677.879 126.571L681.549 128.32C766.349 168.405 830.455 213.227 877.495 265.344C909.069 300.331 929.463 334.421 939.81 369.536C951.97 410.773 943.245 461.077 918.093 494.699C905.037 512.149 881.869 532.949 845.623 532.949C836.237 532.949 826.466 531.499 816.546 528.619C730.082 503.616 732.919 418.347 742.391 340.373C745.229 317.077 740.855 298.133 729.741 285.611C720.354 275.008 706.167 269.184 689.783 269.184C659.661 269.184 621.218 289.899 609.314 328.299C595.661 372.309 624.781 409.835 652.962 446.123C682.978 484.8 714.039 524.8 696.695 574.101C686.69 602.539 649.442 639.765 618.21 643.328C616.461 643.52 614.733 643.627 613.047 643.627C596.471 643.627 584.717 634.219 572.258 624.256C562.615 616.533 552.631 608.555 539.917 604.757L539.874 604.715Z" fill="white"/>
</g>
</g>
<defs>
<clipPath id="clip0_593_156292">
<rect width="375" height="672" fill="white"/>
</clipPath>
<clipPath id="clip1_593_156292">
<rect width="960" height="960" fill="white" transform="translate(-772 -131)"/>
</clipPath>
<clipPath id="clip2_593_156292">
<rect width="960" height="960" fill="white" transform="translate(188 -131)"/>
</clipPath>
</defs>
</svg>
