<svg width="56" height="24" viewBox="0 0 56 24" fill="none" xmlns="http://www.w3.org/2000/svg">
<path fill-rule="evenodd" clip-rule="evenodd" d="M37.4954 11.9595C37.5179 7.02236 41.6079 3 46.7474 3C51.842 3 56.0576 7.04421 55.9994 12C55.9994 16.9558 51.842 21 46.7474 21C41.6668 21 37.5179 17.0342 37.4954 12.0405V18.7217H34.2163L30 5.62029H37.4954V11.9595ZM43.2925 12C43.2925 13.8225 44.8732 15.3609 46.7474 15.3609C48.6798 15.3609 50.2024 13.8225 50.2024 12C50.2024 10.1775 48.6209 8.63914 46.7474 8.63914C44.8732 8.63914 43.2925 10.1775 43.2925 12Z" fill="#0070F0"/>
</svg>
