<svg width="343" height="463" viewBox="0 0 343 463" fill="none" xmlns="http://www.w3.org/2000/svg">
<g clip-path="url(#clip0_578_155663)">
<rect width="343" height="463" fill="#ECE5DF"/>
<path d="M6.80533 622.981C9.83467 557.189 51.776 509.211 85.4827 470.661L87.872 467.931C91.776 463.813 100.8 452.805 100.096 439.515C99.6693 431.429 95.6587 424.091 88.192 417.733C83.712 413.915 79.5733 410.373 75.6267 406.981C58.1973 392.005 44.416 380.187 23.04 365.36C15.232 359.941 7.53067 354.821 0.0426667 350V350.768C7.424 355.525 14.9973 360.56 22.6773 365.893C44.032 380.699 57.792 392.517 75.2 407.472C79.1467 410.864 83.2853 414.427 87.7653 418.224C95.104 424.453 99.0293 431.621 99.456 439.536C100.16 452.592 91.264 463.429 87.4027 467.504L84.992 470.256C51.2213 508.869 9.19467 556.933 6.144 622.96C5.824 630 3.09333 634.288 0 635.76V636.528C3.328 635.163 6.42133 630.811 6.784 623.003L6.80533 622.981Z" fill="#DFD6CF"/>
<path d="M21.696 623.115C24.4907 562.528 64.5333 516.747 96.704 479.947L99.1147 477.195C105.877 469.472 111.339 462.603 115.392 456.843C120.405 449.675 129.707 436.341 107.712 415.115C83.9893 392.203 58.3467 371.168 31.5307 352.565C20.5867 344.971 10.0693 338.144 0.0213333 332V332.747C9.96267 338.827 20.352 345.589 31.168 353.077C57.9627 371.659 83.5627 392.693 107.264 415.563C128.875 436.427 119.765 449.461 114.859 456.459C110.827 462.219 105.365 469.045 98.624 476.768L96.2133 479.52C63.9787 516.384 23.8507 562.272 21.056 623.072C19.7547 651.275 14.7413 667.68 5.29067 674.72C3.41333 676.107 1.64267 676.875 0 677.045V677.685C1.792 677.515 3.66933 676.725 5.67467 675.232C15.296 668.085 20.3733 651.509 21.696 623.093V623.115Z" fill="#DFD6CF"/>
<path d="M282.091 190.053C277.952 173.691 244.501 169.296 205.76 164.24C196.181 162.981 186.283 161.701 176.683 160.165C134.208 153.467 95.3387 132.155 57.7493 111.525C38.9333 101.2 19.6907 90.6613 0 82V83.6213C19.4133 92.2187 38.4213 102.629 57.024 112.848C94.72 133.52 133.717 154.917 176.448 161.659C186.091 163.173 195.989 164.475 205.568 165.733C242.176 170.533 276.736 175.056 280.64 190.437C283.669 202.427 268.053 220.624 232.896 246.053C183.552 281.744 142.165 298.363 102.613 298.363C80.128 298.363 57.856 292.773 36.3733 281.787C22.9973 274.939 11.2427 266.619 0.0213333 258.213V260.069C11.0293 268.283 22.592 276.389 35.712 283.109C57.408 294.224 79.9147 299.856 102.635 299.856C142.507 299.856 184.192 283.152 233.792 247.269C270.016 221.072 285.355 202.917 282.112 190.075L282.091 190.053Z" fill="#DFD6CF"/>
<path d="M5.54667 526.44C11.2853 516.328 18.752 507.155 25.9627 498.28C36.352 485.48 47.104 472.253 52.8853 455.997C63.0827 427.325 43.0933 414.099 21.9093 400.061C19.9467 398.76 17.984 397.459 16.0213 396.136C12.5227 393.768 9.23733 391.549 5.99467 389.288C4.39467 388.179 2.432 386.771 0 385V385.789C2.24 387.432 4.11733 388.776 5.632 389.821C8.87467 392.083 12.1813 394.301 15.68 396.669C17.6427 397.992 19.6053 399.293 21.5467 400.595C42.496 414.483 62.2933 427.581 52.2667 455.784C46.5067 471.933 35.7973 485.117 25.4293 497.875C18.1973 506.771 10.7307 515.965 4.97067 526.12C3.24267 529.171 1.664 533.117 0 537.32V539.048C0.170667 538.621 0.341333 538.173 0.512 537.747C2.19733 533.501 3.79733 529.491 5.52533 526.44H5.54667Z" fill="#DFD6CF"/>
<path d="M334.84 130C331.171 130 325.987 132.347 322.168 143.483C317.88 156.027 326.136 158.928 334.883 162.021C336.419 162.555 337.998 163.131 339.534 163.749C342.968 165.136 345.87 165.84 348.131 165.84C350.648 165.84 352.462 164.987 353.507 163.323C356.771 158.139 351.544 146.683 349.134 142.011C345.251 134.501 339.896 130.021 334.819 130.021L334.84 130ZM352.611 162.747C350.904 165.456 346.595 165.435 339.918 162.747C338.36 162.128 336.76 161.552 335.224 161.019C326.648 157.989 319.224 155.365 323.171 143.824C326.03 135.461 330.062 131.045 334.819 131.045C339.576 131.045 344.483 135.312 348.174 142.459C352.995 151.867 354.659 159.44 352.59 162.725L352.611 162.747Z" fill="#DFD6CF"/>
<path d="M57.6853 479.917C58.6453 478.787 59.6053 477.635 60.5867 476.483C74.3253 460.333 88.512 443.629 72.384 423.661C59.904 408.216 41.0667 395.48 24.4267 384.237C20.992 381.912 17.728 379.715 14.528 377.496C12.3733 376.003 9.472 373.869 6.08 371.416C4.224 370.072 2.19733 368.579 0.0213333 367V367.789C2.048 369.261 3.968 370.648 5.696 371.928C9.06667 374.403 11.9893 376.515 14.144 378.008C17.344 380.227 20.608 382.424 24.0427 384.771C40.6187 395.992 59.4347 408.707 71.8507 424.067C87.6587 443.629 73.6213 460.12 60.0747 476.077C59.0933 477.229 58.1333 478.36 57.1733 479.512C45.248 493.72 30.016 512.749 17.9627 533.955C10.6453 546.819 4.62933 560.344 0 574.211V576.301C4.672 561.795 10.88 547.672 18.5173 534.253C30.5493 513.112 45.76 494.104 57.664 479.917H57.6853Z" fill="#DFD6CF"/>
<path d="M45.568 264.229C61.7813 272.528 75.5627 276.411 88.9173 276.411C102.272 276.411 115.349 272.208 129.749 267.344C137.92 264.592 147.179 261.456 157.675 258.811C163.008 257.467 167.637 257.317 170.667 257.317C172.693 257.317 174.656 257.403 176.533 257.467C178.325 257.531 180.011 257.616 181.675 257.616C190.315 257.616 197.205 255.568 204.736 245.392C209.813 238.523 211.733 233.211 213.397 228.539C215.915 221.541 217.899 216.016 228.949 208.101C231.787 206.075 235.84 204.475 239.787 202.939C246.101 200.443 251.563 198.309 251.797 194.661C251.989 191.717 248.555 188.432 240.981 184.315C231.936 179.408 219.008 178.747 207.552 178.747C202.453 178.747 197.077 178.896 191.893 179.045C186.688 179.195 181.291 179.365 176.149 179.365C164.651 179.365 156.608 178.576 150.037 176.784C112.917 166.693 78.1013 147.621 47.3813 130.768C31.2533 121.936 15.616 113.36 0 106V107.173C15.4453 114.469 30.912 122.96 46.8693 131.707C77.632 148.581 112.491 167.696 149.76 177.808C156.416 179.621 164.565 180.432 176.149 180.432C181.312 180.432 186.709 180.283 191.936 180.112C197.12 179.963 202.475 179.813 207.552 179.813C218.859 179.813 231.616 180.453 240.469 185.253C247.424 189.029 250.88 192.187 250.731 194.597C250.539 197.563 245.12 199.696 239.403 201.936C235.413 203.515 231.296 205.136 228.352 207.227C217.024 215.333 214.891 221.285 212.416 228.176C210.752 232.784 208.875 238.011 203.883 244.752C196.608 254.565 189.995 256.549 181.675 256.549C180.032 256.549 178.347 256.485 176.576 256.4C174.677 256.315 172.715 256.251 170.667 256.251C167.573 256.251 162.859 256.4 157.419 257.765C146.88 260.411 137.6 263.547 129.408 266.32C115.093 271.163 102.741 275.344 88.9173 275.344C75.0933 275.344 62.1013 271.504 46.0373 263.291C31.36 255.76 18.1547 245.755 5.376 236.069C3.60533 234.725 1.83467 233.381 0.0426667 232.037V233.381C1.62133 234.555 3.17867 235.749 4.736 236.923C17.536 246.629 30.784 256.677 45.5467 264.229H45.568Z" fill="#DFD6CF"/>
<path d="M55.296 245.115C71.0613 253.2 86.5067 257.125 102.549 257.125C111.531 257.125 130.923 253.456 147.819 247.333C162.624 241.957 180.288 233.04 180.331 221.051C180.373 206.928 153.109 199.077 136.811 194.384C133.269 193.36 130.197 192.485 128.171 191.739C98.9867 181.157 70.016 167.803 37.0133 149.712C24.4053 142.8 12.1173 136.059 0 130V130.725C12.0107 136.741 24.2133 143.419 36.7147 150.288C69.76 168.4 98.752 181.776 127.957 192.357C130.027 193.104 133.099 193.979 136.64 195.003C152.768 199.632 179.755 207.397 179.712 221.051C179.648 241.787 121.195 256.485 102.571 256.485C86.6347 256.485 71.2747 252.581 55.616 244.539C42.5813 237.861 30.1227 228.411 18.0907 219.301C12.2667 214.885 6.272 210.341 0 205.925V206.715C6.12267 211.045 11.9893 215.483 17.7067 219.813C29.7813 228.965 42.24 238.416 55.3387 245.115H55.296Z" fill="#DFD6CF"/>
<path d="M62.1867 231.056C75.776 238.032 89.0027 241.403 102.635 241.424C114.475 241.424 129.92 237.904 135.872 230.203C138.453 226.853 139.2 222.928 138.048 218.533C135.339 208.187 113.685 200.869 97.856 195.536C92.736 193.808 88.32 192.315 85.6107 191.056C67.328 182.565 49.2373 172.645 31.744 163.067L29.8027 162C19.6907 156.453 9.792 151.035 0.0426667 146V146.725C9.68533 151.717 19.4773 157.072 29.4827 162.576L31.424 163.643C48.9173 173.243 67.0293 183.163 85.312 191.653C88.064 192.933 92.48 194.427 97.6213 196.155C112.427 201.147 134.784 208.699 137.387 218.704C138.475 222.907 137.792 226.64 135.339 229.819C129.515 237.349 114.304 240.784 102.571 240.784C89.088 240.784 75.9467 237.413 62.4427 230.48C50.5813 224.4 38.656 215.355 27.1147 206.608C18.7733 200.293 9.81333 193.509 0 187.109V187.877C9.664 194.213 18.496 200.891 26.7307 207.141C38.272 215.888 50.2187 224.955 62.144 231.056H62.1867Z" fill="#DFD6CF"/>
<path d="M378.765 12.7787C379.832 8.46933 380.877 4.224 381.859 0H380.771C379.811 4.13867 378.787 8.29867 377.741 12.5227C375.779 20.4373 373.752 28.608 372.109 36.9707C366.648 64.8107 361.933 101.312 374.115 136.725C379.064 151.125 391.416 162.88 402.296 173.248C411.981 182.485 420.344 190.464 419.597 197.163C419.256 200.235 416.995 202.987 412.707 205.547C410.723 206.72 407.352 207.317 402.659 207.317C386.275 207.317 357.389 200.085 336.013 192.917C312.76 185.131 284.131 172.715 279.693 157.824C278.285 153.088 279.437 148.288 283.149 143.595C287.907 137.557 293.005 132.267 297.933 127.125C307.64 117.035 316.813 107.499 322.893 93.3547C331.555 73.1733 332.6 52.1173 326.008 30.784C324.408 25.6213 322.808 20.864 321.379 16.6613C319.288 10.4533 317.453 5.03467 316.216 0H315.107C316.365 5.14133 318.221 10.6667 320.376 17.0027C321.784 21.2053 323.405 25.9413 324.984 31.104C331.491 52.1813 330.445 72.9813 321.891 92.928C315.896 106.901 306.787 116.373 297.144 126.379C292.195 131.52 287.075 136.853 282.275 142.933C278.349 147.925 277.112 153.045 278.627 158.144C283.192 173.461 312.163 186.069 335.629 193.941C357.091 201.131 386.104 208.384 402.616 208.384C407.501 208.384 411.064 207.744 413.219 206.464C417.805 203.733 420.237 200.725 420.621 197.291C421.432 190.059 412.899 181.909 403 172.48C392.205 162.197 379.96 150.528 375.096 136.363C363 101.184 367.693 64.8533 373.133 37.1627C374.776 28.8427 376.781 20.672 378.744 12.7787H378.765Z" fill="#DFD6CF"/>
<path d="M68.8853 218.339C73.1307 220.515 85.0987 224.419 93.76 224.419C96.8533 224.419 99.2213 223.907 100.779 222.883C104.149 220.685 105.643 218.637 105.344 216.589C104.661 212.088 94.8693 209.379 87.0187 207.203C83.776 206.307 81.0027 205.517 79.4027 204.792C60.672 196.109 42.368 186.061 24.6613 176.355L22.6987 175.288C15.0187 171.085 7.46667 166.947 0.0213333 163V164.216C7.296 168.077 14.6773 172.131 22.1867 176.227L24.1493 177.293C41.8773 187.021 60.2027 197.069 78.9547 205.773C80.6187 206.541 83.456 207.331 86.72 208.248C93.888 210.232 103.68 212.963 104.277 216.781C104.512 218.339 103.147 220.109 100.181 222.008C98.7947 222.904 96.64 223.352 93.7387 223.352C85.3547 223.352 73.3867 219.469 69.3333 217.4C58.6667 211.939 47.296 203.32 36.2667 194.957C25.7493 187 13.8027 177.933 0 169.677V170.936C13.5253 179.064 25.3013 187.981 35.648 195.832C46.6773 204.195 58.0907 212.835 68.8427 218.36L68.8853 218.339Z" fill="#DFD6CF"/>
<path d="M36.8213 624.483C39.3813 569.187 77.4827 525.603 108.096 490.595L110.507 487.843C146.923 446.157 145.451 431.608 128.363 414.755C109.632 396.28 80.1067 368.504 40.1493 340.792C26.5173 331.341 13.0133 322.701 0 315V316.237C12.8213 323.832 26.112 332.365 39.5307 341.667C79.424 369.336 108.907 397.069 127.616 415.523C144.213 431.885 145.557 446.115 109.717 487.16L107.307 489.912C76.5867 525.048 38.336 568.781 35.776 624.461C33.3653 676.707 13.696 692.067 0.0213333 696.355V697.464C14.016 693.197 34.3893 677.773 36.8427 624.504L36.8213 624.483Z" fill="#DFD6CF"/>
<path d="M272.299 18.4747C286.912 64 292.864 88.7467 256.576 109.717C250.624 113.152 243.861 115.712 236.48 117.269C230.229 118.592 223.339 119.275 216.043 119.275C148.587 119.275 55.9573 62.912 6.16533 32.64L4.45867 31.616C2.944 30.6987 1.45067 29.7813 0 28.9067V30.144C1.28 30.912 2.58133 31.7013 3.904 32.512L5.61067 33.536C55.4667 63.872 148.288 120.32 216.043 120.341C223.424 120.341 230.379 119.659 236.715 118.315C244.203 116.715 251.072 114.133 257.109 110.635C294.101 89.2587 288.107 64.2133 273.323 18.1333C271.445 12.3093 269.504 6.22933 267.712 0H266.603C268.416 6.336 270.4 12.5227 272.299 18.4533V18.4747Z" fill="#DFD6CF"/>
<path d="M187.464 11.968C187.891 13.568 188.488 15.552 189.171 17.7707C191.091 24.0853 190.749 28.3307 188.147 30.4213C186.845 31.4667 184.947 32 182.493 32C172.083 32 154.76 22.72 149.064 19.648C146.291 18.1547 144.179 17.0453 142.536 16.2133L133.789 11.904C125.768 7.97867 117.939 4.01067 110.365 0.0213333H109C116.915 4.20267 125.107 8.36267 133.512 12.48L142.259 16.7893C143.901 17.6 145.992 18.7307 148.765 20.2027C154.504 23.2747 171.933 32.6187 182.515 32.6187C185.117 32.6187 187.165 32.0427 188.573 30.912C191.411 28.6507 191.816 24.1707 189.811 17.5787C189.128 15.36 188.531 13.3973 188.104 11.776C187.08 7.91467 186.035 4.01067 185.075 0H184.413C185.395 4.07467 186.44 8.04267 187.485 11.9467L187.464 11.968Z" fill="#DFD6CF"/>
<path d="M252.181 24.9173C258.091 43.3493 263.765 66.4747 254.912 81.7493C250.539 89.3227 242.837 94.3147 232.085 96.5973C227.264 97.6213 221.867 98.1547 216.043 98.1547C154.517 98.1547 65.152 43.7973 17.152 14.592L8.27733 9.19467C5.568 7.552 2.79467 6.016 0 4.56533V5.29067C2.688 6.67733 5.33333 8.14933 7.95733 9.728L16.8107 15.104C64.8747 44.3307 154.325 98.752 216.043 98.7733C221.909 98.7733 227.371 98.24 232.213 97.216C243.157 94.8907 250.987 89.792 255.467 82.048C264.448 66.56 258.752 43.264 252.8 24.704C250.24 16.7467 247.723 8.46933 245.547 0H244.885C247.061 8.55467 249.621 16.896 252.203 24.9173H252.181Z" fill="#DFD6CF"/>
<path d="M201.947 8.064C202.331 9.51467 202.885 11.2853 203.504 13.3547C206.597 23.5093 211.291 38.848 206.853 45.9307C205.04 48.8107 202.245 50.7093 198.555 51.5413C197.061 51.8827 195.397 52.0533 193.584 52.0533C178.011 52.0533 154.608 39.5093 142.043 32.768C139.611 31.4667 137.499 30.336 135.92 29.5467L134.832 29.0133C133.595 28.3947 132.443 27.8187 131.376 27.3067L127.259 25.28C110.277 16.96 94.1493 8.448 79.28 0H78C93.1467 8.64 109.616 17.3653 126.981 25.856L131.099 27.8827C132.165 28.3947 133.317 28.9707 134.555 29.5893L135.643 30.1227C137.221 30.912 139.312 32.0427 141.744 33.344C154.352 40.1067 177.84 52.7147 193.584 52.7147C195.44 52.7147 197.147 52.544 198.683 52.2027C202.565 51.328 205.488 49.344 207.387 46.3147C211.973 38.9973 207.237 23.488 204.101 13.2267C203.483 11.1787 202.928 9.408 202.544 7.95733C201.84 5.33333 201.136 2.688 200.475 0H199.813C200.496 2.73067 201.221 5.44 201.925 8.10667L201.947 8.064Z" fill="#DFD6CF"/>
<path d="M215.595 4.26667C218.624 15.6373 221.76 27.4133 222.08 39.552C222.507 55.2533 216.384 64.2347 203.904 66.2613C202.048 66.56 200.021 66.7093 197.888 66.7093C176.192 66.7093 145.152 51.2213 128.469 42.9013C126.848 42.0907 125.355 41.344 123.989 40.6827L119.872 38.656C93.9307 25.984 69.8667 12.8 49.216 0H48C68.864 12.9707 93.248 26.368 119.595 39.2747L123.712 41.3013C125.056 41.9627 126.549 42.7093 128.192 43.52C144.917 51.8613 176.064 67.392 197.909 67.392C200.085 67.392 202.155 67.2427 204.032 66.9227C216.896 64.832 223.189 55.6373 222.741 39.552C222.4 27.328 219.264 15.5307 216.235 4.11733C215.872 2.752 215.509 1.38667 215.147 0.0213333H214.485C214.869 1.45067 215.232 2.88 215.616 4.288L215.595 4.26667Z" fill="#DFD6CF"/>
<path d="M238.301 29.504C238.621 30.4853 238.941 31.4667 239.261 32.448C242.675 42.816 246.195 53.5467 240.499 63.9147C235.741 72.5547 226.12 79.5733 215.965 81.7707C214.92 82.0053 213.875 82.176 212.851 82.2827C210.312 82.5813 207.645 82.7307 204.936 82.7307C176.285 82.7307 142.685 66.2187 118.152 54.1653L114.035 52.16C82.5253 36.6933 52.0827 18.176 25.224 1.83467C24.0933 1.152 23.112 0.554667 22.2373 0.0213333H21C23.0267 1.25867 24.8827 2.38933 24.8827 2.38933C51.7413 18.7307 82.2053 37.248 113.757 52.7147L117.853 54.72C142.451 66.7947 176.115 83.3493 204.915 83.3493C207.667 83.3493 210.355 83.2 212.915 82.9013C213.96 82.7733 215.027 82.6027 216.093 82.368C226.419 80.128 236.211 73.0027 241.053 64.192C246.877 53.5893 243.315 42.7307 239.859 32.2133C239.539 31.232 239.219 30.2507 238.899 29.2693C235.891 19.9253 232.947 10.1333 230.493 0H229.832C232.285 10.1973 235.272 20.0747 238.28 29.4827L238.301 29.504Z" fill="#DFD6CF"/>
<path d="M224.229 429.813C219.151 422.496 214.735 421.557 210.042 420.555C206.821 419.872 203.471 419.147 199.653 416.267L199.333 415.904C188.453 403.723 151.951 364 139.599 364C138.149 364 137.018 364.512 136.229 365.536C134.586 367.691 134.671 372.021 136.485 378.784C137.573 382.795 147.898 388.341 158.842 394.229C167.951 399.115 177.381 404.171 180.581 407.968C183.439 411.381 187.215 416.096 186.874 417.717C186.789 418.165 186.298 418.421 185.466 418.827C183.567 419.765 180.687 421.216 182.223 427.936C183.29 432.587 186.17 437.216 188.943 441.696C191.546 445.856 193.999 449.803 194.981 453.621C197.711 464.117 180.517 483.381 169.146 496.117C165.391 500.32 162.149 503.947 160.079 506.699C151.802 517.685 141.455 527.883 131.471 537.717C112.037 556.875 91.9619 576.672 84.8793 604C74.3193 644.853 72.2073 680.928 78.6286 711.221C82.0419 727.392 93.8179 749.92 105.231 749.92C112.335 749.92 117.519 741.387 120.613 724.533C132.559 659.637 165.135 638.048 196.666 617.163C224.591 598.667 250.959 581.195 262.309 535.797C266.575 518.667 260.005 492.341 251.45 477.771C247.631 471.264 242.831 467.616 238.181 464.075C234.106 460.96 230.245 458.037 227.258 453.344C225.146 450.037 225.53 446.155 225.914 442.08C226.319 437.856 226.746 433.483 224.186 429.771L224.229 429.813ZM226.042 454.197C229.157 459.104 233.125 462.112 237.327 465.312C241.85 468.768 246.543 472.331 250.213 478.581C258.618 492.896 265.082 518.731 260.901 535.499C249.701 580.32 223.567 597.643 195.877 615.968C164.111 637.024 131.237 658.805 119.183 724.32C116.282 740.128 111.461 748.491 105.253 748.491C95.5673 748.491 83.7699 728.309 80.1006 710.965C73.7433 680.907 75.8339 645.045 86.3513 604.427C93.3059 577.483 113.253 557.835 132.538 538.827C142.565 528.949 152.933 518.731 161.295 507.637C163.322 504.949 166.543 501.344 170.277 497.163C182.565 483.403 199.375 464.544 196.431 453.301C195.365 449.248 192.869 445.237 190.202 440.971C187.471 436.597 184.677 432.096 183.674 427.68C182.394 422.091 184.378 421.109 186.127 420.235C187.087 419.744 188.09 419.253 188.346 418.08C188.666 416.523 187.685 414.133 181.733 407.072C178.362 403.061 168.805 397.941 159.567 392.971C149.861 387.765 138.874 381.856 137.957 378.464C135.866 370.741 136.527 367.712 137.445 366.517C137.935 365.877 138.639 365.579 139.621 365.579C148.943 365.579 176.015 392.139 198.245 416.971C198.522 417.269 198.671 417.44 198.693 417.44C202.853 420.597 206.522 421.387 209.743 422.069C214.309 423.051 218.255 423.883 223.013 430.731C225.274 433.973 224.89 437.899 224.485 442.037C224.079 446.197 223.653 450.507 226.042 454.261V454.197Z" fill="#DFD6CF"/>
<path d="M0 291.621C71.936 332.325 149.461 397.093 163.584 429.285C172.053 448.613 151.509 471.717 125.504 500.965C95.936 534.203 59.1573 575.568 56.8533 625.211C54.0587 685.733 24.064 710.587 0 718.096V719.653C24.6187 712.144 55.5093 686.971 58.3467 625.275C60.608 576.165 97.216 535.013 126.613 501.947C152.981 472.293 173.803 448.891 164.949 428.667C150.72 396.24 72.448 330.896 0 290V291.6L0 291.621Z" fill="#DFD6CF"/>
<path d="M362.65 0.128L362.756 0H361.882C360.538 1.42933 359.194 2.92267 358.255 5.09867C355.61 11.328 356.356 17.8133 357.082 24.0853C357.487 27.584 357.914 31.1893 357.743 34.7307C357.487 40.2987 356.335 46.0587 355.247 51.648C354.351 56.256 353.412 61.0133 352.964 65.664C350.234 93.888 352.708 119.403 360.303 141.504C361.882 146.091 368.068 153.152 374.618 160.619C382.98 170.176 391.642 180.053 391.983 186.048C392.068 187.392 391.727 188.437 390.938 189.269C388.676 191.659 382.618 192.107 372.911 190.571C365.871 189.461 359.087 186.517 352.538 183.659C348.719 181.995 344.751 180.267 340.804 178.944C339.695 178.56 338.543 178.197 337.348 177.792C323.162 173.12 303.748 166.699 300.954 155.477C299.631 150.123 302.234 144 308.698 137.28C318.874 126.699 329.412 115.755 336.538 99.136C343.364 83.2 351.236 52.2027 348.228 35.4347C347.61 32 346.18 29.6747 344.794 27.4347C342.938 24.4267 341.188 21.5893 341.978 16.448C342.575 12.6507 344.047 10.432 345.348 8.49067C346.906 6.144 348.271 4.01067 347.887 0H347.247C347.631 3.81867 346.351 5.80267 344.815 8.14933C343.471 10.1547 341.956 12.4373 341.359 16.3627C340.527 21.7387 342.34 24.6827 344.26 27.776C345.626 29.9733 347.012 32.2347 347.61 35.5627C350.596 52.224 342.767 83.0507 335.962 98.9013C328.879 115.413 318.383 126.315 308.25 136.853C301.636 143.744 298.97 150.059 300.356 155.648C303.215 167.211 322.842 173.696 337.178 178.432C338.372 178.816 339.524 179.2 340.634 179.584C344.559 180.907 348.506 182.613 352.303 184.277C358.895 187.136 365.7 190.101 372.826 191.232C376.644 191.829 379.93 192.149 382.618 192.149C387.012 192.149 389.892 191.36 391.407 189.739C392.303 188.779 392.708 187.541 392.623 186.048C392.26 179.84 383.535 169.877 375.087 160.235C368.58 152.811 362.436 145.792 360.9 141.333C353.327 119.317 350.874 93.888 353.583 65.7707C354.031 61.1627 354.97 56.4053 355.866 51.8187C356.975 46.208 358.106 40.4267 358.362 34.816C358.532 31.232 358.106 27.584 357.7 24.064C356.954 17.5787 356.228 11.4773 358.831 5.39733C359.791 3.15733 361.22 1.64267 362.628 0.149333L362.65 0.128Z" fill="#DFD6CF"/>
<path d="M292.395 11.9893C305.899 54.0373 319.851 97.4933 267.136 127.979C259.264 132.544 250.411 135.872 240.875 137.899C233.173 139.541 224.811 140.373 216.043 140.373C144.747 140.373 55.5947 87.3813 0 53.5893V55.3387C55.7867 89.216 144.683 141.867 216.021 141.867C224.917 141.867 233.365 141.035 241.173 139.371C250.88 137.301 259.861 133.909 267.883 129.28C321.643 98.1973 307.499 54.144 293.824 11.5413C292.587 7.65867 291.349 3.81867 290.176 0H288.619C289.835 3.968 291.115 7.95733 292.416 11.9893H292.395Z" fill="#DFD6CF"/>
<path d="M19.9253 444.421C18.88 437.552 14.1227 431.387 5.41867 425.627C3.62667 424.453 1.83467 423.259 0 422V422.768C1.70667 423.92 3.392 425.051 5.07733 426.16C13.632 431.813 18.2827 437.829 19.3067 444.507C20.992 455.579 12.5867 466.971 2.28267 479.685C1.57867 480.539 0.810667 481.605 0.0213333 482.736V483.845C1.024 482.416 1.94133 481.115 2.79467 480.091C13.2053 467.269 21.696 455.749 19.968 444.421H19.9253Z" fill="#DFD6CF"/>
<path d="M145.288 2.13333C149.299 4.16 154.76 6.93333 159.603 6.93333C161.629 6.93333 163.379 6.44267 164.829 5.44C164.957 5.35467 165.064 5.26933 165.192 5.184C166.771 3.92533 167.795 2.09067 168.413 0.0213333H167.304C166.728 1.792 165.853 3.30667 164.531 4.352C164.445 4.43733 164.339 4.50133 164.232 4.56533C162.973 5.41867 161.416 5.86667 159.603 5.86667C155.016 5.86667 149.661 3.15733 145.757 1.17333C145.16 0.874667 144.627 0.597333 144.115 0.341333L143.432 0H141L143.645 1.30133C144.157 1.55733 144.712 1.83467 145.288 2.13333Z" fill="#DFD6CF"/>
<path d="M38.8053 451.68C44.352 436.107 38.7627 429.835 13.6533 413.216C11.6693 411.893 9.664 410.571 7.616 409.184C4.992 407.413 2.47467 405.707 0 404V404.768C2.368 406.389 4.75733 408.011 7.27467 409.717C9.30133 411.083 11.3067 412.427 13.312 413.728C38.08 430.133 43.6053 436.277 38.208 451.445C33.3227 465.184 23.872 476.811 13.8667 489.12C9.216 494.859 4.45867 500.704 0 506.955V508.064C4.58667 501.557 9.51467 495.477 14.3573 489.525C24.4053 477.173 33.8773 465.483 38.8053 451.659V451.68Z" fill="#DFD6CF"/>
<path d="M431.738 748.165C460.047 744.944 490.404 712.155 490.788 684.379C491.386 641.797 466.917 607.771 443.237 574.875C439.226 569.285 435.066 563.504 431.14 557.829L428.772 554.416C417.636 538.373 405.007 520.176 400.89 500.528C397.412 483.867 392.1 445.104 397.882 431.707C402.127 421.893 414.202 416.283 425.871 410.864C433.935 407.109 441.551 403.568 446.906 398.725L447.162 398.491C459.364 387.44 469.626 381.772 477.946 381.488C481.722 381.36 486.415 381.189 493.05 380.571C501.946 379.739 507.194 378.437 511.034 377.499C513.466 376.901 515.236 376.453 516.794 376.453C520.634 376.453 523.855 379.184 534.5 388.187C565.967 414.832 565.37 461.168 564.815 505.989C564.09 562.373 563.343 620.699 627.172 639.152C636.346 641.797 645.284 643.163 653.732 643.163C677.732 643.163 698.148 632.432 712.804 612.165C734.308 582.405 740.026 535.984 727.013 496.624C696.997 405.787 625.274 353.84 548.132 304.347C478.01 259.355 411.237 246.96 354.127 238.875C349.989 238.299 346.063 238 342.437 238C319.29 238 308.282 249.776 294.351 264.688C289.018 270.405 283.492 276.293 276.644 282.331C268.794 289.221 258.831 293.936 249.167 298.501C233.423 305.947 218.554 312.965 212.41 328.603C199.375 361.776 231.397 387.611 259.663 410.437C272.741 420.997 285.092 430.96 292.346 440.923C321.039 480.432 312.463 547.056 286.437 584.496C278.309 596.187 262.735 610.629 246.245 625.947C218.938 651.291 187.983 680.027 182.522 704.155C179.962 715.504 180.623 723.44 184.57 728.389C187.877 732.528 193.445 734.533 201.594 734.533C215.013 734.533 234.213 729.008 254.543 723.163C279.396 716.016 307.578 707.909 331.599 707.909C343.055 707.909 352.549 709.68 360.591 713.349C369.85 717.573 377.7 723.653 385.274 729.563C397.796 739.291 409.615 748.485 426.34 748.485C428.09 748.485 429.903 748.379 431.716 748.165H431.738ZM361.061 712.368C352.869 708.635 343.247 706.821 331.62 706.821C307.45 706.821 279.183 714.949 254.266 722.117C233.999 727.941 214.863 733.445 201.594 733.445C193.786 733.445 188.495 731.568 185.423 727.707C181.69 723.035 181.071 715.397 183.567 704.389C188.964 680.581 219.791 651.973 246.97 626.715C263.503 611.376 279.119 596.869 287.311 585.093C313.551 547.355 322.17 480.155 293.199 440.283C285.882 430.213 273.466 420.187 260.324 409.584C232.357 387.013 200.655 361.413 213.391 328.987C219.386 313.755 234.063 306.8 249.615 299.461C259.343 294.875 269.391 290.117 277.348 283.12C284.239 277.061 289.786 271.131 295.14 265.413C308.9 250.693 319.759 239.067 342.458 239.067C346.042 239.067 349.925 239.365 353.999 239.941C410.981 248.005 477.626 260.379 547.578 305.264C624.548 354.651 696.122 406.469 726.031 496.987C738.938 536.048 733.284 582.085 711.972 611.568C697.53 631.557 677.391 642.117 653.754 642.117C645.413 642.117 636.58 640.795 627.492 638.149C599.226 629.979 581.327 613.168 572.815 586.8C565.178 563.184 565.562 534.128 565.924 506.032C566.5 460.976 567.098 414.384 535.247 387.397C520.036 374.512 519.61 374.299 510.82 376.475C507.023 377.413 501.796 378.693 492.986 379.525C486.394 380.144 481.7 380.315 477.946 380.443C469.37 380.741 458.881 386.501 446.479 397.723L446.223 397.957C440.996 402.693 433.444 406.213 425.444 409.925C413.583 415.429 401.316 421.147 396.922 431.323C391.034 444.955 396.367 483.995 399.866 500.784C404.005 520.645 416.698 538.928 427.898 555.077L430.266 558.491C434.191 564.165 438.351 569.947 442.383 575.536C465.956 608.304 490.34 642.16 489.743 684.4C489.359 711.728 459.493 743.963 431.631 747.141C429.861 747.333 428.09 747.44 426.383 747.44C410.02 747.44 398.351 738.352 385.978 728.752C378.34 722.821 370.447 716.677 361.082 712.411L361.061 712.368Z" fill="#DFD6CF"/>
<path d="M351.129 421.363C352.964 421.363 354.436 418.76 355.865 412.936C361.22 391.155 378.905 362.333 406.383 347.016C434.18 331.507 452.697 327.475 462.66 325.32C467.609 324.253 470.084 323.699 470.681 322.397C470.916 321.907 470.831 321.309 470.468 320.627C468.548 317.128 434.116 297.864 384.601 293.853L382.511 293.683C378.052 293.32 374.191 293 370.5 293C357.572 293 347.161 296.605 322.841 317.149C319.001 320.392 315.076 323.4 311.279 326.323C299.524 335.347 289.369 343.112 290.031 351.965C290.543 358.749 297.263 365.491 311.172 373.149C326.575 381.64 335.961 398.493 342.169 409.629C346.116 416.691 348.697 421.363 351.172 421.363H351.129ZM311.428 372.595C297.903 365.149 291.097 358.387 290.607 351.923C289.967 343.432 299.993 335.752 311.62 326.856C315.417 323.933 319.364 320.925 323.204 317.661C347.353 297.245 357.679 293.661 370.436 293.661C374.105 293.661 377.945 293.981 382.404 294.344L384.495 294.515C432.879 298.419 468.036 317.619 469.849 320.947C470.212 321.629 470.148 321.949 470.041 322.141C469.572 323.144 466.905 323.741 462.468 324.701C452.484 326.877 433.903 330.909 406.02 346.461C378.393 361.885 360.58 390.899 355.204 412.808C353.881 418.141 352.537 420.744 351.087 420.744C348.996 420.744 346.201 415.709 342.639 409.352C336.388 398.152 326.959 381.192 311.385 372.616L311.428 372.595Z" fill="#DFD6CF"/>
<path d="M355.327 457.592C357.183 457.592 358.463 455.373 359.359 450.595C364.906 421.219 376.916 379.619 417.044 357.432C429.439 350.563 443.455 345.144 459.86 340.813C463.167 339.939 466.687 337.571 470.122 335.267C474.538 332.28 479.124 329.208 483.348 329.208C483.839 329.208 484.33 329.251 484.778 329.336C487.146 329.763 488.916 331.128 490.623 332.451C492.543 333.944 494.356 335.352 496.874 335.352C497.812 335.352 498.794 335.16 499.839 334.733C501.631 334.029 502.57 332.643 503.466 331.299C504.746 329.4 505.94 327.608 509.567 327.928C513.172 328.227 515.114 330.979 517.162 333.88C518.591 335.907 520.084 338.019 522.196 339.192C523.732 340.045 526.506 340.963 528.959 340.963C530.666 340.963 531.882 340.515 532.564 339.619C533.204 338.765 533.332 337.549 532.906 336.035C531.498 331 520.724 326.307 513.578 323.192C511.466 322.275 509.652 321.485 508.479 320.867C497.855 315.235 487.252 310.477 478.292 306.552C440.49 290.019 406.015 279.928 372.927 275.704C369.194 275.235 365.972 275 363.05 275C346.751 275 334.122 282.125 308.991 305.507C302.826 311.245 296.468 316.173 290.346 320.931C276.607 331.597 265.748 340.024 266.004 350.627C266.218 358.989 273.471 367.907 288.874 378.68C313.663 396.024 330.111 422.371 341.012 439.8C347.732 450.531 352.148 457.635 355.37 457.635L355.327 457.592ZM289.194 378.104C273.983 367.459 266.794 358.691 266.602 350.541C266.346 340.259 277.098 331.917 290.708 321.357C296.852 316.579 303.21 311.651 309.396 305.891C334.399 282.637 346.922 275.555 363.028 275.555C365.93 275.555 369.13 275.789 372.82 276.259C405.844 280.461 440.255 290.552 477.994 307.064C486.954 310.989 497.535 315.747 508.138 321.357C509.332 321.997 511.167 322.787 513.279 323.704C520.298 326.755 530.922 331.384 532.244 336.12C532.607 337.443 532.543 338.467 532.01 339.149C531.327 340.045 529.94 340.237 528.916 340.237C526.698 340.237 523.988 339.384 522.474 338.531C520.49 337.443 519.06 335.395 517.652 333.411C515.604 330.509 513.492 327.523 509.588 327.181C505.578 326.819 504.234 328.888 502.911 330.851C502.015 332.173 501.183 333.411 499.583 334.051C498.602 334.435 497.727 334.627 496.852 334.627C494.57 334.627 492.82 333.283 490.986 331.875C489.215 330.509 487.38 329.08 484.863 328.653C484.372 328.568 483.839 328.525 483.327 328.525C478.911 328.525 474.26 331.661 469.759 334.691C466.239 337.059 462.89 339.32 459.711 340.152C443.242 344.483 429.204 349.944 416.746 356.835C376.383 379.149 364.308 420.941 358.74 450.445C357.908 454.797 356.799 456.931 355.327 456.931C352.447 456.931 347.86 449.571 341.503 439.395C330.58 421.923 314.09 395.512 289.194 378.083V378.104Z" fill="#DFD6CF"/>
<path d="M433.796 725.557C448.388 723.893 462.127 713.867 468.826 700.021C474.927 687.371 478.234 665.909 459.29 635.531C451.162 622.475 442.287 609.312 433.711 596.576C409.178 560.16 386.01 525.749 376.431 491.232C365.615 452.192 374.298 419.979 403.78 389.877C429.316 363.808 463.044 348.853 496.346 348.853C521.37 348.853 543.706 357.664 559.215 373.643C576.26 391.2 584.794 416.907 583.855 447.947C583.642 455.157 583.3 462.603 582.938 470.496C581.658 498.528 580.186 530.293 584.708 556.725C589.914 587.125 602.266 605.899 622.447 614.133C633.263 618.549 643.503 620.768 652.911 620.768C669.999 620.768 684.548 613.301 694.98 599.2C712.708 575.2 716.954 534.112 705.562 496.949C681.092 417.205 622.255 369.611 535.279 318.624C469.21 279.904 413.402 267.957 362.948 260.811C359.194 260.277 355.61 260 352.303 260C331.226 260 321.199 270.731 308.506 284.32C303.62 289.547 298.586 294.923 292.314 300.448C285.103 306.784 278.831 310.645 273.284 314.059C264.388 319.52 256.73 324.235 248.26 336.864C231.492 361.931 253.935 377.312 277.679 393.589C290.223 402.187 303.215 411.083 310.17 421.621C353.86 487.819 336.239 558.432 305.156 602.443C296.282 615.029 283.311 626.912 269.572 639.477C252.783 654.859 235.418 670.752 225.498 688.523C221.231 696.16 220.015 701.344 221.786 704.373C223.087 706.592 225.967 707.659 230.554 707.659C238.746 707.659 251.759 704.267 266.842 700.32C287.983 694.816 314.287 687.947 337.54 687.947C349.85 687.947 360.41 689.909 368.922 693.771C377.391 697.632 384.559 703.2 391.492 708.597C402.906 717.472 413.658 725.835 428.89 725.835C430.49 725.835 432.132 725.749 433.775 725.557H433.796ZM369.199 693.195C360.495 689.227 350.148 687.307 337.562 687.307C314.244 687.307 287.876 694.176 266.714 699.701C251.674 703.627 238.703 706.997 230.575 707.019C226.223 707.019 223.535 706.037 222.34 704.032C220.698 701.216 221.914 696.245 226.052 688.821C235.93 671.157 253.252 655.285 270.02 639.947C283.78 627.339 296.772 615.456 305.69 602.805C323.908 577.013 334.66 547.595 336.772 517.728C339.204 483.595 330.436 451.125 310.703 421.259C303.684 410.635 290.65 401.696 278.042 393.056C254.554 376.949 232.367 361.76 248.794 337.205C257.156 324.683 264.794 320.011 273.604 314.592C279.172 311.179 285.466 307.296 292.719 300.917C299.012 295.392 304.068 289.973 308.954 284.747C321.54 271.285 331.503 260.64 352.282 260.64C355.546 260.64 359.108 260.917 362.842 261.429C413.231 268.576 468.975 280.501 534.938 319.157C621.786 370.037 680.516 417.568 704.922 497.099C716.271 534.091 712.068 574.944 694.447 598.795C684.143 612.725 669.786 620.107 652.89 620.107C643.567 620.107 633.412 617.888 622.682 613.515C602.714 605.365 590.49 586.763 585.327 556.597C580.804 530.229 582.276 498.485 583.556 470.496C583.919 462.603 584.26 455.157 584.474 447.947C585.412 416.715 576.836 390.859 559.663 373.173C544.026 357.067 521.54 348.192 496.346 348.192C462.874 348.192 428.954 363.211 403.311 389.408C387.652 405.408 377.988 421.899 373.743 439.861C369.967 455.904 370.628 472.736 375.791 491.381C385.391 526.005 408.58 560.437 433.156 596.917C441.732 609.653 450.607 622.816 458.735 635.851C477.53 665.995 474.266 687.221 468.228 699.723C461.636 713.376 448.09 723.275 433.711 724.896C432.09 725.088 430.468 725.173 428.89 725.173C413.892 725.173 403.204 716.853 391.898 708.064C384.943 702.645 377.732 697.056 369.199 693.152V693.195Z" fill="#DFD6CF"/>
<path d="M349.178 363.254C355.215 363.254 359.546 357.43 364.175 348.683C372.261 333.409 389.157 326.006 398.223 322.038C402.81 320.033 404.538 319.286 404.325 318.006C404.133 316.939 402.959 316.491 396.687 316.065C377.786 314.785 335.375 332.811 330.49 346.379C329.359 349.515 330.191 352.374 332.922 354.614C340.197 360.651 345.082 363.211 349.199 363.211L349.178 363.254ZM331.898 346.913C336.357 334.518 375.781 317.515 394.661 317.515C395.322 317.515 395.962 317.515 396.581 317.579C400.271 317.835 401.914 318.091 402.575 318.305C401.786 318.859 399.674 319.777 397.626 320.673C388.389 324.705 371.194 332.235 362.853 347.979C357.605 357.878 353.765 361.739 349.178 361.739C345.445 361.739 340.858 359.265 333.861 353.483C331.621 351.627 330.959 349.473 331.898 346.891V346.913Z" fill="#DFD6CF"/>
<path d="M367.094 362.509C381.622 336.035 408.182 326.797 429.686 321.699C431.755 321.208 431.947 320.141 431.883 319.565C431.371 315.256 411.232 307 381.174 307C377.782 307 374.304 307.107 370.87 307.32C357.131 308.152 324.747 327.309 313.12 341.496C310.091 345.187 308.726 348.237 309.046 350.605C309.856 356.493 315.083 359.096 321.163 362.125C327.584 365.325 334.859 368.952 338.422 377.4C340.491 382.328 343.2 384.824 346.486 384.824C352.054 384.824 359.008 377.315 367.115 362.531L367.094 362.509ZM339.382 376.973C335.691 368.163 328.224 364.429 321.632 361.144C315.83 358.264 310.816 355.768 310.091 350.435C309.814 348.408 311.136 345.549 313.931 342.157C325.43 328.141 357.408 309.197 370.934 308.387C374.368 308.173 377.803 308.067 381.174 308.067C410.72 308.067 430.411 316.237 430.816 319.693C430.88 320.248 429.984 320.547 429.451 320.675C407.734 325.816 380.918 335.16 366.176 361.997C353.931 384.291 344.736 389.688 339.403 376.973H339.382Z" fill="#DFD6CF"/>
<path d="M430.338 775.757C462.103 772.131 499.927 734.392 510.061 705.549C527.661 655.48 496.365 615.16 466.093 576.163C436.887 538.531 409.282 502.989 422.701 459.704C434.391 422.008 472.151 401.656 501.741 401.656C517.698 401.656 531.479 407.309 540.589 417.592C551.405 429.795 555.65 448.333 552.877 471.203C543.341 549.773 540.503 635.725 628.098 661.069C638.146 663.971 648.066 665.443 657.602 665.443C694.487 665.443 718.018 644.323 731.266 626.595C756.674 592.611 765.506 541.773 753.218 500.109C742.807 464.781 722.306 430.499 690.583 395.341C643.415 343.075 579.159 298.147 494.167 257.955L490.498 256.205C454.743 239.288 417.773 221.795 378.839 212.152C376.535 211.576 373.975 210.893 371.245 210.168C359.213 206.968 344.258 203 331.415 203C326.274 203 321.815 203.661 318.189 204.963C312.642 206.947 309.527 210.744 306.498 214.413C304.237 217.144 301.911 219.981 298.583 222.008C296.429 223.331 292.205 224.952 287.767 226.68C280.578 229.453 273.111 232.333 270.765 235.107C266.221 240.44 267.479 243.64 268.674 246.755C269.549 248.973 270.359 251.085 269.293 254.221L268.461 256.696C264.151 269.368 257.033 277.14 247.106 280.013C244.226 280.845 240.642 281.891 236.397 283.235C224.13 287.139 219.095 293.155 214.231 298.979C210.498 303.459 206.957 307.683 200.279 311.096C200.109 311.096 199.895 311.096 199.682 311.096C192.002 311.096 133.762 314.936 129.282 329.251C128.087 333.112 130.69 337.293 137.069 341.709C145.047 347.235 151.085 347.875 154.946 347.875C156.823 347.875 158.53 347.704 160.173 347.555C161.581 347.427 162.903 347.299 164.162 347.299C168.855 347.299 173.591 348.621 180.077 364.643C181.677 368.589 182.914 371.811 183.938 374.499C188.973 387.683 189.143 387.853 201.922 393.315C205.101 394.659 209.047 396.344 214.061 398.669C230.53 406.264 233.901 414.883 238.167 425.805C240.429 431.565 242.989 438.115 247.831 445.475C253.015 453.347 259.095 459.683 264.983 465.805C275.415 476.664 285.271 486.925 288.407 504.056C293.847 533.731 277.741 562.061 259.522 588.259C250.69 600.973 232.535 615.757 213.314 631.416C180.674 657.997 143.682 688.141 143.554 716.045C143.469 731.981 147.565 744.205 155.714 752.397C164.589 761.315 178.071 765.645 196.951 765.645C224.322 765.645 257.943 756.408 287.618 748.28C310.978 741.88 331.159 736.333 344.045 736.333C346.967 736.333 349.442 736.632 351.383 737.208C363.821 740.899 373.677 748.792 383.234 756.429C395.885 766.563 407.853 776.12 424.941 776.12C426.69 776.12 428.482 776.013 430.274 775.821L430.338 775.757ZM351.874 735.715C349.741 735.075 347.202 734.776 344.109 734.776C331.01 734.776 310.743 740.344 287.277 746.765C257.687 754.872 224.151 764.088 196.994 764.088C178.541 764.088 165.399 759.907 156.823 751.288C148.973 743.395 145.026 731.533 145.09 716.003C145.218 688.803 181.911 658.893 214.295 632.525C233.602 616.803 251.821 601.955 260.781 589.069C279.17 562.595 295.447 533.944 289.901 503.736C286.679 486.157 276.674 475.747 266.093 464.717C260.247 458.637 254.21 452.344 249.111 444.6C244.354 437.368 241.815 430.925 239.597 425.208C235.202 413.965 231.725 405.112 214.722 397.261C209.687 394.936 205.719 393.251 202.541 391.885C194.32 388.372 188.589 382.378 185.346 373.901C184.322 371.213 183.085 367.971 181.485 364.024C175.277 348.728 170.434 345.741 164.183 345.741C162.861 345.741 161.495 345.869 160.045 346.019C158.445 346.168 156.781 346.339 154.967 346.339C150.999 346.339 145.495 345.677 137.943 340.451C132.162 336.461 129.751 332.835 130.733 329.677C134.615 317.24 188.909 312.568 199.703 312.568C199.959 312.568 200.13 312.568 200.237 312.568L200.407 311.885L200.727 312.547C207.81 308.963 211.671 304.376 215.383 299.917C220.333 294.008 225.005 288.419 236.866 284.643C241.09 283.299 244.653 282.275 247.533 281.443C263.042 276.963 263.234 276.728 269.89 257.165L270.722 254.691C271.959 251.043 270.957 248.483 270.082 246.2C268.93 243.256 267.949 240.717 271.917 236.067C274.029 233.592 281.623 230.648 288.322 228.067C292.845 226.317 297.111 224.675 299.394 223.288C302.935 221.133 305.346 218.211 307.671 215.373C310.701 211.704 313.559 208.227 318.701 206.392C322.178 205.155 326.466 204.515 331.437 204.515C344.087 204.515 358.935 208.461 370.882 211.64C373.613 212.365 376.173 213.048 378.498 213.624C417.282 223.224 454.189 240.696 489.879 257.571L493.549 259.32C578.349 299.405 642.455 344.227 689.495 396.344C721.069 431.331 741.463 465.421 751.81 500.536C763.97 541.773 755.245 592.077 730.093 625.699C717.037 643.149 693.869 663.949 657.623 663.949C648.237 663.949 638.466 662.499 628.546 659.619C542.082 634.616 544.919 549.347 554.391 471.373C557.229 448.077 552.855 429.133 541.741 416.611C532.354 406.008 518.167 400.184 501.783 400.184C471.661 400.184 433.218 420.899 421.314 459.299C407.661 503.309 436.781 540.835 464.962 577.123C494.978 615.8 526.039 655.8 508.695 705.101C498.69 733.539 461.442 770.765 430.21 774.328C428.461 774.52 426.733 774.627 425.047 774.627C408.471 774.627 396.717 765.219 384.258 755.256C374.615 747.533 364.631 739.555 351.917 735.757L351.874 735.715Z" fill="#DFD6CF"/>
</g>
<defs>
<clipPath id="clip0_578_155663">
<rect width="343" height="463" fill="white"/>
</clipPath>
</defs>
</svg>
