<svg width="36" height="36" viewBox="0 0 36 36" fill="none" xmlns="http://www.w3.org/2000/svg">
<path fill-rule="evenodd" clip-rule="evenodd" d="M34.6688 21.8075C33.0395 29.0397 26.8961 34.7086 19.1174 35.3892C11.3387 36.0697 3.74526 31.1795 1.1267 23.8796C19.9023 28.9848 20.7248 17.8634 34.6737 21.8016M34.895 15.8371L34.8735 15.839C34.8735 15.839 34.9229 15.8456 34.895 15.8371ZM34.9741 15.8736C34.9955 16.0562 35.0169 16.2387 35.0329 16.4218C35.0753 16.9062 35.0952 17.3818 35.099 17.8589C27.181 15.7689 23.0982 17.9595 18.9224 20.2017C18.0985 20.6426 17.3192 21.0363 16.5793 21.3831C12.1026 23.4726 8.98014 23.8054 4.59448 22.8439C4.27189 22.7528 3.94931 22.6616 3.61454 22.5553C3.94931 22.6616 4.27728 22.7523 4.59448 22.8439C3.35568 22.5725 2.01009 22.1967 0.510214 21.7312C0.348324 20.9968 0.233469 20.242 0.166121 19.4722C0.109134 18.8208 0.0903001 18.1716 0.104707 17.5302C13.9025 21.2918 18.0217 16.2936 24.7479 14.9294C25.8563 14.7023 27.0334 14.5776 28.3376 14.6045C30.2068 14.6417 32.3318 14.9982 34.8779 15.8278L34.9737 15.8682L34.9741 15.8736ZM32.9244 9.49487C33.2725 10.1262 33.5849 10.7823 33.856 11.4638C26.1054 9.48935 22.0639 11.6547 17.9292 13.8716C16.2765 14.7593 14.8177 15.4456 13.4569 15.9498C10.3987 17.0798 7.856 17.2806 4.73848 16.7397C3.37822 16.5061 1.91279 16.1244 0.247181 15.6247C0.413871 14.3679 0.713997 13.1483 1.13867 11.9883C12.3225 14.4543 16.5901 10.7178 22.2402 9.14404C24.0672 8.63703 26.0442 8.35558 28.4456 8.58487C29.791 8.71125 31.2646 9.00001 32.9244 9.49487ZM16.0723 0.521885C20.971 0.093305 25.5731 1.73024 29.0282 4.70428C23.5371 4.12694 20.164 5.93545 16.7287 7.77652C14.7653 8.83247 13.0753 9.60413 11.4987 10.1218C9.02577 10.9348 6.84417 11.1094 4.33017 10.7706C3.5453 10.6657 2.72834 10.5039 1.85869 10.298C4.46192 4.96045 9.72017 1.07763 16.0723 0.521885Z" fill="#333333"/>
</svg>
