<svg width="244" height="104" viewBox="0 0 244 104" fill="none" xmlns="http://www.w3.org/2000/svg">
<path d="M121.77 15H123.117C133.083 15.7553 140.393 20.2113 145.046 28.368C152.602 41.6143 147.233 58.062 134.073 64.8006C132.527 65.5922 131.218 65.9642 130.146 65.9167C126.542 65.753 124.575 61.5068 126.667 58.49C127.851 56.7781 130.61 56.0774 132.362 54.6928C141.993 47.0731 140.987 32.0687 129.927 26.4547C117.856 20.3287 103.97 30.4827 106.133 44.0101C106.906 48.8521 109.405 52.6592 113.63 55.4312C114.939 56.2914 117.201 57.0005 118.253 58.469C120.523 61.6285 118.079 66.2146 114.277 65.9922C113.227 65.9307 111.928 65.4593 110.379 64.5782C86.9618 51.2522 94.795 16.2713 121.77 15Z" fill="#333333"/>
<path d="M128.688 55.8996C125.462 57.4338 123.559 60.1142 124.328 63.958C124.343 64.0338 124.337 64.1122 124.31 64.1845C124.283 64.2568 124.237 64.3201 124.176 64.3671C123.085 65.2052 121.997 65.2109 120.912 64.3842C120.85 64.3382 120.803 64.276 120.775 64.2046C120.746 64.1331 120.738 64.0552 120.751 63.9794C121.292 60.7804 120.21 58.3684 117.503 56.7434C112.589 53.803 109.088 51.374 107.836 45.3994C106.229 37.7629 110.5 29.909 118.087 27.6419C127.094 24.953 136.465 30.9957 137.412 40.4646C138.084 47.2063 134.879 52.955 128.688 55.8996ZM134.042 46.3241C132.545 46.2901 130.304 45.5699 128.764 45.2673C127.897 45.1011 127.627 43.7801 128.299 43.1451C129.031 42.4547 130.062 42.9661 130.802 43.0854C132.088 43.2928 133.378 43.5386 134.672 43.8227C134.861 43.8653 134.955 43.7886 134.955 43.5926V40.0896C134.955 39.8794 134.856 39.8084 134.659 39.8766C133.049 40.4164 131.441 40.9647 129.834 41.5215C128.743 41.9008 127.551 41.5811 127.766 40.1919C127.802 39.9647 127.899 39.7517 128.046 39.5758C128.194 39.4 128.387 39.2682 128.604 39.1947L133.915 37.3964C133.954 37.3833 133.99 37.3614 134.02 37.3322C134.05 37.3031 134.073 37.2675 134.087 37.2281C134.102 37.1887 134.107 37.1465 134.103 37.1048C134.098 37.0631 134.085 37.0229 134.063 36.9873L132.228 33.9446C132.118 33.76 131.991 33.7486 131.847 33.9105C130.753 35.135 129.673 36.3694 128.608 37.6137C127.88 38.466 126.937 39.2629 126.02 38.1208C125.846 37.9035 125.754 37.6315 125.76 37.3526C125.765 37.0737 125.868 36.8056 126.049 36.5952L129.893 32.1335C129.919 32.1037 129.938 32.0683 129.949 32.03C129.959 31.9917 129.961 31.9514 129.953 31.9121C129.946 31.8728 129.93 31.8355 129.906 31.803C129.883 31.7705 129.852 31.7437 129.817 31.7244L126.891 30.1349C126.859 30.118 126.824 30.1087 126.789 30.1079C126.753 30.1071 126.718 30.1147 126.686 30.1301C126.654 30.1455 126.627 30.1683 126.606 30.1966C126.585 30.2248 126.571 30.2577 126.565 30.2926C126.227 32.2443 125.821 34.1733 125.347 36.0796C124.992 37.5072 123.06 37.2856 122.962 35.9134C122.844 34.2259 123.698 31.5284 124.02 29.7641C124.026 29.73 124.025 29.6949 124.016 29.6613C124.007 29.6278 123.991 29.5966 123.968 29.5701C123.946 29.5436 123.918 29.5224 123.887 29.5081C123.856 29.4937 123.821 29.4866 123.787 29.4871L121.203 29.4914C121.034 29.4914 120.966 29.5752 121 29.7428C121.384 31.6065 121.749 33.4744 122.096 35.3466C122.455 37.2941 119.973 37.8225 119.47 35.3935C119.12 33.7088 118.797 32.0085 118.501 30.2926C118.465 30.0823 118.352 30.0283 118.163 30.1306L115.144 31.7585C114.96 31.8579 114.935 31.99 115.067 32.1548C116.705 34.1492 117.889 35.5313 118.62 36.3012C120.125 37.8907 117.964 39.5612 116.708 38.1166C115.518 36.7444 114.327 35.358 113.135 33.9574C112.997 33.7955 112.873 33.8054 112.763 33.9872L110.94 37.064C110.836 37.2401 110.881 37.3595 111.076 37.422C112.809 37.9788 114.529 38.5782 116.235 39.2203C117.981 39.8808 117.114 42.1948 115.249 41.5769C113.654 41.0456 112.042 40.5002 110.416 39.9405C110.202 39.8666 110.093 39.9433 110.09 40.1706L110.052 43.5414C110.051 43.5792 110.059 43.6167 110.075 43.6511C110.09 43.6855 110.113 43.7159 110.142 43.7401C110.171 43.7642 110.205 43.7815 110.241 43.7907C110.278 43.7998 110.316 43.8005 110.352 43.7928C112.044 43.4406 113.707 43.111 115.342 42.8042C117.22 42.4547 117.888 44.9136 115.478 45.4079C114 45.7119 112.51 46.0088 111.008 46.2986C110.861 46.327 110.816 46.4108 110.873 46.55C112.37 50.2447 114.64 51.9322 118.04 53.7945C118.962 54.2973 119.398 55.009 120.053 55.8059C120.219 56.0104 120.304 55.9806 120.307 55.7164C120.315 51.2788 120.319 46.8455 120.319 42.4164C120.315 38.7345 124.772 38.8709 124.755 42.2672C124.733 46.6793 124.736 51.0941 124.764 55.5118C124.767 55.7846 124.848 55.8116 125.009 55.5928C125.656 54.7022 126.126 54.1524 127.178 53.6752C130.37 52.2319 132.705 49.8583 134.185 46.5543C134.197 46.5297 134.202 46.5028 134.2 46.4758C134.198 46.4488 134.19 46.4227 134.176 46.3998C134.161 46.3769 134.142 46.358 134.118 46.3448C134.095 46.3316 134.069 46.3245 134.042 46.3241Z" fill="#333333"/>
<path d="M171.247 67.2437C171.404 67.2632 171.487 67.3564 171.494 67.5233C171.738 72.0101 163.93 72.2939 163.501 67.5567C163.495 67.4867 163.514 67.4167 163.556 67.3614C163.598 67.3061 163.659 67.2699 163.725 67.2604L165.779 67.0016C165.814 66.9975 165.849 67.0013 165.883 67.0129C165.917 67.0245 165.948 67.0436 165.974 67.0689C166 67.0942 166.02 67.1251 166.034 67.1596C166.048 67.194 166.055 67.2313 166.054 67.2688C165.991 69.9858 169.406 69.9733 169.17 67.2562C169.154 67.067 169.234 66.9849 169.41 67.01L171.247 67.2437Z" fill="#333333"/>
<path d="M82.1556 74.9218C71.2589 72.3678 73.1838 88.5649 83.1851 84.9223C83.2223 84.9088 83.2623 84.9049 83.3015 84.9109C83.3407 84.9169 83.3777 84.9326 83.409 84.9566C83.4404 84.9806 83.4651 85.0121 83.4808 85.048C83.4965 85.084 83.5027 85.1234 83.4989 85.1624L83.298 87.3769C83.2869 87.5149 83.213 87.5991 83.0763 87.6294C67.4509 91.0568 67.974 69.5117 82.6494 72.2395C82.7833 72.2671 82.8405 72.3471 82.821 72.4796L82.4779 74.7065C82.45 74.8942 82.3426 74.9659 82.1556 74.9218Z" fill="#333333"/>
<path d="M94.0734 79.3324C96.4466 80.0563 97.9423 81.4078 97.3825 84.1109C96.4675 88.5295 89.2645 88.0525 85.9136 87.9144C85.6379 87.9032 85.5 87.7596 85.5 87.4834L85.5042 72.4199C85.5042 72.3084 85.5599 72.247 85.6713 72.2358C88.596 72.0015 97.4869 70.9638 96.5134 76.3239C96.2586 77.7214 95.331 78.5457 94.0609 79.0479C93.7935 79.1539 93.7977 79.2487 94.0734 79.3324ZM88.4497 74.7799L88.596 78.4495C88.5976 78.4929 88.6077 78.5356 88.6258 78.5751C88.6439 78.6146 88.6696 78.6501 88.7014 78.6796C88.7333 78.7092 88.7706 78.7321 88.8113 78.7472C88.852 78.7623 88.8952 78.7692 88.9386 78.7675L90.8229 78.6922C91.518 78.6638 92.1757 78.4173 92.6513 78.0069C93.1269 77.5965 93.3814 77.0559 93.359 76.5038L93.3548 76.3364C93.3443 76.0626 93.2658 75.7942 93.124 75.5465C92.9821 75.2988 92.7797 75.0766 92.5282 74.8928C92.2767 74.7089 91.9812 74.567 91.6584 74.4751C91.3357 74.3832 90.9921 74.3432 90.6474 74.3573L88.7673 74.4326C88.7235 74.4342 88.6806 74.4445 88.6409 74.4629C88.6011 74.4813 88.5655 74.5074 88.5359 74.5397C88.5064 74.572 88.4835 74.6099 88.4687 74.6511C88.4539 74.6924 88.4475 74.7361 88.4497 74.7799ZM88.6336 81.1275L88.6503 85.4373C88.6503 85.4972 88.674 85.5547 88.7164 85.597C88.7587 85.6394 88.8161 85.6632 88.8759 85.6632L90.9608 85.6549C91.8208 85.6517 92.6449 85.4204 93.252 85.0116C93.8591 84.6029 94.1996 84.0502 94.1988 83.4748V83.0564C94.1984 82.7709 94.1138 82.4885 93.95 82.2252C93.7861 81.9619 93.5462 81.723 93.2439 81.522C92.9416 81.3211 92.5829 81.1621 92.1882 81.0542C91.7936 80.9463 91.3708 80.8916 90.944 80.8931L88.8592 80.9015C88.7993 80.9015 88.742 80.9253 88.6996 80.9677C88.6573 81.0101 88.6336 81.0675 88.6336 81.1275Z" fill="#333333"/>
<path d="M103.721 85.5677L110.365 85.4181C110.382 85.4175 110.4 85.4207 110.416 85.4273C110.433 85.4339 110.447 85.4439 110.46 85.4566C110.473 85.4694 110.483 85.4847 110.49 85.5015C110.496 85.5184 110.5 85.5366 110.5 85.5549L110.492 87.8504C110.492 87.8867 110.478 87.9215 110.453 87.9471C110.429 87.9728 110.395 87.9872 110.36 87.9872L100.631 88C100.596 88 100.563 87.9856 100.538 87.9599C100.514 87.9343 100.5 87.8995 100.5 87.8632L100.508 72.1368C100.508 72.1005 100.522 72.0657 100.547 72.0401C100.571 72.0144 100.605 72 100.64 72L109.88 72.0385C109.898 72.0384 109.916 72.0422 109.933 72.0496C109.949 72.057 109.964 72.0679 109.976 72.0815C109.989 72.0951 109.998 72.1112 110.004 72.1288C110.01 72.1464 110.013 72.1651 110.012 72.1838L109.901 74.4921C109.899 74.5276 109.883 74.5609 109.858 74.5849C109.833 74.6088 109.8 74.6215 109.765 74.6204L103.537 74.3853C103.518 74.384 103.499 74.3869 103.482 74.3938C103.464 74.4006 103.448 74.4113 103.435 74.425C103.422 74.4388 103.412 74.4553 103.405 74.4735C103.399 74.4917 103.396 74.5112 103.397 74.5306L103.557 78.4889C103.558 78.5069 103.561 78.5246 103.569 78.5409C103.576 78.5573 103.586 78.5721 103.598 78.5844C103.611 78.5967 103.626 78.6063 103.642 78.6127C103.658 78.619 103.675 78.622 103.692 78.6214L108.719 78.4547C108.737 78.4541 108.754 78.4573 108.771 78.4639C108.787 78.4705 108.802 78.4805 108.815 78.4932C108.827 78.506 108.837 78.5213 108.844 78.5382C108.851 78.555 108.855 78.5732 108.855 78.5915V80.7716C108.855 80.7899 108.851 80.808 108.844 80.8249C108.837 80.8418 108.827 80.8571 108.815 80.8698C108.802 80.8826 108.787 80.8926 108.771 80.8992C108.754 80.9058 108.737 80.9089 108.719 80.9084L103.623 80.8015C103.588 80.8015 103.554 80.8159 103.53 80.8416C103.505 80.8672 103.491 80.902 103.491 80.9383L103.586 85.4352C103.586 85.4532 103.59 85.4709 103.597 85.4872C103.604 85.5036 103.615 85.5184 103.627 85.5307C103.64 85.543 103.654 85.5526 103.671 85.559C103.687 85.5653 103.704 85.5683 103.721 85.5677Z" fill="#333333"/>
<path d="M115.98 74.3064L111.646 74.4897C111.627 74.4909 111.608 74.4879 111.59 74.4809C111.572 74.4739 111.555 74.463 111.542 74.449C111.528 74.4349 111.517 74.418 111.51 74.3994C111.503 74.3807 111.499 74.3606 111.5 74.3405L111.528 72.1449C111.528 72.1065 111.543 72.0696 111.569 72.0425C111.595 72.0153 111.63 72 111.666 72H123.362C123.399 72 123.434 72.0153 123.46 72.0425C123.485 72.0696 123.5 72.1065 123.5 72.1449L123.468 74.3533C123.468 74.3727 123.464 74.3919 123.457 74.4098C123.45 74.4277 123.439 74.4438 123.426 74.4573C123.413 74.4709 123.397 74.4814 123.38 74.4885C123.362 74.4955 123.344 74.4988 123.326 74.4983L119.138 74.3192C119.119 74.318 119.1 74.321 119.082 74.328C119.064 74.335 119.047 74.3459 119.034 74.36C119.02 74.374 119.009 74.3909 119.002 74.4096C118.995 74.4282 118.991 74.4483 118.992 74.4684L119.089 87.7868C119.09 87.8062 119.087 87.8255 119.08 87.8436C119.073 87.8616 119.063 87.8781 119.05 87.892C119.037 87.9059 119.022 87.917 119.005 87.9246C118.988 87.9321 118.97 87.936 118.951 87.936L116.101 87.9999C116.083 88.0005 116.065 87.9972 116.047 87.9901C116.03 87.9831 116.015 87.9725 116.001 87.959C115.988 87.9455 115.978 87.9293 115.97 87.9115C115.963 87.8936 115.959 87.8744 115.96 87.855L116.126 74.4556C116.126 74.4355 116.123 74.4155 116.116 74.3968C116.109 74.3781 116.098 74.3612 116.084 74.3472C116.07 74.3331 116.054 74.3223 116.036 74.3152C116.018 74.3082 115.999 74.3052 115.98 74.3064Z" fill="#333333"/>
<path d="M134.162 74.4317L132.723 74.4108C132.64 74.4093 132.559 74.4379 132.495 74.4915C132.43 74.5451 132.386 74.6204 132.369 74.7042C131.555 78.9136 129.262 86.0788 125.056 87.9739C125.013 87.9937 124.965 88.0024 124.918 87.9994C124.871 87.9964 124.825 87.9816 124.784 87.9565C124.744 87.9313 124.71 87.8964 124.686 87.8549C124.661 87.8133 124.647 87.7664 124.645 87.7181L124.501 85.3535C124.493 85.2249 124.538 85.1187 124.637 85.0348C127.79 82.427 129.627 76.0501 130.396 72.218C130.426 72.0727 130.515 72 130.663 72L137.282 72.0293C137.416 72.0293 137.484 72.0964 137.484 72.2306L137.5 87.6049C137.5 87.7558 137.427 87.8313 137.282 87.8313L134.54 87.8271C134.494 87.8271 134.45 87.8081 134.418 87.7743C134.386 87.7405 134.367 87.6946 134.367 87.6468L134.4 74.6791C134.4 74.517 134.321 74.4345 134.162 74.4317Z" fill="#333333"/>
<path d="M143.78 77.9005C146.651 77.5404 150.969 78.3495 151.436 81.9118C152.283 88.3671 144.543 88.1087 140.723 87.9393C140.574 87.9336 140.5 87.8532 140.5 87.6978L140.528 72.2034C140.528 72.1763 140.533 72.1495 140.543 72.1246C140.553 72.0996 140.568 72.077 140.586 72.0581C140.604 72.0391 140.625 72.0243 140.649 72.0143C140.672 72.0043 140.698 71.9995 140.723 72L143.537 72.0763C143.645 72.0791 143.698 72.137 143.695 72.25L143.549 77.6802C143.544 77.8468 143.621 77.9203 143.78 77.9005ZM143.606 80.3488V85.5334C143.606 85.5462 143.608 85.5588 143.613 85.5707C143.618 85.5825 143.625 85.5932 143.633 85.6023C143.642 85.6113 143.652 85.6185 143.664 85.6234C143.675 85.6283 143.687 85.6308 143.699 85.6308H145.305C146.113 85.6308 146.887 85.3617 147.458 84.8827C148.029 84.4037 148.35 83.754 148.35 83.0766V82.8055C148.35 82.1281 148.029 81.4785 147.458 80.9995C146.887 80.5205 146.113 80.2513 145.305 80.2513H143.699C143.687 80.2513 143.675 80.2539 143.664 80.2588C143.652 80.2637 143.642 80.2708 143.633 80.2799C143.625 80.2889 143.618 80.2997 143.613 80.3115C143.608 80.3233 143.606 80.336 143.606 80.3488Z" fill="#333333"/>
<path d="M156.397 72H153.603C153.546 72 153.5 72.0499 153.5 72.1114V87.8886C153.5 87.9501 153.546 88 153.603 88H156.397C156.454 88 156.5 87.9501 156.5 87.8886V72.1114C156.5 72.0499 156.454 72 156.397 72Z" fill="#333333"/>
<path d="M163.647 82.6539C165.57 80.0657 167.527 77.5058 169.518 74.9743C170.165 74.154 170.653 73.246 170.983 72.2503C171.027 72.1174 171.118 72.0509 171.257 72.0509L173.303 72.0552C173.442 72.0552 173.508 72.1287 173.499 72.2758C173.224 77.4125 173.22 82.5478 173.487 87.6817C173.495 87.8429 173.422 87.9249 173.266 87.9278L170.431 87.9999C170.303 88.0027 170.24 87.9377 170.242 87.8047L170.463 77.2272C170.464 77.2181 170.462 77.2092 170.457 77.2018C170.452 77.1944 170.445 77.1889 170.436 77.1861C170.428 77.1833 170.418 77.1833 170.409 77.1861C170.4 77.1889 170.392 77.1944 170.386 77.2018C168.474 79.8974 166.481 82.5181 164.408 85.0638C163.955 85.6211 163.496 86.505 163.029 87.7156C162.986 87.8259 162.906 87.8839 162.792 87.8896L160.758 87.9744C160.725 87.9763 160.691 87.9708 160.66 87.9582C160.628 87.9456 160.6 87.9262 160.576 87.9013C160.553 87.8764 160.535 87.8466 160.523 87.8139C160.511 87.7811 160.506 87.7462 160.509 87.7114C160.809 82.586 160.806 77.462 160.501 72.3394C160.498 72.2959 160.504 72.2522 160.518 72.2111C160.532 72.17 160.554 72.1324 160.583 72.1006C160.612 72.0687 160.647 72.0434 160.685 72.0261C160.724 72.0088 160.765 71.9999 160.808 72H163.594C163.741 72 163.812 72.0764 163.807 72.2291L163.52 82.6072C163.517 82.7571 163.56 82.7727 163.647 82.6539Z" fill="#333333"/>
</svg>
