<svg width="244" height="104" viewBox="0 0 244 104" fill="none" xmlns="http://www.w3.org/2000/svg">
<path fill-rule="evenodd" clip-rule="evenodd" d="M35.9887 55.875C34.6962 55.875 33.506 55.6478 32.4144 55.1899C31.3227 54.732 30.3735 54.1073 29.5739 53.3122C28.7707 52.5171 28.1428 51.5835 27.6864 50.5045C27.2264 49.4218 27 48.2682 27 47.0401V46.9939C27 45.7658 27.2227 44.6157 27.6718 43.5473C28.1208 42.4753 28.7488 41.5346 29.5593 40.7253C30.3698 39.916 31.33 39.2771 32.4399 38.8121C33.5462 38.3435 34.7729 38.1128 36.1128 38.1128C36.9197 38.1128 37.6535 38.1767 38.318 38.3081C38.9788 38.4394 39.5885 38.624 40.1435 38.8582C40.6984 39.0961 41.2096 39.38 41.6769 39.7066C42.1479 40.0332 42.5933 40.3952 43.0131 40.7857L41.0234 43.0184C40.3187 42.3794 39.5703 41.8647 38.7817 41.4743C37.9931 41.0803 37.0949 40.8851 36.0909 40.8851C35.2512 40.8851 34.4735 41.0448 33.7616 41.3607C33.046 41.6802 32.429 42.1168 31.9106 42.6634C31.3885 43.21 30.9869 43.8525 30.7021 44.5908C30.4173 45.3256 30.2749 46.1101 30.2749 46.9442V46.9939C30.2749 47.8281 30.4173 48.6161 30.7021 49.3615C30.9869 50.1069 31.3885 50.7565 31.9106 51.3138C32.429 51.8675 33.046 52.3041 33.7616 52.6236C34.4735 52.943 35.2512 53.0992 36.0909 53.0992C37.1643 53.0992 38.088 52.904 38.8583 52.5029C39.6323 52.1018 40.3954 51.5587 41.1512 50.8701L43.1373 52.833C42.6846 53.3086 42.2099 53.7275 41.717 54.0967C41.2205 54.4623 40.6875 54.7853 40.1179 55.055C39.5484 55.3248 38.9204 55.5271 38.2413 55.6691C37.5622 55.8076 36.8101 55.875 35.9887 55.875ZM214.24 37.875C214.47 37.875 214.7 37.9034 214.93 37.9637C215.153 38.0205 215.375 38.1057 215.598 38.2193C215.817 38.3329 216.014 38.4784 216.189 38.6453C216.361 38.8085 216.511 39.0002 216.631 39.2167C216.755 39.4297 216.847 39.6533 216.909 39.877C216.971 40.1006 217 40.3313 217 40.562C217 40.7928 216.971 41.0199 216.909 41.2436C216.85 41.4672 216.759 41.6837 216.639 41.8967C216.514 42.1097 216.368 42.3013 216.2 42.4682C216.029 42.635 215.832 42.777 215.613 42.8941C215.394 43.0113 215.171 43.1 214.945 43.1603C214.714 43.2171 214.477 43.2491 214.24 43.2491C214.003 43.2491 213.765 43.2171 213.539 43.1603C213.309 43.1 213.086 43.0113 212.867 42.8941C212.644 42.777 212.451 42.635 212.279 42.4682C212.108 42.3013 211.962 42.1097 211.841 41.8967C211.717 41.6837 211.626 41.4672 211.567 41.2436C211.505 41.0199 211.476 40.7928 211.476 40.562C211.476 40.3313 211.505 40.1006 211.567 39.877C211.629 39.6533 211.721 39.4297 211.845 39.2167C211.969 39.0038 212.119 38.8121 212.29 38.6453C212.465 38.4784 212.663 38.3329 212.882 38.2193C213.104 38.1057 213.327 38.0205 213.55 37.9637C213.78 37.9034 214.01 37.875 214.24 37.875ZM214.24 38.5565C214.065 38.5565 213.893 38.5778 213.725 38.6204C213.557 38.663 213.389 38.7305 213.221 38.8156C213.061 38.9008 212.915 39.0073 212.787 39.128C212.659 39.2522 212.546 39.3907 212.455 39.5575C212.36 39.7172 212.29 39.8841 212.243 40.0509C212.199 40.2177 212.173 40.3881 212.173 40.562C212.173 40.736 212.199 40.9064 212.243 41.0696C212.29 41.2365 212.36 41.3997 212.451 41.5595C212.539 41.7157 212.648 41.8541 212.776 41.9819C212.904 42.1061 213.05 42.2126 213.21 42.3013C213.378 42.3901 213.546 42.4575 213.718 42.4966C213.886 42.5463 214.061 42.5676 214.24 42.5676C214.419 42.5676 214.594 42.5463 214.762 42.4966C214.934 42.4575 215.101 42.3901 215.266 42.3013C215.375 42.241 215.474 42.1771 215.565 42.1026H214.831L214.539 41.6056C214.444 41.4352 214.357 41.3039 214.28 41.201C214.207 41.1051 214.149 41.0377 214.097 41.0057L214.094 41.0022C214.068 40.9809 214.032 40.9631 213.988 40.9525C213.94 40.9419 213.878 40.9348 213.813 40.9348H213.674V42.1026H212.951V39.0961H214.057C214.404 39.0961 214.66 39.1245 214.824 39.1813C214.912 39.2096 214.992 39.2522 215.061 39.3055C215.131 39.3552 215.193 39.4191 215.248 39.4936C215.299 39.5682 215.335 39.6462 215.361 39.7243C215.39 39.8024 215.401 39.8841 215.401 39.9693C215.401 40.0864 215.379 40.1964 215.335 40.2994C215.291 40.4023 215.226 40.4982 215.142 40.5833C215.058 40.6685 214.955 40.7395 214.842 40.7857L214.795 40.8034C214.857 40.8638 214.923 40.9383 214.996 41.0306C215.065 41.1229 215.145 41.2365 215.229 41.3678L215.653 42.028L215.7 41.9819C215.828 41.8541 215.938 41.7157 216.029 41.5595C216.12 41.3997 216.189 41.2365 216.233 41.0696C216.277 40.9064 216.299 40.736 216.299 40.562C216.299 40.3881 216.277 40.2177 216.23 40.0509C216.186 39.8841 216.116 39.7172 216.022 39.554C215.93 39.3907 215.821 39.2522 215.693 39.128C215.565 39.0073 215.419 38.9008 215.255 38.8156C215.087 38.7305 214.919 38.663 214.751 38.6204C214.583 38.5778 214.411 38.5565 214.24 38.5565ZM213.674 40.2958H214.097C214.331 40.2958 214.484 40.2639 214.554 40.2106C214.587 40.1858 214.612 40.1574 214.627 40.1254C214.645 40.0899 214.652 40.0509 214.652 40.0083C214.652 39.9799 214.649 39.9551 214.641 39.9302C214.634 39.9089 214.62 39.8841 214.605 39.8663C214.59 39.845 214.572 39.8237 214.55 39.8095C214.528 39.7918 214.503 39.7776 214.474 39.7669C214.444 39.7563 214.393 39.7456 214.327 39.7385C214.258 39.7314 214.171 39.7279 214.061 39.7279H213.674V40.2958ZM156.726 50.0111C156.858 49.9188 156.989 49.8371 157.117 49.7519C158.541 48.8184 160.008 48.0197 161.436 47.3808L159.771 44.2075L156.726 50.0111ZM162.641 49.6739C159.198 51.1185 156.328 53.1738 153.776 55.5804H150.633L159.742 38.2832L169.012 55.5804H165.74L162.641 49.6739ZM56.9525 53.0992C57.8178 53.0992 58.6174 52.943 59.3476 52.6236C60.0741 52.3041 60.6948 51.8711 61.2132 51.3244C61.7317 50.7778 62.1369 50.1353 62.4253 49.397C62.7211 48.6622 62.8671 47.8742 62.8671 47.0401V46.9939C62.8671 46.1598 62.7211 45.3717 62.4253 44.6263C62.1369 43.8809 61.7244 43.2349 61.2023 42.6847C60.6729 42.1381 60.0449 41.7015 59.3074 41.3749C58.5699 41.0483 57.7704 40.8851 56.9014 40.8851C56.0325 40.8851 55.2329 41.0448 54.5064 41.3607C53.7798 41.6802 53.1592 42.1168 52.6371 42.6634C52.1223 43.21 51.7134 43.8525 51.425 44.5908C51.1292 45.3256 50.9832 46.1101 50.9832 46.9442V46.9939C50.9832 47.8281 51.1292 48.6161 51.425 49.3615C51.7134 50.1069 52.126 50.7494 52.648 51.2996C53.1774 51.8498 53.8091 52.2864 54.5429 52.6129C55.2804 52.9395 56.0836 53.0992 56.9525 53.0992ZM56.9014 55.875C55.5396 55.875 54.2983 55.6443 53.1738 55.1757C52.0493 54.7107 51.0854 54.0754 50.2786 53.2767C49.4717 52.4745 48.8437 51.5374 48.391 50.4654C47.9383 49.3934 47.7119 48.2505 47.7119 47.0401V46.9939C47.7119 45.7835 47.9383 44.6441 48.391 43.5721C48.8437 42.4966 49.4827 41.5595 50.3041 40.7502C51.1256 39.9409 52.1004 39.2984 53.2249 38.8227C54.3494 38.3506 55.5907 38.1128 56.9525 38.1128C58.3107 38.1128 59.552 38.3435 60.6765 38.8121C61.801 39.2771 62.7649 39.9125 63.5717 40.7111C64.3786 41.5133 65.0066 42.4504 65.4593 43.5189C65.912 44.5944 66.142 45.7338 66.142 46.9442V46.9939C66.142 48.2043 65.912 49.3437 65.4593 50.4157C65.0066 51.4877 64.3713 52.4283 63.5462 53.2377C62.7247 54.0434 61.7499 54.6894 60.6254 55.1651C59.5009 55.6336 58.2596 55.875 56.9014 55.875ZM79.2453 55.8502C78.1062 55.8502 77.073 55.694 76.1493 55.371C75.2256 55.055 74.437 54.5758 73.7835 53.9369C73.13 53.3015 72.6261 52.51 72.272 51.5693C71.9215 50.6287 71.7463 49.539 71.7463 48.2895V38.4074H74.8167V48.1724C74.8167 49.7732 75.2147 50.9943 76.0069 51.8285C76.7992 52.6626 77.8945 53.0779 79.2965 53.0779C80.6838 53.0779 81.7682 52.6768 82.5604 51.8782C83.3563 51.0759 83.7543 49.8797 83.7543 48.2895V38.4074H86.8248V48.1475C86.8248 49.4218 86.6459 50.5435 86.2844 51.509C85.923 52.4745 85.4155 53.2802 84.762 53.9263C84.1048 54.5723 83.3125 55.055 82.3815 55.371C81.4505 55.694 80.4064 55.8502 79.2453 55.8502ZM100.826 46.9194C101.94 46.9194 102.823 46.6602 103.477 46.142C104.138 45.6273 104.463 44.9209 104.463 44.0371V43.9874C104.463 43.0503 104.145 42.3404 103.502 41.8541C102.867 41.3714 101.962 41.13 100.801 41.13H96.2808V46.9194H100.826ZM93.2103 38.4074H101.064C102.173 38.4074 103.156 38.5565 104.01 38.8582C104.868 39.1635 105.58 39.5824 106.149 40.1219C106.62 40.5975 106.982 41.1477 107.234 41.7689C107.486 42.3901 107.61 43.0752 107.61 43.8277V43.8774C107.61 44.5802 107.507 45.2156 107.296 45.7799C107.088 46.3443 106.796 46.8413 106.427 47.2779C106.058 47.7109 105.616 48.0765 105.105 48.3818C104.594 48.6835 104.028 48.9178 103.407 49.0811L108.165 55.5804H104.514L100.173 49.5958H96.2808V55.5804H93.2103V38.4074ZM117.873 41.2045H112.283V38.4074H126.584V41.2045H120.994V55.5804H117.873V41.2045ZM138.431 48.8113L131.432 38.4074H135.083L140.019 46.0142L145.003 38.4074H148.552L141.553 48.7368V55.5804H138.431V48.8113ZM181.779 46.9194C182.893 46.9194 183.776 46.6602 184.43 46.142C185.091 45.6273 185.415 44.9209 185.415 44.0371V43.9874C185.415 43.0503 185.098 42.3404 184.455 41.8541C183.82 41.3714 182.915 41.13 181.754 41.13H177.234V46.9194H181.779ZM174.163 38.4074H182.02C183.126 38.4074 184.108 38.5565 184.963 38.8582C185.821 39.1635 186.533 39.5824 187.102 40.1219C187.573 40.5975 187.935 41.1477 188.187 41.7689C188.438 42.3901 188.563 43.0752 188.563 43.8277V43.8774C188.563 44.5802 188.46 45.2156 188.249 45.7799C188.041 46.3443 187.748 46.8413 187.38 47.2779C187.011 47.7109 186.573 48.0765 186.058 48.3818C185.547 48.6835 184.981 48.9178 184.36 49.0811L189.118 55.5804H185.467L181.126 49.5958H177.234V55.5804H174.163V38.4074ZM201.042 52.8578C201.965 52.8578 202.805 52.7159 203.561 52.4283C204.313 52.1373 204.955 51.7362 205.485 51.2179C206.014 50.7032 206.427 50.0856 206.719 49.3686C207.015 48.6587 207.161 47.8813 207.161 47.0401V46.9939C207.161 46.1562 207.015 45.3753 206.719 44.6547C206.427 43.9306 206.014 43.3094 205.485 42.7947C204.955 42.2765 204.313 41.8683 203.561 41.5701C202.805 41.2755 201.965 41.13 201.042 41.13H197.566V52.8578H201.042ZM194.495 38.4074H201.067C202.444 38.4074 203.707 38.624 204.857 39.057C206.007 39.4901 206.996 40.0899 207.829 40.8602C208.658 41.6269 209.3 42.5321 209.753 43.5721C210.206 44.6086 210.432 45.7338 210.432 46.9442V46.9939C210.432 48.2043 210.206 49.3331 209.753 50.3802C209.3 51.4274 208.658 52.3361 207.829 53.0992C206.996 53.873 206.007 54.4765 204.857 54.9166C203.707 55.3603 202.444 55.5804 201.067 55.5804H194.495V38.4074Z" fill="#333333"/>
<path fill-rule="evenodd" clip-rule="evenodd" d="M142.623 65.125C142.96 65.125 143.223 65.0573 143.418 64.9258C143.612 64.7904 143.707 64.5912 143.707 64.328V64.3092C143.707 64.0611 143.612 63.8694 143.421 63.734C143.231 63.5987 142.941 63.531 142.549 63.531H140.982V65.125H142.623ZM142.333 62.6701C142.656 62.6701 142.912 62.6024 143.103 62.4746C143.297 62.343 143.392 62.1476 143.392 61.8806V61.8656C143.392 61.6325 143.308 61.4521 143.139 61.3205C142.971 61.1927 142.725 61.1288 142.403 61.1288H140.982V62.6701H142.333ZM140 60.2227H142.527C143.176 60.2227 143.667 60.3957 144 60.7378C144.249 60.9972 144.377 61.3167 144.377 61.7002V61.7152C144.377 61.8919 144.352 62.0498 144.308 62.1852C144.264 62.3205 144.205 62.437 144.132 62.5423C144.059 62.6438 143.974 62.734 143.875 62.8092C143.777 62.8844 143.678 62.9521 143.575 63.0047C143.744 63.0686 143.894 63.14 144.029 63.219C144.165 63.3017 144.282 63.3957 144.381 63.5047C144.48 63.6175 144.557 63.7453 144.608 63.8957C144.663 64.0461 144.689 64.219 144.689 64.4182V64.4333C144.689 64.6964 144.641 64.9258 144.542 65.125C144.443 65.3205 144.3 65.4897 144.121 65.6212C143.938 65.7528 143.718 65.8506 143.462 65.922C143.201 65.9934 142.916 66.0273 142.608 66.0273H140V60.2227ZM148.161 63.7378L145.919 60.2227H147.088L148.667 62.7942L150.264 60.2227H151.399L149.161 63.7152V66.0273H148.161V63.7378ZM157.546 60.2227H158.601L160.319 62.9633L162.033 60.2227H163.088V66.0273H162.106V61.8656L160.326 64.6024H160.293L158.527 61.8806V66.0273H157.546V60.2227ZM168.637 63.7227L167.663 61.3994L166.696 63.7227H168.637ZM167.22 60.1814H168.139L170.619 66.0273H169.575L169 64.625H166.333L165.755 66.0273H164.74L167.22 60.1814ZM174.707 63.0987C175.062 63.0987 175.348 63.0122 175.557 62.8393C175.766 62.6626 175.872 62.4258 175.872 62.1212V62.11C175.872 61.7942 175.769 61.5536 175.564 61.3882C175.359 61.2265 175.07 61.1438 174.7 61.1438H173.253V63.0987H174.707ZM172.271 60.2227H174.784C175.139 60.2227 175.454 60.2754 175.725 60.3769C176 60.4784 176.231 60.6212 176.41 60.8055C176.56 60.9596 176.678 61.1513 176.758 61.3581C176.839 61.5686 176.879 61.8017 176.879 62.0573V62.0724C176.879 62.3092 176.846 62.5235 176.777 62.7152C176.711 62.907 176.619 63.0724 176.502 63.219C176.381 63.3656 176.242 63.4859 176.077 63.5949C175.912 63.6964 175.733 63.7754 175.535 63.8318L177.055 66.0273H175.886L174.498 64.0047H173.253V66.0273H172.271V60.2227ZM181.7 63.0987C182.055 63.0987 182.337 63.0122 182.549 62.8393C182.758 62.6626 182.864 62.4258 182.864 62.1212V62.11C182.864 61.7942 182.762 61.5536 182.557 61.3882C182.352 61.2265 182.062 61.1438 181.692 61.1438H180.245V63.0987H181.7ZM179.26 60.2227H181.777C182.132 60.2227 182.443 60.2754 182.718 60.3769C182.993 60.4784 183.22 60.6212 183.403 60.8055C183.553 60.9596 183.67 61.1513 183.751 61.3581C183.832 61.5686 183.872 61.8017 183.872 62.0573V62.0724C183.872 62.3092 183.839 62.5235 183.769 62.7152C183.703 62.907 183.612 63.0724 183.491 63.219C183.374 63.3656 183.234 63.4859 183.07 63.5949C182.905 63.6964 182.725 63.7754 182.524 63.8318L184.048 66.0273H182.879L181.491 64.0047H180.245V66.0273H179.26V60.2227ZM186.791 60.2227H187.777V66.0273H186.791V60.2227ZM193.89 65.1889C194.168 65.1889 194.421 65.1363 194.656 65.0273C194.89 64.922 195.088 64.7754 195.253 64.5874C195.418 64.4032 195.549 64.1851 195.641 63.937C195.736 63.6852 195.784 63.422 195.784 63.14V63.125C195.784 62.843 195.736 62.5761 195.641 62.3205C195.549 62.0724 195.418 61.8543 195.249 61.6701C195.081 61.4859 194.879 61.3355 194.645 61.2265C194.407 61.1175 194.15 61.0611 193.872 61.0611C193.593 61.0611 193.341 61.1137 193.106 61.2227C192.875 61.3318 192.674 61.4784 192.509 61.6626C192.344 61.8468 192.212 62.0648 192.121 62.313C192.026 62.5611 191.978 62.828 191.978 63.11V63.125C191.978 63.4032 192.026 63.6739 192.121 63.9258C192.212 64.1776 192.344 64.3957 192.513 64.5799C192.681 64.7641 192.883 64.9145 193.117 65.0235C193.355 65.1288 193.612 65.1889 193.89 65.1889ZM193.872 66.125C193.44 66.125 193.04 66.0461 192.681 65.8919C192.319 65.7303 192.011 65.5197 191.755 65.2491C191.495 64.9784 191.293 64.6588 191.15 64.2979C191.004 63.937 190.93 63.5498 190.93 63.14V63.125C190.93 62.7152 191.004 62.3318 191.15 61.9671C191.293 61.6062 191.498 61.2904 191.762 61.016C192.026 60.7415 192.337 60.5235 192.696 60.3656C193.055 60.2039 193.454 60.125 193.89 60.125C194.326 60.125 194.722 60.2039 195.081 60.3581C195.443 60.516 195.751 60.7303 196.007 61.0047C196.267 61.2754 196.469 61.5912 196.612 61.9521C196.758 62.313 196.832 62.7002 196.832 63.11V63.125C196.832 63.5348 196.758 63.9182 196.612 64.2829C196.469 64.6438 196.264 64.9633 196 65.234C195.736 65.5085 195.425 65.7265 195.066 65.8844C194.707 66.0461 194.308 66.125 193.872 66.125ZM200.099 61.1701H198.311V60.2227H202.886V61.1701H201.099V66.0273H200.099V61.1701ZM207.212 61.1701H205.421V60.2227H210V61.1701H208.212V66.0273H207.212V61.1701Z" fill="#333333"/>
</svg>
