<svg width="42" height="49" viewBox="0 0 42 49" fill="none" xmlns="http://www.w3.org/2000/svg">
<path fill-rule="evenodd" clip-rule="evenodd" d="M21.0445 9.93164C31.3646 9.93164 39.734 18.2669 39.734 28.5449C39.734 38.8231 31.3646 47.1584 21.0445 47.1584C10.7243 47.1584 2.35498 38.8231 2.35498 28.5449C2.35498 18.2669 10.7243 9.93164 21.0445 9.93164Z" fill="white" stroke="#1F1A17" stroke-width="0.105147"/>
<path fill-rule="evenodd" clip-rule="evenodd" d="M21.0445 16.3066C27.8301 16.3066 33.3331 21.7871 33.3331 28.5451C33.3331 35.3031 27.8301 40.7837 21.0445 40.7837C14.2588 40.7837 8.75595 35.3031 8.75595 28.5451C8.75595 21.7871 14.2588 16.3066 21.0445 16.3066ZM21.0445 14.8496C28.638 14.8496 34.7961 20.9826 34.7961 28.5451C34.7961 36.1077 28.638 42.2407 21.0445 42.2407C13.4511 42.2407 7.29297 36.1077 7.29297 28.5451C7.29297 20.9826 13.4511 14.8496 21.0445 14.8496Z" fill="#FFD900"/>
<path fill-rule="evenodd" clip-rule="evenodd" d="M32.8132 32.0746C32.5781 32.8527 32.2674 33.5981 31.8895 34.3025H10.2003C9.93019 33.7992 9.69404 33.2752 9.49561 32.7331L9.74365 32.7887C11.2791 31.8036 12.7085 31.2404 14.3846 30.611C15.0241 31.0406 15.6489 31.2776 16.1695 31.9442C17.5976 31.5236 18.8362 31.1696 20.2643 30.7491C20.7403 30.609 21.2275 30.3353 21.8374 30.2617C23.2652 30.5285 24.5444 30.94 25.4962 31.5625C25.9913 31.3218 26.5161 31.0513 27.2502 30.5729C29.1577 31.4515 31.0058 31.7161 32.8132 32.0746Z" fill="#066C4B"/>
<path fill-rule="evenodd" clip-rule="evenodd" d="M31.8889 34.3027C29.8201 38.1584 25.7396 40.783 21.0443 40.783C16.349 40.783 12.2685 38.1584 10.1997 34.3027H31.8889Z" fill="#0039A6"/>
<path fill-rule="evenodd" clip-rule="evenodd" d="M28.5617 38.2253C28.1374 38.5526 27.6911 38.8529 27.2253 39.1235C27.1431 39.0778 27.0692 39.0301 27.0067 38.9812C26.7499 39.2108 26.1641 39.4787 25.7429 39.4787C25.2013 39.4787 24.5037 39.2006 24.1181 38.9812C23.8087 39.2205 23.1429 39.4787 22.6553 39.4787C22.1676 39.4787 21.5359 39.2023 21.1925 38.9812C20.8653 39.2023 20.0852 39.4787 19.5316 39.4787C19.0431 39.4787 18.4722 39.2576 18.066 38.9812C17.6056 39.2576 17.104 39.4787 16.6229 39.4787C16.0044 39.4787 15.2418 39.2576 14.7675 38.9812C14.7457 38.9971 14.7236 39.0125 14.7012 39.0277C14.288 38.7792 13.891 38.5069 13.5115 38.2132C13.9209 38.1555 14.3133 37.9491 14.7675 37.7317C15.3373 38.0135 15.9357 38.2293 16.5199 38.2293C17.0353 38.2293 17.5919 37.9897 18.066 37.7317C18.5521 38.0081 19.0796 38.2293 19.5862 38.2293C20.0929 38.2293 20.6442 38.0508 21.1064 37.7317C21.5404 38.0309 22.1527 38.2293 22.6759 38.2293C23.1374 38.2293 23.6545 38.0043 24.0607 37.7317C24.5023 37.9794 25.1654 38.2293 25.7178 38.2293C26.1475 38.2293 26.6501 38.0804 27.0067 37.7317C27.4173 38.0151 27.9741 38.2293 28.4578 38.2293C28.4921 38.2293 28.5266 38.2272 28.5617 38.2253ZM31.1015 35.5772C30.8195 35.9763 30.5142 36.3579 30.1876 36.7201C30.1127 36.6867 30.0522 36.6527 30.0094 36.6188C29.6162 37.0192 29.0085 37.1724 28.5081 37.1724C28.0076 37.1724 27.3426 36.9108 27.0067 36.6188C26.7499 36.8743 26.1641 37.1724 25.7429 37.1724C25.2013 37.1724 24.5037 36.8629 24.1181 36.6188C23.8087 36.8851 23.1429 37.1724 22.6553 37.1724C22.1676 37.1724 21.5359 36.8648 21.1925 36.6188C20.8653 36.8648 20.0852 37.1724 19.5316 37.1724C19.0431 37.1724 18.4722 36.9263 18.066 36.6188C17.6056 36.9263 17.104 37.1724 16.6229 37.1724C16.0044 37.1724 15.2418 36.9263 14.7675 36.6188C14.3366 36.9673 13.7821 37.1724 13.2894 37.1724C12.7968 37.1724 12.2422 36.9264 11.8113 36.6189C11.5071 36.2739 11.2218 35.9118 10.9575 35.5341C11.2506 35.4381 11.538 35.3276 11.8113 35.2285C12.3612 35.5421 12.7967 35.7821 13.2894 35.7821C13.7821 35.7821 14.232 35.5136 14.7675 35.2285C15.3373 35.5421 15.9357 35.7821 16.5199 35.7821C17.0353 35.7821 17.5919 35.5155 18.066 35.2285C18.5521 35.536 19.0796 35.7821 19.5862 35.7821C20.0929 35.7821 20.6442 35.5836 21.1064 35.2285C21.5404 35.5614 22.1527 35.7821 22.6759 35.7821C23.1374 35.7821 23.6545 35.5318 24.0607 35.2285C24.5023 35.5042 25.1654 35.7821 25.7178 35.7821C26.1475 35.7821 26.6501 35.6166 27.0067 35.2285C27.4173 35.5438 27.9741 35.7821 28.4578 35.7821C28.9416 35.7821 29.5228 35.4953 29.9091 35.2285C30.161 35.3439 30.603 35.4728 31.1015 35.5772Z" fill="white"/>
<path fill-rule="evenodd" clip-rule="evenodd" d="M21.0445 13.1744C29.5666 13.1744 36.478 20.0574 36.478 28.5449C36.478 37.0325 29.5666 43.9156 21.0445 43.9156C12.5223 43.9156 5.61098 37.0325 5.61098 28.5449C5.61098 20.0574 12.5223 13.1744 21.0445 13.1744ZM21.0445 9.93164C31.3646 9.93164 39.734 18.2669 39.734 28.5449C39.734 38.823 31.3646 47.1584 21.0445 47.1584C10.7244 47.1584 2.35498 38.823 2.35498 28.5449C2.35498 18.2669 10.7244 9.93164 21.0445 9.93164Z" fill="#0039A6"/>
<path fill-rule="evenodd" clip-rule="evenodd" d="M36.2781 41.2249C36.2096 40.4853 36.3751 39.6217 36.7614 38.9292C37.2545 39.314 37.7239 40.5432 37.6665 40.6615C37.3711 41.2701 36.6727 40.8907 36.2781 41.2249ZM31.1159 35.3072C30.408 35.0444 29.6973 35.2543 29.2626 35.8026C28.9617 36.182 29.3913 36.569 29.8423 36.884C30.3178 36.3871 30.7278 35.8728 31.1159 35.3072ZM5.7811 41.0822C5.82275 40.3426 5.65389 39.5394 5.2676 38.847C4.77442 39.2317 4.37241 40.3403 4.42978 40.4585C4.72519 41.0671 5.37653 40.6978 5.7811 41.0822ZM12.1665 36.8084C11.6984 36.3078 11.3262 35.8417 10.9466 35.2686C11.6546 35.0058 12.3047 35.172 12.7395 35.7203C13.0403 36.0997 12.6174 36.4935 12.1665 36.8084ZM34.7727 41.4393C35.1222 41.6905 35.8296 42.6377 35.5315 42.984C35.1414 43.4371 33.8822 43.2322 33.1572 42.9485C33.6976 42.4856 34.2908 41.9605 34.7727 41.4393ZM8.94981 42.9803C8.3034 42.4504 7.70591 41.862 7.2936 41.414C6.94765 41.6652 6.24776 42.6202 6.54288 42.9665C6.92917 43.4195 8.23208 43.264 8.94981 42.9803Z" fill="#47A5AE" stroke="white" stroke-width="0.423231"/>
<path fill-rule="evenodd" clip-rule="evenodd" d="M29.1733 16.9527C29.2253 17.3331 29.2529 17.7217 29.2529 18.1163C29.2529 22.8353 25.4103 26.6622 20.6722 26.6622C15.9339 26.6622 12.0913 22.8353 12.0913 18.1163C12.0913 17.7217 12.1189 17.3334 12.171 16.9529C13.298 20.5616 16.6782 23.1828 20.6722 23.1828C24.666 23.1828 28.0463 20.5615 29.1733 16.9527ZM20.6721 8.68419C24.3321 8.68419 27.3001 11.6402 27.3001 15.2853C27.3001 18.9304 24.3321 21.8863 20.6721 21.8863C17.0121 21.8863 14.044 18.9304 14.044 15.2853C14.044 11.6402 17.0121 8.68419 20.6721 8.68419ZM20.766 8.38934C21.0292 8.00098 21.5047 7.64003 21.8346 7.62409C22.8108 7.57683 23.6301 7.27816 24.0093 6.39742C24.4165 5.45162 23.7141 4.66063 23.6219 4.25615C23.566 4.01071 23.6871 3.74393 23.6219 3.50062C23.5634 3.28221 23.3302 3.13938 23.2649 2.92283C23.1923 2.6813 23.1491 2.41917 23.1343 2.16739C22.9558 2.38953 22.7422 2.55537 22.6849 2.834C22.6122 3.18703 22.9342 3.54722 22.8634 3.90062C22.8051 4.19109 22.4084 4.35171 22.266 4.6117C22.1859 4.75806 22.2506 4.94841 22.2469 5.13764C22.245 5.24373 22.1213 5.38431 22.0078 5.3982C21.8853 5.41312 21.7341 5.32874 21.7191 5.13345C21.7116 5.0324 21.7477 4.91747 21.7477 4.83394C21.7477 4.54785 22.0736 4.22018 22.0453 3.93567C21.9865 3.34484 21.3951 3.20017 21.2568 2.7007C21.146 2.29994 21.4253 1.86703 21.3613 1.4563C21.3174 1.17478 21.1112 0.915067 21.005 0.670645C20.934 0.507045 20.9473 0.330114 21.0193 0.152344C20.5998 0.357241 20.2173 0.822314 20.103 1.23407C20.0112 1.56518 20.4154 1.91281 20.409 2.25623C20.3988 2.80119 19.6698 3.10649 19.5611 3.63402C19.4586 4.13125 19.919 4.763 19.9538 5.10185C19.9742 5.30088 19.9585 5.46848 19.7396 5.50054C19.5684 5.52571 19.3813 5.39755 19.3388 5.25324C19.2842 5.06774 19.4233 4.80914 19.338 4.65617C19.1919 4.39403 18.9091 4.19408 18.8471 3.90062C18.7822 3.59318 18.9641 3.28098 18.981 2.9673C18.9978 2.65371 18.7562 2.3886 18.5222 2.16589C18.5348 2.34366 18.5147 2.62696 18.4304 2.78954C18.2883 3.06323 17.9797 3.27903 17.8949 3.57518C17.821 3.83303 18.0602 3.99636 17.9469 4.23957C17.7946 4.56658 17.3155 4.94245 17.3745 5.58949C17.4812 6.75641 18.3939 7.52249 19.602 7.58933C20.0128 7.61207 20.4536 8.12264 20.766 8.38934Z" fill="#FFCB05"/>
<path fill-rule="evenodd" clip-rule="evenodd" d="M10.4067 32.4724L13.14 31.2298L14.2996 30.8066L13.8978 32.6723L13.7973 31.9393L12.1648 32.7722L12.5666 32.0392L10.4067 32.4724ZM23.6636 33.0415L26.4629 31.1239L27.2564 30.7007L26.9814 32.5664L26.9126 31.8334L25.7956 32.6663L26.0706 31.9334L23.6636 33.0415ZM15.7748 32.2463L20.4859 30.8531L21.7132 30.3555L20.9269 32.8713L21.0441 31.4883L18.4429 32.8462L19.405 31.5882L15.7748 32.2463Z" fill="#00923F"/>
<path fill-rule="evenodd" clip-rule="evenodd" d="M41.1757 38.4106C40.8985 38.1059 40.4529 37.7408 40.1756 37.3598C39.3248 38.5597 38.5927 39.808 37.6865 40.9121C37.1826 41.5259 36.3716 40.9485 36.2997 41.4957C36.653 43.8957 37.4207 44.3966 38.164 45.0093C39.0693 42.8096 40.1165 40.6101 41.1757 38.4106ZM40.2498 36.9329C39.4458 38.0196 38.5201 39.5306 37.7161 40.6174C37.7518 39.2153 34.8869 37.0896 33.0139 36.1321C31.8854 35.5553 30.321 34.6354 29.2236 35.7614C30.0468 34.1218 30.8699 32.5099 31.693 30.8703C32.4643 30.6894 34.125 31.3065 35.5981 31.8426C38.2473 32.8067 41.3984 35.1217 40.2498 36.9329ZM0.888672 38.3284C1.16592 38.0236 1.61791 37.5753 1.89525 37.1944C2.74618 38.3941 3.39464 39.7473 4.39496 40.8265C4.80119 41.2647 5.66849 40.787 5.76472 41.4135C5.41137 43.8133 4.64357 44.3144 3.90037 44.927C2.99497 42.7273 1.94786 40.5279 0.888672 38.3284ZM1.81457 36.8507C2.6186 37.9373 3.54432 39.4484 4.34825 40.5351C4.3125 39.1331 7.17753 37.0074 9.05048 36.0499C10.1789 35.4731 11.6423 34.5933 12.7397 35.7194C11.9166 34.0799 11.1945 32.4276 10.3713 30.788C9.60002 30.6072 7.93944 31.2242 6.46625 31.7603C3.81697 32.7245 0.665992 35.0395 1.81457 36.8507ZM20.9766 47.0502C24.814 47.0502 28.4396 47.5841 32.2679 48.6516C32.6933 47.7619 33.057 46.8409 33.5441 45.9827C34.0259 45.1336 34.7428 44.1651 35.2841 43.3517C34.7556 43.5805 34.0091 43.5257 33.5054 43.3517C30.0292 42.151 25.9978 41.1402 20.9764 41.1402C16.0048 41.1402 12.0136 42.151 8.5719 43.3517C8.0732 43.5257 7.33403 43.5805 6.8108 43.3517C7.34676 44.1651 8.05653 45.1336 8.53362 45.9827C9.01594 46.8409 9.37593 47.7619 9.79704 48.6516C13.5873 47.5841 17.1767 47.0502 20.9766 47.0502Z" fill="#47A5AE" stroke="white" stroke-width="0.423231"/>
</svg>
