<svg width="40" height="40" viewBox="0 0 40 40" fill="none" xmlns="http://www.w3.org/2000/svg">
<g clip-path="url(#clip0_263_154391)">
<path d="M24.6868 8.14662L27.5298 2.11906L26.9833 1.86401L26.6852 2.43787L26.4129 2.29277L26.6932 1.70433L26.2164 1.46464L25.9248 2.04452L25.705 1.93838L25.9685 1.32291L25.4171 1.09804L24.2041 4.08035C24.0028 3.99429 23.7979 3.91254 23.5935 3.83696L24.4201 0.646708L23.7689 0.484411L23.6073 1.07296L23.3638 1.01182L23.4939 0.406342L22.9039 0.293366L22.7775 0.898573L22.4973 0.852924L22.5767 0.211354L21.9351 0.127399L21.4981 3.26439C21.3311 3.23472 21.1631 3.20888 20.997 3.18726L21.1344 0.0351562H20.4549L20.4339 0.58424L20.1317 0.574927L20.1138 0.0351562H19.2199L19.2021 0.574927L18.8999 0.58424L18.879 0.0351562H18.1993L18.337 3.18815C18.1727 3.21045 18.0048 3.23723 17.8362 3.26806L17.3986 0.127453L16.757 0.211408L16.8365 0.852978L16.5562 0.898627L16.4298 0.293419L15.8398 0.406394L15.9699 1.01187L15.7264 1.07302L15.5648 0.484466L14.9136 0.646762L15.7466 3.85132C15.5402 3.9282 15.3327 4.01127 15.1282 4.09889L13.9166 1.0981L13.3651 1.32297L13.6287 1.93843L13.4089 2.04458L13.1173 1.46469L12.6404 1.70438L12.9207 2.29283L12.6485 2.43793L12.3503 1.86406L11.8037 2.11911L14.647 8.14668H6.70264V36.9429C6.70264 38.066 7.59355 38.9797 8.6886 38.9797H17.6992C18.2706 38.9797 18.7684 39.3707 19.0854 39.6987C19.4337 40.0591 19.6465 40.425 19.6486 40.4287L19.706 40.5282L19.761 40.4274C19.7689 40.4129 20.5635 38.9797 21.6344 38.9797H30.645C31.74 38.9797 32.6309 38.066 32.6309 36.943V8.14662H24.6868ZM14.9265 8.14662C15.1373 8.0353 15.5497 7.83429 16.1213 7.63428C16.9073 7.35928 18.1604 7.03142 19.6668 7.03142C20.9266 7.03142 22.1909 7.36219 23.0298 7.63952C23.6195 7.83467 24.0872 8.03138 24.3452 8.1466L14.9265 8.14662Z" fill="black"/>
<path d="M28.889 17.229C29.0046 17.3963 29.0382 17.5772 28.9785 17.7148C28.9287 17.8293 28.8216 17.902 28.6764 17.9195C28.3306 17.9632 28.1286 17.6228 27.8925 17.2317C27.8919 17.2307 27.8912 17.2296 27.8906 17.2287C28.2372 17.0226 28.5553 17.0227 28.889 17.229Z" fill="#ED1C24"/>
<path d="M32.3398 8.44141V36.9424C32.3398 37.9027 31.5795 38.684 30.6449 38.684H21.6343C21.1136 38.684 20.5785 38.9646 20.0869 39.4955C19.9279 39.6671 19.797 39.8393 19.7 39.9788C19.5979 39.8382 19.46 39.6641 19.2932 39.4915C18.9372 39.1231 18.3716 38.684 17.6991 38.684H8.68854C7.75397 38.684 6.99365 37.9027 6.99365 36.9424V8.44141H32.3398ZM29.3737 18.5582C30.1839 17.9283 29.8415 17.0617 29.7646 16.8943C29.7564 16.8766 29.7486 16.8598 29.7393 16.8468L29.7397 16.8466C29.1679 16.0068 28.1605 16.1343 27.3876 16.5423C27.0931 16.263 26.6939 16.1062 26.0826 16.3126C25.4478 16.5271 25.5384 17.3892 25.5393 17.3979L25.5605 17.5819L25.6456 17.4179C25.6545 17.4007 25.8672 17.0018 26.5206 17.0528C26.5688 17.0723 26.6154 17.095 26.6603 17.1205C25.7621 18.325 25.9916 20.3882 26.0401 20.7108L26.039 20.7101C26.0296 20.7247 25.8049 21.0666 25.7798 21.2819C25.7632 21.4236 25.8084 21.5101 25.8907 21.6672C25.9726 21.8238 26.0963 22.0605 26.244 22.5161C26.3063 22.7083 26.2922 22.9252 26.2761 23.1761C26.2698 23.2692 26.2635 23.3674 26.2604 23.4719L26.256 23.6124L26.356 23.5149C26.4046 23.4677 26.4597 23.4178 26.5174 23.3654C26.6667 23.2297 26.8338 23.0781 26.9556 22.9135C27.2402 24.5294 26.5521 25.0862 25.7906 25.4898C25.7885 25.3861 25.7861 25.2906 25.783 25.2058C25.6892 24.7515 25.0706 24.3991 24.4727 24.0584C23.8962 23.73 23.3004 23.3903 23.2909 23.0089L23.291 21.8305C23.3407 21.9118 23.4038 21.98 23.4846 22.0302C23.5653 22.0806 23.7102 22.1052 23.9272 22.1052C24.107 22.1052 24.2674 22.0877 24.2743 22.0869L24.4278 22.0699L24.2996 21.9824C24.1705 21.8939 23.8186 21.6314 23.743 21.4805C23.5743 21.1437 23.5638 20.8438 23.7151 20.4156C23.7384 20.5113 23.752 20.6118 23.765 20.7102C23.8033 20.996 23.8429 21.2913 24.1251 21.4509C24.255 21.5244 24.3949 21.5923 24.5387 21.5923C24.7279 21.5921 24.8867 21.4729 25.0105 21.2375L25.078 21.1089L24.9423 21.1562C24.887 21.1755 24.8337 21.1852 24.7839 21.1852C24.616 21.1852 24.5107 21.0736 24.4971 20.9688C24.4232 20.402 24.461 19.7196 24.5011 18.9971C24.5617 17.8987 24.6246 16.763 24.3275 15.7865C23.786 14.0047 22.8006 13.7386 22.2615 13.7386C22.1283 13.7386 22.0255 13.7552 21.9673 13.7675C21.9176 13.625 21.7744 13.249 21.6152 13.1436C21.5051 13.0708 21.388 13.034 21.2671 13.034C21.0864 13.034 20.9067 13.1211 20.7979 13.261C20.5766 13.5462 20.499 13.7545 20.4852 13.8677C20.4838 13.8677 20.4823 13.8677 20.4809 13.8677L20.1996 13.8667C19.6967 13.8667 19.4345 13.8852 19.3498 13.9267C19.222 13.989 19.1357 14.239 19.1039 14.3462C19.0346 14.3424 18.8947 14.3361 18.7324 14.3361C17.8448 14.3361 17.7746 14.516 17.7516 14.5753C17.6971 14.7146 17.6866 14.804 17.7174 14.865C17.7468 14.9234 17.8034 14.9379 17.8448 14.9484C17.8609 14.9526 17.8734 14.956 17.882 14.9598C17.7737 15.2469 17.7029 15.8131 17.7813 15.9871C17.8247 16.0833 17.9501 16.0959 18.0547 16.0959C18.14 16.0959 18.2429 16.0864 18.3524 16.0765C18.4821 16.0646 18.6295 16.0511 18.7736 16.0511C18.9514 16.0511 19.0954 16.0716 19.2136 16.1137C19.3083 16.1475 19.4056 16.2254 19.4514 16.3177C19.004 16.2512 17.4123 16.2125 17.0403 16.255C16.8804 16.2731 16.5791 16.3963 16.5837 16.7339L16.5845 16.7974L16.6469 16.7901C16.7803 16.774 16.862 16.7263 16.9342 16.6839C16.9983 16.6465 17.0587 16.611 17.1547 16.5977C17.7088 16.5211 18.7611 16.6294 19.2104 16.6757C19.2566 16.6804 19.2938 16.6841 19.3238 16.6871C19.2863 16.7175 19.2467 16.7404 19.2103 16.7507C19.065 16.7919 18.8198 16.8154 18.5373 16.8154C18.2881 16.8154 18.0379 16.7967 17.8846 16.7667L17.8143 16.7529L17.8173 16.8255C17.8381 17.3395 17.8798 17.6841 17.9485 17.91C17.987 18.0366 18.1979 18.0778 18.354 18.0909C18.2671 18.1724 18.179 18.2566 18.0904 18.3437L14.9874 15.775L16.0183 14.7006L16.4259 15.0518L16.8917 14.5798L16.501 14.2046L17.2364 13.3517L17.8615 13.9649L19.1502 12.5752L19.1313 10.9022L17.4654 10.897L16.138 12.2431L16.7697 12.8629L15.9122 13.6947L15.5431 13.3409L15.1207 13.7943L15.485 14.1895L14.4188 15.3044L14.3159 15.2191L14.2944 15.2081C14.239 15.1936 13.75 15.0692 13.5885 15.2218C13.4836 15.3204 13.4465 15.5605 13.4342 15.68C13.3268 15.6608 13.1193 15.6406 13.0165 15.7408C12.9055 15.8493 12.9564 16.1174 12.9899 16.2474C12.881 16.2716 12.677 16.3227 12.6111 16.3787C12.5158 16.4602 12.5249 16.7053 12.5299 16.7784L12.5347 16.8458L12.5717 16.8367C12.618 16.8765 12.6905 16.9359 12.789 17.0093L9.68737 20.2531L9.27661 19.8574L8.83585 20.3788L10.2015 21.72L10.6852 21.1803L10.2377 20.7266L13.3208 17.5125C13.3351 17.5323 13.3495 17.5497 13.3632 17.5636C13.4173 17.6185 13.4587 17.6641 13.4927 17.7016C13.6748 17.9014 13.6933 17.9027 14.1686 17.9362L14.4675 17.9577L14.351 17.8469C14.231 17.7332 14.1477 17.6582 14.0868 17.6032C14.0411 17.5621 14.0088 17.5329 13.9829 17.5069C14.1924 17.5272 14.3299 17.5745 14.5299 17.686C14.6551 17.7603 14.7968 17.8787 14.9459 18.0249C14.9482 18.029 14.9511 18.0328 14.9546 18.0362C14.9793 18.061 15.0043 18.0851 15.0294 18.1087C15.7198 18.818 16.532 20.0362 16.6259 20.1918C16.5721 20.286 16.5199 20.3828 16.4694 20.482C16.4324 20.5863 16.4208 20.6941 16.4095 20.7986C16.3945 20.9385 16.3803 21.0707 16.3099 21.1999C16.23 21.3469 15.928 21.4777 15.8185 21.5157L15.6293 21.5813L15.8243 21.6259C15.8381 21.629 16.1642 21.7031 16.3829 21.7031C16.4672 21.7031 16.5244 21.6925 16.5629 21.6696C16.7713 21.5463 16.8511 21.312 16.9617 20.9879C16.9852 20.919 17.0103 20.8454 17.0385 20.7671C17.1371 21.1106 17.2189 21.3918 17.4396 21.6198C16.8814 21.6933 15.8222 21.8953 15.4791 22.0767C15.3953 22.1208 15.3839 22.2104 15.373 22.2971C15.3682 22.3346 15.3636 22.3728 15.3532 22.4102C15.3128 22.3988 15.2709 22.3848 15.2288 22.3709C15.0694 22.318 14.9047 22.2633 14.788 22.3323C14.615 22.4484 14.5119 22.5742 14.4292 22.6754C14.3726 22.7445 14.3317 22.7928 14.2912 22.8184L14.2876 22.8137L14.2638 22.8323C14.2528 22.8363 14.2414 22.8388 14.2296 22.8396C14.0632 22.7499 13.9934 22.6709 13.9842 22.6298C13.982 22.6199 13.9834 22.6129 13.9894 22.605C14.5328 21.8917 14.6009 21.1188 14.1765 20.4841C13.7156 19.795 12.7659 19.4261 12.0144 19.6442C11.2886 19.8551 10.5246 20.4662 11.0066 22.1821L11.0569 22.361L11.1146 22.1846C11.6945 20.4128 12.1218 20.4551 12.4992 20.4933L12.5275 20.4952C12.9773 20.6197 13.2591 20.8267 13.3647 21.1104C13.555 21.6215 13.1626 22.3185 12.851 22.7983L12.8242 22.8398L13.4887 23.4376C13.3887 23.5062 13.1871 23.6513 13.0051 23.8226C12.8231 23.9938 12.661 24.1911 12.6401 24.3643C12.6126 24.5927 12.9615 24.9729 13.0015 25.0156L13.0191 25.0283C13.1442 25.0856 13.2728 25.1294 13.397 25.1717C13.5005 25.207 13.6019 25.2417 13.7006 25.283C13.7008 25.2831 13.7009 25.2831 13.701 25.2832C13.7145 25.2905 13.7274 25.2961 13.74 25.3C13.8894 25.3662 14.0327 25.4505 14.1684 25.5802L14.2949 25.7012L14.2072 25.2284H14.4393C14.5216 25.252 14.5899 25.2902 14.6526 25.3361C14.7066 25.3755 14.7563 25.4205 14.8074 25.4668C14.8461 25.5018 14.8849 25.5366 14.9255 25.5697L15.0171 25.6432L15.0172 25.5247C15.0174 25.4916 15.0307 25.2453 15.0716 25.064C15.0857 25.0013 15.1031 24.9463 15.1244 24.9106C15.1616 24.8485 15.2382 24.7863 15.3121 24.7261C15.3987 24.6556 15.4884 24.5828 15.5354 24.4964C15.5875 24.4007 15.5864 24.276 15.5854 24.1553C15.5844 24.0426 15.5835 23.9261 15.6292 23.8567C15.7218 23.7155 16.0967 23.5439 16.2358 23.4888C16.3263 23.4791 17.1083 23.4882 17.9678 23.5C18.3928 25.1322 19.5072 25.4383 21.3999 25.4199C21.5212 25.5375 21.6316 25.6861 21.6401 25.7626C18.3109 25.9429 18.1901 25.9866 17.2784 26.3163C17.1706 26.3552 17.0515 26.3984 16.9145 26.4462C16.8524 26.468 16.7828 26.4796 16.709 26.4918C16.5152 26.5241 16.2957 26.5606 16.1314 26.7988C15.9187 27.1071 16.1597 27.5262 16.1701 27.5438L16.6407 27.8421C16.6435 27.8504 16.6468 27.861 16.6508 27.8736C16.7339 28.1295 17.1021 29.2307 17.4181 29.6596C17.5704 29.8661 17.8346 30.0208 18.0902 30.1703C18.4139 30.3596 18.7484 30.5554 18.8545 30.8522C18.799 31.2577 18.3912 31.6839 18.052 31.9309C17.8654 31.9728 17.6796 31.9858 17.5 31.9985C17.2631 32.0151 17.0181 32.0323 16.7721 32.1161C16.7133 32.1366 16.5989 32.0721 16.4976 32.0162C16.3845 31.9536 16.2675 31.8887 16.1591 31.8856C16.1569 31.8855 16.1547 31.8855 16.1522 31.8855C15.983 31.8855 15.6748 32.0593 15.6399 32.0793L15.621 32.0966C15.2303 32.6692 15.02 33.1403 15.1014 33.8533L15.1134 33.9589L15.1939 33.8907C15.2889 33.8101 15.3512 33.7087 15.4062 33.619C15.4743 33.5081 15.528 33.4206 15.6152 33.4067C15.6399 33.406 15.6874 33.43 15.7385 33.4647C15.7776 33.4913 15.8187 33.5243 15.8533 33.5574L16.0047 33.6404L16.155 33.7228C16.1975 33.8144 16.3997 34.2319 16.7254 34.6482L16.8145 34.762L16.826 34.6172C16.8654 34.1271 16.8796 34.0697 16.9267 33.88L16.937 33.8386C16.9659 33.8361 16.9939 33.8332 17.0213 33.8304C17.1532 33.817 17.2669 33.8053 17.3636 33.839C17.4455 33.8675 17.5259 33.954 17.604 34.0373C17.6781 34.1171 17.7544 34.1988 17.8422 34.2451L17.8432 34.2512L17.8513 34.2497C17.8733 34.2606 17.8959 34.2692 17.9195 34.275C18.1445 34.3312 18.4548 34.1242 18.6025 33.9935C18.7376 33.874 18.7833 33.6924 18.8234 33.5324C18.8495 33.4281 18.8744 33.3296 18.9193 33.2563C19.3088 32.6226 20.4973 31.3376 20.6509 31.1722C20.7739 31.1697 21.2398 31.1478 21.3846 30.965C21.4732 30.8531 21.4817 30.6421 21.4341 30.5154C21.3214 30.2141 20.9987 30.0202 20.6863 29.8326C20.5033 29.7225 20.3303 29.6186 20.2177 29.5023C20.1867 29.4701 20.1603 29.454 20.1413 29.4422C20.1349 29.4381 20.127 29.4334 20.1263 29.4334C20.1165 29.4067 20.1466 29.264 20.2016 29.0048L20.2079 28.9751C20.58 28.693 21.6861 28.2237 21.8027 28.2476C21.948 28.3294 22.053 28.5485 22.1745 28.8023C22.3871 29.2458 22.6782 29.8533 23.4061 30.1781C23.447 30.1963 23.4479 30.2367 23.4299 30.367C23.4081 30.5257 23.3779 30.7431 23.564 30.9471L23.5831 30.9609C23.8567 31.0804 24.1503 31.0643 24.4096 31.0509C24.6176 31.0395 24.8141 31.029 24.9625 31.081C25.1767 31.2186 25.4446 31.3047 25.7037 31.3878C25.9479 31.4661 26.1789 31.5403 26.3341 31.6488L26.3503 31.691C26.5238 32.1417 26.7396 32.7028 26.5947 33.2066C26.5786 33.2151 26.512 33.1999 26.4722 33.1905C26.3839 33.1702 26.2836 33.147 26.2207 33.2038C26.1605 33.2578 26.1666 33.3472 26.1717 33.4262C26.1751 33.4736 26.1793 33.5386 26.1607 33.5545C26.1074 33.6002 25.9979 33.5572 25.8922 33.5158C25.7626 33.4651 25.6284 33.4126 25.5293 33.4912C25.4726 33.5366 25.4788 33.6347 25.4868 33.7245C25.1849 33.5012 24.6712 33.2737 24.5846 33.3146L24.5796 33.3174C23.9854 33.4301 23.6837 33.7548 23.6308 34.3477L23.6921 35.196L23.7467 35.2039L23.8014 35.2119C23.9012 34.9401 24.0419 34.6909 24.0894 34.6827C24.1252 34.7249 24.1507 34.7788 24.1778 34.8358C24.2524 34.9929 24.344 35.186 24.695 35.1231L25.339 36.098L25.3217 35.8787C25.3111 35.7465 25.299 35.3741 25.3682 35.2389C25.4241 35.1298 25.7354 34.9556 25.857 34.973C25.9611 34.9857 25.9817 35.0749 26.0121 35.2445C26.0364 35.3812 26.0663 35.5482 26.1792 35.6862C26.179 35.688 26.1786 35.6896 26.1783 35.6912L26.1186 35.7727L26.2654 35.7739L26.2777 35.7492C26.2817 35.7449 26.2857 35.7405 26.2898 35.7362C26.3866 35.678 26.4934 35.6468 26.5966 35.6163C26.7466 35.5724 26.888 35.5309 26.9765 35.413C27.0149 35.3619 27.0299 35.2878 27.0458 35.2092C27.0604 35.1361 27.0789 35.0451 27.115 35.0262C27.2051 34.9788 27.293 34.9935 27.4035 35.012C27.56 35.0385 27.7543 35.0708 28.0081 34.9172L28.0289 34.9046L28.0343 34.8806C28.1204 34.4957 28.0788 34.0557 28.0349 33.5896C28.0044 33.2671 27.9731 32.9337 27.9784 32.5863C27.9836 32.2448 27.9979 31.9124 28.0115 31.5913C28.0512 30.6538 28.0801 29.9766 27.8755 29.7693C27.8383 29.7315 27.7941 29.7097 27.7443 29.7044C27.7356 29.6941 27.7244 29.6844 27.7108 29.676C27.5096 29.5486 26.6166 29.561 26.3162 29.6245C25.9173 29.2289 25.7958 28.8173 25.7807 28.7613C25.7823 28.6605 25.7974 27.6297 25.7987 26.6441C28.1682 26.0015 28.0578 23.6635 27.9171 22.7508C28.0964 22.8422 28.321 22.9375 28.6018 23.0323C28.6291 23.0415 28.657 23.0508 28.6854 23.06L28.8473 23.1127L28.7487 22.9722C28.4722 22.5785 28.2857 22.0899 28.237 21.6315C28.2288 21.5542 28.2219 21.4759 28.2153 21.398C28.1778 20.9653 28.139 20.5176 27.8509 20.3057C27.6116 20.1296 27.25 20.2338 27.0796 20.2992C26.9864 20.055 26.6107 18.9364 27.1307 18.0202C27.1863 17.9233 27.2454 17.8316 27.3073 17.7464C27.6729 18.2145 28.1257 18.7834 28.6538 18.8327C28.8993 18.855 29.143 18.7626 29.3737 18.5582Z" fill="#ED1C24"/>
<path d="M22.7391 2.41601L22.5248 3.49515C22.2247 3.41368 21.9246 3.34455 21.626 3.28826L21.7792 2.1875L22.7391 2.41601Z" fill="#FED700"/>
<path d="M23.7651 2.65968L23.4718 3.79232C23.199 3.6946 22.9247 3.60681 22.6499 3.52915L22.865 2.44531L23.7651 2.65968Z" fill="#FED700"/>
<path d="M24.2622 0.741428L23.7984 2.53205L21.7979 2.05567L22.0461 0.273438L22.433 0.323945L22.354 0.961574L22.8792 1.04712L23.005 0.445317L23.3399 0.509457L23.2113 1.10775L23.6988 1.23029L23.8606 0.641329L24.2622 0.741428Z" fill="#FED700"/>
<path d="M27.3568 2.1818L26.5573 3.87676L24.8076 2.94064L25.4881 1.26758L25.797 1.39365L25.5368 2.00163L25.9831 2.21692L26.2738 1.63901L26.5213 1.7634L26.2423 2.3492L26.7396 2.61408L27.0408 2.03446L27.3568 2.1818Z" fill="#FED700"/>
<path d="M25.6176 3.52247L25.12 4.51501C24.8898 4.39404 24.6225 4.26298 24.3232 4.13138L24.7579 3.0625L25.6176 3.52247Z" fill="#FED700"/>
<path d="M25.7323 3.58398L26.5014 3.99555L26.0106 5.03625C25.8954 4.95948 25.6269 4.78711 25.2349 4.57598L25.7323 3.58398Z" fill="#FED700"/>
<path d="M25.1504 6.85986L24.5646 8.1018C24.4514 8.0484 24.1809 7.92493 23.8018 7.7771L24.3632 6.41797C24.7676 6.6237 25.0448 6.7931 25.1504 6.85986Z" fill="#FED700"/>
<path d="M24.2472 6.361L23.6808 7.73177C23.4982 7.66223 23.2939 7.58889 23.0728 7.51567C22.7661 7.41425 22.4032 7.30576 22.0044 7.20841L22.4138 5.63086C22.845 5.7623 23.2312 5.90807 23.5554 6.04451C23.8109 6.152 24.043 6.25999 24.2472 6.361Z" fill="#FED700"/>
<path d="M25.9543 5.1565L25.2062 6.74218C25.0207 6.62569 24.4343 6.27302 23.6076 5.92481C23.4865 5.8739 23.357 5.82158 23.2197 5.76935L23.7508 4.03711C23.9063 4.09744 24.0613 4.16123 24.2138 4.22748L24.2347 4.23653C25.1628 4.64116 25.7864 5.04382 25.9543 5.1565Z" fill="#FED700"/>
<path d="M23.6299 3.99065L23.0984 5.72381C22.521 5.51062 21.8202 5.302 21.0537 5.17934L21.2931 3.36328C21.3761 3.37651 21.4592 3.39082 21.5419 3.40591L21.5527 3.40785L21.5562 3.40853C22.1954 3.52644 22.8428 3.70372 23.4805 3.93528L23.486 3.93725L23.4945 3.94039C23.5396 3.9568 23.5848 3.97359 23.6299 3.99065Z" fill="#FED700"/>
<path d="M22.2896 5.59413L21.8784 7.17862C21.2156 7.02405 20.463 6.90494 19.7095 6.9006V5.19922C20.6404 5.19976 21.5298 5.37199 22.2896 5.59413Z" fill="#FED700"/>
<path d="M20.9142 2.12891L20.8686 3.17092C20.4804 3.12471 20.091 3.10033 19.7095 3.09782V2.12891H20.9142Z" fill="#FED700"/>
<path d="M19.5798 2.12891V3.09782C19.2176 3.10047 18.8434 3.12501 18.466 3.17103L18.4204 2.12891H19.5798Z" fill="#FED700"/>
<path d="M20.9998 0.166016L20.9198 1.99784H18.4149L18.335 0.166016H18.7549L18.7761 0.719014L19.3277 0.702114L19.3455 0.166016H19.9892L20.007 0.702114L20.5587 0.719014L20.5798 0.166016H20.9998Z" fill="#FED700"/>
<path d="M17.2889 0.273438L17.5481 2.13398L15.5483 2.5709L15.0728 0.741428L15.4743 0.641329L15.6362 1.23029L16.1236 1.10775L15.995 0.509457L16.33 0.445317L16.4559 1.04712L16.981 0.961574L16.9019 0.323945L17.2889 0.273438Z" fill="#FED700"/>
<path d="M16.4437 2.50977L16.7002 3.53626C16.424 3.61563 16.1464 3.70577 15.8689 3.806L15.5811 2.69841L16.4437 2.50977Z" fill="#FED700"/>
<path d="M17.5659 2.26367L17.709 3.29098C17.417 3.34805 17.1218 3.41785 16.8249 3.50011L16.5703 2.48136L17.5659 2.26367Z" fill="#FED700"/>
<path d="M21.1648 3.34244L20.9254 5.15862C20.532 5.10115 20.1225 5.06703 19.7046 5.06703C19.2593 5.06703 18.8107 5.10941 18.3743 5.17909L18.0889 3.35696C18.198 3.33925 18.3059 3.32351 18.4124 3.30974C18.8307 3.25581 19.2452 3.22852 19.6443 3.22852C20.055 3.22852 20.4756 3.25451 20.8947 3.30578L20.9219 3.3092C21.0025 3.31933 21.0836 3.33037 21.1648 3.34244Z" fill="#FED700"/>
<path d="M17.9614 3.37891L18.2466 5.20087C17.5139 5.3271 16.8206 5.52641 16.2425 5.72491L15.6719 4.01956C15.7301 3.99726 15.7883 3.97534 15.8464 3.95396L15.852 3.95199C16.5027 3.71319 17.1547 3.53084 17.7899 3.41014V3.41001L17.7935 3.40936C17.8496 3.39872 17.9055 3.38862 17.9614 3.37891Z" fill="#FED700"/>
<path d="M19.5795 5.19922V6.89968C18.7819 6.90624 18.0567 7.0028 17.4353 7.13322L17.0269 5.61497C17.8022 5.39456 18.6955 5.21482 19.5795 5.19922Z" fill="#FED700"/>
<path d="M14.9653 6.36914L15.5346 7.71734C15.1395 7.88147 14.8753 8.02239 14.7624 8.08588L14.1406 6.76773C14.2557 6.70658 14.549 6.55479 14.9653 6.36914Z" fill="#FED700"/>
<path d="M16.903 5.65234L17.3092 7.16192C16.8273 7.26872 16.4122 7.39454 16.0797 7.51078C15.9263 7.56445 15.7846 7.61798 15.6551 7.66981L15.0845 6.31808C15.3162 6.21692 15.5809 6.10776 15.8701 5.99886C16.1727 5.88499 16.5223 5.7644 16.903 5.65234Z" fill="#FED700"/>
<path d="M13.8461 1.26758L14.5306 2.96307L12.7688 3.85915L11.9775 2.1818L12.2935 2.03446L12.5946 2.61408L13.0922 2.3492L12.813 1.7634L13.0606 1.63901L13.3512 2.21692L13.7977 2.00163L13.5372 1.39365L13.8461 1.26758Z" fill="#FED700"/>
<path d="M14.5796 3.08594L15.0096 4.15088C14.7095 4.28299 14.4397 4.41419 14.2072 4.5345L13.7192 3.52348L14.5796 3.08594Z" fill="#FED700"/>
<path d="M13.6039 3.58203L14.0925 4.59463C13.7072 4.7989 13.4393 4.96462 13.3246 5.03808L12.8247 3.97838L13.6039 3.58203Z" fill="#FED700"/>
<path d="M15.5511 4.06641L16.1202 5.76717C16.0175 5.80353 15.9189 5.83959 15.8247 5.87501C14.9384 6.20851 14.2809 6.54595 14.0848 6.65016L13.3804 5.15683C13.4933 5.08416 13.8051 4.8896 14.2642 4.65172C14.4967 4.53127 14.767 4.39969 15.0683 4.26731C15.0851 4.25996 15.1019 4.25262 15.1189 4.24528C15.2617 4.18332 15.4063 4.1235 15.5511 4.06641Z" fill="#FED700"/>
<path d="M29.6474 16.9115C29.6703 16.9556 30.1059 17.8435 29.3022 18.4684C29.0902 18.656 28.8809 18.7378 28.6642 18.7173C28.1757 18.6719 27.7338 18.1066 27.3785 17.6516C27.3804 17.6493 27.3821 17.6471 27.384 17.6447L27.3534 17.6195C27.3499 17.6151 27.3464 17.6108 27.3429 17.6063C27.1296 17.3361 26.8855 17.0723 26.5541 16.9418L26.538 16.9381C26.0526 16.8969 25.7803 17.0871 25.6479 17.2265C25.6556 16.9893 25.7249 16.5533 26.1185 16.4204C26.7625 16.2027 27.1387 16.4057 27.4237 16.7404C27.5628 16.9036 27.6801 17.0981 27.7961 17.2906C28.0419 17.698 28.2746 18.0811 28.6898 18.0324C28.8738 18.0104 29.0168 17.9112 29.0822 17.7599C29.1593 17.5823 29.119 17.3548 28.9746 17.1517L28.9585 17.1366C28.5857 16.9022 28.2169 16.9 27.8317 17.13C27.7264 16.9577 27.611 16.7795 27.4714 16.6266C28.1971 16.2547 29.1246 16.1437 29.6467 16.9107L29.6474 16.9115Z" fill="#FFD700"/>
<path d="M27.792 22.6831C27.9313 23.4944 28.1251 25.8738 25.7992 26.5251C25.7992 26.2018 25.7976 25.8877 25.7935 25.6179C26.5947 25.2008 27.4052 24.5946 27.0462 22.7794C27.0461 22.7785 27.0458 22.7775 27.0456 22.7766C27.1638 22.577 27.235 22.3844 27.2745 22.2559C27.3475 22.3631 27.4947 22.5147 27.792 22.6831Z" fill="#FFD700"/>
<path d="M27.6895 21.3294C27.7207 21.3227 27.7502 21.3417 27.7572 21.3725C27.8686 21.863 28.0286 22.4117 28.5105 22.8088C28.3017 22.4466 28.1668 22.0409 28.1244 21.6429C28.1161 21.5649 28.1093 21.4859 28.1025 21.4072C28.0655 20.9812 28.0306 20.579 27.7843 20.3977C27.5238 20.2061 27.0392 20.4397 27.0342 20.442L27.0316 20.4367L26.1279 20.7699L26.133 20.7735C26.131 20.7767 25.914 21.1067 25.8922 21.2946C25.8796 21.4009 25.9144 21.4673 25.9905 21.6128C26.074 21.7728 26.2007 22.0146 26.3513 22.4796C26.4205 22.6929 26.4059 22.92 26.3888 23.183C26.3854 23.2324 26.3823 23.2834 26.3792 23.3362C26.3998 23.3174 26.4206 23.2985 26.442 23.2791C26.6056 23.1309 26.791 22.9624 26.9058 22.7852C26.9125 22.7747 26.9192 22.7643 26.9256 22.7538C26.9411 22.7289 26.9558 22.7039 26.9697 22.6793C26.985 22.6518 26.9996 22.6247 27.0131 22.5979C27.1399 22.3488 27.1924 22.1295 27.2023 22.0848L27.2014 22.0523L27.3354 21.9965L27.3164 22.0922C27.3235 22.1204 27.3829 22.3 27.7626 22.5336C27.7835 22.5465 27.8056 22.5595 27.8285 22.5729C27.8493 22.5847 27.8708 22.5966 27.8931 22.6088C28.0163 22.6755 28.1654 22.7455 28.3463 22.8168C27.9089 22.4072 27.7555 21.8759 27.647 21.3983C27.64 21.3673 27.659 21.3365 27.6895 21.3294Z" fill="#FFD700"/>
<path d="M26.729 17.1615L26.8509 17.2507C26.9939 17.3664 27.1189 17.5076 27.2344 17.6523C27.1634 17.7478 27.0957 17.8515 27.0327 17.9615C26.4839 18.9289 26.8684 20.0682 26.9722 20.3362L26.1416 20.6425C26.0948 20.2524 25.912 18.305 26.7552 17.1825L26.7211 17.1562C26.7238 17.158 26.7265 17.1598 26.729 17.1615Z" fill="#FFD700"/>
<path d="M26.6638 34.5886C26.7735 34.9046 26.5694 35.237 26.3149 35.5353C26.3434 35.3036 26.3752 34.9208 26.3579 34.6182C26.3569 34.603 26.3674 34.5692 26.3932 34.5415C26.4188 34.514 26.4511 34.5 26.4926 34.5C26.4928 34.5 26.4928 34.5 26.4928 34.5C26.5424 34.5012 26.6194 34.5516 26.6638 34.5886Z" fill="#FFD700"/>
<path d="M25.2948 35.1442C25.2838 35.1582 25.2746 35.172 25.2678 35.1855C25.2089 35.3007 25.1983 35.5177 25.2001 35.6809L24.8076 35.0868C24.8217 35.0582 24.8349 35.0275 24.8486 34.9958C24.8983 34.881 24.9496 34.7624 25.0404 34.7441C25.1362 34.772 25.1909 34.9537 25.2313 35.0874C25.2389 35.1122 25.246 35.1361 25.253 35.1581L25.2948 35.1442Z" fill="#FFD700"/>
<path d="M24.0571 33.6621C24.3663 33.9632 24.3197 34.3303 24.2133 34.6616C24.2002 34.6414 24.1856 34.6213 24.1683 34.6014C24.1384 34.5768 24.1018 34.5691 24.0655 34.5792C23.9653 34.6069 23.8615 34.7881 23.7875 34.9491L23.7437 34.3492C23.7715 34.0416 23.872 33.8168 24.0571 33.6621Z" fill="#FFD700"/>
<path d="M20.7735 22.2999C20.5346 22.0134 20.4985 21.5578 20.5164 21.197C20.5213 21.0969 20.5303 21.0041 20.5404 20.9243C20.4008 21.0501 20.2924 21.2116 20.1788 21.3806C20.105 21.4903 20.0287 21.6038 19.9404 21.712C19.8294 21.8479 19.6993 21.9757 19.5309 22.078C19.3 22.2184 18.9973 22.3109 18.5731 22.3109C18.5731 22.3109 18.5731 22.3109 18.5729 22.3109C18.4878 22.3109 18.3978 22.3072 18.3051 22.2998L18.1131 22.2844L18.2829 22.1921C18.9344 21.8375 19.3263 21.4278 19.4479 20.9743C19.5474 20.6023 19.4674 20.1886 19.2098 19.7441C18.7867 19.922 18.3903 20.1276 18.2897 20.4175C18.2445 20.5473 18.2621 20.6854 18.3434 20.8394C18.5711 21.0063 18.8435 20.899 19.1621 20.5285L19.2435 20.4338L19.2607 20.5582C19.284 20.7268 19.1702 21.0776 18.9696 21.3117C18.8437 21.4585 18.7048 21.5311 18.5675 21.5191C18.0893 21.5086 17.9026 21.0875 17.7219 20.6801C17.6773 20.5791 17.6315 20.4761 17.5811 20.3773C17.5813 20.3956 17.5816 20.4142 17.5818 20.4324C17.5876 20.9156 17.5927 21.3328 17.9928 21.8474L18.128 22.0214L17.9266 21.9358C17.7737 21.871 17.6514 21.7992 17.5519 21.7204C17.0194 21.7822 15.8697 21.9987 15.5313 22.1776C15.5014 22.1933 15.4947 22.2364 15.4853 22.3109C15.478 22.3689 15.4696 22.4347 15.4415 22.5006L15.4229 22.5443L15.3771 22.5339C15.3191 22.5206 15.2566 22.5 15.1936 22.479C15.0645 22.4361 14.9176 22.3877 14.8477 22.429C14.6914 22.5339 14.5944 22.6525 14.5162 22.7479C14.4465 22.8332 14.3886 22.9082 14.3111 22.9391L13.6655 23.4426L13.6749 23.4511L13.6118 23.4919C13.5029 23.5624 13.3088 23.7016 13.1325 23.8598L13.137 23.8613C13.0771 24.0525 13.0781 24.2096 13.1395 24.3279C13.1958 24.4368 13.3057 24.5185 13.4661 24.5708C13.5278 24.5448 13.5997 24.533 13.667 24.5394C13.7282 24.5449 13.7815 24.5649 13.8224 24.5966C13.7837 23.8875 14.154 23.7581 14.4303 23.6615C14.4652 23.6493 14.4994 23.6375 14.5319 23.6249C14.5607 23.6134 14.5937 23.6282 14.605 23.6577C14.6162 23.6873 14.6017 23.7204 14.5726 23.7318C14.5388 23.7451 14.5034 23.7575 14.4673 23.7701C14.1624 23.8764 13.8473 23.9865 13.9522 24.7653C14.0066 24.8491 14.0624 24.9426 14.1075 25.0183C14.128 25.0524 14.1502 25.0897 14.1651 25.1134L14.4616 25.1148C14.4824 25.1205 14.5024 25.1269 14.5215 25.1341C14.4602 25.0116 14.3143 24.6815 14.4224 24.5037C14.5023 24.3729 14.5896 24.3066 14.6825 24.3066H14.6848C14.7421 24.3074 14.8261 24.3351 14.9002 24.4633C14.9667 24.5778 15.0086 24.7198 15.0346 24.8394C15.0831 24.7645 15.1636 24.6991 15.2414 24.6357C15.3194 24.5723 15.4002 24.5067 15.4363 24.4402C15.4742 24.3707 15.4732 24.2612 15.4723 24.1555C15.4713 24.0255 15.4701 23.8909 15.5352 23.7921C15.6647 23.595 16.1422 23.4018 16.1964 23.3804L16.1967 23.3814C16.2576 23.3638 16.5216 23.3646 18.0681 23.3857C18.1749 23.3872 18.2878 23.3887 18.4072 23.3905C19.1204 23.4003 19.8539 23.4106 20.3923 23.4142C20.5036 23.4149 20.6066 23.4154 20.6994 23.4155C20.6997 23.4155 20.6997 23.4155 20.6997 23.4155C20.7767 23.4155 20.8722 23.2904 20.9546 23.0808C20.9662 23.0442 20.9858 22.8272 21.0107 22.4863C20.9199 22.4426 20.8407 22.3805 20.7735 22.2999ZM14.0912 23.5131C13.8249 23.5874 13.7022 23.8085 13.5694 24.0896C13.5598 24.1101 13.5394 24.122 13.5184 24.122C13.5103 24.122 13.5018 24.1203 13.4939 24.1165C13.4659 24.1029 13.4538 24.0686 13.4674 24.04C13.5816 23.7978 13.724 23.4965 14.0612 23.4024C14.0919 23.3941 14.1226 23.4119 14.1309 23.4425C14.1391 23.4731 14.1214 23.5046 14.0912 23.5131ZM17.1555 22.8028C16.8516 22.7822 16.5375 22.7603 16.2371 22.8241C16.1915 22.8305 16.0785 22.9205 15.9975 23.0005C15.9867 23.0114 15.9723 23.0166 15.9581 23.0166C15.9433 23.0166 15.9287 23.0109 15.9175 22.9993C15.8957 22.9767 15.8963 22.9404 15.9186 22.9182C15.9642 22.8731 16.121 22.7243 16.218 22.7111C16.5297 22.6447 16.8518 22.667 17.1632 22.6882C17.4855 22.7105 17.7893 22.7313 18.0905 22.663C18.1776 22.6354 18.3436 22.4979 18.3999 22.4475C18.4233 22.4262 18.459 22.4285 18.4797 22.4523C18.5005 22.4761 18.4983 22.5123 18.4749 22.5333C18.4524 22.5536 18.2507 22.7323 18.1196 22.7738C17.7981 22.8469 17.4716 22.8243 17.1555 22.8028Z" fill="#FFD700"/>
<path d="M17.0532 16.3688C17.6491 16.3002 19.2515 16.4034 19.479 16.4329C19.4772 16.4801 19.4555 16.5315 19.423 16.5793C19.3935 16.5753 19.3145 16.5707 19.2223 16.5613C18.7688 16.5144 17.7072 16.4053 17.1398 16.4839C17.0217 16.5002 16.9486 16.543 16.878 16.5844C16.8248 16.6156 16.7738 16.6455 16.7021 16.6635C16.7454 16.4067 17.0498 16.3692 17.0532 16.3688Z" fill="#FFD700"/>
<path d="M19.0196 11.0164L19.0367 12.5302L17.8579 13.8015L17.3123 13.2664L17.9307 12.1472L16.85 12.7823L16.2993 12.2417L17.5122 11.0117L19.0196 11.0164Z" fill="#FFD700"/>
<path d="M18.2473 33.2592C18.3332 33.4544 18.0672 33.881 17.9313 34.0583C17.9014 33.8042 17.8677 33.3708 17.9305 33.2151C17.9482 33.1709 17.9853 33.1484 18.041 33.1484C18.1311 33.1485 18.2243 33.2069 18.2473 33.2592Z" fill="#FFD700"/>
<path d="M17.6301 12.457L17.2234 13.1927L16.3443 14.2125L16.7292 14.5825L16.4195 14.8964L16.0109 14.5442L14.8994 15.7028L14.5068 15.3777L15.6412 14.1915L15.276 13.795L15.5474 13.5036L15.9127 13.8533L16.9256 12.871L17.6301 12.457Z" fill="#FFD700"/>
<path d="M24.7844 21.2993C24.5521 21.2993 24.4056 21.1367 24.3855 20.9834C24.3102 20.4061 24.3483 19.7185 24.3885 18.9903C24.4486 17.902 24.511 16.7767 24.2202 15.82C23.6998 14.1086 22.7699 13.8531 22.262 13.8531C22.0721 13.8531 21.9486 13.8897 21.9472 13.8901L21.8946 13.9061L21.8774 13.8531C21.8315 13.7114 21.6837 13.3253 21.5538 13.2394C21.4624 13.179 21.3663 13.1484 21.2675 13.1484C21.0922 13.1484 20.9561 13.2432 20.8874 13.3318C20.6261 13.6682 20.5904 13.8715 20.5952 13.9075L20.5513 13.9176L20.5952 13.9514L20.5789 13.9804L20.5118 13.9836L20.5107 13.9819C20.5022 13.9821 20.4924 13.9821 20.4813 13.9821L20.2001 13.9811C19.6205 13.9811 19.4447 14.0075 19.3993 14.0295C19.3222 14.0672 19.2368 14.2808 19.201 14.4203L19.1892 14.4665L19.1422 14.4632C19.1406 14.463 18.9589 14.4506 18.7329 14.4506C18.1351 14.4506 17.8886 14.5365 17.8571 14.6172C17.8031 14.7555 17.8121 14.7998 17.8185 14.8124C17.8242 14.8236 17.843 14.8292 17.8731 14.8369C17.9161 14.8481 17.9751 14.8632 18.0004 14.9275L18.0091 14.9495L17.9998 14.9713C17.8902 15.2311 17.8224 15.8009 17.8846 15.9392C17.8916 15.9547 17.9232 15.9808 18.0551 15.9808C18.1351 15.9808 18.236 15.9714 18.3425 15.9619C18.4749 15.9497 18.6247 15.9362 18.774 15.9362C18.9648 15.9362 19.121 15.9588 19.2517 16.0053C19.3932 16.0557 19.5426 16.1861 19.5821 16.3449C19.5888 16.3708 19.5923 16.3978 19.5923 16.425C19.5927 16.5153 19.5475 16.61 19.4827 16.6888C19.4139 16.7721 19.3231 16.8376 19.2411 16.8609C19.0293 16.9209 18.7094 16.9299 18.5377 16.9299C18.3165 16.9299 18.0934 16.9154 17.9338 16.8911C17.955 17.3561 17.9943 17.6702 18.0571 17.8759C18.0762 17.9392 18.2977 17.9819 18.4923 17.9819H18.4968C18.5053 17.9785 18.5149 17.9772 18.5249 17.9784C18.5344 17.9797 18.5439 17.9808 18.5534 17.9819H18.6382L18.6307 17.989C19.2174 18.029 19.8358 17.7591 20.232 17.2834C20.5509 16.9005 20.6579 16.4638 20.5331 16.0535C20.5239 16.0231 20.5407 15.9911 20.5705 15.9816C20.601 15.9733 20.6321 15.9893 20.6413 16.0195C20.7756 16.4621 20.658 16.9497 20.3184 17.3574C19.9267 17.8277 19.329 18.1074 18.7449 18.1074C18.6692 18.1074 18.5939 18.1027 18.5193 18.0931C18.1161 18.4665 17.682 18.897 17.2836 19.4121C17.0937 19.6579 16.912 19.923 16.7457 20.2102C16.6861 20.3129 16.6286 20.4185 16.5734 20.5271C16.5436 20.612 16.5334 20.7086 16.5224 20.8106C16.5068 20.9556 16.4906 21.1056 16.4093 21.2549C16.3402 21.382 16.1669 21.485 16.0322 21.5497C16.1409 21.5686 16.2776 21.588 16.3832 21.588C16.4672 21.588 16.497 21.5757 16.5061 21.5703C16.6783 21.4683 16.7487 21.262 16.855 20.9499C16.8943 20.8351 16.9381 20.7072 16.9932 20.5656L17.0531 20.4117L17.145 20.7266C17.2514 21.0971 17.3285 21.366 17.5585 21.5781C17.5729 21.5913 17.5878 21.6043 17.6034 21.617C17.6188 21.6298 17.6349 21.6421 17.6515 21.6544C17.6643 21.6216 17.6654 21.5775 17.6562 21.5204C17.5826 21.3641 17.5386 21.2135 17.512 21.0652C17.4741 20.8535 17.4715 20.6464 17.4689 20.4343C17.4678 20.3437 17.4667 20.2517 17.4628 20.1576L17.4541 19.951L17.5664 20.1236C17.6696 20.2822 17.7488 20.4607 17.8254 20.6335C18.0067 21.0426 18.1635 21.396 18.5737 21.4052C18.5835 21.4057 18.59 21.4061 18.5963 21.4061C18.5963 21.4061 18.5963 21.4061 18.5965 21.4061C18.7147 21.4061 18.8183 21.314 18.8846 21.2367C19.0099 21.0905 19.1029 20.8815 19.137 20.7242C18.814 21.0482 18.5131 21.1138 18.2656 20.9242L18.2504 20.9061C18.1491 20.72 18.1263 20.543 18.1831 20.3799C18.3023 20.0371 18.7481 19.8119 19.2121 19.6197L19.2568 19.6012L19.2819 19.6429C19.5759 20.1314 19.6685 20.5895 19.5573 21.0049C19.4385 21.448 19.0858 21.8481 18.5072 22.1961C18.5296 22.1966 18.5516 22.1969 18.5732 22.1969H18.5733C19.4938 22.1967 19.7945 21.7492 20.0855 21.3165C20.2332 21.0967 20.3727 20.8893 20.5856 20.7441L20.6948 20.6699L20.6729 20.8014C20.6625 20.8638 20.6478 20.9657 20.6377 21.0892C20.6101 21.4306 20.6191 21.9372 20.8602 22.2264C20.9067 22.2821 20.9597 22.3275 21.0198 22.3626C21.0373 22.3728 21.0554 22.3822 21.0743 22.3905C21.0919 22.3985 21.1101 22.4056 21.1288 22.4121C21.2318 22.4469 21.3511 22.4578 21.487 22.4442C21.8063 22.3629 21.8889 21.9442 21.9103 21.7308C21.7113 21.8841 21.5429 21.9618 21.4085 21.9618C21.2982 21.9618 21.2152 21.9093 21.1697 21.816C21.1469 21.7698 21.1334 21.7138 21.1303 21.6491C21.1292 21.6263 21.1294 21.6027 21.1307 21.5784C21.1363 21.482 21.1615 21.3756 21.2045 21.2682C21.35 20.9045 21.6998 20.5283 22.1852 20.4799L22.2507 20.4736L22.2472 20.5401C22.2468 20.5501 22.1966 21.5254 22.3028 22.1288C22.3965 22.3201 22.5096 22.4213 22.6303 22.4213C22.7415 22.4213 22.8601 22.3301 22.9398 22.1835C23.0102 22.0535 23.0594 21.8557 23.0008 21.6759C22.9945 21.691 22.9884 21.7059 22.9822 21.7206C22.906 21.9037 22.8341 22.0766 22.6722 22.0766C22.6058 22.0766 22.5329 22.0454 22.4492 21.981L22.4331 21.9617C22.3224 21.7449 22.4314 21.5274 22.5827 21.2263C22.7144 20.9635 22.895 20.6036 23.01 20.0905L23.0428 19.9438L23.1147 20.0755C23.1453 20.1317 23.1651 20.2046 23.1785 20.2903C23.1993 20.4219 23.2049 20.5833 23.211 20.7591C23.216 20.9029 23.2213 21.0526 23.235 21.1962C23.2464 21.3149 23.2636 21.4296 23.2915 21.5334C23.3382 21.7081 23.415 21.8518 23.5443 21.9324C23.5789 21.9539 23.6748 21.9901 23.9276 21.9901C23.9923 21.9901 24.0552 21.9877 24.1086 21.9846C23.9561 21.8706 23.714 21.6744 23.6426 21.5321C23.4405 21.1288 23.4476 20.7615 23.668 20.2226L23.72 20.0954L23.7725 20.2222C23.8346 20.3725 23.8564 20.5362 23.8777 20.6946C23.9153 20.9759 23.9479 21.2189 24.1806 21.3504C24.2892 21.4119 24.4154 21.4774 24.5391 21.4774C24.654 21.4774 24.7538 21.4178 24.8419 21.2963C24.8225 21.2984 24.8032 21.2993 24.7844 21.2993ZM19.958 16.8454C19.9429 16.9394 19.7914 17.0021 19.7268 17.0248C19.7206 17.0269 19.7145 17.028 19.7083 17.028C19.6851 17.028 19.6631 17.0131 19.6549 16.9892C19.6448 16.9593 19.6603 16.9268 19.6898 16.9163C19.762 16.891 19.8382 16.8468 19.8468 16.8251C19.884 16.5933 19.9005 16.252 19.8476 16.0543C19.8372 16.0155 19.7503 15.9332 19.6755 15.879C19.6501 15.8607 19.6442 15.8248 19.6623 15.799C19.6804 15.7734 19.716 15.7674 19.7412 15.7856C19.7727 15.8084 19.9307 15.9269 19.9568 16.0243C20.0226 16.2704 19.9885 16.6562 19.958 16.8454ZM20.0928 14.6506C19.968 14.7253 19.8818 14.785 19.8128 14.833C19.6899 14.9181 19.6222 14.9651 19.5151 14.9651C19.4992 14.9651 19.4824 14.964 19.4644 14.9618C19.409 14.9552 19.3618 14.912 19.3345 14.8435C19.2983 14.7524 19.2982 14.6143 19.3685 14.5269L19.38 14.5126L19.3974 14.5076C19.493 14.4814 19.5774 14.4894 19.7716 14.5119C19.8495 14.5211 19.9459 14.5323 20.0693 14.544L20.2435 14.5605L20.0928 14.6506ZM20.9581 13.7258C20.9613 13.6944 20.9864 13.6694 21.0203 13.6749C21.5675 13.7342 21.5832 14.0963 21.6013 14.5159C21.6027 14.5475 21.5785 14.5742 21.5473 14.5757H21.5449C21.5147 14.5757 21.4896 14.5517 21.4884 14.521C21.4683 14.0596 21.4396 13.8356 21.0083 13.7889C20.9772 13.7855 20.9549 13.7574 20.9581 13.7258ZM21.2739 20.1074C21.2547 20.1234 21.2349 20.139 21.2143 20.1542C21.1952 20.1685 21.1755 20.1824 21.1552 20.1959C20.965 20.3231 20.7219 20.4212 20.4123 20.475C20.2743 20.5487 20.1216 20.617 19.9539 20.6794C19.9226 20.701 19.9022 20.7143 19.898 20.7169C19.8887 20.723 19.8782 20.7258 19.8677 20.7258C19.8491 20.7258 19.8308 20.7167 19.8201 20.6993C19.8031 20.6726 19.811 20.6373 19.8374 20.6203C19.8378 20.62 19.8405 20.6183 19.8452 20.6151C19.8513 20.6017 19.8625 20.5907 19.8774 20.5852C19.8857 20.5822 19.894 20.5792 19.9021 20.5763C20.0512 20.4716 20.4114 20.2004 20.4773 19.979C20.5253 19.8172 20.2858 19.493 20.1108 19.256L20.0894 19.2273C19.9342 19.0166 19.943 18.873 19.9501 18.7575C19.9532 18.7071 19.956 18.6636 19.9433 18.6225C19.9342 18.5921 19.9509 18.5601 19.9808 18.5506C20.0116 18.5423 20.0423 18.5584 20.0515 18.5885C20.07 18.6498 20.0665 18.7083 20.0631 18.7646C20.0565 18.8714 20.0498 18.9819 20.18 19.1584L20.2014 19.1874C20.4117 19.4721 20.6501 19.7948 20.5856 20.0122C20.5463 20.1446 20.4257 20.2856 20.2962 20.4064C20.3117 20.3987 20.327 20.3908 20.3422 20.3828C20.3504 20.3737 20.3616 20.3672 20.3745 20.3651C20.3749 20.3649 20.3754 20.3649 20.3758 20.3648C20.7643 20.1543 21.024 19.8985 21.1501 19.6013C21.1691 19.5566 21.1846 19.512 21.1972 19.4675C21.2199 19.3875 21.2325 19.3081 21.2377 19.2307C21.2442 19.1348 21.2389 19.0418 21.2261 18.9536C21.192 18.7139 21.1035 18.5103 21.0479 18.3822L21.0278 18.3354C21.0156 18.3062 21.0289 18.2724 21.0576 18.2601C21.0863 18.2475 21.1194 18.261 21.1317 18.2902L21.1515 18.3359C21.1777 18.3964 21.2132 18.478 21.247 18.5756C21.2638 18.624 21.2802 18.6764 21.2948 18.732C21.3133 18.8018 21.3291 18.8769 21.3393 18.9556C21.361 19.1196 21.359 19.2999 21.3096 19.4843C21.2953 19.5383 21.2769 19.5924 21.2538 19.6467C21.2499 19.6558 21.2461 19.6649 21.2419 19.6738C21.2232 19.7154 21.2019 19.7561 21.1784 19.7961C21.0744 19.9725 20.9239 20.1332 20.7282 20.2774C20.9017 20.2179 21.0452 20.1402 21.1638 20.0495C21.1843 20.0338 21.2042 20.0177 21.2231 20.0011C21.2441 19.9832 21.264 19.9646 21.2832 19.9457C21.822 19.4147 21.697 18.5654 21.6404 18.1808C21.6141 18.0024 21.6042 17.9355 21.6736 17.9202C21.7045 17.9126 21.7341 17.9331 21.741 17.9639C21.7445 17.9796 21.7412 17.9952 21.7331 18.0077C21.7331 18.0346 21.743 18.1002 21.7523 18.1641C21.8091 18.5501 21.955 19.541 21.2739 20.1074ZM22.4932 19.2836C22.4831 19.303 22.4634 19.3139 22.4432 19.3139C22.4343 19.3139 22.4251 19.3118 22.4166 19.307C22.389 19.2922 22.3787 19.2574 22.3934 19.2295C22.8205 18.4193 22.435 17.764 22.431 17.7575C22.4148 17.7305 22.4231 17.6951 22.4497 17.6785C22.476 17.6622 22.5111 17.6702 22.5276 17.6975C22.5449 17.7264 22.9505 18.4159 22.4932 19.2836Z" fill="#FFD700"/>
<path d="M16.8408 33.7539L16.8171 33.8511C16.7734 34.0265 16.7568 34.0926 16.7254 34.4588C16.5457 34.2119 16.4106 33.9729 16.3311 33.8211C16.3979 33.5723 16.5087 33.3458 16.5648 33.3438C16.6352 33.3424 16.7591 33.5468 16.8408 33.7539Z" fill="#FFD700"/>
<path d="M27.922 33.6009C27.8914 33.2754 27.8593 32.9386 27.8652 32.5848C27.8705 32.2418 27.8846 31.9088 27.8983 31.5867C27.9339 30.7473 27.9647 30.0224 27.7953 29.8509C27.7719 29.8273 27.7451 29.8165 27.7134 29.8184L27.665 29.8206L27.6556 29.7725C27.5815 29.686 26.6259 29.6602 26.3132 29.7434L26.2827 29.7514L26.2598 29.7295C25.7891 29.2747 25.6736 28.802 25.6689 28.7819C25.6681 28.7563 25.684 27.6927 25.6858 26.6739V26.6149C25.6859 26.5951 25.6859 26.5754 25.6859 26.5557C25.6861 26.2443 25.685 25.9409 25.6813 25.6772C25.681 25.6554 25.6808 25.634 25.6804 25.6128C25.68 25.591 25.6798 25.5695 25.6793 25.5483C25.6772 25.4271 25.6744 25.3165 25.6711 25.2201C25.5891 24.8264 24.9934 24.4871 24.4172 24.1588C23.7856 23.7987 23.1889 23.4589 23.1779 23.0108L23.1781 21.5503C23.1165 21.311 23.1067 21.0278 23.0975 20.7637C23.0919 20.6023 23.0865 20.4463 23.0684 20.3223C22.9527 20.7414 22.7992 21.0473 22.683 21.279C22.5405 21.563 22.4531 21.737 22.5275 21.8982C22.5853 21.9408 22.634 21.9626 22.6717 21.9626C22.7584 21.9626 22.8136 21.8301 22.8775 21.6766C22.8995 21.6236 22.9225 21.5688 22.9482 21.5154L22.9928 21.423L23.0468 21.5097C23.1727 21.7115 23.1694 21.998 23.0383 22.2393C22.9373 22.4254 22.7846 22.5366 22.6298 22.5366C22.5123 22.5367 22.3421 22.4735 22.1972 22.1727L22.1922 22.1577C22.0974 21.6285 22.1208 20.8408 22.1306 20.6035C21.5279 20.7043 21.2277 21.3328 21.2429 21.6442C21.2473 21.7369 21.2796 21.8478 21.408 21.8478C21.4967 21.8478 21.6606 21.7981 21.9372 21.5622L22.0293 21.4836L22.0302 21.6056C22.0305 21.6391 22.0302 22.4247 21.5058 22.5578C21.4561 22.5631 21.4161 22.5652 21.3779 22.5652C21.3779 22.5652 21.3779 22.5652 21.3778 22.5652C21.2848 22.5652 21.1985 22.5534 21.1196 22.5298C21.0939 22.8697 21.0729 23.0908 21.0594 23.1248C20.9531 23.3945 20.8319 23.5314 20.6994 23.5314H20.6991C20.6247 23.5313 20.5439 23.531 20.4573 23.5305C20.4809 23.6318 20.5135 23.7246 20.5549 23.8107C20.6189 23.9448 20.7038 24.062 20.8069 24.1671C20.9043 24.2664 21.0179 24.3548 21.1457 24.4365C21.2995 24.5349 21.4738 24.6236 21.6649 24.7094C21.6934 24.7223 21.7063 24.7561 21.6937 24.785C21.6843 24.8065 21.6636 24.8191 21.642 24.8191C21.6342 24.8191 21.6265 24.8177 21.6191 24.8144C21.4514 24.7391 21.2858 24.6572 21.1315 24.5621L20.8183 24.9171C20.8071 24.9297 20.7917 24.9361 20.7763 24.9361C20.7628 24.9361 20.7492 24.9314 20.7385 24.9216C20.7153 24.9005 20.7133 24.8642 20.7341 24.8406L21.0347 24.4997C20.9391 24.435 20.849 24.3641 20.7669 24.2853L20.3918 24.6475C20.381 24.658 20.3669 24.6631 20.3529 24.6631C20.3379 24.6631 20.3231 24.6572 20.3119 24.6454C20.2904 24.6224 20.2912 24.5861 20.314 24.5642L20.6872 24.2037C20.611 24.1197 20.5435 24.0272 20.4871 23.9246L20.1226 24.2766C20.1118 24.2871 20.0978 24.2924 20.0837 24.2924C20.0687 24.2924 20.0538 24.2864 20.0427 24.2745C20.0212 24.2517 20.022 24.2153 20.0446 24.1934L20.434 23.8174C20.3998 23.7401 20.3715 23.6575 20.3501 23.5688L19.8301 23.9874C19.8196 23.9957 19.8072 23.9998 19.7949 23.9998C19.7782 23.9998 19.7617 23.9923 19.7506 23.9781C19.7312 23.9533 19.7352 23.9171 19.7596 23.8974L20.2176 23.5289C19.7006 23.5246 19.045 23.5154 18.4053 23.5065C18.2986 23.505 18.1915 23.5035 18.0851 23.502C18.4999 25.0498 19.5383 25.324 21.4211 25.3057L21.4437 25.3052L21.46 25.3207C21.5457 25.4008 21.8185 25.6752 21.7379 25.8432L21.7233 25.8736L21.69 25.8753C18.334 26.0566 18.2376 26.0915 17.3161 26.4247C17.208 26.464 17.0884 26.5071 16.9512 26.5551C16.8798 26.5801 16.8022 26.5929 16.7271 26.6055C16.5386 26.6367 16.3608 26.6665 16.224 26.8649C16.0699 27.0883 16.2258 27.4085 16.2606 27.4738L16.7352 27.7668L16.7407 27.7842C17.124 27.5457 17.1155 27.4592 17.0908 27.2155L17.0838 27.1424C17.081 27.1109 17.104 27.083 17.135 27.0801C17.1694 27.076 17.1935 27.1008 17.1964 27.1322L17.2034 27.2038C17.2323 27.4912 17.2262 27.6204 16.7772 27.8961C16.8864 28.225 17.2261 29.2081 17.5084 29.5912C17.6468 29.779 17.8895 29.9211 18.1465 30.0713C18.4926 30.274 18.8508 30.4834 18.9656 30.8282L18.9698 30.8405L18.9682 30.8535C18.9149 31.3039 18.4716 31.7694 18.1082 32.0314L18.088 32.0405C17.8889 32.0866 17.6951 32.1003 17.5075 32.1134C17.2671 32.1303 17.0401 32.1462 16.8077 32.2254C16.7031 32.261 16.5767 32.1913 16.4432 32.1172C16.3417 32.0611 16.2368 32.003 16.1556 32.0007C16.0461 32.0045 15.8041 32.1185 15.7064 32.1732C15.6992 32.1839 15.692 32.1943 15.6851 32.2048L15.686 32.2055L15.7851 32.1501C16.0018 32.5502 15.9119 33.1836 15.8627 33.4142C15.8891 33.4356 15.9109 33.4554 15.9253 33.4691L15.997 33.5079C16.1889 32.8359 16.6552 32.4992 17.4209 32.4792C17.451 32.4765 17.478 32.5033 17.4788 32.535C17.4796 32.5668 17.455 32.593 17.4237 32.5938C16.6956 32.6129 16.2737 32.9211 16.0991 33.5631L16.2415 33.6401L16.2494 33.6579C16.2497 33.6584 16.2522 33.6639 16.2569 33.6738C16.3148 33.4956 16.4227 33.2352 16.561 33.2303C16.5624 33.2302 16.5639 33.2302 16.5655 33.2302C16.7401 33.2302 16.8919 33.5726 16.9498 33.7226C16.9701 33.7207 16.9901 33.7187 17.0096 33.7166C17.1546 33.7017 17.28 33.689 17.4 33.7308C17.5083 33.7685 17.5986 33.8653 17.6858 33.9589C17.7302 34.0065 17.7753 34.055 17.8214 34.0932C17.795 33.8762 17.7455 33.3704 17.8254 33.1718C17.8607 33.0841 17.9391 33.0337 18.0407 33.0337C18.168 33.0337 18.3071 33.1138 18.3503 33.2125C18.4082 33.3438 18.3693 33.5393 18.235 33.7935C18.1806 33.8964 18.0711 34.0712 17.9867 34.1695C18.1541 34.1776 18.3967 34.0233 18.5278 33.9073C18.6366 33.8114 18.6756 33.6553 18.7135 33.5044C18.7407 33.3963 18.7688 33.2845 18.8231 33.1959C19.2437 32.5115 20.5303 31.1343 20.5849 31.076L20.6014 31.0582H20.6257C20.7765 31.0574 21.1908 31.0264 21.2962 30.8934C21.3557 30.8183 21.3623 30.6475 21.328 30.5565C21.2294 30.2928 20.9238 30.1093 20.6285 29.9316C20.4388 29.8176 20.2596 29.7099 20.1367 29.583C20.1155 29.5611 20.0978 29.5502 20.0821 29.5404C19.985 29.4806 19.9869 29.4711 20.0907 28.9811L20.1055 28.9101L20.1218 28.8973C20.4318 28.6525 21.6969 28.0565 21.8573 28.1476C22.0339 28.2471 22.146 28.4812 22.276 28.7524C22.4924 29.2038 22.7617 29.7656 23.4512 30.0734C23.5767 30.1291 23.5588 30.2584 23.5415 30.3832C23.5212 30.5316 23.4981 30.6992 23.6388 30.8607C23.8847 30.9645 24.1484 30.9501 24.4034 30.9365C24.6227 30.9245 24.8298 30.9137 25.0116 30.9787C25.2245 31.1141 25.4854 31.1978 25.7376 31.2787C25.9978 31.3623 26.2437 31.441 26.4134 31.5658L26.427 31.5756L26.4555 31.6496C26.6352 32.1167 26.8589 32.698 26.6999 33.2425C26.6673 33.3537 26.5397 33.3244 26.4468 33.3027C26.3975 33.2915 26.3152 33.2724 26.2953 33.2899C26.2769 33.3065 26.2812 33.3714 26.2844 33.4186C26.2897 33.4986 26.2958 33.5894 26.2331 33.6427C26.1282 33.7317 25.9812 33.6741 25.8512 33.6231C25.7509 33.5839 25.6468 33.543 25.5992 33.5818C25.5886 33.5994 25.5969 33.6889 25.6002 33.7271C25.6077 33.8067 25.6124 33.8592 25.567 33.8836C25.5549 33.8896 25.5239 33.9014 25.4869 33.8705C25.2052 33.6314 24.741 33.444 24.6332 33.4244L24.6151 33.4277C24.4286 33.4616 24.2744 33.5163 24.1501 33.5943C24.5156 33.9646 24.4186 34.4218 24.2921 34.7801L24.2732 34.7733C24.2753 34.7777 24.2774 34.7821 24.2794 34.7864C24.3206 34.8731 24.3568 34.9496 24.4295 34.9902C24.4263 34.9803 24.4258 34.9694 24.4284 34.9585C24.6104 34.2133 25.0672 34.13 25.5507 34.042C25.6191 34.0295 25.6884 34.0169 25.7586 34.0022C25.7902 33.9962 25.8191 34.0157 25.8254 34.0467C25.8318 34.0776 25.8123 34.1081 25.7816 34.1145C25.7104 34.1294 25.6401 34.1423 25.5706 34.1548C25.0857 34.2432 24.7027 34.3129 24.5382 34.9861C24.5348 34.9995 24.5273 35.0104 24.5173 35.0182C24.5673 35.025 24.6295 35.0211 24.7085 35.0035L24.7233 35.0002C24.7303 34.9844 24.7376 34.9677 24.745 34.9507C24.8028 34.8168 24.8751 34.6498 25.0352 34.6298L25.0442 34.6286L25.0529 34.6305C25.2209 34.6626 25.2865 34.88 25.3393 35.0548L25.3494 35.0875C25.4878 34.9618 25.7401 34.8425 25.8705 34.8593C26.0622 34.8832 26.0931 35.0565 26.1231 35.2242C26.1398 35.3182 26.1582 35.4203 26.2031 35.5132C26.2291 35.2948 26.2612 34.9271 26.2441 34.6261C26.2413 34.5738 26.2671 34.5102 26.3103 34.464C26.3568 34.414 26.4201 34.3866 26.4886 34.3866C26.6069 34.3891 26.7343 34.5002 26.7484 34.5128L26.7637 34.5354C26.8939 34.8819 26.7113 35.2275 26.4607 35.5382C26.4965 35.5265 26.5314 35.5162 26.5649 35.5064C26.7021 35.4663 26.8203 35.4315 26.8863 35.3439C26.9088 35.3135 26.922 35.2489 26.9346 35.1866C26.9563 35.0794 26.9787 34.9688 27.0628 34.9247C27.1862 34.8599 27.3008 34.8791 27.4217 34.8993C27.5691 34.9241 27.7215 34.9491 27.929 34.8312C28.004 34.47 27.964 34.0475 27.922 33.6009ZM18.5382 32.8272C18.5303 32.8577 18.4996 32.8767 18.469 32.8679C18.0903 32.7665 17.7983 32.7694 17.6243 32.8766C17.5336 32.9326 17.4751 33.0175 17.4504 33.1289C17.4445 33.1553 17.421 33.1735 17.3952 33.1735C17.3912 33.1735 17.387 33.1731 17.3828 33.1721C17.3522 33.165 17.3332 33.1345 17.3399 33.1035C17.3716 32.9606 17.4476 32.8512 17.5657 32.7786C17.7696 32.6531 18.0832 32.6456 18.4981 32.7571C18.5282 32.7652 18.5462 32.7966 18.5382 32.8272ZM19.311 30.2204C19.3042 30.2458 19.2814 30.2626 19.2564 30.2626C19.2516 30.2626 19.2466 30.2619 19.2414 30.2606C18.7558 30.1256 18.457 29.6651 18.168 29.2199C18.1305 29.1622 18.0931 29.1044 18.0552 29.0473C18.0376 29.0209 18.0446 28.9852 18.0705 28.9676C18.0962 28.9497 18.1314 28.9567 18.1489 28.9831C18.187 29.0407 18.2248 29.0987 18.2626 29.1568C18.5526 29.6039 18.8268 30.0264 19.2714 30.1499C19.3016 30.1584 19.3193 30.1899 19.311 30.2204ZM22.1121 26.3144C21.3057 26.772 20.388 27.3221 19.7017 28.0596C19.6905 28.0715 19.6755 28.0774 19.6605 28.0774C19.6466 28.0774 19.6325 28.0723 19.6217 28.0619C19.5989 28.0402 19.5978 28.0038 19.6193 27.9808C20.3165 27.2314 21.2432 26.6761 22.0569 26.2143C22.0837 26.1991 22.1184 26.2086 22.1339 26.2363C22.1491 26.264 22.1394 26.2989 22.1121 26.3144ZM25.6728 30.469C25.6622 30.4868 25.6435 30.4967 25.6244 30.4967C25.6144 30.4967 25.6043 30.4941 25.5952 30.4886C25.5886 30.4845 25.582 30.4806 25.5754 30.4764C25.5725 30.4769 25.5695 30.4771 25.5666 30.4771C25.5515 30.4771 25.5364 30.471 25.5254 30.4591C25.5154 30.4483 25.5055 30.4377 25.4955 30.4269C24.1385 29.5784 23.5488 28.7384 23.7417 27.9286C23.749 27.8978 23.7803 27.8791 23.8099 27.8864C23.8405 27.8937 23.8589 27.9248 23.8516 27.9556C23.6928 28.6215 24.1185 29.3204 25.1176 30.0373C24.6511 29.5595 24.2048 29.071 24.3392 28.6465C24.3488 28.6161 24.3796 28.5993 24.4104 28.6095C24.4401 28.619 24.4565 28.6515 24.4469 28.6816C24.3253 29.066 24.8135 29.5643 25.2857 30.0458C25.3811 30.1432 25.4765 30.2405 25.5675 30.3372C25.5958 30.3549 25.6243 30.3726 25.6534 30.3902C25.6802 30.4066 25.6889 30.4418 25.6728 30.469ZM26.2531 30.151C26.2435 30.1722 26.2229 30.1846 26.2014 30.1846C26.1936 30.1846 26.1857 30.183 26.178 30.1796C25.5618 29.8967 25.2464 29.3738 25.2408 28.6255C25.2404 28.5934 25.2657 28.5714 25.2973 28.5677C25.3283 28.5677 25.3537 28.5929 25.3538 28.6245C25.3592 29.3342 25.6441 29.8085 26.2247 30.0749C26.2532 30.0881 26.2658 30.122 26.2531 30.151ZM26.9185 34.286C26.8979 34.3094 26.8619 34.3111 26.8387 34.2896C26.8035 34.2572 26.6113 34.1919 26.3998 34.2136C26.2579 34.2283 26.0589 34.2879 25.9159 34.488C25.9049 34.5034 25.8877 34.5116 25.8701 34.5116C25.8586 34.5116 25.847 34.508 25.837 34.5007C25.8117 34.4822 25.8061 34.4463 25.8244 34.4206C25.9918 34.1861 26.2236 34.1167 26.3882 34.0995C26.6281 34.0753 26.8517 34.1461 26.915 34.2051C26.9381 34.2264 26.9396 34.2627 26.9185 34.286ZM26.9901 31.1118C26.9301 31.013 26.8809 30.9858 26.8628 30.984C26.8309 30.9889 26.8035 30.9662 26.7995 30.9346C26.7954 30.9032 26.8174 30.8745 26.8483 30.8704C26.9746 30.8521 27.1047 31.0226 27.234 31.3721C27.2997 31.5496 27.5294 32.2898 27.368 32.3991C27.3583 32.4057 27.3474 32.4087 27.3365 32.4087C27.3184 32.4087 27.3005 32.3998 27.2896 32.3832C27.2721 32.3569 27.2791 32.3213 27.3051 32.3038C27.3562 32.2251 27.2065 31.4687 26.9901 31.1118ZM27.8706 34.5347C27.8496 34.5582 27.8137 34.5595 27.7908 34.5378C27.6901 34.4434 27.5501 34.3973 27.4242 34.4177C27.3252 34.4337 27.2446 34.4896 27.1974 34.5756C27.187 34.5944 27.1677 34.6049 27.1481 34.6049C27.1388 34.6049 27.1292 34.6026 27.1204 34.5978C27.0931 34.5822 27.0835 34.5473 27.0986 34.5196C27.1632 34.4024 27.2724 34.3259 27.4063 34.3044C27.5684 34.2792 27.7399 34.3341 27.8675 34.4537C27.8906 34.4751 27.892 34.5114 27.8706 34.5347Z" fill="#FFD700"/>
<path d="M15.6862 32.2057C15.8725 32.5497 15.8065 33.1093 15.7632 33.3436C15.7068 33.3096 15.6466 33.2856 15.5979 33.294C15.4593 33.3159 15.3868 33.434 15.3101 33.5589C15.277 33.6131 15.2431 33.668 15.2025 33.7187C15.1615 33.1232 15.3427 32.7141 15.6853 32.2051L15.6862 32.2057Z" fill="#FFD700"/>
<path d="M14.9565 25.0596C14.931 25.1793 14.9177 25.3129 14.9108 25.406C14.9015 25.3976 14.8922 25.3892 14.8829 25.3807C14.8314 25.3341 14.7792 25.287 14.7214 25.2445L14.7236 25.2415C14.6639 25.1965 14.4188 24.7282 14.5188 24.5642C14.5748 24.4724 14.6329 24.4219 14.6826 24.4219C14.6829 24.4219 14.6833 24.4219 14.6835 24.4219C14.7372 24.4225 14.7812 24.4847 14.8026 24.5218C14.9078 24.7029 14.9465 24.9753 14.9565 25.0596Z" fill="#FFD700"/>
<path d="M15.1042 16.4437C14.97 16.4277 14.8113 16.3971 14.7295 16.3433C14.7015 16.3251 14.6731 16.31 14.6445 16.2949C14.5823 16.2621 14.5235 16.231 14.4676 16.1594C14.43 16.1111 14.4284 15.9844 14.4651 15.9441C14.482 15.9253 14.5362 15.9043 14.5832 15.9043C14.6058 15.9043 14.6163 15.9094 14.6173 15.9097C14.7086 16.0998 14.9454 16.314 15.1042 16.4437Z" fill="#FFD700"/>
<path d="M14.2536 15.3153L14.6284 15.6256L14.5621 15.7896C14.4994 15.7943 14.4223 15.8203 14.3813 15.8655C14.3324 15.9192 14.317 16.0078 14.3267 16.0887C14.3134 16.0865 14.301 16.0852 14.2901 16.0852C14.2653 16.0852 14.2359 16.0816 14.2077 16.0785C14.1743 16.0748 14.144 16.0714 14.1182 16.0721C14.0743 16.0103 14.0391 15.9659 14.0289 15.9532C14.0091 15.9285 13.9732 15.925 13.9493 15.9448C13.925 15.9649 13.9214 16.0009 13.941 16.0255C14.0069 16.1075 14.1575 16.3155 14.2219 16.4811C14.1343 16.4617 14.0613 16.4726 14.0044 16.5141C13.9549 16.5499 13.9211 16.6075 13.9051 16.6813C13.8856 16.6747 13.8668 16.6684 13.8489 16.6625C13.661 16.5999 13.5753 16.5713 13.4056 16.2579C13.3907 16.2301 13.3558 16.2203 13.329 16.2351C13.3014 16.2504 13.2916 16.2853 13.3065 16.313C13.4497 16.5779 13.5488 16.6652 13.6753 16.721L13.6598 17.0023C13.6234 16.9596 13.5818 16.9228 13.5333 16.8978C13.507 16.8843 13.4793 16.8774 13.4515 16.8774C13.3453 16.8774 13.2687 16.9738 13.2229 17.0547C13.2069 17.0832 13.1983 17.1153 13.1958 17.1495C12.9119 16.9688 12.7273 16.8199 12.6411 16.7456C12.6361 16.6281 12.6509 16.4936 12.6837 16.4658C12.7278 16.4281 12.9369 16.3733 13.0715 16.3464L13.1331 16.3339L13.1145 16.2731C13.07 16.1272 13.0327 15.883 13.0945 15.8225C13.1621 15.7569 13.3613 15.7761 13.4713 15.8042L13.5376 15.8208L13.5415 15.7516C13.5489 15.617 13.5891 15.3767 13.6652 15.3049C13.7512 15.2239 14.0665 15.2674 14.2536 15.3153Z" fill="#FFD700"/>
<path d="M14.3308 16.7521C14.388 16.8598 14.4424 16.9624 14.6092 17.1701C14.3644 17.1212 14.2431 16.9909 14.1252 16.8641C14.0867 16.8227 14.0495 16.7828 14.0093 16.7471C14.0155 16.6818 14.0366 16.6326 14.07 16.6083C14.1194 16.5727 14.197 16.5901 14.2555 16.6118L14.2594 16.6233C14.288 16.6709 14.3096 16.7117 14.3308 16.7521Z" fill="#FFD700"/>
<path d="M14.146 22.9236L13.5793 23.3656L12.9721 22.8193C13.2926 22.3204 13.6732 21.6144 13.4703 21.0697C13.3512 20.7495 13.0438 20.5189 12.5473 20.3824L12.5101 20.3786C12.1241 20.34 11.6484 20.2932 11.0677 21.9683C10.7799 20.7706 11.1084 20.0262 12.0455 19.7544C12.7529 19.5484 13.6476 19.8976 14.0827 20.548C14.315 20.8952 14.6 21.6153 13.8993 22.535C13.8731 22.5701 13.8641 22.6116 13.8737 22.6548C13.8979 22.7633 14.0397 22.8629 14.146 22.9236Z" fill="#FFD700"/>
<path d="M14.0873 25.202L14.1221 25.3901C13.9992 25.2964 13.8713 25.2298 13.742 25.1756C13.661 25.1233 13.5012 24.9463 13.4514 24.7996C13.4372 24.7583 13.4355 24.7248 13.4471 24.7146C13.4525 24.7097 13.4583 24.7051 13.4645 24.7008C13.5143 24.666 13.5887 24.6475 13.6566 24.6534C13.7089 24.6584 13.7502 24.6772 13.7731 24.707C13.7948 24.7352 13.8189 24.7698 13.8437 24.8073C13.8467 24.8223 13.8554 24.8347 13.8669 24.8428C13.9182 24.9226 13.9705 25.0104 14.0106 25.0774C14.0486 25.1412 14.0711 25.1793 14.0873 25.202Z" fill="#FFD700"/>
<path d="M14.7208 15.7031L14.6763 15.8133C14.6998 15.8279 14.7124 15.8464 14.719 15.86C14.8465 16.1249 15.3184 16.4663 15.3232 16.4698L15.4753 16.5792L15.2889 16.5739C15.2711 16.5734 14.8499 16.5603 14.6681 16.4406C14.6434 16.4242 14.6178 16.411 14.5925 16.3976C14.5256 16.3621 14.4499 16.3223 14.3792 16.2313C14.3759 16.2272 14.3727 16.2228 14.3697 16.2181C14.3439 16.2112 14.3061 16.2015 14.2908 16.2015C14.2635 16.2015 14.2314 16.1982 14.2 16.1946C14.2773 16.3172 14.3535 16.4633 14.364 16.5767C14.3903 16.6211 14.4109 16.66 14.4312 16.6984C14.4949 16.8185 14.5548 16.9316 14.7883 17.2087L14.8751 17.3115L14.7419 17.3033C14.3558 17.2789 14.1826 17.093 14.0437 16.9436C13.9971 16.8936 13.953 16.8462 13.905 16.8084L13.8954 16.8086C13.8953 16.806 13.8953 16.8035 13.8953 16.8009C13.8952 16.8008 13.8949 16.8006 13.8948 16.8005C13.866 16.7904 13.8394 16.7815 13.8143 16.7732C13.805 16.7702 13.796 16.7671 13.7871 16.7642L13.7657 17.151L13.7607 17.1508C13.777 17.1789 13.792 17.2067 13.8063 17.2331L13.8139 17.2477C13.8465 17.3081 13.8698 17.3515 13.8902 17.3858C14.1649 17.4011 14.3336 17.4462 14.5861 17.5872C14.738 17.6773 14.9168 17.8282 15.1211 18.0388C15.635 18.5145 16.2491 18.7461 16.9944 18.7461C17.0257 18.7461 17.0509 18.7716 17.0509 18.8034C17.0509 18.835 17.0257 18.8606 16.9944 18.8606C16.4325 18.8606 15.9422 18.7339 15.511 18.4753C15.6518 18.6437 15.8015 18.8334 15.96 19.044C15.9667 19.0529 16.5205 19.7943 16.6869 20.0887C17.0798 19.4267 17.5495 18.8854 18.0093 18.4255L14.7208 15.7031ZM17.3666 18.4165C17.3618 18.4444 17.3379 18.4638 17.3109 18.4638C17.3078 18.4638 17.3044 18.4637 17.301 18.463C17.0833 18.4246 16.863 18.2687 16.6499 18.1181C16.5607 18.0551 16.4767 17.9956 16.3941 17.9453C16.1923 17.8225 15.9118 17.6244 15.8111 17.5187C15.7894 17.496 15.79 17.4596 15.8124 17.4374C15.8347 17.4155 15.8705 17.4161 15.8924 17.4389C15.9825 17.5335 16.2599 17.7299 16.4522 17.8471C16.5383 17.8993 16.6278 17.9628 16.7146 18.024C16.9176 18.1676 17.1276 18.316 17.3207 18.3501C17.3514 18.3555 17.3719 18.3852 17.3666 18.4165Z" fill="#FFD700"/>
<path d="M14.0117 17.6881C13.9114 17.5975 13.8692 17.5591 13.8262 17.496C13.8145 17.4788 13.8025 17.4596 13.7896 17.4372C13.7795 17.42 13.7688 17.4009 13.7568 17.379C13.7445 17.3563 13.7306 17.3308 13.715 17.3017L13.7067 17.2865C13.6498 17.181 13.579 17.0498 13.4826 17.0003C13.472 16.9947 13.462 16.9922 13.452 16.9922C13.4126 16.9922 13.3638 17.0368 13.3216 17.1117C13.3069 17.1377 13.306 17.1776 13.3143 17.2227C13.3191 17.2484 13.3269 17.2757 13.337 17.303C13.3486 17.3344 13.3632 17.3656 13.3797 17.3943C13.3991 17.4283 13.421 17.4587 13.4436 17.4817C13.4987 17.5381 13.541 17.5846 13.5761 17.6229C13.7252 17.7867 13.7276 17.7892 14.1559 17.8194C14.0967 17.7647 14.0498 17.7225 14.0117 17.6881Z" fill="#FFD700"/>
<path d="M13.4863 25.0806C13.4686 25.0746 13.451 25.0685 13.4334 25.0625C13.3151 25.0222 13.1931 24.9807 13.0764 24.9278C12.9399 24.7799 12.7372 24.5071 12.7528 24.3777C12.7663 24.2652 12.8628 24.1301 12.9893 23.998C12.9673 24.146 12.9841 24.2746 13.0395 24.3817C13.0998 24.4981 13.2051 24.5883 13.353 24.6509C13.3267 24.6878 13.3118 24.7495 13.3496 24.8506C13.3747 24.9179 13.4257 25.0025 13.4863 25.0806Z" fill="#FFD700"/>
<path d="M13.2145 17.2959C13.0998 17.2252 12.999 17.1583 12.9123 17.0977C12.9019 17.0904 12.8917 17.0831 12.8819 17.0762L9.69057 20.4139L9.28514 20.0232L8.99121 20.3709L10.1966 21.5546L10.529 21.1835L10.079 20.727L13.2405 17.4308V17.4307L13.2598 17.4106C13.2418 17.3744 13.226 17.3354 13.2145 17.2959Z" fill="#FFD700"/>
</g>
<defs>
<clipPath id="clip0_263_154391">
<rect width="40" height="40" fill="white"/>
</clipPath>
</defs>
</svg>
