<svg width="40" height="40" viewBox="0 0 40 40" fill="none" xmlns="http://www.w3.org/2000/svg">
<path fill-rule="evenodd" clip-rule="evenodd" d="M35.8743 25.0724C33.7282 31.7988 27.429 36.6673 19.9924 36.6673C12.5559 36.6673 5.75746 31.3974 3.87902 24.2542C21.2688 30.6563 22.9722 20.1731 35.8794 25.0673M36.5845 19.4268H36.5639C36.5639 19.4268 36.6102 19.4371 36.5845 19.4268ZM36.6565 19.468C36.6617 19.643 36.6668 19.818 36.6668 19.9929C36.6668 20.4561 36.6462 20.909 36.6102 21.3619C29.2714 18.7218 25.2161 20.4613 21.068 22.2419C20.2498 22.5919 19.4778 22.9007 18.747 23.1683C14.3262 24.7791 11.3362 24.8357 7.25507 23.5594C6.95657 23.4462 6.65808 23.333 6.3493 23.2043C6.65808 23.333 6.96172 23.4462 7.25507 23.5594C6.10227 23.1992 4.85684 22.7308 3.47245 22.1647C3.37981 21.4545 3.3335 20.7289 3.3335 19.9929C3.3335 19.3702 3.36952 18.7526 3.43642 18.1454C16.215 22.8595 20.538 18.4593 27.0327 17.7234C28.1032 17.5999 29.2303 17.5793 30.4654 17.7131C32.2358 17.9035 34.2223 18.4181 36.5691 19.4165L36.6565 19.4629V19.468ZM35.2413 13.246C35.5192 13.8738 35.7611 14.5223 35.9618 15.1913C28.7722 12.6747 24.758 14.3936 20.6512 16.1537C19.0095 16.8588 17.5685 17.3888 16.2356 17.7542C13.2403 18.5725 10.8112 18.5519 7.89837 17.78C6.6272 17.4455 5.26855 16.9617 3.72977 16.3493C3.99224 15.1707 4.37822 14.0385 4.87742 12.9732C15.2835 16.2412 19.6425 13.0504 25.1337 12.0263C26.9092 11.6969 28.8083 11.594 31.0675 12.0108C32.3336 12.2424 33.7076 12.6387 35.2413 13.246ZM19.9976 3.33398C24.6808 3.33398 28.9112 5.26904 31.9424 8.37747C26.7806 7.37392 23.4303 8.80977 20.0182 10.2714C18.0677 11.1102 16.4002 11.7021 14.8615 12.0623C12.4478 12.6284 10.3635 12.613 8.00644 12.0829C7.2705 11.9182 6.50884 11.6969 5.70085 11.4293C8.61372 6.58137 13.9248 3.33398 19.9976 3.33398Z" fill="#0A4881"/>
</svg>
