<svg width="41" height="46" viewBox="0 0 41 46" fill="none" xmlns="http://www.w3.org/2000/svg">
<path d="M37.7274 1.05469V37.3453C37.7274 40.3065 36.3681 42.2594 32.5695 42.2594H24.6337C22.7197 42.2594 20.7321 43.0333 20.1137 45.7643C19.4953 43.0333 17.5077 42.2594 15.5937 42.2594H7.65788C3.8593 42.2594 2.5 40.3065 2.5 37.3453V1.05469H37.7274Z" fill="#D6D6D6" stroke="black"/>
<path d="M13.7854 7.85347C13.582 8.13553 13.5417 8.88356 14.5267 8.87046C15.5118 8.85735 16.4166 8.86528 17.3734 9.08297C18.3303 9.30064 18.5299 9.44726 18.5299 9.44726L18.0258 10.1303C18.0258 10.1303 17.151 9.67495 16.0094 9.70531C14.8678 9.73568 13.9268 9.97212 13.2813 9.75084C12.6544 9.53594 12.3927 8.89904 12.7179 8.30884C13.0441 7.71686 13.7854 7.85347 13.7854 7.85347Z" fill="black"/>
<path d="M14.5272 9.05289C15.4016 9.04123 16.3043 9.00629 17.1559 9.13507C18.0925 9.27671 18.4563 9.4779 18.4563 9.4779L18.2487 9.97881C18.2487 9.97881 17.2771 9.55269 16.0037 9.54306C14.7304 9.53342 14.1758 9.72607 13.6082 9.53154C13.0406 9.33699 12.8795 8.88752 13.0295 8.54389C13.1795 8.20026 13.4597 8.2484 13.4597 8.2484C13.3593 8.61448 13.6529 9.06452 14.5272 9.05289Z" fill="#D3230E"/>
<path d="M15.1345 10.0579C15.0492 9.49439 15.2933 9.24003 15.2933 9.24003C15.5305 9.51326 15.5898 9.87755 15.5898 9.87755C15.5898 9.87755 16.0791 10.2418 16.8352 10.2722C17.5914 10.3026 18.2438 10.0749 18.3179 9.45254C18.392 8.8302 17.9917 8.40519 17.2652 8.2534C16.5387 8.10161 15.5601 8.32929 15.5601 8.32929C15.3526 8.63287 15.0412 9.33111 15.0412 9.33111C14.8188 8.98199 14.8485 8.32929 14.8485 8.32929C14.5816 8.37483 14.2999 8.32929 14.3295 8.10161C14.3592 7.87392 14.5075 7.84357 14.5075 7.84357C14.463 7.49445 14.5668 7.37302 14.5668 7.37302C14.5668 7.37302 14.3147 7.35783 14.2554 7.19087C14.1961 7.0239 14.3147 6.96318 14.2406 6.81139C14.1664 6.6596 14.2109 6.52299 14.2109 6.52299C14.2109 6.52299 14.0478 6.49263 13.9589 6.34084C13.8699 6.18905 13.781 5.49082 13.781 5.49082L17.621 5.29349C17.8434 5.12652 18.0807 5.02027 18.9999 4.91401C19.9192 4.80776 20.7593 4.76223 20.7593 4.76223C20.789 4.42829 20.2883 4.38983 20.2701 3.79077C20.2518 3.1917 20.9372 2.65234 21.812 2.65234C22.6868 2.65234 23.4281 3.28986 23.4281 3.28986C23.4281 3.28986 23.4429 3.38094 23.1168 3.42648C22.7906 3.47201 22.7461 3.57826 22.7461 3.57826C23.1019 3.51755 23.2057 3.66934 23.2057 3.66934L22.7016 4.06399C22.8795 4.01845 23.0723 4.07917 23.0723 4.07917C22.9092 4.47383 22.3606 4.94438 22.3606 4.94438C22.8499 4.91402 23.1464 5.08099 23.1464 5.08099C23.1464 5.08099 23.2502 4.09435 23.5764 3.51755C23.9026 2.94075 24.5698 2.66752 25.2814 2.86485C25.9931 3.06218 26.8827 3.68452 27.3423 4.04881C27.8019 4.41311 27.9799 4.7774 27.9799 4.7774C27.3275 4.79259 26.7493 5.00509 26.7493 5.00509C27.1347 5.11134 27.3423 5.47564 27.3423 5.47564C26.9568 5.35421 26.0821 5.39975 26.0821 5.39975C26.4231 5.47564 26.7493 5.7944 26.7493 5.7944C26.7493 5.7944 26.4972 5.74886 26.0376 5.83993C25.578 5.93101 25.6373 6.14352 25.6373 6.14352C25.6373 6.14352 25.8152 6.23459 26.0524 6.56853C26.2896 6.90247 26.9124 7.76767 27.4165 7.90428C27.9206 8.04089 27.9947 8.13197 27.9947 8.13197C27.7723 8.16232 27.624 8.23822 27.624 8.23822C27.9502 8.60252 28.4247 8.76948 28.4247 8.76948C28.1578 8.99717 27.5351 9.08824 27.5351 9.08824C27.9206 9.43736 29.0622 9.96862 29.0622 9.96862C28.7953 10.2267 28.3209 10.2874 28.3209 10.2874C28.9288 10.8035 29.9666 11.1526 29.9666 11.1526C29.507 11.3651 28.6322 11.3955 28.6322 11.3955C28.9881 11.9267 29.5663 12.2758 30.1445 12.5794C30.7228 12.883 31.3603 12.9741 31.3603 12.9741C31.0638 13.2018 30.1445 13.3232 30.1445 13.3232C30.4856 13.6116 31.3751 13.6875 31.3751 13.6875C31.1083 14.0973 30.4164 14.2289 30.4164 14.2289C30.9056 14.5628 31.6321 14.6691 31.6321 14.6691C31.3801 14.9423 30.9649 15.0182 30.9649 15.0182C31.2763 15.1548 31.7804 15.17 31.7804 15.17C31.5432 15.428 31.2022 15.5039 31.2022 15.5039C31.4246 15.595 31.7359 15.595 31.7359 15.595C31.5877 15.7923 31.3653 15.8834 31.3653 15.8834C31.5877 16.2932 32.4179 17.9933 32.7886 19.1772C33.1593 20.3612 33.8561 22.5621 34.0933 23.3666C34.3306 24.1711 34.7161 24.9301 34.7161 24.9301C34.2416 24.8693 33.6782 24.4595 33.6782 24.4595C33.6782 24.4595 33.6189 24.8997 33.8858 25.3551C34.1527 25.8104 34.3602 26.1747 34.3602 26.1747C33.8561 26.0685 33.1889 25.4765 33.1889 25.4765C33.2482 26.114 33.7523 26.873 33.7523 26.873C33.4113 26.7667 32.8034 26.3569 32.8034 26.3569C33.011 26.9944 33.3834 27.7106 33.3834 27.7106C33.1423 27.6033 32.4713 27.1417 32.4713 27.1417C32.5238 27.5818 33.0061 28.1581 33.0061 28.1581C32.5909 28.1126 32.3092 27.7938 32.3092 27.7938C32.3092 27.7938 32.0383 28.9941 31.7219 30.2735C31.4956 31.1883 31.1083 32.1047 31.1083 32.1047C31.2714 32.3475 31.6124 32.4993 31.6124 32.4993C31.3603 32.5752 30.8266 32.6056 30.8266 32.6056C31.1527 32.8485 31.7903 32.8181 31.7903 32.8181C31.5827 33.0761 30.8859 33.3797 30.8859 33.3797C31.2417 33.5163 31.8348 33.5315 31.8348 33.5315C31.5827 33.8503 30.7524 34.0628 30.7524 34.0628C31.1676 34.1539 31.5531 34.1235 31.5531 34.1235C31.301 34.4422 30.6338 34.6396 30.6338 34.6396C30.9452 34.7306 31.39 34.761 31.4048 34.761C30.9748 35.0646 30.1149 34.8976 30.1149 34.8976C29.5811 35.353 28.6619 36.0209 27.2089 36.8253C25.7559 37.6298 24.6587 37.8727 24.6439 37.8879C24.3474 38.0548 23.9322 38.1915 23.9322 38.1915C24.3029 38.8897 24.1991 39.6335 24.1991 39.6335C24.0063 39.2843 23.8284 38.9959 23.8284 38.9959C23.9619 39.6638 23.8136 40.5138 23.8136 40.5138C23.6209 39.9522 23.1761 39.6942 23.1761 39.6942C23.3985 40.2558 23.265 40.7567 23.265 40.7567C22.924 40.1647 22.3161 39.7701 22.3161 39.7701C22.583 40.3013 22.5089 41.0755 22.5089 41.0755C22.0492 40.3469 21.2783 39.846 21.2783 39.846C21.5303 40.2406 21.5303 40.9085 21.5303 40.9085C21.1152 40.2406 20.4035 39.8561 20.4035 39.8561C19.9439 40.1445 19.7215 39.932 19.7215 39.932C19.0568 40.405 18.526 39.9139 18.0214 41.04C17.9176 40.3418 18.4513 39.765 18.4513 39.765C17.8434 39.9775 17.2059 40.6909 17.2059 40.6909C17.2207 39.9168 17.7693 39.2641 17.7693 39.2641C17.1021 39.3248 16.5684 40.0231 16.5684 39.9927C16.5684 39.0516 17.2207 38.5355 17.2207 38.5355C16.6573 38.6569 16.2125 39.3704 16.2125 39.3704C16.2866 38.6721 16.5916 38.0144 16.5916 38.0144C16.3924 38.1325 16.0779 38.4759 16.0779 38.4759C16.1723 38.0037 16.5811 37.5422 16.5811 37.5422C16.5811 37.5422 16.2666 37.306 15.9102 37.1021C15.5537 36.8982 15.0017 36.4813 14.1862 35.7982C13.3708 35.1152 12.5331 34.3942 12.5331 34.3942C12.5331 34.3942 12.4293 34.4018 12.0364 34.3866C11.6435 34.3714 11.2061 34.2576 11.2061 34.2576C11.6731 34.2044 11.8733 34.0451 11.8733 34.0451C11.8733 34.0451 11.7769 33.8857 11.1913 33.7035C10.6056 33.5214 10.3832 33.233 10.3832 33.233C10.7094 33.3013 11.0207 33.2785 11.0207 33.2785C11.0207 33.2785 10.8725 33.195 10.6204 32.9522C10.3684 32.7093 10.0496 32.2539 10.0496 32.2539C10.0496 32.2539 10.2942 32.4361 10.5611 32.5044C10.828 32.5727 11.0801 32.5803 11.0801 32.5803C11.0801 32.5803 10.8725 32.4588 10.6056 32.1932C10.3387 31.9276 10.02 31.4039 10.02 31.4039C10.02 31.4039 10.1979 31.6088 10.4647 31.6543C10.7316 31.6999 10.9244 31.6392 10.9244 31.6392C10.4647 31.366 9.90134 30.6677 9.90134 30.6677C10.0051 30.7284 10.4203 30.774 10.4203 30.774C10.1237 30.4704 9.97547 30.1972 9.79755 29.3927C9.61964 28.5882 9.61963 27.7685 9.61963 27.7685C9.61963 27.7685 9.08511 27.063 8.68672 26.6337C8.28833 26.2044 7.99478 25.6462 7.99478 25.6462C7.99478 25.6462 7.97381 25.6033 7.7222 25.6677C7.47058 25.7321 7.32381 25.6892 7.32381 25.6892L7.75365 25.013C7.75365 25.013 7.64881 25.0344 7.33429 25.2276C7.01977 25.4208 6.70525 25.3564 6.70525 25.3564C6.70525 25.3564 7.16655 25.013 7.40768 24.7232C7.64881 24.4334 7.82704 24.208 7.82704 24.208C7.82704 24.208 7.69074 24.1651 7.34477 24.2724C6.9988 24.3797 6.65283 24.2295 6.65283 24.2295C6.65283 24.2295 7.198 24.0363 7.4601 23.7143C7.7222 23.3923 7.83752 22.9951 7.83752 22.9951C7.41816 23.2313 7.12461 22.9737 7.12461 22.9737C7.39719 22.8127 7.65929 22.5551 7.99478 22.1687C8.33027 21.7823 8.53995 21.3422 8.53995 21.3422C8.25688 21.4281 7.848 21.4388 7.848 21.4388C8.8335 20.9773 9.30528 20.2796 9.7456 19.7108C10.1859 19.1419 10.8779 18.1867 11.3392 17.6286C11.8005 17.0704 13.1005 15.8039 13.8658 15.1385C14.6311 14.473 15.6166 13.8075 16.5916 13.3031C17.5666 12.7986 18.4578 12.4981 18.4578 12.4981C18.3425 12.1761 18.1223 11.9078 17.7134 11.6502C17.3045 11.3926 16.8066 11.3282 16.8066 11.3282C16.7489 11.4355 16.7646 11.5858 16.7646 11.5858C16.6336 11.5482 16.5602 11.414 16.5602 11.414L16.5392 11.6502C16.492 11.5643 16.4029 11.4087 16.4029 11.4087C16.3924 11.4623 16.3557 11.516 16.3557 11.516C16.3033 11.4301 16.2404 11.3389 16.2404 11.3389L16.1408 11.3174C16.1356 11.4033 16.0939 11.4713 16.0939 11.4713C15.9456 11.2133 15.7232 11.0615 15.7232 11.0615L15.4662 11.2133C15.3773 11.016 15.4069 10.7124 15.4069 10.7124C15.2883 10.5454 15.0294 10.1508 15.0294 10.1508L15.1345 10.0579Z" fill="black"/>
<path d="M24.8255 4.26576C24.675 4.26793 24.525 4.29743 24.3913 4.36183C23.8567 4.61942 23.888 5.23133 23.888 5.23133C24.3388 5.43526 24.8525 5.49962 24.8525 5.49962C24.8525 5.49962 24.9155 5.38155 25.2301 5.05955C25.5446 4.73756 25.7646 4.78042 25.7646 4.78042C25.7331 4.49867 25.2771 4.25922 24.8255 4.26576ZM15.3202 5.4113L15.2331 5.41573C15.3218 5.72793 15.2493 6.17588 15.2493 6.17588C15.2493 6.17588 15.3437 5.95045 15.3542 5.62845C15.3578 5.51588 15.342 5.45042 15.3202 5.4113ZM14.379 5.54256C14.379 5.54256 14.2009 5.53173 14.0017 5.59613C14.0017 5.59613 14.0855 5.75729 14.2428 5.77875C14.4001 5.80022 14.4629 5.78937 14.4629 5.78937L14.379 5.54256ZM14.6184 6.48401C14.494 6.47374 14.3896 6.60509 14.3896 6.60509C14.6098 6.63729 14.8194 6.56213 14.6727 6.49773C14.6543 6.48969 14.6362 6.48548 14.6184 6.48401ZM18.1395 8.20243C18.1395 8.20243 18.9698 8.73351 19.0291 9.44692C19.0884 10.1603 18.5251 10.54 18.5251 10.54C18.5251 10.54 19.1329 10.4943 19.3108 9.76568C19.4887 9.03709 18.5992 8.2935 18.1395 8.20243ZM15.2106 8.26397C15.1592 8.26295 15.091 8.26959 15.0046 8.28301C15.0046 8.28301 14.9521 8.85197 15.0675 9.08809C15.0675 9.08809 15.1305 8.73397 15.2668 8.50857C15.369 8.33952 15.3649 8.26699 15.2106 8.26397ZM15.2982 9.37786C15.2982 9.37786 15.2052 9.56371 15.2143 9.80464C15.2234 10.0456 15.252 10.0762 15.2878 10.0971C15.3236 10.1179 15.4345 10.1078 15.466 10.0326C15.4974 9.9575 15.3401 9.66765 15.2982 9.37786ZM27.0947 11.3141C27.3171 11.7391 27.5841 11.8604 27.5841 11.8604C26.6945 11.7997 25.7308 11.4354 25.7308 11.4354C25.9236 11.7845 26.4424 12.0882 26.4424 12.0882C25.968 12.1186 24.9302 11.9213 24.9302 11.9213C25.2267 12.407 25.8493 12.6651 25.8493 12.6651C25.3156 12.6651 24.0553 12.5132 24.0553 12.5132C24.2926 12.832 24.7669 13.0595 24.7669 13.0595C24.3518 13.2417 23.744 12.9989 23.744 12.9989C23.744 12.9989 24.1147 13.4997 25.2119 13.1658C24.9747 13.1202 24.4556 12.6345 24.4556 12.6345C24.4556 12.6345 24.8561 12.7561 25.5233 12.8016C26.1905 12.8472 26.7092 12.6801 26.7092 12.6801C25.9976 12.6042 25.3749 12.1641 25.3749 12.1641C26.0125 12.4373 27.3171 12.4373 27.3319 12.4373C26.9168 12.3462 26.5462 11.8907 26.5462 11.8907C27.3913 12.1184 28.0288 11.9819 28.0288 11.9819C27.7323 11.8757 27.4506 11.572 27.4506 11.572L27.7471 11.481C27.7471 11.481 27.1244 11.3141 27.0947 11.3141ZM18.9402 12.9229C18.9402 12.9229 19.7556 13.6212 20.1411 14.0311C20.5266 14.4409 20.6896 14.4864 20.6896 14.4864C20.6896 14.4864 20.8231 14.1979 20.66 13.9095C20.66 13.9095 21.5348 14.1677 21.8313 14.4864C21.8313 14.4864 21.935 14.3043 21.7571 14.0614C21.5792 13.8185 21.5645 13.6061 21.5645 13.6061L22.632 14.0917C22.632 14.0917 22.5727 13.849 22.291 13.682C22.0093 13.515 21.8017 13.1354 21.8017 13.1354C21.8017 13.1354 21.8313 13.4543 22.0834 13.682C22.0834 13.682 21.5051 13.3935 21.2827 13.1658C21.3068 13.4853 21.5392 13.6443 21.4756 14.0311C21.0945 13.5822 20.6159 13.5053 20.1707 13.1963C20.2264 13.572 20.5386 13.6789 20.5712 14.1526C20.5712 14.1526 19.5333 13.181 18.9402 12.9229ZM28.9798 13.1917C28.2039 13.1702 26.0106 13.5225 23.7797 14.1792C21.5487 14.8358 20.1943 15.51 20.1943 15.51C20.1943 15.51 19.2297 15.4242 18.2861 14.866C17.3426 14.3079 16.5285 13.4998 16.5285 13.4998C16.5285 13.4998 16.9651 14.7587 17.4474 15.7247C17.9297 16.6907 18.0345 16.5835 18.2442 17.0987L22.942 17.1137C23.2565 16.3624 24.7111 15.4053 26.0949 14.611C27.4788 13.8168 28.9798 13.1917 28.9798 13.1917ZM26.9179 19.7103C26.9179 19.7103 26.8968 21.3204 26.6243 22.6298C26.3517 23.9393 25.7017 26 25.0517 26.6225C24.4017 27.245 24.5695 27.3953 24.5695 27.3953C24.6114 27.3738 25.471 27.202 25.8694 26.1931C26.2678 25.1841 26.834 23.4026 26.9598 21.9C27.0856 20.3974 26.9179 19.7103 26.9179 19.7103ZM13.4346 20.0926C13.4346 20.0926 13.0342 21.1248 13.2566 22.3695C13.479 23.6142 14.2205 25.3901 14.5911 26.0124C14.9618 26.6348 15.362 27.1356 15.362 27.1356L15.0359 26.2856C15.0359 26.2856 14.7541 26.0124 14.3241 25.299C13.8941 24.5856 13.5384 22.764 13.4049 22.0961C13.2715 21.4282 13.3308 20.5783 13.4346 20.0926ZM9.61914 27.768C9.61914 27.768 9.62233 27.912 9.63233 28.1056C9.91301 28.4072 11.204 29.7873 11.8927 30.3839C12.6637 31.0517 14.0277 32.0385 14.0277 32.0385C14.0277 32.0385 14.161 32.0384 14.9468 32.1902C15.7326 32.3419 17.1559 32.2661 17.1559 32.2661C17.1559 32.2661 17.1857 31.9322 17.5564 32.0536C17.9271 32.175 18.3719 32.6152 19.0539 33.2224C19.736 33.8295 20.5216 34.6189 20.5216 34.6189C19.291 34.8163 18.105 35.8634 17.4526 36.4706C16.8135 37.0655 16.7853 37.3056 16.7853 37.3056C17.6008 36.4252 18.5795 35.7877 19.1873 35.393C19.7952 34.9984 20.062 35.1046 20.062 35.1046C20.403 34.6948 20.7738 34.7402 20.7738 34.7402C20.7738 34.7402 21.0109 34.3608 21.4112 33.6171C21.8115 32.8733 22.3898 32.0689 22.3898 32.0689C22.3898 32.0689 23.48 32.5859 24.9399 32.3723C26.3998 32.1588 27.0601 31.6893 28.1573 31.0214C29.2544 30.3535 30.5888 29.4428 31.2412 28.9419C31.7733 28.5334 32.0906 28.2962 32.2142 28.2041C32.2493 28.0509 32.3087 27.7933 32.3087 27.7933C32.3087 27.7933 32.1605 27.9097 31.8047 28.2588C31.4488 28.6079 29.7439 29.7768 28.4243 30.6116C27.1719 31.404 26.1411 31.8237 24.9697 32.0992C23.7983 32.3747 22.7457 32.0233 22.7457 32.0233C22.7457 32.0233 22.7457 31.8563 22.5381 31.917C22.3305 31.9777 22.0487 32.251 21.515 33.0555C20.9812 33.8599 20.5513 34.543 20.5513 34.543C20.5513 34.543 20.062 33.8448 19.4096 33.2376C18.7572 32.6305 17.9863 32.0689 17.586 31.9323C17.1857 31.7957 17.0225 32.0385 17.0225 32.0385C17.0225 32.0385 16.6371 32.0992 15.9254 31.9929C15.2138 31.8867 13.9807 31.7386 13.9807 31.7386C13.9807 31.7386 13.3097 31.2449 12.2194 30.3004C11.1291 29.3559 9.61914 27.768 9.61914 27.768ZM22.0531 28.5979C22.0531 28.5979 21.564 28.7042 21.1785 28.8864C20.793 29.0685 20.3482 29.2354 20.3482 29.2354C20.7133 29.3466 21.1071 29.3364 21.3325 29.3173C21.5584 28.907 22.0531 28.5979 22.0531 28.5979ZM18.1741 28.6586C18.1741 28.6586 18.4895 28.901 18.6219 29.2374C18.8007 29.2853 19.1825 29.3572 19.5826 29.2354C19.5826 29.2354 19.1378 29.0685 18.7523 28.8864C18.3668 28.7042 18.1741 28.6586 18.1741 28.6586ZM18.6401 29.289C18.6599 29.3498 18.6739 29.413 18.6781 29.4783C18.6846 29.5767 18.6756 29.7032 18.6539 29.846C18.8442 29.9095 19.3225 30.0364 19.8643 29.9183C19.8643 29.9183 19.0751 29.5693 18.6401 29.289ZM21.2745 29.4395C20.791 29.6847 20.0072 29.9183 20.0072 29.9183C20.612 30.0501 21.103 29.9357 21.2287 29.9017C21.2203 29.8182 21.2178 29.7375 21.2228 29.6605C21.2278 29.5851 21.2467 29.5113 21.2745 29.4395ZM18.6479 29.8869C18.6164 30.0763 18.5613 30.2928 18.487 30.5162C18.8377 30.5211 19.4194 30.5167 19.7902 30.4346C19.7902 30.4346 19.0903 30.2354 18.6479 29.8869ZM21.2324 29.9305C20.7995 30.2931 20.1407 30.4346 20.1407 30.4346C20.4943 30.5128 21.0355 30.5202 21.3911 30.5167C21.3072 30.3133 21.2541 30.1154 21.2324 29.9305ZM18.4585 30.5957C18.4 30.7618 18.3331 30.9294 18.2537 31.0913C18.398 31.116 18.7032 31.1473 19.1231 31.0721C19.7162 30.9658 19.7458 30.8596 19.7458 30.8596C19.7458 30.8596 18.9632 30.7339 18.4585 30.5957ZM21.43 30.607C20.9248 30.7406 20.185 30.8596 20.185 30.8596C20.185 30.8596 20.2146 30.9658 20.8077 31.0721C21.2329 31.1482 21.567 31.1383 21.7262 31.1267C21.607 30.9539 21.5079 30.7792 21.43 30.607ZM18.1906 31.2155C18.1138 31.3591 18.0291 31.4954 17.9369 31.6184C17.9369 31.6184 18.7376 31.7096 19.2269 31.2846C19.2269 31.2846 18.6527 31.3091 18.1906 31.2155ZM21.8192 31.2558C21.3477 31.3499 20.7039 31.2846 20.7039 31.2846C21.1932 31.7096 22.1569 31.6489 22.1569 31.6489C22.0324 31.5215 21.92 31.3896 21.8192 31.2558ZM16.6223 37.6547C16.4444 37.814 16.3257 38.0644 16.3257 38.0644L16.7187 37.7988L16.6223 37.6547ZM16.8818 38.0266C16.8818 38.0266 16.5408 38.2391 16.4593 38.869C16.4593 38.869 16.7853 38.3756 17.0967 38.2694C17.0967 38.2694 16.9633 38.1632 16.8818 38.0266ZM23.9319 38.191C23.9319 38.191 23.4476 38.4326 22.9444 38.6043C22.4412 38.776 21.7387 39.0335 21.7387 39.0335C21.7387 39.0335 22.2105 38.98 22.9654 38.7331C23.4949 38.56 23.8377 38.4121 24.0019 38.3367C23.9806 38.2881 23.9576 38.2395 23.9319 38.191ZM24.0158 38.6211L23.8527 38.7652L24.1122 39.1752C24.1048 38.8792 24.0158 38.6211 24.0158 38.6211ZM17.3339 38.6413C17.3339 38.6413 16.8891 39.051 16.815 39.4988C17.1263 39.0662 17.623 38.8918 17.623 38.8918L17.3339 38.6413ZM23.5933 39.0537C23.5488 39.1903 23.3634 39.3877 23.3634 39.3877C23.3634 39.3877 23.3635 39.4484 23.4821 39.6002C23.6007 39.752 23.6971 40.0024 23.6971 40.0024C23.6971 40.0024 23.7415 39.7746 23.7044 39.509C23.6673 39.2434 23.5933 39.0537 23.5933 39.0537ZM18.068 39.385C17.7863 39.5141 17.5564 40.0226 17.5564 40.0226C17.7862 39.7493 18.2533 39.5747 18.2533 39.5747L18.068 39.385ZM23.0075 39.6077C22.8815 39.6609 22.6369 39.6987 22.6369 39.6987C22.7259 39.7746 23.067 40.2528 23.067 40.2528C23.0966 39.8733 23.0075 39.6077 23.0075 39.6077ZM22.118 39.7596C22.0068 39.8127 21.7178 39.843 21.7178 39.843C21.9253 40.01 22.3405 40.564 22.3405 40.564C22.3331 40.2452 22.118 39.7596 22.118 39.7596ZM20.9837 39.7822C20.9837 39.7822 20.7465 39.7974 20.7242 39.805L21.1394 40.1693C21.1394 40.1693 21.1394 39.9036 20.9837 39.7822ZM18.6388 39.8632C18.6388 39.8632 18.2606 40.1516 18.2161 40.4704C18.2161 40.4704 18.5646 40.0832 18.9279 40.0301L18.6388 39.8632Z" fill="#FEFEFE"/>
<path d="M25.1967 16.9512V26.0038C25.1967 26.8779 24.6706 27.6543 23.7921 27.7258C22.9135 27.7973 22.1663 27.8142 21.6696 27.8546C21.1728 27.8951 20.4178 28.1035 20.1135 28.8519C19.8092 28.1035 19.0542 27.8951 18.5574 27.8546C18.0607 27.8142 17.3135 27.7973 16.4349 27.7258C15.5564 27.6543 15.0303 26.8779 15.0303 26.0038V16.9512H25.1967Z" fill="#F2E847"/>
<path d="M19.0379 16.9512V22.1959L15.0322 26.0528C15.0516 26.9066 15.5731 27.6557 16.4351 27.7259L20.1136 24.1837L23.7922 27.7259C24.6542 27.6557 25.1757 26.9066 25.195 26.0528L21.1893 22.1959V16.9512H19.0379Z" fill="#2E48A5" stroke="black"/>
<path d="M19.5789 26.3271C19.5789 26.3271 19.7464 26.206 19.8207 26.0549C19.8949 25.9038 20.0227 25.8497 20.0227 25.8497C20.0227 25.8497 20.063 26.0875 20.2708 26.1985C20.2708 26.1985 20.1481 26.2754 20.1019 26.3987C20.0557 26.5221 19.5789 26.3271 19.5789 26.3271ZM20.9057 26.5149C20.9057 26.5149 21.0018 26.3755 21.1343 26.3779C21.2667 26.3803 21.2322 26.4587 21.1267 26.502C21.0211 26.5452 20.9057 26.5149 20.9057 26.5149ZM22.0858 26.2371C22.0858 26.2371 21.9709 26.5116 21.9607 26.788C21.9506 27.0645 22.0796 27.2757 22.0796 27.2757C22.0796 27.2757 21.9468 27.2958 21.7936 27.2197C21.6403 27.1435 21.4502 26.9594 21.386 26.8397C21.3217 26.72 21.3962 26.5576 21.3962 26.5576C21.3962 26.5576 21.7543 26.2593 22.0858 26.2371ZM20.9931 26.9003C20.9931 26.9003 21.1525 26.9428 21.2177 27.006C21.1429 27.1518 21.0126 27.2131 20.9676 27.4418C20.9676 27.4418 20.8629 27.4343 20.7273 27.2907C20.5917 27.1471 20.5098 27.0948 20.5098 27.0948L20.9931 26.9003ZM20.1769 27.2017C20.1769 27.2017 20.1509 27.4383 20.0821 27.5951C20.0821 27.5951 19.8417 27.4497 19.7628 27.2168L20.1769 27.2017Z" fill="#D3230E" stroke="black" stroke-width="0.5"/>
<path d="M17.9063 26.6377C18.0501 26.6259 18.253 26.4365 18.6676 26.3722C19.0822 26.308 19.5593 26.2448 20.0106 26.3168C20.462 26.3888 20.4612 26.4366 21.0532 26.5032C21.6451 26.5697 21.6993 26.5946 21.6965 26.7621C21.6938 26.9296 21.3914 26.8124 21.0928 26.9346C20.7943 27.0569 20.7069 27.151 20.1123 27.2439C19.5177 27.3369 18.9947 27.3513 18.7071 27.2823C18.4195 27.2133 18.3555 27.1459 18.1742 27.0869C17.993 27.0278 17.8998 27.0052 17.7899 26.9806C17.6799 26.9561 17.6661 26.8853 17.7091 26.8607C17.7626 26.8301 17.7561 26.9371 17.9028 26.923L17.8576 26.8571C17.934 26.8398 17.9478 26.8445 18.0035 26.851C17.9001 26.7165 17.8077 26.7506 17.6785 26.7837C17.6639 26.6677 17.7625 26.6495 17.9063 26.6377Z" fill="#D3230E" stroke="black" stroke-width="0.5"/>
<path d="M18.0027 26.8504C18.0389 26.8997 18.0624 26.934 18.1331 26.9595C18.0248 26.9135 17.902 26.9224 17.902 26.9224M18.6685 27.0511C18.6685 27.0511 18.9038 26.9836 19.1172 27.0552M18.6641 27.083C18.6641 27.083 18.863 27.0866 19.0065 27.1411M19.8587 27.2762C19.8587 27.2762 19.9614 27.4376 20.1082 27.5281M19.9683 27.2582C19.9683 27.2582 20.0444 27.3713 20.1412 27.417M20.0817 27.2443C20.0817 27.2443 20.1159 27.2968 20.1586 27.3135M20.6416 27.1228C20.7829 27.2031 20.819 27.3125 20.9846 27.3844M21.0051 27.3209C20.8891 27.258 20.8414 27.1782 20.7358 27.0886M20.834 27.0545C20.9135 27.1332 20.9425 27.2002 21.0452 27.2538M21.0776 27.1865C21.0099 27.131 20.9884 27.0744 20.9166 27.0121M21.0031 26.9737C21.0533 27.0276 21.082 27.0695 21.1332 27.1237M21.1693 27.0645C21.1693 27.0645 21.1169 27.009 21.0608 26.9455M21.4742 26.5633C21.4742 26.5633 21.8139 26.3141 22.0634 26.3266M21.5558 26.5807C21.5558 26.5807 21.8117 26.4417 22.0145 26.4494M21.6526 26.6264C21.6526 26.6264 21.8529 26.5502 21.9814 26.5645M21.6904 26.6989C21.6904 26.6989 21.8584 26.686 21.9674 26.7039M21.6959 26.7615C21.6959 26.7615 21.8683 26.7978 21.9644 26.8834M21.6688 26.8262C21.6688 26.8262 21.8388 26.929 21.9818 27.0074M21.5825 26.8565C21.5825 26.8565 21.771 27.0195 22.0111 27.1236M21.4887 26.8628C21.4887 26.8628 21.6754 27.1335 22.0448 27.212M19.7309 26.2883C19.9013 26.2021 19.8943 26.0668 20.0396 25.9388M19.9049 26.2995C19.989 26.2098 20.0218 26.1224 20.0851 26.0194M20.0099 26.316C20.0099 26.316 20.0857 26.2149 20.173 26.1287M18.6566 27.0184C18.8542 26.8801 18.9126 27.0291 19.1433 26.9482C19.1272 27.1251 19.0267 27.1043 18.8958 27.2315C18.8958 27.2315 18.7924 27.145 18.6549 27.1199C18.6549 27.1199 18.6778 27.0696 18.6566 27.0184Z" stroke="black" stroke-width="0.5"/>
<path d="M18.5902 26.9348C18.5729 27.0121 18.495 27.0759 18.4119 27.0968C18.4533 27.0656 18.4834 27.0188 18.4918 26.9613C18.5054 26.8688 18.468 26.7547 18.3483 26.6644C18.4443 26.7704 18.4764 26.8755 18.4644 26.9572C18.4525 27.0388 18.3974 27.0968 18.3229 27.1055C18.2773 27.1041 18.2284 27.0944 18.1785 27.0742L18.1686 27.1003C18.2217 27.1218 18.2743 27.1325 18.3237 27.1338C18.4578 27.1377 18.5797 27.0632 18.616 26.9441C18.6524 26.825 18.62 26.7769 18.5406 26.7126C18.6104 26.7831 18.6075 26.8575 18.5902 26.9348ZM21.2639 26.7618C21.1509 26.7651 20.858 26.7901 20.858 26.7901C20.858 26.7901 21.1129 26.8258 21.2639 26.7618ZM18.2039 26.8863C18.2148 26.9099 18.2032 26.9365 18.1911 26.9452C18.1789 26.954 18.1621 26.9578 18.1385 26.9478L18.1277 26.9739C18.1582 26.9868 18.187 26.9826 18.2069 26.9683C18.2268 26.9539 18.2474 26.9121 18.2214 26.8661C18.1954 26.82 18.1602 26.8107 18.1134 26.8322C18.188 26.8307 18.193 26.8627 18.2039 26.8863Z" fill="black"/>
<path d="M18.1342 26.7162C18.1341 26.7223 18.1328 26.7283 18.1305 26.7339C18.1281 26.7396 18.1246 26.7446 18.1203 26.7489C18.116 26.7531 18.111 26.7565 18.1054 26.7587C18.0998 26.7609 18.0939 26.762 18.0879 26.7619C18.0819 26.7618 18.076 26.7605 18.0706 26.7581C18.0651 26.7556 18.0601 26.7521 18.056 26.7477C18.0518 26.7433 18.0485 26.7381 18.0463 26.7324C18.0442 26.7267 18.0431 26.7206 18.0432 26.7145C18.0433 26.7084 18.0446 26.7024 18.0469 26.6968C18.0493 26.6912 18.0528 26.6861 18.0571 26.6818C18.0614 26.6776 18.0664 26.6743 18.072 26.672C18.0775 26.6698 18.0835 26.6687 18.0895 26.6688C18.0954 26.6689 18.1013 26.6702 18.1068 26.6726C18.1123 26.6751 18.1173 26.6786 18.1214 26.683C18.1256 26.6874 18.1289 26.6926 18.131 26.6983C18.1332 26.704 18.1343 26.7101 18.1342 26.7162Z" fill="black"/>
<path d="M18.5416 26.5287C18.5415 26.5358 18.536 26.5425 18.5263 26.5473C18.5167 26.5522 18.5036 26.5548 18.4901 26.5545C18.4766 26.5543 18.4636 26.5512 18.4541 26.546C18.4447 26.5408 18.4394 26.5339 18.4395 26.5268C18.4396 26.5197 18.4451 26.513 18.4548 26.5081C18.4644 26.5033 18.4774 26.5007 18.491 26.5009C18.5045 26.5012 18.5174 26.5043 18.5269 26.5094C18.5364 26.5146 18.5417 26.5216 18.5416 26.5287Z" fill="black"/>
<path d="M18.6744 26.4466C18.6743 26.4537 18.6688 26.4605 18.6591 26.4653C18.6495 26.4701 18.6365 26.4727 18.6229 26.4725C18.6094 26.4722 18.5965 26.4692 18.587 26.464C18.5775 26.4588 18.5722 26.4519 18.5723 26.4448C18.5724 26.4377 18.5779 26.4309 18.5876 26.4261C18.5972 26.4212 18.6103 26.4187 18.6238 26.4189C18.6373 26.4192 18.6503 26.4222 18.6597 26.4274C18.6692 26.4326 18.6745 26.4395 18.6744 26.4466Z" fill="black"/>
<path d="M18.8228 26.4935C18.8227 26.5006 18.8172 26.5073 18.8076 26.5122C18.7979 26.517 18.7849 26.5196 18.7714 26.5193C18.7578 26.5191 18.7449 26.516 18.7354 26.5108C18.7259 26.5056 18.7206 26.4987 18.7208 26.4916C18.7209 26.4845 18.7264 26.4778 18.736 26.473C18.7457 26.4681 18.7587 26.4655 18.7722 26.4658C18.7858 26.466 18.7987 26.4691 18.8082 26.4743C18.8177 26.4795 18.8229 26.4864 18.8228 26.4935Z" fill="black"/>
<path d="M18.9776 26.474C18.9775 26.4811 18.972 26.4878 18.9624 26.4926C18.9527 26.4975 18.9397 26.5001 18.9261 26.4998C18.9126 26.4996 18.8997 26.4965 18.8902 26.4913C18.8807 26.4861 18.8754 26.4792 18.8755 26.4721C18.8757 26.465 18.8811 26.4583 18.8908 26.4534C18.9005 26.4486 18.9135 26.446 18.927 26.4463C18.9405 26.4465 18.9535 26.4496 18.963 26.4548C18.9725 26.46 18.9777 26.4669 18.9776 26.474Z" fill="black"/>
<path d="M19.0343 26.4017C19.0341 26.4088 19.0286 26.4155 19.019 26.4204C19.0093 26.4252 18.9963 26.4278 18.9828 26.4276C18.9692 26.4273 18.9563 26.4242 18.9468 26.419C18.9373 26.4138 18.9321 26.4069 18.9322 26.3998C18.9323 26.3927 18.9378 26.386 18.9474 26.3812C18.9571 26.3763 18.9701 26.3737 18.9837 26.374C18.9972 26.3742 19.0101 26.3773 19.0196 26.3825C19.0291 26.3877 19.0344 26.3946 19.0343 26.4017Z" fill="black"/>
<path d="M19.1768 26.4447C19.1767 26.4518 19.1712 26.4585 19.1616 26.4633C19.1519 26.4682 19.1389 26.4708 19.1254 26.4705C19.1118 26.4703 19.0989 26.4672 19.0894 26.462C19.0799 26.4568 19.0746 26.4499 19.0748 26.4428C19.0749 26.4357 19.0804 26.429 19.09 26.4241C19.0997 26.4193 19.1127 26.4167 19.1262 26.417C19.1398 26.4172 19.1527 26.4203 19.1622 26.4255C19.1717 26.4307 19.1769 26.4376 19.1768 26.4447Z" fill="black"/>
<path d="M19.2994 26.3783C19.2993 26.3854 19.2938 26.3921 19.2841 26.3969C19.2745 26.4018 19.2615 26.4044 19.2479 26.4041C19.2344 26.4039 19.2214 26.4008 19.212 26.3956C19.2025 26.3904 19.1972 26.3835 19.1973 26.3764C19.1974 26.3693 19.2029 26.3626 19.2126 26.3577C19.2222 26.3529 19.2353 26.3503 19.2488 26.3506C19.2623 26.3508 19.2753 26.3539 19.2847 26.3591C19.2942 26.3643 19.2995 26.3712 19.2994 26.3783Z" fill="black"/>
<path d="M19.397 26.4994C19.3969 26.5065 19.3914 26.5132 19.3818 26.518C19.3721 26.5229 19.3591 26.5255 19.3456 26.5252C19.332 26.525 19.3191 26.5219 19.3096 26.5167C19.3001 26.5115 19.2949 26.5046 19.295 26.4975C19.2951 26.4904 19.3006 26.4837 19.3102 26.4788C19.3199 26.474 19.3329 26.4714 19.3464 26.4716C19.36 26.4719 19.3729 26.475 19.3824 26.4802C19.3919 26.4854 19.3972 26.4923 19.397 26.4994Z" fill="black"/>
<path d="M19.5963 26.4505C19.5961 26.4576 19.5907 26.4643 19.581 26.4692C19.5714 26.474 19.5583 26.4766 19.5448 26.4764C19.5313 26.4761 19.5183 26.4731 19.5088 26.4679C19.4993 26.4627 19.4941 26.4558 19.4942 26.4487C19.4943 26.4416 19.4998 26.4348 19.5095 26.43C19.5191 26.4251 19.5321 26.4226 19.5457 26.4228C19.5592 26.4231 19.5721 26.4261 19.5816 26.4313C19.5911 26.4365 19.5964 26.4434 19.5963 26.4505Z" fill="black"/>
<path d="M19.5147 26.3587C19.5146 26.3658 19.5091 26.3726 19.4995 26.3774C19.4898 26.3822 19.4768 26.3848 19.4633 26.3846C19.4497 26.3843 19.4368 26.3813 19.4273 26.3761C19.4178 26.3709 19.4125 26.364 19.4126 26.3569C19.4128 26.3498 19.4183 26.343 19.4279 26.3382C19.4376 26.3334 19.4506 26.3308 19.4641 26.331C19.4777 26.3313 19.4906 26.3343 19.5001 26.3395C19.5096 26.3447 19.5148 26.3516 19.5147 26.3587Z" fill="black"/>
<path d="M19.734 26.4427C19.7338 26.4498 19.7284 26.4565 19.7187 26.4614C19.709 26.4662 19.696 26.4688 19.6825 26.4686C19.669 26.4683 19.656 26.4653 19.6465 26.4601C19.637 26.4549 19.6318 26.4479 19.6319 26.4408C19.632 26.4337 19.6375 26.427 19.6471 26.4222C19.6568 26.4173 19.6698 26.4148 19.6834 26.415C19.6969 26.4153 19.7098 26.4183 19.7193 26.4235C19.7288 26.4287 19.7341 26.4356 19.734 26.4427Z" fill="black"/>
<path d="M19.9166 26.4564C19.9165 26.4635 19.911 26.4702 19.9013 26.4751C19.8917 26.4799 19.8786 26.4825 19.8651 26.4822C19.8516 26.482 19.8386 26.4789 19.8291 26.4737C19.8197 26.4685 19.8144 26.4616 19.8145 26.4545C19.8146 26.4474 19.8201 26.4407 19.8298 26.4359C19.8394 26.431 19.8524 26.4284 19.866 26.4287C19.8795 26.4289 19.8924 26.432 19.9019 26.4372C19.9114 26.4424 19.9167 26.4493 19.9166 26.4564Z" fill="black"/>
<path d="M19.8179 26.3529C19.8178 26.36 19.8123 26.3667 19.8027 26.3715C19.793 26.3764 19.78 26.379 19.7665 26.3787C19.7529 26.3785 19.74 26.3754 19.7305 26.3702C19.721 26.365 19.7158 26.3581 19.7159 26.351C19.716 26.3439 19.7215 26.3372 19.7311 26.3323C19.7408 26.3275 19.7538 26.3249 19.7673 26.3252C19.7809 26.3254 19.7938 26.3285 19.8033 26.3337C19.8128 26.3389 19.8181 26.3458 19.8179 26.3529Z" fill="black"/>
<path d="M20.087 26.4427C20.0869 26.4498 20.0814 26.4565 20.0717 26.4614C20.0621 26.4662 20.0491 26.4688 20.0355 26.4686C20.022 26.4683 20.009 26.4653 19.9996 26.4601C19.9901 26.4549 19.9848 26.4479 19.9849 26.4408C19.985 26.4337 19.9905 26.427 20.0002 26.4222C20.0098 26.4173 20.0229 26.4148 20.0364 26.415C20.0499 26.4153 20.0629 26.4183 20.0723 26.4235C20.0818 26.4287 20.0871 26.4356 20.087 26.4427Z" fill="black"/>
<path d="M20.2471 26.4173C20.247 26.4244 20.2415 26.4311 20.2319 26.436C20.2222 26.4408 20.2092 26.4434 20.1957 26.4432C20.1821 26.4429 20.1692 26.4399 20.1597 26.4347C20.1502 26.4295 20.145 26.4226 20.1451 26.4155C20.1452 26.4083 20.1507 26.4016 20.1603 26.3968C20.17 26.3919 20.183 26.3894 20.1965 26.3896C20.2101 26.3899 20.223 26.3929 20.2325 26.3981C20.242 26.4033 20.2473 26.4102 20.2471 26.4173Z" fill="black"/>
<path d="M20.4498 26.5228C20.4497 26.5299 20.4442 26.5366 20.4345 26.5415C20.4249 26.5463 20.4118 26.5489 20.3983 26.5486C20.3848 26.5484 20.3718 26.5453 20.3624 26.5401C20.3529 26.5349 20.3476 26.528 20.3477 26.5209C20.3478 26.5138 20.3533 26.5071 20.363 26.5023C20.3726 26.4974 20.3856 26.4948 20.3992 26.4951C20.4127 26.4953 20.4256 26.4984 20.4351 26.5036C20.4446 26.5088 20.4499 26.5157 20.4498 26.5228Z" fill="black"/>
<path d="M20.6705 26.5209C20.6704 26.528 20.6649 26.5347 20.6552 26.5395C20.6456 26.5444 20.6325 26.5469 20.619 26.5467C20.6055 26.5464 20.5925 26.5434 20.5831 26.5382C20.5736 26.533 20.5683 26.5261 20.5684 26.519C20.5685 26.5119 20.574 26.5052 20.5837 26.5003C20.5933 26.4955 20.6063 26.4929 20.6199 26.4931C20.6334 26.4934 20.6464 26.4964 20.6558 26.5016C20.6653 26.5068 20.6706 26.5138 20.6705 26.5209Z" fill="black"/>
<path d="M21.0728 26.5853C21.0727 26.5924 21.0672 26.5991 21.0576 26.604C21.0479 26.6088 21.0349 26.6114 21.0214 26.6111C21.0078 26.6109 20.9949 26.6078 20.9854 26.6026C20.9759 26.5974 20.9706 26.5905 20.9708 26.5834C20.9709 26.5763 20.9764 26.5696 20.986 26.5648C20.9957 26.5599 21.0087 26.5573 21.0222 26.5576C21.0358 26.5578 21.0487 26.5609 21.0582 26.5661C21.0677 26.5713 21.0729 26.5782 21.0728 26.5853Z" fill="black"/>
<path d="M21.2594 26.6048C21.2592 26.6119 21.2537 26.6186 21.2441 26.6235C21.2344 26.6283 21.2214 26.6309 21.2079 26.6307C21.1943 26.6304 21.1814 26.6274 21.1719 26.6222C21.1624 26.617 21.1572 26.6101 21.1573 26.603C21.1574 26.5958 21.1629 26.5891 21.1725 26.5843C21.1822 26.5794 21.1952 26.5769 21.2088 26.5771C21.2223 26.5774 21.2352 26.5804 21.2447 26.5856C21.2542 26.5908 21.2595 26.5977 21.2594 26.6048Z" fill="black"/>
<path d="M20.858 26.5248C20.8579 26.5319 20.8524 26.5386 20.8427 26.5434C20.8331 26.5483 20.82 26.5508 20.8065 26.5506C20.793 26.5504 20.78 26.5473 20.7706 26.5421C20.7611 26.5369 20.7558 26.53 20.7559 26.5229C20.756 26.5158 20.7615 26.5091 20.7712 26.5042C20.7808 26.4994 20.7938 26.4968 20.8074 26.497C20.8209 26.4973 20.8339 26.5003 20.8433 26.5055C20.8528 26.5107 20.8581 26.5177 20.858 26.5248Z" fill="black"/>
<path d="M20.419 26.4212C20.4189 26.4283 20.4134 26.4351 20.4038 26.4399C20.3941 26.4448 20.3811 26.4473 20.3675 26.4471C20.354 26.4468 20.3411 26.4438 20.3316 26.4386C20.3221 26.4334 20.3168 26.4265 20.3169 26.4194C20.3171 26.4123 20.3226 26.4055 20.3322 26.4007C20.3419 26.3959 20.3549 26.3933 20.3684 26.3935C20.382 26.3938 20.3949 26.3968 20.4044 26.402C20.4139 26.4072 20.4191 26.4141 20.419 26.4212Z" fill="black"/>
<path d="M19.9952 26.3392C19.9951 26.3463 19.9896 26.353 19.9799 26.3579C19.9703 26.3627 19.9573 26.3653 19.9437 26.3651C19.9302 26.3648 19.9173 26.3617 19.9078 26.3565C19.8983 26.3513 19.893 26.3444 19.8931 26.3373C19.8932 26.3302 19.8987 26.3235 19.9084 26.3187C19.918 26.3138 19.9311 26.3112 19.9446 26.3115C19.9581 26.3117 19.9711 26.3148 19.9806 26.32C19.99 26.3252 19.9953 26.3321 19.9952 26.3392Z" fill="black"/>
<path d="M15.0303 16.9512V26.0038C15.0303 26.8779 15.5564 27.6543 16.4349 27.7258C17.3135 27.7973 18.0607 27.8142 18.5574 27.8546C19.0542 27.8951 19.8092 28.1035 20.1135 28.8519C20.4178 28.1035 21.1728 27.8951 21.6696 27.8546C22.1663 27.8142 22.9135 27.7973 23.7921 27.7258C24.6706 27.6543 25.1967 26.8779 25.1967 26.0038V16.9512H15.0303Z" stroke="black" stroke-width="1.5"/>
<path d="M19.4497 6.22075C19.3635 6.2238 19.2818 6.26246 19.2218 6.32855C19.1619 6.39464 19.1284 6.48299 19.1284 6.57493C19.1284 6.66886 19.1634 6.75895 19.2258 6.82537C19.2881 6.89179 19.3726 6.92911 19.4607 6.92911C19.5489 6.92911 19.6334 6.89179 19.6957 6.82537C19.7581 6.75895 19.7931 6.66886 19.7931 6.57493C19.7931 6.48099 19.7581 6.3909 19.6957 6.32448C19.6334 6.25806 19.5489 6.22075 19.4607 6.22075C19.4571 6.22069 19.4534 6.22069 19.4497 6.22075ZM19.3531 6.47819C19.3541 6.47818 19.3551 6.47818 19.3561 6.47819C19.3969 6.47824 19.4361 6.49556 19.465 6.52636C19.4938 6.55715 19.51 6.59891 19.51 6.64244C19.51 6.68598 19.4938 6.72773 19.465 6.75853C19.4361 6.78933 19.3969 6.80665 19.3561 6.80669C19.3359 6.8067 19.3158 6.80246 19.2971 6.79421C19.2784 6.78596 19.2614 6.77387 19.2471 6.75861C19.2328 6.74336 19.2214 6.72525 19.2137 6.70532C19.2059 6.68538 19.2019 6.66402 19.2019 6.64244C19.2019 6.59942 19.2178 6.55811 19.246 6.5274C19.2743 6.49669 19.3127 6.47902 19.3531 6.47819Z" fill="#D3230E"/>
<path d="M19.1458 6.17774C19.1458 6.17774 18.7311 6.48355 18.9886 6.90759C19.2297 7.30472 19.8692 7.11152 19.995 6.75733L20.4458 6.7466L20.1523 6.65L20.4353 6.5212L19.995 6.44607C19.995 6.44607 20.2047 6.30654 20.1837 6.30654H19.8797C19.8797 6.30654 19.8063 6.22067 19.7224 6.20994C19.7224 6.20994 19.9845 6.54267 19.8482 6.78953C19.712 7.03639 19.3031 7.07932 19.1458 6.86466C18.9796 6.63781 19.0829 6.38167 19.0829 6.38167L19.1249 6.489L19.345 6.47826C19.345 6.47826 19.2716 6.41387 19.1982 6.38167C19.1249 6.34947 19.1039 6.31727 19.1458 6.17774Z" fill="white"/>
</svg>
