<svg width="244" height="104" viewBox="0 0 244 104" fill="none" xmlns="http://www.w3.org/2000/svg">
<g clip-path="url(#clip0_1277_156380)">
<path d="M130.115 30.9415C131.772 30.9098 133.089 29.5413 133.057 27.8847C133.025 26.2282 131.656 24.911 129.999 24.9426C128.343 24.9743 127.026 26.3429 127.058 27.9994C127.09 29.656 128.459 30.9732 130.115 30.9415Z" fill="#333333"/>
<path d="M200.076 39.0316C200.056 39.0316 200.037 39.0235 200.022 39.0091C200.008 38.9947 200 38.9752 200 38.9548V34.8679C200 34.849 200.007 34.831 200.021 34.8176C200.034 34.8043 200.052 34.7968 200.07 34.7968H203.453C203.471 34.7968 203.489 34.7893 203.502 34.776C203.516 34.7626 203.523 34.7445 203.523 34.7257V29.0711C203.523 29.0237 203.547 29 203.593 29H208.385C208.432 29 208.455 29.0237 208.455 29.0711V34.7257C208.455 34.7445 208.463 34.7626 208.476 34.776C208.489 34.7893 208.507 34.7968 208.526 34.7968H212.93C212.948 34.7968 212.966 34.8043 212.979 34.8176C212.993 34.831 213 34.849 213 34.8679V38.9591C213 38.9783 212.992 38.9968 212.979 39.0104C212.965 39.024 212.947 39.0316 212.928 39.0316L208.523 39.0231C208.483 39.0231 208.462 39.0435 208.462 39.0843C208.451 42.4576 208.446 45.8289 208.448 49.1984C208.451 52.4105 210.124 52.7988 212.917 52.6381C212.972 52.6343 213 52.6608 213 52.7177V56.9142C213 56.9588 212.978 56.9815 212.934 56.9825C210.945 57.0024 209.529 57.0735 207.835 56.6667C204.281 55.8132 203.529 52.6267 203.527 49.3691C203.524 45.9418 203.523 42.5149 203.522 39.0885C203.522 39.044 203.5 39.0217 203.457 39.0217L200.076 39.0316Z" fill="#333333"/>
<path d="M56.9295 47.6546C50.8961 47.2459 44.122 47.3986 37.778 48.3434C35.5142 48.68 33.2389 49.158 31.1045 49.9953C31.0934 49.9994 31.0814 50.0008 31.0696 49.9995C31.0578 49.9983 31.0465 49.9943 31.0367 49.9879C31.0269 49.9815 31.0187 49.973 31.013 49.963C31.0073 49.9529 31.0042 49.9417 31.0039 49.9303C30.7838 39.0967 39.977 30.3026 51.0514 31.0436C51.1109 31.0474 51.1277 31.0762 51.1018 31.1299C49.7354 33.902 48.9962 36.732 48.5144 39.8647C48.3303 41.0668 49.9756 41.3186 50.1684 39.8576C50.4167 37.9756 50.8563 36.1007 51.4872 34.2329C51.7288 33.5173 52.9283 30.5501 54.0617 31.9714C55.1605 33.349 55.6696 35.684 55.9903 37.4038C56.6155 40.767 56.952 44.1623 57 47.5896C57.0002 47.5986 56.9985 47.6075 56.995 47.6158C56.9915 47.624 56.9862 47.6315 56.9796 47.6376C56.9729 47.6438 56.965 47.6485 56.9564 47.6514C56.9478 47.6543 56.9386 47.6554 56.9295 47.6546Z" fill="#333333"/>
<path d="M61.6785 53.9604C61.3086 54.0078 60.6748 54.114 60.6852 53.5371C60.7777 48.3352 60.5465 43.1556 59.5696 38.1689C59.2525 36.5476 58.7325 34.8439 58.0096 33.0578C57.9868 33.0009 58.0047 32.986 58.0633 33.0131C65.8485 36.6421 70.011 44.2117 68.7895 52.2855C68.7823 52.3314 68.7624 52.3747 68.7317 52.411C68.7011 52.4472 68.6609 52.4753 68.615 52.4923C66.4629 53.2857 63.9618 53.6726 61.6785 53.9604Z" fill="#333333"/>
<path d="M95.4033 54.0833C95.4032 54.0781 95.4015 54.0731 95.3984 54.0689C95.3954 54.0647 95.3911 54.0615 95.3862 54.0598C95.3812 54.0581 95.3759 54.058 95.3709 54.0594C95.3659 54.0609 95.3615 54.0638 95.3582 54.0679C91.2853 58.7912 81.5928 57.9256 81.0256 50.614C80.6245 45.4431 84.9958 43.2489 89.4318 43.1912C91.3017 43.1668 93.1731 43.1556 95.0458 43.1575C95.0899 43.1584 95.1129 43.1364 95.1147 43.0913C95.1335 42.2168 95.1335 41.6679 95.1147 41.4446C94.7629 37.2505 88.0132 36.9352 86.565 40.5256C86.5572 40.5451 86.5437 40.5619 86.5264 40.5737C86.5091 40.5854 86.4887 40.5917 86.4679 40.5917H81.9967C81.9776 40.5916 81.9588 40.5872 81.9417 40.5788C81.9245 40.5704 81.9095 40.5582 81.8978 40.5432C81.886 40.5282 81.8778 40.5107 81.8737 40.492C81.8696 40.4734 81.8698 40.4541 81.8743 40.4355C83.117 35.2927 88.0765 33.4561 92.8855 34.1358C96.3307 34.6214 99.0019 36.4722 99.7731 40.009C99.9073 40.6236 99.9776 41.5558 99.9842 42.8056C100.01 47.1968 100.004 51.709 99.9687 56.3423C99.9678 56.4502 99.9129 56.5036 99.8041 56.5027L95.5243 56.4577C95.4921 56.4573 95.4613 56.4442 95.4386 56.4213C95.416 56.3984 95.4033 56.3675 95.4033 56.3352V54.0833ZM86.0654 49.2319C85.6756 50.8871 86.6509 52.3986 88.3045 52.7857C91.1108 53.4416 94.3393 52.1706 95.0359 49.163C95.1865 48.5113 95.1147 47.688 95.1232 46.9702C95.1241 46.9205 95.0997 46.8956 95.05 46.8956C93.3968 46.8853 91.7436 46.8815 90.0905 46.8843C88.5128 46.8871 86.4792 47.4797 86.0654 49.2319Z" fill="#333333"/>
<path d="M143.834 37.0379C143.835 37.0457 143.837 37.0534 143.842 37.0597C143.847 37.066 143.853 37.0707 143.861 37.073C143.868 37.0754 143.876 37.0754 143.884 37.073C143.891 37.0705 143.898 37.0658 143.902 37.0595C147.042 32.7393 153.878 33.0902 156.695 37.5067C156.722 37.5489 156.751 37.5504 156.782 37.511C159.086 34.583 162.909 33.3491 166.507 34.3701C170.161 35.4056 171.958 38.6256 171.975 42.2756C171.998 47.1452 172.005 52.0152 171.997 56.8857C171.997 56.9356 171.972 56.9619 171.922 56.9648C170.298 57.0367 168.693 56.8828 167.056 56.9993C166.965 57.006 166.919 56.9634 166.919 56.8713C166.92 52.3325 166.919 47.7698 166.918 43.1831C166.918 41.8154 166.433 40.3456 165.369 39.477C163.962 38.3279 161.798 38.302 160.266 39.2109C158.557 40.2263 158.027 41.929 158.024 43.8777C158.02 48.2094 158.02 52.5511 158.022 56.903C158.022 56.9175 158.017 56.9314 158.006 56.9416C157.996 56.9518 157.982 56.9576 157.968 56.9576L153.184 56.9605C153.049 56.9605 152.982 56.8929 152.982 56.7577C152.978 52.2103 152.977 47.7214 152.979 43.2909C152.979 40.9899 151.776 38.9089 149.362 38.6026C147.065 38.3106 144.904 39.5906 144.262 41.8744C144.119 42.3863 144.047 43.2262 144.046 44.394C144.043 48.5589 144.042 52.7256 144.043 56.8943C144.043 56.9528 144.014 56.9821 143.956 56.9821L139.114 56.9921C139.084 56.9921 139.055 56.9802 139.033 56.9588C139.012 56.9375 139 56.9086 139 56.8785V34.6261C139 34.6071 139.008 34.5888 139.021 34.5753C139.035 34.5618 139.053 34.5542 139.072 34.5542H143.726C143.826 34.5542 143.876 34.6046 143.875 34.7052L143.834 37.0379Z" fill="#333333"/>
<path d="M123 52.6728V56.9506C123 56.9637 122.995 56.9763 122.985 56.9855C122.976 56.9948 122.963 57 122.95 57L105.05 56.9859C105.044 56.9859 105.037 56.9846 105.031 56.9821C105.025 56.9797 105.019 56.976 105.015 56.9714C105.01 56.9669 105.006 56.9614 105.004 56.9554C105.001 56.9494 105 56.943 105 56.9365V53.1465C105 53.1347 105.004 53.1232 105.012 53.1141L116.54 39.3808C116.546 39.3736 116.55 39.3649 116.551 39.3556C116.552 39.3464 116.551 39.3371 116.547 39.3287C116.542 39.3203 116.536 39.3132 116.528 39.3082C116.52 39.3032 116.511 39.3005 116.501 39.3005H105.05C105.044 39.3005 105.037 39.2992 105.031 39.2967C105.025 39.2942 105.019 39.2906 105.015 39.286C105.01 39.2814 105.006 39.276 105.004 39.27C105.001 39.264 105 39.2576 105 39.2511V35.0494C105 35.0429 105.001 35.0365 105.004 35.0305C105.006 35.0245 105.01 35.019 105.015 35.0145C105.019 35.0099 105.025 35.0062 105.031 35.0038C105.037 35.0013 105.044 35 105.05 35H122.95C122.963 35 122.976 35.0052 122.985 35.0145C122.995 35.0237 123 35.0363 123 35.0494V38.807C123 38.8188 122.996 38.8303 122.988 38.8394L111.477 52.5473C111.471 52.5545 111.467 52.5632 111.466 52.5724C111.465 52.5817 111.467 52.591 111.471 52.5994C111.475 52.6078 111.481 52.6149 111.489 52.6199C111.497 52.6249 111.507 52.6276 111.516 52.6276L122.95 52.6234C122.963 52.6234 122.976 52.6286 122.985 52.6379C122.995 52.6471 123 52.6597 123 52.6728Z" fill="#333333"/>
<path d="M132.963 35H128.037C128.017 35 128 35.0164 128 35.0367V56.9633C128 56.9836 128.017 57 128.037 57H132.963C132.983 57 133 56.9836 133 56.9633V35.0367C133 35.0164 132.983 35 132.963 35Z" fill="#333333"/>
<path d="M192.046 55.061C192.046 55.0522 192.044 55.0436 192.038 55.0364C192.033 55.0291 192.026 55.0237 192.018 55.0209C192.009 55.018 192 55.0178 191.991 55.0204C191.982 55.0229 191.974 55.0281 191.969 55.0351C189.513 57.9608 185.154 58.7603 181.67 57.2593C178.006 55.679 177.01 52.3542 177.005 48.5829C176.999 44.0769 176.998 39.5737 177.002 35.0735C177.002 35.054 177.01 35.0353 177.024 35.0215C177.038 35.0077 177.057 35 177.077 35H182.063C182.112 35 182.136 35.0245 182.136 35.0735C182.139 39.4921 182.139 43.9093 182.136 48.325C182.134 51.9408 184.585 54.1607 188.213 53.1984C190.905 52.4853 191.894 50.3663 191.897 47.7877C191.901 43.5467 191.901 39.3096 191.899 35.0763C191.899 35.0561 191.907 35.0367 191.921 35.0224C191.936 35.008 191.955 35 191.976 35H196.927C196.976 35 197 35.024 197 35.072V57.3688C197 57.3836 196.997 57.3984 196.991 57.4121C196.985 57.4258 196.977 57.4383 196.966 57.4487C196.955 57.4592 196.943 57.4674 196.929 57.473C196.915 57.4786 196.9 57.4813 196.885 57.4811L192.114 57.4278C192.069 57.4269 192.046 57.4043 192.046 57.3601V55.061Z" fill="#333333"/>
<path d="M42.0405 54.5636C40.2763 54.3888 33.9561 53.6722 33.0207 52.0971C33.0102 52.079 33.0036 52.059 33.0011 52.0383C32.9986 52.0176 33.0004 51.9967 33.0063 51.9768C33.2596 51.1441 35.7275 50.4805 36.7032 50.2742C43.2997 48.8783 50.5136 48.8123 56.913 49.2136C56.9638 49.2175 56.9897 49.2447 56.9907 49.2953C57.0108 51.6017 56.9983 53.1018 56.9533 53.7954C56.8971 54.6668 56.1618 54.8402 55.3502 54.8818C50.9055 55.112 46.4689 55.006 42.0405 54.5636Z" fill="#333333"/>
<path d="M54.2006 67.3519C44.7885 69.8579 35.3146 64.8843 32.0121 56.0937C31.9813 56.0118 32.0093 55.9836 32.0963 56.0091C36.5365 57.3228 41.5576 57.8172 45.8393 57.9933C49.0501 58.1253 52.0397 58.1162 54.8081 57.966C55.1757 57.9455 56.0497 57.7871 55.9978 58.388C55.7378 61.3732 55.2079 64.2939 54.4083 67.1498C54.3946 67.1981 54.3683 67.2421 54.3319 67.2776C54.2955 67.313 54.2503 67.3386 54.2006 67.3519Z" fill="#333333"/>
<path d="M60.1824 58.2897C60.2152 57.89 60.7119 57.5934 61.0472 57.5375C63.0595 57.2032 65.0213 56.6917 66.9324 56.0031C66.9415 55.9997 66.9513 55.9991 66.9608 56.0014C66.9702 56.0036 66.9788 56.0087 66.9855 56.0159C66.9923 56.0232 66.997 56.0323 66.9989 56.0422C67.0009 56.0521 67.0001 56.0624 66.9967 56.0718C65.4596 60.35 62.815 63.6538 59.0631 65.9834C59.0101 66.0159 58.9905 66.0006 59.0042 65.9376C59.5771 63.4093 59.9698 60.86 60.1824 58.2897Z" fill="#333333"/>
<path d="M93.3663 78.9873C91.5551 79.1101 89.9682 78.3436 89.3564 76.5664C88.4962 74.0678 89.1066 70.6757 92.1385 70.0899C94.4252 69.6481 96.401 70.8606 96.8595 73.1588C97.3818 75.7731 96.4975 78.7742 93.3663 78.9873ZM90.7304 76.1867C91.4983 78.3154 94.3429 78.417 95.203 76.3518C95.8702 74.7482 95.758 71.8671 93.6743 71.2771C92.208 70.8621 90.9859 71.7754 90.6098 73.1573C90.3306 74.1831 90.3708 75.1929 90.7304 76.1867Z" fill="#333333"/>
<path d="M122.791 74.5548C121.56 74.1565 121.073 72.7969 121.411 71.6655C121.903 70.0181 124.214 69.7828 125.587 70.15C126.848 70.4865 127.557 71.2884 127.711 72.5558C127.718 72.6116 127.693 72.6409 127.636 72.6437L126.44 72.7118C126.378 72.7146 126.344 72.6858 126.337 72.6253C126.134 70.676 122.759 70.6547 122.759 72.2496C122.759 74.3946 127.727 73.3455 127.987 76.2745C128.208 78.7654 125.551 79.1879 123.699 78.937C122.107 78.7215 121.054 77.8156 121 76.1994C120.998 76.1474 121.024 76.12 121.077 76.1171L122.274 76.0633C122.32 76.0614 122.344 76.0822 122.347 76.1257C122.418 77.0935 122.946 77.6653 123.93 77.8411C124.709 77.9814 125.947 77.8879 126.413 77.1691C126.629 76.8355 126.627 76.4763 126.407 76.0916C126.012 75.4055 123.592 74.8143 122.791 74.5548Z" fill="#333333"/>
<path d="M86.5346 75.0203H82.454C82.4423 75.0203 82.4311 75.0251 82.4229 75.0337C82.4146 75.0422 82.4099 75.0537 82.4099 75.0658L82.4227 78.9311C82.4229 78.9372 82.4219 78.9432 82.4198 78.9489C82.4177 78.9546 82.4145 78.9598 82.4103 78.9642C82.4062 78.9685 82.4013 78.972 82.3959 78.9744C82.3904 78.9768 82.3846 78.978 82.3787 78.978L81.0455 79C81.0396 79.0002 81.0337 78.9991 81.0282 78.9969C81.0227 78.9947 81.0176 78.9914 81.0134 78.9872C81.0092 78.983 81.0058 78.9779 81.0035 78.9723C81.0012 78.9667 81 78.9606 81 78.9545V70.0454C81 70.0334 81.0046 70.0218 81.0129 70.0133C81.0212 70.0048 81.0324 70 81.0441 70H82.3773C82.3889 70 82.4001 70.0048 82.4084 70.0133C82.4167 70.0218 82.4213 70.0334 82.4213 70.0454V73.7656C82.4213 73.7777 82.426 73.7892 82.4342 73.7978C82.4425 73.8063 82.4537 73.8111 82.4654 73.8111H86.5346C86.5463 73.8111 86.5575 73.8063 86.5658 73.7978C86.574 73.7892 86.5787 73.7777 86.5787 73.7656V70.0454C86.5787 70.0334 86.5833 70.0218 86.5916 70.0133C86.5999 70.0048 86.6111 70 86.6227 70H87.9559C87.9676 70 87.9788 70.0048 87.9871 70.0133C87.9954 70.0218 88 70.0334 88 70.0454V78.9325C88 78.9446 87.9954 78.9562 87.9871 78.9647C87.9788 78.9732 87.9676 78.978 87.9559 78.978H86.6227C86.6111 78.978 86.5999 78.9732 86.5916 78.9647C86.5833 78.9562 86.5787 78.9446 86.5787 78.9325V75.0658C86.5787 75.0537 86.574 75.0422 86.5658 75.0337C86.5575 75.0251 86.5463 75.0203 86.5346 75.0203Z" fill="#333333"/>
<path d="M100.709 71.1981L98.1102 71.2157C98.096 71.2158 98.0825 71.2103 98.0722 71.2005C98.062 71.1906 98.0559 71.1772 98.0551 71.1629L98.0001 70.0587C97.9997 70.0511 98.0008 70.0435 98.0034 70.0364C98.006 70.0293 98.01 70.0228 98.0151 70.0173C98.0203 70.0119 98.0265 70.0075 98.0334 70.0045C98.0402 70.0015 98.0476 70 98.0551 70H104.945C104.96 70 104.974 70.0059 104.984 70.0163C104.994 70.0268 105 70.0409 105 70.0557V71.1541C105 71.1689 104.994 71.1831 104.984 71.1935C104.974 71.204 104.96 71.2099 104.945 71.2099L102.303 71.2025C102.289 71.2025 102.275 71.2084 102.264 71.2189C102.254 71.2293 102.248 71.2435 102.248 71.2583V78.9267C102.248 78.9415 102.242 78.9556 102.232 78.9661C102.222 78.9765 102.208 78.9824 102.193 78.9824L100.819 79C100.804 79 100.79 78.9941 100.78 78.9837C100.769 78.9732 100.764 78.9591 100.764 78.9443V71.2539C100.764 71.2391 100.758 71.2249 100.747 71.2145C100.737 71.204 100.723 71.1981 100.709 71.1981Z" fill="#333333"/>
<path d="M108.424 77.8612H112.955C112.961 77.8612 112.966 77.8625 112.972 77.8649C112.977 77.8674 112.982 77.8709 112.987 77.8754C112.991 77.8799 112.994 77.8853 112.997 77.8912C112.999 77.897 113 77.9033 113 77.9097L112.996 78.9515C112.996 78.9644 112.991 78.9767 112.983 78.9858C112.974 78.9949 112.962 79 112.95 79H107.045C107.04 79 107.034 78.9987 107.028 78.9963C107.023 78.9939 107.018 78.9903 107.013 78.9858C107.009 78.9813 107.006 78.9759 107.003 78.9701C107.001 78.9642 107 78.9579 107 78.9515V70.0485C107 70.0421 107.001 70.0358 107.003 70.0299C107.006 70.0241 107.009 70.0187 107.013 70.0142C107.018 70.0097 107.023 70.0061 107.028 70.0037C107.034 70.0013 107.04 70 107.045 70H112.811C112.823 70 112.835 70.0051 112.843 70.0142C112.852 70.0233 112.857 70.0356 112.857 70.0485V71.0903C112.857 71.0967 112.856 71.103 112.853 71.1088C112.851 71.1147 112.848 71.1201 112.843 71.1246C112.839 71.1291 112.834 71.1326 112.829 71.1351C112.823 71.1375 112.817 71.1388 112.811 71.1388H108.424C108.411 71.1388 108.4 71.1439 108.391 71.153C108.383 71.1621 108.378 71.1744 108.378 71.1873V73.8454C108.378 73.8582 108.383 73.8706 108.391 73.8797C108.4 73.8888 108.411 73.8939 108.424 73.8939H111.847C111.859 73.8939 111.87 73.899 111.879 73.9081C111.887 73.9172 111.892 73.9295 111.892 73.9424V74.9107C111.892 74.9236 111.887 74.9359 111.879 74.945C111.87 74.9541 111.859 74.9592 111.847 74.9592H108.424C108.411 74.9592 108.4 74.9643 108.391 74.9734C108.383 74.9825 108.378 74.9948 108.378 75.0077V77.8127C108.378 77.8256 108.383 77.8379 108.391 77.847C108.4 77.8561 108.411 77.8612 108.424 77.8612Z" fill="#333333"/>
<path d="M116.574 77.7878H120.933C120.939 77.7878 120.946 77.789 120.952 77.7913C120.957 77.7937 120.963 77.7972 120.967 77.8015C120.972 77.8059 120.976 77.8111 120.978 77.8168C120.98 77.8225 120.982 77.8286 120.982 77.8348L121 78.953C121 78.9592 120.999 78.9653 120.996 78.971C120.994 78.9767 120.99 78.9819 120.986 78.9862C120.981 78.9906 120.976 78.9941 120.97 78.9964C120.964 78.9988 120.958 79 120.951 79H115.049C115.042 79 115.036 78.9988 115.03 78.9964C115.024 78.9941 115.019 78.9906 115.014 78.9862C115.01 78.9819 115.006 78.9767 115.004 78.971C115.001 78.9653 115 78.9592 115 78.953V70.047C115 70.0408 115.001 70.0347 115.004 70.029C115.006 70.0233 115.01 70.0181 115.014 70.0138C115.019 70.0094 115.024 70.0059 115.03 70.0036C115.036 70.0012 115.042 70 115.049 70H116.477C116.483 70 116.489 70.0012 116.495 70.0036C116.501 70.0059 116.507 70.0094 116.511 70.0138C116.516 70.0181 116.519 70.0233 116.522 70.029C116.524 70.0347 116.526 70.0408 116.526 70.047V77.7407C116.526 77.7469 116.527 77.753 116.529 77.7587C116.532 77.7644 116.535 77.7696 116.54 77.774C116.544 77.7783 116.55 77.7818 116.556 77.7842C116.562 77.7865 116.568 77.7878 116.574 77.7878Z" fill="#333333"/>
</g>
<defs>
<clipPath id="clip0_1277_156380">
<rect width="182" height="54" fill="white" transform="translate(31 25)"/>
</clipPath>
</defs>
</svg>
