<svg width="144" height="69" viewBox="0 0 144 69" fill="none" xmlns="http://www.w3.org/2000/svg">
<path d="M134.86 21.5073C135.104 21.4791 135.438 21.3028 135.863 20.9783C135.896 20.952 135.936 20.9383 135.978 20.9398C136.02 20.9413 136.059 20.9579 136.089 20.9864C136.12 21.015 136.139 21.0536 136.142 21.0951C136.146 21.1366 136.135 21.1781 136.111 21.2118C135.24 22.5079 134.087 23.4486 132.652 24.0338C130.064 25.0889 125.085 26.6082 125.939 30.3531C125.95 30.4001 125.945 30.4494 125.925 30.4932C125.904 30.537 125.87 30.5727 125.827 30.5947C125.784 30.6167 125.735 30.6237 125.688 30.6146C125.64 30.6054 125.597 30.5807 125.566 30.5444C124.369 29.177 123.658 26.9937 124.843 25.3956C124.862 25.3725 124.872 25.3435 124.872 25.3138C124.871 25.2841 124.86 25.2554 124.841 25.2329C124.821 25.2104 124.795 25.1955 124.765 25.1908C124.736 25.1861 124.706 25.1918 124.68 25.2071C123.795 25.691 122.107 26.2847 121.435 27.0443C121.415 27.0683 121.388 27.0859 121.357 27.0951C121.327 27.1042 121.295 27.1045 121.264 27.096C121.234 27.0874 121.207 27.0703 121.186 27.0467C121.165 27.0231 121.151 26.994 121.146 26.9627C120.834 25.1086 121.674 24.0535 123.208 23.201C125.299 22.0418 129.053 20.4634 129.359 17.8103C129.361 17.7801 129.354 17.7499 129.337 17.7245C129.321 17.6991 129.297 17.6797 129.268 17.6695C129.24 17.6592 129.209 17.6587 129.18 17.6678C129.151 17.677 129.126 17.6954 129.109 17.7202C128.375 18.8372 127.687 19.4084 126.372 19.9429C122.301 21.5973 117.35 23.2826 119.364 28.9688C119.404 29.0851 119.372 29.1104 119.269 29.0448C117.965 28.2363 117.116 27.0847 116.723 25.5897C116.713 25.5515 116.691 25.5173 116.66 25.4919C116.63 25.4666 116.592 25.4511 116.553 25.4478C116.513 25.4444 116.474 25.4532 116.439 25.4731C116.405 25.4929 116.377 25.5228 116.361 25.5588C115.606 27.2394 115.776 28.8037 116.872 30.2518C116.885 30.269 116.894 30.2896 116.898 30.3113C116.901 30.333 116.899 30.3549 116.892 30.3746C116.884 30.3942 116.871 30.4108 116.855 30.4224C116.839 30.434 116.819 30.4402 116.799 30.4403C116.778 30.4403 116.742 30.4168 116.689 30.3699C114.81 28.7184 113.596 26.3888 113.941 23.8369C113.943 23.8217 113.939 23.8064 113.932 23.7932C113.924 23.78 113.912 23.7696 113.898 23.7634C113.884 23.7572 113.869 23.7555 113.854 23.7586C113.839 23.7617 113.825 23.7694 113.815 23.7806C112.283 25.6319 111.59 27.7599 111.738 30.1646C111.787 30.9317 111.625 30.9795 111.252 30.308C109.496 27.1287 106.172 20.1624 109.395 17.2475C111.205 15.6072 114.298 14.8363 116.583 14.012C120.803 12.4842 124.925 10.5457 128.364 8.39893C131.281 6.57857 132.107 3.72563 133.048 0.639162C133.091 0.498485 133.204 0.309977 133.385 0.0736389C133.468 -0.0370274 133.514 -0.0229598 133.526 0.115842C133.63 1.4973 134.031 2.80278 134.076 4.18705C134.144 6.23813 133.062 8.39893 132.017 10.1208C132.011 10.1313 132.009 10.1433 132.011 10.155C132.013 10.1667 132.019 10.1774 132.028 10.1854C132.036 10.1935 132.047 10.1984 132.059 10.1995C132.071 10.2005 132.083 10.1976 132.093 10.1912C133.591 9.18579 134.986 8.03692 136.277 6.74457C137.257 5.76264 137.617 3.03912 137.802 1.59296C137.803 1.58734 137.806 1.58196 137.81 1.57798C137.815 1.57401 137.821 1.57178 137.826 1.57178C137.832 1.57178 137.837 1.57401 137.84 1.57798C137.844 1.58196 137.845 1.58734 137.844 1.59296C138.006 4.71224 137.204 7.52204 135.439 10.0224C135.431 10.0325 135.427 10.045 135.427 10.0578C135.428 10.0706 135.432 10.0829 135.44 10.0928C135.449 10.1026 135.46 10.1094 135.473 10.1119C135.485 10.1144 135.498 10.1126 135.509 10.1068C137.634 9.12483 140.331 7.43389 141.216 5.21962C141.377 4.81635 141.413 4.8276 141.323 5.25338C140.592 8.68216 138.951 11.5895 136.397 13.9754C136.375 13.9951 136.36 14.0213 136.354 14.0502C136.348 14.0791 136.351 14.1093 136.362 14.1364C136.374 14.1635 136.394 14.1862 136.42 14.2012C136.445 14.2163 136.475 14.2229 136.504 14.2202C137.341 14.1583 138.193 14.2033 138.982 13.9416C140.345 13.4886 142.874 12.6305 143.815 11.536C143.83 11.5137 143.853 11.4981 143.88 11.4928C143.906 11.4876 143.933 11.493 143.956 11.5079C143.978 11.5228 143.994 11.546 143.999 11.5724C144.004 11.5988 143.999 11.6262 143.984 11.6486C143.236 13.121 142.436 14.5268 141.581 15.8661C140.022 18.3139 137.162 19.7994 134.737 21.1218C134.111 21.4632 134.152 21.5917 134.86 21.5073Z" fill="#FB843D"/>
<path d="M110.029 36.9766L109.992 34.2024C109.989 33.9286 110.118 33.7532 110.38 33.6763C116.785 31.7987 123.182 31.8137 129.571 33.7213C129.62 33.7359 129.664 33.7662 129.695 33.8078C129.725 33.8493 129.742 33.8999 129.742 33.952V37.1342C129.742 37.228 129.696 37.2692 129.602 37.258C123.128 36.5039 116.656 36.5124 110.186 37.2833C110.16 37.2867 110.133 37.2831 110.108 37.2727C110.083 37.2623 110.062 37.2456 110.046 37.2242C109.995 37.1567 109.988 37.0845 110.023 37.0076C110.027 36.9983 110.029 36.9878 110.029 36.9766Z" fill="#FB843D"/>
<path d="M121.735 68.8598L104.561 69.0004H0.1433C0.105294 69.0004 0.0688457 68.985 0.0419718 68.9576C0.0150978 68.9301 0 68.8929 0 68.8541V49.1705C0 49.1302 0.0159854 49.0916 0.0444402 49.0631C0.0728951 49.0346 0.111489 49.0186 0.15173 49.0186L23.1079 49.0158L116.34 49.0186C116.364 49.0187 116.388 49.0134 116.41 49.003C116.432 48.9925 116.452 48.9773 116.467 48.9585C116.483 48.9396 116.493 48.9175 116.499 48.8938C116.505 48.8701 116.505 48.8455 116.5 48.8216C115.742 45.346 114.496 42.0569 112.763 38.9545C112.686 38.8195 112.726 38.752 112.881 38.752H126.93C127.056 38.752 127.089 38.8073 127.029 38.918C122.187 47.8172 121.086 58.7647 122.37 68.6741C122.383 68.781 122.335 68.8363 122.227 68.8401L121.735 68.8598ZM19.722 55.4785C19.1264 50.7152 14.3272 50.5914 10.725 50.9121C7.98547 51.1541 5.8444 52.0938 5.34706 54.9327C4.95744 57.1554 4.89937 59.5235 5.17286 62.0369C5.49598 65.0333 6.2743 66.9015 9.41285 67.3095C11.5427 67.5852 13.5142 67.5908 15.3275 67.3264C18.3424 66.8846 19.4439 65.0136 19.7389 62.1748C19.988 59.7945 19.9824 57.5624 19.722 55.4785ZM34.2094 64.6957C34.2094 64.6629 34.1964 64.6314 34.1732 64.6082C34.15 64.5849 34.1186 64.5719 34.0858 64.5719L26.2548 64.5916C26.222 64.5916 26.1906 64.5786 26.1674 64.5553C26.1442 64.5321 26.1312 64.5006 26.1312 64.4678V51.1147C26.1312 51.0819 26.1182 51.0504 26.095 51.0272C26.0718 51.0039 26.0404 50.9909 26.0076 50.9909H22.8831C22.8503 50.9909 22.8188 51.0039 22.7956 51.0272C22.7725 51.0504 22.7594 51.0819 22.7594 51.1147V67.1857C22.7594 67.2185 22.7725 67.25 22.7956 67.2732C22.8188 67.2964 22.8503 67.3095 22.8831 67.3095H34.0858C34.1186 67.3095 34.15 67.2964 34.1732 67.2732C34.1964 67.25 34.2094 67.2185 34.2094 67.1857V64.6957ZM43.0575 57.8109L39.0338 51.14C38.9739 51.0406 38.8868 50.9909 38.7725 50.9909H35.3502C35.2266 50.9909 35.1966 51.0434 35.2603 51.1485C37.1915 54.2584 39.1294 57.3702 41.0738 60.4838C41.8043 61.6543 41.4615 65.6411 41.4166 67.1322C41.4128 67.2504 41.4699 67.3095 41.588 67.3095H44.6057C44.6993 67.3095 44.7462 67.2626 44.7462 67.1688V61.19C44.7462 61.1147 44.7687 61.0404 44.8108 60.9762L51.1469 51.14C51.1567 51.1255 51.1623 51.1085 51.1631 51.091C51.164 51.0734 51.1599 51.056 51.1515 51.0406C51.1431 51.0252 51.1306 51.0124 51.1154 51.0037C51.1003 50.9949 51.083 50.9905 51.0654 50.9909H47.4717C47.4356 50.9909 47.4 51.0003 47.3686 51.018C47.3371 51.0357 47.3107 51.0613 47.2919 51.0922L43.2654 57.8109C43.1961 57.9254 43.1268 57.9254 43.0575 57.8109ZM70.3154 53.8889V67.1688C70.3154 67.2626 70.3623 67.3095 70.4559 67.3095H73.4765C73.5701 67.3095 73.6169 67.2626 73.6169 67.1688V51.1316C73.6169 51.0943 73.6021 51.0585 73.5758 51.0321C73.5494 51.0057 73.5137 50.9909 73.4765 50.9909H68.076C68.0406 50.9909 68.0061 51.0016 67.977 51.0217C67.9479 51.0418 67.9256 51.0703 67.913 51.1034L63.4089 62.8725C63.3171 63.1126 63.2244 63.1126 63.1307 62.8725L58.562 51.1597C58.5422 51.1098 58.5081 51.0669 58.464 51.0368C58.4199 51.0067 58.3679 50.9907 58.3147 50.9909H53.1756C53.0819 50.9909 53.0351 51.0378 53.0351 51.1316V67.1688C53.0351 67.2626 53.0819 67.3095 53.1756 67.3095H56.1961C56.2898 67.3095 56.3366 67.2626 56.3366 67.1688V53.9451C56.3375 53.9334 56.3422 53.9223 56.3499 53.9135C56.3577 53.9048 56.3682 53.8988 56.3797 53.8965C56.3912 53.8943 56.4031 53.8959 56.4136 53.9011C56.4241 53.9064 56.4326 53.9149 56.4378 53.9254L61.7427 67.1435C61.7858 67.2542 61.8673 67.3095 61.9871 67.3095H64.6902C64.7707 67.3095 64.8269 67.271 64.8588 67.1941L70.1946 53.8663C70.2751 53.6638 70.3154 53.6713 70.3154 53.8889ZM79.8688 62.2451C79.8688 62.0331 79.9746 61.9319 80.1863 61.9412C82.4098 62.0331 84.5649 61.9675 86.6516 61.7443C88.7609 61.5173 89.9794 60.3656 90.3072 58.2892C91.1529 52.9266 89.1383 51.0106 83.8727 50.9965C81.4413 50.989 79.0296 50.9881 76.6375 50.9937C76.6002 50.9937 76.5645 51.0085 76.5381 51.0349C76.5118 51.0613 76.497 51.0971 76.497 51.1344V67.0985C76.497 67.2391 76.5672 67.3095 76.7077 67.3095H79.7283C79.8219 67.3095 79.8688 67.2626 79.8688 67.1688V62.2451ZM96.3764 51.1091C96.3764 51.0935 96.3733 51.0782 96.3674 51.0638C96.3615 51.0495 96.3528 51.0365 96.3418 51.0255C96.3309 51.0145 96.3178 51.0058 96.3035 50.9999C96.2892 50.994 96.2739 50.9909 96.2584 50.9909H93.1226C93.1071 50.9909 93.0918 50.994 93.0775 50.9999C93.0631 51.0058 93.0501 51.0145 93.0392 51.0255C93.0282 51.0365 93.0195 51.0495 93.0136 51.0638C93.0077 51.0782 93.0046 51.0935 93.0046 51.1091V67.4727C93.0046 67.4882 93.0077 67.5036 93.0136 67.5179C93.0195 67.5322 93.0282 67.5453 93.0392 67.5562C93.0501 67.5672 93.0631 67.5759 93.0775 67.5818C93.0918 67.5878 93.1071 67.5908 93.1226 67.5908H96.2584C96.2739 67.5908 96.2892 67.5878 96.3035 67.5818C96.3178 67.5759 96.3309 67.5672 96.3418 67.5562C96.3528 67.5453 96.3615 67.5322 96.3674 67.5179C96.3733 67.5036 96.3764 67.4882 96.3764 67.4727V51.1091ZM102.814 64.2821C102.821 64.2623 102.834 64.2452 102.851 64.2331C102.868 64.221 102.888 64.2145 102.909 64.2146H110.336C110.356 64.2145 110.377 64.221 110.394 64.2331C110.411 64.2452 110.424 64.2623 110.431 64.2821L111.479 67.242C111.486 67.2617 111.499 67.2789 111.516 67.291C111.533 67.303 111.554 67.3095 111.575 67.3095H114.761C114.777 67.3091 114.793 67.3049 114.807 67.2973C114.821 67.2896 114.833 67.2788 114.842 67.2656C114.851 67.2524 114.857 67.2373 114.859 67.2215C114.861 67.2056 114.859 67.1895 114.854 67.1744L109.021 51.0584C109.014 51.0386 109.001 51.0215 108.983 51.0094C108.966 50.9973 108.946 50.9909 108.925 50.9909H104.154C104.133 50.9909 104.113 50.9973 104.095 51.0094C104.078 51.0215 104.065 51.0386 104.058 51.0584L98.3461 67.1744C98.3407 67.1897 98.339 67.2061 98.3412 67.2222C98.3435 67.2382 98.3495 67.2535 98.3589 67.2667C98.3682 67.28 98.3806 67.2908 98.395 67.2982C98.4094 67.3056 98.4254 67.3095 98.4416 67.3095H101.681C101.702 67.3095 101.723 67.303 101.74 67.291C101.757 67.2789 101.77 67.2617 101.777 67.242L102.814 64.2821Z" fill="#FB843D"/>
<path d="M11.0093 53.5756C12.9256 53.3984 16.022 53.0748 16.3536 55.8209C16.672 58.4543 16.6355 60.8309 16.244 62.9504C15.8028 65.3335 11.619 65.0465 10.1832 64.6357C7.67125 63.9183 8.4018 57.0898 8.70807 55.351C8.91881 54.1496 9.82637 53.6854 11.0093 53.5756Z" fill="#FB843D"/>
<path d="M103.662 61.7739L106.516 53.6821C106.523 53.6642 106.535 53.6488 106.55 53.6379C106.566 53.6269 106.584 53.6211 106.603 53.6211C106.622 53.6211 106.641 53.6269 106.657 53.6379C106.672 53.6488 106.684 53.6642 106.691 53.6821L109.573 61.7626C109.578 61.7766 109.58 61.7916 109.578 61.8062C109.576 61.8209 109.57 61.8349 109.562 61.8471C109.553 61.8592 109.542 61.8691 109.529 61.8759C109.516 61.8828 109.501 61.8864 109.486 61.8864L103.749 61.8977C103.734 61.8976 103.719 61.894 103.706 61.8872C103.693 61.8803 103.682 61.8704 103.673 61.8583C103.665 61.8462 103.659 61.8322 103.657 61.8175C103.655 61.8028 103.657 61.7879 103.662 61.7739Z" fill="#FB843D"/>
<path d="M79.8745 53.8019C79.8745 53.7838 79.8781 53.7659 79.885 53.7492C79.8919 53.7324 79.9021 53.7172 79.9148 53.7044C79.9276 53.6916 79.9428 53.6815 79.9595 53.6746C79.9762 53.6676 79.9941 53.6641 80.0122 53.6641L84.7411 53.6725C85.3486 53.674 85.9307 53.8992 86.3596 54.2985C86.7884 54.6979 87.0289 55.2387 87.0283 55.8024V57.2091C87.028 57.4887 86.9682 57.7655 86.8525 58.0236C86.7368 58.2817 86.5674 58.5161 86.3539 58.7134C86.1404 58.9107 85.8871 59.067 85.6084 59.1734C85.3298 59.2798 85.0312 59.3341 84.7299 59.3334L80.001 59.3249C79.9644 59.3249 79.9294 59.3104 79.9036 59.2845C79.8778 59.2587 79.8633 59.2236 79.8633 59.1871L79.8745 53.8019Z" fill="#FB843D"/>
</svg>
