<svg width="56" height="24" viewBox="0 0 56 24" fill="none" xmlns="http://www.w3.org/2000/svg">
<g clip-path="url(#clip0_1108_155109)">
<path d="M40.0609 2.71729V14.9635H37.9797V4.37385H34.2634V14.9635H32.1816V2.71785H40.0615L40.0609 2.71729ZM43.5468 15.1395C42.6294 15.1395 41.9243 14.9578 41.431 14.5939V12.8839C41.695 13.0723 41.9815 13.2192 42.2912 13.3249C42.6124 13.4307 42.9908 13.4835 43.4264 13.4835C44.0809 13.4835 44.5737 13.2895 44.9059 12.9019C45.2386 12.5025 45.4449 11.9563 45.5257 11.2633H42.515V9.60679H45.5081C45.3134 8.25622 44.6369 7.58066 43.4786 7.58066C43.1228 7.58066 42.7669 7.63916 42.4116 7.75672C42.0673 7.87428 41.7923 7.99747 41.5855 8.12685V6.3471C41.8039 6.22954 42.0959 6.12997 42.4633 6.04729C42.8302 5.96516 43.2718 5.9241 43.7877 5.9241C44.4301 5.9241 44.9922 6.04222 45.474 6.27679C45.9508 6.48729 46.37 6.81384 46.695 7.22797C47.0278 7.62735 47.2747 8.11503 47.4353 8.69047C47.6075 9.25466 47.6933 9.87172 47.6933 10.5411C47.6933 12.0328 47.349 13.1719 46.6609 13.9594C45.9844 14.7463 44.9466 15.1395 43.5468 15.1395ZM52.5591 4.93747C51.7336 4.93747 51.1082 4.72597 50.6836 4.30297C50.2711 3.88054 50.0643 3.35179 50.0643 2.71729H51.7847C51.7847 3.02272 51.854 3.24604 51.9915 3.38666C52.14 3.52785 52.3298 3.59816 52.5591 3.59816C52.7769 3.59816 52.9491 3.52785 53.075 3.38666C53.2015 3.23422 53.2642 3.01091 53.2642 2.71729H54.9852C54.9852 3.02272 54.9335 3.31072 54.8301 3.58072C54.7267 3.85072 54.5716 4.08585 54.3653 4.28554C54.1706 4.48522 53.9182 4.64385 53.6085 4.76141C53.3104 4.87897 52.9606 4.93747 52.5591 4.93747ZM51.045 6.10016V11.598L54.1761 6.10016H55.9999V14.9635H54.0216V9.4836L50.8904 14.9635H49.0666V6.10016H51.045Z" fill="#050505"/>
<mask id="mask0_1108_155109" style="mask-type:luminance" maskUnits="userSpaceOnUse" x="12" y="0" width="16" height="18">
<path d="M27.8807 8.988C27.8807 4.503 24.3257 0.867188 19.9404 0.867188C15.555 0.867188 12 4.503 12 8.988V9.01163C12 13.4966 15.555 17.1324 19.9404 17.1324C24.3257 17.1324 27.8807 13.4966 27.8807 9.01163V8.988Z" fill="white"/>
</mask>
<g mask="url(#mask0_1108_155109)">
<path d="M19.9404 17.1324C24.3257 17.1324 27.8807 13.4913 27.8807 8.99981C27.8807 4.50829 24.3257 0.867188 19.9404 0.867188C15.555 0.867188 12 4.50829 12 8.99981C12 13.4913 15.555 17.1324 19.9404 17.1324Z" fill="#FC3F1D"/>
<path d="M21.0603 13.8878H22.7191V4.12842H20.3063C17.8797 4.12842 16.6048 5.40586 16.6048 7.28798C16.6048 8.78985 17.3033 9.67467 18.5518 10.5876L16.3848 13.8872H18.1811L20.5939 10.1944L19.7579 9.61842C18.7432 8.91642 18.2498 8.3691 18.2498 7.18954C18.2498 6.15004 18.9626 5.44804 20.32 5.44804H21.0603V13.8878Z" fill="white" fill-opacity="0.98"/>
</g>
</g>
<defs>
<clipPath id="clip0_1108_155109">
<rect width="44" height="18" fill="white" transform="translate(12)"/>
</clipPath>
</defs>
</svg>
