<svg width="56" height="24" viewBox="0 0 56 24" fill="none" xmlns="http://www.w3.org/2000/svg">
<path fill-rule="evenodd" clip-rule="evenodd" d="M24.3863 11.158H24.6519C25.118 11.158 25.5001 11.5277 25.5001 11.9788C25.5001 12.4299 25.118 12.7996 24.6519 12.7996H23.9832C23.9546 12.7996 23.9278 12.7996 23.9011 12.7959H22.9306V13.2932H25.9051V10.6939H21.7404C21.2743 10.6939 20.8922 10.3242 20.8922 9.87311C20.8922 9.42203 21.2743 9.05229 21.7404 9.05229H26.7973C27.6341 9.16321 28.1308 9.60505 28.2206 10.4499V14.9386H22.197C21.2246 14.8184 20.7031 14.2989 20.6152 13.5021V12.5981C20.7451 11.7255 21.2838 11.2578 22.197 11.1543H24.3863V11.158Z" fill="#0A4881"/>
<path fill-rule="evenodd" clip-rule="evenodd" d="M31.0003 16.9167C31.0003 17.5119 30.4959 18 29.8808 18C29.2656 18 28.7612 17.5119 28.7612 16.9167V9.05229H35.0351C35.8011 9.16321 36.2787 9.58101 36.3322 10.4499V13.5021C36.2654 14.3174 35.8565 14.8165 35.0351 14.9386H31.0003V16.9167ZM33.4704 10.6958C33.7723 10.6958 34.0168 10.9343 34.0168 11.2245V12.7645C34.0168 13.0547 33.7704 13.2932 33.4704 13.2932H31.5466C31.2448 13.2932 31.0003 13.0547 31.0003 12.7645V11.2245C31.0003 10.9343 31.2467 10.6958 31.5466 10.6958H33.4704Z" fill="#0A4881"/>
<path fill-rule="evenodd" clip-rule="evenodd" d="M16.6894 10.6958C16.4104 10.6958 16.1812 10.9176 16.1812 11.1875V12.8052C16.1812 13.0751 16.4104 13.2969 16.6894 13.2969H19.534C20.0001 13.2988 20.3822 13.6685 20.3822 14.1214C20.3822 14.5744 20.0001 14.9422 19.534 14.9422H18.8653C18.8424 14.9422 18.8195 14.9422 18.7966 14.9386H15.3234C14.4026 14.8147 13.9728 14.2915 13.8658 13.5021V10.4499C13.9556 9.54774 14.4656 9.10775 15.3234 9.05229H19.534C20.0001 9.05229 20.3822 9.42203 20.3822 9.87311C20.3822 10.3242 20.0001 10.6939 19.534 10.6939H16.6894V10.6958Z" fill="#0A4881"/>
<path fill-rule="evenodd" clip-rule="evenodd" d="M48.7385 11.158H49.0041C49.4702 11.158 49.8523 11.5277 49.8523 11.9788C49.8523 12.4299 49.4702 12.7996 49.0041 12.7996H48.3354C48.3068 12.7996 48.28 12.7996 48.2533 12.7959H47.2828V13.2932H50.2573V10.6939H46.0926C45.6264 10.6939 45.2444 10.3242 45.2444 9.87311C45.2444 9.42203 45.6264 9.05229 46.0926 9.05229H51.1495C51.9862 9.16321 52.4829 9.60505 52.5727 10.4499V14.9386H46.5492C45.5768 14.8184 45.0552 14.2989 44.9674 13.5021V12.5981C45.0973 11.7255 45.636 11.2578 46.5492 11.1543H48.7385V11.158Z" fill="#0A4881"/>
<path fill-rule="evenodd" clip-rule="evenodd" d="M36.8633 9.0522C39.4366 9.0522 38.8501 8.81371 40.6612 10.5681C42.5181 8.83775 41.9411 9.0522 44.5183 9.0522V14.9366H42.2793V11.5258H42.2697L40.6612 12.9899L39.1023 11.5313V14.9366H36.8633V9.0522Z" fill="#0A4881"/>
<path fill-rule="evenodd" clip-rule="evenodd" d="M48.2743 8.44569L49.1722 6.7153H51.7074L49.6575 8.44569H48.2743Z" fill="#0A4881"/>
<path fill-rule="evenodd" clip-rule="evenodd" d="M12.0796 13.8089C11.2829 16.2252 8.94458 17.974 6.18403 17.974C3.42347 17.974 0.899807 16.081 0.202504 13.515C6.65781 15.8148 7.29016 12.0489 12.0815 13.8071M12.3432 11.7809H12.3356C12.3356 11.7809 12.3528 11.7846 12.3432 11.7809ZM12.37 11.7957C12.3719 11.8585 12.3738 11.9214 12.3738 11.9842C12.3738 12.1506 12.3661 12.3133 12.3528 12.476C9.62851 11.5276 8.1231 12.1525 6.5833 12.7921C6.27955 12.9178 5.99298 13.0288 5.72171 13.1249C4.08066 13.7035 2.9707 13.7239 1.45574 13.2654C1.34494 13.2247 1.23413 13.1841 1.11951 13.1378C1.23413 13.1841 1.34685 13.2247 1.45574 13.2654C1.02781 13.136 0.565484 12.9678 0.0515813 12.7644C0.0171938 12.5093 0 12.2486 0 11.9842C0 11.7606 0.0133729 11.5387 0.0382084 11.3206C4.78178 13.014 6.38653 11.4333 8.79748 11.169C9.19485 11.1246 9.61323 11.1172 10.0717 11.1653C10.7289 11.2337 11.4663 11.4185 12.3375 11.7772L12.37 11.7938V11.7957ZM11.8446 9.5606C11.9478 9.78614 12.0376 10.0191 12.1121 10.2594C9.4432 9.35539 7.95308 9.97286 6.42856 10.6051C5.81914 10.8584 5.28422 11.0488 4.78942 11.1801C3.67756 11.474 2.77584 11.4666 1.69454 11.1893C1.22267 11.0691 0.718318 10.8954 0.147102 10.6754C0.244534 10.252 0.387815 9.8453 0.573126 9.46262C4.43599 10.6365 6.05412 9.49035 8.09254 9.12246C8.75163 9.00414 9.45658 8.96717 10.2952 9.11691C10.7652 9.2001 11.2753 9.34245 11.8446 9.5606ZM6.18594 6C7.92442 6 9.49478 6.69511 10.62 7.81173C8.70387 7.45123 7.46019 7.96702 6.19358 8.49205C5.46953 8.79339 4.85055 9.00599 4.27934 9.1354C3.38335 9.33875 2.60963 9.33321 1.73466 9.14279C1.46147 9.08363 1.17873 9.00414 0.878793 8.90801C1.96009 7.16653 3.93164 6 6.18594 6Z" fill="#0A4881"/>
<path fill-rule="evenodd" clip-rule="evenodd" d="M54.4487 8.18885C55.1097 8.18885 55.6447 8.70649 55.6447 9.34614C55.6447 9.98579 55.1097 10.5034 54.4487 10.5034C53.7877 10.5034 53.2528 9.98579 53.2528 9.34614C53.2528 8.70649 53.7877 8.18885 54.4487 8.18885ZM54.2233 9.2648H54.5099C54.5576 9.2648 54.5939 9.25925 54.6149 9.24631C54.636 9.23337 54.6493 9.21488 54.6551 9.18715C54.6608 9.15942 54.6627 9.1169 54.6627 9.05589C54.6627 8.99489 54.6532 8.95421 54.6321 8.93388C54.6111 8.91354 54.571 8.90245 54.5099 8.90245H54.2233V9.2648ZM54.2233 9.57538V9.93033C54.2176 10.0246 54.1373 10.1004 54.038 10.1004C53.9387 10.1004 53.8584 10.0246 53.8527 9.93033V8.59002H54.5653C54.6799 8.59002 54.7716 8.60296 54.8385 8.62515C54.9053 8.64733 54.9569 8.68615 54.9913 8.74531C55.0257 8.80262 55.0429 8.88766 55.0429 8.99489C55.0429 9.08732 55.0391 9.15757 55.0314 9.20379C55.0238 9.25001 55.0008 9.29253 54.9626 9.32765C54.9244 9.36278 54.8652 9.38866 54.7812 9.409V9.42379C54.8595 9.42563 54.9206 9.44782 54.9645 9.48849C55.0085 9.52916 55.0314 9.58647 55.0314 9.66227V9.93218C55.0257 10.0265 54.9454 10.1023 54.848 10.1023C54.7506 10.1023 54.6684 10.0265 54.6646 9.93218V9.74361C54.6646 9.63084 54.6149 9.57538 54.5137 9.57538H54.2233ZM54.4487 7.84315C55.3065 7.84315 56 8.51607 56 9.34429C56 10.1725 55.3046 10.8454 54.4487 10.8454C53.5929 10.8454 52.8975 10.1725 52.8975 9.34429C52.8975 8.51607 53.5929 7.84315 54.4487 7.84315Z" fill="#0A4881"/>
</svg>
