<svg width="60" height="60" viewBox="0 0 60 60" fill="none" xmlns="http://www.w3.org/2000/svg">
<g clip-path="url(#clip0_1285_155461)">
<path d="M30.0006 59.8429C46.482 59.8429 59.8429 46.482 59.8429 30.0006C59.8429 13.5191 46.482 0.158203 30.0006 0.158203C13.5191 0.158203 0.158203 13.5191 0.158203 30.0006C0.158203 46.482 13.5191 59.8429 30.0006 59.8429Z" stroke="black" stroke-width="0.0631579" stroke-miterlimit="22.9256"/>
<path d="M29.9373 56.7671C44.7199 56.7671 56.7037 44.7834 56.7037 30.0008C56.7037 15.2181 44.7199 3.23438 29.9373 3.23438C15.1546 3.23438 3.1709 15.2181 3.1709 30.0008C3.1709 44.7834 15.1546 56.7671 29.9373 56.7671Z" fill="white"/>
<path fill-rule="evenodd" clip-rule="evenodd" d="M23.7014 0.661598C39.9046 -2.7825 55.8318 7.56074 59.2759 23.7639C62.72 39.967 52.3767 55.8942 36.1735 59.3383C19.9704 62.7824 4.04316 52.4392 0.599097 36.236C-2.845 20.0329 7.49828 4.10566 23.7014 0.661598ZM29.9375 5.60522C43.4103 5.60522 54.3322 16.5271 54.3322 30C54.3322 43.4728 43.4104 54.3947 29.9375 54.3947C16.4646 54.3947 5.54275 43.4728 5.54275 30C5.54275 16.5271 16.4646 5.60522 29.9375 5.60522Z" fill="#234082"/>
<path fill-rule="evenodd" clip-rule="evenodd" d="M29.9373 6.39453C42.9741 6.39453 53.5426 16.963 53.5426 29.9998C53.5426 43.0366 42.9741 53.6051 29.9373 53.6051C16.9005 53.6051 6.33203 43.0366 6.33203 29.9998C6.33203 16.963 16.9005 6.39453 29.9373 6.39453ZM29.9373 6.75769C42.7736 6.75769 53.1794 17.1635 53.1794 29.9998C53.1794 42.8361 42.7736 53.2419 29.9373 53.2419C17.101 53.2419 6.69519 42.8361 6.69519 29.9998C6.69519 17.1635 17.101 6.75769 29.9373 6.75769Z" fill="#C82222"/>
<path fill-rule="evenodd" clip-rule="evenodd" d="M29.9373 7.42969C42.403 7.42969 52.5083 17.535 52.5083 30.0007C52.5083 42.4664 42.403 52.5718 29.9373 52.5718C17.4716 52.5718 7.36621 42.4665 7.36621 30.0007C7.36621 17.535 17.4715 7.42969 29.9373 7.42969ZM29.9373 8.21916C41.967 8.21916 51.7188 17.971 51.7188 30.0007C51.7188 42.0305 41.967 51.7823 29.9373 51.7823C17.9075 51.7823 8.15568 42.0305 8.15568 30.0007C8.15568 17.971 17.9075 8.21916 29.9373 8.21916Z" fill="#C82222"/>
<path fill-rule="evenodd" clip-rule="evenodd" d="M33.2002 2.87921L33.8586 2.45166L34.3032 3.13642L33.6449 3.56394L33.2002 2.87921ZM34.1764 2.24529L34.5213 2.0213L35.3792 3.34235L34.0581 4.20028L33.8512 3.88175L34.5096 3.4542L34.8274 3.24783L34.621 2.92999L34.1764 2.24529ZM34.8391 1.8149L36.1601 0.957031L37.018 2.27807L35.697 3.13598L34.8391 1.8149ZM37.2244 2.59588L37.4312 2.91445L36.7729 3.34194L36.4551 3.54834L36.6615 3.86612L37.1062 4.55084L36.7613 4.77483L35.9034 3.45376L37.2244 2.59588ZM37.6376 3.23223L38.0823 3.91693L37.424 4.34444L36.9793 3.65975L37.6376 3.23223ZM36.4434 4.9812L35.1224 5.83911L34.2645 4.51809L35.5855 3.66019L36.4434 4.9812Z" fill="white"/>
<path fill-rule="evenodd" clip-rule="evenodd" d="M27.4902 2.79243L28.0453 2.23737L28.6226 2.8147L28.0675 3.36976L27.4902 2.79243ZM28.3132 1.96942L28.6041 1.67861L29.7179 2.79243L28.6041 3.90629L28.3355 3.63771L28.8905 3.08264L29.1585 2.8147L28.8905 2.54672L28.3132 1.96942ZM28.872 1.41066L29.9858 0.296875L31.0996 1.4107L29.9858 2.52449L28.872 1.41066ZM31.3676 1.67864L31.6361 1.94722L31.0811 2.50225L30.8131 2.7702L31.0811 3.03815L31.6584 3.61544L31.3676 3.90625L30.2538 2.79243L31.3676 1.67864ZM31.9041 2.21517L32.4814 2.79243L31.9263 3.3475L31.3491 2.7702L31.9041 2.21517ZM31.0996 4.1742L29.9858 5.28802L28.872 4.17423L29.9858 3.06041L31.0996 4.1742Z" fill="white"/>
<path fill-rule="evenodd" clip-rule="evenodd" d="M38.7676 4.14953L39.5004 3.86823L39.793 4.63045L39.0601 4.91176L38.7676 4.14953ZM39.8542 3.73244L40.2381 3.58503L40.8026 5.0556L39.3321 5.62013L39.1959 5.26553L39.9288 4.98423L40.2825 4.84844L40.1468 4.49463L39.8542 3.73244ZM40.5919 3.44924L42.0624 2.88477L42.6269 4.35533L41.1564 4.91981L40.5919 3.44924ZM42.7627 4.70908L42.8988 5.06368L42.166 5.34499L41.8122 5.48078L41.9481 5.83456L42.2406 6.59674L41.8567 6.74412L41.2922 5.27356L42.7627 4.70908ZM43.0346 5.41746L43.3272 6.17962L42.5944 6.46096L42.3018 5.69877L43.0346 5.41746ZM41.5029 6.87991L40.0323 7.44442L39.4678 5.97388L40.9384 5.40941L41.5029 6.87991Z" fill="white"/>
<path fill-rule="evenodd" clip-rule="evenodd" d="M43.9492 6.55014L44.7245 6.42736L44.8522 7.23373L44.0769 7.35654L43.9492 6.55014ZM45.0988 6.36809L45.505 6.30373L45.7514 7.85953L44.1956 8.10597L44.1362 7.73082L44.9115 7.60801L45.2858 7.54876L45.2265 7.17443L45.0988 6.36809ZM45.8793 6.24446L47.435 5.99805L47.6814 7.55385L46.1257 7.80026L45.8793 6.24446ZM47.7407 7.92812L47.8001 8.30325L47.0249 8.42606L46.6506 8.4853L46.7099 8.85961L46.8376 9.66594L46.4314 9.7303L46.185 8.17453L47.7407 7.92812ZM47.8594 8.67752L47.9872 9.48386L47.2119 9.6067L47.0841 8.80033L47.8594 8.67752ZM46.0571 9.78957L44.5013 10.036L44.2549 8.48025L45.8107 8.2338L46.0571 9.78957Z" fill="white"/>
<path fill-rule="evenodd" clip-rule="evenodd" d="M21.8867 3.89541L22.3142 3.23708L22.999 3.68175L22.5714 4.3401L21.8867 3.89541ZM22.5206 2.91927L22.7446 2.57437L24.0657 3.43227L23.2078 4.75335L22.8892 4.54647L23.3168 3.88815L23.5232 3.57034L23.2053 3.36394L22.5206 2.91927ZM22.951 2.25656L23.8089 0.935547L25.1299 1.79345L24.2721 3.11446L22.951 2.25656ZM25.4477 1.99982L25.7663 2.20669L25.3388 2.86499L25.1324 3.1828L25.4502 3.38917L26.1349 3.83383L25.9109 4.17874L24.5899 3.32083L25.4477 1.99982ZM26.0841 2.41306L26.7688 2.85769L26.3413 3.51602L25.6566 3.07136L26.0841 2.41306ZM25.7045 4.49655L24.8466 5.81762L23.5256 4.95972L24.3835 3.63867L25.7045 4.49655Z" fill="white"/>
<path fill-rule="evenodd" clip-rule="evenodd" d="M16.6357 6.14056L16.917 5.4077L17.6792 5.70031L17.3979 6.43317L16.6357 6.14056ZM17.0528 5.05396L17.2002 4.66999L18.6708 5.23449L18.1063 6.70506L17.7517 6.56896L18.033 5.8361L18.1688 5.48232L17.815 5.34653L17.0528 5.05396ZM17.336 4.31624L17.9005 2.8457L19.371 3.41021L18.8066 4.88071L17.336 4.31624ZM19.7248 3.546L20.0794 3.68213L19.7981 4.41492L19.6623 4.7687L20.0161 4.90449L20.7783 5.19707L20.6309 5.58101L19.1604 5.01653L19.7248 3.546ZM20.4332 3.81792L21.1954 4.11047L20.9141 4.84329L20.1519 4.55071L20.4332 3.81792ZM20.4951 5.93479L19.9306 7.40536L18.4601 6.84088L19.0246 5.37031L20.4951 5.93479Z" fill="white"/>
<path fill-rule="evenodd" clip-rule="evenodd" d="M11.9658 9.42722L12.0886 8.65189L12.895 8.77963L12.7722 9.55495L11.9658 9.42722ZM12.1479 8.27762L12.2122 7.87142L13.768 8.11783L13.5216 9.67366L13.1465 9.61423L13.2693 8.8389L13.3286 8.46463L12.9543 8.40535L12.1479 8.27762ZM12.2715 7.49714L12.5179 5.94141L14.0737 6.18782L13.8273 7.74355L12.2715 7.49714ZM14.448 6.24709L14.8231 6.30652L14.7003 7.08178L14.641 7.45606L15.0153 7.51533L15.8217 7.64307L15.7573 8.04924L14.2016 7.80283L14.448 6.24709ZM15.1974 6.3658L16.0038 6.49347L15.881 7.26876L15.0746 7.14106L15.1974 6.3658ZM15.698 8.42354L15.4516 9.97934L13.8959 9.73293L14.1423 8.17713L15.698 8.42354Z" fill="white"/>
<path d="M7.42601 13.4775C7.36162 13.4317 7.30775 13.3984 7.26448 13.3786C7.22068 13.3584 7.18288 13.3475 7.14976 13.3468C7.11698 13.3454 7.08531 13.3532 7.05452 13.3692C7.0243 13.3857 6.98409 13.4161 6.93414 13.4615L6.85352 13.4041L7.36588 12.6836L7.44651 12.7409C7.41531 12.8216 7.40211 12.8805 7.4076 12.9189C7.41256 12.957 7.43204 12.9937 7.46643 13.0282C7.50044 13.0634 7.55855 13.1097 7.63914 13.167L9.05839 14.1763C9.13345 14.2297 9.19086 14.2663 9.2286 14.2855C9.26728 14.3046 9.29997 14.3144 9.32874 14.3154C9.35653 14.3166 9.38359 14.3106 9.41008 14.2982C9.43601 14.2855 9.47435 14.2588 9.52418 14.2184L9.6048 14.2757L9.02593 15.0897C8.844 15.3456 8.65989 15.5013 8.47276 15.5571C8.286 15.6122 8.09245 15.5691 7.89259 15.4269C7.7784 15.3457 7.69045 15.2536 7.62758 15.15C7.56518 15.0457 7.53013 14.9373 7.52324 14.8237C7.51696 14.7105 7.53546 14.5955 7.58091 14.4795C7.62578 14.363 7.68654 14.2503 7.76337 14.1422C7.84977 14.0207 7.91889 13.9282 7.97075 13.8648L7.42601 13.4775ZM8.10682 13.9616L7.97147 14.1519C7.88346 14.2756 7.82725 14.3891 7.80224 14.4918C7.77739 14.5956 7.78734 14.6954 7.83208 14.7913C7.87626 14.8868 7.96083 14.9789 8.08399 15.0665C8.17806 15.1334 8.26519 15.1768 8.34638 15.1966C8.427 15.216 8.50206 15.2171 8.57214 15.2003C8.64164 15.1832 8.70638 15.1491 8.766 15.0996C8.82508 15.0498 8.88028 14.9887 8.93163 14.9165C9.00887 14.8079 9.06436 14.7251 9.09891 14.6671L8.10682 13.9616Z" fill="white" stroke="white" stroke-width="0.0631579" stroke-miterlimit="22.9256"/>
<path d="M7.24545 17.8821L6.71836 17.5791L6.81667 17.4081C6.88409 17.4231 6.9444 17.434 6.9979 17.4402C7.05199 17.4467 7.09905 17.4476 7.13953 17.4448C7.17998 17.4419 7.21589 17.4332 7.24687 17.4193C7.27785 17.4054 7.30583 17.3843 7.33122 17.3553C7.35623 17.3269 7.38184 17.2893 7.40786 17.244L7.72494 16.6926L6.81076 16.1669L6.59606 16.5404C6.56663 16.5916 6.55084 16.6356 6.54894 16.6733C6.54645 16.7107 6.55744 16.7495 6.58099 16.7884C6.60518 16.8277 6.64936 16.8777 6.71388 16.9378L6.61936 17.1021L5.94935 16.7169L6.04387 16.5525C6.12282 16.5765 6.18582 16.5881 6.23287 16.5891C6.27929 16.5896 6.31826 16.5811 6.34889 16.5622C6.38012 16.5438 6.41091 16.5068 6.44239 16.452L6.6571 16.0786L5.65062 15.4999L5.33868 16.0424C5.3058 16.0996 5.28386 16.1488 5.27378 16.1897C5.26276 16.231 5.26257 16.2713 5.27167 16.3106C5.28073 16.3499 5.2987 16.3903 5.32551 16.4319C5.35292 16.4738 5.38324 16.5134 5.41646 16.5508C5.45003 16.5874 5.50014 16.6409 5.56542 16.7093L5.4661 16.882L4.87305 16.4966L5.80207 14.8809L5.88784 14.9302C5.86453 15.0135 5.85705 15.0733 5.86624 15.1111C5.87483 15.1485 5.89772 15.1831 5.9353 15.2142C5.97253 15.2459 6.0348 15.2865 6.12057 15.3358L7.6303 16.2039C7.71013 16.2498 7.77079 16.2807 7.8102 16.2962C7.85056 16.3115 7.88404 16.3181 7.91274 16.3163C7.94053 16.3149 7.9669 16.3063 7.99207 16.2914C8.01664 16.2762 8.05226 16.246 8.09795 16.201L8.18372 16.2502L7.24545 17.8821Z" fill="white" stroke="white" stroke-width="0.0631579" stroke-miterlimit="22.9256"/>
<path d="M6.16194 20.0799L5.65428 19.8504L5.73635 19.6688C5.85607 19.6875 5.95756 19.6881 6.04052 19.6714C6.12414 19.6549 6.19298 19.6227 6.24705 19.5748C6.30114 19.5268 6.34683 19.4608 6.38505 19.3763C6.44195 19.2505 6.45063 19.1195 6.41119 18.9833C6.37238 18.8473 6.28102 18.7125 6.13873 18.5804C5.9958 18.4479 5.80573 18.328 5.56725 18.2202C5.32747 18.1118 5.11204 18.043 4.92206 18.0129C4.73148 17.9826 4.57295 17.993 4.44553 18.0448C4.31899 18.0961 4.22542 18.188 4.16571 18.3201C4.12042 18.4203 4.09775 18.5088 4.09766 18.5857C4.09788 18.6619 4.11859 18.7361 4.1617 18.8076C4.20474 18.8791 4.27747 18.9618 4.38108 19.0561L4.299 19.2376L3.77441 19.0004C3.79582 18.8714 3.82589 18.7432 3.8652 18.6162C3.90417 18.4884 3.9564 18.3529 4.02177 18.2083C4.16214 17.8978 4.3734 17.7106 4.65537 17.6473C4.93756 17.5834 5.28717 17.6457 5.70405 17.8342C5.96571 17.9525 6.17615 18.0974 6.33626 18.2686C6.49541 18.44 6.59265 18.6303 6.62789 18.8392C6.66307 19.0481 6.6306 19.2634 6.52983 19.4862C6.47947 19.5977 6.42746 19.6978 6.37308 19.7863C6.31908 19.8757 6.24875 19.9729 6.16194 20.0799Z" fill="white" stroke="white" stroke-width="0.0631579" stroke-miterlimit="22.9256"/>
<path d="M5.25568 22.7734L5.16195 22.7417C5.16862 22.6642 5.16514 22.6079 5.15251 22.5725C5.13985 22.537 5.11307 22.5069 5.07167 22.4813C5.03093 22.4559 4.9583 22.4262 4.85418 22.391L3.20453 21.8328C3.13102 21.8079 3.07503 21.7912 3.03751 21.7821C2.99908 21.7735 2.96759 21.77 2.94173 21.7714C2.91675 21.7724 2.8948 21.7773 2.87671 21.7857C2.8582 21.7932 2.8397 21.8072 2.82006 21.8267C2.80105 21.8464 2.77635 21.8787 2.74705 21.9246L2.65332 21.8929L2.92439 21.0918L3.01812 21.1235C3.01209 21.1991 3.0149 21.2552 3.0269 21.2904C3.03956 21.3259 3.06571 21.3558 3.10686 21.382C3.14737 21.4081 3.22045 21.4386 3.32586 21.4743L5.27614 22.1342L5.61811 21.1236L3.66783 20.4637C3.58323 20.435 3.51966 20.4171 3.47823 20.4089C3.4372 20.4016 3.40263 20.4007 3.37547 20.4061C3.34806 20.412 3.32194 20.4249 3.29813 20.4459C3.27372 20.4666 3.24445 20.5039 3.20968 20.5574L3.11595 20.5256L3.38769 19.7227L3.48138 19.7544C3.47469 19.8406 3.47898 19.9008 3.49534 19.936C3.51104 19.9711 3.54025 20.0006 3.58313 20.0238C3.62583 20.0476 3.69479 20.0753 3.78849 20.107L5.43811 20.6652C5.52536 20.6948 5.59086 20.7133 5.63254 20.7208C5.67508 20.728 5.70922 20.7279 5.73704 20.7207C5.764 20.7139 5.78819 20.7003 5.80998 20.6808C5.83117 20.6611 5.86019 20.6246 5.89629 20.5715L5.99002 20.6032L5.25568 22.7734Z" fill="white" stroke="white" stroke-width="0.0631579" stroke-miterlimit="22.9256"/>
<path d="M4.51618 25.4827C4.51075 25.4116 4.48602 25.3446 4.44106 25.2827C4.39612 25.2209 4.27871 25.1156 4.08807 24.9672L3.02038 24.1342C2.69717 23.8819 2.48853 23.6801 2.3948 23.5301C2.30057 23.3793 2.27379 23.2174 2.31396 23.0433C2.33834 22.9376 2.37579 22.8426 2.42708 22.7578L2.92713 22.8732L2.87831 23.0847C2.72423 23.0619 2.63326 23.1079 2.60638 23.2243C2.57038 23.3803 2.66436 23.5536 2.88762 23.744L4.43104 23.429C4.67231 23.3796 4.82575 23.341 4.8914 23.3131C4.95718 23.2846 5.00982 23.2368 5.05024 23.1686L5.14662 23.1909L4.95244 24.0323L4.85603 24.01C4.87088 23.8816 4.8332 23.8066 4.74286 23.7858C4.65914 23.7664 4.52234 23.7758 4.33186 23.8129L3.23556 24.0266L4.05071 24.6279C4.22487 24.7563 4.36119 24.8314 4.45896 24.854C4.57407 24.8805 4.65131 24.8391 4.68999 24.7296L4.78637 24.7519L4.61259 25.5049L4.51618 25.4827Z" fill="white" stroke="white" stroke-width="0.0631579" stroke-miterlimit="22.9256"/>
<path d="M1.83027 25.5039L1.92842 25.5163C1.9419 25.6226 1.96846 25.6918 2.00799 25.7239C2.04823 25.756 2.14473 25.7814 2.29738 25.8008L4.02501 26.0203C4.1913 26.0414 4.29621 26.0389 4.34042 26.0126C4.38384 25.9869 4.42312 25.9282 4.45748 25.8377L4.55563 25.8502L4.32141 27.6937L3.71825 27.617L3.74338 27.4194C3.90728 27.3883 4.02422 27.3512 4.09495 27.3068C4.16506 27.2617 4.20876 27.1738 4.2255 27.0423L4.30265 26.4351L3.29468 26.307C3.28622 26.4991 3.27289 26.6692 3.25438 26.815C3.17755 27.4195 2.88706 27.6894 2.38274 27.6253C1.84366 27.5568 1.61613 27.1892 1.70083 26.5227L1.83027 25.5039ZM3.11477 26.2842L1.94054 26.1349C1.92065 26.2314 1.90265 26.3407 1.88705 26.4633C1.85632 26.7053 1.88474 26.8848 1.97155 27.0025C2.05849 27.1195 2.20587 27.1915 2.4117 27.2176C2.80558 27.2677 3.02929 27.0877 3.08143 26.6774C3.10344 26.5043 3.11452 26.3734 3.11477 26.2842Z" fill="white" stroke="white" stroke-width="0.0631579" stroke-miterlimit="22.9256"/>
<path d="M1.45508 30.6134L1.47661 29.7604L1.57552 29.7629C1.59943 29.8776 1.63685 29.9473 1.68838 29.9733C1.74068 29.9987 1.83516 30.0128 1.97319 30.0163L4.03969 30.0685L4.0538 29.5095C3.70975 29.4726 3.34236 29.409 2.95154 29.3187C2.56078 29.2278 2.25248 29.1362 2.02596 29.0431C1.80017 28.9502 1.65204 28.8571 1.58019 28.7632C1.50901 28.6693 1.47456 28.5653 1.47747 28.4499C1.4804 28.3346 1.49951 28.2306 1.53343 28.1387L1.94 28.1489L1.93501 28.3467C1.83993 28.356 1.79067 28.4022 1.78858 28.4839C1.78707 28.5444 1.8158 28.6035 1.87479 28.6627C1.93375 28.7219 2.07971 28.793 2.3127 28.8751C2.54493 28.958 2.82538 29.0359 3.15204 29.1094C3.47935 29.1823 3.71752 29.2213 3.8679 29.2251C3.9675 29.2276 4.03587 29.2142 4.073 29.1856C4.11084 29.157 4.13553 29.1047 4.14639 29.0287L4.24322 29.0312L4.20147 30.6828L4.10256 30.6803C4.08106 30.5802 4.05036 30.5162 4.00988 30.4869C3.97009 30.4578 3.86809 30.4407 3.70464 30.4366L1.96366 30.3926C1.80434 30.3886 1.70304 30.4005 1.65905 30.4275C1.61575 30.4546 1.58051 30.5169 1.55398 30.6159L1.45508 30.6134Z" fill="white" stroke="white" stroke-width="0.0631579" stroke-miterlimit="22.9256"/>
<path d="M1.63574 32.997L1.73439 32.9895C1.76884 33.0895 1.8087 33.1513 1.85389 33.1747C1.89974 33.1981 1.99937 33.2036 2.15281 33.1919L3.01593 33.1263C3.29818 33.1048 3.47992 33.0938 3.56048 33.0931L3.55984 33.0849L2.06597 32.05C1.90571 32.0622 1.80611 32.0843 1.76651 32.1162C1.72757 32.1481 1.69953 32.2143 1.68298 32.3134L1.58433 32.3209L1.52051 31.4818L1.61916 31.4742C1.65374 31.5756 1.69362 31.6381 1.73884 31.6622C1.78476 31.6863 1.88446 31.6925 2.0379 31.6808L3.77439 31.5487C3.95114 31.5353 4.05601 31.5101 4.08968 31.4724C4.12261 31.4347 4.14671 31.3709 4.16123 31.2809L4.25986 31.2734L4.32368 32.1126L4.22502 32.1201C4.19559 32.0321 4.16152 31.9734 4.12201 31.9433C4.08254 31.9132 3.9765 31.9047 3.8025 31.918L2.91949 31.9851C2.72152 32.0002 2.55409 32.0088 2.41858 32.0115L2.41947 32.0231L3.91331 33.0581C4.0551 33.0473 4.14655 33.0265 4.18694 32.9959C4.22799 32.9652 4.25742 32.8989 4.27647 32.7962L4.37512 32.7887L4.43862 33.6237L4.33997 33.6312C4.31054 33.5432 4.27643 33.4844 4.23696 33.4544C4.19746 33.4243 4.09141 33.4159 3.91741 33.4291L2.18092 33.5612C2.02062 33.5734 1.92102 33.5954 1.88142 33.6273C1.84249 33.6592 1.81448 33.7254 1.7979 33.8245L1.69924 33.832L1.63574 32.997Z" fill="white" stroke="white" stroke-width="0.0631579" stroke-miterlimit="22.9256"/>
<path d="M2.17754 36.3119L2.27395 36.2897C2.39345 36.2057 2.49892 36.1341 2.58949 36.0744L2.95192 35.8364C3.07356 35.7554 3.15962 35.6884 3.2091 35.6339C3.25805 35.5803 3.29061 35.5227 3.30551 35.4622C3.32045 35.4016 3.31751 35.3247 3.29607 35.2317L3.2409 34.9927L2.43027 35.1798C2.27364 35.216 2.17849 35.2527 2.14413 35.2903C2.11044 35.3276 2.09253 35.3967 2.09121 35.4978L1.99479 35.5201L1.80371 34.692L1.90012 34.6697C1.9414 34.754 1.98358 34.8084 2.02663 34.833C2.06901 34.8578 2.17577 34.85 2.34513 34.811L4.04206 34.4193C4.21476 34.3795 4.31465 34.3388 4.34225 34.2965C4.36918 34.2543 4.3834 34.1876 4.38422 34.0965L4.48063 34.0742L4.67171 34.9023L4.5753 34.9245C4.53298 34.8419 4.49045 34.789 4.4469 34.7652C4.40332 34.7414 4.29722 34.749 4.12716 34.7882L3.4089 34.954L3.46328 35.1896C3.48769 35.2953 3.53901 35.3709 3.616 35.4173C3.69362 35.4636 3.87422 35.5037 4.15757 35.537C4.42448 35.5663 4.61578 35.6132 4.73196 35.6766C4.84732 35.7395 4.92778 35.8683 4.97244 36.0617C4.98665 36.1233 4.99063 36.2077 4.98501 36.3148L4.5345 36.4187L4.48969 36.2246C4.61534 36.1794 4.66713 36.1075 4.64443 36.0091C4.63069 35.9496 4.59052 35.9038 4.52439 35.8739C4.45814 35.8434 4.32002 35.8133 4.1103 35.7813C3.93974 35.7572 3.81191 35.7317 3.7281 35.7045C3.64426 35.6773 3.5686 35.6306 3.5025 35.5641L3.48709 35.5676C3.47111 35.7977 3.34656 36.0005 3.11307 36.1771L2.75541 36.4451C2.62328 36.5447 2.53262 36.6284 2.48405 36.6959C2.43551 36.7636 2.4172 36.8524 2.42923 36.9624L2.33282 36.9847L2.17754 36.3119Z" fill="white" stroke="white" stroke-width="0.0631579" stroke-miterlimit="22.9256"/>
<path d="M2.91285 38.9399L3.00654 38.9082C3.04049 38.9677 3.07068 39.0097 3.09619 39.0359C3.12171 39.0621 3.15111 39.0783 3.18351 39.084C3.21616 39.0903 3.255 39.0852 3.3012 39.0696C3.34415 39.055 3.38947 39.0346 3.43605 39.0072C3.48263 38.9799 3.53438 38.9464 3.58984 38.9066L3.8118 38.7524L3.51124 37.8642L3.30247 37.8623C3.19775 37.8615 3.11868 37.8636 3.06724 37.8701C3.01554 37.876 2.96953 37.8858 2.9305 37.899C2.85436 37.9247 2.805 37.9632 2.78243 38.0143C2.75963 38.0648 2.75647 38.1326 2.77248 38.2164L2.67878 38.2482L2.40332 37.434L2.49701 37.4023C2.5321 37.4695 2.59466 37.5173 2.68343 37.546C2.77216 37.5747 2.89175 37.5915 3.04058 37.5963L5.41999 37.6774L5.52196 37.9787L3.61529 39.3462C3.52671 39.4103 3.46027 39.4625 3.41612 39.5035C3.372 39.5446 3.34068 39.5871 3.32262 39.6301C3.30436 39.6726 3.29833 39.7254 3.30402 39.7873L3.21032 39.819L2.91285 38.9399ZM3.69458 37.8594L3.96433 38.6566L5.07158 37.878L3.69458 37.8594Z" fill="white" stroke="white" stroke-width="0.0631579" stroke-miterlimit="22.9256"/>
<path d="M7.27768 42.187L6.78179 42.441L6.69097 42.2636C6.78018 42.1817 6.84394 42.1027 6.88253 42.0274C6.92175 41.9517 6.93947 41.8778 6.93568 41.8057C6.93192 41.7335 6.90877 41.6566 6.86649 41.574C6.80352 41.4511 6.70651 41.3627 6.57539 41.3086C6.44491 41.2543 6.28256 41.2417 6.0905 41.2706C5.89784 41.2998 5.68562 41.3738 5.45267 41.4931C5.21848 41.6131 5.03042 41.7387 4.88851 41.8685C4.74599 41.9986 4.65539 42.1291 4.61642 42.261C4.57771 42.392 4.59129 42.5224 4.65735 42.6514C4.70747 42.7493 4.76257 42.8222 4.82264 42.8702C4.88238 42.9175 4.95334 42.9475 5.03611 42.9584C5.11885 42.9693 5.22877 42.9639 5.36715 42.9416L5.45797 43.119L4.94554 43.3814C4.85797 43.2842 4.7765 43.1809 4.70166 43.071C4.62596 42.9608 4.55254 42.8355 4.48019 42.6943C4.32489 42.391 4.31014 42.1091 4.43636 41.8492C4.56227 41.5887 4.82886 41.3541 5.23607 41.1455C5.49167 41.0146 5.73612 40.9404 5.96977 40.9218C6.20308 40.9042 6.41245 40.9467 6.59778 41.0494C6.78309 41.1521 6.93122 41.3116 7.0427 41.5293C7.09844 41.6382 7.14432 41.7412 7.17966 41.8389C7.21597 41.9369 7.24809 42.0524 7.27768 42.187Z" fill="white" stroke="white" stroke-width="0.0631579" stroke-miterlimit="22.9256"/>
<path d="M5.99078 45.2855L6.07405 45.2321C6.12139 45.2817 6.1608 45.3152 6.19188 45.3344C6.22298 45.3537 6.25541 45.3623 6.28825 45.36C6.32144 45.3583 6.35792 45.3439 6.39897 45.3176C6.43715 45.2931 6.47618 45.2623 6.51477 45.2245C6.55339 45.1867 6.59552 45.1418 6.63973 45.0898L6.8179 44.8866L6.31181 44.0971L6.10876 44.1457C6.00692 44.1702 5.93069 44.1913 5.88234 44.2101C5.83361 44.2283 5.79133 44.2488 5.75662 44.2711C5.68898 44.3145 5.65036 44.3637 5.64079 44.4188C5.63084 44.4733 5.64417 44.5398 5.67992 44.6173L5.59664 44.6707L5.13281 43.9472L5.21609 43.8938C5.26633 43.9505 5.33858 43.9818 5.43164 43.9882C5.52471 43.9946 5.6448 43.9821 5.79038 43.9508L8.11901 43.4551L8.29068 43.7228L6.77056 45.5102C6.70004 45.5937 6.64819 45.6605 6.61525 45.711C6.58235 45.7614 6.5622 45.8102 6.5551 45.8564C6.54761 45.902 6.5545 45.9547 6.57496 46.0134L6.49169 46.0668L5.99078 45.2855ZM6.48859 44.0483L6.94279 44.7567L7.82931 43.7338L6.48859 44.0483Z" fill="white" stroke="white" stroke-width="0.0631579" stroke-miterlimit="22.9256"/>
<path d="M9.45449 45.4729L9.37671 45.5341C9.32978 45.4888 9.28731 45.4637 9.24992 45.4572C9.21253 45.4508 9.1765 45.4616 9.14192 45.4888C9.11224 45.5121 9.08312 45.5507 9.05451 45.6055C9.02596 45.6603 8.99552 45.7305 8.96334 45.8153L8.75915 46.347L9.30272 46.286C9.384 46.2771 9.4477 46.2682 9.4938 46.259C9.53991 46.2499 9.57626 46.2405 9.60392 46.2301C9.63117 46.2192 9.65685 46.2051 9.68006 46.1869C9.71299 46.161 9.73292 46.1296 9.74072 46.0929C9.74858 46.0562 9.7392 46.012 9.71249 45.9613L9.79027 45.9002L10.2517 46.4874L10.1739 46.5485C10.1309 46.5193 10.0849 46.4987 10.036 46.4864C9.98751 46.4748 9.92609 46.4689 9.85207 46.4703C9.77757 46.4711 9.66465 46.4786 9.51278 46.4922L8.67815 46.5697L8.33227 47.4916C8.28338 47.6217 8.24975 47.7146 8.232 47.7687C8.21372 47.8233 8.20065 47.8711 8.19171 47.9131C8.18274 47.9551 8.17886 47.9957 8.17895 48.0358C8.17955 48.0756 8.18757 48.119 8.20292 48.1664L8.12511 48.2275L7.57924 47.5329L7.65705 47.4718C7.70334 47.514 7.74484 47.539 7.78147 47.5478C7.81807 47.5566 7.85549 47.5465 7.89225 47.5176C7.92193 47.4943 7.94842 47.4612 7.9723 47.4171C7.99605 47.3739 8.0221 47.3159 8.04998 47.2424L8.30306 46.5805L7.57005 46.6673C7.44641 46.6823 7.35784 46.7108 7.30437 46.7528C7.26926 46.7804 7.24882 46.8122 7.24153 46.8485C7.2337 46.8853 7.24361 46.929 7.27033 46.9797L7.19252 47.0408L6.72266 46.4429L6.80044 46.3817C6.84234 46.4117 6.8814 46.4325 6.91756 46.4452C6.95372 46.4579 6.99392 46.4656 7.03753 46.4689C7.08117 46.4721 7.1334 46.4731 7.19533 46.4707C7.25631 46.4682 7.36001 46.4601 7.50651 46.4463L8.3821 46.362L8.76556 45.339C8.79995 45.2437 8.82408 45.1733 8.83747 45.1269C8.85073 45.0815 8.85989 45.042 8.86434 45.0088C8.86882 44.9756 8.86914 44.9482 8.86579 44.9273C8.86245 44.9063 8.85588 44.8835 8.84697 44.86L8.92475 44.7988L9.45449 45.4729Z" fill="white" stroke="white" stroke-width="0.0631579" stroke-miterlimit="22.9256"/>
<path d="M9.48957 49.7137L9.56116 49.6454C9.61705 49.6851 9.66212 49.7105 9.69632 49.7234C9.73052 49.7364 9.76399 49.7387 9.79576 49.7302C9.82803 49.7222 9.86109 49.7012 9.8964 49.6675C9.92921 49.6362 9.9617 49.5985 9.9924 49.5541C10.0231 49.5097 10.0559 49.4575 10.0894 49.398L10.2257 49.1646L9.57859 48.4859L9.38848 48.5723C9.29318 48.6157 9.22235 48.6509 9.17845 48.6785C9.13408 48.7057 9.09647 48.7339 9.06666 48.7623C9.00849 48.8178 8.97995 48.8735 8.98102 48.9294C8.98165 48.9848 9.00739 49.0476 9.05725 49.1168L8.98563 49.1851L8.39258 48.5631L8.4642 48.4948C8.52433 48.541 8.60119 48.5579 8.69378 48.5465C8.78637 48.5351 8.90185 48.4999 9.03884 48.4415L11.2306 47.5117L11.4501 47.7419L10.2978 49.7859C10.2445 49.8813 10.2063 49.9567 10.1836 50.0125C10.1609 50.0684 10.1504 50.1201 10.1522 50.1668C10.1535 50.213 10.1703 50.2634 10.2016 50.3171L10.13 50.3854L9.48957 49.7137ZM9.74283 48.4043L10.3235 49.0134L10.9992 47.8405L9.74283 48.4043Z" fill="white" stroke="white" stroke-width="0.0631579" stroke-miterlimit="22.9256"/>
<path d="M12.1183 53.252C11.939 53.1111 11.8134 52.9696 11.7424 52.8265C11.6714 52.6833 11.6474 52.5326 11.6707 52.3717C11.6941 52.2119 11.7607 52.0327 11.8704 51.8341C11.9807 51.6359 12.1542 51.3852 12.3911 51.0837C12.6267 50.784 12.8283 50.5562 12.9961 50.4006C13.1638 50.245 13.3229 50.1359 13.474 50.0737C13.6256 50.012 13.78 49.9979 13.9381 50.0313C14.0958 50.0652 14.2642 50.1521 14.4436 50.2931L14.3417 50.4227C14.2677 50.3646 14.1972 50.3197 14.1308 50.2875C14.0546 50.2521 13.9774 50.2369 13.899 50.2434C13.8117 50.25 13.7193 50.2831 13.6226 50.3416C13.5089 50.4096 13.3803 50.5165 13.2364 50.6629C13.0842 50.8177 12.9027 51.0297 12.6913 51.2987C12.5045 51.5364 12.3538 51.7438 12.2387 51.9225C12.1241 52.1016 12.0441 52.258 11.998 52.3922C11.9581 52.5041 11.9405 52.6021 11.9458 52.6866C11.9507 52.7604 11.9712 52.8299 12.0079 52.8944C12.0501 52.9687 12.1208 53.0443 12.2202 53.1224L12.1183 53.252Z" fill="white" stroke="white" stroke-width="0.0631579" stroke-miterlimit="22.9256"/>
<path d="M14.2405 53.6948L14.2939 53.6115C14.3934 53.6435 14.4661 53.6485 14.512 53.6265C14.5582 53.604 14.6227 53.5277 14.7057 53.3982L15.1024 52.7794L14.9284 52.6678C14.8184 52.5973 14.715 52.5653 14.6183 52.571C14.5216 52.5767 14.3871 52.6414 14.2153 52.7655C13.9669 52.9556 13.7718 53.0957 13.6282 53.1848L13.5748 53.2681L12.9971 52.8977L13.0505 52.8144C13.1399 52.8595 13.2262 52.8724 13.3107 52.8539C13.3952 52.8354 13.5097 52.7791 13.6544 52.6858L13.8473 52.563C14.0802 52.4162 14.2989 52.3613 14.5022 52.3994L14.5141 52.3809C14.2096 52.0437 14.1543 51.7227 14.349 51.4191C14.4965 51.1889 14.6831 51.0735 14.9071 51.0742C15.1319 51.0748 15.404 51.1774 15.7232 51.3821L16.4334 51.8374L16.38 51.9207C16.2807 51.8872 16.2065 51.882 16.1586 51.9059C16.1102 51.9304 16.0448 52.0069 15.9625 52.1353L15.0226 53.6014C14.9307 53.7448 14.8886 53.841 14.8959 53.8906C14.9037 53.9397 14.9394 53.9985 15.0041 54.0669L14.9507 54.1501L14.2405 53.6948ZM15.8162 51.6661C15.7416 51.6093 15.6646 51.555 15.5853 51.5042C15.2048 51.2602 14.9096 51.3019 14.6997 51.6293C14.5952 51.7924 14.5574 51.9403 14.5863 52.0747C14.615 52.2082 14.7686 52.3646 15.0462 52.5426L15.1936 52.6371L15.8162 51.6661Z" fill="white" stroke="white" stroke-width="0.0631579" stroke-miterlimit="22.9256"/>
<path d="M17.1379 55.3984L17.183 55.3104C17.1958 55.1649 17.209 55.0381 17.2217 54.9304L17.2732 54.4998C17.2897 54.3546 17.2938 54.2456 17.2841 54.1727C17.2746 54.1007 17.2516 54.0387 17.2149 53.9883C17.1782 53.9378 17.1175 53.8906 17.0326 53.847L16.8142 53.7352L16.435 54.4757C16.3617 54.6188 16.3285 54.7152 16.3351 54.7657C16.342 54.8155 16.3832 54.8737 16.4597 54.9399L16.4146 55.0279L15.6582 54.6406L15.7033 54.5525C15.7944 54.5752 15.8632 54.578 15.9097 54.561C15.9559 54.5445 16.0188 54.4579 16.0981 54.3031L16.892 52.7531C16.9727 52.5954 17.006 52.4927 16.9914 52.4444C16.9765 52.3966 16.9347 52.3427 16.8655 52.2834L16.9106 52.1953L17.6669 52.5827L17.6218 52.6708C17.5314 52.6499 17.4635 52.6483 17.4172 52.6663C17.371 52.6843 17.3084 52.7703 17.2289 52.9257L16.8928 53.5818L17.1081 53.692C17.2047 53.7415 17.2956 53.751 17.3806 53.722C17.466 53.6924 17.613 53.5801 17.8211 53.3849C18.0155 53.1996 18.1746 53.0835 18.2979 53.0356C18.4204 52.9879 18.5707 53.0093 18.7474 53.0998C18.8037 53.1286 18.8708 53.18 18.949 53.2533L18.7383 53.6648L18.5609 53.574C18.6073 53.4487 18.5857 53.3628 18.4959 53.3168C18.4414 53.2889 18.3806 53.2902 18.3151 53.3215C18.2491 53.3525 18.137 53.4387 17.9775 53.5784C17.8492 53.6933 17.7473 53.7747 17.6725 53.8212C17.5977 53.8679 17.5132 53.8956 17.4197 53.9033L17.4125 53.9174C17.5781 54.0778 17.653 54.3038 17.6376 54.5961L17.6121 55.0423C17.6032 55.2075 17.6087 55.3308 17.6291 55.4115C17.6495 55.4922 17.7057 55.5634 17.7976 55.6251L17.7525 55.7131L17.1379 55.3984Z" fill="white" stroke="white" stroke-width="0.0631579" stroke-miterlimit="22.9256"/>
<path d="M21.4028 54.3245C21.3317 54.3193 21.2618 54.3338 21.1939 54.3691C21.1261 54.4044 21.0045 54.5049 20.8295 54.6715L19.8475 55.6039C19.5502 55.8862 19.3196 56.0626 19.1574 56.1331C18.9944 56.2039 18.8302 56.2064 18.664 56.1409C18.563 56.1011 18.4746 56.05 18.3984 55.9867L18.5866 55.5093L18.7886 55.5889C18.7432 55.7379 18.7752 55.8347 18.8864 55.8785C19.0353 55.9372 19.2206 55.87 19.442 55.6774L19.3592 54.1043C19.3461 53.8584 19.3306 53.7009 19.3128 53.6319C19.2944 53.5626 19.2549 53.5035 19.1934 53.4534L19.2297 53.3613L20.0331 53.6781L19.9968 53.7701C19.872 53.7364 19.7922 53.7625 19.7582 53.8488C19.7267 53.9287 19.7157 54.0654 19.7242 54.2593L19.773 55.3752L20.4885 54.6581C20.6412 54.5049 20.7358 54.3812 20.7726 54.2879C20.8159 54.178 20.7864 54.0954 20.6838 54.041L20.7201 53.9489L21.4391 54.2324L21.4028 54.3245Z" fill="white" stroke="white" stroke-width="0.0631579" stroke-miterlimit="22.9256"/>
<path d="M21.7285 54.3555L23.8235 54.9504L23.632 55.6245L23.4423 55.5706C23.4455 55.4515 23.4426 55.3557 23.4333 55.2831C23.424 55.2104 23.4081 55.1531 23.3866 55.1106C23.3656 55.0689 23.3388 55.0349 23.3077 55.011C23.276 54.987 23.2245 54.9646 23.1538 54.9445L22.908 54.8747L22.345 56.8572C22.3234 56.9333 22.3101 56.9952 22.3059 57.0425C22.3016 57.0906 22.304 57.1298 22.3137 57.1611C22.324 57.1926 22.3413 57.2197 22.3668 57.2433C22.3924 57.2663 22.4351 57.2942 22.494 57.3259L22.467 57.4211L21.582 57.1698L21.6091 57.0746C21.6505 57.0771 21.6877 57.0769 21.7204 57.0748C21.753 57.0733 21.7803 57.0675 21.8038 57.0578C21.8264 57.0485 21.8471 57.0337 21.8662 57.0141C21.8847 56.9943 21.9036 56.9654 21.9223 56.9272C21.9408 56.8896 21.9609 56.8317 21.9828 56.7544L22.5458 54.7718L22.302 54.7026C22.2412 54.6853 22.1892 54.677 22.1471 54.6771C22.104 54.6778 22.0609 54.6912 22.0167 54.7187C21.9725 54.7461 21.9273 54.7897 21.8804 54.8492C21.8333 54.9094 21.7833 54.9873 21.7288 55.084L21.5371 55.0295L21.7285 54.3555Z" fill="white" stroke="white" stroke-width="0.0631579" stroke-miterlimit="22.9256"/>
<path d="M25.3104 58.0556L25.3278 57.9582C25.4333 57.9499 25.503 57.9267 25.537 57.8888C25.5711 57.8503 25.6013 57.7552 25.6284 57.6037L25.7806 56.7515C25.8303 56.4729 25.865 56.2942 25.8846 56.216L25.8765 56.2146L24.501 57.4024C24.4727 57.5606 24.4692 57.6625 24.4903 57.7089C24.5114 57.7545 24.5685 57.7982 24.6603 57.839L24.6429 57.9364L23.8145 57.7885L23.8319 57.6911C23.9387 57.6829 24.0091 57.6599 24.0437 57.6221C24.0785 57.5837 24.1094 57.4887 24.1365 57.3372L24.4427 55.6228C24.4738 55.4484 24.4756 55.3405 24.4475 55.2985C24.4193 55.2572 24.3636 55.2179 24.2801 55.1814L24.2975 55.084L25.1259 55.2319L25.1085 55.3293C25.0159 55.3358 24.9506 55.3541 24.9115 55.3849C24.8726 55.4156 24.8379 55.5162 24.8072 55.688L24.6515 56.5597C24.6166 56.7551 24.5831 56.9194 24.5519 57.0513L24.5633 57.0534L25.9388 55.8656C25.9638 55.7256 25.9666 55.6319 25.947 55.5851C25.9276 55.5377 25.8707 55.4927 25.776 55.4485L25.7934 55.3511L26.6178 55.4984L26.6004 55.5958C26.5078 55.6023 26.4424 55.6206 26.4035 55.6513C26.3645 55.682 26.3298 55.7826 26.2991 55.9544L25.9929 57.6688C25.9647 57.827 25.9611 57.929 25.9821 57.9753C26.0033 58.021 26.0604 58.0647 26.1522 58.1055L26.1348 58.2028L25.3104 58.0556Z" fill="white" stroke="white" stroke-width="0.0631579" stroke-miterlimit="22.9256"/>
<path d="M28.2491 58.354L28.2566 58.2554C28.3594 58.2363 28.4258 58.2062 28.4557 58.1651C28.4858 58.1233 28.5063 58.0256 28.518 57.8722L28.5737 57.1392L28.3675 57.1236C28.2374 57.1137 28.1311 57.1345 28.0487 57.1855C27.9662 57.2363 27.8785 57.3572 27.7861 57.5479C27.6577 57.833 27.5524 58.0489 27.4682 58.1954L27.4607 58.2941L26.7764 58.242L26.7839 58.1434C26.884 58.1407 26.9662 58.1111 27.0317 58.0548C27.0974 57.9984 27.1714 57.8945 27.2545 57.7437L27.3662 57.5441C27.5015 57.3044 27.6681 57.1524 27.8651 57.0895L27.8668 57.0676C27.4388 56.9151 27.2379 56.6587 27.2652 56.2991C27.2859 56.0264 27.3955 55.8363 27.5929 55.7308C27.7912 55.6246 28.0794 55.5859 28.4575 55.6147L29.2987 55.6786L29.2912 55.7773C29.1879 55.7949 29.1201 55.8256 29.0892 55.8694C29.0582 55.9139 29.037 56.0122 29.0254 56.1643L28.8934 57.9008C28.8804 58.0707 28.889 58.1753 28.9191 58.2155C28.9491 58.255 29.0085 58.2898 29.0978 58.3193L29.0903 58.418L28.2491 58.354ZM28.674 55.8206C28.5814 55.806 28.4879 55.7947 28.394 55.7876C27.9433 55.7533 27.7032 55.93 27.6737 56.3178C27.659 56.5109 27.6959 56.6591 27.7852 56.7637C27.8737 56.8676 28.083 56.9324 28.4118 56.9575L28.5865 56.9708L28.674 55.8206Z" fill="white" stroke="white" stroke-width="0.0631579" stroke-miterlimit="22.9256"/>
<path d="M29.7256 55.5573C29.9536 55.5516 30.1406 55.5812 30.2866 55.6456C30.4325 55.7106 30.5478 55.8121 30.6316 55.9502C30.7155 56.0883 30.7786 56.2688 30.8206 56.4918C30.862 56.7147 30.8882 57.0185 30.8979 57.4017C30.9075 57.7829 30.8974 58.0869 30.8673 58.3137C30.8374 58.5406 30.7843 58.7261 30.7075 58.8703C30.6301 59.0145 30.5202 59.1245 30.3771 59.1989C30.2339 59.274 30.0487 59.3137 29.8207 59.3195L29.8166 59.1547C29.9106 59.1523 29.9935 59.1419 30.0653 59.1243C30.1465 59.1037 30.2156 59.0655 30.272 59.0105C30.335 58.9498 30.3851 58.8661 30.4223 58.7586C30.4666 58.6345 30.4974 58.4695 30.515 58.2656C30.5335 58.0487 30.5388 57.7695 30.5302 57.4275C30.5226 57.1253 30.5058 56.8695 30.4805 56.6584C30.4546 56.4481 30.4166 56.2759 30.3665 56.1431C30.3258 56.0315 30.2769 55.9448 30.219 55.883C30.1682 55.8293 30.1081 55.7889 30.0387 55.7625C29.9589 55.7329 29.8561 55.719 29.7298 55.7222L29.7256 55.5573Z" fill="white" stroke="white" stroke-width="0.0631579" stroke-miterlimit="22.9256"/>
<path d="M34.7587 57.444C34.6417 57.465 34.5328 57.4572 34.4329 57.4213C34.333 57.3854 34.2503 57.3248 34.1837 57.2411C34.1177 57.1566 34.0747 57.0568 34.0542 56.9418C34.0349 56.8336 34.0428 56.7296 34.0786 56.629C34.1144 56.5284 34.1751 56.4429 34.2595 56.3719C34.3445 56.301 34.4445 56.2552 34.5595 56.2347C34.6771 56.2136 34.7851 56.2202 34.8848 56.2547C34.9844 56.2893 35.0668 56.3478 35.1318 56.4304C35.1974 56.5129 35.2403 56.612 35.2611 56.7283C35.2816 56.8433 35.2737 56.9515 35.2382 57.0534C35.2026 57.1554 35.1425 57.2408 35.0592 57.3095C34.9751 57.3782 34.875 57.4233 34.7587 57.444Z" fill="white"/>
<path d="M34.7587 57.444C34.6417 57.465 34.5328 57.4572 34.4329 57.4213C34.333 57.3854 34.2503 57.3248 34.1837 57.2411C34.1177 57.1566 34.0747 57.0568 34.0542 56.9418C34.0349 56.8336 34.0428 56.7296 34.0786 56.629C34.1144 56.5284 34.1751 56.4429 34.2595 56.3719C34.3445 56.301 34.4445 56.2552 34.5595 56.2347C34.6771 56.2136 34.7851 56.2202 34.8848 56.2547C34.9844 56.2893 35.0668 56.3478 35.1318 56.4304C35.1974 56.5129 35.2403 56.612 35.2611 56.7283C35.2816 56.8433 35.2737 56.9515 35.2382 57.0534C35.2026 57.1554 35.1425 57.2408 35.0592 57.3095C34.9751 57.3782 34.875 57.4233 34.7587 57.444Z" stroke="white" stroke-width="0.0631579" stroke-miterlimit="22.9256"/>
<path d="M39.559 53.9082L39.7376 54.436L39.5489 54.4998C39.4809 54.3995 39.4121 54.3249 39.3432 54.2757C39.2741 54.2258 39.2036 54.1975 39.1317 54.1906C39.0597 54.1838 38.9803 54.1954 38.8924 54.2252C38.7616 54.2694 38.6599 54.3524 38.5872 54.4742C38.5143 54.5953 38.4781 54.7541 38.4786 54.9483C38.4792 55.1432 38.5213 55.3639 38.6052 55.6118C38.6895 55.8611 38.7862 56.0655 38.8938 56.2249C39.0017 56.385 39.1175 56.4937 39.2423 56.5516C39.3661 56.6091 39.4972 56.6147 39.6345 56.5683C39.7386 56.5331 39.8188 56.4892 39.8751 56.4369C39.9306 56.3847 39.9708 56.3189 39.9936 56.2386C40.0165 56.1584 40.0273 56.0488 40.0256 55.9087L40.2143 55.8448L40.3988 56.3902C40.2899 56.4626 40.1757 56.528 40.056 56.5859C39.936 56.6447 39.8013 56.699 39.651 56.7498C39.3282 56.859 39.0472 56.8323 38.8086 56.6693C38.5692 56.5066 38.3763 56.2086 38.2296 55.7752C38.1376 55.5032 38.1 55.2505 38.1158 55.0166C38.1326 54.7833 38.2054 54.5824 38.334 54.4141C38.4628 54.2458 38.6424 54.1227 38.874 54.0443C38.9898 54.0051 39.0985 53.9748 39.2004 53.9542C39.3026 53.9326 39.4216 53.9177 39.559 53.9082Z" fill="white" stroke="white" stroke-width="0.0631579" stroke-miterlimit="22.9256"/>
<path d="M42.4107 55.5608L42.37 55.4706C42.426 55.431 42.4648 55.3968 42.4883 55.3688C42.5119 55.3409 42.5251 55.31 42.5276 55.2772C42.5307 55.2441 42.5218 55.206 42.5017 55.1615C42.483 55.1202 42.4582 55.0771 42.4264 55.0334C42.3946 54.9898 42.3562 54.9416 42.3112 54.8903L42.1359 54.6845L41.2815 55.0708L41.3001 55.2788C41.3096 55.3831 41.3194 55.4616 41.331 55.5122C41.3419 55.563 41.3561 55.6078 41.3731 55.6454C41.4062 55.7186 41.4493 55.7639 41.5025 55.7814C41.5549 55.7991 41.6227 55.7956 41.7046 55.7714L41.7453 55.8616L40.9622 56.2157L40.9214 56.1255C40.9849 56.084 41.0262 56.0171 41.0461 55.9259C41.0659 55.8348 41.0709 55.7141 41.0611 55.5656L40.9082 53.1896L41.198 53.0586L42.7461 54.8218C42.8186 54.9037 42.8771 54.9646 42.9222 55.0046C42.9674 55.0444 43.0128 55.0714 43.0574 55.0852C43.1015 55.0992 43.1546 55.1 43.2156 55.0883L43.2564 55.1784L42.4107 55.5608ZM41.2588 54.8888L42.0256 54.5421L41.142 53.5167L41.2588 54.8888Z" fill="white" stroke="white" stroke-width="0.0631579" stroke-miterlimit="22.9256"/>
<path d="M43.0626 52.0787L43.1119 52.1644C43.0604 52.2044 43.0294 52.2428 43.0176 52.2789C43.0059 52.3149 43.0115 52.3522 43.0334 52.3903C43.0522 52.423 43.0862 52.4574 43.1363 52.4935C43.1864 52.5297 43.2515 52.5699 43.3307 52.6139L43.8276 52.8924L43.8454 52.3457C43.8483 52.264 43.8486 52.1997 43.8461 52.1528C43.8437 52.1058 43.8397 52.0685 43.8334 52.0396C43.8265 52.0111 43.8163 51.9837 43.8016 51.9581C43.7807 51.9217 43.7525 51.8975 43.7173 51.8845C43.6821 51.8715 43.637 51.8744 43.583 51.8936L43.5337 51.8078L44.1811 51.4355L44.2304 51.5213C44.1953 51.5597 44.1683 51.6022 44.1491 51.6489C44.1306 51.6952 44.116 51.7551 44.1067 51.8286C44.0969 51.9024 44.088 52.0152 44.0796 52.1675L44.0364 53.0046L44.899 53.4794C45.0207 53.5465 45.1078 53.5931 45.1588 53.6184C45.2102 53.6444 45.2557 53.6642 45.2959 53.6791C45.3362 53.694 45.3758 53.7037 45.4155 53.7094C45.4549 53.7144 45.4991 53.7128 45.5482 53.7044L45.5975 53.7902L44.8316 54.2305L44.7823 54.1448C44.8308 54.105 44.8615 54.0675 44.8755 54.0325C44.8895 53.9976 44.8847 53.9591 44.8615 53.9186C44.8426 53.8858 44.8137 53.8549 44.7735 53.8249C44.7342 53.7952 44.6806 53.7611 44.6118 53.7229L43.9931 53.3773L43.9737 54.1152C43.9708 54.2397 43.9862 54.3315 44.0201 54.3904C44.0424 54.4291 44.0709 54.4539 44.1058 54.4664C44.1411 54.4794 44.1858 54.4759 44.2397 54.4567L44.289 54.5425L43.6298 54.9216L43.5805 54.8358C43.6162 54.7986 43.6424 54.763 43.6601 54.729C43.6778 54.695 43.6913 54.6564 43.7008 54.6137C43.7103 54.571 43.7187 54.5194 43.7253 54.4578C43.7316 54.3971 43.7384 54.2933 43.7459 54.1463L43.7883 53.2677L42.831 52.7412C42.7417 52.6935 42.6754 52.6595 42.6315 52.6396C42.5885 52.6199 42.5507 52.6052 42.5185 52.596C42.4862 52.5868 42.4592 52.5825 42.438 52.5828C42.4168 52.5831 42.3933 52.5863 42.3687 52.5918L42.3193 52.506L43.0626 52.0787Z" fill="white" stroke="white" stroke-width="0.0631579" stroke-miterlimit="22.9256"/>
<path d="M47.2049 52.6128L47.1476 52.5322C47.1949 52.4825 47.2264 52.4416 47.2442 52.4096C47.2619 52.3776 47.2689 52.3448 47.265 52.3121C47.2617 52.279 47.2456 52.2433 47.2174 52.2036C47.1911 52.1666 47.1585 52.1291 47.1189 52.0923C47.0792 52.0556 47.0323 52.0157 46.9783 51.974L46.7667 51.8058L46.0025 52.3492L46.0608 52.5497C46.0901 52.6503 46.1149 52.7254 46.1359 52.7728C46.1565 52.8206 46.1791 52.8618 46.2029 52.8954C46.2495 52.9609 46.3005 52.9971 46.3561 53.004C46.4109 53.0113 46.4768 52.9948 46.5524 52.9554L46.6098 53.036L45.9094 53.5341L45.8521 53.4535C45.9063 53.4005 45.934 53.3269 45.936 53.2336C45.9379 53.1404 45.9196 53.021 45.8814 52.8771L45.2744 50.575L45.5336 50.3906L47.3919 51.8232C47.4788 51.8896 47.5479 51.9382 47.5999 51.9686C47.6519 51.9991 47.7016 52.0168 47.7481 52.0217C47.794 52.027 47.8463 52.0176 47.9039 51.9943L47.9613 52.075L47.2049 52.6128ZM45.9452 52.175L46.631 51.6873L45.5668 50.8509L45.9452 52.175Z" fill="white" stroke="white" stroke-width="0.0631579" stroke-miterlimit="22.9256"/>
<path d="M50.2652 49.8883C50.0191 50.1464 49.7488 50.2607 49.4565 50.2307C49.1633 50.2008 48.8516 50.028 48.5214 49.7132C48.3564 49.5558 48.2263 49.4005 48.1323 49.2463C48.0377 49.0925 47.9806 48.9355 47.9592 48.7747C47.9384 48.6134 47.9537 48.4619 48.0047 48.3188C48.0557 48.1757 48.141 48.0415 48.2595 47.9172C48.5122 47.6522 48.7853 47.5339 49.0785 47.5629C49.3722 47.5913 49.6814 47.7608 50.0066 48.0708C50.1746 48.2311 50.3067 48.3883 50.4022 48.5439C50.4983 48.6991 50.5569 48.8566 50.5787 49.0169C50.601 49.1767 50.5847 49.3292 50.5313 49.4748C50.478 49.6204 50.3894 49.758 50.2652 49.8883ZM48.6581 49.2872L49.6261 48.2719C49.496 48.1574 49.371 48.0676 49.2513 48.0029C49.1322 47.9377 49.0189 47.8962 48.9136 47.8792C48.8077 47.8619 48.7092 47.8676 48.6191 47.8965C48.5284 47.9249 48.448 47.9763 48.3778 48.0499C48.2261 48.2091 48.1712 48.3921 48.2135 48.5995C48.2559 48.807 48.4038 49.0362 48.6581 49.2872ZM49.7854 48.4133L48.8107 49.4357C49.1015 49.7091 49.36 49.8691 49.5875 49.9152C49.815 49.9613 50.0084 49.9008 50.1672 49.7342C50.2455 49.6522 50.2958 49.5616 50.3196 49.4619C50.3435 49.3622 50.338 49.2544 50.3042 49.1386C50.2703 49.0228 50.2102 48.9057 50.1238 48.7882C50.0374 48.6707 49.9266 48.548 49.7914 48.4191L49.7854 48.4133Z" fill="white" stroke="white" stroke-width="0.0631579" stroke-miterlimit="22.9256"/>
<path d="M51.5697 47.6065C51.6318 47.6553 51.6841 47.6911 51.7263 47.7129C51.7691 47.7352 51.8063 47.7478 51.8394 47.7502C51.8721 47.7532 51.9041 47.7469 51.9356 47.7323C51.9666 47.7174 52.0082 47.6889 52.0603 47.646L52.1381 47.7071L51.5917 48.4023L51.514 48.3411C51.549 48.2621 51.565 48.2039 51.5614 48.1652C51.5582 48.1269 51.5405 48.0894 51.5078 48.0532C51.4755 48.0165 51.4197 47.9674 51.3419 47.9063L49.9727 46.8302C49.9003 46.7733 49.8447 46.734 49.8079 46.713C49.7702 46.6921 49.738 46.6807 49.7093 46.6783C49.6816 46.6758 49.6543 46.6805 49.6272 46.6916C49.6007 46.7031 49.5611 46.7279 49.5095 46.7659L49.4316 46.7048L50.0489 45.9194C50.2428 45.6725 50.4342 45.5258 50.6238 45.4791C50.813 45.4329 51.0042 45.4853 51.197 45.6369C51.3072 45.7235 51.3906 45.8196 51.4485 45.9262C51.5058 46.0333 51.5356 46.1432 51.5371 46.2571C51.5379 46.3705 51.5139 46.4844 51.463 46.5982C51.4126 46.7123 51.3465 46.822 51.2646 46.9263C51.1725 47.0435 51.099 47.1325 51.0442 47.1934L51.5697 47.6065ZM50.9129 47.0903L51.0572 46.9066C51.151 46.7872 51.2126 46.6766 51.2425 46.5752C51.2723 46.4728 51.2671 46.3726 51.227 46.2747C51.1875 46.1772 51.1074 46.0811 50.9886 45.9877C50.8978 45.9164 50.8129 45.8689 50.7327 45.8452C50.6531 45.822 50.5782 45.8173 50.5074 45.8306C50.4371 45.8444 50.3709 45.8754 50.3089 45.9219C50.2476 45.9689 50.1895 46.0273 50.1347 46.097C50.0524 46.2018 49.993 46.2817 49.9557 46.3381L50.9129 47.0903Z" fill="white" stroke="white" stroke-width="0.0631579" stroke-miterlimit="22.9256"/>
<path d="M53.8556 45.3994C53.6632 45.6995 53.4195 45.8632 53.1269 45.8894C52.8333 45.9158 52.4944 45.8054 52.1104 45.5592C51.9184 45.4362 51.7612 45.3084 51.6395 45.1749C51.5174 45.042 51.4315 44.8987 51.3799 44.7449C51.3287 44.5905 51.315 44.4389 51.3378 44.2887C51.3607 44.1385 51.4188 43.9905 51.5115 43.8459C51.7091 43.5377 51.9548 43.3696 52.2482 43.3422C52.5419 43.3143 52.8777 43.4218 53.2559 43.6643C53.4514 43.7896 53.6109 43.9188 53.7344 44.0534C53.8581 44.1875 53.9457 44.331 53.9976 44.4842C54.0499 44.6369 54.0629 44.7896 54.0382 44.9428C54.0135 45.0958 53.9528 45.2478 53.8556 45.3994ZM52.1635 45.115L52.9206 43.9341C52.7712 43.8464 52.6313 43.782 52.5015 43.7413C52.3721 43.7 52.2531 43.6808 52.1464 43.6842C52.0392 43.6873 51.9436 43.7117 51.8606 43.7571C51.7769 43.8023 51.7078 43.8681 51.6529 43.9537C51.5342 44.1388 51.5152 44.3289 51.5962 44.5245C51.6773 44.7201 51.8661 44.9171 52.1635 45.115ZM53.104 44.0426L52.3416 45.2317C52.6791 45.4448 52.9633 45.5527 53.1955 45.5547C53.4276 45.5566 53.606 45.4604 53.7302 45.2667C53.7914 45.1713 53.8235 45.0727 53.828 44.9703C53.8324 44.8679 53.8065 44.7632 53.7512 44.6559C53.696 44.5487 53.6147 44.4451 53.5075 44.3462C53.4003 44.2473 53.2682 44.148 53.1109 44.0471L53.104 44.0426Z" fill="white" stroke="white" stroke-width="0.0631579" stroke-miterlimit="22.9256"/>
<path d="M53.3354 40.8008L53.8313 41.0548L53.7405 41.2321C53.6219 41.2076 53.5205 41.202 53.4368 41.2147C53.3525 41.2271 53.2822 41.2559 53.2258 41.3012C53.1695 41.3464 53.1206 41.4101 53.0783 41.4927C53.0154 41.6156 53.0003 41.746 53.0331 41.884C53.0652 42.0216 53.1499 42.1607 53.2856 42.2996C53.4219 42.4389 53.6059 42.5679 53.8389 42.6872C54.0731 42.8072 54.2849 42.8863 54.4732 42.9257C54.6621 42.9653 54.821 42.9625 54.9507 42.917C55.0796 42.872 55.1775 42.7847 55.2436 42.6557C55.2937 42.5578 55.3207 42.4705 55.3245 42.3938C55.328 42.3176 55.3109 42.2425 55.2714 42.1689C55.2319 42.0955 55.1632 42.0094 55.0643 41.9101L55.1551 41.7328L55.6676 41.9952C55.6399 42.1231 55.6036 42.2496 55.5582 42.3746C55.513 42.5004 55.4543 42.6331 55.3819 42.7744C55.2266 43.0777 55.0065 43.2543 54.7218 43.3038C54.4368 43.3539 54.0907 43.2747 53.6834 43.0661C53.4278 42.9352 53.2247 42.7802 53.0731 42.6015C52.9225 42.4224 52.8346 42.2277 52.8096 42.0173C52.7846 41.8069 52.8276 41.5935 52.9391 41.3758C52.9948 41.2669 53.0516 41.1695 53.1103 41.0837C53.1685 40.997 53.2435 40.9034 53.3354 40.8008Z" fill="white" stroke="white" stroke-width="0.0631579" stroke-miterlimit="22.9256"/>
<path d="M54.3443 38.1387L54.4363 38.175C54.4258 38.2521 54.4265 38.3084 54.4374 38.3445C54.4483 38.3805 54.4736 38.4119 54.5136 38.4395C54.5531 38.4669 54.6242 38.5001 54.7264 38.5404L56.3465 39.1792C56.4188 39.2077 56.4738 39.2271 56.5109 39.2381C56.5488 39.2486 56.5801 39.2536 56.606 39.2534C56.631 39.2537 56.6532 39.2498 56.6717 39.2424C56.6905 39.2358 56.7097 39.2227 56.7303 39.2042C56.7503 39.1855 56.7765 39.1545 56.808 39.11L56.9001 39.1463L56.5899 39.9331L56.4978 39.8968C56.5075 39.8216 56.5075 39.7655 56.4972 39.7296C56.4864 39.6936 56.4617 39.6625 56.4219 39.6342C56.3827 39.6062 56.3113 39.5721 56.2077 39.5313L54.2923 38.7761L53.901 39.7687L55.8164 40.5239C55.8995 40.5566 55.9621 40.5776 56.0031 40.5879C56.0437 40.5973 56.0782 40.5998 56.1056 40.5958C56.1332 40.5912 56.1599 40.5796 56.1848 40.5598C56.2102 40.5403 56.2412 40.5046 56.2786 40.4528L56.3706 40.4891L56.0597 41.2778L55.9677 41.2415C55.9786 41.1557 55.9773 41.0954 55.9627 41.0593C55.9487 41.0236 55.921 40.9927 55.8793 40.9674C55.8378 40.9415 55.7703 40.9104 55.6783 40.8741L54.0582 40.2354C53.9725 40.2016 53.908 40.1798 53.8667 40.1702C53.8246 40.161 53.7905 40.1593 53.7623 40.1653C53.7351 40.1707 53.7103 40.1831 53.6875 40.2015C53.6654 40.2201 53.6346 40.2552 53.596 40.3064L53.5039 40.2701L54.3443 38.1387Z" fill="white" stroke="white" stroke-width="0.0631579" stroke-miterlimit="22.9256"/>
<path d="M56.2082 37.2867L55.0633 37.5387C54.9253 37.5694 54.8255 37.5939 54.7643 37.613C54.7032 37.6321 54.6527 37.6541 54.6135 37.6787C54.5742 37.704 54.5414 37.7368 54.5151 37.7765L54.4199 37.7495L54.6541 36.9247L54.7493 36.9517C54.7287 37.0773 54.7636 37.1529 54.8541 37.1786C54.8911 37.1891 54.9361 37.1919 54.9872 37.1878C55.039 37.184 55.1134 37.1708 55.2114 37.1501L56.0589 36.9723L55.4938 36.3997C55.4166 36.3221 55.3516 36.2643 55.299 36.2258C55.2468 36.1882 55.1956 36.1622 55.1467 36.1483C55.0998 36.135 55.0595 36.1386 55.0252 36.1588C54.9908 36.1791 54.9634 36.2155 54.9433 36.2684L54.8482 36.2414L55.0565 35.5078L55.1517 35.5348C55.1558 35.5932 55.1691 35.6469 55.192 35.697C55.2151 35.7464 55.2498 35.8005 55.2963 35.858C55.3419 35.916 55.4233 36.004 55.5385 36.1239L56.3037 36.9225L56.9309 37.1006C57.0043 37.1215 57.0648 37.1344 57.112 37.1392C57.1597 37.1449 57.1992 37.1418 57.2313 37.1317C57.2635 37.1215 57.2922 37.1032 57.3159 37.0778C57.3393 37.0531 57.3678 37.0104 57.3995 36.9516L57.4947 36.9787L57.2436 37.8629L57.1484 37.8359C57.1533 37.7708 57.1526 37.7206 57.1459 37.6866C57.1398 37.6527 57.1254 37.6229 57.1026 37.5972C57.08 37.5715 57.0474 37.5479 57.0042 37.5264C56.9617 37.505 56.9027 37.484 56.828 37.4628L56.2082 37.2867Z" fill="white" stroke="white" stroke-width="0.0631579" stroke-miterlimit="22.9256"/>
<path d="M56.781 34.7801L55.6669 35.145C55.5327 35.1894 55.4358 35.2238 55.3769 35.2488C55.318 35.2739 55.2699 35.3009 55.2334 35.3293C55.1969 35.3584 55.1674 35.3943 55.1452 35.4364L55.0479 35.419L55.1986 34.5749L55.296 34.5923C55.2879 34.7193 55.3303 34.7911 55.4229 34.8076C55.4608 34.8144 55.5057 34.8127 55.5562 34.8035C55.6074 34.7945 55.6801 34.774 55.7756 34.7436L56.6011 34.4821L55.9817 33.9688C55.8971 33.8993 55.8266 33.8483 55.7704 33.8152C55.7148 33.7829 55.6612 33.7622 55.6112 33.7533C55.5632 33.7447 55.5235 33.7523 55.4913 33.7758C55.4592 33.7994 55.4355 33.8385 55.4209 33.8931L55.3234 33.8757L55.4575 33.125L55.5549 33.1424C55.5649 33.2 55.5835 33.2522 55.6113 33.2997C55.6392 33.3466 55.679 33.3969 55.7311 33.4495C55.7823 33.5026 55.8721 33.5821 55.9987 33.6899L56.8397 34.4082L57.4815 34.5228C57.5566 34.5362 57.6182 34.543 57.6656 34.5431C57.7136 34.544 57.7526 34.537 57.7835 34.5237C57.8145 34.5104 57.8413 34.4893 57.8623 34.4617C57.8832 34.4347 57.9073 34.3895 57.933 34.3277L58.0304 34.3451L57.8688 35.25L57.7713 35.2326C57.7698 35.1674 57.764 35.1175 57.7539 35.0843C57.7444 35.0513 57.7271 35.023 57.702 34.9997C57.6769 34.9764 57.6421 34.9562 57.597 34.9391C57.5526 34.9221 57.4917 34.907 57.4153 34.8934L56.781 34.7801Z" fill="white" stroke="white" stroke-width="0.0631579" stroke-miterlimit="22.9256"/>
<path d="M58.212 33.0162L58.1134 33.0087C58.0946 32.9032 58.0645 32.8355 58.0234 32.8055C57.9816 32.7754 57.884 32.7549 57.7306 32.7432L55.994 32.6112C55.8269 32.5985 55.7223 32.6063 55.6794 32.6348C55.6373 32.6626 55.6011 32.7232 55.5713 32.8154L55.4727 32.8078L55.6136 30.9548L56.2198 31.001L56.2047 31.1996C56.0426 31.239 55.9277 31.2819 55.8593 31.3298C55.7915 31.3784 55.7523 31.4684 55.7422 31.6006L55.6958 32.2109L56.709 32.288C56.7077 32.0957 56.7124 31.9252 56.7236 31.7786C56.7698 31.171 57.0463 30.8868 57.5532 30.9253C58.0951 30.9665 58.3409 31.3221 58.2899 31.9921L58.212 33.0162ZM56.8898 32.3017L58.0701 32.3915C58.0851 32.2941 58.0976 32.1841 58.1069 32.0608C58.1254 31.8177 58.088 31.6398 57.9953 31.5267C57.9026 31.4142 57.7518 31.3497 57.5449 31.334C57.149 31.3038 56.9346 31.4949 56.9032 31.9073C56.89 32.0813 56.8856 32.2125 56.8898 32.3017Z" fill="white" stroke="white" stroke-width="0.0631579" stroke-miterlimit="22.9256"/>
<path d="M57.2107 29.4756L56.1925 30.0566C56.0699 30.1271 55.9819 30.1801 55.9292 30.2165C55.8765 30.2529 55.8348 30.289 55.8048 30.3241C55.7748 30.3599 55.7531 30.401 55.7399 30.4467L55.641 30.4492L55.6193 29.5921L55.7182 29.5896C55.7358 29.7156 55.7916 29.7774 55.8858 29.7751C55.9242 29.7741 55.9679 29.7634 56.0155 29.7443C56.0638 29.7252 56.131 29.6905 56.2184 29.6416L56.9747 29.2197L56.2648 28.8412C56.168 28.79 56.0888 28.7542 56.0271 28.7331C55.9661 28.7126 55.9095 28.7031 55.8587 28.7044C55.8099 28.7056 55.7725 28.721 55.7457 28.7505C55.719 28.7801 55.7036 28.8231 55.7002 28.8795L55.6013 28.882L55.582 28.1197L55.6809 28.1172C55.7023 28.1716 55.7309 28.219 55.7677 28.26C55.8044 28.3003 55.8536 28.3417 55.9151 28.3827C55.9759 28.4245 56.0799 28.4844 56.2255 28.5645L57.1936 29.0995L57.8453 29.083C57.9216 29.081 57.9833 29.0754 58.0298 29.0659C58.077 29.0572 58.1137 29.0425 58.1414 29.0233C58.1691 29.004 58.1911 28.978 58.2061 28.9467C58.2212 28.9161 58.2357 28.8669 58.2485 28.8013L58.3474 28.7988L58.3706 29.7177L58.2717 29.7202C58.2571 29.6567 58.2414 29.6089 58.2248 29.5785C58.2089 29.548 58.1863 29.5238 58.157 29.506C58.1277 29.4882 58.0896 29.4754 58.042 29.4677C57.9951 29.4599 57.9325 29.4573 57.8549 29.4593L57.2107 29.4756Z" fill="white" stroke="white" stroke-width="0.0631579" stroke-miterlimit="22.9256"/>
<path d="M57.9773 25.168L58.0849 26.0144L57.9867 26.0269C57.9458 25.9171 57.8983 25.8539 57.8434 25.8359C57.7878 25.8187 57.6923 25.8191 57.5554 25.8365L55.5047 26.0971L55.5752 26.6518C55.9209 26.6363 56.2936 26.6437 56.6936 26.6738C57.0936 26.7047 57.4122 26.7487 57.6502 26.8064C57.8875 26.8643 58.0479 26.9339 58.1332 27.0158C58.2177 27.0979 58.2675 27.1955 58.282 27.3099C58.2966 27.4244 58.2934 27.5301 58.2737 27.6261L57.8703 27.6774L57.8453 27.4811C57.9379 27.4576 57.9796 27.4045 57.9694 27.3234C57.9617 27.2634 57.9244 27.2093 57.8571 27.1597C57.7899 27.11 57.6349 27.0619 57.3922 27.0158C57.1501 26.969 56.8611 26.9344 56.5271 26.9111C56.1925 26.8885 55.9512 26.8859 55.8019 26.9049C55.7031 26.9174 55.6376 26.941 55.6052 26.9749C55.5721 27.0089 55.5555 27.0643 55.5563 27.1411L55.4602 27.1533L55.252 25.5142L55.3501 25.5018C55.3865 25.5975 55.4265 25.6562 55.471 25.6789C55.5147 25.7018 55.6181 25.7032 55.7803 25.6826L57.5079 25.4631C57.666 25.443 57.7644 25.4159 57.8038 25.3825C57.8425 25.3492 57.8679 25.2823 57.8792 25.1804L57.9773 25.168Z" fill="white" stroke="white" stroke-width="0.0631579" stroke-miterlimit="22.9256"/>
<path d="M56.5272 23.8763L55.646 24.6494C55.5399 24.7429 55.4643 24.8126 55.42 24.8587C55.3757 24.9049 55.342 24.9486 55.3196 24.989C55.2974 25.0302 55.2844 25.0747 55.2806 25.1222L55.1842 25.1444L54.9914 24.309L55.0878 24.2868C55.1303 24.4067 55.1973 24.4561 55.2891 24.4349C55.3265 24.4262 55.3672 24.407 55.4101 24.3788C55.4536 24.3504 55.5124 24.303 55.5883 24.2375L56.2448 23.6729L55.4735 23.444C55.3684 23.4133 55.2836 23.3941 55.219 23.3858C55.1551 23.3779 55.0977 23.3799 55.0482 23.3913C55.0007 23.4023 54.9671 23.4248 54.9468 23.4591C54.9265 23.4934 54.9201 23.5386 54.928 23.5946L54.8316 23.6168L54.6602 22.8738L54.7566 22.8516C54.7883 22.9007 54.8259 22.9413 54.8702 22.9741C54.9142 23.0063 54.9706 23.0369 55.0392 23.0648C55.1071 23.0936 55.2209 23.1315 55.3797 23.1809L56.4352 23.5112L57.0705 23.3646C57.1448 23.3474 57.2041 23.3295 57.2477 23.3109C57.2922 23.2929 57.3253 23.2712 57.3486 23.2468C57.3718 23.2224 57.3882 23.1925 57.3967 23.1588C57.4052 23.1258 57.4097 23.0748 57.4091 23.0079L57.5055 22.9857L57.7122 23.8814L57.6158 23.9036C57.5887 23.8442 57.5638 23.8006 57.5415 23.7741C57.5198 23.7474 57.4928 23.7282 57.4605 23.7166C57.4282 23.705 57.3883 23.7002 57.3401 23.7021C57.2926 23.7039 57.2307 23.7139 57.1551 23.7314L56.5272 23.8763Z" fill="white" stroke="white" stroke-width="0.0631579" stroke-miterlimit="22.9256"/>
<path d="M56.5917 20.1189L56.498 20.1506C56.3874 20.246 56.2896 20.3277 56.2054 20.3961L55.8684 20.6689C55.7554 20.7616 55.6764 20.8369 55.6326 20.8959C55.5892 20.9541 55.5625 21.0146 55.5537 21.0764C55.5448 21.1381 55.5554 21.2143 55.586 21.3048L55.6646 21.5371L56.4527 21.2705C56.6049 21.2189 56.6959 21.1729 56.7264 21.1321C56.7562 21.0916 56.7672 21.0211 56.7584 20.9204L56.8522 20.8887L57.1246 21.6937L57.0308 21.7254C56.9814 21.6456 56.934 21.5957 56.8887 21.5755C56.8441 21.555 56.7386 21.5733 56.574 21.629L54.9243 22.1872C54.7564 22.244 54.6611 22.2944 54.6378 22.3393C54.6152 22.3839 54.6077 22.4517 54.6159 22.5425L54.5222 22.5742L54.2498 21.7692L54.3436 21.7375C54.3939 21.8155 54.4414 21.864 54.4872 21.8833C54.5329 21.9026 54.6377 21.8846 54.803 21.8287L55.5013 21.5924L55.4238 21.3633C55.389 21.2605 55.3304 21.1904 55.2492 21.1519C55.1674 21.1135 54.9837 21.0916 54.6984 21.0866C54.4299 21.0839 54.2349 21.0563 54.113 21.0047C53.992 20.9536 53.8991 20.8334 53.8355 20.6453C53.8152 20.5855 53.8029 20.5019 53.7979 20.3948L54.2358 20.2466L54.2996 20.4353C54.1791 20.4928 54.1347 20.5694 54.1671 20.6651C54.1867 20.723 54.2311 20.7645 54.3 20.7877C54.3689 20.8115 54.5093 20.8278 54.7212 20.8388C54.8933 20.8459 55.023 20.8585 55.1091 20.8772C55.1953 20.896 55.2752 20.9349 55.3476 20.9946L55.3625 20.9895C55.3556 20.759 55.4594 20.5448 55.6742 20.3459L56.0035 20.0437C56.125 19.9315 56.207 19.8392 56.2486 19.7672C56.2902 19.6951 56.2996 19.6049 56.2767 19.4965L56.3704 19.4648L56.5917 20.1189Z" fill="white" stroke="white" stroke-width="0.0631579" stroke-miterlimit="22.9256"/>
<path d="M56.0376 18.9106L55.5243 19.1426L55.4471 18.9718C55.5815 18.8522 55.6678 18.7362 55.706 18.624C55.7442 18.5117 55.7276 18.3767 55.6563 18.2189C55.4667 17.7995 55.0148 17.749 54.2996 18.0663L54.7564 19.0767L54.5567 19.1669L54.1016 18.1604C53.4691 18.484 53.238 18.8351 53.409 19.2131C53.4664 19.3402 53.5412 19.4323 53.634 19.4891C53.7268 19.5459 53.8754 19.5677 54.0797 19.5545L54.1553 19.7216L53.6695 19.9412C53.48 19.7072 53.3329 19.4752 53.2285 19.2442C52.9438 18.6145 53.2252 18.108 54.0722 17.7251C54.4941 17.5343 54.8545 17.4777 55.154 17.5549C55.4535 17.6321 55.6802 17.8417 55.8345 18.1829C55.9273 18.3882 55.9947 18.6306 56.0376 18.9106Z" fill="white" stroke="white" stroke-width="0.0631579" stroke-miterlimit="22.9256"/>
<path d="M52.5914 17.9026L51.5059 16.0147L52.1133 15.6654L52.2116 15.8363C52.1263 15.9195 52.0615 15.99 52.0175 16.0486C51.9735 16.1071 51.9448 16.1593 51.9306 16.2048C51.9165 16.2493 51.912 16.2923 51.9176 16.3311C51.9236 16.3704 51.9448 16.4224 51.9814 16.4861L52.1088 16.7077L53.8955 15.6804C53.964 15.641 54.0167 15.6059 54.0528 15.5749C54.0894 15.5435 54.1151 15.5137 54.13 15.4846C54.1446 15.4548 54.151 15.4233 54.1493 15.3886C54.147 15.3543 54.1358 15.3045 54.1158 15.2407L54.2015 15.1914L54.6601 15.9889L54.5743 16.0382C54.5464 16.0075 54.5196 15.9817 54.4947 15.9603C54.4703 15.9387 54.4467 15.9238 54.4231 15.9143C54.4004 15.9052 54.3752 15.9014 54.3479 15.9021C54.3209 15.9034 54.2871 15.9109 54.2471 15.9252C54.2075 15.9392 54.1528 15.9667 54.0831 16.0068L52.2965 17.0341L52.4228 17.2538C52.4543 17.3086 52.4857 17.3508 52.516 17.3801C52.5473 17.4097 52.5876 17.4301 52.6384 17.4413C52.6892 17.4525 52.752 17.4529 52.8271 17.443C52.9029 17.4327 52.993 17.4118 53.0996 17.3806L53.1989 17.5533L52.5914 17.9026Z" fill="white" stroke="white" stroke-width="0.0631579" stroke-miterlimit="22.9256"/>
<path d="M53.4031 14.1231L52.9441 14.4496L52.8354 14.2967C52.9443 14.1535 53.0067 14.0232 53.0226 13.9057C53.0385 13.7881 52.9963 13.6588 52.8959 13.5178C52.6292 13.1426 52.176 13.1799 51.5352 13.6289L52.1778 14.5325L51.9992 14.6595L51.359 13.7593C50.8005 14.1985 50.6413 14.5874 50.8817 14.9256C50.9626 15.0393 51.0537 15.1152 51.1557 15.1531C51.2577 15.1911 51.4077 15.1839 51.6056 15.1316L51.712 15.2811L51.2775 15.59C51.0466 15.3968 50.8576 15.1974 50.7106 14.9908C50.3101 14.4275 50.4889 13.8764 51.2464 13.3378C51.6238 13.0695 51.9665 12.9445 52.2753 12.9627C52.5841 12.9808 52.8469 13.1429 53.0638 13.4481C53.1945 13.6317 53.3072 13.8567 53.4031 14.1231Z" fill="white" stroke="white" stroke-width="0.0631579" stroke-miterlimit="22.9256"/>
<path fill-rule="evenodd" clip-rule="evenodd" d="M26.7228 23.8313C26.9958 23.7408 27.6171 23.7807 27.7669 23.9877C27.9541 24.2463 27.8211 25.8095 27.4434 26.0784C26.8786 26.4804 27.1075 26.4657 26.8595 26.7237C26.5876 27.0064 26.148 26.6515 25.9922 26.4877C25.6884 26.1683 25.8158 25.9548 25.8525 25.4791C25.8997 24.8663 26.0725 24.047 26.7228 23.8313ZM24.1938 26.6881C23.8343 26.7191 23.3928 26.3889 23.3884 26.1026C23.3803 25.5623 23.2889 24.0476 23.6777 23.653C23.9814 23.3447 24.4139 23.6092 24.7939 23.6621C25.0052 24.2275 24.7577 24.7095 24.5927 25.1842C24.4404 25.6223 24.2752 25.3394 24.2551 25.806C24.2373 26.2172 24.307 26.2578 24.1938 26.6881ZM16.5033 23.0289C16.8308 23.0531 17.1078 23.139 17.4265 23.2015C17.9086 23.2962 17.8536 23.233 18.1947 23.4978C18.4383 23.6868 18.9358 24.3591 19.059 24.747C18.8635 25.2102 18.2405 25.4787 17.7393 25.0591L17.8155 24.4783C17.5581 24.4517 17.4885 24.6554 17.4078 24.7936C16.812 24.6334 16.0328 23.8989 16.5033 23.0289ZM37.4948 16.81C37.2904 16.5687 36.9644 16.3593 36.6491 16.1674C34.7697 15.0236 32.3604 14.8595 31.2672 14.115C31.0556 13.9709 30.9889 13.9507 30.9632 13.6274C30.8914 12.7223 31.0351 12.4937 31.2515 11.7134L30.8281 11.7109C30.6774 12.0542 30.5066 12.9856 30.4126 13.3977L29.2549 18.3898C28.9911 19.5148 28.7268 20.6098 28.4789 21.7489C28.3362 22.4047 28.3174 22.9645 27.8907 23.2282C27.3716 23.549 26.7447 23.4649 26.3573 23.1185C27.4319 21.4292 25.7459 20.924 25.3314 21.7858C25.1881 22.0839 25.2149 22.5046 25.3079 22.8266C24.7945 22.9072 24.7659 22.914 24.3198 23.0661C23.5373 23.3329 23.3432 22.8454 23.2629 23.5727C23.2366 23.8107 23.1869 24.1079 22.9882 24.253C22.8229 24.3737 22.8018 24.3363 22.6026 24.284C22.368 23.9507 22.5922 23.4967 22.5736 23.0228C22.4279 22.9362 22.2613 22.8832 22.046 22.9037C21.9697 23.3208 22.1084 23.4554 21.8932 23.8259C21.6685 23.4814 21.4302 23.2116 20.9917 23.1613C20.9321 22.5972 21.3032 22.6302 20.9907 22.0446L20.6622 22.0933L20.5325 22.8604C20.2335 22.7763 20.2467 22.6351 20.0201 22.4561C19.8655 22.334 19.6882 22.1789 19.517 22.0631C19.0988 21.7802 18.7331 21.6446 18.0974 21.677L17.9998 21.0628C17.7471 21.0014 17.6395 20.9816 17.4073 21.0746C17.3399 21.4342 17.5862 21.5246 17.5495 21.9523C17.359 22.3532 16.0996 22.4446 16.0583 22.7907C16.1044 23.0935 16.174 22.8078 16.1487 23.1633C16.1402 23.2818 16.1082 23.4187 16.1028 23.5722C16.0767 24.3246 16.6059 24.9648 17.2644 25.2665C17.2926 26.1252 16.5123 26.2219 16.5544 27.2623C16.7203 27.4067 16.8853 27.5192 17.1543 27.3817C17.4211 27.2284 17.3497 26.6723 17.4151 26.386C17.4971 26.0269 17.706 25.8289 17.8255 25.5682C18.5212 25.5819 18.5307 25.6109 19.1787 25.4719C19.2172 25.8504 19.301 26.3565 19.2239 26.7511C19.1224 27.2706 18.3514 27.8004 17.9964 28.1477C17.7827 28.3568 17.5611 28.5725 17.4162 28.8521C17.0631 29.5335 16.9016 30.1141 16.9624 31.0081C17.0348 32.0721 17.6993 32.1517 17.7708 32.74C17.3898 33.0536 17.2369 33.0752 16.5526 33.6877C16.4588 33.7716 16.3925 33.8027 16.2973 33.8822C15.6761 34.4015 14.851 35.7213 14.7423 36.5743C14.6036 37.6629 14.6681 38.7837 14.7447 39.8566C14.8091 40.7569 14.3554 41.2477 14.3725 42.0197C14.3803 42.3691 14.4402 42.3779 14.6388 42.5683C15.3439 42.6166 15.2896 42.1327 15.3906 41.5828C15.4851 41.0689 15.6044 40.6368 15.6068 40.0624C15.6116 38.9157 15.3975 38.0276 15.604 36.8789C15.7704 35.9533 16.0743 35.1982 16.8662 34.6736C17.0919 34.5241 17.1317 34.4095 17.358 34.2704C17.9022 33.936 18.5934 33.9482 18.9335 33.3308C19.205 33.5419 19.2828 33.8299 19.6425 33.9601C19.5381 34.3103 19.1581 34.6708 18.9398 34.8471C17.7734 35.7892 18.3975 37.3518 18.7204 38.4557C19.1005 39.755 18.8046 42.0638 19.0821 42.786C19.1871 43.0591 19.715 43.4302 20.0231 43.1386C20.1928 42.9452 20.0644 42.4385 20.0378 42.1834C20.0057 41.8764 19.9638 41.5906 19.9141 41.279C19.6672 39.7318 19.0007 37.2836 19.6266 35.8682C19.8532 35.3558 20.2304 35.1228 20.6939 34.8672C22.4411 33.9034 21.8137 33.4142 23.3734 33.421C23.6908 33.4224 24 33.4161 24.2655 33.2974C24.5814 33.1561 24.6056 33.0792 24.798 32.8367L25.9424 32.735C26.0582 34.1257 25.5328 35.7397 25.2738 37.0438C25.1543 37.6458 24.5686 41.0247 24.7517 41.413C25.5119 42.0993 25.7599 37.5439 25.8019 37.0585C25.8692 36.2822 26.3135 32.8116 26.6283 32.3699C26.7143 32.2657 27.7732 31.8232 27.9504 31.7256C28.1967 31.59 28.347 31.4895 28.575 31.3458C28.9087 31.1355 28.9942 31.2722 29.3797 31.2063C30.3229 31.0449 31.9051 29.8377 32.1824 30.7278C32.04 30.9872 31.5527 31.1633 31.3132 31.3999L31.3724 31.6701C31.776 31.6802 32.1394 31.4976 32.3712 31.7902C32.558 32.026 32.7179 32.1406 33.0362 32.3015C33.5967 32.5849 34.1105 32.8297 34.5909 33.1498C35.0764 33.4732 35.4911 33.7927 35.5308 34.6393C35.5469 34.9823 35.4606 35.3743 35.3112 35.6197C35.0642 36.0254 33.144 38.0975 32.5951 38.8858C32.3622 39.2203 30.8129 41.6145 30.9414 41.9512C31.146 42.1722 31.5027 42.179 31.8144 42.0168C31.9729 41.6838 31.8937 41.1583 32.0936 40.8994C32.1567 40.8178 32.2084 40.802 32.2888 40.7063C32.8937 39.9863 33.2655 39.2333 33.7973 38.4124C34.505 37.3199 35.3691 36.5458 36.3486 35.7666C36.8679 35.3535 36.5746 34.1301 36.4031 33.571C36.2964 33.2231 36.3311 32.9228 36.4801 32.601C36.6418 32.2516 36.7709 32.1995 37.069 31.9983C37.6364 32.1025 37.8865 32.5888 38.1609 32.9343C38.489 33.3475 38.7963 33.5452 39.0211 34.0315C39.2219 34.4656 39.4462 34.9463 39.7218 35.2846C40.3111 36.0081 39.5941 37.6046 39.4886 38.5042C39.4473 38.8556 39.3442 38.9572 39.221 39.2527C38.9206 39.9736 39.1227 40.7253 38.6605 41.1504C38.522 41.2778 38.5741 41.2179 38.4768 41.4143C38.3275 41.7155 37.8668 42.4134 37.8491 42.7451C38.0108 43.0196 38.1891 43.1897 38.6241 43.1254C38.8496 43.0921 38.9112 43.0536 38.9855 42.873C39.4621 41.714 39.5046 40.6743 39.8084 39.6176C39.904 39.2853 40.0586 39.126 40.2321 38.8663C40.3746 38.6529 40.5258 38.3798 40.6607 38.1186C40.8708 37.7116 40.9116 37.7175 40.9175 37.212C40.9247 36.5977 41.2953 35.6406 41.1126 35.1237C40.7343 34.0537 39.5994 33.9264 39.7288 33.0425C39.8349 32.3181 40.9179 32.3633 40.6623 30.6167C41.2171 30.047 41.7781 30.1716 42.1321 30.9211C42.4754 31.6481 41.9933 32.1611 42.5658 32.8884C42.9203 33.3388 43.3004 33.7672 43.72 34.1388C45.1376 35.3945 44.625 36.2825 44.6954 37.9361C44.7177 38.4601 45.1675 39.1481 45.343 39.6707C45.6175 40.4883 45.5658 40.9162 45.5301 41.7928C45.4804 43.0148 46.2789 42.6822 46.5195 42.0793C47.0525 40.7438 45.0236 37.6506 45.4095 36.1587C45.4977 35.8176 45.5691 35.4659 45.5507 35.0916C45.5119 34.2999 44.5008 33.5194 43.9561 33.064C42.4555 31.8097 42.9416 31.0147 42.3227 29.8908C41.7969 28.9359 40.9875 29.6175 40.5348 29.5175C40.337 29.4168 40.1684 29.0894 40.0051 28.9107C39.5535 28.4166 39.1499 27.9166 38.6335 27.4875C37.7407 26.7456 36.757 26.0902 35.4104 25.7353C34.0403 25.3743 32.7978 25.5582 31.4666 25.8519C30.6317 26.0361 29.6463 26.2628 28.8964 26.6357C28.6182 26.774 28.2969 26.8177 28.0494 26.6684C27.8287 26.3939 28.864 22.2277 29.0206 21.3934C29.1239 20.8432 29.213 20.1853 29.3407 19.6481C29.4298 19.2733 29.6932 19.5545 29.9406 19.6877C30.6947 20.0937 31.7699 19.9981 32.3956 20.3641C32.6404 20.5073 32.778 20.6314 33.0518 20.771C33.7523 21.1281 34.6179 21.4139 35.4062 21.5564L35.4309 21.075C34.2924 20.8406 34.1099 20.8545 33.2097 20.224C33.4054 18.0109 33.3702 19.102 33.8569 18.2926C34.5201 18.532 35.505 19.1695 36.2646 19.1489V18.5615C35.4417 18.2391 34.5751 18.4121 33.9324 17.8161C33.9179 17.2514 33.9924 16.1485 34.3299 15.8059C35.3721 15.8037 36.4354 16.7019 37.1289 17.0776L37.4948 16.81Z" fill="#C82222"/>
</g>
<defs>
<clipPath id="clip0_1285_155461">
<rect width="60" height="60" fill="white"/>
</clipPath>
</defs>
</svg>
