<svg width="343" height="911" viewBox="0 0 343 911" fill="none" xmlns="http://www.w3.org/2000/svg">
<g clip-path="url(#clip0_1320_156052)">
<rect width="343" height="911" fill="#F5F3F1"/>
<g clip-path="url(#clip1_1320_156052)">
<path d="M46.9653 730.464C36.128 713.484 7.66931 705.757 -14.1974 705.757C-20.9387 705.757 -27.168 706.428 -32.7787 707.724C-53.344 712.535 -70.9014 716.838 -86.3894 720.655C-127.861 730.857 -152.885 737.034 -173.685 737.034C-191.008 737.034 -205.856 732.847 -226.635 722.09C-248.331 710.847 -264.267 700.159 -277.045 691.553C-297.12 678.067 -310.368 669.184 -328.501 669.184C-334.432 669.184 -340.832 670.178 -348 672.214V673.88C-340.811 671.821 -334.411 670.826 -328.501 670.826C-310.773 670.826 -297.675 679.64 -277.835 692.965C-265.013 701.57 -249.056 712.304 -227.275 723.57C-206.261 734.443 -191.243 738.676 -173.685 738.676C-152.715 738.676 -127.627 732.499 -86.0694 722.275C-70.5814 718.458 -53.0454 714.155 -32.48 709.343C-26.9974 708.071 -20.8533 707.423 -14.2187 707.423C7.28533 707.423 35.2106 714.941 45.728 731.435C50.3573 738.722 51.1253 746.981 47.9893 756.026C41.7173 774.07 12.384 789.986 -13.5147 804.051C-29.152 812.541 -43.936 820.568 -51.5307 828.017C-73.7387 849.785 -68.4054 879.304 -59.4027 911.112H-57.8454C-66.784 879.628 -72.1814 850.456 -50.5494 829.22C-43.104 821.91 -28.4053 813.952 -12.8533 805.508C13.28 791.328 42.8907 775.227 49.376 756.604C52.704 747.05 51.8933 738.26 46.9653 730.533V730.464Z" fill="white"/>
<path d="M32.1619 838.613C29.3672 835.56 25.7192 834.01 21.3246 834.01C7.92722 834.01 -8.86212 848.399 -14.4514 854.945C-35.0595 879.12 -37.4274 892.653 -33.3101 910.859H-32.2008C-36.2968 892.884 -33.9928 879.559 -13.6621 855.732C-8.15809 849.278 8.28988 835.166 21.3459 835.166C25.4419 835.166 28.8339 836.601 31.4152 839.423C35.8739 844.258 38.0926 853.257 38.0286 866.142C37.9646 881.78 35.4899 896.238 32.3326 910.859H33.4206C36.5566 896.238 39.0099 881.803 39.0952 866.142C39.1592 852.956 36.8126 843.679 32.1619 838.613Z" fill="white"/>
<path d="M327.171 842.684C326.36 834.865 321.816 828.064 313.667 822.512C298.968 812.472 268.205 807.984 244.227 807.984C239.555 807.984 235.267 808.146 231.491 808.493C208.088 810.598 183.725 815.595 157.016 823.808C153.197 824.987 149.379 826.237 145.709 827.578C101.144 843.633 75.3733 869.01 63 911.228H64.1307C76.4613 869.612 101.976 844.535 146.029 828.666C149.699 827.347 153.475 826.098 157.293 824.918C183.96 816.752 208.237 811.755 231.576 809.65C235.331 809.303 239.576 809.141 244.227 809.141C268.035 809.141 298.563 813.583 313.091 823.507C320.941 828.874 325.315 835.374 326.104 842.823C328.067 861.584 307.907 883.584 291.693 901.258C288.429 904.821 285.379 908.152 282.712 911.205H284.184C286.659 908.36 289.453 905.329 292.44 902.068C308.803 884.209 329.176 862.001 327.149 842.684H327.171Z" fill="white"/>
<path d="M-13.1595 10.9688C-16.8289 10.9688 -22.0129 13.5134 -25.8315 25.589C-30.1195 39.1914 -21.8636 42.3376 -13.1169 45.6919C-11.5809 46.2702 -10.0022 46.8948 -8.46621 47.5657C-5.03154 49.0694 -2.13021 49.8328 0.131123 49.8328C2.64846 49.8328 4.4618 48.9074 5.50713 47.103C8.77113 41.4816 3.54446 29.059 1.13379 23.9928C-2.74887 15.8499 -8.10356 10.9919 -13.1809 10.9919L-13.1595 10.9688ZM4.61114 46.4784C2.90447 49.4163 -1.40489 49.3932 -8.08222 46.4784C-9.63956 45.8075 -11.2396 45.183 -12.7756 44.6046C-21.3516 41.3197 -28.7755 38.4743 -24.8289 25.9592C-21.9702 16.8909 -17.9382 12.1023 -13.1809 12.1023C-8.42356 12.1023 -3.51687 16.7289 0.173799 24.4786C4.99513 34.6804 6.65912 42.8927 4.58978 46.4553L4.61114 46.4784Z" fill="white"/>
<path d="M-0.536007 907.658C-1.47467 903.957 -3.07468 901.319 -4.61068 898.798C-6.97868 894.935 -9.00537 891.58 -8.1947 885.265C-7.08537 876.636 2.55733 855.307 12.968 855.307C13.0747 855.307 13.1813 855.307 13.2667 855.307C18.472 855.516 21.7787 856.95 23.1013 859.541C25.512 864.283 21.16 872.333 17.6826 878.788C15.8053 882.281 14.1626 885.311 13.8853 887.278C13.3093 891.187 14.9093 893.431 16.4453 895.582C17.6826 897.294 18.8347 898.914 18.792 901.319C18.6853 906.339 16.6373 908.699 14.4613 911.197C14.3547 911.313 14.2693 911.429 14.1627 911.544H15.0373C17.256 909 19.3253 906.548 19.432 901.343C19.496 898.705 18.1947 896.901 16.9573 895.166C15.5067 893.13 13.992 891.002 14.5253 887.393C14.8027 885.566 16.4027 882.582 18.2587 879.158C21.8213 872.542 26.2586 864.329 23.6773 859.217C22.2266 856.348 18.8346 854.845 13.3093 854.613C13.2026 854.613 13.096 854.613 12.968 854.613C2.216 854.613 -7.68268 876.359 -8.81335 885.172C-9.66668 891.765 -7.44803 895.374 -5.12269 899.191C-3.60803 901.69 -2.02934 904.257 -1.13334 907.843C-0.770671 909.254 -0.60003 910.457 -0.493364 911.544H0.146644C0.0399769 910.388 -0.152018 909.139 -0.514685 907.681L-0.536007 907.658Z" fill="white"/>
<path d="M216.333 879.186C215.309 878.7 213.709 878.469 211.597 878.469C199.224 878.469 173.005 886.473 172.728 886.542C169.805 887.445 166.883 888.416 164.045 889.434C149.539 894.662 138.808 901.648 131 911.388H131.853C139.576 901.972 150.115 895.194 164.259 890.082C167.075 889.064 169.997 888.092 172.92 887.19C173.176 887.098 199.309 879.14 211.597 879.14C213.624 879.14 215.139 879.371 216.077 879.811C220.813 882.008 219.085 887.861 215.267 900.7C214.349 903.777 213.283 907.385 212.195 911.388H212.856C213.944 907.478 214.989 903.939 215.885 900.931C219.704 888.092 221.624 881.638 216.355 879.186H216.333Z" fill="white"/>
<path d="M188.088 900.156C185.123 900.156 181.539 900.804 177.443 902.053C174.712 902.886 172.003 903.788 169.4 904.737C163.917 906.726 159.16 908.97 155 911.538H157.24C160.931 909.433 165.048 907.513 169.741 905.824C172.344 904.899 175.032 903.996 177.741 903.164C181.752 901.938 185.229 901.313 188.088 901.313C193.4 901.313 196.643 903.418 197.667 907.582C197.965 908.762 198.029 910.104 197.965 911.538H199.032C199.075 910.011 199.011 908.554 198.691 907.281C197.88 904.02 195.384 900.156 188.067 900.156H188.088Z" fill="white"/>
<path d="M254.717 861.561C252.861 857.513 246.461 856.079 234.984 857.097C214.504 858.924 192.936 863.389 169.043 870.722C165.843 871.694 162.707 872.758 159.677 873.845C137.981 881.664 122.856 893.647 113 911.159H113.747C123.517 893.971 138.493 882.196 159.869 874.493C162.877 873.406 166.035 872.365 169.213 871.393C193.064 864.083 214.611 859.618 235.048 857.791C237.395 857.583 239.549 857.467 241.469 857.467C248.659 857.467 252.797 858.901 254.163 861.862C256.552 867.067 249.832 876.691 243.347 886.013C242.195 887.656 241.043 889.321 239.933 890.964C235.432 897.603 231.421 904.381 227.816 911.182H228.563C232.104 904.52 236.029 897.881 240.445 891.38C241.555 889.738 242.707 888.095 243.859 886.43C250.771 876.506 257.299 867.137 254.739 861.561H254.717Z" fill="white"/>
<path d="M276.245 873.068C286.08 863.051 290.027 855.116 287.979 849.495C285.547 842.832 274.688 839.432 255.723 839.432C249.408 839.432 242.219 839.802 233.749 840.565C212.309 842.485 189.803 847.135 164.971 854.746C161.6 855.787 158.229 856.897 154.965 858.077C126.507 868.325 107.307 885.398 96 910.775H96.7253C107.968 885.721 127.019 868.88 155.179 858.748C158.443 857.568 161.813 856.458 165.163 855.417C189.973 847.806 212.416 843.179 233.835 841.259C242.283 840.496 249.451 840.126 255.765 840.126C274.432 840.126 285.077 843.364 287.424 849.749C289.365 855.07 285.483 862.75 275.861 872.559C273.92 874.525 272.064 876.445 270.485 878.157C263.125 886.184 256.768 893.124 252.011 900.133C249.643 903.627 247.424 907.189 245.248 910.775H246.016C248.107 907.305 250.261 903.904 252.544 900.55C257.28 893.587 263.616 886.67 270.955 878.643C272.512 876.931 274.368 875.034 276.309 873.068H276.245Z" fill="white"/>
<path d="M30.7653 -116.143C31.8319 -120.816 32.8772 -125.42 33.8586 -130H32.7706C31.8106 -125.512 30.7866 -121.001 29.7413 -116.421C27.7786 -107.838 25.7519 -98.9782 24.1093 -89.9099C18.6479 -59.7209 13.9333 -20.1398 26.1146 18.2615C31.0639 33.8765 43.4159 46.623 54.2959 57.8658C63.9813 67.8825 72.3439 76.5344 71.5973 83.7983C71.2559 87.1295 68.9946 90.1137 64.7066 92.8897C62.7226 94.162 59.3519 94.8097 54.6586 94.8097C38.2746 94.8097 9.38927 86.9675 -11.9867 79.1947C-35.2401 70.7511 -63.8694 57.2875 -68.3068 41.1404C-69.7148 36.0048 -68.5627 30.7998 -64.8507 25.7105C-60.0934 19.1637 -54.9947 13.4267 -50.0667 7.85153C-40.3601 -3.09054 -31.1868 -13.4311 -25.1068 -28.7685C-16.4454 -50.6527 -15.4001 -73.4853 -21.9921 -96.6186C-23.5921 -102.217 -25.1921 -107.376 -26.6214 -111.933C-28.7121 -118.665 -30.5467 -124.541 -31.7841 -130H-32.8934C-31.6347 -124.425 -29.7787 -118.433 -27.6241 -111.563C-26.2161 -107.005 -24.5947 -101.87 -23.0161 -96.2716C-16.5094 -73.4159 -17.5547 -50.8609 -26.1094 -29.2312C-32.1041 -14.0789 -41.2134 -3.80767 -50.8561 7.04187C-55.8054 12.617 -60.9254 18.4003 -65.7254 24.9933C-69.6507 30.4065 -70.8881 35.9585 -69.3734 41.4874C-64.8081 58.0971 -35.8374 71.7689 -12.3707 80.3051C9.09059 88.1011 38.1039 95.9664 54.6159 95.9664C59.5013 95.9664 63.0639 95.2724 65.2186 93.8844C69.8053 90.9233 72.2373 87.6615 72.6213 83.9371C73.4319 76.0949 64.8986 67.2579 54.9999 57.033C44.2053 45.8827 31.9599 33.2288 27.0959 17.8683C14.9999 -20.2786 19.6933 -59.6747 25.1333 -89.7017C26.7759 -98.7237 28.7813 -107.584 30.7439 -116.143H30.7653Z" fill="white"/>
<path d="M307.435 840.701C301.163 826.22 275.84 823.166 255.68 823.166C248.597 823.166 240.939 823.536 232.896 824.253C210.496 826.266 187.072 831.078 161.28 838.989C157.675 840.1 154.091 841.303 150.635 842.529C128.448 850.51 111.381 862.076 98.4747 877.853C90.752 887.292 84.6507 898.164 80 910.61H80.6613C93.0133 877.576 115.755 855.83 150.848 843.199C154.304 841.95 157.867 840.77 161.472 839.66C187.221 831.772 210.603 826.96 232.96 824.947C240.981 824.23 248.64 823.86 255.701 823.86C275.669 823.86 300.736 826.821 306.859 840.979C313.579 856.501 297.259 873.134 286.443 884.145C284.608 886.019 282.88 887.801 281.408 889.374C274.475 896.938 268.48 903.485 264.363 909.546C264.128 909.893 263.893 910.24 263.659 910.61H264.448C264.597 910.402 264.725 910.194 264.875 909.962C268.949 903.948 274.923 897.424 281.856 889.883C283.307 888.309 285.035 886.528 286.869 884.678C297.813 873.527 314.325 856.686 307.413 840.724L307.435 840.701Z" fill="white"/>
<path d="M14.6497 -129.861L14.7563 -130H13.8817C12.5377 -128.45 11.1937 -126.831 10.255 -124.471C7.60966 -117.716 8.35632 -110.684 9.08166 -103.882C9.48699 -100.089 9.91368 -96.1791 9.74302 -92.3389C9.48702 -86.3011 8.33499 -80.0551 7.24699 -73.9942C6.35099 -68.9974 5.41234 -63.8387 4.96434 -58.7956C2.23367 -28.1902 4.70834 -0.522718 12.303 23.4434C13.8817 28.4171 20.0683 36.0742 26.6177 44.1709C34.9803 54.5346 43.6417 65.2453 43.983 71.7458C44.0683 73.2032 43.727 74.3368 42.9377 75.239C40.6763 77.8299 34.6176 78.3157 24.911 76.6501C17.871 75.4472 11.087 72.2547 4.53768 69.1549C0.719011 67.3505 -3.24899 65.4767 -7.19566 64.0424C-8.30499 63.626 -9.45701 63.2327 -10.6517 62.7932C-24.8383 57.727 -44.2517 50.7639 -47.0463 38.5957C-48.369 32.7893 -45.7663 26.15 -39.3023 18.863C-29.1263 7.38887 -18.5877 -4.47852 -11.4623 -22.4994C-4.63566 -39.78 3.23634 -73.3927 0.228335 -91.5755C-0.390332 -95.3 -1.81967 -97.8215 -3.20633 -100.251C-5.06233 -103.512 -6.81168 -106.589 -6.02235 -112.164C-5.42502 -116.282 -3.95301 -118.688 -2.65168 -120.793C-1.09434 -123.338 0.270994 -125.651 -0.113006 -130H-0.753013C-0.369013 -125.859 -1.64901 -123.708 -3.18501 -121.163C-4.52901 -118.989 -6.04367 -116.513 -6.641 -112.257C-7.473 -106.427 -5.65967 -103.235 -3.73967 -99.8804C-2.37433 -97.4977 -0.987651 -95.0455 -0.390317 -91.4367C2.59635 -73.3696 -5.233 -39.9419 -12.0383 -22.7539C-19.121 -4.84866 -29.617 6.97248 -39.7503 18.4003C-46.3637 25.8724 -49.0303 32.7199 -47.6437 38.7808C-44.785 51.3191 -25.1583 58.3516 -10.8223 63.4872C-9.62768 63.9036 -8.47566 64.32 -7.36633 64.7364C-3.44099 66.1707 0.505676 68.0213 4.30301 69.8257C10.895 72.9256 17.7003 76.1411 24.8257 77.3672C28.6443 78.0149 31.9297 78.3619 34.6177 78.3619C39.0123 78.3619 41.8923 77.506 43.407 75.7479C44.303 74.7069 44.7083 73.3651 44.623 71.7458C44.2603 65.014 35.535 54.2107 27.087 43.7545C20.5803 35.7041 14.4363 28.0932 12.9003 23.2583C5.32701 -0.615256 2.87366 -28.1902 5.58299 -58.6799C6.03099 -63.6767 6.96967 -68.8355 7.86567 -73.8091C8.97501 -79.8932 10.1057 -86.1623 10.3617 -92.2464C10.5323 -96.1328 10.1057 -100.089 9.70034 -103.906C8.95367 -110.938 8.22834 -117.554 10.831 -124.147C11.791 -126.576 13.2203 -128.219 14.6283 -129.838L14.6497 -129.861Z" fill="white"/>
<path d="M83.7378 681.293C112.047 677.799 142.404 642.244 142.788 612.124C143.386 565.95 118.917 529.052 95.2365 493.38C91.2258 487.32 87.0658 481.05 83.1405 474.897L80.7725 471.196C69.6365 453.799 57.0072 434.067 52.8898 412.761C49.4125 394.694 44.1005 352.66 49.8818 338.133C54.1272 327.491 66.2018 321.407 77.8712 315.531C85.9352 311.46 93.5511 307.62 98.9058 302.369L99.1618 302.114C111.364 290.131 121.626 283.985 129.946 283.677C133.722 283.538 138.415 283.353 145.05 282.682C153.946 281.78 159.194 280.369 163.034 279.351C165.466 278.703 167.236 278.217 168.794 278.217C172.634 278.217 175.855 281.178 186.5 290.941C217.967 319.834 217.37 370.08 216.815 418.683C216.09 479.824 215.343 543.071 279.172 563.081C288.346 565.95 297.284 567.43 305.732 567.43C329.732 567.43 350.148 555.794 364.804 533.818C386.308 501.547 392.026 451.208 379.013 408.527C348.997 310.026 277.274 253.696 200.132 200.027C130.01 151.238 63.2365 137.798 6.12717 129.03C1.9885 128.406 -1.93682 128.082 -5.56349 128.082C-28.7102 128.082 -39.7182 140.852 -53.6488 157.022C-58.9822 163.222 -64.5075 169.606 -71.3555 176.153C-79.2062 183.625 -89.1688 188.738 -98.8328 193.688C-114.577 201.762 -129.446 209.373 -135.59 226.329C-148.625 262.302 -116.603 290.316 -88.3368 315.069C-75.2595 326.52 -62.9075 337.323 -55.6542 348.126C-26.9609 390.969 -35.5368 463.215 -61.5635 503.814C-69.6915 516.491 -85.2648 532.152 -101.755 548.762C-129.062 576.244 -160.017 607.405 -165.478 633.569C-168.038 645.875 -167.377 654.481 -163.43 659.848C-160.123 664.336 -154.555 666.51 -146.406 666.51C-132.987 666.51 -113.787 660.519 -93.4568 654.18C-68.6035 646.431 -40.4222 637.64 -16.4008 637.64C-4.94482 637.64 4.5485 639.56 12.5912 643.539C21.8498 648.119 29.7005 654.712 37.2738 661.12C49.7965 671.669 61.6151 681.64 78.3405 681.64C80.0898 681.64 81.9032 681.524 83.7165 681.293H83.7378ZM13.0605 642.475C4.8685 638.427 -4.75284 636.46 -16.3795 636.46C-40.5502 636.46 -68.8168 645.274 -93.7342 653.047C-114.001 659.362 -133.137 665.331 -146.406 665.331C-154.214 665.331 -159.505 663.295 -162.577 659.108C-166.31 654.042 -166.929 645.76 -164.433 633.823C-159.036 608.006 -128.209 576.984 -101.03 549.595C-84.4968 532.962 -68.8808 517.231 -60.6888 504.461C-34.4489 463.539 -25.8302 390.668 -54.8008 347.432C-62.1182 336.513 -74.5342 325.641 -87.6755 314.143C-115.643 289.668 -147.345 261.908 -134.609 226.746C-128.614 210.228 -113.937 202.687 -98.3848 194.729C-88.6568 189.756 -78.6088 184.597 -70.6515 177.009C-63.7608 170.439 -58.2142 164.008 -52.8595 157.808C-39.0995 141.846 -28.2408 129.239 -5.54216 129.239C-1.95816 129.239 1.92451 129.563 5.99918 130.187C62.9805 138.932 129.626 152.349 199.578 201.021C276.548 254.575 348.122 310.766 378.031 408.921C390.938 451.278 385.284 501.2 363.972 533.17C349.53 554.846 329.391 566.297 305.754 566.297C297.413 566.297 288.58 564.863 279.492 561.994C251.226 553.134 233.327 534.905 224.815 506.312C217.178 480.703 217.562 449.196 217.924 418.729C218.5 369.872 219.098 319.348 187.247 290.085C172.036 276.112 171.61 275.881 162.82 278.24C159.023 279.258 153.796 280.646 144.986 281.549C138.394 282.219 133.7 282.404 129.946 282.543C121.37 282.867 110.881 289.113 98.4792 301.281L98.2232 301.536C92.9965 306.671 85.4445 310.488 77.4445 314.514C65.5832 320.482 53.3165 326.682 48.9218 337.716C43.0338 352.498 48.3672 394.832 51.8658 413.038C56.0045 434.576 68.6978 454.401 79.8978 471.913L82.2658 475.614C86.1912 481.768 90.3512 488.037 94.3832 494.098C117.956 529.63 142.34 566.343 141.743 612.147C141.359 641.781 111.493 676.735 83.6312 680.182C81.8605 680.39 80.0898 680.506 78.3832 680.506C62.0205 680.506 50.3512 670.651 37.9778 660.241C30.3405 653.81 22.4472 647.148 13.0818 642.521L13.0605 642.475Z" fill="white"/>
<path d="M535.762 -37.7356C532.967 -37.7356 530.236 -37.7587 527.548 -37.7819C524.967 -37.7819 522.428 -37.8281 519.932 -37.8281C505.383 -37.8281 493.799 -36.9722 481.042 -32.7851C474.364 -30.5874 468.114 -27.1405 462.055 -23.7862C451.964 -18.2111 442.407 -12.9367 430.994 -12.9367C429.095 -12.9367 427.175 -13.0755 425.298 -13.3762C416.871 -14.6948 410.578 -20.0849 404.476 -25.2899C397.628 -31.1426 391.143 -36.6715 382.076 -36.6715C381.244 -36.6715 380.412 -36.6252 379.559 -36.5327C373.948 -35.9081 364.988 -30.4486 356.306 -25.1511C350.716 -21.7505 345.447 -18.5349 341.714 -17.0544C336.274 -14.8799 332.199 -13.8389 329.234 -13.0523C320.274 -10.739 319.143 -9.88306 314.77 8.02214C313.575 12.9727 312.7 17.5993 311.847 22.0641C308.711 38.6738 306.236 51.7904 289.916 64.3055C278.908 72.7492 264.935 76.8438 247.186 76.8438C229.607 76.8438 211.239 72.8649 195.026 69.3255C186.556 67.4748 178.535 65.7398 172.604 65.0689C169.148 64.6757 163.815 64.4212 158.354 64.4212C142.695 64.4212 124.348 70.6441 123.068 79.5504C122.471 83.7838 125.5 90.1223 143.463 96.3452L145.468 97.0392C213.884 120.843 261.607 151.888 310.162 204.216C323.559 218.651 333.799 225.383 342.354 225.383C344.359 225.383 346.343 224.99 348.199 224.249C357.308 220.571 363.943 208.102 371.644 193.667C375.612 186.218 380.114 177.775 385.447 169.632C411.218 130.259 448.188 101.481 489.554 88.6187C501.756 84.8248 513.682 82.9047 524.967 82.9047C561.81 82.9047 587.815 102.476 612.434 122.602V121.144C587.858 101.088 561.852 81.7481 524.967 81.7481C513.575 81.7481 501.564 83.6913 489.255 87.5083C447.655 100.44 410.471 129.38 384.572 168.961C379.218 177.127 374.716 185.617 370.727 193.089C363.132 207.339 356.583 219.623 347.836 223.162C346.087 223.879 344.252 224.226 342.354 224.226C334.076 224.226 324.092 217.61 310.908 203.406C262.226 150.94 214.375 119.802 145.788 95.9519L143.783 95.2579C130.343 90.6081 123.367 85.0793 124.135 79.7586C125.202 72.3559 141.522 65.601 158.375 65.601C163.794 65.601 169.084 65.8323 172.498 66.2256C178.386 66.8965 186.386 68.6315 194.834 70.4821C211.09 74.0215 229.522 78.0236 247.207 78.0236C265.17 78.0236 279.356 73.8596 290.556 65.2771C307.218 52.4844 309.735 39.1596 312.914 22.3185C313.767 17.8538 314.62 13.2503 315.836 8.32288C320.167 -9.51292 321.063 -9.74426 329.511 -11.9188C332.519 -12.7053 336.615 -13.7463 342.119 -15.944C345.938 -17.4708 351.25 -20.7095 356.86 -24.1332C365.031 -29.1069 374.311 -34.7745 379.687 -35.376C380.498 -35.4685 381.308 -35.5148 382.098 -35.5148C390.802 -35.5148 397.138 -30.1016 403.858 -24.3877C410.066 -19.0901 416.487 -13.6075 425.191 -12.2427C427.132 -11.9419 429.116 -11.78 431.058 -11.78C442.727 -11.78 452.839 -17.3551 462.588 -22.7452C468.604 -26.0533 474.812 -29.5001 481.383 -31.6515C494.034 -35.8155 505.511 -36.6483 519.954 -36.6483C522.45 -36.6483 524.967 -36.6483 527.548 -36.6021C530.236 -36.5789 532.967 -36.5558 535.762 -36.5558C548.796 -36.5558 560.444 -34.9133 571.41 -31.5127C585.255 -27.2331 598.844 -21.2415 612.455 -14.2553V-15.5276C598.951 -22.4213 585.468 -28.3666 571.708 -32.6231C560.658 -36.0469 548.903 -37.7125 535.762 -37.7125V-37.7356Z" fill="white"/>
<path d="M535.56 -13.9264C517.618 -13.9264 498.546 -10.4101 478.301 -6.66252C455.538 -2.45226 431.986 1.89681 406.92 1.89681C405.106 1.89681 403.314 1.89681 401.608 1.82741C392.904 1.59608 385.522 0.0461461 379.016 -1.31872C373.384 -2.49852 368.52 -3.53952 363.848 -3.53952C352.754 -3.53952 344.605 2.79901 335.709 18.2983C331.421 25.7704 328.285 34.723 325.256 43.3517C319.901 58.6429 314.354 74.4661 302.13 83.8351C297.928 87.0506 289.864 89.549 281.33 92.2094C266.418 96.836 249.522 102.064 247.218 112.983C244.36 126.678 270.28 145.393 284.21 155.456C286.792 157.33 289.032 158.949 290.504 160.106C306.845 173.107 320.349 181.758 333.192 181.758C334.941 181.758 336.69 181.597 338.397 181.25C348.637 179.26 357.938 171.395 367.666 156.52C396.253 112.844 437.362 80.8971 483.421 66.5545C497.565 62.1591 511.474 59.9383 524.786 59.9383C561.586 59.9383 588.829 76.0623 612.253 94.0138V93.1578C588.829 75.2526 561.586 59.2444 524.786 59.2444C511.432 59.2444 497.458 61.4883 483.25 65.9067C437.042 80.2725 395.826 112.312 367.154 156.127C357.533 170.84 348.36 178.612 338.29 180.556C336.626 180.879 334.92 181.041 333.192 181.041C320.52 181.041 307.122 172.436 290.888 159.527C289.416 158.348 287.154 156.728 284.573 154.854C270.77 144.884 245.085 126.331 247.837 113.099C250.056 102.573 266.76 97.4144 281.501 92.8571C290.098 90.1968 298.205 87.6983 302.493 84.3903C314.888 74.9056 320.456 58.9899 325.853 43.6062C328.861 35.0006 331.997 26.0943 336.242 18.6685C345.01 3.37735 352.989 -2.84552 363.826 -2.84552C368.434 -2.84552 373.256 -1.82765 378.866 -0.647852C385.394 0.740148 392.818 2.29008 401.565 2.52141C403.293 2.56768 405.085 2.59081 406.898 2.59081C432.029 2.59081 455.602 -1.75825 478.429 -5.99165C498.61 -9.71612 517.661 -13.2555 535.538 -13.2555C546.589 -13.2555 556.338 -11.8907 565.384 -9.09152C580.893 -4.30292 596.402 3.03035 612.232 11.6128V10.8263C596.466 2.29008 581.021 -4.99692 565.554 -9.78552C556.445 -12.6078 546.632 -13.9727 535.517 -13.9727L535.56 -13.9264Z" fill="white"/>
<path d="M67.2652 808.502C61.8679 817.339 55.1479 828.304 57.4732 835.892C58.4119 838.992 60.8012 841.305 64.5559 842.762C65.2599 843.04 66.0492 843.179 66.8812 843.179C75.1159 843.179 88.1719 829.368 99.6919 817.2C107.009 809.45 113.943 802.14 118.103 800.081C137.985 790.296 165.42 785.646 189.612 781.528C199.169 779.909 208.193 778.382 216.513 776.601C235.5 772.576 253.825 770.517 270.999 770.517C327.191 770.517 374.359 792.447 411.223 835.684C415.361 840.542 421.356 842.994 429.1 842.994C453.164 842.994 494.444 817.593 523.5 770.517C540.887 742.364 566.145 684.785 539.884 615.639C529.367 587.926 513.729 575.017 490.668 575.017C473.132 575.017 453.121 582.003 429.953 590.1C401.452 600.071 369.132 611.36 334.359 611.36C307.287 611.36 282.433 604.582 258.369 590.678C184.129 547.743 181.975 469.437 188.375 406.005C190.871 381.345 186.817 361.82 176.684 349.537C169.516 340.862 159.767 336.281 148.46 336.281C127.041 336.281 100.311 354.302 90.6679 388.771C81.6012 421.204 103.105 450.699 128.001 484.843C156.097 523.337 187.927 566.967 181.74 625.193C178.668 654.064 168.961 681.754 155.735 699.29C145.708 712.591 136.855 713.771 127.468 715.02C120.3 715.969 112.897 716.963 104.215 722.932C97.5799 727.489 95.5106 735.262 93.3132 743.474C91.7986 749.142 90.2199 754.995 87.0412 759.806C85.2919 762.444 82.2412 763.022 79.0412 763.623C74.7959 764.433 69.9746 765.335 67.4359 771.28C65.6652 775.421 68.0119 780.302 70.2732 785.022C72.1719 788.954 74.1132 793.026 73.5372 796.403C73.0679 799.11 70.4225 803.459 67.3505 808.479L67.2652 808.502ZM71.2972 784.443C69.0785 779.817 66.9666 775.421 68.4812 771.882C70.7639 766.561 75.0519 765.752 79.1905 764.965C82.5185 764.34 85.9319 763.693 87.9799 760.616C91.2866 755.619 92.8866 749.651 94.4439 743.891C96.5772 735.91 98.6039 728.391 104.833 724.112C113.281 718.305 120.556 717.334 127.575 716.385C137.217 715.09 146.305 713.887 156.652 700.169C170.007 682.448 179.841 654.48 182.935 625.378C189.164 566.597 157.164 522.736 128.94 484.034C104.257 450.19 82.9239 420.949 91.8199 389.187C101.292 355.343 127.468 337.646 148.439 337.646C159.383 337.646 168.833 342.065 175.745 350.439C185.644 362.422 189.591 381.576 187.137 405.866C180.695 469.714 182.892 548.553 257.772 591.858C282.028 605.877 307.073 612.701 334.359 612.701C369.324 612.701 401.729 601.366 430.316 591.373C453.377 583.299 473.303 576.336 490.647 576.336C513.452 576.336 528.279 588.62 538.732 616.125C564.78 684.715 539.713 741.809 522.476 769.754C494.679 814.748 453.164 841.652 429.079 841.652C421.719 841.652 416.001 839.339 412.119 834.781C375.02 791.268 327.532 769.198 270.999 769.198C253.761 769.198 235.351 771.257 216.279 775.306C207.98 777.064 198.956 778.591 189.42 780.21C165.143 784.328 137.644 789.001 117.591 798.855C113.239 801.007 106.561 808.062 98.8386 816.228C87.4892 828.235 74.6252 841.837 66.8812 841.837C66.1986 841.837 65.5585 841.721 64.9825 841.513C61.5692 840.172 59.4999 838.205 58.6679 835.475C56.5346 828.512 63.0626 817.825 68.3106 809.242C71.4679 804.083 74.1772 799.642 74.6892 796.681C75.3505 792.841 73.3025 788.584 71.3185 784.443H71.2972Z" fill="white"/>
<path d="M-64.9707 812.293C-55.3493 802.855 -40.1173 794.596 -22.4747 785.019C-10.1653 778.334 6.38934 761.909 5.38667 748.468C4.85334 741.135 -0.607987 735.629 -10.8053 732.159C-14.816 730.795 -19.2106 730.124 -24.224 730.124C-37.28 730.124 -52 734.82 -64.9707 738.984C-70.9013 740.881 -76.4906 742.662 -81.6106 743.934C-124.533 754.506 -150.453 760.891 -173.685 760.891C-194.251 760.891 -212.277 755.894 -235.915 743.657C-258.677 731.882 -275.147 720.801 -288.395 711.918C-307.893 698.824 -316.981 693.041 -328.501 693.041C-333.877 693.041 -340.299 694.336 -348 696.997V698.2C-340.277 695.516 -333.835 694.175 -328.501 694.175C-317.259 694.175 -308.256 699.912 -288.928 712.889C-275.659 721.796 -259.168 732.877 -236.363 744.698C-212.576 757.028 -194.4 762.048 -173.664 762.048C-150.325 762.048 -124.363 755.663 -81.3547 745.068C-76.2133 743.796 -70.6026 742.014 -64.6506 740.117C-51.744 736 -37.1093 731.327 -24.2027 731.327C-19.296 731.327 -15.008 731.974 -11.104 733.316C-1.35465 736.647 3.82936 741.806 4.34136 748.63C5.30136 761.562 -10.8907 777.501 -22.944 784.048C-40.6507 793.671 -55.9467 801.976 -65.6747 811.507C-95.0293 840.285 -90.2933 877.853 -81.3973 911.582H-80.288C-89.1627 878.085 -93.9413 840.771 -64.9707 812.363V812.293Z" fill="white"/>
<path d="M348.619 886.213C373.771 874.045 396.512 868.261 418.528 862.64C462.731 851.374 500.896 841.635 535.819 782.737C541.707 772.813 546.72 760.414 552.032 747.274C563.125 719.838 574.603 691.476 595.915 679.771C601.653 677.365 606.88 675.491 611.765 674.103V672.438C606.688 673.872 601.227 675.815 595.232 678.337C573.472 690.296 561.888 718.936 550.667 746.626C545.376 759.696 540.384 772.05 534.56 781.858C499.936 840.224 462.048 849.893 418.165 861.067C396.107 866.688 373.28 872.518 348 884.732C331.552 892.69 320.565 901.897 316 911.312H317.664C322.251 902.499 332.875 893.824 348.597 886.213H348.619Z" fill="white"/>
<path d="M353.795 830.345C349.848 816.789 332.525 806.656 302.36 800.248C282.477 796.038 262.168 793.887 241.987 793.887C212.312 793.887 182.275 798.49 152.685 807.559C148.675 808.785 144.664 810.126 140.739 811.537C89.688 829.905 60.2267 860.534 47 910.779H48.5574C61.72 861.367 90.8613 831.201 141.208 813.087C145.112 811.676 149.123 810.358 153.091 809.132C182.531 800.11 212.44 795.529 241.965 795.529C262.061 795.529 282.264 797.657 302.061 801.868C331.672 808.16 348.589 817.899 352.365 830.854C355.267 840.778 350.467 852.877 338.115 866.849C325.336 881.284 312.429 895.882 300.824 910.803H302.787C314.157 896.275 326.723 882.048 339.181 867.983C351.939 853.571 356.845 840.917 353.773 830.391L353.795 830.345Z" fill="white"/>
<path d="M235.48 701.782C236.355 702.314 237.293 702.569 238.275 702.569C242.072 702.569 245.784 698.543 249.091 695.004C250.989 692.945 252.803 691.002 254.275 690.239C256.195 689.244 257.987 688.758 259.757 688.758C263.149 688.758 266.029 690.516 269.357 692.552C270.552 693.269 271.789 694.032 273.112 694.75C276.291 696.461 279.405 697.271 282.627 697.271C285.848 697.271 288.856 696.461 292.035 695.629C295.341 694.75 298.755 693.847 302.744 693.755H303.256C311.363 693.755 318.787 698.312 325.976 702.707C333.123 707.08 340.504 711.614 348.547 711.614C352.408 711.614 356.12 710.596 359.875 708.537C362.883 706.871 365.187 704.836 367.213 703.008C370.52 700.047 373.379 697.502 378.2 697.502C379.608 697.502 381.123 697.711 382.808 698.15C396.504 701.666 402.541 715.315 408.365 728.524C411.096 734.724 413.912 741.109 417.475 746.221C424.621 756.469 433.837 762.114 443.437 762.114H443.928C453.549 761.929 462.787 756.169 469.955 745.92C479.661 732.017 497.304 686.699 489.987 664.144C487.832 657.482 483.672 653.272 477.656 651.629C475.523 651.051 473.56 650.75 471.619 650.75C465.389 650.75 460.717 653.78 455.32 657.274C454.104 658.06 452.845 658.87 451.523 659.679C440.579 666.388 429.741 667.776 418.243 669.257C413.741 669.835 409.069 670.436 404.355 671.362C399.107 672.403 394.371 674.392 389.805 676.312C383.789 678.834 378.115 681.217 371.864 681.217C367.64 681.217 363.523 680.106 359.256 677.839C350.467 673.143 340.888 668.817 330.307 668.817C326.808 668.817 323.352 669.257 319.789 670.182C318.168 670.598 316.568 671.038 315.011 671.477C308.888 673.166 303.107 674.762 297.24 674.762C292.483 674.762 288.003 673.698 283.565 671.477L281.688 670.529C273.624 666.481 265.283 662.317 256.771 662.317C252.056 662.317 247.725 663.566 243.48 666.11C238.147 669.326 231 682.836 231 692.251C231 696.693 232.579 699.978 235.523 701.736L235.48 701.782ZM243.949 667.152C248.024 664.699 252.205 663.496 256.728 663.496C265.027 663.496 273.24 667.614 281.197 671.616L283.075 672.565C287.64 674.832 292.269 675.942 297.197 675.942C303.192 675.942 309.037 674.323 315.224 672.611C316.781 672.171 318.36 671.732 319.981 671.315C323.459 670.413 326.808 669.974 330.243 669.974C340.611 669.974 350.061 674.253 358.723 678.88C363.139 681.24 367.405 682.373 371.8 682.373C378.243 682.373 384.024 679.944 390.125 677.376C394.648 675.479 399.32 673.513 404.483 672.472C409.176 671.547 413.805 670.945 418.307 670.367C429.891 668.886 440.856 667.475 451.971 660.651C453.293 659.841 454.573 659.009 455.789 658.222C461.059 654.821 465.603 651.86 471.533 651.86C473.368 651.86 475.267 652.138 477.293 652.693C482.947 654.243 486.851 658.199 488.877 664.468C496.067 686.653 478.595 731.416 468.995 745.157C462.04 755.104 453.101 760.703 443.8 760.888H443.331C434.072 760.888 425.155 755.405 418.221 745.458C414.723 740.438 412.056 734.377 409.219 727.969C403.288 714.505 397.144 700.602 382.936 696.97C381.165 696.508 379.587 696.3 378.093 696.3C372.888 696.3 369.901 698.983 366.424 702.06C364.333 703.91 362.2 705.83 359.277 707.45C355.672 709.439 352.131 710.411 348.44 710.411C340.675 710.411 333.741 706.154 326.403 701.643C319.107 697.155 311.555 692.529 303.171 692.529H302.637C298.52 692.621 295.064 693.57 291.693 694.449C288.579 695.282 285.635 696.068 282.541 696.068C279.448 696.068 276.568 695.305 273.496 693.662C272.195 692.968 270.979 692.228 269.805 691.511C266.477 689.475 263.341 687.578 259.693 687.578C257.752 687.578 255.811 688.11 253.741 689.174C252.099 690.03 250.243 692.02 248.28 694.148C245.144 697.526 241.581 701.366 238.232 701.366C237.443 701.366 236.696 701.158 235.971 700.718C233.347 699.145 232.003 696.3 232.003 692.228C232.003 682.674 239.427 669.789 243.928 667.082L243.949 667.152Z" fill="white"/>
<path d="M97.6224 783.937C98.9877 784.331 101.441 784.516 104.556 784.516C111.041 784.516 135.126 783.475 172.694 770.011C204.097 758.768 240.833 752.569 276.097 752.569C334.166 752.569 372.737 762.007 422.422 813.571C425.942 817.226 430.678 819.077 436.46 819.077C458.049 819.077 490.71 793.584 510.806 761.035C526.508 735.612 549.334 683.701 525.761 621.634C515.606 594.915 502.87 591.237 490.625 591.237C475.478 591.237 456.534 597.853 434.582 605.533C405.014 615.874 371.478 627.579 334.316 627.579C304.684 627.579 277.484 620.176 251.158 604.955C167.937 556.837 166.806 467.173 173.206 403.926C175.19 384.332 172.374 368.833 165.313 360.297C161.068 355.161 155.372 352.547 148.417 352.547C132.609 352.547 112.684 366.543 105.196 393.308C98.4331 417.482 117.654 443.831 139.905 474.344C168.342 513.324 203.734 561.834 196.822 626.839C194.838 645.461 190.273 663.158 183.212 679.444C171.969 705.376 157.121 727.376 139.052 744.842C127.126 756.362 115.158 764.436 106.433 770.312C98.4758 775.679 93.6757 778.894 94.0171 781.369C94.1664 782.48 95.3184 783.313 97.6224 783.937ZM106.774 770.913C115.521 765.014 127.51 756.941 139.478 745.374C157.612 727.839 172.524 705.77 183.809 679.768C190.913 663.413 195.5 645.623 197.484 626.954C204.417 561.672 168.94 513.023 140.417 473.951C118.273 443.6 99.1584 417.39 105.814 393.562C113.217 367.121 132.844 353.287 148.417 353.287C155.18 353.287 160.705 355.809 164.844 360.805C171.798 369.203 174.529 384.517 172.588 403.903C166.188 467.358 167.318 557.3 250.881 605.626C277.313 620.917 304.62 628.342 334.337 628.342C371.606 628.342 405.185 616.614 434.817 606.25C456.705 598.593 475.585 592 490.646 592C502.678 592 515.18 595.632 525.185 621.958C548.63 683.724 525.91 735.404 510.294 760.711C490.646 792.543 457.516 818.429 436.481 818.429C430.849 818.429 426.284 816.648 422.87 813.108C398.785 788.124 376.385 772.232 352.342 763.094C331.649 755.252 308.844 751.898 276.076 751.898C240.726 751.898 203.926 758.097 172.46 769.363C134.998 782.781 110.998 783.822 104.534 783.822C101.484 783.822 99.0731 783.613 97.7718 783.243C95.8091 782.688 94.7638 782.017 94.6358 781.231C94.3584 779.218 99.5637 775.725 106.753 770.867L106.774 770.913Z" fill="white"/>
<path d="M148.294 368.812C136.859 368.812 124.294 381.351 120.176 392.617C117.446 400.089 119.536 412.835 125.744 426.761C131.59 439.878 139.398 449.964 145.158 451.838C146.032 452.116 146.928 452.278 147.782 452.278C148.742 452.278 149.702 452.092 150.619 451.745C158.043 448.946 157.872 443.996 157.51 433.169C157.275 426.507 156.976 417.392 158.235 404.877C159.942 388.059 157.51 375.244 154.224 371.288C153.179 370.015 151.728 368.836 148.294 368.836V368.812ZM157.168 404.739C155.888 417.346 156.208 426.53 156.443 433.216C156.806 444.065 156.955 448.137 150.256 450.658C148.699 451.237 147.078 451.283 145.435 450.751C139.952 448.969 132.422 439.138 126.683 426.276C120.603 412.65 118.534 400.228 121.158 393.056C125.147 382.137 137.264 369.992 148.294 369.969C151.302 369.969 152.539 370.964 153.435 372.028C156.55 375.799 158.854 388.244 157.168 404.715V404.739Z" fill="white"/>
<path d="M211.127 728.174C213.09 728.174 215.5 727.989 218.508 727.618C219.81 727.456 250.764 723.709 283.98 723.709C296.93 723.709 308.471 724.287 318.284 725.444C367.33 731.158 409.783 756.535 430.092 779.136C433.826 783.3 438.284 785.406 443.362 785.406C454.732 785.406 468.727 774.672 481.783 755.98C504.652 723.223 511.564 660.509 500.236 635.825C497.228 629.279 493.026 625.809 488.076 625.809C487.671 625.809 487.244 625.809 486.818 625.878C477.858 626.873 465.399 630.829 449.655 635.849C420.151 645.241 379.746 658.08 335.927 658.843C298.487 659.514 255.692 643.436 241.143 635.756C236.386 633.234 233.314 632.124 231.18 632.124C226.828 632.124 226.658 636.589 226.338 644.015C226.082 649.914 225.762 657.987 223.095 667.194C218.274 683.943 212.812 696.643 208.823 705.919C204.407 716.214 201.719 722.413 203.618 725.652C204.663 727.433 206.988 728.22 211.127 728.22V728.174ZM209.399 706.174C213.388 696.874 218.871 684.151 223.692 667.356C226.359 658.057 226.7 649.914 226.956 643.991C227.255 636.751 227.426 632.772 231.159 632.772C233.164 632.772 236.236 633.905 240.844 636.334C255.159 643.899 296.695 659.514 333.73 659.514C334.455 659.514 335.202 659.514 335.927 659.514C379.831 658.75 420.279 645.888 449.826 636.473C465.548 631.476 477.964 627.521 486.882 626.526C492.172 625.947 496.482 629.163 499.639 636.08C510.882 660.601 503.991 722.922 481.25 755.494C468.322 774.024 454.498 784.642 443.34 784.642C438.455 784.642 434.146 782.606 430.54 778.581C410.146 755.887 367.564 730.441 318.348 724.704C308.514 723.547 296.951 722.969 283.98 722.969C250.743 722.969 219.746 726.739 218.444 726.878C215.458 727.248 213.068 727.433 211.127 727.433C207.266 727.433 205.047 726.716 204.151 725.189C202.444 722.298 205.068 716.214 209.399 706.128V706.174Z" fill="white"/>
<path d="M163.627 754.182C165.611 754.182 168.149 753.627 170.795 752.633C200.661 741.39 235.307 735.93 276.715 735.93C328.277 735.93 379.371 741.043 437.419 802.947C439.083 804.729 441.28 805.631 443.925 805.631C460.16 805.631 490.155 771.903 499.051 751.568C499.861 749.718 500.736 747.751 501.675 745.693C513.003 720.523 531.947 678.375 512.576 627.389C504.832 607.008 497.621 607.008 491.243 607.008C478.443 607.008 460.523 613.277 439.787 620.518C409.173 631.229 374.464 643.351 334.955 643.351C301.141 643.351 273.792 636.619 246.229 621.513C241.963 619.176 237.867 616.609 234.24 614.365C226.987 609.854 221.269 606.291 217.579 606.291C214.699 606.291 213.291 608.466 213.227 612.953C213.227 613.671 213.312 614.804 213.461 616.4C217.408 660.307 201.728 701.3 166.869 738.244C160.789 744.698 158.208 749.324 159.211 752.008C159.744 753.442 161.28 754.182 163.627 754.182ZM167.317 738.729C189.739 714.971 204.437 689.201 210.987 662.112C216.256 640.343 214.741 623.502 214.101 616.331C213.952 614.758 213.867 613.624 213.867 612.953C213.931 607.61 216.021 606.985 217.579 606.985C221.099 606.985 227.051 610.686 233.92 614.966C237.547 617.233 241.664 619.778 245.952 622.137C273.6 637.29 301.035 644.068 334.955 644.068C374.571 644.068 409.323 631.923 440 621.189C460.693 613.948 478.571 607.702 491.264 607.702C497.429 607.702 504.427 607.702 512 627.643C531.243 678.328 512.384 720.292 501.099 745.369C500.16 747.451 499.285 749.394 498.475 751.268C489.643 771.463 459.947 804.937 443.925 804.937C441.451 804.937 439.403 804.104 437.867 802.462C410.901 773.707 382.976 754.876 352.533 744.883C325.397 735.976 300.203 735.236 276.715 735.236C235.243 735.236 200.533 740.719 170.581 751.985C168 752.956 165.525 753.488 163.627 753.488C162.176 753.488 160.341 753.188 159.808 751.753C159.296 750.412 159.595 746.919 167.317 738.753V738.729Z" fill="white"/>
<path d="M49.0247 -130H47.4674C44.182 -117.531 41.878 -103.882 40.534 -88.8689C38.166 -62.7745 36.0754 -28.6066 41.0034 4.31213C44.5874 28.3245 51.7981 39.0121 64.3634 39.0121C72.3847 39.0121 81.7074 34.8019 92.5234 29.8976C100.033 26.497 107.798 23.0039 116.075 20.4592C116.865 20.2047 117.654 19.9734 118.465 19.7421C142.081 12.8715 168.705 11.8999 196.95 16.8735C204.523 18.2153 212.203 20.5055 219.649 22.7263C230.486 25.9649 241.686 29.3193 253.057 29.8745C259.222 30.1752 263.617 29.4812 266.71 27.8156C275.777 22.9113 271.361 10.6738 266.71 -2.28087C263.958 -9.93801 261.099 -17.8727 260.63 -24.9747C258.134 -62.7283 277.59 -97.1275 303.297 -130H301.334C275.819 -97.1969 256.641 -62.7745 259.158 -24.859C259.649 -17.5026 262.529 -9.4522 265.345 -1.6794C269.953 11.1133 273.921 22.1479 266.07 26.3813C263.233 27.9081 258.945 28.5559 253.142 28.2783C241.942 27.7462 230.827 24.415 220.075 21.1995C212.609 18.9555 204.886 16.6422 197.227 15.3005C168.769 10.3037 141.931 11.2984 118.123 18.2153C117.313 18.4466 116.523 18.6779 115.713 18.9324C107.329 21.5002 99.5207 25.0396 91.9901 28.4402C81.3447 33.2519 72.1287 37.4159 64.406 37.4159C52.7154 37.4159 45.9527 27.1216 42.5181 4.05766C37.6114 -28.6991 39.702 -62.7283 42.0487 -88.707C43.414 -103.79 45.7394 -117.485 49.0674 -130L49.0247 -130Z" fill="white"/>
<path d="M29.0688 517.285C27.6394 515.874 26.3594 515.203 25.1648 515.203C22.1781 515.203 20.0874 519.321 16.9301 525.544C13.6448 531.998 9.16477 540.835 1.39943 549.787L-0.883248 552.401C-9.77925 562.626 -13.8539 567.299 -12.8512 569.821C-12.4032 570.954 -11.0166 571.463 -8.39256 571.463C-6.15256 571.463 -2.86725 571.116 2.61542 570.284C4.87675 569.937 7.18076 569.775 9.46343 569.775C27.9594 569.775 43.3834 581.017 54.6474 589.23C61.2394 594.042 66.4447 597.835 70.1781 597.835C71.7354 597.835 73.0154 597.165 73.9754 595.823C85.7941 579.375 44.4714 532.437 29.0688 517.285ZM73.1434 595.106C72.3968 596.17 71.4154 596.679 70.1781 596.679C66.7647 596.679 61.6874 592.977 55.2447 588.258C43.8741 579.953 28.3008 568.595 9.46343 568.595C7.1381 568.595 4.7701 568.78 2.4661 569.127C-2.95257 569.96 -6.21656 570.307 -8.39256 570.307C-10.4406 570.307 -11.6139 569.983 -11.8699 569.358C-12.5952 567.554 -7.62456 561.84 -0.0938922 553.188L2.18876 550.574C10.0394 541.529 14.5834 532.599 17.8688 526.099C20.8554 520.223 22.8181 516.36 25.1861 516.36C26.1034 516.36 27.1488 516.938 28.3648 518.141C47.5008 536.948 83.6181 580.532 73.1434 595.106Z" fill="white"/>
<path d="M30.1307 536.891C22.664 536.891 13.0427 549.66 13 555.721C13 558.196 14.408 559.654 16.904 559.7C27.912 559.908 39.5387 567.473 48.0293 573.002C53.064 576.264 56.6906 578.646 58.8453 578.646C59.528 578.646 60.0827 578.415 60.4667 577.952C60.9573 577.374 61.1493 576.495 61.064 575.269C60.2747 564.142 40.7973 541.864 32.904 537.585C32.072 537.122 31.1333 536.914 30.152 536.914L30.1307 536.891ZM59.5707 575.361C59.6347 576.333 59.464 576.703 59.3573 576.819C59.3147 576.865 59.208 577.004 58.824 577.004C57.0747 577.004 53.2346 574.505 48.776 571.591C40.136 565.969 28.3173 558.289 16.9253 558.081C15.24 558.058 14.4933 557.317 14.4933 555.721C14.536 550.308 23.4747 538.487 30.1307 538.487C30.8987 538.487 31.6027 538.649 32.2213 538.996C40.7333 543.599 58.8453 565.275 59.5707 575.338V575.361Z" fill="white"/>
<path d="M3.12926 326.916C4.96392 326.916 6.43593 324.094 7.86526 317.778C13.2199 294.159 30.9053 262.906 58.3826 246.296C86.1799 229.478 104.697 225.106 114.66 222.77C119.609 221.613 122.084 221.012 122.681 219.6C122.916 219.068 122.831 218.421 122.468 217.68C120.548 213.886 86.1159 192.997 36.6013 188.648L34.5106 188.463C30.0519 188.07 26.1906 187.723 22.4999 187.723C9.57193 187.723 -0.83873 191.632 -25.1587 213.91C-28.9987 217.426 -32.9241 220.688 -36.7214 223.857C-48.4761 233.642 -58.6307 242.063 -57.9694 251.663C-57.4574 259.02 -50.7374 266.33 -36.8281 274.635C-21.4254 283.842 -12.0387 302.117 -5.83074 314.193C-1.88407 321.85 0.697266 326.916 3.17193 326.916H3.12926ZM-36.572 274.033C-50.0974 265.96 -56.9027 258.626 -57.3934 251.617C-58.0334 242.41 -48.0067 234.082 -36.38 224.435C-32.5827 221.266 -28.6361 218.004 -24.7961 214.465C-0.646734 192.326 9.6786 188.44 22.4359 188.44C26.1053 188.44 29.9453 188.787 34.4039 189.18L36.4946 189.365C84.8786 193.599 120.036 214.419 121.849 218.027C122.212 218.768 122.148 219.115 122.041 219.323C121.572 220.41 118.905 221.058 114.468 222.099C104.484 224.458 85.9026 228.831 58.0199 245.695C30.3933 262.42 12.5799 293.882 7.20393 317.639C5.88126 323.423 4.53728 326.245 3.08661 326.245C0.995947 326.245 -1.79873 320.786 -5.3614 313.892C-11.6121 301.747 -21.0414 283.356 -36.6147 274.056L-36.572 274.033Z" fill="white"/>
<path d="M7.32713 366.201C9.18313 366.201 10.4631 363.795 11.3591 358.614C16.9058 326.759 28.9164 281.649 69.0444 257.59C81.4391 250.141 95.4551 244.266 111.86 239.569C115.167 238.621 118.687 236.053 122.122 233.555C126.538 230.316 131.124 226.985 135.348 226.985C135.839 226.985 136.33 227.031 136.778 227.124C139.146 227.586 140.916 229.067 142.623 230.501C144.543 232.121 146.356 233.647 148.874 233.647C149.812 233.647 150.794 233.439 151.839 232.976C153.631 232.213 154.57 230.709 155.466 229.252C156.746 227.193 157.94 225.25 161.567 225.597C165.172 225.921 167.114 228.905 169.162 232.051C170.591 234.249 172.084 236.539 174.196 237.811C175.732 238.737 178.506 239.731 180.959 239.731C182.666 239.731 183.882 239.246 184.564 238.274C185.204 237.349 185.332 236.03 184.906 234.388C183.498 228.928 172.724 223.839 165.578 220.461C163.466 219.467 161.652 218.611 160.479 217.94C149.855 211.833 139.252 206.674 130.292 202.417C92.4898 184.489 58.0151 173.547 24.9271 168.967C21.1938 168.458 17.9725 168.203 15.0498 168.203C-1.24888 168.203 -13.8782 175.93 -39.0089 201.284C-45.1742 207.507 -51.5316 212.85 -57.6542 218.009C-71.3929 229.576 -82.2516 238.714 -81.9956 250.211C-81.7822 259.279 -74.5289 268.949 -59.1262 280.631C-34.3369 299.439 -17.8889 328.008 -6.98755 346.908C-0.267553 358.544 4.14844 366.248 7.36977 366.248L7.32713 366.201ZM-58.8062 280.007C-74.0169 268.463 -81.2062 258.955 -81.3982 250.118C-81.6542 238.968 -70.9022 229.923 -57.2916 218.472C-51.1476 213.29 -44.7902 207.946 -38.6036 201.7C-13.6009 176.485 -1.07824 168.805 15.0284 168.805C17.9298 168.805 21.1298 169.059 24.8205 169.568C57.8445 174.125 92.2551 185.067 129.994 202.973C138.954 207.229 149.535 212.388 160.138 218.472C161.332 219.166 163.167 220.022 165.279 221.017C172.298 224.325 182.922 229.345 184.244 234.48C184.607 235.914 184.543 237.025 184.01 237.765C183.327 238.737 181.94 238.945 180.916 238.945C178.698 238.945 175.988 238.02 174.474 237.094C172.49 235.914 171.06 233.694 169.652 231.542C167.604 228.396 165.492 225.157 161.588 224.787C157.578 224.394 156.234 226.638 154.911 228.766C154.015 230.2 153.183 231.542 151.583 232.236C150.602 232.653 149.727 232.861 148.852 232.861C146.57 232.861 144.82 231.403 142.986 229.877C141.215 228.396 139.38 226.846 136.863 226.383C136.372 226.291 135.839 226.245 135.327 226.245C130.911 226.245 126.26 229.645 121.759 232.93C118.239 235.498 114.89 237.95 111.711 238.852C95.2418 243.548 81.2044 249.471 68.7458 256.943C28.3831 281.14 16.3084 326.458 10.7404 358.452C9.90844 363.171 8.79913 365.484 7.32713 365.484C4.44713 365.484 -0.139562 357.503 -6.4969 346.469C-17.4196 327.522 -33.9102 298.883 -58.8062 279.983V280.007Z" fill="white"/>
<path d="M85.7963 656.776C100.388 654.972 114.127 644.099 120.826 629.086C126.927 615.368 130.234 592.095 111.29 559.154C103.162 544.996 94.287 530.723 85.711 516.912C61.1777 477.424 38.0097 440.109 28.431 402.68C17.615 360.346 26.2977 325.414 55.7803 292.773C81.3163 264.504 115.044 248.288 148.346 248.288C173.37 248.288 195.706 257.842 211.215 275.169C228.26 294.208 236.794 322.083 235.855 355.742C235.642 363.561 235.3 371.635 234.938 380.194C233.658 410.591 232.186 445.037 236.708 473.699C241.914 506.664 254.266 527.021 274.447 535.951C285.263 540.739 295.503 543.145 304.911 543.145C321.999 543.145 336.548 535.049 346.98 519.758C364.708 493.733 368.954 449.178 357.562 408.879C333.092 322.407 274.255 270.797 187.279 215.508C121.21 173.521 65.4017 160.566 14.9483 152.817C11.1937 152.238 7.60966 151.938 4.30299 151.938C-16.7743 151.938 -26.801 163.574 -39.4943 178.309C-44.3797 183.977 -49.4143 189.807 -55.6863 195.798C-62.897 202.669 -69.169 206.856 -74.7157 210.557C-83.6117 216.479 -91.2703 221.592 -99.7397 235.287C-116.508 262.469 -94.065 279.148 -70.321 296.798C-57.777 306.121 -44.785 315.768 -37.8303 327.196C5.86033 398.978 -11.761 475.55 -42.8437 523.274C-51.7183 536.922 -64.689 549.808 -78.4277 563.433C-95.217 580.112 -112.582 597.347 -122.502 616.617C-126.769 624.899 -127.985 630.52 -126.214 633.805C-124.913 636.211 -122.033 637.367 -117.446 637.367C-109.254 637.367 -96.241 633.689 -81.1583 629.41C-60.017 623.441 -33.713 615.992 -10.4597 615.992C1.84966 615.992 12.4097 618.12 20.9217 622.308C29.391 626.495 36.559 632.533 43.4923 638.385C54.9057 648.009 65.6577 657.077 80.8897 657.077C82.4897 657.077 84.1323 656.984 85.775 656.776H85.7963ZM21.199 621.683C12.495 617.38 2.14832 615.298 -10.4383 615.298C-33.7557 615.298 -60.1237 622.747 -81.2863 628.739C-96.3263 632.995 -109.297 636.65 -117.425 636.673C-121.777 636.673 -124.465 635.609 -125.66 633.435C-127.302 630.381 -126.086 624.991 -121.948 616.941C-112.07 597.786 -94.7477 580.575 -77.9797 563.942C-64.2197 550.27 -51.2277 537.385 -42.3103 523.667C-24.0917 495.699 -13.3397 463.798 -11.2277 431.411C-8.79567 394.398 -17.5637 359.189 -37.297 326.802C-44.3157 315.282 -57.3503 305.589 -69.9583 296.22C-93.4463 278.754 -115.633 262.284 -99.2063 235.657C-90.8437 222.078 -83.2063 217.012 -74.3957 211.136C-68.8277 207.434 -62.5343 203.224 -55.281 196.307C-48.9877 190.316 -43.9317 184.44 -39.0463 178.772C-26.4597 164.175 -16.497 152.632 4.28167 152.632C7.54567 152.632 11.1083 152.932 14.8417 153.487C65.231 161.237 120.975 174.169 186.938 216.086C273.786 271.259 332.516 322.8 356.922 409.041C368.271 449.155 364.068 493.455 346.447 519.318C336.143 534.424 321.786 542.428 304.89 542.428C295.567 542.428 285.412 540.022 274.682 535.28C254.714 526.443 242.49 506.271 237.327 473.56C232.804 444.967 234.276 410.545 235.556 380.194C235.919 371.635 236.26 363.561 236.474 355.742C237.412 321.875 228.836 293.837 211.663 274.66C196.026 257.194 173.54 247.571 148.346 247.571C114.874 247.571 80.9537 263.857 55.311 292.264C39.6523 309.614 29.9883 327.496 25.743 346.975C21.967 364.371 22.6284 382.623 27.791 402.842C37.391 440.387 60.5804 477.724 85.1564 517.282C93.7324 531.093 102.607 545.366 110.735 559.501C129.53 592.188 126.266 615.206 120.228 628.762C113.636 643.567 100.09 654.301 85.711 656.059C84.0897 656.267 82.4684 656.36 80.8897 656.36C65.8924 656.36 55.2043 647.338 43.8977 637.807C36.943 631.931 29.7323 625.87 21.199 621.637V621.683Z" fill="white"/>
<path d="M99.9101 627.929C105.499 623.511 108.785 617.334 109.638 609.585C112.177 586.845 93.5741 553.648 76.8701 532.157C56.0274 505.323 35.3341 476.684 25.2008 448.97C24.7101 447.605 23.9421 443.742 22.9821 438.861C19.7181 422.39 14.2781 394.838 6.38475 394.838C5.65942 394.838 4.91276 395.069 4.18742 395.555C0.90209 397.66 -0.0579092 401.824 1.22209 408.232C2.26742 413.483 4.67808 419.544 6.81141 424.888C9.07275 430.533 11.0141 435.414 10.9714 438.19C10.8861 445.338 7.81408 448.484 4.84875 451.538C2.52342 453.92 0.134095 456.373 -0.740572 460.652C-1.84991 466.158 0.240769 470.299 2.26744 474.301C4.14477 478.002 6.06477 481.819 5.46744 486.747C4.33677 495.792 -22.0739 528.387 -45.3486 557.164C-64.6339 580.969 -81.2739 601.534 -80.9966 605.467C-80.9966 605.768 -80.8686 605.999 -80.6979 606.161C-79.0979 607.595 -76.2179 608.289 -71.8446 608.289C-64.9539 608.289 -55.3752 606.624 -44.2606 604.68C-30.7992 602.344 -15.5459 599.684 -2.2979 599.684C8.04877 599.684 15.7928 601.28 21.3608 604.565C24.3901 606.346 27.7821 608.474 31.3447 610.718C47.2594 620.758 67.0568 633.227 83.8248 633.227C90.0328 633.227 95.4514 631.446 99.8888 627.952L99.9101 627.929ZM21.7021 603.917C16.0274 600.586 8.17675 598.943 -2.25525 598.943C-15.5459 598.943 -30.8206 601.604 -44.3246 603.94C-55.3966 605.86 -64.9752 607.526 -71.8019 607.526C-76.0046 607.526 -78.7779 606.878 -80.2499 605.559C-80.2499 605.559 -80.3139 605.49 -80.3352 605.351C-80.5912 601.696 -63.2259 580.275 -44.8579 557.558C-21.4979 528.71 4.95543 496.023 6.12876 486.793C6.76876 481.634 4.78477 477.725 2.86477 473.931C0.795433 469.859 -1.14591 466.019 -0.0792438 460.768C0.731423 456.696 2.97142 454.429 5.31809 452.023C8.39009 448.877 11.5688 445.616 11.6541 438.19C11.6968 435.275 9.71277 430.324 7.4301 424.587C5.3181 419.267 2.90743 413.252 1.8621 408.07C0.646097 401.986 1.52076 398.077 4.52876 396.133C5.14743 395.74 5.78744 395.532 6.40611 395.532C13.7874 395.532 19.3768 423.801 22.3634 438.999C23.3661 444.112 24.0914 447.79 24.6248 449.224C34.7794 477.031 55.5154 505.716 76.4008 532.597C93.0194 553.995 111.537 586.96 109.019 609.492C108.166 617.057 104.987 623.071 99.5474 627.374C95.2168 630.798 89.9474 632.51 83.8674 632.51C67.2914 632.51 47.5581 620.087 31.7074 610.094C28.1234 607.85 24.7528 605.721 21.7021 603.917Z" fill="white"/>
<path d="M92.9356 599.564C94.8342 580.502 76.0182 550.614 66.6102 539.116C50.3756 519.291 39.0476 502.381 31.5596 491.207C24.1356 480.126 20.0396 473.996 17.3943 473.996C15.5809 473.996 14.5783 476.541 13.9596 482.81C9.30892 529.909 -18.7871 555.425 -35.5764 570.647C-42.9364 577.333 -47.7791 581.728 -47.9924 585.36C-48.0564 586.401 -47.7151 587.373 -46.9684 588.205C-45.4324 589.963 -43.0218 590.796 -39.3311 590.796C-35.1924 590.796 -29.9657 589.755 -23.9071 588.552C-16.0564 586.979 -7.1391 585.221 1.97024 585.221C14.3862 585.221 24.3916 588.575 32.5836 595.469C44.1249 605.185 61.1916 615.572 74.5676 615.572C79.3889 615.572 83.5062 614.253 86.8342 611.616C90.3542 608.84 92.4236 604.769 92.9356 599.541V599.564ZM74.5676 614.901C61.3622 614.901 44.4449 604.607 32.9889 594.96C24.6689 587.951 14.5356 584.55 1.99159 584.55C-7.18174 584.55 -16.1204 586.332 -24.0137 587.905C-30.0297 589.108 -35.2351 590.125 -39.3097 590.125C-42.8084 590.125 -45.0911 589.362 -46.4777 587.743C-47.0964 587.026 -47.3738 586.262 -47.3311 585.406C-47.1391 582.075 -42.1044 577.495 -35.1497 571.179C-18.2964 555.865 9.92757 530.256 14.5996 482.879C15.1542 477.212 16.0289 474.69 17.3943 474.69C19.7196 474.69 23.9862 481.052 31.0476 491.601C38.5356 502.797 49.8849 519.708 66.1196 539.556C75.4636 550.984 94.1729 580.641 92.2956 599.471C91.7836 604.491 89.8209 608.401 86.4502 611.061C83.2289 613.606 79.2396 614.878 74.5462 614.878L74.5676 614.901Z" fill="white"/>
<path d="M274.867 409.316C272.67 445.497 282.249 470.412 291.955 481.631C296.393 486.767 301.257 489.612 305.673 489.612C311.881 489.612 316.553 484.315 318.814 474.691C333.385 412.763 283.763 347.481 277.683 342.022C275.934 340.449 274.718 340.24 273.928 341.189C272.499 342.878 272.947 348.406 273.758 358.423C274.718 370.291 276.147 388.219 274.867 409.316ZM274.718 341.975C274.824 341.837 274.931 341.79 275.102 341.79C275.401 341.79 275.977 341.999 277.022 342.924C283.059 348.337 332.254 413.041 317.811 474.414C315.678 483.459 311.39 488.456 305.694 488.456C301.598 488.456 296.99 485.749 292.766 480.845C283.209 469.787 273.779 445.196 275.955 409.386C277.235 388.196 275.806 370.221 274.846 358.331C274.142 349.586 273.63 343.294 274.739 341.975H274.718Z" fill="white"/>
<path d="M535.536 2.3161C518.854 2.3161 500.379 5.73983 480.795 9.34863C457.414 13.6746 433.243 18.1393 406.896 18.1393C404.955 18.1393 403.035 18.1162 401.222 18.0699C399.643 18.0236 398.107 17.9774 396.571 17.9311C392.582 17.8154 388.827 17.6998 385.2 17.6998C362.502 17.6998 348.443 22.7197 339.184 49.1611C333.339 65.8865 326.683 84.8327 310.768 97.0702C306.267 100.54 301.766 103.478 297.776 106.092C288.56 112.13 281.286 116.896 281.008 123.489C280.752 129.549 286.406 136.836 299.312 147.108C311.707 156.962 321.883 161.751 330.459 161.751C331.227 161.751 332.016 161.705 332.763 161.635C345.222 160.386 353.584 149.213 364.166 135.078C368.966 128.647 374.427 121.383 380.827 114.443C408.539 84.3932 442.587 62.4859 479.28 51.0812C494.768 46.2694 510.064 43.8173 524.763 43.8173C561.072 43.8173 589.062 58.0443 612.23 74.5152V73.6824C589.062 57.2809 561.051 43.1233 524.763 43.1233C510 43.1233 494.64 45.5754 479.11 50.4103C442.31 61.8613 408.155 83.838 380.379 113.958C373.958 120.921 368.496 128.208 363.675 134.639C353.2 148.634 344.902 159.715 332.72 160.941C331.974 161.011 331.227 161.057 330.48 161.057C322.054 161.057 311.984 156.315 299.696 146.552C286.982 136.42 281.414 129.318 281.648 123.535C281.904 117.312 289.051 112.639 298.118 106.694C302.107 104.08 306.63 101.119 311.152 97.6486C327.238 85.2954 333.915 66.2335 339.803 49.4156C348.934 23.3443 362.8 18.3938 385.222 18.3938C388.848 18.3938 392.603 18.5094 396.571 18.6251C398.086 18.6714 399.643 18.7176 401.222 18.7639C403.056 18.8102 404.955 18.8333 406.918 18.8333C433.307 18.8333 457.52 14.3454 480.923 10.0195C500.464 6.4107 518.939 2.98697 535.558 2.98697C545.2 2.98697 553.606 4.14363 561.307 6.52636C577.84 11.6388 594.779 20.0362 612.251 29.8448V29.0582C594.843 19.3191 577.968 10.968 561.478 5.8555C553.734 3.44964 545.243 2.29297 535.558 2.29297L535.536 2.3161Z" fill="white"/>
<path d="M258.903 406.485C256.428 441.578 262.828 469.986 276.908 486.48C284.268 495.109 293.313 499.851 302.38 499.851C315.308 499.851 325.633 490.112 328.727 475.052C337.708 431.006 323.799 391.402 310.572 365.909C294.999 335.975 275.095 314.785 265.495 307.845C261.996 305.323 259.521 303.75 258.028 303.75C257.473 303.75 257.047 303.958 256.727 304.351C255.489 305.855 256.001 310.158 257.004 318.671C258.775 333.777 262.081 361.861 258.924 406.485H258.903ZM257.175 304.791C257.367 304.537 257.644 304.421 258.007 304.421C259.329 304.421 261.825 306.017 265.132 308.4C286.785 324.061 344.3 395.404 328.087 474.867C325.079 489.603 314.988 499.134 302.38 499.134C293.484 499.134 284.609 494.461 277.377 485.994C263.425 469.662 257.089 441.44 259.543 406.531C262.7 361.838 259.393 333.685 257.601 318.555C256.684 310.759 256.129 306.063 257.175 304.768V304.791Z" fill="white"/>
<path d="M246.716 408.847C244.263 452.523 251.964 487.038 268.434 506.007C276.946 515.816 287.271 520.998 298.322 520.998C319.442 520.998 337.319 502.468 342.844 474.893C350.972 434.225 343.975 394.181 322.066 355.872C299.858 317.077 269.138 292.001 252.796 280.48C244.476 274.628 240.914 272.176 239.548 273.957C238.418 275.437 239.164 279.648 240.615 288.022C243.772 306.182 250.364 343.958 246.716 408.801V408.847ZM240.039 274.443C240.21 274.211 240.444 274.119 240.807 274.119C242.535 274.119 246.268 276.756 252.455 281.105C306.898 319.414 359.058 390.433 342.204 474.754C336.764 502.005 319.122 520.304 298.322 520.304C287.463 520.304 277.287 515.191 268.903 505.522C252.562 486.691 244.924 452.361 247.356 408.87C251.004 343.935 244.412 306.112 241.234 287.929C239.89 280.272 239.1 275.669 240.018 274.443H240.039Z" fill="white"/>
<path d="M1.17808 263.903C7.21542 263.903 11.5461 257.588 16.1754 248.103C24.2608 231.539 41.1567 223.512 50.2234 219.209C54.8101 217.035 56.5381 216.225 56.3247 214.837C56.1327 213.681 54.9594 213.195 48.6874 212.732C29.7861 211.344 -12.6246 230.892 -17.5099 245.605C-18.6406 249.005 -17.8086 252.105 -15.0779 254.534C-7.80327 261.081 -2.91793 263.857 1.1994 263.857L1.17808 263.903ZM-16.1019 246.183C-11.6433 232.742 27.7807 214.305 46.6607 214.305C47.3221 214.305 47.9621 214.305 48.5808 214.375C52.2714 214.652 53.9141 214.93 54.5754 215.161C53.7861 215.763 51.6741 216.757 49.6261 217.729C40.3887 222.101 23.1941 230.267 14.8527 247.34C9.60473 258.073 5.76475 262.261 1.17808 262.261C-2.55525 262.261 -7.14193 259.577 -14.1393 253.308C-16.3793 251.295 -17.0406 248.959 -16.1019 246.16V246.183Z" fill="white"/>
<path d="M19.0936 263.095C33.6216 234.387 60.1816 224.37 81.6856 218.841C83.7549 218.309 83.9469 217.152 83.8829 216.528C83.3709 211.855 63.2323 202.902 33.1736 202.902C29.7816 202.902 26.3043 203.018 22.8696 203.249C9.13094 204.152 -23.2531 224.925 -34.8797 240.309C-37.9091 244.311 -39.2744 247.619 -38.9544 250.187C-38.1437 256.572 -32.9171 259.394 -26.8371 262.679C-20.4157 266.149 -13.1411 270.082 -9.57841 279.242C-7.50907 284.586 -4.79974 287.293 -1.51441 287.293C4.05359 287.293 11.0083 279.15 19.1149 263.118L19.0936 263.095ZM-8.61841 278.78C-12.3091 269.226 -19.7757 265.177 -26.3677 261.615C-32.1704 258.492 -37.1837 255.785 -37.9091 250.002C-38.1864 247.804 -36.8637 244.704 -34.0691 241.026C-22.5704 225.827 9.40827 205.285 22.9336 204.406C26.3683 204.175 29.8029 204.059 33.1736 204.059C62.7203 204.059 82.4109 212.919 82.8163 216.667C82.8803 217.268 81.9843 217.592 81.4509 217.731C59.7336 223.306 32.9176 233.438 18.1762 262.54C5.93092 286.714 -3.26372 292.567 -8.59706 278.78H-8.61841Z" fill="white"/>
<path d="M300.257 460.874C301.387 460.874 302.369 460.018 303.201 458.353C307.361 449.909 307.275 420.669 296.246 402.879C294.817 400.566 292.747 400.867 291.169 403.781C287.03 411.508 285.281 436.075 296.566 457.52C297.739 459.741 298.977 460.874 300.235 460.874H300.257ZM292.47 404.591C293.025 403.573 293.601 402.949 294.049 402.949C294.433 402.949 294.817 403.457 295.009 403.781C305.547 420.807 305.782 449.655 301.878 457.589C301.345 458.654 300.769 459.255 300.257 459.255C299.595 459.255 298.721 458.33 297.867 456.71C287.03 436.099 288.587 411.832 292.47 404.591Z" fill="white"/>
<path d="M535.194 17.4977C519.77 17.4977 501.871 20.8058 482.927 24.299C458.948 28.7406 434.138 33.3209 406.554 33.3209C404.527 33.3209 402.522 33.2978 400.538 33.2515L395.844 33.1127C391.962 32.9971 388.314 32.8814 384.879 32.8814C354.991 32.8814 353.519 50.6941 351.94 69.5477C351.087 79.8883 350.191 90.5991 344.943 99.6905C343.066 102.929 338.031 107.047 332.676 111.396C321.306 120.649 308.42 131.152 314.607 140.983C317.274 145.217 320.474 147.345 324.122 147.345C326.127 147.345 328.303 146.697 330.564 145.425C340.655 139.781 351.428 123.078 360.09 109.661C364.996 102.05 369.242 95.4802 371.567 93.9534C373.999 92.3804 376.73 92.1721 379.055 92.1721C379.951 92.1721 380.868 92.2184 381.786 92.2415C382.724 92.2878 383.663 92.3109 384.58 92.3109C388.1 92.3109 391.812 91.8483 395.162 88.5402C399.194 84.5613 399.706 79.3794 400.196 74.3826C400.644 69.8947 401.05 65.6613 403.802 62.0757C412.122 51.2955 441.306 43.7541 460.612 38.7804C466.287 37.323 471.194 36.0507 474.863 34.9171C491.652 29.689 508.335 27.0518 524.399 27.0518C560.068 27.0518 588.591 39.7289 611.866 54.9043V53.5395C588.57 38.4566 560.047 25.8951 524.399 25.8951C508.228 25.8951 491.46 28.5555 474.564 33.8068C470.938 34.9403 466.031 36.2126 460.356 37.67C439.748 42.9907 411.524 50.2777 402.991 61.3585C400.026 65.1987 399.578 69.8254 399.13 74.2901C398.639 79.2869 398.17 84.0061 394.436 87.7074C391.343 90.761 387.866 91.1774 384.58 91.1774C383.663 91.1774 382.724 91.1311 381.807 91.108C380.89 91.0617 379.951 91.0386 379.034 91.0386C376.559 91.0386 373.658 91.2699 370.991 92.9818C368.474 94.6243 364.378 100.963 359.172 109.013C351.023 121.621 339.887 138.901 330.031 144.407C324.015 147.762 319.279 146.443 315.418 140.336C309.807 131.429 322.266 121.274 333.252 112.321C338.906 107.718 343.791 103.739 345.775 100.315C351.172 90.9924 352.068 80.1428 352.943 69.6634C354.522 50.5553 355.908 34.0381 384.815 34.0381C388.25 34.0381 391.898 34.1537 395.759 34.2694L400.452 34.4082C402.458 34.4545 404.463 34.4776 406.49 34.4776C434.18 34.4776 459.012 29.8741 483.055 25.4325C501.956 21.9393 519.791 18.6313 535.13 18.6313C543.343 18.6313 550.404 19.5797 556.719 21.5461C574.148 26.9361 592.559 36.5365 611.823 47.6173V46.2987C592.687 35.3104 574.383 25.8026 557.018 20.4357C550.596 18.4462 543.428 17.4746 535.13 17.4746L535.194 17.4977Z" fill="white"/>
<path d="M82.338 711.213C114.103 707.28 151.927 666.357 162.061 635.081C179.661 580.787 148.365 537.065 118.093 494.777C88.8873 453.97 61.282 415.43 74.7006 368.492C86.3913 327.616 124.151 305.547 153.741 305.547C169.698 305.547 183.479 311.677 192.589 322.827C203.405 336.059 207.65 356.162 204.877 380.961C195.341 466.161 192.503 559.365 280.098 586.848C290.146 589.994 300.066 591.59 309.602 591.59C346.487 591.59 370.018 568.688 383.266 549.464C408.674 512.613 417.506 457.486 405.218 412.307C394.807 373.998 374.306 336.823 342.583 298.699C295.415 242.022 231.159 193.304 146.167 149.72L142.498 147.823C106.743 129.479 69.7726 110.509 30.8393 100.053C28.5353 99.4285 25.9753 98.6882 23.2446 97.9017C11.2126 94.4317 -3.74205 90.1289 -16.5847 90.1289C-21.726 90.1289 -26.1847 90.846 -29.8114 92.2572C-35.358 94.4086 -38.4727 98.5263 -41.502 102.505C-43.7634 105.466 -46.0887 108.543 -49.4167 110.741C-51.5714 112.175 -55.7954 113.933 -60.2327 115.807C-67.422 118.814 -74.8887 121.937 -77.2354 124.945C-81.7794 130.728 -80.5207 134.198 -79.326 137.575C-78.4514 139.981 -77.6407 142.271 -78.7074 145.672L-79.5394 148.356C-83.8487 162.097 -90.9669 170.525 -100.894 173.64C-103.774 174.542 -107.358 175.676 -111.603 177.133C-123.87 181.367 -128.905 187.89 -133.769 194.206C-137.502 199.064 -141.043 203.644 -147.721 207.345C-147.891 207.345 -148.105 207.345 -148.318 207.345C-155.998 207.345 -214.238 211.51 -218.718 227.032C-219.913 231.219 -217.31 235.753 -210.931 240.542C-202.953 246.533 -196.915 247.227 -193.054 247.227C-191.177 247.227 -189.47 247.042 -187.827 246.88C-186.419 246.742 -185.097 246.603 -183.838 246.603C-179.145 246.603 -174.409 248.037 -167.923 265.41C-166.323 269.69 -165.086 273.183 -164.062 276.098C-159.027 290.394 -158.857 290.579 -146.078 296.501C-142.899 297.959 -138.953 299.786 -133.939 302.308C-117.47 310.543 -114.099 319.889 -109.833 331.733C-107.571 337.979 -105.011 345.081 -100.169 353.062C-94.9847 361.599 -88.9047 368.469 -83.0167 375.108C-72.5847 386.883 -62.7287 398.01 -59.5927 416.586C-54.1527 448.765 -70.2594 479.486 -88.478 507.894C-97.31 521.681 -115.465 537.713 -134.686 554.692C-167.326 583.517 -204.318 616.204 -204.446 646.462C-204.531 663.743 -200.435 676.998 -192.286 685.882C-183.411 695.551 -169.929 700.247 -151.049 700.247C-123.678 700.247 -90.0567 690.231 -60.382 681.417C-37.022 674.477 -16.8407 668.462 -3.95538 668.462C-1.03272 668.462 1.44195 668.786 3.38329 669.411C15.8206 673.413 25.6766 681.972 35.234 690.254C47.8846 701.242 59.8526 711.606 76.9406 711.606C78.69 711.606 80.482 711.49 82.274 711.282L82.338 711.213ZM3.87398 667.791C1.74064 667.097 -0.798053 666.773 -3.89139 666.773C-16.9901 666.773 -37.2567 672.811 -60.7234 679.774C-90.3127 688.565 -123.849 698.559 -151.006 698.559C-169.459 698.559 -182.601 694.025 -191.177 684.679C-199.027 676.119 -202.974 663.257 -202.91 646.416C-202.782 616.921 -166.089 584.488 -133.705 555.895C-114.398 538.846 -96.1794 522.745 -87.2194 508.773C-68.83 480.064 -52.5527 448.996 -58.0994 416.24C-61.3207 397.178 -71.326 385.889 -81.9074 373.929C-87.7527 367.336 -93.79 360.511 -98.8887 352.114C-103.646 344.272 -106.185 337.285 -108.403 331.086C-112.798 318.894 -116.275 309.294 -133.278 300.781C-138.313 298.259 -142.281 296.432 -145.459 294.951C-153.68 291.142 -159.411 284.642 -162.654 275.45C-163.678 272.535 -164.915 269.019 -166.515 264.739C-172.723 248.153 -177.566 244.914 -183.817 244.914C-185.139 244.914 -186.505 245.053 -187.955 245.215C-189.555 245.377 -191.219 245.562 -193.033 245.562C-197.001 245.562 -202.505 244.845 -210.057 239.177C-215.838 234.851 -218.249 230.918 -217.267 227.495C-213.385 214.008 -159.091 208.942 -148.297 208.942C-148.041 208.942 -147.87 208.942 -147.763 208.942L-147.593 208.201L-147.273 208.919C-140.19 205.032 -136.329 200.059 -132.617 195.224C-127.667 188.816 -122.995 182.755 -111.134 178.66C-106.91 177.203 -103.347 176.092 -100.467 175.19C-84.958 170.332 -84.766 170.078 -78.11 148.864L-77.278 146.181C-76.0407 142.225 -77.0434 139.449 -77.918 136.974C-79.07 133.782 -80.0514 131.029 -76.0834 125.986C-73.9714 123.302 -66.3767 120.11 -59.678 117.311C-55.1554 115.414 -50.8887 113.632 -48.606 112.129C-45.0647 109.792 -42.654 106.623 -40.3287 103.546C-37.2994 99.5673 -34.4407 95.7966 -29.2994 93.8071C-25.822 92.4654 -21.534 91.7714 -16.5634 91.7714C-3.91269 91.7714 10.9353 96.051 22.882 99.4979C25.6126 100.284 28.1726 101.025 30.498 101.649C69.282 112.059 106.189 131.005 141.879 149.304L145.549 151.201C230.349 194.668 294.455 243.272 341.495 299.786C373.069 337.725 393.463 374.692 403.81 412.77C415.97 457.486 407.245 512.035 382.093 548.493C369.037 567.416 345.869 589.971 309.623 589.971C300.237 589.971 290.466 588.398 280.546 585.275C194.082 558.162 196.919 465.699 206.391 381.146C209.229 355.885 204.855 335.342 193.741 321.763C184.354 310.266 170.167 303.95 153.783 303.95C123.661 303.95 85.2179 326.413 73.3139 368.053C59.6606 415.777 88.7806 456.468 116.962 495.818C146.978 537.759 178.039 581.134 160.695 634.595C150.69 665.432 113.442 705.799 82.2099 709.663C80.4606 709.871 78.7326 709.987 77.0473 709.987C60.4713 709.987 48.7166 699.785 36.258 688.981C26.6153 680.607 16.6313 671.955 3.91662 667.838L3.87398 667.791Z" fill="white"/>
<path d="M283.758 -130H282.286C279.641 -126.946 277.358 -124.147 275.651 -121.603C252.121 -86.9257 241.689 -54.9092 243.758 -23.7255C244.569 -11.6036 243.182 -3.57634 239.555 0.818995C237.251 3.61813 233.945 4.95986 229.486 4.95986C223.278 4.95986 215.619 2.39207 207.534 -0.314534C200.174 -2.7898 192.579 -5.33447 185.411 -6.1904C180.014 -6.83814 174.617 -7.13887 168.878 -7.13887C150.809 -7.13887 133.614 -4.01587 115.438 -0.707805C112.387 -0.152605 109.315 0.402598 106.222 0.957798L105.987 1.00407C99.6086 2.1376 92.3766 3.40993 85.3366 3.40993C72.0246 3.40993 63.5126 -1.37867 59.2886 -11.2335C50.4779 -31.799 52.9526 -56.5748 55.1073 -78.4127C55.4059 -81.3506 55.6832 -84.2654 55.9606 -87.1339C57.4112 -103.096 59.9499 -117.3 63.7046 -129.977H62.5739C58.8619 -117.3 56.3446 -103.142 54.8939 -87.2496C54.6379 -84.3811 54.3392 -81.4663 54.0619 -78.5283C51.8859 -56.5285 49.3899 -31.5908 58.3286 -10.7245C62.7446 -0.430201 71.5766 4.58973 85.3366 4.58973C92.4619 4.58973 99.7366 3.29426 106.158 2.18386L106.393 2.13759C109.486 1.58239 112.558 1.0272 115.609 0.472C133.742 -2.81293 150.873 -5.93593 168.878 -5.93593C174.574 -5.93593 179.929 -5.6352 185.283 -4.98747C192.366 -4.15467 199.918 -1.61 207.214 0.842133C215.385 3.595 223.107 6.18593 229.486 6.18593C234.265 6.18593 237.827 4.7054 240.345 1.6518C244.163 -2.97487 245.635 -11.2797 244.803 -23.7486C242.777 -54.6316 253.123 -86.3937 276.505 -120.862C278.339 -123.569 280.835 -126.623 283.758 -129.954V-130Z" fill="white"/>
<path d="M276.725 45.5961C269.493 51.1249 259.594 53.8315 246.453 53.8315C231.029 53.8315 213.749 50.0839 198.538 46.7759C189.557 44.8327 181.087 42.982 174.154 42.1955C170.762 41.8022 161.653 40.9 150.431 40.9C129.653 40.9 102.986 43.9536 94.0475 58.5045C90.1435 64.8199 89.9941 72.7777 93.5781 82.1236C95.2635 86.5189 99.6154 88.9017 103.818 91.215C107.146 93.0425 110.581 94.9163 112.501 97.7386C114.762 101.07 116.106 105.743 117.386 110.277C119.114 116.292 120.885 122.514 124.917 126.193C129.93 130.75 135.413 132.878 142.218 132.878C146.933 132.878 151.754 131.837 156.405 130.842C161.013 129.848 165.77 128.83 170.378 128.83C174.986 128.83 178.634 129.778 182.133 131.721C190.602 136.464 194.186 142.849 197.621 149.002C202.122 157.052 206.367 164.64 220.362 168.203C249.653 175.629 257.695 183.401 277.087 202.162C279.583 204.591 282.271 207.182 285.215 209.982C292.191 216.621 297.354 224.209 302.346 231.542C306.783 238.089 311.391 244.843 317.322 251.043C324.597 258.654 331.466 262.032 338.101 265.293C346.933 269.642 355.295 273.76 362.869 287.871L364.042 290.092C373.578 307.951 383.199 324.492 389.13 324.492C390.09 324.492 390.901 324.098 391.583 323.289C393.717 320.744 394.293 314.012 393.354 302.7C392.799 296.061 388.383 290.139 384.095 284.401C379.487 278.225 375.135 272.372 375.391 265.918C375.711 258.191 380.021 254.374 384.586 250.349C387.935 247.411 391.391 244.358 393.418 239.615C398.282 228.257 399.455 218.101 400.607 208.27C402.186 194.575 403.679 181.666 414.986 167.046C435.189 140.882 463.541 121.126 494.815 111.387C505.226 108.149 514.869 106.576 524.277 106.576C556.234 106.576 579.146 125.429 603.423 145.37C606.175 147.637 608.949 149.904 611.743 152.171V150.159C609.247 148.123 606.773 146.11 604.319 144.098C579.85 123.972 556.725 104.979 524.277 104.979C514.719 104.979 504.949 106.576 494.389 109.86C462.837 119.669 434.229 139.61 413.813 166.028C402.229 181.019 400.714 194.158 399.093 208.085C397.962 217.801 396.81 227.84 392.031 238.944C390.154 243.34 386.826 246.255 383.626 249.1C378.997 253.171 374.218 257.405 373.877 265.872C373.599 272.927 378.335 279.289 382.901 285.442C387.039 290.994 391.306 296.732 391.818 302.862C392.927 316.187 391.69 320.744 390.431 322.201C390.047 322.664 389.621 322.872 389.087 322.872C383.221 322.872 370.655 299.322 365.301 289.283L364.106 287.062C356.298 272.511 347.722 268.301 338.677 263.813C332.149 260.597 325.407 257.266 318.325 249.863C312.501 243.779 307.935 237.071 303.519 230.57C298.485 223.168 293.279 215.51 286.175 208.755C283.231 205.956 280.543 203.365 278.047 200.936C258.442 181.967 250.335 174.125 220.661 166.607C207.263 163.206 203.167 155.896 198.858 148.146C195.295 141.784 191.626 135.215 182.773 130.264C179.061 128.182 175.007 127.187 170.335 127.187C165.663 127.187 160.757 128.228 156.085 129.223C151.498 130.218 146.741 131.213 142.175 131.213C135.754 131.213 130.57 129.2 125.834 124.897C122.143 121.52 120.415 115.528 118.773 109.722C117.45 105.072 116.063 100.26 113.653 96.6976C111.541 93.5746 107.935 91.6083 104.458 89.6882C100.319 87.4211 96.3941 85.2697 94.9221 81.4296C91.5514 72.6158 91.6581 65.1669 95.2634 59.3141C103.861 45.3647 129.994 42.4268 150.41 42.4268C161.567 42.4268 170.591 43.329 173.962 43.7223C180.81 44.5088 189.258 46.3595 198.197 48.2795C213.493 51.6107 230.837 55.3583 246.41 55.3583C259.871 55.3583 270.047 52.5592 277.535 46.8221C296.202 32.5026 290.847 10.9192 285.663 -9.94706C280.138 -32.2476 274.421 -55.3115 297.418 -70.3482C300.17 -72.1526 303.861 -73.0779 308.362 -73.0779C322.122 -73.0779 341.493 -64.935 360.223 -57.0465C376.543 -50.1759 391.946 -43.6986 401.973 -43.4441C403.423 -43.3979 404.853 -43.3979 406.303 -43.3979C427.85 -43.3979 449.631 -47.4231 470.709 -51.3326C491.743 -55.219 513.482 -59.2442 534.943 -59.2442C549.962 -59.2442 563.53 -57.301 576.394 -53.3221C588.298 -49.6439 600.031 -44.7627 611.637 -39.2107V-40.9689C600.181 -46.4515 588.575 -51.2401 576.799 -54.872C563.786 -58.8972 550.09 -60.8635 534.943 -60.8635C513.354 -60.8635 491.53 -56.8383 470.453 -52.9288C449.439 -49.0424 427.722 -45.0172 406.303 -45.0172C404.853 -44.9709 403.445 -45.0172 401.994 -45.0635C392.223 -45.3179 376.949 -51.749 360.757 -58.5502C341.898 -66.4849 322.399 -74.6973 308.362 -74.6973C303.498 -74.6973 299.679 -73.7257 296.629 -71.7362C272.671 -56.0518 278.538 -32.4095 284.213 -9.53066C289.482 11.752 294.474 31.8317 276.661 45.5035L276.725 45.5961Z" fill="white"/>
</g>
</g>
<defs>
<clipPath id="clip0_1320_156052">
<rect width="343" height="911" fill="white"/>
</clipPath>
<clipPath id="clip1_1320_156052">
<rect width="960" height="1041" fill="white" transform="translate(-348 -130)"/>
</clipPath>
</defs>
</svg>
