<svg width="244" height="104" viewBox="0 0 244 104" fill="none" xmlns="http://www.w3.org/2000/svg">
<path d="M81.5904 37.3566V67.2745L83.9255 67.7419V69.6118H72.4833V67.7419L74.8185 67.2745V53.7179H60.1071V67.2745L62.4422 67.7419V69.6118H51V67.7419L53.3351 67.2745V37.3566L51 36.6554V35.0193H62.4422V36.8891L60.1071 37.3566V49.9782H74.8185V37.3566L72.4833 36.6554V35.0193H83.9255V36.8891L81.5904 37.3566ZM89.0628 46.4722L91.1645 46.9397V67.7419L89.0628 67.9757V69.6118H99.8045V67.9757L97.9364 67.7419V45.0698H89.0628V46.4722ZM94.6905 33.5C92.6356 33.5 90.9543 35.2764 90.9543 37.4735C90.9543 39.6706 92.6356 41.4469 94.6905 41.4469C96.7454 41.4469 98.4268 39.6706 98.4268 37.4735C98.4268 35.2997 96.7688 33.5 94.6905 33.5ZM104.662 35.627L106.576 35.9542V67.6251L104.662 67.9757V69.6118H115.333V67.9757L113.185 67.7419V34.0843H104.662V35.627ZM132.146 66.994C129.578 66.994 128.293 65.4046 128.293 62.8335C128.293 61.4078 128.293 53.8582 128.293 47.4539H134.014V45.0698H128.293C128.293 41.0963 128.293 38.0578 128.293 38.0578L121.988 39.9277V45.0698H117.435V47.4539H121.988V64.6333C121.988 68.1393 123.81 70.0325 127.779 70.0325C131.749 70.0325 135.906 68.186 135.906 68.186V66.6668C135.882 66.6902 134.715 66.994 132.146 66.994ZM162.877 57.4577C162.877 62.9504 159.771 70.5 149.636 70.5C142.164 70.5 136.91 66.8538 136.91 58.0186C136.91 52.2922 139.432 44.3452 149.917 44.3452C160.401 44.3452 162.877 51.6611 162.877 57.4577ZM155.778 57.4343C155.778 51.7312 154.33 46.332 149.893 46.332C145.457 46.332 143.845 50.9365 143.845 57.7382C143.845 62.0856 144.873 68.5366 149.893 68.5366C154.914 68.5133 155.778 62.2258 155.778 57.4343ZM166.496 46.6826L168.808 46.9397V67.6251L166.496 68.0925V69.7521H177.471V68.1393L175.089 67.7653V50.3054C175.089 50.3054 176.817 48.1551 180.227 48.1551C183.613 48.1551 184.453 50.9131 184.453 53.4608C184.453 55.9852 184.453 67.8121 184.453 67.8121L182.422 68.0692V69.7521H193V68.0224L190.922 67.7186C190.922 67.7186 190.922 55.7047 190.922 52.3155C190.922 48.9264 189.381 44.5556 184.056 44.5556C178.732 44.5556 175.113 48.3187 175.113 48.3187V44.9763H166.473V46.6826H166.496Z" fill="#333333"/>
</svg>
