<svg width="244" height="104" viewBox="0 0 244 104" fill="none" xmlns="http://www.w3.org/2000/svg">
<path d="M70.062 62.47C70.0537 62.5166 70.0601 62.5646 70.0802 62.6075C70.1003 62.6503 70.1332 62.6858 70.1743 62.7091C70.2154 62.7324 70.2627 62.7423 70.3097 62.7375C70.3567 62.7327 70.401 62.7133 70.4365 62.6822C77.3561 56.2899 82.9678 48.9402 87.2715 40.633C89.7219 35.9 91.1547 27.7315 82.3301 29.3391C75.2151 30.6447 65.6009 34.7167 60.6432 40.2494C60.5795 40.323 60.4893 40.3682 60.3924 40.3751C60.2954 40.382 60.1997 40.35 60.1263 40.2861C60.0529 40.2223 60.0078 40.1318 60.0009 40.0347C59.994 39.9375 60.026 39.8415 60.0897 39.768C66.2929 32.3801 74.5367 27.3153 84.8212 24.5734C86.7912 24.043 91.7489 23.5534 93.5399 24.6958C98.9616 28.164 94.0772 36.5365 91.6757 40.331C84.1862 52.1689 74.6181 62.0429 62.9715 69.953C62.9214 69.9849 62.863 70.0012 62.8036 69.9999C62.7443 69.9987 62.6867 69.9798 62.638 69.9458C62.5893 69.9118 62.5517 69.8642 62.5299 69.8088C62.5081 69.7535 62.5032 69.6929 62.5156 69.6348L68.784 42.8281C68.8016 42.7533 68.8029 42.6755 68.7876 42.6C68.7723 42.5245 68.7408 42.453 68.6953 42.3904C68.6498 42.3278 68.5913 42.2755 68.5238 42.2369C68.4562 42.1984 68.3812 42.1746 68.3037 42.1671L66.3824 42.0121C66.2752 42.0052 66.1733 41.9631 66.0923 41.8923C66.0114 41.8215 65.956 41.7259 65.9347 41.6204C65.7312 40.6656 66.3824 40.1678 67.3023 40.2331C71.0308 40.5106 74.7592 40.497 78.4877 40.1923C78.5736 40.186 78.6596 40.2022 78.7373 40.2393C78.815 40.2765 78.8818 40.3332 78.931 40.4039C78.9803 40.4747 79.0103 40.5571 79.0183 40.643C79.0262 40.729 79.0117 40.8155 78.9761 40.8941L78.5854 41.7591C78.4443 42.0637 78.2109 42.1807 77.8853 42.11C76.1377 41.7237 75.0198 42.4745 74.5313 44.3622C72.952 50.4335 71.4623 56.4694 70.062 62.47Z" fill="#333333"/>
<path d="M110.082 41.1294C108.877 40.2676 108.134 38.8479 108.016 37.1828C107.899 35.5177 108.417 33.7435 109.456 32.2505C109.97 31.5112 110.597 30.8632 111.301 30.3435C112.004 29.8238 112.771 29.4426 113.557 29.2216C114.343 29.0006 115.132 28.9442 115.88 29.0555C116.629 29.1669 117.321 29.4438 117.918 29.8706C119.123 30.7324 119.866 32.1521 119.984 33.8172C120.101 35.4823 119.583 37.2565 118.544 38.7495C118.03 39.4888 117.403 40.1368 116.699 40.6565C115.996 41.1762 115.229 41.5574 114.443 41.7784C113.657 41.9994 112.868 42.0558 112.12 41.9445C111.371 41.8331 110.679 41.5562 110.082 41.1294ZM112.874 40.9467C113.629 41.1067 114.474 40.6805 115.22 39.7617C115.967 38.8429 116.556 37.5068 116.857 36.0475C117.158 34.5881 117.146 33.125 116.824 31.9799C116.503 30.8348 115.898 30.1016 115.142 29.9416C114.386 29.7816 113.542 30.2079 112.795 31.1267C112.048 32.0455 111.46 33.3815 111.159 34.8409C110.858 36.3003 110.87 37.7634 111.191 38.9085C111.513 40.0535 112.118 40.7867 112.874 40.9467Z" fill="#333333"/>
<path d="M128.847 42.1034C128.911 42.1268 128.966 42.1701 129.006 42.2273C129.045 42.2844 129.066 42.3524 129.066 42.4217C129.066 42.4909 129.045 42.5579 129.006 42.613C128.966 42.6681 128.911 42.7085 128.847 42.7286L128.457 42.8619C128.29 42.9231 128.12 42.9397 127.947 42.9119C126.044 42.6452 124.15 42.6702 122.263 42.987C122.14 43.0168 122.01 42.9949 121.902 42.9262C121.794 42.8574 121.717 42.7473 121.688 42.6202C121.659 42.4931 121.68 42.3593 121.747 42.2483C121.814 42.1373 121.921 42.0582 122.044 42.0284L123.471 41.5866C123.779 41.4921 123.96 41.2809 124.014 40.9531L125.636 31.8005C125.69 31.5115 125.585 31.3115 125.32 31.2003C123.179 30.3001 122.936 32.3923 121.68 33.426C121.608 33.483 121.52 33.5147 121.429 33.5165C121.339 33.5182 121.25 33.4898 121.176 33.4355C121.102 33.3812 121.048 33.3039 121.02 33.2151C120.992 33.1263 120.993 33.0307 121.023 32.9425L121.915 30.3584C122.001 30.1195 122.166 30 122.409 30H132.73C132.957 30 133.041 30.1139 132.981 30.3418L132.179 33.3676C132.151 33.4841 132.083 33.5854 131.987 33.6526C131.891 33.7199 131.774 33.7486 131.658 33.7333C131.542 33.718 131.435 33.6598 131.356 33.5695C131.277 33.4793 131.233 33.3631 131.23 33.2426L131.206 31.7422C131.202 31.5937 131.144 31.4522 131.043 31.3456C130.943 31.2391 130.807 31.1753 130.663 31.167L128.968 31.067C128.617 31.0447 128.414 31.2115 128.36 31.5671L126.958 41.0364C126.92 41.2921 127.02 41.4615 127.258 41.5449L128.847 42.1034Z" fill="#333333"/>
<path d="M137.334 41.6113C139.895 42.5036 141.767 41.8456 142.948 39.6371C143.017 39.5231 143.126 39.4394 143.254 39.4029C143.381 39.3665 143.518 39.3802 143.634 39.4411C143.751 39.502 143.84 39.6056 143.883 39.7307C143.925 39.8558 143.918 39.9929 143.863 40.1139L142.693 42.4897C142.639 42.6008 142.555 42.6946 142.452 42.761C142.349 42.8274 142.23 42.8637 142.107 42.8661L132.363 43C132.121 43 132 42.8801 132 42.6403C132 42.5678 132 42.4925 132 42.4144C132 42.3586 132.027 42.3224 132.082 42.3057L133.583 41.787C133.733 41.7336 133.866 41.6411 133.969 41.5192C134.072 41.3972 134.14 41.25 134.168 41.0927L135.644 32.0077C135.693 31.7177 135.592 31.5002 135.339 31.3552L134.242 30.7027C134.171 30.6612 134.116 30.5968 134.084 30.5198C134.053 30.4428 134.048 30.3574 134.07 30.277C134.091 30.1967 134.139 30.1259 134.204 30.0758C134.27 30.0256 134.35 29.999 134.432 30L143.55 30.0168C143.619 30.0173 143.686 30.0335 143.747 30.0642C143.809 30.0949 143.862 30.1393 143.904 30.194C143.946 30.2487 143.976 30.3124 143.99 30.3802C144.004 30.448 144.003 30.5182 143.987 30.5856L143.369 33.2458C143.349 33.3381 143.299 33.4207 143.226 33.4797C143.153 33.5386 143.063 33.5702 142.97 33.5693C142.877 33.5683 142.787 33.5347 142.715 33.4743C142.644 33.4138 142.595 33.3302 142.577 33.2375L142.256 31.7317C142.228 31.5962 142.155 31.4739 142.047 31.3845C141.939 31.295 141.804 31.2435 141.662 31.2381L139.115 31.1796C138.983 31.1768 138.854 31.2212 138.751 31.3051C138.647 31.389 138.575 31.5072 138.546 31.6397L137.853 35.1615C137.838 35.239 137.839 35.319 137.858 35.396C137.876 35.473 137.91 35.5453 137.959 35.608C138.007 35.6706 138.068 35.7222 138.139 35.7592C138.209 35.7962 138.286 35.8177 138.365 35.8224L140.343 35.9395C140.459 35.9468 140.574 35.9145 140.67 35.8478C140.765 35.7811 140.836 35.6838 140.871 35.5714C141.052 35.0249 141.39 34.6401 141.885 34.417C141.949 34.3872 142.02 34.3761 142.091 34.3852C142.161 34.3943 142.227 34.423 142.282 34.4683C142.337 34.5135 142.378 34.5734 142.401 34.6412C142.424 34.709 142.428 34.782 142.413 34.852L141.712 38.1898C141.691 38.2761 141.644 38.3535 141.578 38.4109C141.511 38.4683 141.428 38.5028 141.341 38.5093C141.254 38.5158 141.167 38.4941 141.093 38.4472C141.019 38.4003 140.961 38.3307 140.929 38.2484C140.45 36.9992 139.453 36.6645 137.936 37.2445C137.738 37.3226 137.62 37.4704 137.581 37.6879L137.013 41.0508C136.992 41.1689 137.013 41.2904 137.072 41.3932C137.131 41.4961 137.224 41.5734 137.334 41.6113Z" fill="#333333"/>
<path d="M147.916 41.6197L148.672 42.0007C148.907 42.1167 148.995 42.3044 148.935 42.5639C148.858 42.9062 148.647 43.047 148.302 42.9863C146.846 42.7212 145.596 42.7102 144.55 42.9531C144.484 42.9681 144.415 42.9678 144.349 42.9522C144.283 42.9366 144.221 42.9062 144.168 42.8633C144.115 42.8203 144.073 42.7658 144.044 42.704C144.015 42.6421 144 42.5744 144 42.5059C144 42.4341 144 42.3651 144 42.2989C144 42.1222 144.085 42.0173 144.255 41.9842C145.273 41.7854 145.839 41.4541 146.365 40.4934C148.138 37.2469 149.895 33.9976 151.636 30.7455C151.882 30.2817 152.243 30.0388 152.72 30.0167C152.972 30.0027 153.221 30.0826 153.42 30.2414C153.618 30.4001 153.751 30.6266 153.795 30.878C154.31 33.9092 154.843 36.9515 155.396 40.0048C155.692 41.6529 156.308 41.9593 157.884 41.9262C158.7 41.9096 159.176 41.4928 159.313 40.6756L160.741 31.847C160.762 31.7205 160.738 31.5909 160.676 31.4794C160.613 31.368 160.515 31.2815 160.397 31.2341L159.346 30.82C159.307 30.8052 159.274 30.7791 159.251 30.7451C159.228 30.7112 159.215 30.6709 159.214 30.6296V30.3977C159.214 30.1492 159.337 30.025 159.584 30.025L164.962 30.0001C165.033 29.9981 165.102 30.0207 165.159 30.064C165.216 30.1073 165.256 30.1688 165.273 30.2384C165.29 30.3079 165.284 30.3813 165.254 30.4464C165.224 30.5116 165.173 30.5645 165.11 30.5964C163.424 31.5019 162.805 33.023 163.254 35.1598C163.272 35.2387 163.319 35.3074 163.387 35.3509C163.455 35.3943 163.537 35.409 163.615 35.3917C171.202 33.7601 170.545 43.2596 163.073 42.9035C159.247 42.7213 155.372 42.8869 151.529 42.8289C151.45 42.8248 151.374 42.7945 151.314 42.7427C151.253 42.6909 151.211 42.6204 151.195 42.5422C151.178 42.464 151.187 42.3824 151.221 42.31C151.254 42.2376 151.311 42.1784 151.381 42.1415L152.26 41.7026C152.375 41.645 152.469 41.5525 152.53 41.4382C152.59 41.3238 152.613 41.1933 152.597 41.0649L151.652 33.8927C151.645 33.8225 151.616 33.7564 151.568 33.7047C151.521 33.653 151.458 33.6184 151.389 33.6062C151.32 33.5939 151.249 33.6048 151.187 33.6371C151.125 33.6694 151.075 33.7213 151.045 33.785L147.621 40.7419C147.429 41.1339 147.528 41.4265 147.916 41.6197ZM162.737 36.8328L162.121 40.982C162.093 41.1828 162.144 41.3868 162.264 41.5496C162.384 41.7124 162.563 41.8209 162.761 41.8516L163.04 41.9013C163.384 41.9538 163.735 41.9354 164.073 41.8472C164.412 41.7589 164.73 41.6026 165.011 41.3872C165.291 41.1718 165.529 40.9015 165.709 40.5918C165.889 40.2821 166.009 39.9391 166.062 39.5824L166.103 39.3422C166.157 38.9858 166.143 38.6225 166.061 38.273C165.979 37.9235 165.831 37.5947 165.626 37.3054C165.421 37.0162 165.162 36.7721 164.865 36.5873C164.568 36.4024 164.238 36.2804 163.894 36.2282L163.607 36.1868C163.508 36.1715 163.407 36.1761 163.309 36.2003C163.212 36.2245 163.12 36.2678 163.039 36.3278C162.958 36.3878 162.89 36.4633 162.838 36.5499C162.786 36.6366 162.752 36.7327 162.737 36.8328Z" fill="#333333"/>
<path d="M86.1846 53.8031C86.2017 53.7491 86.1992 53.6907 86.1777 53.6384C86.1562 53.586 86.117 53.5431 86.0671 53.5174C86.0173 53.4916 85.96 53.4847 85.9056 53.4978C85.8511 53.5109 85.803 53.5432 85.7699 53.5889C79.0866 61.7014 71.4519 68.4462 62.866 73.8233C57.9958 76.8799 47.3772 81.9715 42.7834 76.7481C36.3603 69.4403 48.9708 51.5951 54.0281 45.9021C54.3912 45.4902 54.749 45.2348 55.1013 45.1359C55.5458 45.0096 55.6217 45.1277 55.329 45.4902C51.1119 50.7356 48.1036 56.5631 46.304 62.9729C41.9378 78.5194 58.8902 74.4989 65.9394 69.9182C76.8019 62.8493 86.4692 50.9937 93.9493 40.2421C93.994 40.1791 94.0506 40.1258 94.1158 40.0853C94.1809 40.0448 94.2532 40.018 94.3283 40.0064C94.4035 39.9949 94.4799 39.9989 94.5531 40.0181C94.6263 40.0374 94.6947 40.0715 94.7543 40.1185C94.9982 40.3053 95.0605 40.6046 94.9413 41.0165C92.7568 48.5742 90.9112 56.2116 89.4043 63.9286C89.0141 65.9306 89.9247 66.911 91.9085 66.2601C91.9677 66.2405 92.0304 66.2343 92.0923 66.2421C92.1542 66.2498 92.2138 66.2712 92.2671 66.3049C92.3204 66.3385 92.3661 66.3836 92.4011 66.4371C92.436 66.4905 92.4594 66.551 92.4696 66.6144C92.6403 67.636 92.063 68.1798 91.0792 68.188C87.2416 68.2265 83.3985 68.232 79.55 68.2045C79.2844 68.199 79.1327 68.0644 79.0947 67.8008C79.0242 67.3175 79.1543 66.9412 79.485 66.6721C79.6855 66.5073 80.0243 66.4167 80.5013 66.4002C81.2547 66.3837 81.9919 66.2656 82.7128 66.0459C83.0272 65.9526 83.2223 65.7466 83.2982 65.428L86.1846 53.8031Z" fill="#333333"/>
<path d="M170.978 62.0364C171.524 68.5217 178.789 69.7788 182.206 64.6838C182.416 64.373 182.65 64.3508 182.909 64.6172L183.166 64.867C183.22 64.9207 183.255 64.9918 183.264 65.0688C183.273 65.1459 183.256 65.2243 183.216 65.2916C178.516 73.4501 164.722 70.6529 166.096 59.6305C166.829 53.7197 170.305 50.2204 176.522 49.1326C178.698 48.7496 181.147 49.2908 183.414 49.5655C183.512 49.5782 183.605 49.6122 183.688 49.6648C183.771 49.7175 183.842 49.7876 183.895 49.8702C183.947 49.9528 183.982 50.0459 183.994 50.1429C184.007 50.2399 183.998 50.3383 183.969 50.4313C183.621 51.5746 183.381 52.8095 183.249 54.136C183.232 54.2914 183.188 54.4218 183.116 54.5272C183 54.7048 182.904 54.8103 182.827 54.8436C182.719 54.8954 182.599 54.919 182.48 54.9121C182.36 54.9052 182.244 54.8681 182.143 54.8041C182.041 54.7402 181.958 54.6516 181.899 54.5464C181.841 54.4413 181.81 54.323 181.809 54.2026C181.792 51.2943 180.248 50.0261 177.175 50.398C171.913 51.039 170.605 57.6242 170.978 62.0364Z" fill="#333333"/>
<path d="M118.11 58.1129C123.365 57.9029 125.473 46.6097 129.974 49.4613C130.158 49.5798 130.358 49.6094 130.574 49.5501C133.104 48.8877 136.818 49.4694 139.551 49.227C139.636 49.22 139.721 49.2346 139.798 49.2693C139.876 49.3041 139.944 49.3578 139.995 49.4256C140.046 49.4934 140.079 49.573 140.09 49.657C140.102 49.7409 140.092 49.8264 140.062 49.9056C139.856 50.4387 139.454 50.6703 138.854 50.6003C138.726 50.5853 138.597 50.6027 138.479 50.6511C138.36 50.6994 138.256 50.7771 138.175 50.8769C138.094 50.9767 138.04 51.0955 138.017 51.2222C137.993 51.3489 138.002 51.4795 138.043 51.602L140.54 59.3004C140.568 59.3911 140.622 59.4714 140.696 59.5307C140.77 59.59 140.861 59.6255 140.956 59.6325C141.051 59.6395 141.145 59.6177 141.228 59.5699C141.31 59.5222 141.375 59.4507 141.416 59.365L145 52.1028C145.081 51.9367 145.116 51.7521 145.1 51.5681C145.085 51.3842 145.021 51.2076 144.914 51.0568C144.808 50.9059 144.662 50.7863 144.493 50.7103C144.325 50.6343 144.138 50.6047 143.954 50.6245C143.37 50.6945 143.014 50.4468 142.884 49.8813C142.868 49.8163 142.867 49.7484 142.881 49.6829C142.895 49.6175 142.924 49.556 142.965 49.5032C143.007 49.4503 143.06 49.4075 143.12 49.3779C143.18 49.3482 143.246 49.3326 143.314 49.332L167.65 49.3966C167.947 49.3966 168.055 49.5367 167.974 49.8167L166.62 54.5505C166.583 54.6813 166.501 54.795 166.388 54.872C166.276 54.949 166.14 54.9843 166.004 54.9718C165.868 54.9593 165.741 54.8998 165.645 54.8037C165.548 54.7075 165.489 54.5808 165.476 54.4455L165.233 51.7231C165.217 51.5602 165.144 51.4081 165.027 51.2931C164.91 51.178 164.756 51.1073 164.592 51.093L161.657 50.8588C161.465 50.8442 161.274 50.9018 161.124 51.0203C160.973 51.1387 160.874 51.309 160.846 51.497L158.6 66.3526C158.574 66.527 158.618 66.7045 158.723 66.8466C158.828 66.9887 158.984 67.084 159.159 67.1119L161.389 67.4512C161.611 67.4835 161.705 67.6101 161.673 67.8309L161.641 68.0813C161.592 68.4206 161.395 68.5902 161.049 68.5902H150.985C150.709 68.5902 150.58 68.4502 150.596 68.1701C150.628 67.6316 150.963 67.3623 151.601 67.3623C153.28 67.3542 153.945 66.7161 154.245 65.052C155.056 60.539 155.84 56.0907 156.597 51.707C156.616 51.5973 156.612 51.4847 156.584 51.3766C156.556 51.2686 156.505 51.1677 156.435 51.0805C156.364 50.9933 156.275 50.922 156.175 50.8712C156.074 50.8205 155.963 50.7914 155.851 50.7861C153.256 50.6838 151.585 51.8955 150.839 54.4212C150.815 54.5051 150.766 54.5799 150.698 54.636C150.63 54.6922 150.546 54.7271 150.458 54.7363L149.785 54.8009C149.706 54.8092 149.627 54.7972 149.555 54.7658C149.483 54.7344 149.42 54.6848 149.372 54.6217C149.324 54.5586 149.293 54.484 149.281 54.4051C149.27 54.3262 149.278 54.2455 149.306 54.1708L150.636 50.6488C150.761 50.3256 150.653 50.1964 150.312 50.261C148.414 50.6407 147.23 51.2708 146.322 53.1045C144.173 57.4586 138.854 68.4206 133.518 69.9554C133.348 70.0051 133.169 70.0134 132.996 69.9796C132.824 69.9458 132.663 69.871 132.528 69.7615C131.544 68.9591 131.155 67.8955 131.361 66.5707C131.377 66.459 131.422 66.3533 131.49 66.2634C131.559 66.1735 131.649 66.1023 131.753 66.0564C131.856 66.0105 131.97 65.9913 132.082 66.0007C132.195 66.0101 132.304 66.0478 132.399 66.1102C134.491 67.4835 136.175 67.1308 137.451 65.052C137.522 64.9345 137.569 64.8034 137.587 64.6672C137.605 64.5309 137.594 64.3924 137.556 64.2603C136.394 60.4421 135.177 56.6615 133.907 52.9187C133.307 51.1496 132.399 50.4306 130.606 50.1802C130.417 50.1533 130.287 50.2314 130.217 50.4145L129.431 52.4421C129.29 52.8083 129.044 52.9106 128.693 52.7491L127.184 52.0705C127.052 52.0105 126.905 51.9954 126.765 52.0276C126.625 52.0599 126.502 52.1375 126.414 52.2482L122.043 57.6686C121.865 57.8948 121.851 58.1291 122.002 58.3714C123.597 60.8648 125.16 63.3771 126.69 65.9083C127.273 66.8696 128.141 67.4108 129.22 67.3785C129.39 67.3646 129.558 67.4184 129.688 67.5283C129.818 67.6381 129.899 67.7949 129.913 67.9641C129.927 68.1334 129.873 68.3013 129.763 68.4308C129.652 68.5603 129.495 68.6409 129.325 68.6548C127.384 68.9187 125.454 68.8864 123.535 68.5579C123.381 68.5325 123.235 68.4727 123.108 68.3831C122.982 68.2934 122.878 68.1764 122.805 68.0409L118.183 59.5912C118.138 59.5116 118.069 59.4483 117.985 59.4106C117.902 59.3729 117.809 59.3628 117.719 59.3818C117.629 59.4007 117.548 59.4477 117.487 59.5159C117.426 59.5841 117.389 59.6699 117.38 59.7608C117.234 61.6026 116.953 63.5468 116.537 65.5932C116.261 66.9503 116.918 67.5804 118.507 67.4835C118.843 67.462 118.999 67.6208 118.978 67.9601C118.972 68.0355 118.97 68.1082 118.97 68.1782C118.971 68.2319 118.961 68.2853 118.941 68.3353C118.921 68.3852 118.891 68.4307 118.854 68.4691C118.816 68.5074 118.771 68.5379 118.721 68.5587C118.671 68.5795 118.618 68.5902 118.564 68.5902H109.449C109.373 68.5894 109.298 68.5695 109.232 68.5323C109.165 68.4952 109.109 68.442 109.069 68.3776C109.029 68.3132 109.005 68.2398 109.001 68.164C108.996 68.0882 109.011 68.0125 109.044 67.9439C109.125 67.7878 109.265 67.6478 109.466 67.5239C109.579 67.4539 109.733 67.4135 109.928 67.4027C111.22 67.3596 111.944 66.883 112.101 65.9729C112.928 61.1799 113.715 56.3869 114.461 51.5939C114.484 51.449 114.451 51.3009 114.37 51.1784C114.289 51.0559 114.166 50.9679 114.023 50.9315L112.263 50.4953C112.139 50.4663 112.029 50.3926 111.956 50.2883C111.883 50.1839 111.851 50.0563 111.866 49.9298C111.898 49.6928 112.001 49.5071 112.174 49.3724C112.304 49.2674 119.943 49.3078 121.062 49.1785C121.199 49.1682 121.336 49.2075 121.447 49.2892C121.558 49.371 121.636 49.4897 121.667 49.6239C121.697 49.758 121.678 49.8986 121.613 50.02C121.548 50.1414 121.442 50.2355 121.313 50.2852L119.343 50.9557C119.217 50.9969 119.106 51.071 119.019 51.1705C118.932 51.2699 118.873 51.391 118.848 51.5212L117.713 57.6525C117.702 57.7098 117.704 57.7689 117.719 57.8253C117.734 57.8817 117.762 57.934 117.8 57.9782C117.838 58.0225 117.886 58.0576 117.939 58.0809C117.993 58.1042 118.051 58.1152 118.11 58.1129Z" fill="#333333"/>
<path d="M189.152 59.8154L188.367 66.435C188.353 66.5595 188.384 66.6849 188.455 66.7882C188.526 66.8915 188.631 66.966 188.752 66.998L190.515 67.4645C190.643 67.4965 190.754 67.5744 190.828 67.6835C190.903 67.7926 190.934 67.9252 190.917 68.0562C190.901 68.1872 190.836 68.3074 190.737 68.3941C190.638 68.4807 190.51 68.5277 190.379 68.5262H181.418C181.161 68.5262 181.023 68.3975 181.001 68.1401C180.99 67.9364 181.055 67.7648 181.193 67.6254C181.594 67.2393 182.925 67.1991 183.582 66.6923C183.79 66.5315 183.916 66.317 183.959 66.0489L186.291 52.0858C186.321 51.9051 186.311 51.7199 186.26 51.5439C186.209 51.3679 186.12 51.2055 185.998 51.0688C185.877 50.9321 185.726 50.8246 185.558 50.7542C185.389 50.6838 185.207 50.6524 185.025 50.6621C184.48 50.6943 184.14 50.4423 184.007 49.9061C183.986 49.8209 183.985 49.7318 184.006 49.6465C184.026 49.5611 184.067 49.482 184.124 49.4157C184.182 49.3494 184.254 49.298 184.336 49.2658C184.417 49.2335 184.505 49.2214 184.592 49.2304C187.189 49.5254 189.794 49.528 192.406 49.2385C192.561 49.2224 192.706 49.2385 192.839 49.2867C193.058 49.3564 193.184 49.4154 193.216 49.4637C193.291 49.5762 193.334 49.7077 193.338 49.8432C193.343 49.9787 193.309 50.1128 193.242 50.2302C193.174 50.3475 193.075 50.4434 192.956 50.507C192.836 50.5706 192.702 50.5993 192.567 50.5897C189.954 50.4047 189.906 55.7053 189.505 57.5472C189.441 57.8367 189.556 57.9922 189.85 58.0137C195.292 58.448 196.703 46.6244 201.744 49.4315C201.848 49.4895 201.928 49.5831 201.969 49.6953C202.011 49.8075 202.01 49.9308 201.968 50.0428L201.095 52.4397C201.049 52.5605 200.959 52.659 200.844 52.7145C200.729 52.7701 200.598 52.7782 200.478 52.7373L198.77 52.1743C198.637 52.1291 198.493 52.1265 198.358 52.1668C198.223 52.2071 198.104 52.2884 198.017 52.3995L193.841 57.6678C193.649 57.9091 193.638 58.1611 193.809 58.4239C195.268 60.6438 198.233 67.1991 200.975 67.368C201.089 67.3741 201.197 67.419 201.283 67.4951C201.368 67.5713 201.425 67.6743 201.445 67.7873C201.464 67.9003 201.445 68.0166 201.39 68.1173C201.335 68.2179 201.248 68.2968 201.143 68.3412C194.37 71.2127 192.39 64.03 190.138 59.6384C190.088 59.5365 190.007 59.4537 189.906 59.4025C189.805 59.3512 189.69 59.3343 189.579 59.3543C189.468 59.3742 189.366 59.43 189.289 59.5132C189.212 59.5964 189.164 59.7025 189.152 59.8154Z" fill="#333333"/>
<path d="M102.714 67.5829C103.426 67.5495 103.99 67.769 104.406 68.2414C104.465 68.3056 104.504 68.3858 104.518 68.4721C104.532 68.5585 104.52 68.6473 104.484 68.7278C104.448 68.8083 104.39 68.8768 104.317 68.9252C104.243 68.9735 104.157 68.9995 104.07 69H94.4107C94.3561 69 94.302 68.989 94.2517 68.9675C94.2013 68.946 94.1557 68.9146 94.1174 68.875C94.0792 68.8354 94.0491 68.7885 94.029 68.7369C94.0088 68.6854 93.999 68.6303 94.0001 68.5749C94.0001 68.4971 94.0001 68.4165 94.0001 68.3331C93.999 68.27 94.0103 68.2073 94.0333 68.1487C94.0564 68.0901 94.0907 68.0367 94.1343 67.9917C94.1778 67.9467 94.2298 67.911 94.2872 67.8866C94.3445 67.8622 94.4061 67.8496 94.4682 67.8496C95.9904 67.8719 96.8556 67.2856 97.0637 66.0907C97.8193 61.7338 98.5941 56.9906 99.388 51.8612C99.426 51.6076 99.372 51.3487 99.236 51.1326C99.1001 50.9164 98.8914 50.7576 98.6488 50.6858L97.1047 50.2273C96.9618 50.1951 96.8363 50.1087 96.754 49.9858C96.6717 49.8628 96.6387 49.7126 96.6617 49.5659C96.6848 49.4191 96.7622 49.2868 96.8781 49.1959C96.994 49.1051 97.1397 49.0625 97.2854 49.077C100.694 49.1937 107.577 48.4601 110.435 49.9773C113.729 51.7278 113.572 55.8958 111.536 58.5383C109.466 61.2142 106 61.3892 102.649 61.2809C102.529 61.278 102.413 61.3206 102.322 61.4006C102.231 61.4806 102.172 61.5923 102.156 61.7143L101.548 66.2825C101.526 66.4485 101.541 66.6173 101.59 66.7771C101.639 66.9369 101.723 67.0839 101.834 67.2077C101.945 67.3315 102.081 67.4293 102.233 67.4941C102.385 67.5589 102.55 67.5892 102.714 67.5829ZM104.111 50.7358L102.443 59.0552C102.414 59.2098 102.446 59.3698 102.532 59.5008C102.618 59.6318 102.752 59.7232 102.903 59.7554L103.076 59.7971C104.23 60.0345 105.434 59.778 106.423 59.084C107.412 58.3899 108.105 57.3151 108.349 56.0959L108.406 55.8041C108.528 55.1998 108.535 54.5781 108.429 53.9745C108.322 53.3709 108.103 52.7972 107.784 52.2862C107.465 51.7752 107.053 51.337 106.57 50.9966C106.088 50.6562 105.545 50.4203 104.973 50.3024L104.809 50.269C104.655 50.237 104.495 50.2682 104.365 50.3558C104.234 50.4433 104.142 50.58 104.111 50.7358Z" fill="#333333"/>
</svg>
