<svg width="62" height="74" viewBox="0 0 62 74" fill="none" xmlns="http://www.w3.org/2000/svg">
<path fill-rule="evenodd" clip-rule="evenodd" d="M31.0665 15.3965C46.5467 15.3965 59.1007 27.8994 59.1007 43.3164C59.1007 58.7337 46.5467 71.2366 31.0665 71.2366C15.5862 71.2366 3.03223 58.7337 3.03223 43.3164C3.03223 27.8994 15.5862 15.3965 31.0665 15.3965Z" fill="white" stroke="#1F1A17" stroke-width="0.105147"/>
<path fill-rule="evenodd" clip-rule="evenodd" d="M31.0668 24.959C41.2452 24.959 49.4997 33.1797 49.4997 43.3167C49.4997 53.4537 41.2452 61.6746 31.0668 61.6746C20.8883 61.6746 12.6339 53.4537 12.6339 43.3167C12.6339 33.1797 20.8883 24.959 31.0668 24.959ZM31.0668 22.7734C42.457 22.7734 51.6942 31.973 51.6942 43.3167C51.6942 54.6606 42.457 63.8601 31.0668 63.8601C19.6766 63.8601 10.4395 54.6606 10.4395 43.3167C10.4395 31.973 19.6766 22.7734 31.0668 22.7734Z" fill="#FFD900"/>
<path fill-rule="evenodd" clip-rule="evenodd" d="M48.7195 48.6118C48.3669 49.779 47.9009 50.8972 47.3341 51.9538H14.8002C14.395 51.1988 14.0408 50.4128 13.7432 49.5996L14.1152 49.6831C16.4184 48.2054 18.5624 47.3606 21.0766 46.4165C22.036 47.0608 22.9731 47.4164 23.7541 48.4164C25.8962 47.7855 27.7541 47.2544 29.8962 46.6236C30.6101 46.4134 31.3411 46.0029 32.2558 45.8926C34.3976 46.2928 36.3163 46.91 37.7441 47.8438C38.4867 47.4827 39.2739 47.0769 40.3751 46.3593C43.2363 47.6772 46.0084 48.0742 48.7195 48.6118Z" fill="#066C4B"/>
<path fill-rule="evenodd" clip-rule="evenodd" d="M47.3336 51.9531C44.2303 57.7366 38.1097 61.6735 31.0667 61.6735C24.0238 61.6735 17.903 57.7366 14.7998 51.9531H47.3336Z" fill="#0039A6"/>
<path fill-rule="evenodd" clip-rule="evenodd" d="M42.3428 57.837C41.7064 58.328 41.0369 58.7784 40.3381 59.1843C40.2149 59.1158 40.1041 59.0442 40.0103 58.9708C39.625 59.3152 38.7464 59.717 38.1146 59.717C37.3023 59.717 36.2558 59.2999 35.6774 58.9708C35.2134 59.3298 34.2145 59.717 33.4832 59.717C32.7517 59.717 31.8041 59.3024 31.289 58.9708C30.7982 59.3024 29.6281 59.717 28.7976 59.717C28.0648 59.717 27.2085 59.3855 26.5993 58.9708C25.9087 59.3855 25.1563 59.717 24.4346 59.717C23.5068 59.717 22.363 59.3855 21.6516 58.9708C21.6189 58.9947 21.5857 59.0178 21.552 59.0406C20.9323 58.6678 20.3367 58.2593 19.7675 57.8189C20.3816 57.7323 20.9702 57.4227 21.6516 57.0966C22.5062 57.5193 23.4038 57.8429 24.28 57.8429C25.0532 57.8429 25.888 57.4835 26.5993 57.0966C27.3284 57.5112 28.1196 57.8429 28.8796 57.8429C29.6396 57.8429 30.4665 57.5753 31.1598 57.0966C31.8109 57.5453 32.7292 57.8429 33.5141 57.8429C34.2064 57.8429 34.982 57.5055 35.5913 57.0966C36.2537 57.4682 37.2483 57.8429 38.077 57.8429C38.7214 57.8429 39.4754 57.6196 40.0103 57.0966C40.6263 57.5217 41.4614 57.8429 42.187 57.8429C42.2383 57.8429 42.2902 57.8398 42.3428 57.837ZM46.1525 53.8647C45.7296 54.4635 45.2716 55.0358 44.7816 55.5792C44.6693 55.529 44.5786 55.4781 44.5144 55.4272C43.9246 56.0278 43.0129 56.2577 42.2624 56.2577C41.5116 56.2577 40.5141 55.8652 40.0103 55.4272C39.625 55.8105 38.7464 56.2577 38.1146 56.2577C37.3023 56.2577 36.2558 55.7934 35.6774 55.4272C35.2134 55.8267 34.2145 56.2577 33.4832 56.2577C32.7517 56.2577 31.8041 55.7962 31.289 55.4272C30.7982 55.7962 29.6281 56.2577 28.7976 56.2577C28.0648 56.2577 27.2085 55.8885 26.5993 55.4272C25.9087 55.8885 25.1563 56.2577 24.4346 56.2577C23.5068 56.2577 22.363 55.8885 21.6516 55.4272C21.0052 55.95 20.1734 56.2577 19.4343 56.2577C18.6954 56.2577 17.8635 55.8887 17.2173 55.4274C16.7608 54.9098 16.333 54.3667 15.9365 53.8001C16.3761 53.6561 16.8073 53.4904 17.2171 53.3418C18.042 53.8122 18.6953 54.1721 19.4343 54.1721C20.1734 54.1721 20.8482 53.7694 21.6516 53.3418C22.5062 53.8122 23.4038 54.1721 24.28 54.1721C25.0532 54.1721 25.888 53.7723 26.5993 53.3418C27.3284 53.8031 28.1196 54.1721 28.8796 54.1721C29.6396 54.1721 30.4665 53.8744 31.1598 53.3418C31.8109 53.8411 32.7292 54.1721 33.5141 54.1721C34.2064 54.1721 34.982 53.7967 35.5913 53.3418C36.2537 53.7553 37.2483 54.1721 38.077 54.1721C38.7214 54.1721 39.4754 53.9239 40.0103 53.3418C40.6263 53.8147 41.4614 54.1721 42.187 54.1721C42.9127 54.1721 43.7844 53.742 44.3639 53.3418C44.7417 53.5149 45.4047 53.7083 46.1525 53.8647Z" fill="white"/>
<path fill-rule="evenodd" clip-rule="evenodd" d="M31.0665 20.2606C43.8497 20.2606 54.2167 30.5852 54.2167 43.3164C54.2167 56.0477 43.8497 66.3725 31.0665 66.3725C18.2832 66.3725 7.91623 56.0477 7.91623 43.3164C7.91623 30.5852 18.2832 20.2606 31.0665 20.2606ZM31.0665 15.3965C46.5467 15.3965 59.1007 27.8994 59.1007 43.3164C59.1007 58.7336 46.5467 71.2366 31.0665 71.2366C15.5864 71.2366 3.03223 58.7336 3.03223 43.3164C3.03223 27.8994 15.5864 15.3965 31.0665 15.3965Z" fill="#0039A6"/>
<path fill-rule="evenodd" clip-rule="evenodd" d="M53.9174 62.3363C53.8146 61.2269 54.0629 59.9315 54.6423 58.8929C55.3819 59.47 56.0861 61.3139 55.9999 61.4913C55.557 62.4042 54.5092 61.8351 53.9174 62.3363ZM46.1741 53.4598C45.1123 53.0656 44.0463 53.3804 43.3941 54.2029C42.9428 54.772 43.5872 55.3526 44.2637 55.8251C44.9769 55.0797 45.5919 54.3082 46.1741 53.4598ZM8.17189 62.1223C8.23437 61.0129 7.98108 59.8082 7.40165 58.7695C6.66187 59.3466 6.05885 61.0094 6.14492 61.1867C6.58803 62.0997 7.56504 61.5458 8.17189 62.1223ZM17.75 55.7117C17.0478 54.9608 16.4895 54.2616 15.9202 53.4019C16.9822 53.0077 17.9573 53.2571 18.6095 54.0795C19.0607 54.6485 18.4263 55.2393 17.75 55.7117ZM51.6594 62.6579C52.1835 63.0348 53.2447 64.4556 52.7975 64.9751C52.2123 65.6546 50.3235 65.3473 49.2361 64.9218C50.0466 64.2275 50.9364 63.4398 51.6594 62.6579ZM12.925 64.9695C11.9554 64.1746 11.0591 63.292 10.4406 62.62C9.92172 62.9969 8.87188 64.4293 9.31457 64.9488C9.894 65.6283 11.8484 65.3951 12.925 64.9695Z" fill="#47A5AE" stroke="white" stroke-width="0.423231"/>
<path fill-rule="evenodd" clip-rule="evenodd" d="M43.2597 25.929C43.3378 26.4997 43.379 27.0825 43.379 27.6745C43.379 34.753 37.6153 40.4933 30.508 40.4933C23.4006 40.4933 17.6367 34.753 17.6367 27.6745C17.6367 27.0826 17.6781 26.5001 17.7562 25.9293C19.4468 31.3424 24.5171 35.2741 30.508 35.2741C36.4988 35.2741 41.5693 31.3423 43.2597 25.929ZM30.5079 13.5263C35.9979 13.5263 40.4498 17.9603 40.4498 23.4279C40.4498 28.8955 35.9979 33.3295 30.5079 33.3295C25.0179 33.3295 20.5658 28.8955 20.5658 23.4279C20.5658 17.9603 25.0179 13.5263 30.5079 13.5263ZM30.6487 13.084C31.0435 12.5015 31.7567 11.96 32.2517 11.9361C33.7159 11.8652 34.9448 11.4172 35.5138 10.0961C36.1245 8.67742 35.0709 7.49095 34.9326 6.88423C34.8488 6.51606 35.0303 6.11589 34.9326 5.75093C34.8449 5.42331 34.495 5.20908 34.3971 4.88425C34.2882 4.52195 34.2235 4.12876 34.2011 3.75108C33.9334 4.08429 33.613 4.33306 33.5271 4.75101C33.4181 5.28054 33.9011 5.82084 33.7948 6.35093C33.7073 6.78664 33.1123 7.02757 32.8988 7.41755C32.7786 7.63709 32.8756 7.92261 32.8701 8.20646C32.8673 8.36559 32.6817 8.57647 32.5114 8.5973C32.3278 8.61967 32.1009 8.49311 32.0784 8.20017C32.0672 8.04859 32.1214 7.8762 32.1214 7.75091C32.1214 7.32177 32.6101 6.83026 32.5677 6.4035C32.4795 5.51726 31.5923 5.30025 31.385 4.55104C31.2187 3.94991 31.6377 3.30055 31.5417 2.68446C31.4758 2.26217 31.1665 1.8726 31.0073 1.50597C30.9007 1.26057 30.9207 0.995171 31.0288 0.728516C30.3995 1.03586 29.8257 1.73347 29.6542 2.3511C29.5165 2.84777 30.1229 3.36921 30.1132 3.88435C30.0979 4.70179 29.0045 5.15973 28.8415 5.95102C28.6877 6.69688 29.3782 7.6445 29.4304 8.15278C29.461 8.45132 29.4375 8.70271 29.1092 8.75082C28.8524 8.78857 28.5717 8.59632 28.508 8.37986C28.426 8.1016 28.6346 7.71371 28.5067 7.48425C28.2876 7.09105 27.8634 6.79111 27.7705 6.35093C27.673 5.88977 27.946 5.42148 27.9712 4.95095C27.9965 4.48056 27.634 4.08289 27.283 3.74884C27.302 4.0155 27.2718 4.44045 27.1454 4.68431C26.9323 5.09485 26.4694 5.41854 26.3422 5.86278C26.2313 6.24955 26.5901 6.49454 26.4201 6.85935C26.1917 7.34988 25.4729 7.91368 25.5615 8.88423C25.7216 10.6346 27.0906 11.7837 28.9028 11.884C29.5189 11.9181 30.1802 12.684 30.6487 13.084Z" fill="#FFCB05"/>
<path fill-rule="evenodd" clip-rule="evenodd" d="M15.1104 49.2086L19.2102 47.3447L20.9496 46.7098L20.3469 49.5084L20.1963 48.4089L17.7475 49.6583L18.3501 48.5588L15.1104 49.2086ZM34.9957 50.0623L39.1945 47.1858L40.3848 46.551L39.9723 49.3495L39.8692 48.2501L38.1936 49.4995L38.6061 48.4001L34.9957 50.0623ZM23.1625 48.8695L30.2291 46.7796L32.07 46.0332L30.8906 49.8069L31.0664 47.7324L27.1646 49.7693L28.6077 47.8823L23.1625 48.8695Z" fill="#00923F"/>
<path fill-rule="evenodd" clip-rule="evenodd" d="M61.2636 58.1169C60.8477 57.6598 60.1794 57.1122 59.7634 56.5407C58.4871 58.3405 57.3891 60.2129 56.0297 61.8691C55.2739 62.7899 54.0573 61.9237 53.9495 62.7445C54.4795 66.3445 55.6311 67.0959 56.746 68.015C58.104 64.7154 59.6748 61.4162 61.2636 58.1169ZM59.8747 55.9003C58.6687 57.5303 57.2801 59.7969 56.0741 61.4271C56.1277 59.3239 51.8303 56.1354 49.0209 54.6992C47.328 53.8339 44.9815 52.454 43.3355 54.1431C44.5701 51.6837 45.8048 49.2658 47.0395 46.8065C48.1964 46.5351 50.6874 47.4607 52.8972 48.2649C56.871 49.711 61.5976 53.1836 59.8747 55.9003ZM0.833008 57.9936C1.24888 57.5364 1.92687 56.8639 2.34288 56.2925C3.61926 58.0921 4.59197 60.1219 6.09244 61.7407C6.70178 62.398 8.00274 61.6815 8.14707 62.6212C7.61706 66.221 6.46535 66.9726 5.35056 67.8915C3.99246 64.592 2.42179 61.2928 0.833008 57.9936ZM2.22185 55.777C3.4279 57.407 4.81647 59.6736 6.02238 61.3036C5.96875 59.2006 10.2663 56.012 13.0757 54.5758C14.7684 53.7106 16.9635 52.391 18.6096 54.0801C17.3749 51.6208 16.2918 49.1423 15.0569 46.683C13.9 46.4117 11.4092 47.3373 9.19938 48.1414C5.22546 49.5877 0.498988 53.0602 2.22185 55.777ZM30.9648 71.0763C36.721 71.0763 42.1595 71.8771 47.9019 73.4784C48.54 72.1439 49.0854 70.7624 49.8161 69.475C50.5389 68.2014 51.6142 66.7486 52.4262 65.5286C51.6335 65.8717 50.5136 65.7895 49.7581 65.5286C44.5437 63.7275 38.4967 62.2112 30.9646 62.2112C23.5071 62.2112 17.5204 63.7275 12.3579 65.5286C11.6098 65.7895 10.501 65.8717 9.7162 65.5286C10.5201 66.7486 11.5848 68.2014 12.3004 69.475C13.0239 70.7624 13.5639 72.1439 14.1956 73.4784C19.881 71.8771 25.2651 71.0763 30.9648 71.0763Z" fill="#47A5AE" stroke="white" stroke-width="0.423231"/>
</svg>
