<svg width="60" height="60" viewBox="0 0 60 60" fill="none" xmlns="http://www.w3.org/2000/svg">
<g clip-path="url(#clip0_1285_155743)">
<path d="M37.0299 12.2199L41.2945 3.17859L40.4747 2.79601L40.0276 3.65681L39.6191 3.43916L40.0396 2.55649L39.3243 2.19696L38.8869 3.06679L38.5572 2.90757L38.9525 1.98437L38.1254 1.64706L36.3059 6.12052C36.004 5.99143 35.6966 5.86882 35.39 5.75544L36.6299 0.970061L35.6532 0.726617L35.4106 1.60944L35.0454 1.51773L35.2407 0.609513L34.3556 0.44005L34.166 1.34786L33.7457 1.27939L33.8648 0.317031L32.9025 0.191098L32.2469 4.89658C31.9965 4.85208 31.7444 4.81333 31.4952 4.78089L31.7014 0.0527344H30.6821L30.6507 0.87636L30.1974 0.862391L30.1705 0.0527344H28.8296L28.8029 0.862391L28.3495 0.87636L28.3183 0.0527344H27.2987L27.5052 4.78223C27.2588 4.81568 27.0069 4.85585 26.754 4.90209L26.0976 0.19118L25.1353 0.317113L25.2544 1.27947L24.8341 1.34794L24.6445 0.440129L23.7594 0.609592L23.9546 1.51781L23.5894 1.60953L23.347 0.726698L22.3701 0.970143L23.6196 5.77698C23.3101 5.8923 22.9989 6.0169 22.6921 6.14834L20.8747 1.64714L20.0475 1.98445L20.4428 2.90765L20.1131 3.06687L19.6757 2.19704L18.9603 2.55658L19.3809 3.43924L18.9726 3.65689L18.5252 2.79609L17.7053 3.17867L21.9702 12.22H10.0537V55.4144C10.0537 57.099 11.3901 58.4695 13.0327 58.4695H26.5485C27.4057 58.4695 28.1523 59.056 28.6278 59.548C29.1503 60.0886 29.4695 60.6376 29.4727 60.6431L29.5588 60.7923L29.6413 60.641C29.6531 60.6194 30.845 58.4695 32.4514 58.4695H45.9673C47.6098 58.4695 48.9461 57.099 48.9461 55.4145V12.2199H37.0299ZM22.3896 12.2199C22.7057 12.0529 23.3244 11.7514 24.1816 11.4514C25.3607 11.0389 27.2403 10.5471 29.4999 10.5471C31.3896 10.5471 33.2862 11.0433 34.5444 11.4593C35.4291 11.752 36.1306 12.0471 36.5176 12.2199L22.3896 12.2199Z" fill="black"/>
<path d="M43.3335 25.8434C43.5069 26.0944 43.5573 26.3658 43.4678 26.5722C43.393 26.744 43.2324 26.8531 43.0146 26.8792C42.4959 26.9447 42.1929 26.4342 41.8388 25.8476C41.8379 25.846 41.8369 25.8444 41.8359 25.843C42.3558 25.5339 42.833 25.5341 43.3335 25.8434Z" fill="#ED1C24"/>
<path d="M48.5094 12.6621V55.4136C48.5094 56.8541 47.3689 58.026 45.9671 58.026H32.4513C31.6701 58.026 30.8675 58.447 30.1301 59.2432C29.8916 59.5006 29.6952 59.759 29.5497 59.9683C29.3966 59.7572 29.1897 59.4961 28.9396 59.2373C28.4056 58.6847 27.5571 58.026 26.5485 58.026H13.0326C11.6307 58.026 10.4902 56.8541 10.4902 55.4136V12.6621H48.5094ZM44.0603 27.8373C45.2756 26.8925 44.762 25.5926 44.6467 25.3415C44.6343 25.3149 44.6226 25.2898 44.6087 25.2702L44.6093 25.2698C43.7516 24.0101 42.2404 24.2014 41.0812 24.8134C40.6393 24.3945 40.0406 24.1593 39.1237 24.4688C38.1715 24.7906 38.3074 26.0838 38.3087 26.0968L38.3406 26.3729L38.4682 26.1269C38.4816 26.1011 38.8006 25.5026 39.7806 25.5792C39.8529 25.6085 39.9229 25.6425 39.9902 25.6808C38.6428 27.4876 38.9871 30.5823 39.0599 31.0662L39.0583 31.0652C39.0442 31.087 38.7071 31.5999 38.6694 31.9229C38.6446 32.1354 38.7123 32.2651 38.8358 32.5009C38.9586 32.7356 39.1441 33.0907 39.3657 33.7741C39.4593 34.0624 39.4381 34.3878 39.4139 34.7642C39.4045 34.9038 39.395 35.0512 39.3904 35.2078L39.3837 35.4186L39.5337 35.2724C39.6067 35.2015 39.6892 35.1267 39.7759 35.048C39.9998 34.8446 40.2504 34.6172 40.4332 34.3703C40.8601 36.794 39.828 37.6293 38.6857 38.2346C38.6826 38.0792 38.6789 37.9359 38.6742 37.8088C38.5335 37.1272 37.6057 36.5986 36.7088 36.0875C35.8441 35.5949 34.9503 35.0854 34.9361 34.5133L34.9363 32.7457C35.0109 32.8677 35.1055 32.97 35.2266 33.0454C35.3476 33.1209 35.565 33.1578 35.8905 33.1578C36.1602 33.1578 36.4008 33.1316 36.4111 33.1304L36.6415 33.1048L36.4492 32.9735C36.2555 32.8409 35.7277 32.4471 35.6143 32.2208C35.3613 31.7155 35.3455 31.2657 35.5724 30.6234C35.6074 30.767 35.6277 30.9178 35.6473 31.0653C35.7048 31.494 35.7641 31.937 36.1873 32.1763C36.3822 32.2865 36.5922 32.3885 36.8078 32.3885C37.0916 32.3882 37.3297 32.2093 37.5155 31.8563L37.6168 31.6633L37.4133 31.7343C37.3302 31.7632 37.2503 31.7777 37.1756 31.7777C36.9238 31.7777 36.7658 31.6105 36.7453 31.4532C36.6345 30.603 36.6912 29.5795 36.7513 28.4957C36.8423 26.8481 36.9366 25.1445 36.4911 23.6798C35.6788 21.007 34.2007 20.608 33.392 20.608C33.1921 20.608 33.0381 20.6327 32.9508 20.6512C32.8762 20.4375 32.6614 19.8735 32.4225 19.7155C32.2573 19.6062 32.0817 19.5509 31.9003 19.5509C31.6294 19.5509 31.3598 19.6816 31.1967 19.8916C30.8647 20.3192 30.7483 20.6317 30.7276 20.8016C30.7255 20.8016 30.7232 20.8016 30.721 20.8016L30.2992 20.8C29.5449 20.8 29.1515 20.8278 29.0244 20.89C28.8327 20.9835 28.7033 21.3585 28.6555 21.5193C28.5517 21.5136 28.3417 21.5042 28.0984 21.5042C26.767 21.5042 26.6616 21.774 26.6271 21.8629C26.5454 22.0719 26.5297 22.206 26.5759 22.2974C26.6199 22.385 26.7049 22.4069 26.767 22.4226C26.7911 22.4289 26.8099 22.434 26.8227 22.4397C26.6603 22.8703 26.5541 23.7197 26.6717 23.9807C26.7367 24.125 26.925 24.1438 27.0818 24.1438C27.2097 24.1438 27.3641 24.1297 27.5283 24.1147C27.723 24.097 27.944 24.0767 28.1602 24.0767C28.4268 24.0767 28.6428 24.1074 28.8202 24.1705C28.9622 24.2213 29.1081 24.3381 29.1768 24.4766C28.5058 24.3768 26.1183 24.3188 25.5602 24.3826C25.3203 24.4097 24.8684 24.5945 24.8754 25.1009L24.8766 25.1961L24.9701 25.1851C25.1702 25.1611 25.2928 25.0895 25.4011 25.0259C25.4972 24.9698 25.5878 24.9164 25.7318 24.8966C26.5629 24.7817 28.1414 24.944 28.8153 25.0135C28.8846 25.0206 28.9405 25.0261 28.9855 25.0306C28.9293 25.0763 28.8699 25.1106 28.8151 25.1261C28.5972 25.1878 28.2295 25.2231 27.8057 25.2231C27.4319 25.2231 27.0566 25.195 26.8266 25.1501L26.7212 25.1294L26.7257 25.2382C26.7569 26.0093 26.8194 26.5261 26.9225 26.865C26.9803 27.0549 27.2966 27.1167 27.5308 27.1364C27.4004 27.2586 27.2683 27.3849 27.1353 27.5156L22.4809 23.6625L24.0271 22.0509L24.6386 22.5777L25.3372 21.8696L24.7512 21.3068L25.8544 20.0276L26.7921 20.9473L28.7251 18.8628L28.6967 16.3533L26.1979 16.3455L24.2068 18.3647L25.1542 19.2943L23.868 20.542L23.3144 20.0113L22.6808 20.6915L23.2272 21.2842L21.628 22.9566L21.4735 22.8287L21.4413 22.8122C21.3582 22.7904 20.6247 22.6038 20.3825 22.8327C20.2251 22.9806 20.1695 23.3408 20.151 23.5199C19.99 23.4912 19.6787 23.4609 19.5244 23.6112C19.358 23.774 19.4344 24.176 19.4847 24.3711C19.3213 24.4073 19.0153 24.4841 18.9165 24.5681C18.7735 24.6903 18.787 25.0579 18.7946 25.1675L18.8018 25.2687L18.8573 25.2551C18.9268 25.3148 19.0355 25.4039 19.1833 25.5139L14.5308 30.3796L13.9147 29.7861L13.2535 30.5681L15.302 32.58L16.0276 31.7704L15.3563 31.0898L19.9809 26.2688C20.0024 26.2985 20.024 26.3245 20.0445 26.3454C20.1256 26.4278 20.1878 26.4962 20.2388 26.5524C20.512 26.8521 20.5398 26.8541 21.2526 26.9043L21.701 26.9365L21.5262 26.7704C21.3463 26.5998 21.2214 26.4873 21.13 26.4048C21.0614 26.3432 21.0129 26.2993 20.9741 26.2603C21.2883 26.2909 21.4946 26.3617 21.7946 26.529C21.9824 26.6404 22.1949 26.8181 22.4187 27.0374C22.4221 27.0434 22.4264 27.0491 22.4317 27.0542C22.4687 27.0915 22.5062 27.1277 22.5438 27.1631C23.5795 28.227 24.7978 30.0542 24.9387 30.2877C24.858 30.429 24.7796 30.5742 24.7039 30.723C24.6484 30.8794 24.6309 31.0412 24.614 31.1979C24.5916 31.4077 24.5702 31.606 24.4646 31.7999C24.3447 32.0203 23.8918 32.2165 23.7274 32.2735L23.4437 32.372L23.7362 32.4389C23.7569 32.4436 24.246 32.5546 24.5741 32.5546C24.7006 32.5546 24.7864 32.5388 24.844 32.5044C25.1567 32.3194 25.2764 31.9679 25.4423 31.4819C25.4776 31.3785 25.5153 31.2681 25.5576 31.1506C25.7055 31.6659 25.8281 32.0878 26.1591 32.4296C25.3218 32.54 23.733 32.8429 23.2184 33.1151C23.0926 33.1812 23.0756 33.3156 23.0593 33.4457C23.0521 33.502 23.0451 33.5592 23.0296 33.6153C22.969 33.5982 22.9061 33.5771 22.8429 33.5563C22.6038 33.4769 22.3568 33.3949 22.1818 33.4984C21.9223 33.6726 21.7676 33.8613 21.6436 34.013C21.5586 34.1167 21.4973 34.1892 21.4365 34.2276L21.4311 34.2205L21.3954 34.2484C21.3789 34.2545 21.3618 34.2583 21.3442 34.2594C21.0946 34.1248 20.9898 34.0064 20.9761 33.9448C20.9728 33.9298 20.9749 33.9194 20.9838 33.9075C21.7989 32.8376 21.9011 31.6782 21.2644 30.7261C20.5732 29.6925 19.1486 29.1391 18.0214 29.4664C16.9327 29.7827 15.7866 30.6993 16.5097 33.2731L16.5852 33.5415L16.6717 33.2769C17.5415 30.6192 18.1824 30.6826 18.7485 30.7399L18.791 30.7429C19.4657 30.9296 19.8884 31.24 20.0467 31.6657C20.3322 32.4322 19.7436 33.4778 19.2763 34.1975L19.236 34.2596L20.2328 35.1564C20.0829 35.2594 19.7803 35.477 19.5075 35.7339C19.2344 35.9907 18.9913 36.2867 18.9598 36.5464C18.9187 36.889 19.4421 37.4594 19.502 37.5234L19.5284 37.5425C19.7161 37.6284 19.909 37.6942 20.0953 37.7576C20.2505 37.8105 20.4027 37.8625 20.5507 37.9245C20.5509 37.9247 20.5511 37.9247 20.5513 37.9249C20.5714 37.9357 20.5909 37.9442 20.6097 37.95C20.8338 38.0492 21.0488 38.1758 21.2524 38.3702L21.4422 38.5519L21.3106 37.8426H21.6587C21.7822 37.878 21.8846 37.9353 21.9787 38.0041C22.0597 38.0632 22.1342 38.1307 22.2108 38.2002C22.2688 38.2527 22.3271 38.3049 22.388 38.3545L22.5254 38.4649L22.5256 38.287C22.5258 38.2373 22.5457 37.868 22.6071 37.5961C22.6282 37.5019 22.6545 37.4195 22.6863 37.366C22.7422 37.2727 22.8571 37.1794 22.9679 37.0891C23.0979 36.9834 23.2324 36.8741 23.3028 36.7446C23.381 36.601 23.3793 36.414 23.3779 36.233C23.3763 36.0639 23.375 35.8892 23.4435 35.785C23.5824 35.5733 24.1448 35.3159 24.3534 35.2332C24.4893 35.2187 25.6621 35.2322 26.9515 35.25C27.5889 37.6983 29.2606 38.1575 32.0996 38.1299C32.2815 38.3062 32.4472 38.5292 32.46 38.6439C27.4661 38.9143 27.2849 38.9799 25.9174 39.4744C25.7557 39.5329 25.577 39.5977 25.3715 39.6693C25.2783 39.702 25.1739 39.7195 25.0633 39.7378C24.7726 39.7861 24.4433 39.8409 24.1968 40.1982C23.8778 40.6607 24.2394 41.2893 24.2549 41.3157L24.9609 41.7632C24.9649 41.7756 24.97 41.7915 24.976 41.8104C25.1006 42.1942 25.6529 43.8461 26.1269 44.4895C26.3553 44.7992 26.7516 45.0312 27.1351 45.2554C27.6206 45.5394 28.1224 45.833 28.2815 46.2783C28.1983 46.8866 27.5866 47.5259 27.0778 47.8963C26.7978 47.9592 26.5191 47.9787 26.2498 47.9978C25.8945 48.0226 25.5269 48.0484 25.1578 48.1741C25.0697 48.2049 24.8982 48.1082 24.7462 48.0242C24.5764 47.9303 24.401 47.8331 24.2384 47.8284C24.235 47.8282 24.2318 47.8282 24.2281 47.8282C23.9743 47.8282 23.512 48.0889 23.4596 48.1189L23.4313 48.1449C22.8453 49.0038 22.5297 49.7104 22.6518 50.78L22.6698 50.9384L22.7906 50.8361C22.9332 50.7151 23.0265 50.563 23.109 50.4286C23.2113 50.2621 23.2918 50.131 23.4226 50.1101C23.4597 50.1089 23.5309 50.145 23.6076 50.1971C23.6662 50.237 23.7279 50.2865 23.7797 50.3361L24.0067 50.4606L24.2322 50.5842C24.2961 50.7216 24.5994 51.3478 25.0878 51.9723L25.2215 52.1431L25.2388 51.9259C25.2978 51.1906 25.3191 51.1046 25.3898 50.82L25.4053 50.7578C25.4486 50.7541 25.4907 50.7497 25.5316 50.7456C25.7296 50.7255 25.9001 50.708 26.0451 50.7586C26.1679 50.8013 26.2887 50.931 26.4057 51.056C26.5169 51.1756 26.6314 51.2982 26.7631 51.3677L26.7645 51.3767L26.7767 51.3746C26.8097 51.3909 26.8437 51.4039 26.879 51.4126C27.2164 51.4968 27.682 51.1863 27.9036 50.9902C28.1062 50.8109 28.1747 50.5386 28.2348 50.2986C28.274 50.1422 28.3113 49.9944 28.3786 49.8844C28.9629 48.9339 30.7458 47.0065 30.9761 46.7583C31.1607 46.7545 31.8595 46.7217 32.0766 46.4475C32.2096 46.2796 32.2224 45.9632 32.1509 45.773C31.9819 45.3212 31.4977 45.0303 31.0293 44.7489C30.7547 44.5838 30.4952 44.4279 30.3263 44.2534C30.2798 44.2052 30.2402 44.181 30.2117 44.1632C30.2022 44.1572 30.1903 44.1501 30.1892 44.1501C30.1745 44.1101 30.2196 43.896 30.3021 43.5071L30.3116 43.4626C30.8697 43.0395 32.5289 42.3356 32.7037 42.3714C32.9217 42.4942 33.0792 42.8228 33.2615 43.2035C33.5804 43.8687 34.0171 44.78 35.1089 45.2671C35.1703 45.2945 35.1716 45.3551 35.1447 45.5504C35.1119 45.7886 35.0666 46.1147 35.3457 46.4207L35.3744 46.4414C35.7848 46.6207 36.2252 46.5965 36.6142 46.5764C36.9262 46.5593 37.2209 46.5435 37.4436 46.6214C37.7648 46.8279 38.1666 46.957 38.5553 47.0818C38.9216 47.1992 39.2682 47.3104 39.5009 47.4732L39.5253 47.5365C39.7855 48.2126 40.1092 49.0543 39.8919 49.8098C39.8676 49.8226 39.7677 49.7998 39.7081 49.7858C39.5756 49.7553 39.4251 49.7205 39.3308 49.8057C39.2404 49.8868 39.2496 50.0208 39.2573 50.1392C39.2624 50.2105 39.2688 50.3079 39.2408 50.3317C39.1608 50.4003 38.9967 50.3359 38.8381 50.2736C38.6436 50.1977 38.4424 50.1189 38.2938 50.2368C38.2086 50.3049 38.2179 50.4521 38.23 50.5868C37.7772 50.2518 37.0066 49.9105 36.8766 49.972L36.8692 49.9761C35.9779 50.1451 35.5253 50.6322 35.4459 51.5216L35.5379 52.794L35.6198 52.8059L35.7019 52.8178C35.8515 52.4101 36.0626 52.0364 36.1338 52.024C36.1875 52.0874 36.2259 52.1683 36.2664 52.2537C36.3784 52.4894 36.5158 52.7789 37.0423 52.6847L38.0082 54.1471L37.9823 53.818C37.9665 53.6198 37.9483 53.0612 38.0521 52.8584C38.136 52.6947 38.6029 52.4334 38.7853 52.4595C38.9415 52.4786 38.9724 52.6124 39.0179 52.8667C39.0544 53.0717 39.0992 53.3223 39.2686 53.5293C39.2682 53.532 39.2677 53.5344 39.2673 53.5368L39.1776 53.659L39.3979 53.6608L39.4163 53.6238C39.4223 53.6173 39.4283 53.6108 39.4344 53.6043C39.5797 53.517 39.7398 53.4701 39.8947 53.4245C40.1196 53.3585 40.3317 53.2963 40.4645 53.1195C40.5221 53.0429 40.5446 52.9317 40.5684 52.8138C40.5904 52.7042 40.6182 52.5676 40.6723 52.5393C40.8074 52.4683 40.9392 52.4903 41.1051 52.518C41.3397 52.5578 41.6312 52.6062 42.0119 52.3758L42.0432 52.3569L42.0513 52.3208C42.1803 51.7436 42.118 51.0836 42.0521 50.3844C42.0063 49.9007 41.9593 49.4006 41.9673 48.8794C41.9752 48.3672 41.9966 47.8687 42.017 47.3869C42.0765 45.9807 42.12 44.9649 41.813 44.6539C41.7571 44.5973 41.691 44.5646 41.6162 44.5565C41.6032 44.5412 41.5863 44.5266 41.566 44.514C41.2641 44.3229 39.9246 44.3415 39.474 44.4367C38.8757 43.8433 38.6935 43.226 38.6707 43.1419C38.6732 42.9908 38.6959 41.4445 38.6977 39.9661C42.2521 39.0023 42.0864 35.4953 41.8754 34.1261C42.1444 34.2633 42.4813 34.4062 42.9024 34.5485C42.9433 34.5622 42.9853 34.5762 43.0278 34.59L43.2708 34.6691L43.1227 34.4583C42.708 33.8677 42.4283 33.1348 42.3552 32.4473C42.3429 32.3313 42.3327 32.2138 42.3227 32.0969C42.2665 31.4479 42.2083 30.7764 41.7761 30.4586C41.4171 30.1945 40.8747 30.3507 40.6191 30.4488C40.4794 30.0825 39.9159 28.4046 40.6958 27.0303C40.7793 26.8849 40.8679 26.7473 40.9606 26.6196C41.5091 27.3218 42.1883 28.1751 42.9804 28.2491C43.3487 28.2825 43.7143 28.1439 44.0603 27.8373Z" fill="#ED1C24"/>
<path d="M34.1081 3.62402L33.7867 5.24273C33.3366 5.12052 32.8864 5.01682 32.4385 4.93239L32.6684 3.28125L34.1081 3.62402Z" fill="#FED700"/>
<path d="M35.6474 3.98952L35.2075 5.68849C34.7982 5.5419 34.3868 5.41022 33.9746 5.29372L34.2973 3.66797L35.6474 3.98952Z" fill="#FED700"/>
<path d="M36.3928 1.1141L35.6971 3.80003L32.6963 3.08545L33.0687 0.412109L33.649 0.487871L33.5305 1.44431L34.3184 1.57264L34.507 0.669928L35.0094 0.766139L34.8165 1.66359L35.5477 1.84738L35.7904 0.963947L36.3928 1.1141Z" fill="#FED700"/>
<path d="M41.0347 3.27368L39.8354 5.81611L37.2109 4.41193L38.2317 1.90234L38.6951 2.09145L38.3047 3.00343L38.9741 3.32636L39.4102 2.45949L39.7814 2.64608L39.3629 3.52477L40.109 3.92209L40.5607 3.05267L41.0347 3.27368Z" fill="#FED700"/>
<path d="M38.4259 5.28566L37.6794 6.77447C37.3342 6.59302 36.9333 6.39642 36.4844 6.19902L37.1364 4.5957L38.4259 5.28566Z" fill="#FED700"/>
<path d="M38.5977 5.37695L39.7513 5.99431L39.0151 7.55535C38.8424 7.44019 38.4396 7.18164 37.8516 6.86495L38.5977 5.37695Z" fill="#FED700"/>
<path d="M37.7252 10.2917L36.8464 12.1547C36.6766 12.0746 36.2709 11.8893 35.7021 11.6676L36.5443 9.62891C37.151 9.9375 37.5667 10.1916 37.7252 10.2917Z" fill="#FED700"/>
<path d="M36.37 9.54248L35.5204 11.5986C35.2465 11.4943 34.9401 11.3843 34.6084 11.2745C34.1484 11.1224 33.6041 10.9596 33.0059 10.8136L33.62 8.44727C34.2668 8.64443 34.8461 8.86309 35.3324 9.06774C35.7156 9.22898 36.0638 9.39095 36.37 9.54248Z" fill="#FED700"/>
<path d="M38.9309 7.73377L37.8088 10.1123C37.5306 9.93756 36.6509 9.40856 35.4109 8.88624C35.2293 8.80987 35.035 8.7314 34.8291 8.65304L35.6257 6.05469C35.859 6.14519 36.0914 6.24087 36.3203 6.34024L36.3515 6.35381C37.7437 6.96076 38.6792 7.56475 38.9309 7.73377Z" fill="#FED700"/>
<path d="M35.4443 5.98598L34.6472 8.58571C33.7811 8.26593 32.7297 7.95301 31.5801 7.76901L31.9391 5.04492C32.0637 5.06476 32.1883 5.08623 32.3123 5.10886L32.3286 5.11178L32.3338 5.11279C33.2927 5.28966 34.2637 5.55558 35.2202 5.90293L35.2286 5.90588L35.2413 5.91058C35.309 5.9352 35.3766 5.96039 35.4443 5.98598Z" fill="#FED700"/>
<path d="M33.4337 8.3912L32.8168 10.7679C31.8227 10.5361 30.6938 10.3574 29.5635 10.3509V7.79883C30.9599 7.79964 32.294 8.05798 33.4337 8.3912Z" fill="#FED700"/>
<path d="M31.3705 3.19531L31.3022 4.75834C30.7198 4.68902 30.1358 4.65245 29.5635 4.64868V3.19531H31.3705Z" fill="#FED700"/>
<path d="M29.369 3.19531V4.64868C28.8257 4.65265 28.2644 4.68946 27.6982 4.7585L27.6299 3.19531H29.369Z" fill="#FED700"/>
<path d="M31.4992 0.25L31.3793 2.99773H27.6219L27.502 0.25H28.1319L28.1637 1.0795L28.9911 1.05415L29.0177 0.25H29.9834L30.0099 1.05415L30.8375 1.0795L30.8692 0.25H31.4992Z" fill="#FED700"/>
<path d="M25.9326 0.412109L26.3215 3.20292L23.3218 3.8583L22.6084 1.1141L23.2108 0.963947L23.4535 1.84738L24.1847 1.66359L23.9918 0.766139L24.4943 0.669928L24.683 1.57264L25.4707 1.44431L25.3522 0.487871L25.9326 0.412109Z" fill="#FED700"/>
<path d="M24.665 3.76562L25.0499 5.30537C24.6356 5.42442 24.2191 5.55963 23.8028 5.70998L23.3711 4.04859L24.665 3.76562Z" fill="#FED700"/>
<path d="M26.3489 3.39844L26.5635 4.9394C26.1256 5.025 25.6827 5.12971 25.2373 5.25309L24.8555 3.72497L26.3489 3.39844Z" fill="#FED700"/>
<path d="M31.7468 5.01463L31.3876 7.73891C30.7975 7.6527 30.1832 7.60152 29.5565 7.60152C28.8885 7.60152 28.2155 7.6651 27.5609 7.76961L27.1328 5.03642C27.2964 5.00985 27.4584 4.98624 27.6182 4.96559C28.2455 4.88469 28.8673 4.84375 29.466 4.84375C30.082 4.84375 30.713 4.88274 31.3415 4.95964L31.3823 4.96478C31.5033 4.97997 31.625 4.99653 31.7468 5.01463Z" fill="#FED700"/>
<path d="M26.9421 5.06836L27.3699 7.80131C26.2708 7.99066 25.2308 8.28961 24.3638 8.58736L23.5078 6.02934C23.5951 5.99589 23.6825 5.96301 23.7696 5.93094L23.7779 5.92799C24.754 5.56979 25.732 5.29625 26.6849 5.11521V5.11501L26.6903 5.11404C26.7744 5.09808 26.8582 5.08294 26.9421 5.06836Z" fill="#FED700"/>
<path d="M29.369 7.80078V10.3515C28.1726 10.3613 27.0848 10.5062 26.1527 10.7018L25.54 8.42441C26.703 8.09379 28.043 7.82419 29.369 7.80078Z" fill="#FED700"/>
<path d="M22.448 9.55469L23.3019 11.577C22.7092 11.8232 22.313 12.0346 22.1435 12.1298L21.2109 10.1526C21.3836 10.0609 21.8235 9.83316 22.448 9.55469Z" fill="#FED700"/>
<path d="M25.3538 8.47852L25.9631 10.7429C25.2403 10.9031 24.6175 11.0918 24.1188 11.2662C23.8887 11.3467 23.6762 11.427 23.482 11.5047L22.626 9.47711C22.9736 9.32539 23.3706 9.16163 23.8045 8.99829C24.2584 8.82749 24.7827 8.6466 25.3538 8.47852Z" fill="#FED700"/>
<path d="M20.7686 1.90234L21.7954 4.44558L19.1527 5.7897L17.9658 3.27368L18.4397 3.05267L18.8914 3.92209L19.6378 3.52477L19.219 2.64608L19.5905 2.45949L20.0263 3.32636L20.696 3.00343L20.3054 2.09145L20.7686 1.90234Z" fill="#FED700"/>
<path d="M21.8686 4.62891L22.5137 6.22631C22.0635 6.42449 21.6588 6.62128 21.3101 6.80176L20.5781 5.28521L21.8686 4.62891Z" fill="#FED700"/>
<path d="M20.4051 5.37305L21.1381 6.89194C20.56 7.19835 20.1583 7.44693 19.9861 7.55712L19.2363 5.96756L20.4051 5.37305Z" fill="#FED700"/>
<path d="M23.3264 6.09961L24.18 8.65075C24.026 8.70529 23.8781 8.75939 23.7368 8.81252C22.4073 9.31277 21.4211 9.81893 21.1269 9.97523L20.0703 7.73524C20.2397 7.62624 20.7074 7.3344 21.3961 6.97758C21.7448 6.7969 22.1502 6.59954 22.6022 6.40096C22.6274 6.38994 22.6527 6.37893 22.678 6.36791C22.8923 6.27498 23.1092 6.18525 23.3264 6.09961Z" fill="#FED700"/>
<path d="M44.4708 25.3682C44.5052 25.4343 45.1586 26.7662 43.9531 27.7036C43.635 27.985 43.321 28.1077 42.996 28.0769C42.2634 28.0088 41.6005 27.1608 41.0675 26.4783C41.0704 26.4749 41.0729 26.4716 41.0758 26.4681L41.0298 26.4303C41.0246 26.4236 41.0193 26.4171 41.0141 26.4104C40.6942 26.0052 40.3281 25.6094 39.8309 25.4136L39.8068 25.4081C39.0787 25.3463 38.6702 25.6317 38.4717 25.8407C38.4831 25.4849 38.5871 24.8309 39.1775 24.6315C40.1435 24.305 40.7078 24.6095 41.1354 25.1115C41.344 25.3564 41.5199 25.6482 41.694 25.9369C42.0627 26.548 42.4116 27.1226 43.0345 27.0496C43.3105 27.0166 43.5249 26.8678 43.6231 26.6408C43.7388 26.3744 43.6782 26.0331 43.4616 25.7285L43.4375 25.7058C42.8783 25.3543 42.3251 25.351 41.7473 25.696C41.5893 25.4376 41.4162 25.1702 41.2068 24.9409C42.2954 24.383 43.6867 24.2165 44.4697 25.367L44.4708 25.3682Z" fill="#FFD700"/>
<path d="M41.6872 34.0237C41.8963 35.2406 42.187 38.8097 38.698 39.7866C38.698 39.3017 38.6957 38.8306 38.6895 38.4258C39.8913 37.8002 41.1071 36.891 40.5685 34.1682C40.5684 34.1668 40.568 34.1653 40.5677 34.1639C40.7449 33.8645 40.8518 33.5757 40.911 33.3828C41.0205 33.5436 41.2413 33.7711 41.6872 34.0237Z" fill="#FFD700"/>
<path d="M41.5337 31.9951C41.5805 31.9851 41.6248 32.0136 41.6353 32.0597C41.8023 32.7955 42.0424 33.6185 42.7652 34.2142C42.452 33.6709 42.2497 33.0624 42.1862 32.4653C42.1736 32.3484 42.1635 32.2299 42.1532 32.1118C42.0977 31.4728 42.0454 30.8694 41.676 30.5975C41.2852 30.3101 40.5583 30.6605 40.5507 30.664L40.5468 30.656L39.1913 31.1558L39.1991 31.1612C39.196 31.1661 38.8705 31.6611 38.8378 31.9429C38.8189 32.1023 38.8711 32.2019 38.9852 32.4201C39.1106 32.6602 39.3005 33.0229 39.5265 33.7204C39.6303 34.0403 39.6084 34.381 39.5828 34.7754C39.5776 34.8496 39.573 34.9261 39.5683 35.0053C39.5992 34.9771 39.6304 34.9488 39.6625 34.9196C39.9079 34.6973 40.186 34.4446 40.3582 34.1787C40.3683 34.163 40.3784 34.1474 40.3879 34.1317C40.4111 34.0943 40.4333 34.0569 40.454 34.0199C40.4771 33.9787 40.4988 33.9381 40.5192 33.8978C40.7094 33.5241 40.7882 33.1953 40.803 33.1282L40.8016 33.0794L41.0026 32.9957L40.9741 33.1392C40.9848 33.1815 41.0738 33.4509 41.6434 33.8013C41.6748 33.8207 41.7078 33.8403 41.7423 33.8604C41.7734 33.878 41.8057 33.8959 41.8392 33.9142C42.024 34.0142 42.2477 34.1193 42.519 34.2262C41.8628 33.6117 41.6327 32.8149 41.4701 32.0984C41.4594 32.052 41.488 32.0057 41.5337 31.9951Z" fill="#FFD700"/>
<path d="M40.0928 25.7442L40.2756 25.8781C40.4902 26.0516 40.6776 26.2634 40.8508 26.4804C40.7443 26.6237 40.6429 26.7792 40.5483 26.9443C39.7251 28.3953 40.3019 30.1043 40.4575 30.5062L39.2117 30.9657C39.1414 30.3806 38.8672 27.4595 40.1321 25.7757L40.0809 25.7363C40.085 25.7389 40.089 25.7416 40.0928 25.7442Z" fill="#FFD700"/>
<path d="M39.9949 51.8829C40.1594 52.3569 39.8534 52.8554 39.4717 53.303C39.5144 52.9554 39.562 52.3812 39.5362 51.9273C39.5346 51.9045 39.5504 51.8537 39.589 51.8122C39.6275 51.7711 39.676 51.75 39.7381 51.75C39.7385 51.75 39.7385 51.75 39.7385 51.75C39.8129 51.7518 39.9283 51.8274 39.9949 51.8829Z" fill="#FFD700"/>
<path d="M37.9417 52.7172C37.9252 52.7383 37.9115 52.759 37.9012 52.7792C37.8129 52.952 37.797 53.2775 37.7997 53.5223L37.2109 52.6312C37.2321 52.5883 37.2519 52.5423 37.2725 52.4946C37.3469 52.3224 37.4238 52.1445 37.5601 52.1172C37.7038 52.1589 37.7859 52.4315 37.8465 52.632C37.8579 52.6692 37.8684 52.7051 37.879 52.7381L37.9417 52.7172Z" fill="#FFD700"/>
<path d="M36.0854 50.4922C36.5492 50.9438 36.4793 51.4945 36.3197 51.9914C36.3 51.9611 36.2781 51.9309 36.2523 51.9011C36.2074 51.8643 36.1525 51.8527 36.098 51.8678C35.9476 51.9093 35.792 52.1811 35.681 52.4226L35.6152 51.5228C35.6571 51.0614 35.8077 50.7242 36.0854 50.4922Z" fill="#FFD700"/>
<path d="M31.1598 33.4508C30.8014 33.021 30.7472 32.3377 30.7741 31.7965C30.7814 31.6464 30.7949 31.5072 30.8101 31.3874C30.6007 31.5761 30.4381 31.8184 30.2678 32.0719C30.1571 32.2364 30.0426 32.4066 29.9101 32.569C29.7435 32.7728 29.5485 32.9645 29.2959 33.118C28.9495 33.3286 28.4954 33.4673 27.8591 33.4673C27.8591 33.4673 27.8591 33.4673 27.8589 33.4673C27.7313 33.4673 27.5961 33.4618 27.4572 33.4506L27.1692 33.4276L27.4239 33.2891C28.4011 32.7573 28.9889 32.1427 29.1713 31.4624C29.3206 30.9045 29.2006 30.2839 28.8143 29.6172C28.1795 29.884 27.5849 30.1924 27.434 30.6272C27.3663 30.822 27.3927 31.029 27.5147 31.2601C27.8562 31.5104 28.2647 31.3494 28.7427 30.7937L28.8647 30.6517L28.8905 30.8383C28.9254 31.0912 28.7549 31.6174 28.4539 31.9685C28.2651 32.1887 28.0566 32.2976 27.8508 32.2797C27.1335 32.2639 26.8534 31.6322 26.5824 31.0211C26.5155 30.8696 26.4468 30.7151 26.3711 30.5669C26.3715 30.5944 26.3719 30.6222 26.3723 30.6496C26.381 31.3744 26.3885 32.0002 26.9887 32.7721L27.1915 33.033L26.8894 32.9047C26.66 32.8075 26.4767 32.6998 26.3274 32.5816C25.5287 32.6742 23.8041 32.999 23.2965 33.2674C23.2516 33.291 23.2416 33.3555 23.2274 33.4673C23.2165 33.5544 23.2039 33.653 23.1618 33.7519L23.1338 33.8174L23.0651 33.8019C22.9782 33.7818 22.8844 33.7509 22.7899 33.7194C22.5963 33.6551 22.3758 33.5825 22.271 33.6444C22.0366 33.8019 21.8911 33.9798 21.7739 34.1228C21.6693 34.2508 21.5823 34.3633 21.4661 34.4096L20.4978 35.1649L20.5119 35.1776L20.4172 35.2389C20.2538 35.3445 19.9628 35.5533 19.6982 35.7907L19.705 35.7929C19.6152 36.0798 19.6167 36.3154 19.7087 36.4929C19.7931 36.6562 19.9581 36.7787 20.1987 36.8572C20.2912 36.8182 20.3991 36.8005 20.5 36.8101C20.5918 36.8184 20.6718 36.8483 20.7331 36.8959C20.6751 35.8322 21.2305 35.6381 21.645 35.4932C21.6974 35.475 21.7486 35.4572 21.7973 35.4384C21.8406 35.421 21.8901 35.4433 21.907 35.4876C21.9238 35.5319 21.9021 35.5816 21.8584 35.5986C21.8078 35.6187 21.7546 35.6372 21.7005 35.6561C21.2431 35.8156 20.7704 35.9808 20.9277 37.149C21.0094 37.2746 21.0931 37.4149 21.1608 37.5284C21.1915 37.5796 21.2249 37.6355 21.2472 37.671L21.692 37.6732C21.723 37.6817 21.7531 37.6913 21.7818 37.7021C21.6899 37.5183 21.4709 37.0232 21.6332 36.7565C21.7529 36.5603 21.8839 36.4609 22.0232 36.4609H22.0267C22.1127 36.4621 22.2386 36.5036 22.3498 36.6959C22.4495 36.8677 22.5124 37.0806 22.5514 37.2601C22.6242 37.1478 22.7449 37.0496 22.8616 36.9545C22.9786 36.8594 23.0999 36.761 23.154 36.6613C23.2109 36.557 23.2093 36.3928 23.208 36.2342C23.2064 36.0392 23.2046 35.8373 23.3023 35.6891C23.4965 35.3935 24.2128 35.1036 24.2941 35.0715L24.2945 35.0731C24.3859 35.0467 24.7819 35.0479 27.1017 35.0796C27.2618 35.0818 27.4312 35.0841 27.6103 35.0867C28.6801 35.1014 29.7804 35.1169 30.5879 35.1223C30.755 35.1233 30.9095 35.1241 31.0486 35.1243C31.049 35.1243 31.049 35.1243 31.049 35.1243C31.1646 35.1243 31.3077 34.9365 31.4315 34.6222C31.4488 34.5672 31.4783 34.2418 31.5155 33.7304C31.3793 33.6649 31.2605 33.5717 31.1598 33.4508ZM21.1364 35.2707C20.7368 35.3821 20.5529 35.7137 20.3536 36.1354C20.3392 36.1661 20.3086 36.184 20.2771 36.184C20.2649 36.184 20.2522 36.1814 20.2404 36.1758C20.1983 36.1553 20.1802 36.1039 20.2007 36.061C20.372 35.6977 20.5854 35.2457 21.0914 35.1046C21.1374 35.0921 21.1834 35.1189 21.1958 35.1648C21.2082 35.2106 21.1816 35.2579 21.1364 35.2707ZM25.7328 34.2052C25.2769 34.1743 24.8058 34.1414 24.3552 34.2371C24.2867 34.2467 24.1173 34.3817 23.9958 34.5017C23.9795 34.5181 23.958 34.5259 23.9366 34.5259C23.9145 34.5259 23.8926 34.5173 23.8757 34.4999C23.8431 34.4661 23.8439 34.4116 23.8775 34.3783C23.9458 34.3106 24.181 34.0874 24.3265 34.0676C24.794 33.968 25.2772 34.0014 25.7443 34.0333C26.2277 34.0668 26.6835 34.0979 27.1353 33.9955C27.2659 33.954 27.5149 33.7478 27.5993 33.6722C27.6344 33.6403 27.688 33.6437 27.719 33.6795C27.7503 33.7151 27.747 33.7694 27.7119 33.8009C27.6781 33.8314 27.3756 34.0994 27.179 34.1616C26.6967 34.2713 26.2069 34.2375 25.7328 34.2052Z" fill="#FFD700"/>
<path d="M25.5793 24.5542C26.4732 24.4513 28.8767 24.6061 29.2181 24.6504C29.2154 24.7211 29.1827 24.7982 29.1341 24.8699C29.0898 24.864 28.9713 24.8571 28.8329 24.8429C28.1527 24.7726 26.5603 24.6089 25.7092 24.7268C25.532 24.7512 25.4224 24.8155 25.3165 24.8776C25.2367 24.9244 25.1602 24.9693 25.0527 24.9962C25.1177 24.611 25.5743 24.5548 25.5793 24.5542Z" fill="#FFD700"/>
<path d="M28.5287 16.5246L28.5543 18.7953L26.7861 20.7023L25.9677 19.8996L26.8953 18.2208L25.2743 19.1734L24.4482 18.3626L26.2675 16.5176L28.5287 16.5246Z" fill="#FFD700"/>
<path d="M27.3702 49.8888C27.4991 50.1816 27.1001 50.8214 26.8962 51.0875C26.8514 50.7063 26.8009 50.0563 26.895 49.8227C26.9216 49.7563 26.9773 49.7227 27.0607 49.7227C27.196 49.7227 27.3357 49.8103 27.3702 49.8888Z" fill="#FFD700"/>
<path d="M26.4447 18.6836L25.8346 19.787L24.516 21.3168L25.0933 21.8718L24.6287 22.3427L24.0159 21.8143L22.3486 23.5522L21.7598 23.0646L23.4613 21.2853L22.9135 20.6906L23.3206 20.2535L23.8686 20.7779L25.3879 19.3045L26.4447 18.6836Z" fill="#FFD700"/>
<path d="M37.176 31.949C36.8277 31.949 36.6079 31.705 36.5778 31.4751C36.4648 30.6091 36.5219 29.5778 36.5822 28.4855C36.6724 26.8531 36.766 25.1651 36.3298 23.73C35.5493 21.1629 34.1544 20.7796 33.3925 20.7796C33.1076 20.7796 32.9223 20.8345 32.9204 20.8351L32.8414 20.8592L32.8156 20.7796C32.7467 20.5671 32.5251 19.9879 32.3303 19.859C32.1932 19.7685 32.0489 19.7227 31.9008 19.7227C31.6378 19.7227 31.4337 19.8647 31.3307 19.9978C30.9387 20.5023 30.8851 20.8072 30.8923 20.8613L30.8265 20.8765L30.8923 20.927L30.8678 20.9705L30.7672 20.9754L30.7656 20.9729C30.7528 20.9731 30.7381 20.9731 30.7215 20.9731L30.2996 20.9717C29.4303 20.9717 29.1665 21.0113 29.0985 21.0443C28.9828 21.1008 28.8547 21.4212 28.8009 21.6304L28.7833 21.6997L28.7129 21.6948C28.7103 21.6945 28.4379 21.6759 28.0989 21.6759C27.2022 21.6759 26.8325 21.8048 26.7851 21.9258C26.7042 22.1332 26.7176 22.1998 26.7273 22.2186C26.7358 22.2354 26.764 22.2438 26.8092 22.2554C26.8736 22.2721 26.9621 22.2948 27.0001 22.3912L27.0131 22.4243L26.9992 22.4569C26.8348 22.8466 26.7331 23.7013 26.8264 23.9088C26.8369 23.932 26.8843 23.9712 27.0822 23.9712C27.2022 23.9712 27.3535 23.9572 27.5132 23.9428C27.7119 23.9245 27.9366 23.9042 28.1606 23.9042C28.4468 23.9042 28.681 23.9381 28.877 24.008C29.0893 24.0835 29.3134 24.2792 29.3726 24.5173C29.3827 24.5563 29.388 24.5966 29.388 24.6376C29.3886 24.773 29.3208 24.9151 29.2236 25.0331C29.1204 25.1581 28.9841 25.2563 28.8611 25.2914C28.5434 25.3813 28.0635 25.3949 27.806 25.3949C27.4742 25.3949 27.1397 25.373 26.9002 25.3366C26.932 26.0341 26.991 26.5052 27.0851 26.8138C27.1138 26.9089 27.4461 26.9728 27.7379 26.9728H27.7447C27.7575 26.9677 27.7719 26.9658 27.7868 26.9675C27.8012 26.9695 27.8153 26.9713 27.8297 26.9728H27.9568L27.9455 26.9834C28.8256 27.0435 29.7532 26.6386 30.3475 25.9251C30.8259 25.3508 30.9864 24.6957 30.7992 24.0803C30.7854 24.0346 30.8106 23.9866 30.8552 23.9724C30.901 23.96 30.9476 23.984 30.9615 24.0293C31.163 24.6931 30.9866 25.4246 30.4771 26.0361C29.8896 26.7416 28.993 27.1612 28.1169 27.1612C28.0033 27.1612 27.8904 27.154 27.7784 27.1397C27.1737 27.6998 26.5225 28.3455 25.925 29.1181C25.6401 29.4869 25.3675 29.8845 25.1181 30.3152C25.0286 30.4694 24.9425 30.6278 24.8596 30.7907C24.815 30.9181 24.7997 31.0629 24.7831 31.216C24.7597 31.4334 24.7354 31.6584 24.6135 31.8824C24.5099 32.073 24.2499 32.2275 24.0479 32.3246C24.2109 32.3529 24.416 32.382 24.5743 32.382C24.7003 32.382 24.7451 32.3635 24.7587 32.3554C25.017 32.2024 25.1225 31.893 25.282 31.4248C25.341 31.2526 25.4066 31.0608 25.4893 30.8484L25.5791 30.6176L25.7171 31.0899C25.8766 31.6456 25.9923 32.0491 26.3373 32.3671C26.3588 32.3869 26.3812 32.4065 26.4046 32.4255C26.4277 32.4447 26.4518 32.4632 26.4768 32.4817C26.496 32.4325 26.4976 32.3663 26.4838 32.2805C26.3734 32.0462 26.3075 31.8202 26.2675 31.5979C26.2106 31.2802 26.2067 30.9697 26.2028 30.6515C26.2013 30.5155 26.1995 30.3775 26.1937 30.2364L26.1807 29.9264L26.3491 30.1854C26.504 30.4234 26.6228 30.691 26.7376 30.9502C27.0095 31.5638 27.2447 32.094 27.86 32.1078C27.8748 32.1086 27.8845 32.1092 27.894 32.1092C27.894 32.1092 27.894 32.1092 27.8942 32.1092C28.0716 32.1092 28.227 31.971 28.3264 31.8551C28.5144 31.6357 28.6539 31.3222 28.705 31.0862C28.2206 31.5723 27.7692 31.6708 27.398 31.3864L27.3751 31.3592C27.2231 31.08 27.189 30.8144 27.2742 30.5698C27.4529 30.0556 28.1216 29.7179 28.8177 29.4296L28.8847 29.4018L28.9223 29.4644C29.3634 30.1971 29.5023 30.8843 29.3355 31.5074C29.1573 32.172 28.6281 32.7722 27.7603 33.2942C27.7939 33.2949 27.8269 33.2953 27.8593 33.2953H27.8595C29.2402 33.2951 29.6913 32.6238 30.1278 31.9748C30.3493 31.6451 30.5586 31.334 30.8779 31.1162L31.0417 31.0048L31.0089 31.2021C30.9933 31.2956 30.9713 31.4486 30.9561 31.6337C30.9147 32.146 30.9281 32.9059 31.2898 33.3396C31.3595 33.4232 31.4391 33.4913 31.5292 33.5439C31.5555 33.5592 31.5827 33.5732 31.611 33.5858C31.6374 33.5978 31.6646 33.6084 31.6928 33.6181C31.8472 33.6704 32.0262 33.6867 32.23 33.6663C32.709 33.5443 32.8329 32.9163 32.865 32.5963C32.5665 32.8262 32.3139 32.9427 32.1122 32.9427C31.9469 32.9427 31.8223 32.864 31.754 32.724C31.7199 32.6547 31.6997 32.5707 31.695 32.4737C31.6933 32.4394 31.6937 32.404 31.6956 32.3676C31.704 32.223 31.7418 32.0634 31.8062 31.9024C32.0245 31.3568 32.5492 30.7925 33.2773 30.7198L33.3756 30.7104L33.3703 30.8102C33.3697 30.8251 33.2944 32.2881 33.4537 33.1932C33.5943 33.4802 33.7639 33.6319 33.9449 33.6319C34.1118 33.6319 34.2896 33.4952 34.4092 33.2753C34.5149 33.0803 34.5886 32.7835 34.5007 32.5139C34.4913 32.5365 34.4821 32.5589 34.4728 32.581C34.3585 32.8555 34.2506 33.1149 34.0078 33.1149C33.9083 33.1149 33.7988 33.0681 33.6733 32.9714L33.6492 32.9425C33.4831 32.6174 33.6467 32.2911 33.8735 31.8394C34.071 31.4453 34.342 30.9054 34.5145 30.1357L34.5638 29.9157L34.6715 30.1133C34.7174 30.1975 34.7472 30.3069 34.7673 30.4355C34.7985 30.6328 34.8069 30.8749 34.816 31.1386C34.8236 31.3543 34.8314 31.5789 34.852 31.7943C34.8691 31.9724 34.8948 32.1444 34.9367 32.3001C35.0068 32.5621 35.122 32.7777 35.3159 32.8985C35.3679 32.9308 35.5117 32.9852 35.8909 32.9852C35.988 32.9852 36.0822 32.9816 36.1623 32.9769C35.9336 32.8059 35.5705 32.5117 35.4634 32.2981C35.1602 31.6932 35.1709 31.1423 35.5016 30.3339L35.5795 30.1432L35.6582 30.3332C35.7514 30.5588 35.7842 30.8044 35.816 31.0419C35.8725 31.4639 35.9214 31.8284 36.2704 32.0256C36.4333 32.1178 36.6227 32.216 36.8082 32.216C36.9806 32.216 37.1302 32.1267 37.2623 31.9445C37.2333 31.9476 37.2044 31.949 37.176 31.949ZM29.9366 25.268C29.9138 25.4091 29.6866 25.5032 29.5898 25.5372C29.5805 25.5404 29.5713 25.5419 29.562 25.5419C29.5271 25.5419 29.4941 25.5197 29.4819 25.4839C29.4667 25.439 29.49 25.3902 29.5343 25.3745C29.6426 25.3365 29.7568 25.2702 29.7697 25.2377C29.8256 24.8899 29.8502 24.3781 29.7709 24.0815C29.7553 24.0233 29.6249 23.8998 29.5128 23.8186C29.4747 23.791 29.4658 23.7373 29.4929 23.6985C29.5201 23.6602 29.5734 23.6511 29.6113 23.6784C29.6585 23.7127 29.8956 23.8904 29.9346 24.0364C30.0334 24.4056 29.9822 24.9842 29.9366 25.268ZM30.1388 21.976C29.9515 22.0879 29.8222 22.1775 29.7187 22.2495C29.5343 22.3772 29.4328 22.4477 29.2721 22.4477C29.2483 22.4477 29.2231 22.4459 29.196 22.4428C29.113 22.4328 29.0422 22.368 29.0012 22.2653C28.9469 22.1287 28.9469 21.9215 29.0523 21.7904L29.0695 21.7689L29.0955 21.7614C29.239 21.722 29.3657 21.7341 29.6569 21.7679C29.7738 21.7817 29.9183 21.7984 30.1035 21.816L30.3647 21.8407L30.1388 21.976ZM31.4366 20.5887C31.4415 20.5417 31.4791 20.504 31.53 20.5123C32.3508 20.6013 32.3743 21.1444 32.4015 21.7738C32.4036 21.8212 32.3673 21.8614 32.3205 21.8636H32.3169C32.2716 21.8636 32.234 21.8275 32.2321 21.7815C32.202 21.0893 32.1589 20.7534 31.5119 20.6834C31.4653 20.6782 31.4318 20.6361 31.4366 20.5887ZM31.9103 30.1611C31.8816 30.1851 31.8518 30.2085 31.821 30.2313C31.7923 30.2527 31.7628 30.2736 31.7323 30.2939C31.4471 30.4846 31.0824 30.6318 30.618 30.7125C30.4109 30.8231 30.1818 30.9254 29.9304 31.0191C29.8834 31.0516 29.8527 31.0715 29.8465 31.0754C29.8325 31.0845 29.8168 31.0887 29.8011 31.0887C29.7732 31.0887 29.7458 31.075 29.7297 31.049C29.7042 31.0089 29.7161 30.9559 29.7557 30.9304C29.7562 30.9299 29.7603 30.9274 29.7673 30.9227C29.7764 30.9026 29.7933 30.8861 29.8157 30.8779C29.8281 30.8733 29.8404 30.8688 29.8527 30.8645C30.0763 30.7074 30.6167 30.3006 30.7155 29.9684C30.7875 29.7258 30.4283 29.2395 30.1657 28.8841L30.1337 28.841C29.9008 28.5249 29.914 28.3094 29.9247 28.1362C29.9294 28.0607 29.9335 27.9954 29.9144 27.9337C29.9008 27.8881 29.9259 27.8401 29.9707 27.8259C30.0169 27.8135 30.0629 27.8375 30.0768 27.8828C30.1045 27.9747 30.0993 28.0625 30.0941 28.1469C30.0842 28.307 30.0742 28.4728 30.2696 28.7376L30.3015 28.7811C30.6171 29.2082 30.9747 29.6921 30.878 30.0182C30.8189 30.217 30.6381 30.4284 30.4438 30.6096C30.4671 30.598 30.49 30.5862 30.5128 30.5742C30.5252 30.5606 30.5419 30.5508 30.5613 30.5476C30.5618 30.5474 30.5626 30.5474 30.5632 30.5472C31.146 30.2315 31.5355 29.8478 31.7247 29.402C31.7531 29.3349 31.7765 29.268 31.7953 29.2013C31.8293 29.0812 31.8483 28.9622 31.856 28.8461C31.8657 28.7022 31.8578 28.5627 31.8386 28.4304C31.7875 28.0709 31.6548 27.7655 31.5714 27.5734L31.5412 27.5031C31.5228 27.4592 31.5428 27.4087 31.5859 27.3902C31.629 27.3713 31.6786 27.3915 31.6971 27.4352L31.7268 27.5039C31.7661 27.5946 31.8193 27.717 31.87 27.8634C31.8952 27.936 31.9199 28.0146 31.9418 28.098C31.9695 28.2027 31.9932 28.3153 32.0085 28.4334C32.041 28.6794 32.038 28.9498 31.9639 29.2265C31.9424 29.3074 31.9148 29.3886 31.8802 29.4701C31.8744 29.4837 31.8686 29.4973 31.8624 29.5107C31.8342 29.5731 31.8024 29.6341 31.7671 29.6941C31.611 29.9587 31.3854 30.1998 31.0918 30.4162C31.3521 30.3268 31.5674 30.2103 31.7452 30.0743C31.7759 30.0507 31.8058 30.0265 31.8342 30.0017C31.8656 29.9747 31.8955 29.947 31.9243 29.9186C32.7325 29.122 32.5451 27.8481 32.46 27.2713C32.4207 27.0037 32.4058 26.9033 32.51 26.8802C32.5563 26.8689 32.6007 26.8997 32.611 26.9458C32.6162 26.9694 32.6113 26.9928 32.5992 27.0115C32.5992 27.0518 32.614 27.1502 32.6279 27.2461C32.7131 27.8252 32.932 29.3115 31.9103 30.1611ZM33.7393 28.9253C33.7242 28.9545 33.6946 28.9708 33.6644 28.9708C33.651 28.9708 33.6372 28.9676 33.6244 28.9606C33.583 28.9383 33.5675 28.8862 33.5897 28.8443C34.2303 27.629 33.652 26.646 33.646 26.6362C33.6217 26.5958 33.6341 26.5427 33.674 26.5177C33.7135 26.4933 33.7662 26.5053 33.7909 26.5462C33.8169 26.5895 34.4253 27.6239 33.7393 28.9253Z" fill="#FFD700"/>
<path d="M25.2606 50.6308L25.2251 50.7767C25.1595 51.0397 25.1347 51.1389 25.0876 51.6882C24.818 51.3178 24.6154 50.9593 24.4961 50.7316C24.5964 50.3584 24.7625 50.0188 24.8467 50.0156C24.9523 50.0136 25.1382 50.3202 25.2606 50.6308Z" fill="#FFD700"/>
<path d="M41.8827 50.4004C41.8368 49.9121 41.7887 49.407 41.7975 48.8762C41.8055 48.3617 41.8266 47.8622 41.8472 47.3791C41.9006 46.1199 41.9468 45.0327 41.6927 44.7754C41.6576 44.74 41.6175 44.7237 41.5699 44.7266L41.4973 44.7299L41.4832 44.6578C41.372 44.5281 39.9387 44.4893 39.4696 44.6141L39.4238 44.6261L39.3894 44.5932C38.6833 43.9111 38.5102 43.2021 38.5031 43.1719C38.5019 43.1335 38.5258 41.5381 38.5285 40.0099V39.9213C38.5287 39.8916 38.5287 39.8621 38.5287 39.8326C38.5289 39.3654 38.5272 38.9104 38.5217 38.5148C38.5212 38.4821 38.5209 38.4501 38.5203 38.4182C38.5198 38.3855 38.5194 38.3532 38.5188 38.3215C38.5155 38.1397 38.5114 37.9738 38.5063 37.8291C38.3834 37.2386 37.4899 36.7296 36.6256 36.2372C35.6782 35.697 34.7831 35.1873 34.7667 34.5152L34.7668 32.3245C34.6745 31.9655 34.6597 31.5408 34.646 31.1446C34.6376 30.9024 34.6295 30.6684 34.6024 30.4824C34.4288 31.1112 34.1985 31.5699 34.0242 31.9175C33.8105 32.3435 33.6794 32.6045 33.791 32.8463C33.8777 32.9103 33.9507 32.943 34.0073 32.943C34.1373 32.943 34.2202 32.7442 34.316 32.5139C34.349 32.4344 34.3836 32.3522 34.422 32.2721L34.4889 32.1335L34.57 32.2636C34.7589 32.5663 34.7539 32.9961 34.5573 33.3579C34.4056 33.6372 34.1767 33.8039 33.9444 33.8039C33.7682 33.8041 33.5128 33.7093 33.2955 33.258L33.2881 33.2356C33.1458 32.4417 33.181 31.2603 33.1957 30.9043C32.2915 31.0554 31.8414 31.9983 31.864 32.4653C31.8707 32.6044 31.9192 32.7707 32.1117 32.7707C32.2448 32.7707 32.4906 32.6961 32.9055 32.3423L33.0437 32.2244L33.0451 32.4075C33.0455 32.4577 33.0451 33.6361 32.2584 33.8357C32.1839 33.8437 32.1239 33.8469 32.0666 33.8469C32.0666 33.8469 32.0666 33.8469 32.0665 33.8469C31.927 33.8469 31.7975 33.8292 31.6791 33.7937C31.6407 34.3036 31.6091 34.6352 31.5889 34.6862C31.4294 35.0908 31.2475 35.2961 31.0488 35.2961H31.0484C30.9368 35.2959 30.8156 35.2955 30.6857 35.2947C30.7211 35.4467 30.7699 35.586 30.832 35.7151C30.9281 35.9162 31.0554 36.092 31.2101 36.2496C31.3562 36.3986 31.5266 36.5312 31.7184 36.6538C31.949 36.8014 32.2105 36.9344 32.4971 37.0631C32.5398 37.0824 32.5592 37.1332 32.5403 37.1765C32.5262 37.2088 32.4951 37.2277 32.4628 37.2277C32.4511 37.2277 32.4394 37.2255 32.4284 37.2206C32.1769 37.1076 31.9285 36.9849 31.6971 36.8422L31.2272 37.3747C31.2105 37.3936 31.1872 37.4032 31.1642 37.4032C31.144 37.4032 31.1235 37.3961 31.1075 37.3814C31.0727 37.3497 31.0697 37.2954 31.1008 37.26L31.5518 36.7485C31.4084 36.6515 31.2733 36.5452 31.1501 36.4269L30.5875 36.9703C30.5712 36.9861 30.5501 36.9937 30.5291 36.9937C30.5066 36.9937 30.4843 36.9848 30.4676 36.9671C30.4354 36.9327 30.4366 36.8782 30.4708 36.8453L31.0306 36.3045C30.9163 36.1786 30.815 36.0398 30.7304 35.8859L30.1837 36.4139C30.1674 36.4297 30.1464 36.4376 30.1253 36.4376C30.1028 36.4376 30.0805 36.4286 30.0638 36.4108C30.0315 36.3765 30.0327 36.322 30.0666 36.2892L30.6508 35.7251C30.5995 35.6092 30.557 35.4852 30.5249 35.3522L29.7449 35.9802C29.7292 35.9926 29.7106 35.9987 29.6921 35.9987C29.6671 35.9987 29.6423 35.9875 29.6256 35.9662C29.5965 35.929 29.6025 35.8747 29.6392 35.8452L30.3261 35.2924C29.5507 35.2859 28.5672 35.2721 27.6078 35.2587C27.4477 35.2566 27.287 35.2542 27.1275 35.252C27.7496 37.5737 29.3073 37.985 32.1314 37.9575L32.1654 37.9569L32.1898 37.9801C32.3183 38.1002 32.7276 38.5119 32.6067 38.7638L32.5847 38.8094L32.5348 38.8119C27.5008 39.0839 27.3562 39.1363 25.974 39.6361C25.8117 39.695 25.6324 39.7597 25.4265 39.8317C25.3194 39.8691 25.203 39.8884 25.0905 39.9073C24.8077 39.9541 24.5409 39.9988 24.3358 40.2964C24.1046 40.6315 24.3385 41.1117 24.3907 41.2097L25.1025 41.6492L25.1108 41.6754C25.6858 41.3176 25.673 41.1879 25.6359 40.8222L25.6255 40.7126C25.6212 40.6654 25.6557 40.6235 25.7023 40.6191C25.7539 40.613 25.79 40.6502 25.7943 40.6973L25.8048 40.8047C25.8482 41.2359 25.8391 41.4296 25.1656 41.8432C25.3294 42.3365 25.8389 43.8112 26.2624 44.3859C26.47 44.6675 26.8341 44.8806 27.2195 45.106C27.7387 45.41 28.2759 45.7241 28.4482 46.2413L28.4544 46.2598L28.4521 46.2793C28.3722 46.9549 27.7071 47.6531 27.162 48.0461L27.1317 48.0598C26.8331 48.129 26.5424 48.1494 26.261 48.1691C25.9005 48.1945 25.5599 48.2183 25.2114 48.3372C25.0544 48.3905 24.8648 48.286 24.6645 48.1748C24.5124 48.0907 24.355 48.0036 24.2331 48C24.069 48.0057 23.7059 48.1767 23.5594 48.2588C23.5485 48.2748 23.5378 48.2905 23.5273 48.3062L23.5287 48.3072L23.6774 48.2242C24.0024 48.8244 23.8675 49.7744 23.7938 50.1203C23.8334 50.1524 23.8662 50.1821 23.8877 50.2026L23.9953 50.2608C24.2831 49.2528 24.9826 48.7479 26.131 48.7179C26.1762 48.7137 26.2168 48.7539 26.218 48.8015C26.2192 48.8492 26.1823 48.8885 26.1353 48.8897C25.0432 48.9184 24.4104 49.3807 24.1484 50.3437L24.362 50.4592L24.3739 50.4859C24.3743 50.4866 24.378 50.4948 24.3852 50.5097C24.4719 50.2425 24.6338 49.8519 24.8412 49.8445C24.8433 49.8443 24.8456 49.8443 24.848 49.8443C25.11 49.8443 25.3376 50.358 25.4245 50.583C25.455 50.58 25.4849 50.577 25.5142 50.5739C25.7317 50.5516 25.9198 50.5325 26.0998 50.5953C26.2623 50.6518 26.3977 50.797 26.5285 50.9373C26.5951 51.0087 26.6628 51.0816 26.7319 51.1389C26.6923 50.8134 26.6179 50.0547 26.7379 49.7567C26.7909 49.6251 26.9084 49.5495 27.0608 49.5495C27.2518 49.5495 27.4603 49.6698 27.5252 49.8178C27.6121 50.0148 27.5537 50.308 27.3522 50.6893C27.2707 50.8437 27.1063 51.1058 26.9798 51.2532C27.231 51.2654 27.5948 51.034 27.7914 50.86C27.9546 50.7161 28.0132 50.4819 28.0701 50.2556C28.1108 50.0935 28.1529 49.9258 28.2344 49.7929C28.8653 48.7662 30.7952 46.7004 30.8771 46.613L30.9019 46.5863H30.9382C31.1645 46.5851 31.7859 46.5387 31.944 46.3391C32.0333 46.2264 32.0432 45.9703 31.9917 45.8338C31.8439 45.4382 31.3854 45.1629 30.9424 44.8964C30.658 44.7254 30.3892 44.5638 30.2049 44.3735C30.173 44.3406 30.1465 44.3243 30.1229 44.3096C29.9772 44.2199 29.9802 44.2057 30.1358 43.4706L30.1581 43.3642L30.1825 43.345C30.6475 42.9778 32.5452 42.0838 32.7858 42.2205C33.0505 42.3697 33.2188 42.7208 33.4138 43.1276C33.7384 43.8047 34.1423 44.6474 35.1766 45.1091C35.3648 45.1927 35.338 45.3866 35.3121 45.5738C35.2816 45.7964 35.2469 46.0479 35.458 46.2901C35.8268 46.4458 36.2224 46.4241 36.6048 46.4038C36.9338 46.3857 37.2445 46.3696 37.5172 46.4671C37.8365 46.6702 38.2278 46.7957 38.6062 46.9171C38.9964 47.0425 39.3653 47.1606 39.6199 47.3477L39.6403 47.3625L39.683 47.4735C39.9526 48.1741 40.2881 49.0461 40.0496 49.8628C40.0006 50.0295 39.8093 49.9856 39.67 49.9531C39.596 49.9362 39.4726 49.9077 39.4428 49.9338C39.4151 49.9588 39.4216 50.0561 39.4263 50.1269C39.4342 50.247 39.4434 50.3832 39.3494 50.4631C39.192 50.5965 38.9716 50.5101 38.7765 50.4337C38.6261 50.3749 38.4699 50.3135 38.3985 50.3718C38.3826 50.3981 38.3951 50.5324 38.4001 50.5896C38.4114 50.7091 38.4183 50.7878 38.3502 50.8244C38.3321 50.8335 38.2856 50.8512 38.23 50.8047C37.8076 50.4462 37.1112 50.165 36.9495 50.1356L36.9224 50.1406C36.6427 50.1914 36.4114 50.2734 36.225 50.3905C36.7731 50.9459 36.6276 51.6317 36.4379 52.1692L36.4096 52.1589C36.4127 52.1656 36.4158 52.1722 36.4189 52.1786C36.4807 52.3087 36.535 52.4234 36.644 52.4843C36.6392 52.4695 36.6384 52.4531 36.6423 52.4368C36.9154 51.319 37.6005 51.194 38.3258 51.062C38.4284 51.0433 38.5324 51.0244 38.6376 51.0023C38.6851 50.9933 38.7284 51.0226 38.7379 51.069C38.7474 51.1155 38.7182 51.1612 38.6722 51.1708C38.5654 51.1931 38.4599 51.2125 38.3557 51.2312C37.6283 51.3638 37.0537 51.4683 36.8071 52.4781C36.802 52.4982 36.7908 52.5147 36.7756 52.5263C36.8508 52.5366 36.9439 52.5306 37.0625 52.5043L37.0846 52.4993C37.0953 52.4756 37.1062 52.4506 37.1172 52.4251C37.204 52.2242 37.3124 51.9737 37.5526 51.9438L37.566 51.942L37.579 51.9447C37.8311 51.9929 37.9295 52.3191 38.0087 52.5812L38.0238 52.6302C38.2314 52.4417 38.6099 52.2628 38.8055 52.288C39.0931 52.3238 39.1395 52.5838 39.1845 52.8353C39.2095 52.9764 39.237 53.1295 39.3044 53.2688C39.3434 52.9412 39.3915 52.3897 39.3659 51.9381C39.3617 51.8598 39.4004 51.7643 39.4653 51.695C39.5349 51.62 39.63 51.5789 39.7327 51.5789C39.9102 51.5827 40.1012 51.7494 40.1223 51.7683L40.1454 51.8021C40.3407 52.3219 40.0668 52.8402 39.6909 53.3063C39.7445 53.2887 39.7968 53.2734 39.8471 53.2587C40.0529 53.1984 40.2302 53.1463 40.3292 53.0148C40.3629 52.9693 40.3828 52.8723 40.4017 52.7789C40.4341 52.6181 40.4679 52.4522 40.594 52.3861C40.7791 52.2889 40.9509 52.3176 41.1323 52.3479C41.3534 52.3851 41.582 52.4227 41.8932 52.2458C42.0058 51.704 41.9458 51.0703 41.8827 50.4004ZM27.807 49.2399C27.7952 49.2855 27.7492 49.3141 27.7032 49.3009C27.1352 49.1488 26.6972 49.1531 26.4362 49.3139C26.3002 49.3979 26.2125 49.5252 26.1754 49.6923C26.1665 49.732 26.1313 49.7592 26.0925 49.7592C26.0865 49.7592 26.0803 49.7586 26.0739 49.7572C26.0281 49.7465 25.9996 49.7007 26.0097 49.6543C26.0572 49.44 26.1711 49.2759 26.3483 49.1668C26.6542 48.9787 27.1245 48.9675 27.7468 49.1347C27.7921 49.1468 27.819 49.1939 27.807 49.2399ZM28.9663 45.3297C28.956 45.3678 28.9219 45.3929 28.8844 45.3929C28.8772 45.3929 28.8697 45.3919 28.8619 45.3899C28.1334 45.1874 27.6853 44.4966 27.2518 43.8289C27.1955 43.7423 27.1394 43.6556 27.0826 43.5699C27.0562 43.5303 27.0667 43.4768 27.1055 43.4505C27.1441 43.4235 27.1969 43.4341 27.2231 43.4737C27.2803 43.5601 27.337 43.6471 27.3936 43.7342C27.8287 44.4049 28.2399 45.0387 28.9069 45.2238C28.9521 45.2366 28.9787 45.2838 28.9663 45.3297ZM33.168 39.4706C31.9583 40.157 30.5817 40.9822 29.5524 42.0884C29.5355 42.1063 29.513 42.1152 29.4905 42.1152C29.4697 42.1152 29.4485 42.1075 29.4323 42.0919C29.3981 42.0593 29.3965 42.0047 29.4287 41.9703C30.4745 40.8462 31.8646 40.0131 33.0852 39.3204C33.1253 39.2976 33.1774 39.3119 33.2006 39.3535C33.2234 39.395 33.2089 39.4473 33.168 39.4706ZM38.5089 45.7026C38.4931 45.7292 38.465 45.7441 38.4363 45.7441C38.4213 45.7441 38.4062 45.7402 38.3926 45.7319C38.3827 45.7258 38.3728 45.7199 38.3629 45.7136C38.3585 45.7144 38.354 45.7147 38.3496 45.7147C38.3271 45.7147 38.3043 45.7055 38.2879 45.6876C38.2729 45.6715 38.2579 45.6555 38.243 45.6394C36.2075 44.3667 35.3229 43.1066 35.6124 41.8919C35.6232 41.8457 35.6701 41.8177 35.7146 41.8286C35.7605 41.8396 35.7882 41.8863 35.7771 41.9324C35.539 42.9313 36.1775 43.9797 37.6762 45.055C36.9764 44.3383 36.3069 43.6055 36.5085 42.9687C36.5229 42.9232 36.5691 42.898 36.6153 42.9132C36.6599 42.9276 36.6845 42.9762 36.67 43.0215C36.4876 43.5981 37.22 44.3455 37.9283 45.0678C38.0714 45.2138 38.2146 45.3598 38.3509 45.5048C38.3934 45.5314 38.4363 45.558 38.4798 45.5844C38.5201 45.6089 38.5331 45.6617 38.5089 45.7026ZM39.3793 45.2256C39.365 45.2573 39.3341 45.276 39.3019 45.276C39.2901 45.276 39.2783 45.2736 39.2668 45.2685C38.3425 44.8441 37.8694 44.0597 37.8609 42.9372C37.8604 42.8892 37.8984 42.8561 37.9457 42.8506C37.9922 42.8506 38.0303 42.8884 38.0304 42.9358C38.0386 44.0003 38.4659 44.7117 39.3369 45.1114C39.3796 45.1311 39.3984 45.1821 39.3793 45.2256ZM40.3776 51.428C40.3465 51.4631 40.2926 51.4657 40.2579 51.4334C40.2051 51.3848 39.9167 51.2868 39.5994 51.3195C39.3865 51.3415 39.0881 51.4308 38.8736 51.731C38.8572 51.7542 38.8313 51.7664 38.805 51.7664C38.7876 51.7664 38.7702 51.7611 38.7553 51.7501C38.7172 51.7223 38.7089 51.6684 38.7364 51.63C38.9875 51.2782 39.3351 51.174 39.5821 51.1483C39.9419 51.112 40.2773 51.2181 40.3723 51.3067C40.4069 51.3386 40.4092 51.3931 40.3776 51.428ZM40.485 46.6667C40.3949 46.5185 40.3211 46.4778 40.294 46.475C40.246 46.4823 40.2051 46.4483 40.1991 46.4009C40.1928 46.3538 40.2258 46.3107 40.2722 46.3046C40.4616 46.2772 40.6569 46.5329 40.8507 47.0571C40.9493 47.3234 41.2939 48.4338 41.0518 48.5977C41.0372 48.6076 41.0209 48.612 41.0046 48.612C40.9774 48.612 40.9505 48.5986 40.9341 48.5739C40.9079 48.5343 40.9184 48.481 40.9574 48.4547C41.0341 48.3366 40.8095 47.202 40.485 46.6667ZM41.8056 51.801C41.7742 51.8363 41.7203 51.8382 41.6859 51.8057C41.535 51.6641 41.3249 51.595 41.136 51.6255C40.9876 51.6495 40.8666 51.7335 40.7958 51.8625C40.7803 51.8906 40.7514 51.9063 40.7219 51.9063C40.7079 51.9063 40.6936 51.903 40.6803 51.8957C40.6394 51.8723 40.625 51.8199 40.6477 51.7784C40.7446 51.6027 40.9083 51.4879 41.1092 51.4556C41.3523 51.4178 41.6097 51.5001 41.801 51.6796C41.8356 51.7117 41.8377 51.7662 41.8056 51.801Z" fill="#FFD700"/>
<path d="M23.5291 48.3076C23.8085 48.8236 23.7096 49.663 23.6445 50.0144C23.5599 49.9635 23.4697 49.9274 23.3965 49.94C23.1887 49.9729 23.08 50.15 22.9649 50.3374C22.9153 50.4187 22.8644 50.5011 22.8035 50.5771C22.742 49.6838 23.0139 49.0702 23.5277 48.3066L23.5291 48.3076Z" fill="#FFD700"/>
<path d="M22.4343 37.5894C22.396 37.7689 22.3761 37.9693 22.3657 38.109C22.3518 38.0963 22.3378 38.0838 22.3238 38.071C22.2466 38.0011 22.1684 37.9305 22.0816 37.8667L22.0849 37.8622C21.9953 37.7947 21.6277 37.0923 21.7778 36.8463C21.8618 36.7086 21.9489 36.6328 22.0234 36.6328C22.0238 36.6328 22.0244 36.6328 22.0248 36.6328C22.1053 36.6338 22.1713 36.7271 22.2035 36.7828C22.3613 37.0543 22.4193 37.4629 22.4343 37.5894Z" fill="#FFD700"/>
<path d="M22.6557 24.6646C22.4545 24.6406 22.2164 24.5947 22.0937 24.514C22.0518 24.4867 22.0091 24.464 21.9663 24.4414C21.8729 24.3922 21.7848 24.3456 21.701 24.2381C21.6445 24.1657 21.6422 23.9756 21.6971 23.9151C21.7225 23.887 21.8038 23.8555 21.8743 23.8555C21.9083 23.8555 21.924 23.8632 21.9255 23.8635C22.0625 24.1488 22.4176 24.47 22.6557 24.6646Z" fill="#FFD700"/>
<path d="M21.3801 22.9739L21.9423 23.4394L21.843 23.6853C21.7489 23.6925 21.6332 23.7314 21.5717 23.7993C21.4983 23.8797 21.4752 24.0126 21.4898 24.134C21.4698 24.1307 21.4512 24.1287 21.4349 24.1287C21.3976 24.1287 21.3536 24.1234 21.3113 24.1187C21.2612 24.1132 21.2158 24.1081 21.177 24.1091C21.1112 24.0164 21.0584 23.9498 21.0431 23.9308C21.0134 23.8938 20.9596 23.8885 20.9237 23.9182C20.8872 23.9483 20.8818 24.0024 20.9113 24.0392C21.0101 24.1622 21.2359 24.4743 21.3326 24.7227C21.2012 24.6936 21.0917 24.7099 21.0064 24.7721C20.9321 24.8258 20.8814 24.9122 20.8574 25.023C20.8281 25.013 20.8 25.0035 20.7732 24.9947C20.4912 24.9008 20.3627 24.8579 20.1081 24.3878C20.0857 24.3461 20.0334 24.3314 19.9932 24.3537C19.9519 24.3765 19.9372 24.4289 19.9595 24.4704C20.1743 24.8678 20.3229 24.9988 20.5127 25.0824L20.4894 25.5044C20.4349 25.4404 20.3724 25.3852 20.2996 25.3477C20.2602 25.3275 20.2187 25.317 20.177 25.317C20.0177 25.317 19.9028 25.4616 19.8341 25.5831C19.81 25.6258 19.7972 25.674 19.7935 25.7252C19.3676 25.4542 19.0906 25.2308 18.9614 25.1194C18.9539 24.9431 18.9761 24.7414 19.0252 24.6997C19.0914 24.6432 19.405 24.5609 19.607 24.5206L19.6994 24.5019L19.6714 24.4106C19.6047 24.1917 19.5488 23.8255 19.6415 23.7348C19.7428 23.6363 20.0417 23.6651 20.2067 23.7072L20.3062 23.7322L20.312 23.6284C20.3231 23.4265 20.3835 23.066 20.4975 22.9584C20.6266 22.8368 21.0995 22.9021 21.3801 22.9739Z" fill="#FFD700"/>
<path d="M21.4959 25.1272C21.5817 25.2887 21.6634 25.4427 21.9135 25.7542C21.5464 25.6808 21.3644 25.4853 21.1876 25.2952C21.1297 25.233 21.074 25.1732 21.0137 25.1197C21.023 25.0217 21.0546 24.9479 21.1047 24.9115C21.1788 24.8581 21.2952 24.8841 21.383 24.9168L21.3888 24.9339C21.4317 25.0054 21.4641 25.0666 21.4959 25.1272Z" fill="#FFD700"/>
<path d="M21.2191 34.3854L20.3689 35.0485L19.4582 34.229C19.9389 33.4806 20.5098 32.4216 20.2055 31.6045C20.0268 31.1243 19.5657 30.7783 18.8209 30.5736L18.7652 30.5679C18.1862 30.51 17.4726 30.4398 16.6015 32.9524C16.1699 31.1559 16.6626 30.0393 18.0682 29.6316C19.1293 29.3225 20.4714 29.8464 21.124 30.822C21.4725 31.3429 21.9 32.4229 20.849 33.8025C20.8096 33.8552 20.7962 33.9174 20.8106 33.9822C20.8469 34.145 21.0596 34.2943 21.2191 34.3854Z" fill="#FFD700"/>
<path d="M21.1309 37.8049L21.1832 38.0871C20.9988 37.9466 20.8069 37.8466 20.613 37.7654C20.4916 37.6868 20.2519 37.4213 20.1772 37.2013C20.1558 37.1393 20.1533 37.0891 20.1706 37.0738C20.1787 37.0665 20.1875 37.0596 20.1968 37.0531C20.2715 37.001 20.3831 36.9732 20.4849 36.9821C20.5633 36.9896 20.6252 37.0177 20.6596 37.0624C20.6922 37.1047 20.7283 37.1566 20.7656 37.2129C20.77 37.2354 20.783 37.2541 20.8003 37.2662C20.8774 37.3859 20.9558 37.5175 21.0159 37.6181C21.0729 37.7137 21.1067 37.7708 21.1309 37.8049Z" fill="#FFD700"/>
<path d="M22.0808 23.5527L22.014 23.718C22.0491 23.7399 22.0682 23.7677 22.0781 23.7881C22.2692 24.1854 22.9771 24.6975 22.9843 24.7028L23.2125 24.8668L22.9329 24.8589C22.9061 24.8581 22.2744 24.8384 22.0016 24.659C21.9645 24.6344 21.9263 24.6145 21.8883 24.5944C21.7879 24.5413 21.6744 24.4814 21.5682 24.3451C21.5634 24.3388 21.5585 24.3323 21.5541 24.3252C21.5153 24.3148 21.4586 24.3002 21.4357 24.3002C21.3948 24.3002 21.3466 24.2953 21.2995 24.29C21.4155 24.4738 21.5298 24.693 21.5456 24.863C21.5849 24.9297 21.6158 24.988 21.6463 25.0457C21.7419 25.2257 21.8318 25.3954 22.182 25.811L22.3122 25.9653L22.1124 25.953C21.5331 25.9163 21.2735 25.6375 21.0651 25.4135C20.9952 25.3385 20.929 25.2673 20.857 25.2106L20.8427 25.211C20.8425 25.207 20.8425 25.2033 20.8425 25.1994C20.8423 25.1992 20.8419 25.199 20.8417 25.1988C20.7986 25.1836 20.7586 25.1703 20.721 25.1578C20.707 25.1533 20.6935 25.1488 20.6802 25.1443L20.648 25.7246L20.6406 25.7242C20.6651 25.7663 20.6876 25.808 20.7089 25.8476L20.7204 25.8697C20.7693 25.9602 20.8042 26.0254 20.8349 26.0767C21.2469 26.0997 21.4999 26.1674 21.8787 26.3788C22.1066 26.514 22.3747 26.7403 22.6812 27.0562C23.452 27.7698 24.3731 28.1171 25.4911 28.1171C25.5381 28.1171 25.5759 28.1555 25.5759 28.2031C25.5759 28.2506 25.5381 28.2889 25.4911 28.2889C24.6483 28.2889 23.9129 28.0988 23.266 27.711C23.4772 27.9636 23.7017 28.2482 23.9394 28.5641C23.9495 28.5774 24.7803 29.6895 25.0299 30.1311C25.6192 29.1381 26.3238 28.3261 27.0135 27.6364L22.0808 23.5527ZM26.0495 27.6227C26.0423 27.6646 26.0064 27.6938 25.9658 27.6938C25.9611 27.6938 25.9561 27.6936 25.951 27.6926C25.6244 27.635 25.294 27.4011 24.9744 27.1752C24.8406 27.0808 24.7145 26.9914 24.5907 26.916C24.288 26.7318 23.8673 26.4347 23.7161 26.276C23.6835 26.242 23.6845 26.1875 23.7181 26.1542C23.7516 26.1213 23.8052 26.1221 23.8382 26.1564C23.9732 26.2983 24.3893 26.5929 24.6779 26.7686C24.8069 26.847 24.9412 26.9422 25.0714 27.0341C25.3759 27.2494 25.6909 27.472 25.9806 27.5232C26.0266 27.5313 26.0574 27.5759 26.0495 27.6227Z" fill="#FFD700"/>
<path d="M21.0169 26.5321C20.8663 26.3963 20.803 26.3387 20.7386 26.244C20.721 26.2182 20.7031 26.1895 20.6837 26.1558C20.6686 26.13 20.6525 26.1013 20.6344 26.0685C20.616 26.0344 20.5952 25.9962 20.5718 25.9525L20.5593 25.9297C20.4739 25.7715 20.3678 25.5747 20.2232 25.5005C20.2073 25.492 20.1922 25.4883 20.1772 25.4883C20.1182 25.4883 20.0449 25.5552 19.9816 25.6676C19.9597 25.7065 19.9583 25.7663 19.9707 25.8341C19.9779 25.8726 19.9896 25.9136 20.0047 25.9545C20.0222 26.0016 20.0441 26.0484 20.0688 26.0915C20.0979 26.1425 20.1307 26.1881 20.1646 26.2225C20.2473 26.3072 20.3108 26.3769 20.3634 26.4343C20.5871 26.6801 20.5906 26.6838 21.2331 26.7291C21.1444 26.647 21.0739 26.5837 21.0169 26.5321Z" fill="#FFD700"/>
<path d="M20.2285 37.6219C20.202 37.6129 20.1756 37.6038 20.1492 37.5947C19.9716 37.5344 19.7886 37.472 19.6136 37.3926C19.4089 37.1708 19.1048 36.7617 19.1282 36.5675C19.1484 36.3988 19.2932 36.1961 19.483 35.998C19.45 36.22 19.4752 36.4129 19.5583 36.5735C19.6487 36.7481 19.8067 36.8834 20.0285 36.9773C19.9891 37.0326 19.9668 37.1252 20.0234 37.2769C20.0611 37.3779 20.1376 37.5048 20.2285 37.6219Z" fill="#FFD700"/>
<path d="M19.8213 25.9449C19.6492 25.8388 19.498 25.7385 19.368 25.6475C19.3524 25.6365 19.3371 25.6257 19.3224 25.6152L14.5354 30.6219L13.9272 30.0358L13.4863 30.5573L15.2944 32.3328L15.7931 31.7763L15.118 31.0914L19.8603 26.1472V26.147L19.8892 26.1169C19.8623 26.0626 19.8386 26.0041 19.8213 25.9449Z" fill="#FFD700"/>
</g>
<defs>
<clipPath id="clip0_1285_155743">
<rect width="60" height="60" fill="white"/>
</clipPath>
</defs>
</svg>
